G04 #@! TF.GenerationSoftware,KiCad,Pcbnew,(5.1.0)-1*
G04 #@! TF.CreationDate,2019-05-10T18:53:53+02:00*
G04 #@! TF.ProjectId,30mhzLP,33306d68-7a4c-4502-9e6b-696361645f70,rev?*
G04 #@! TF.SameCoordinates,Original*
G04 #@! TF.FileFunction,Paste,Top*
G04 #@! TF.FilePolarity,Positive*
%FSLAX46Y46*%
G04 Gerber Fmt 4.6, Leading zero omitted, Abs format (unit mm)*
G04 Created by KiCad (PCBNEW (5.1.0)-1) date 2019-05-10 18:53:53*
%MOMM*%
%LPD*%
G04 APERTURE LIST*
%ADD10R,6.730000X2.160000*%
%ADD11C,0.100000*%
%ADD12C,0.875000*%
%ADD13R,5.080000X1.500000*%
G04 APERTURE END LIST*
D10*
X158000000Y-107660000D03*
X158000000Y-118840000D03*
X131500000Y-118340000D03*
X131500000Y-107160000D03*
D11*
G36*
X148277691Y-113601053D02*
G01*
X148298926Y-113604203D01*
X148319750Y-113609419D01*
X148339962Y-113616651D01*
X148359368Y-113625830D01*
X148377781Y-113636866D01*
X148395024Y-113649654D01*
X148410930Y-113664070D01*
X148425346Y-113679976D01*
X148438134Y-113697219D01*
X148449170Y-113715632D01*
X148458349Y-113735038D01*
X148465581Y-113755250D01*
X148470797Y-113776074D01*
X148473947Y-113797309D01*
X148475000Y-113818750D01*
X148475000Y-114256250D01*
X148473947Y-114277691D01*
X148470797Y-114298926D01*
X148465581Y-114319750D01*
X148458349Y-114339962D01*
X148449170Y-114359368D01*
X148438134Y-114377781D01*
X148425346Y-114395024D01*
X148410930Y-114410930D01*
X148395024Y-114425346D01*
X148377781Y-114438134D01*
X148359368Y-114449170D01*
X148339962Y-114458349D01*
X148319750Y-114465581D01*
X148298926Y-114470797D01*
X148277691Y-114473947D01*
X148256250Y-114475000D01*
X147743750Y-114475000D01*
X147722309Y-114473947D01*
X147701074Y-114470797D01*
X147680250Y-114465581D01*
X147660038Y-114458349D01*
X147640632Y-114449170D01*
X147622219Y-114438134D01*
X147604976Y-114425346D01*
X147589070Y-114410930D01*
X147574654Y-114395024D01*
X147561866Y-114377781D01*
X147550830Y-114359368D01*
X147541651Y-114339962D01*
X147534419Y-114319750D01*
X147529203Y-114298926D01*
X147526053Y-114277691D01*
X147525000Y-114256250D01*
X147525000Y-113818750D01*
X147526053Y-113797309D01*
X147529203Y-113776074D01*
X147534419Y-113755250D01*
X147541651Y-113735038D01*
X147550830Y-113715632D01*
X147561866Y-113697219D01*
X147574654Y-113679976D01*
X147589070Y-113664070D01*
X147604976Y-113649654D01*
X147622219Y-113636866D01*
X147640632Y-113625830D01*
X147660038Y-113616651D01*
X147680250Y-113609419D01*
X147701074Y-113604203D01*
X147722309Y-113601053D01*
X147743750Y-113600000D01*
X148256250Y-113600000D01*
X148277691Y-113601053D01*
X148277691Y-113601053D01*
G37*
D12*
X148000000Y-114037500D03*
D11*
G36*
X148277691Y-112026053D02*
G01*
X148298926Y-112029203D01*
X148319750Y-112034419D01*
X148339962Y-112041651D01*
X148359368Y-112050830D01*
X148377781Y-112061866D01*
X148395024Y-112074654D01*
X148410930Y-112089070D01*
X148425346Y-112104976D01*
X148438134Y-112122219D01*
X148449170Y-112140632D01*
X148458349Y-112160038D01*
X148465581Y-112180250D01*
X148470797Y-112201074D01*
X148473947Y-112222309D01*
X148475000Y-112243750D01*
X148475000Y-112681250D01*
X148473947Y-112702691D01*
X148470797Y-112723926D01*
X148465581Y-112744750D01*
X148458349Y-112764962D01*
X148449170Y-112784368D01*
X148438134Y-112802781D01*
X148425346Y-112820024D01*
X148410930Y-112835930D01*
X148395024Y-112850346D01*
X148377781Y-112863134D01*
X148359368Y-112874170D01*
X148339962Y-112883349D01*
X148319750Y-112890581D01*
X148298926Y-112895797D01*
X148277691Y-112898947D01*
X148256250Y-112900000D01*
X147743750Y-112900000D01*
X147722309Y-112898947D01*
X147701074Y-112895797D01*
X147680250Y-112890581D01*
X147660038Y-112883349D01*
X147640632Y-112874170D01*
X147622219Y-112863134D01*
X147604976Y-112850346D01*
X147589070Y-112835930D01*
X147574654Y-112820024D01*
X147561866Y-112802781D01*
X147550830Y-112784368D01*
X147541651Y-112764962D01*
X147534419Y-112744750D01*
X147529203Y-112723926D01*
X147526053Y-112702691D01*
X147525000Y-112681250D01*
X147525000Y-112243750D01*
X147526053Y-112222309D01*
X147529203Y-112201074D01*
X147534419Y-112180250D01*
X147541651Y-112160038D01*
X147550830Y-112140632D01*
X147561866Y-112122219D01*
X147574654Y-112104976D01*
X147589070Y-112089070D01*
X147604976Y-112074654D01*
X147622219Y-112061866D01*
X147640632Y-112050830D01*
X147660038Y-112041651D01*
X147680250Y-112034419D01*
X147701074Y-112029203D01*
X147722309Y-112026053D01*
X147743750Y-112025000D01*
X148256250Y-112025000D01*
X148277691Y-112026053D01*
X148277691Y-112026053D01*
G37*
D12*
X148000000Y-112462500D03*
D11*
G36*
X142277691Y-112063553D02*
G01*
X142298926Y-112066703D01*
X142319750Y-112071919D01*
X142339962Y-112079151D01*
X142359368Y-112088330D01*
X142377781Y-112099366D01*
X142395024Y-112112154D01*
X142410930Y-112126570D01*
X142425346Y-112142476D01*
X142438134Y-112159719D01*
X142449170Y-112178132D01*
X142458349Y-112197538D01*
X142465581Y-112217750D01*
X142470797Y-112238574D01*
X142473947Y-112259809D01*
X142475000Y-112281250D01*
X142475000Y-112718750D01*
X142473947Y-112740191D01*
X142470797Y-112761426D01*
X142465581Y-112782250D01*
X142458349Y-112802462D01*
X142449170Y-112821868D01*
X142438134Y-112840281D01*
X142425346Y-112857524D01*
X142410930Y-112873430D01*
X142395024Y-112887846D01*
X142377781Y-112900634D01*
X142359368Y-112911670D01*
X142339962Y-112920849D01*
X142319750Y-112928081D01*
X142298926Y-112933297D01*
X142277691Y-112936447D01*
X142256250Y-112937500D01*
X141743750Y-112937500D01*
X141722309Y-112936447D01*
X141701074Y-112933297D01*
X141680250Y-112928081D01*
X141660038Y-112920849D01*
X141640632Y-112911670D01*
X141622219Y-112900634D01*
X141604976Y-112887846D01*
X141589070Y-112873430D01*
X141574654Y-112857524D01*
X141561866Y-112840281D01*
X141550830Y-112821868D01*
X141541651Y-112802462D01*
X141534419Y-112782250D01*
X141529203Y-112761426D01*
X141526053Y-112740191D01*
X141525000Y-112718750D01*
X141525000Y-112281250D01*
X141526053Y-112259809D01*
X141529203Y-112238574D01*
X141534419Y-112217750D01*
X141541651Y-112197538D01*
X141550830Y-112178132D01*
X141561866Y-112159719D01*
X141574654Y-112142476D01*
X141589070Y-112126570D01*
X141604976Y-112112154D01*
X141622219Y-112099366D01*
X141640632Y-112088330D01*
X141660038Y-112079151D01*
X141680250Y-112071919D01*
X141701074Y-112066703D01*
X141722309Y-112063553D01*
X141743750Y-112062500D01*
X142256250Y-112062500D01*
X142277691Y-112063553D01*
X142277691Y-112063553D01*
G37*
D12*
X142000000Y-112500000D03*
D11*
G36*
X142277691Y-113638553D02*
G01*
X142298926Y-113641703D01*
X142319750Y-113646919D01*
X142339962Y-113654151D01*
X142359368Y-113663330D01*
X142377781Y-113674366D01*
X142395024Y-113687154D01*
X142410930Y-113701570D01*
X142425346Y-113717476D01*
X142438134Y-113734719D01*
X142449170Y-113753132D01*
X142458349Y-113772538D01*
X142465581Y-113792750D01*
X142470797Y-113813574D01*
X142473947Y-113834809D01*
X142475000Y-113856250D01*
X142475000Y-114293750D01*
X142473947Y-114315191D01*
X142470797Y-114336426D01*
X142465581Y-114357250D01*
X142458349Y-114377462D01*
X142449170Y-114396868D01*
X142438134Y-114415281D01*
X142425346Y-114432524D01*
X142410930Y-114448430D01*
X142395024Y-114462846D01*
X142377781Y-114475634D01*
X142359368Y-114486670D01*
X142339962Y-114495849D01*
X142319750Y-114503081D01*
X142298926Y-114508297D01*
X142277691Y-114511447D01*
X142256250Y-114512500D01*
X141743750Y-114512500D01*
X141722309Y-114511447D01*
X141701074Y-114508297D01*
X141680250Y-114503081D01*
X141660038Y-114495849D01*
X141640632Y-114486670D01*
X141622219Y-114475634D01*
X141604976Y-114462846D01*
X141589070Y-114448430D01*
X141574654Y-114432524D01*
X141561866Y-114415281D01*
X141550830Y-114396868D01*
X141541651Y-114377462D01*
X141534419Y-114357250D01*
X141529203Y-114336426D01*
X141526053Y-114315191D01*
X141525000Y-114293750D01*
X141525000Y-113856250D01*
X141526053Y-113834809D01*
X141529203Y-113813574D01*
X141534419Y-113792750D01*
X141541651Y-113772538D01*
X141550830Y-113753132D01*
X141561866Y-113734719D01*
X141574654Y-113717476D01*
X141589070Y-113701570D01*
X141604976Y-113687154D01*
X141622219Y-113674366D01*
X141640632Y-113663330D01*
X141660038Y-113654151D01*
X141680250Y-113646919D01*
X141701074Y-113641703D01*
X141722309Y-113638553D01*
X141743750Y-113637500D01*
X142256250Y-113637500D01*
X142277691Y-113638553D01*
X142277691Y-113638553D01*
G37*
D12*
X142000000Y-114075000D03*
D13*
X171500000Y-112500000D03*
X171500000Y-108250000D03*
X171500000Y-116750000D03*
X118500000Y-112500000D03*
X118500000Y-116750000D03*
X118500000Y-108250000D03*
D11*
G36*
X151277691Y-112026053D02*
G01*
X151298926Y-112029203D01*
X151319750Y-112034419D01*
X151339962Y-112041651D01*
X151359368Y-112050830D01*
X151377781Y-112061866D01*
X151395024Y-112074654D01*
X151410930Y-112089070D01*
X151425346Y-112104976D01*
X151438134Y-112122219D01*
X151449170Y-112140632D01*
X151458349Y-112160038D01*
X151465581Y-112180250D01*
X151470797Y-112201074D01*
X151473947Y-112222309D01*
X151475000Y-112243750D01*
X151475000Y-112681250D01*
X151473947Y-112702691D01*
X151470797Y-112723926D01*
X151465581Y-112744750D01*
X151458349Y-112764962D01*
X151449170Y-112784368D01*
X151438134Y-112802781D01*
X151425346Y-112820024D01*
X151410930Y-112835930D01*
X151395024Y-112850346D01*
X151377781Y-112863134D01*
X151359368Y-112874170D01*
X151339962Y-112883349D01*
X151319750Y-112890581D01*
X151298926Y-112895797D01*
X151277691Y-112898947D01*
X151256250Y-112900000D01*
X150743750Y-112900000D01*
X150722309Y-112898947D01*
X150701074Y-112895797D01*
X150680250Y-112890581D01*
X150660038Y-112883349D01*
X150640632Y-112874170D01*
X150622219Y-112863134D01*
X150604976Y-112850346D01*
X150589070Y-112835930D01*
X150574654Y-112820024D01*
X150561866Y-112802781D01*
X150550830Y-112784368D01*
X150541651Y-112764962D01*
X150534419Y-112744750D01*
X150529203Y-112723926D01*
X150526053Y-112702691D01*
X150525000Y-112681250D01*
X150525000Y-112243750D01*
X150526053Y-112222309D01*
X150529203Y-112201074D01*
X150534419Y-112180250D01*
X150541651Y-112160038D01*
X150550830Y-112140632D01*
X150561866Y-112122219D01*
X150574654Y-112104976D01*
X150589070Y-112089070D01*
X150604976Y-112074654D01*
X150622219Y-112061866D01*
X150640632Y-112050830D01*
X150660038Y-112041651D01*
X150680250Y-112034419D01*
X150701074Y-112029203D01*
X150722309Y-112026053D01*
X150743750Y-112025000D01*
X151256250Y-112025000D01*
X151277691Y-112026053D01*
X151277691Y-112026053D01*
G37*
D12*
X151000000Y-112462500D03*
D11*
G36*
X151277691Y-113601053D02*
G01*
X151298926Y-113604203D01*
X151319750Y-113609419D01*
X151339962Y-113616651D01*
X151359368Y-113625830D01*
X151377781Y-113636866D01*
X151395024Y-113649654D01*
X151410930Y-113664070D01*
X151425346Y-113679976D01*
X151438134Y-113697219D01*
X151449170Y-113715632D01*
X151458349Y-113735038D01*
X151465581Y-113755250D01*
X151470797Y-113776074D01*
X151473947Y-113797309D01*
X151475000Y-113818750D01*
X151475000Y-114256250D01*
X151473947Y-114277691D01*
X151470797Y-114298926D01*
X151465581Y-114319750D01*
X151458349Y-114339962D01*
X151449170Y-114359368D01*
X151438134Y-114377781D01*
X151425346Y-114395024D01*
X151410930Y-114410930D01*
X151395024Y-114425346D01*
X151377781Y-114438134D01*
X151359368Y-114449170D01*
X151339962Y-114458349D01*
X151319750Y-114465581D01*
X151298926Y-114470797D01*
X151277691Y-114473947D01*
X151256250Y-114475000D01*
X150743750Y-114475000D01*
X150722309Y-114473947D01*
X150701074Y-114470797D01*
X150680250Y-114465581D01*
X150660038Y-114458349D01*
X150640632Y-114449170D01*
X150622219Y-114438134D01*
X150604976Y-114425346D01*
X150589070Y-114410930D01*
X150574654Y-114395024D01*
X150561866Y-114377781D01*
X150550830Y-114359368D01*
X150541651Y-114339962D01*
X150534419Y-114319750D01*
X150529203Y-114298926D01*
X150526053Y-114277691D01*
X150525000Y-114256250D01*
X150525000Y-113818750D01*
X150526053Y-113797309D01*
X150529203Y-113776074D01*
X150534419Y-113755250D01*
X150541651Y-113735038D01*
X150550830Y-113715632D01*
X150561866Y-113697219D01*
X150574654Y-113679976D01*
X150589070Y-113664070D01*
X150604976Y-113649654D01*
X150622219Y-113636866D01*
X150640632Y-113625830D01*
X150660038Y-113616651D01*
X150680250Y-113609419D01*
X150701074Y-113604203D01*
X150722309Y-113601053D01*
X150743750Y-113600000D01*
X151256250Y-113600000D01*
X151277691Y-113601053D01*
X151277691Y-113601053D01*
G37*
D12*
X151000000Y-114037500D03*
D11*
G36*
X145277691Y-113601053D02*
G01*
X145298926Y-113604203D01*
X145319750Y-113609419D01*
X145339962Y-113616651D01*
X145359368Y-113625830D01*
X145377781Y-113636866D01*
X145395024Y-113649654D01*
X145410930Y-113664070D01*
X145425346Y-113679976D01*
X145438134Y-113697219D01*
X145449170Y-113715632D01*
X145458349Y-113735038D01*
X145465581Y-113755250D01*
X145470797Y-113776074D01*
X145473947Y-113797309D01*
X145475000Y-113818750D01*
X145475000Y-114256250D01*
X145473947Y-114277691D01*
X145470797Y-114298926D01*
X145465581Y-114319750D01*
X145458349Y-114339962D01*
X145449170Y-114359368D01*
X145438134Y-114377781D01*
X145425346Y-114395024D01*
X145410930Y-114410930D01*
X145395024Y-114425346D01*
X145377781Y-114438134D01*
X145359368Y-114449170D01*
X145339962Y-114458349D01*
X145319750Y-114465581D01*
X145298926Y-114470797D01*
X145277691Y-114473947D01*
X145256250Y-114475000D01*
X144743750Y-114475000D01*
X144722309Y-114473947D01*
X144701074Y-114470797D01*
X144680250Y-114465581D01*
X144660038Y-114458349D01*
X144640632Y-114449170D01*
X144622219Y-114438134D01*
X144604976Y-114425346D01*
X144589070Y-114410930D01*
X144574654Y-114395024D01*
X144561866Y-114377781D01*
X144550830Y-114359368D01*
X144541651Y-114339962D01*
X144534419Y-114319750D01*
X144529203Y-114298926D01*
X144526053Y-114277691D01*
X144525000Y-114256250D01*
X144525000Y-113818750D01*
X144526053Y-113797309D01*
X144529203Y-113776074D01*
X144534419Y-113755250D01*
X144541651Y-113735038D01*
X144550830Y-113715632D01*
X144561866Y-113697219D01*
X144574654Y-113679976D01*
X144589070Y-113664070D01*
X144604976Y-113649654D01*
X144622219Y-113636866D01*
X144640632Y-113625830D01*
X144660038Y-113616651D01*
X144680250Y-113609419D01*
X144701074Y-113604203D01*
X144722309Y-113601053D01*
X144743750Y-113600000D01*
X145256250Y-113600000D01*
X145277691Y-113601053D01*
X145277691Y-113601053D01*
G37*
D12*
X145000000Y-114037500D03*
D11*
G36*
X145277691Y-112026053D02*
G01*
X145298926Y-112029203D01*
X145319750Y-112034419D01*
X145339962Y-112041651D01*
X145359368Y-112050830D01*
X145377781Y-112061866D01*
X145395024Y-112074654D01*
X145410930Y-112089070D01*
X145425346Y-112104976D01*
X145438134Y-112122219D01*
X145449170Y-112140632D01*
X145458349Y-112160038D01*
X145465581Y-112180250D01*
X145470797Y-112201074D01*
X145473947Y-112222309D01*
X145475000Y-112243750D01*
X145475000Y-112681250D01*
X145473947Y-112702691D01*
X145470797Y-112723926D01*
X145465581Y-112744750D01*
X145458349Y-112764962D01*
X145449170Y-112784368D01*
X145438134Y-112802781D01*
X145425346Y-112820024D01*
X145410930Y-112835930D01*
X145395024Y-112850346D01*
X145377781Y-112863134D01*
X145359368Y-112874170D01*
X145339962Y-112883349D01*
X145319750Y-112890581D01*
X145298926Y-112895797D01*
X145277691Y-112898947D01*
X145256250Y-112900000D01*
X144743750Y-112900000D01*
X144722309Y-112898947D01*
X144701074Y-112895797D01*
X144680250Y-112890581D01*
X144660038Y-112883349D01*
X144640632Y-112874170D01*
X144622219Y-112863134D01*
X144604976Y-112850346D01*
X144589070Y-112835930D01*
X144574654Y-112820024D01*
X144561866Y-112802781D01*
X144550830Y-112784368D01*
X144541651Y-112764962D01*
X144534419Y-112744750D01*
X144529203Y-112723926D01*
X144526053Y-112702691D01*
X144525000Y-112681250D01*
X144525000Y-112243750D01*
X144526053Y-112222309D01*
X144529203Y-112201074D01*
X144534419Y-112180250D01*
X144541651Y-112160038D01*
X144550830Y-112140632D01*
X144561866Y-112122219D01*
X144574654Y-112104976D01*
X144589070Y-112089070D01*
X144604976Y-112074654D01*
X144622219Y-112061866D01*
X144640632Y-112050830D01*
X144660038Y-112041651D01*
X144680250Y-112034419D01*
X144701074Y-112029203D01*
X144722309Y-112026053D01*
X144743750Y-112025000D01*
X145256250Y-112025000D01*
X145277691Y-112026053D01*
X145277691Y-112026053D01*
G37*
D12*
X145000000Y-112462500D03*
D11*
G36*
X138527691Y-112063553D02*
G01*
X138548926Y-112066703D01*
X138569750Y-112071919D01*
X138589962Y-112079151D01*
X138609368Y-112088330D01*
X138627781Y-112099366D01*
X138645024Y-112112154D01*
X138660930Y-112126570D01*
X138675346Y-112142476D01*
X138688134Y-112159719D01*
X138699170Y-112178132D01*
X138708349Y-112197538D01*
X138715581Y-112217750D01*
X138720797Y-112238574D01*
X138723947Y-112259809D01*
X138725000Y-112281250D01*
X138725000Y-112718750D01*
X138723947Y-112740191D01*
X138720797Y-112761426D01*
X138715581Y-112782250D01*
X138708349Y-112802462D01*
X138699170Y-112821868D01*
X138688134Y-112840281D01*
X138675346Y-112857524D01*
X138660930Y-112873430D01*
X138645024Y-112887846D01*
X138627781Y-112900634D01*
X138609368Y-112911670D01*
X138589962Y-112920849D01*
X138569750Y-112928081D01*
X138548926Y-112933297D01*
X138527691Y-112936447D01*
X138506250Y-112937500D01*
X137993750Y-112937500D01*
X137972309Y-112936447D01*
X137951074Y-112933297D01*
X137930250Y-112928081D01*
X137910038Y-112920849D01*
X137890632Y-112911670D01*
X137872219Y-112900634D01*
X137854976Y-112887846D01*
X137839070Y-112873430D01*
X137824654Y-112857524D01*
X137811866Y-112840281D01*
X137800830Y-112821868D01*
X137791651Y-112802462D01*
X137784419Y-112782250D01*
X137779203Y-112761426D01*
X137776053Y-112740191D01*
X137775000Y-112718750D01*
X137775000Y-112281250D01*
X137776053Y-112259809D01*
X137779203Y-112238574D01*
X137784419Y-112217750D01*
X137791651Y-112197538D01*
X137800830Y-112178132D01*
X137811866Y-112159719D01*
X137824654Y-112142476D01*
X137839070Y-112126570D01*
X137854976Y-112112154D01*
X137872219Y-112099366D01*
X137890632Y-112088330D01*
X137910038Y-112079151D01*
X137930250Y-112071919D01*
X137951074Y-112066703D01*
X137972309Y-112063553D01*
X137993750Y-112062500D01*
X138506250Y-112062500D01*
X138527691Y-112063553D01*
X138527691Y-112063553D01*
G37*
D12*
X138250000Y-112500000D03*
D11*
G36*
X138527691Y-113638553D02*
G01*
X138548926Y-113641703D01*
X138569750Y-113646919D01*
X138589962Y-113654151D01*
X138609368Y-113663330D01*
X138627781Y-113674366D01*
X138645024Y-113687154D01*
X138660930Y-113701570D01*
X138675346Y-113717476D01*
X138688134Y-113734719D01*
X138699170Y-113753132D01*
X138708349Y-113772538D01*
X138715581Y-113792750D01*
X138720797Y-113813574D01*
X138723947Y-113834809D01*
X138725000Y-113856250D01*
X138725000Y-114293750D01*
X138723947Y-114315191D01*
X138720797Y-114336426D01*
X138715581Y-114357250D01*
X138708349Y-114377462D01*
X138699170Y-114396868D01*
X138688134Y-114415281D01*
X138675346Y-114432524D01*
X138660930Y-114448430D01*
X138645024Y-114462846D01*
X138627781Y-114475634D01*
X138609368Y-114486670D01*
X138589962Y-114495849D01*
X138569750Y-114503081D01*
X138548926Y-114508297D01*
X138527691Y-114511447D01*
X138506250Y-114512500D01*
X137993750Y-114512500D01*
X137972309Y-114511447D01*
X137951074Y-114508297D01*
X137930250Y-114503081D01*
X137910038Y-114495849D01*
X137890632Y-114486670D01*
X137872219Y-114475634D01*
X137854976Y-114462846D01*
X137839070Y-114448430D01*
X137824654Y-114432524D01*
X137811866Y-114415281D01*
X137800830Y-114396868D01*
X137791651Y-114377462D01*
X137784419Y-114357250D01*
X137779203Y-114336426D01*
X137776053Y-114315191D01*
X137775000Y-114293750D01*
X137775000Y-113856250D01*
X137776053Y-113834809D01*
X137779203Y-113813574D01*
X137784419Y-113792750D01*
X137791651Y-113772538D01*
X137800830Y-113753132D01*
X137811866Y-113734719D01*
X137824654Y-113717476D01*
X137839070Y-113701570D01*
X137854976Y-113687154D01*
X137872219Y-113674366D01*
X137890632Y-113663330D01*
X137910038Y-113654151D01*
X137930250Y-113646919D01*
X137951074Y-113641703D01*
X137972309Y-113638553D01*
X137993750Y-113637500D01*
X138506250Y-113637500D01*
X138527691Y-113638553D01*
X138527691Y-113638553D01*
G37*
D12*
X138250000Y-114075000D03*
M02*
