G04 #@! TF.GenerationSoftware,KiCad,Pcbnew,(5.1.0)-1*
G04 #@! TF.CreationDate,2019-05-10T18:53:53+02:00*
G04 #@! TF.ProjectId,30mhzLP,33306d68-7a4c-4502-9e6b-696361645f70,rev?*
G04 #@! TF.SameCoordinates,Original*
G04 #@! TF.FileFunction,Copper,L2,Bot*
G04 #@! TF.FilePolarity,Positive*
%FSLAX46Y46*%
G04 Gerber Fmt 4.6, Leading zero omitted, Abs format (unit mm)*
G04 Created by KiCad (PCBNEW (5.1.0)-1) date 2019-05-10 18:53:53*
%MOMM*%
%LPD*%
G04 APERTURE LIST*
%ADD10R,5.080000X1.500000*%
%ADD11C,0.800000*%
%ADD12C,0.254000*%
G04 APERTURE END LIST*
D10*
X171500000Y-108250000D03*
X171500000Y-116750000D03*
X118500000Y-116750000D03*
X118500000Y-108250000D03*
D11*
X162000000Y-97000000D03*
X164000000Y-101000000D03*
X168000000Y-102000000D03*
X172000000Y-102000000D03*
X172000000Y-106000000D03*
X169000000Y-106000000D03*
X167000000Y-108000000D03*
X167000000Y-111000000D03*
X164000000Y-111000000D03*
X164000000Y-114000000D03*
X167000000Y-114000000D03*
X167000000Y-117000000D03*
X169000000Y-119000000D03*
X172000000Y-119000000D03*
X172000000Y-123000000D03*
X166000000Y-123000000D03*
X163000000Y-125000000D03*
X163000000Y-129000000D03*
X159000000Y-129000000D03*
X155000000Y-129000000D03*
X151000000Y-129000000D03*
X147000000Y-129000000D03*
X143000000Y-129000000D03*
X139000000Y-129000000D03*
X135000000Y-129000000D03*
X131000000Y-129000000D03*
X127000000Y-129000000D03*
X126000000Y-126000000D03*
X124000000Y-124000000D03*
X120000000Y-124000000D03*
X117000000Y-123000000D03*
X117000000Y-119000000D03*
X120000000Y-119000000D03*
X123000000Y-117000000D03*
X123000000Y-114000000D03*
X126000000Y-114000000D03*
X126000000Y-111000000D03*
X123000000Y-111000000D03*
X123000000Y-108000000D03*
X120000000Y-106000000D03*
X117000000Y-106000000D03*
X117000000Y-102000000D03*
X120000000Y-101000000D03*
X124000000Y-101000000D03*
X126000000Y-99000000D03*
X127000000Y-96000000D03*
X131000000Y-96000000D03*
X135000000Y-96000000D03*
X139000000Y-96000000D03*
X143000000Y-96000000D03*
X147000000Y-96000000D03*
X151000000Y-96000000D03*
X155000000Y-96000000D03*
X159000000Y-96000000D03*
X151000000Y-111000000D03*
X145000000Y-115500000D03*
X138000000Y-111000000D03*
X117000000Y-115000000D03*
X120000000Y-115000000D03*
X120000000Y-110000000D03*
X117000000Y-110000000D03*
X170000000Y-110000000D03*
X173000000Y-110000000D03*
X173000000Y-115000000D03*
X170000000Y-115000000D03*
D12*
G36*
X163662540Y-95679102D02*
G01*
X163818894Y-95726308D01*
X163963096Y-95802982D01*
X164089663Y-95906207D01*
X164193769Y-96032051D01*
X164271447Y-96175711D01*
X164319742Y-96331729D01*
X164340000Y-96524473D01*
X164340001Y-98532419D01*
X164342818Y-98561018D01*
X164342753Y-98570288D01*
X164343652Y-98579460D01*
X164374252Y-98870605D01*
X164386283Y-98929217D01*
X164397489Y-98987963D01*
X164400153Y-98996784D01*
X164486721Y-99276440D01*
X164509899Y-99331578D01*
X164532311Y-99387050D01*
X164536638Y-99395186D01*
X164675877Y-99652702D01*
X164709304Y-99702259D01*
X164742080Y-99752347D01*
X164747905Y-99759488D01*
X164934510Y-99985056D01*
X164976965Y-100027215D01*
X165018809Y-100069945D01*
X165025909Y-100075819D01*
X165252773Y-100260845D01*
X165302566Y-100293927D01*
X165351955Y-100327745D01*
X165360061Y-100332127D01*
X165618542Y-100469564D01*
X165673836Y-100492355D01*
X165728829Y-100515925D01*
X165737632Y-100518650D01*
X166017887Y-100603264D01*
X166076564Y-100614882D01*
X166135079Y-100627320D01*
X166144242Y-100628283D01*
X166144244Y-100628283D01*
X166435596Y-100656850D01*
X166435598Y-100656850D01*
X166467581Y-100660000D01*
X172467723Y-100660000D01*
X172662540Y-100679102D01*
X172818894Y-100726308D01*
X172963096Y-100802982D01*
X173089663Y-100906207D01*
X173193769Y-101032051D01*
X173271447Y-101175711D01*
X173319742Y-101331729D01*
X173340000Y-101524473D01*
X173340000Y-106862882D01*
X171785750Y-106865000D01*
X171627000Y-107023750D01*
X171627000Y-108123000D01*
X173340000Y-108123000D01*
X173340000Y-108377000D01*
X171627000Y-108377000D01*
X171627000Y-109476250D01*
X171785750Y-109635000D01*
X173340000Y-109637118D01*
X173340001Y-115362882D01*
X171785750Y-115365000D01*
X171627000Y-115523750D01*
X171627000Y-116623000D01*
X173340001Y-116623000D01*
X173340001Y-116877000D01*
X171627000Y-116877000D01*
X171627000Y-117976250D01*
X171785750Y-118135000D01*
X173340001Y-118137118D01*
X173340001Y-123967712D01*
X173320898Y-124162540D01*
X173273692Y-124318895D01*
X173197018Y-124463096D01*
X173093792Y-124589664D01*
X172967951Y-124693768D01*
X172824289Y-124771447D01*
X172668271Y-124819742D01*
X172475527Y-124840000D01*
X166467581Y-124840000D01*
X166438972Y-124842818D01*
X166429712Y-124842753D01*
X166420541Y-124843652D01*
X166129395Y-124874252D01*
X166070753Y-124886290D01*
X166012037Y-124897490D01*
X166003216Y-124900153D01*
X165723560Y-124986721D01*
X165668422Y-125009899D01*
X165612950Y-125032311D01*
X165604819Y-125036635D01*
X165604815Y-125036637D01*
X165604814Y-125036638D01*
X165347298Y-125175877D01*
X165297749Y-125209299D01*
X165247653Y-125242080D01*
X165240512Y-125247905D01*
X165014945Y-125434510D01*
X164972804Y-125476946D01*
X164930055Y-125518809D01*
X164924181Y-125525909D01*
X164739155Y-125752773D01*
X164706055Y-125802592D01*
X164672256Y-125851955D01*
X164667873Y-125860061D01*
X164530436Y-126118542D01*
X164507645Y-126173836D01*
X164484075Y-126228829D01*
X164481350Y-126237632D01*
X164396736Y-126517886D01*
X164385116Y-126576571D01*
X164372680Y-126635079D01*
X164371717Y-126644244D01*
X164343150Y-126935596D01*
X164343150Y-126935608D01*
X164340001Y-126967581D01*
X164340000Y-128967722D01*
X164320898Y-129162540D01*
X164273692Y-129318895D01*
X164197018Y-129463096D01*
X164093792Y-129589664D01*
X163967951Y-129693768D01*
X163824289Y-129771447D01*
X163668271Y-129819742D01*
X163475527Y-129840000D01*
X126532277Y-129840000D01*
X126337460Y-129820898D01*
X126181105Y-129773692D01*
X126036904Y-129697018D01*
X125910336Y-129593792D01*
X125806232Y-129467951D01*
X125728553Y-129324289D01*
X125680258Y-129168271D01*
X125660000Y-128975527D01*
X125660000Y-126967581D01*
X125657182Y-126938972D01*
X125657247Y-126929712D01*
X125656348Y-126920541D01*
X125625748Y-126629395D01*
X125613710Y-126570753D01*
X125602510Y-126512037D01*
X125599847Y-126503216D01*
X125513279Y-126223560D01*
X125490101Y-126168422D01*
X125467689Y-126112950D01*
X125463362Y-126104814D01*
X125324123Y-125847298D01*
X125290701Y-125797749D01*
X125257920Y-125747653D01*
X125252095Y-125740512D01*
X125065490Y-125514945D01*
X125023054Y-125472804D01*
X124981191Y-125430055D01*
X124974091Y-125424181D01*
X124747227Y-125239155D01*
X124697408Y-125206055D01*
X124648045Y-125172256D01*
X124639939Y-125167873D01*
X124381458Y-125030436D01*
X124326164Y-125007645D01*
X124271171Y-124984075D01*
X124262368Y-124981350D01*
X123982114Y-124896736D01*
X123923429Y-124885116D01*
X123864921Y-124872680D01*
X123855758Y-124871717D01*
X123855756Y-124871717D01*
X123564404Y-124843150D01*
X123564402Y-124843150D01*
X123532419Y-124840000D01*
X117532277Y-124840000D01*
X117337460Y-124820898D01*
X117181105Y-124773692D01*
X117036904Y-124697018D01*
X116910336Y-124593792D01*
X116806232Y-124467951D01*
X116728553Y-124324289D01*
X116680258Y-124168271D01*
X116660000Y-123975527D01*
X116660000Y-118137118D01*
X118214250Y-118135000D01*
X118373000Y-117976250D01*
X118373000Y-116877000D01*
X118627000Y-116877000D01*
X118627000Y-117976250D01*
X118785750Y-118135000D01*
X121040000Y-118138072D01*
X121164482Y-118125812D01*
X121284180Y-118089502D01*
X121394494Y-118030537D01*
X121491185Y-117951185D01*
X121570537Y-117854494D01*
X121629502Y-117744180D01*
X121665812Y-117624482D01*
X121678072Y-117500000D01*
X168321928Y-117500000D01*
X168334188Y-117624482D01*
X168370498Y-117744180D01*
X168429463Y-117854494D01*
X168508815Y-117951185D01*
X168605506Y-118030537D01*
X168715820Y-118089502D01*
X168835518Y-118125812D01*
X168960000Y-118138072D01*
X171214250Y-118135000D01*
X171373000Y-117976250D01*
X171373000Y-116877000D01*
X168483750Y-116877000D01*
X168325000Y-117035750D01*
X168321928Y-117500000D01*
X121678072Y-117500000D01*
X121675000Y-117035750D01*
X121516250Y-116877000D01*
X118627000Y-116877000D01*
X118373000Y-116877000D01*
X116660000Y-116877000D01*
X116660000Y-116623000D01*
X118373000Y-116623000D01*
X118373000Y-115523750D01*
X118627000Y-115523750D01*
X118627000Y-116623000D01*
X121516250Y-116623000D01*
X121675000Y-116464250D01*
X121678072Y-116000000D01*
X168321928Y-116000000D01*
X168325000Y-116464250D01*
X168483750Y-116623000D01*
X171373000Y-116623000D01*
X171373000Y-115523750D01*
X171214250Y-115365000D01*
X168960000Y-115361928D01*
X168835518Y-115374188D01*
X168715820Y-115410498D01*
X168605506Y-115469463D01*
X168508815Y-115548815D01*
X168429463Y-115645506D01*
X168370498Y-115755820D01*
X168334188Y-115875518D01*
X168321928Y-116000000D01*
X121678072Y-116000000D01*
X121665812Y-115875518D01*
X121629502Y-115755820D01*
X121570537Y-115645506D01*
X121491185Y-115548815D01*
X121394494Y-115469463D01*
X121284180Y-115410498D01*
X121164482Y-115374188D01*
X121040000Y-115361928D01*
X118785750Y-115365000D01*
X118627000Y-115523750D01*
X118373000Y-115523750D01*
X118214250Y-115365000D01*
X116660000Y-115362882D01*
X116660000Y-109637118D01*
X118214250Y-109635000D01*
X118373000Y-109476250D01*
X118373000Y-108377000D01*
X118627000Y-108377000D01*
X118627000Y-109476250D01*
X118785750Y-109635000D01*
X121040000Y-109638072D01*
X121164482Y-109625812D01*
X121284180Y-109589502D01*
X121394494Y-109530537D01*
X121491185Y-109451185D01*
X121570537Y-109354494D01*
X121629502Y-109244180D01*
X121665812Y-109124482D01*
X121678072Y-109000000D01*
X168321928Y-109000000D01*
X168334188Y-109124482D01*
X168370498Y-109244180D01*
X168429463Y-109354494D01*
X168508815Y-109451185D01*
X168605506Y-109530537D01*
X168715820Y-109589502D01*
X168835518Y-109625812D01*
X168960000Y-109638072D01*
X171214250Y-109635000D01*
X171373000Y-109476250D01*
X171373000Y-108377000D01*
X168483750Y-108377000D01*
X168325000Y-108535750D01*
X168321928Y-109000000D01*
X121678072Y-109000000D01*
X121675000Y-108535750D01*
X121516250Y-108377000D01*
X118627000Y-108377000D01*
X118373000Y-108377000D01*
X116660000Y-108377000D01*
X116660000Y-108123000D01*
X118373000Y-108123000D01*
X118373000Y-107023750D01*
X118627000Y-107023750D01*
X118627000Y-108123000D01*
X121516250Y-108123000D01*
X121675000Y-107964250D01*
X121678072Y-107500000D01*
X168321928Y-107500000D01*
X168325000Y-107964250D01*
X168483750Y-108123000D01*
X171373000Y-108123000D01*
X171373000Y-107023750D01*
X171214250Y-106865000D01*
X168960000Y-106861928D01*
X168835518Y-106874188D01*
X168715820Y-106910498D01*
X168605506Y-106969463D01*
X168508815Y-107048815D01*
X168429463Y-107145506D01*
X168370498Y-107255820D01*
X168334188Y-107375518D01*
X168321928Y-107500000D01*
X121678072Y-107500000D01*
X121665812Y-107375518D01*
X121629502Y-107255820D01*
X121570537Y-107145506D01*
X121491185Y-107048815D01*
X121394494Y-106969463D01*
X121284180Y-106910498D01*
X121164482Y-106874188D01*
X121040000Y-106861928D01*
X118785750Y-106865000D01*
X118627000Y-107023750D01*
X118373000Y-107023750D01*
X118214250Y-106865000D01*
X116660000Y-106862882D01*
X116660000Y-101532277D01*
X116679102Y-101337460D01*
X116726308Y-101181106D01*
X116802982Y-101036904D01*
X116906207Y-100910337D01*
X117032051Y-100806231D01*
X117175711Y-100728553D01*
X117331729Y-100680258D01*
X117524473Y-100660000D01*
X123532419Y-100660000D01*
X123561028Y-100657182D01*
X123570288Y-100657247D01*
X123579460Y-100656348D01*
X123870605Y-100625748D01*
X123929217Y-100613717D01*
X123987963Y-100602511D01*
X123996784Y-100599847D01*
X124276440Y-100513279D01*
X124331578Y-100490101D01*
X124387050Y-100467689D01*
X124395181Y-100463365D01*
X124395185Y-100463363D01*
X124395188Y-100463361D01*
X124652702Y-100324123D01*
X124702259Y-100290696D01*
X124752347Y-100257920D01*
X124759488Y-100252095D01*
X124985056Y-100065490D01*
X125027215Y-100023035D01*
X125069945Y-99981191D01*
X125075819Y-99974091D01*
X125260845Y-99747227D01*
X125293927Y-99697434D01*
X125327745Y-99648045D01*
X125332127Y-99639939D01*
X125469564Y-99381458D01*
X125492355Y-99326164D01*
X125515925Y-99271171D01*
X125518650Y-99262368D01*
X125603264Y-98982113D01*
X125614882Y-98923436D01*
X125627320Y-98864921D01*
X125628283Y-98855756D01*
X125656850Y-98564404D01*
X125656850Y-98564402D01*
X125660000Y-98532419D01*
X125660000Y-96532277D01*
X125679102Y-96337460D01*
X125726308Y-96181106D01*
X125802982Y-96036904D01*
X125906207Y-95910337D01*
X126032051Y-95806231D01*
X126175711Y-95728553D01*
X126331729Y-95680258D01*
X126524473Y-95660000D01*
X163467723Y-95660000D01*
X163662540Y-95679102D01*
X163662540Y-95679102D01*
G37*
X163662540Y-95679102D02*
X163818894Y-95726308D01*
X163963096Y-95802982D01*
X164089663Y-95906207D01*
X164193769Y-96032051D01*
X164271447Y-96175711D01*
X164319742Y-96331729D01*
X164340000Y-96524473D01*
X164340001Y-98532419D01*
X164342818Y-98561018D01*
X164342753Y-98570288D01*
X164343652Y-98579460D01*
X164374252Y-98870605D01*
X164386283Y-98929217D01*
X164397489Y-98987963D01*
X164400153Y-98996784D01*
X164486721Y-99276440D01*
X164509899Y-99331578D01*
X164532311Y-99387050D01*
X164536638Y-99395186D01*
X164675877Y-99652702D01*
X164709304Y-99702259D01*
X164742080Y-99752347D01*
X164747905Y-99759488D01*
X164934510Y-99985056D01*
X164976965Y-100027215D01*
X165018809Y-100069945D01*
X165025909Y-100075819D01*
X165252773Y-100260845D01*
X165302566Y-100293927D01*
X165351955Y-100327745D01*
X165360061Y-100332127D01*
X165618542Y-100469564D01*
X165673836Y-100492355D01*
X165728829Y-100515925D01*
X165737632Y-100518650D01*
X166017887Y-100603264D01*
X166076564Y-100614882D01*
X166135079Y-100627320D01*
X166144242Y-100628283D01*
X166144244Y-100628283D01*
X166435596Y-100656850D01*
X166435598Y-100656850D01*
X166467581Y-100660000D01*
X172467723Y-100660000D01*
X172662540Y-100679102D01*
X172818894Y-100726308D01*
X172963096Y-100802982D01*
X173089663Y-100906207D01*
X173193769Y-101032051D01*
X173271447Y-101175711D01*
X173319742Y-101331729D01*
X173340000Y-101524473D01*
X173340000Y-106862882D01*
X171785750Y-106865000D01*
X171627000Y-107023750D01*
X171627000Y-108123000D01*
X173340000Y-108123000D01*
X173340000Y-108377000D01*
X171627000Y-108377000D01*
X171627000Y-109476250D01*
X171785750Y-109635000D01*
X173340000Y-109637118D01*
X173340001Y-115362882D01*
X171785750Y-115365000D01*
X171627000Y-115523750D01*
X171627000Y-116623000D01*
X173340001Y-116623000D01*
X173340001Y-116877000D01*
X171627000Y-116877000D01*
X171627000Y-117976250D01*
X171785750Y-118135000D01*
X173340001Y-118137118D01*
X173340001Y-123967712D01*
X173320898Y-124162540D01*
X173273692Y-124318895D01*
X173197018Y-124463096D01*
X173093792Y-124589664D01*
X172967951Y-124693768D01*
X172824289Y-124771447D01*
X172668271Y-124819742D01*
X172475527Y-124840000D01*
X166467581Y-124840000D01*
X166438972Y-124842818D01*
X166429712Y-124842753D01*
X166420541Y-124843652D01*
X166129395Y-124874252D01*
X166070753Y-124886290D01*
X166012037Y-124897490D01*
X166003216Y-124900153D01*
X165723560Y-124986721D01*
X165668422Y-125009899D01*
X165612950Y-125032311D01*
X165604819Y-125036635D01*
X165604815Y-125036637D01*
X165604814Y-125036638D01*
X165347298Y-125175877D01*
X165297749Y-125209299D01*
X165247653Y-125242080D01*
X165240512Y-125247905D01*
X165014945Y-125434510D01*
X164972804Y-125476946D01*
X164930055Y-125518809D01*
X164924181Y-125525909D01*
X164739155Y-125752773D01*
X164706055Y-125802592D01*
X164672256Y-125851955D01*
X164667873Y-125860061D01*
X164530436Y-126118542D01*
X164507645Y-126173836D01*
X164484075Y-126228829D01*
X164481350Y-126237632D01*
X164396736Y-126517886D01*
X164385116Y-126576571D01*
X164372680Y-126635079D01*
X164371717Y-126644244D01*
X164343150Y-126935596D01*
X164343150Y-126935608D01*
X164340001Y-126967581D01*
X164340000Y-128967722D01*
X164320898Y-129162540D01*
X164273692Y-129318895D01*
X164197018Y-129463096D01*
X164093792Y-129589664D01*
X163967951Y-129693768D01*
X163824289Y-129771447D01*
X163668271Y-129819742D01*
X163475527Y-129840000D01*
X126532277Y-129840000D01*
X126337460Y-129820898D01*
X126181105Y-129773692D01*
X126036904Y-129697018D01*
X125910336Y-129593792D01*
X125806232Y-129467951D01*
X125728553Y-129324289D01*
X125680258Y-129168271D01*
X125660000Y-128975527D01*
X125660000Y-126967581D01*
X125657182Y-126938972D01*
X125657247Y-126929712D01*
X125656348Y-126920541D01*
X125625748Y-126629395D01*
X125613710Y-126570753D01*
X125602510Y-126512037D01*
X125599847Y-126503216D01*
X125513279Y-126223560D01*
X125490101Y-126168422D01*
X125467689Y-126112950D01*
X125463362Y-126104814D01*
X125324123Y-125847298D01*
X125290701Y-125797749D01*
X125257920Y-125747653D01*
X125252095Y-125740512D01*
X125065490Y-125514945D01*
X125023054Y-125472804D01*
X124981191Y-125430055D01*
X124974091Y-125424181D01*
X124747227Y-125239155D01*
X124697408Y-125206055D01*
X124648045Y-125172256D01*
X124639939Y-125167873D01*
X124381458Y-125030436D01*
X124326164Y-125007645D01*
X124271171Y-124984075D01*
X124262368Y-124981350D01*
X123982114Y-124896736D01*
X123923429Y-124885116D01*
X123864921Y-124872680D01*
X123855758Y-124871717D01*
X123855756Y-124871717D01*
X123564404Y-124843150D01*
X123564402Y-124843150D01*
X123532419Y-124840000D01*
X117532277Y-124840000D01*
X117337460Y-124820898D01*
X117181105Y-124773692D01*
X117036904Y-124697018D01*
X116910336Y-124593792D01*
X116806232Y-124467951D01*
X116728553Y-124324289D01*
X116680258Y-124168271D01*
X116660000Y-123975527D01*
X116660000Y-118137118D01*
X118214250Y-118135000D01*
X118373000Y-117976250D01*
X118373000Y-116877000D01*
X118627000Y-116877000D01*
X118627000Y-117976250D01*
X118785750Y-118135000D01*
X121040000Y-118138072D01*
X121164482Y-118125812D01*
X121284180Y-118089502D01*
X121394494Y-118030537D01*
X121491185Y-117951185D01*
X121570537Y-117854494D01*
X121629502Y-117744180D01*
X121665812Y-117624482D01*
X121678072Y-117500000D01*
X168321928Y-117500000D01*
X168334188Y-117624482D01*
X168370498Y-117744180D01*
X168429463Y-117854494D01*
X168508815Y-117951185D01*
X168605506Y-118030537D01*
X168715820Y-118089502D01*
X168835518Y-118125812D01*
X168960000Y-118138072D01*
X171214250Y-118135000D01*
X171373000Y-117976250D01*
X171373000Y-116877000D01*
X168483750Y-116877000D01*
X168325000Y-117035750D01*
X168321928Y-117500000D01*
X121678072Y-117500000D01*
X121675000Y-117035750D01*
X121516250Y-116877000D01*
X118627000Y-116877000D01*
X118373000Y-116877000D01*
X116660000Y-116877000D01*
X116660000Y-116623000D01*
X118373000Y-116623000D01*
X118373000Y-115523750D01*
X118627000Y-115523750D01*
X118627000Y-116623000D01*
X121516250Y-116623000D01*
X121675000Y-116464250D01*
X121678072Y-116000000D01*
X168321928Y-116000000D01*
X168325000Y-116464250D01*
X168483750Y-116623000D01*
X171373000Y-116623000D01*
X171373000Y-115523750D01*
X171214250Y-115365000D01*
X168960000Y-115361928D01*
X168835518Y-115374188D01*
X168715820Y-115410498D01*
X168605506Y-115469463D01*
X168508815Y-115548815D01*
X168429463Y-115645506D01*
X168370498Y-115755820D01*
X168334188Y-115875518D01*
X168321928Y-116000000D01*
X121678072Y-116000000D01*
X121665812Y-115875518D01*
X121629502Y-115755820D01*
X121570537Y-115645506D01*
X121491185Y-115548815D01*
X121394494Y-115469463D01*
X121284180Y-115410498D01*
X121164482Y-115374188D01*
X121040000Y-115361928D01*
X118785750Y-115365000D01*
X118627000Y-115523750D01*
X118373000Y-115523750D01*
X118214250Y-115365000D01*
X116660000Y-115362882D01*
X116660000Y-109637118D01*
X118214250Y-109635000D01*
X118373000Y-109476250D01*
X118373000Y-108377000D01*
X118627000Y-108377000D01*
X118627000Y-109476250D01*
X118785750Y-109635000D01*
X121040000Y-109638072D01*
X121164482Y-109625812D01*
X121284180Y-109589502D01*
X121394494Y-109530537D01*
X121491185Y-109451185D01*
X121570537Y-109354494D01*
X121629502Y-109244180D01*
X121665812Y-109124482D01*
X121678072Y-109000000D01*
X168321928Y-109000000D01*
X168334188Y-109124482D01*
X168370498Y-109244180D01*
X168429463Y-109354494D01*
X168508815Y-109451185D01*
X168605506Y-109530537D01*
X168715820Y-109589502D01*
X168835518Y-109625812D01*
X168960000Y-109638072D01*
X171214250Y-109635000D01*
X171373000Y-109476250D01*
X171373000Y-108377000D01*
X168483750Y-108377000D01*
X168325000Y-108535750D01*
X168321928Y-109000000D01*
X121678072Y-109000000D01*
X121675000Y-108535750D01*
X121516250Y-108377000D01*
X118627000Y-108377000D01*
X118373000Y-108377000D01*
X116660000Y-108377000D01*
X116660000Y-108123000D01*
X118373000Y-108123000D01*
X118373000Y-107023750D01*
X118627000Y-107023750D01*
X118627000Y-108123000D01*
X121516250Y-108123000D01*
X121675000Y-107964250D01*
X121678072Y-107500000D01*
X168321928Y-107500000D01*
X168325000Y-107964250D01*
X168483750Y-108123000D01*
X171373000Y-108123000D01*
X171373000Y-107023750D01*
X171214250Y-106865000D01*
X168960000Y-106861928D01*
X168835518Y-106874188D01*
X168715820Y-106910498D01*
X168605506Y-106969463D01*
X168508815Y-107048815D01*
X168429463Y-107145506D01*
X168370498Y-107255820D01*
X168334188Y-107375518D01*
X168321928Y-107500000D01*
X121678072Y-107500000D01*
X121665812Y-107375518D01*
X121629502Y-107255820D01*
X121570537Y-107145506D01*
X121491185Y-107048815D01*
X121394494Y-106969463D01*
X121284180Y-106910498D01*
X121164482Y-106874188D01*
X121040000Y-106861928D01*
X118785750Y-106865000D01*
X118627000Y-107023750D01*
X118373000Y-107023750D01*
X118214250Y-106865000D01*
X116660000Y-106862882D01*
X116660000Y-101532277D01*
X116679102Y-101337460D01*
X116726308Y-101181106D01*
X116802982Y-101036904D01*
X116906207Y-100910337D01*
X117032051Y-100806231D01*
X117175711Y-100728553D01*
X117331729Y-100680258D01*
X117524473Y-100660000D01*
X123532419Y-100660000D01*
X123561028Y-100657182D01*
X123570288Y-100657247D01*
X123579460Y-100656348D01*
X123870605Y-100625748D01*
X123929217Y-100613717D01*
X123987963Y-100602511D01*
X123996784Y-100599847D01*
X124276440Y-100513279D01*
X124331578Y-100490101D01*
X124387050Y-100467689D01*
X124395181Y-100463365D01*
X124395185Y-100463363D01*
X124395188Y-100463361D01*
X124652702Y-100324123D01*
X124702259Y-100290696D01*
X124752347Y-100257920D01*
X124759488Y-100252095D01*
X124985056Y-100065490D01*
X125027215Y-100023035D01*
X125069945Y-99981191D01*
X125075819Y-99974091D01*
X125260845Y-99747227D01*
X125293927Y-99697434D01*
X125327745Y-99648045D01*
X125332127Y-99639939D01*
X125469564Y-99381458D01*
X125492355Y-99326164D01*
X125515925Y-99271171D01*
X125518650Y-99262368D01*
X125603264Y-98982113D01*
X125614882Y-98923436D01*
X125627320Y-98864921D01*
X125628283Y-98855756D01*
X125656850Y-98564404D01*
X125656850Y-98564402D01*
X125660000Y-98532419D01*
X125660000Y-96532277D01*
X125679102Y-96337460D01*
X125726308Y-96181106D01*
X125802982Y-96036904D01*
X125906207Y-95910337D01*
X126032051Y-95806231D01*
X126175711Y-95728553D01*
X126331729Y-95680258D01*
X126524473Y-95660000D01*
X163467723Y-95660000D01*
X163662540Y-95679102D01*
M02*
