M48
; DRILL file {KiCad (5.1.0)-1} date 10-05-2019 18:54:01
; FORMAT={-:-/ absolute / metric / decimal}
; #@! TF.CreationDate,2019-05-10T18:54:01+02:00
; #@! TF.GenerationSoftware,Kicad,Pcbnew,(5.1.0)-1
FMAT,2
METRIC
T1C0.400
%
G90
G05
T1
X117.0Y-102.0
X117.0Y-106.0
X117.0Y-110.0
X117.0Y-115.0
X117.0Y-119.0
X117.0Y-123.0
X120.0Y-101.0
X120.0Y-106.0
X120.0Y-110.0
X120.0Y-115.0
X120.0Y-119.0
X120.0Y-124.0
X123.0Y-108.0
X123.0Y-111.0
X123.0Y-114.0
X123.0Y-117.0
X124.0Y-101.0
X124.0Y-124.0
X126.0Y-99.0
X126.0Y-111.0
X126.0Y-114.0
X126.0Y-126.0
X127.0Y-96.0
X127.0Y-129.0
X131.0Y-96.0
X131.0Y-129.0
X135.0Y-96.0
X135.0Y-129.0
X138.0Y-111.0
X139.0Y-96.0
X139.0Y-129.0
X143.0Y-96.0
X143.0Y-129.0
X145.0Y-115.5
X147.0Y-96.0
X147.0Y-129.0
X151.0Y-96.0
X151.0Y-111.0
X151.0Y-129.0
X155.0Y-96.0
X155.0Y-129.0
X159.0Y-96.0
X159.0Y-129.0
X162.0Y-97.0
X163.0Y-125.0
X163.0Y-129.0
X164.0Y-101.0
X164.0Y-111.0
X164.0Y-114.0
X166.0Y-123.0
X167.0Y-108.0
X167.0Y-111.0
X167.0Y-114.0
X167.0Y-117.0
X168.0Y-102.0
X169.0Y-106.0
X169.0Y-119.0
X170.0Y-110.0
X170.0Y-115.0
X172.0Y-102.0
X172.0Y-106.0
X172.0Y-119.0
X172.0Y-123.0
X173.0Y-110.0
X173.0Y-115.0
T0
M30
