M48
;DRILL file {KiCad (5.0.0)} date 01/26/19 18:48:26
;FORMAT={-:-/ absolute / metric / decimal}
FMAT,2
METRIC,TZ
T1C0.200
T2C0.250
T3C0.300
T4C0.600
T5C0.850
T6C1.000
T7C1.200
T8C2.700
%
G90
G05
M71
T1
X68.Y-66.
X68.Y-69.
X68.Y-72.
X68.Y-75.
X68.Y-78.
X68.Y-81.
X68.Y-84.
X68.Y-87.
X68.Y-90.
X68.Y-93.
X68.Y-96.
X68.Y-99.
X68.Y-102.
X68.Y-105.
X68.Y-108.
X68.Y-111.
X69.Y-64.
X70.Y-84.
X70.Y-106.
X70.Y-112.
X70.2Y-86.3
X70.85Y-80.
X70.886Y-78.8
X71.Y-71.
X71.Y-77.
X71.Y-92.
X71.Y-98.
X71.Y-101.
X71.Y-104.
X71.1Y-83.5
X72.Y-90.
X72.1Y-85.7
X72.35Y-75.6
X72.35Y-78.5
X72.35Y-84.4
X72.365Y-82.95
X73.Y-64.
X73.Y-73.
X73.Y-87.
X73.Y-99.
X73.Y-102.
X73.Y-106.
X73.Y-112.
X73.335Y-84.4
X73.35Y-80.05
X73.35Y-81.5
X74.Y-69.
X74.Y-91.
X74.Y-93.
X74.Y-96.
X74.Y-104.
X74.Y-107.
X74.Y-111.
X74.321Y-78.779
X75.Y-66.
X75.Y-88.
X75.Y-109.
X75.5Y-73.
X75.5Y-76.
X76.Y-64.
X76.Y-71.
X76.Y-77.
X76.Y-89.
X76.Y-97.
X76.Y-98.
X76.Y-104.
X76.Y-110.
X76.Y-112.
X76.85Y-96.95
X77.Y-79.
X77.Y-101.
X77.Y-109.
X77.4Y-99.3
X78.Y-75.
X78.Y-83.
X78.Y-86.
X78.Y-101.
X78.Y-103.
X78.Y-104.
X78.Y-105.
X78.6Y-77.
X78.6Y-89.75
X79.Y-64.
X79.Y-80.
X79.Y-96.
X79.Y-98.
X79.Y-99.
X79.Y-100.
X79.Y-101.
X79.Y-112.
X79.1Y-103.25
X79.1Y-104.8
X79.6Y-85.5
X80.Y-81.
X80.Y-94.25
X80.Y-104.
X80.Y-109.
X80.085Y-103.25
X80.35Y-88.5
X80.6Y-85.5
X80.85Y-90.75
X80.887Y-88.232
X81.Y-74.
X81.Y-96.
X81.Y-108.
X81.55Y-94.25
X81.6Y-85.25
X82.Y-64.
X82.Y-71.
X82.Y-77.
X82.Y-98.
X82.Y-100.
X82.Y-102.
X82.Y-104.
X82.Y-106.
X82.Y-112.
X82.409Y-85.352
X82.5Y-69.5
X83.Y-109.
X83.009Y-85.354
X83.1Y-98.
X83.6Y-85.25
X84.Y-72.
X84.Y-97.
X84.Y-108.
X84.1Y-83.75
X84.1Y-84.75
X84.1Y-91.
X84.305Y-83.
X84.35Y-92.25
X84.8Y-95.75
X85.Y-64.
X85.Y-70.
X85.Y-77.
X85.Y-109.
X85.Y-112.
X85.4Y-95.75
X85.75Y-74.2
X86.Y-95.75
X86.Y-65.
X86.Y-67.
X86.Y-79.
X86.Y-107.
X86.6Y-95.75
X86.7Y-71.7
X86.85Y-82.025
X87.Y-69.
X87.25Y-95.75
X87.85Y-81.
X87.85Y-95.75
X88.Y-76.
X88.Y-80.
X88.Y-109.
X88.Y-112.
X88.6Y-95.75
X89.Y-78.
X89.6Y-81.75
X89.6Y-94.25
X89.7Y-68.8
X90.1Y-93.75
X91.Y-72.
X91.Y-74.
X91.Y-81.
X91.Y-91.
X91.Y-100.
X91.Y-102.
X91.Y-104.
X91.Y-107.
X91.Y-112.
X91.585Y-83.
X91.9Y-94.4
X92.Y-79.
X92.Y-93.
X92.313Y-99.768
X92.6Y-103.25
X92.85Y-82.5
X92.85Y-94.25
X92.85Y-99.5
X93.Y-69.
X93.Y-101.
X93.Y-105.
X93.089Y-98.761
X93.8Y-94.4
X94.Y-75.
X94.Y-77.
X94.Y-79.
X94.Y-81.
X94.Y-91.
X94.Y-93.
X94.Y-103.
X94.Y-107.
X94.Y-112.
X94.313Y-101.018
X94.85Y-100.75
X95.Y-66.
X95.Y-68.
X95.Y-74.
X95.115Y-85.5
X95.85Y-96.015
X95.85Y-97.
X96.Y-64.
X96.Y-79.
X96.Y-80.
X96.Y-92.
X96.Y-95.
X96.Y-102.
X96.Y-105.
X96.085Y-85.5
X96.85Y-92.
X97.Y-70.
X97.Y-72.
X97.Y-75.
X97.Y-77.
X97.Y-91.
X97.Y-107.
X97.Y-112.
X97.1Y-97.
X98.Y-69.
X98.Y-78.
X98.Y-93.
X98.Y-95.
X98.Y-98.
X98.35Y-97.
X99.Y-70.
X99.Y-73.
X99.Y-91.
X99.Y-94.
X99.Y-102.
X99.Y-105.
X99.6Y-97.
X100.Y-67.
X100.Y-75.
X100.Y-98.
X100.Y-107.
X100.Y-112.
X100.066Y-72.466
X100.415Y-80.945
X100.85Y-97.
X101.Y-64.
X101.Y-76.
X101.Y-92.
X101.4Y-69.
X101.6Y-91.25
X101.8Y-76.765
X101.85Y-78.75
X102.Y-66.
X102.Y-98.
X102.Y-102.
X102.Y-105.
X102.1Y-96.
X102.6Y-70.4
X102.85Y-91.
X103.Y-107.
X103.Y-112.
X103.1Y-83.75
X103.1Y-85.
X103.1Y-86.5
X103.2Y-68.7
X103.35Y-76.75
X103.35Y-77.735
X103.6Y-79.25
X103.85Y-91.
X103.85Y-95.
X103.85Y-96.
X104.6Y-83.75
X104.6Y-85.
X104.6Y-86.5
X104.6Y-93.5
X104.6Y-95.5
X104.85Y-91.
X105.Y-64.
X105.Y-66.
X105.Y-102.
X105.Y-105.
X105.1Y-70.515
X105.1Y-73.25
X105.1Y-95.
X105.1Y-96.
X105.4Y-75.65
X105.6Y-76.75
X105.6Y-77.75
X106.Y-107.
X106.Y-112.
X106.1Y-83.75
X106.1Y-85.
X106.1Y-86.5
X106.6Y-97.25
X106.6Y-98.25
X106.85Y-76.75
X106.85Y-91.
X107.Y-67.
X107.Y-92.
X107.1Y-93.25
X107.35Y-79.
X107.35Y-97.75
X108.Y-91.
X108.Y-102.
X108.Y-105.
X108.1Y-79.75
X108.1Y-97.25
X108.1Y-98.25
X108.6Y-88.9
X109.Y-92.
X109.Y-107.
X109.Y-112.
X109.6Y-97.
X110.Y-64.
X110.Y-67.
X110.Y-69.
X110.Y-72.
X110.Y-80.
X110.15Y-76.75
X110.2Y-90.6
X110.221Y-87.129
X110.269Y-85.976
X110.571Y-93.279
X111.Y-82.
X111.Y-102.
X111.Y-105.
X111.Y-109.
X111.002Y-83.37
X111.6Y-93.25
X111.8Y-84.9
X112.Y-89.
X112.Y-92.
X112.Y-107.
X112.Y-112.
X113.Y-64.
X113.Y-67.
X113.Y-80.
X113.Y-86.1
X113.004Y-90.996
X113.6Y-107.
X114.Y-82.
X114.Y-102.
X114.Y-104.
X114.Y-106.
X114.615Y-79.9
X115.Y-108.
X115.Y-112.
X115.57Y-95.6
X115.6Y-78.45
X115.6Y-79.9
X115.6Y-81.35
X115.6Y-82.8
X115.6Y-88.25
X115.6Y-89.7
X115.6Y-91.15
X115.6Y-92.6
X115.6Y-94.1
X115.887Y-84.5
X115.9Y-86.5
X116.Y-64.
X116.Y-67.
X116.Y-103.
X116.Y-106.
X117.Y-79.
X117.Y-82.
X117.Y-88.
X117.Y-109.
X117.2Y-85.3
X117.585Y-102.25
X117.6Y-89.25
X117.6Y-101.
X118.Y-91.
X118.Y-104.
X118.Y-107.
X118.Y-110.
X118.Y-112.
X118.2Y-77.2
X118.2Y-79.4
X118.585Y-89.25
X118.8Y-77.9
X118.8Y-79.7
X119.Y-64.
X119.Y-67.
X119.85Y-93.5
X119.85Y-94.45
X119.9Y-69.
X119.95Y-92.55
X120.Y-81.
X120.Y-84.
X120.Y-86.
X120.335Y-101.
X120.35Y-102.25
X120.6Y-88.25
X121.Y-91.
X121.Y-94.
X121.1Y-85.5
X122.Y-64.
X122.Y-83.
X122.Y-101.
X122.Y-112.
X122.95Y-87.3
X123.Y-67.
X123.Y-81.
X123.Y-85.
X123.Y-103.
X123.Y-106.
X123.Y-109.
X124.Y-64.
X124.Y-71.
X124.Y-73.
X124.Y-75.
X124.Y-88.
X124.Y-91.
X124.Y-94.
X124.Y-112.
X125.Y-86.
X125.Y-89.
X125.Y-101.
X125.55Y-80.2
X125.715Y-102.7
X126.Y-75.
X126.Y-84.
X126.Y-91.
X126.Y-94.
X126.Y-109.
X126.Y-112.
X126.65Y-93.9
X126.7Y-105.7
X127.Y-64.
X127.Y-69.
X127.Y-73.
X127.Y-77.
X127.Y-82.
X127.Y-88.
X127.Y-107.
X128.Y-67.
X128.Y-80.
X128.Y-102.
X129.Y-71.
X129.Y-73.
X129.Y-75.
X129.Y-77.
X129.Y-79.
X129.Y-87.
X129.Y-90.
X129.Y-106.
X130.Y-85.
X130.Y-92.
X130.Y-104.
X131.Y-75.
X131.Y-76.295
X131.Y-102.
X131.Y-108.
X132.Y-64.
X132.Y-67.
X132.Y-88.
X132.Y-93.
X132.1Y-71.
X133.Y-70.
X133.Y-73.
X133.Y-86.
X133.Y-95.
X133.Y-101.
X133.Y-105.
X133.Y-112.
X133.83Y-102.75
X134.Y-64.
X134.Y-108.
X134.55Y-91.25
X134.55Y-95.06
X134.8Y-105.75
X135.Y-64.
X135.Y-65.
X135.Y-66.
X135.Y-67.
X135.Y-68.
X135.Y-96.
X135.024Y-86.
X135.5Y-85.576
X135.8Y-72.85
X136.Y-97.25
X136.Y-105.
X136.Y-107.
X136.088Y-74.6
X136.2Y-93.3
X136.75Y-87.44
X136.75Y-92.
X137.Y-64.
X137.Y-101.
X137.Y-103.
X137.75Y-89.5
X137.75Y-97.
X138.Y-90.5
X138.Y-92.25
X138.Y-95.
X138.Y-108.
X138.4Y-86.1
X139.Y-81.55
X139.Y-83.
X139.Y-84.5
X139.Y-103.
X139.Y-106.
X139.3Y-85.9
X140.905Y-97.
X141.Y-69.
X141.Y-72.
X141.Y-75.
X141.Y-78.
X141.Y-105.
X141.Y-108.
X141.Y-112.
X141.25Y-86.45
X141.25Y-98.75
X141.25Y-100.2
X141.3Y-92.75
X141.5Y-87.15
X142.Y-64.
X142.13Y-103.7
X143.Y-69.
X143.Y-72.
X143.Y-77.
X143.Y-79.
X143.Y-89.
X143.Y-108.
X143.1Y-92.7
X143.1Y-106.6
X143.5Y-83.5
X144.Y-64.
X144.Y-65.
X144.Y-66.
X144.Y-67.
X144.Y-68.
X144.9Y-92.4
X145.Y-89.
X145.Y-91.
X145.Y-104.
X145.Y-107.
X145.55Y-98.625
X146.Y-64.
X146.Y-67.
X146.Y-69.
X146.Y-72.
X146.Y-75.
X146.Y-77.
X146.Y-79.
X146.25Y-81.
X147.Y-88.
X147.Y-91.
X147.Y-94.
X148.Y-67.
X148.Y-69.
X148.Y-102.
X148.Y-104.
X148.Y-112.
X149.Y-64.
X149.Y-77.
X149.Y-95.
X149.Y-106.
X149.7Y-93.3
X149.8Y-91.2
X150.Y-66.
X150.Y-68.
X150.Y-71.
X150.Y-109.
X150.5Y-78.35
X150.5Y-81.25
X150.5Y-82.8
X150.5Y-85.5
X151.Y-69.
X151.Y-101.
X151.Y-107.
X151.Y-111.
X151.25Y-80.
X151.45Y-94.725
X151.5Y-99.25
X152.Y-64.
X152.Y-70.
X152.Y-77.
X152.Y-78.35
X152.Y-81.25
X152.Y-82.8
X152.Y-88.
X152.Y-92.
X152.Y-103.
X152.Y-106.
X152.Y-112.
X152.75Y-85.5
X152.75Y-94.75
X153.Y-94.
X154.Y-71.
X154.Y-74.
X154.Y-77.
X154.Y-80.
X154.Y-83.
X154.Y-86.
X154.Y-90.
X154.Y-101.
X154.Y-105.
X155.Y-64.
X155.Y-88.
X156.Y-70.
X156.Y-106.
X156.Y-112.
X156.485Y-91.8
X156.485Y-102.2
X156.5Y-93.3
X156.5Y-94.8
X156.5Y-96.25
X156.5Y-97.75
X156.5Y-99.2
X156.5Y-100.7
X157.Y-65.
X157.Y-69.
X157.Y-72.
X157.Y-75.
X157.Y-78.
X157.Y-81.
X157.Y-84.
X157.Y-87.
X157.Y-90.
X157.Y-103.
X157.Y-106.
X157.Y-109.
T2
X102.1Y-72.35
X102.1Y-73.35
T3
X70.386Y-85.2
X70.6Y-81.153
X92.85Y-86.25
X92.906Y-83.425
X95.5Y-76.5
X97.1Y-88.8
X97.35Y-81.395
X143.75Y-74.
X147.Y-96.75
X147.75Y-97.5
X148.75Y-95.75
X149.793Y-96.7
T5
X88.2Y-67.15
X93.2Y-67.15
T6
X120.6Y-105.75
X120.6Y-108.29
X120.6Y-110.83
X143.16Y-110.7
X145.7Y-110.7
X98.2Y-65.25
X135.51Y-110.7
X138.05Y-110.7
X107.95Y-65.25
X127.86Y-110.7
X130.4Y-110.7
X70.Y-89.
X70.Y-94.5
X77.85Y-110.75
X80.39Y-110.75
X82.93Y-110.75
X85.47Y-110.75
X88.01Y-110.75
X90.55Y-110.75
X93.09Y-110.75
X95.63Y-110.75
X98.17Y-110.75
X100.71Y-110.75
X103.25Y-110.75
X105.79Y-110.75
X108.33Y-110.75
X110.87Y-110.75
X113.41Y-110.75
X115.95Y-110.75
T7
X120.4Y-64.
X120.4Y-66.5
X125.4Y-71.5
X130.4Y-64.
X130.4Y-66.5
T8
X71.25Y-109.
X153.75Y-109.
X71.25Y-67.
X154.Y-67.
T1
X120.4Y-71.1G85X120.4Y-71.9
G05
X122.9Y-71.1G85X122.9Y-71.9
G05
X125.8Y-66.5G85X125.Y-66.5
G05
X127.9Y-71.1G85X127.9Y-71.9
G05
X130.4Y-71.1G85X130.4Y-71.9
G05
T4
X87.2Y-64.8G85X87.2Y-64.1
G05
X94.2Y-64.1G85X94.2Y-64.8
G05
T0
M30
