G04 #@! TF.GenerationSoftware,KiCad,Pcbnew,(5.0.0)*
G04 #@! TF.CreationDate,2019-01-26T18:48:23+01:00*
G04 #@! TF.ProjectId,rf-receiver,72662D72656365697665722E6B696361,rev?*
G04 #@! TF.SameCoordinates,Original*
G04 #@! TF.FileFunction,Legend,Top*
G04 #@! TF.FilePolarity,Positive*
%FSLAX46Y46*%
G04 Gerber Fmt 4.6, Leading zero omitted, Abs format (unit mm)*
G04 Created by KiCad (PCBNEW (5.0.0)) date 01/26/19 18:48:23*
%MOMM*%
%LPD*%
G01*
G04 APERTURE LIST*
%ADD10C,0.250000*%
%ADD11C,0.120000*%
%ADD12C,0.150000*%
%ADD13C,0.100000*%
%ADD14C,0.125000*%
G04 APERTURE END LIST*
D10*
X98857142Y-104377380D02*
X98523809Y-103901190D01*
X98285714Y-104377380D02*
X98285714Y-103377380D01*
X98666666Y-103377380D01*
X98761904Y-103425000D01*
X98809523Y-103472619D01*
X98857142Y-103567857D01*
X98857142Y-103710714D01*
X98809523Y-103805952D01*
X98761904Y-103853571D01*
X98666666Y-103901190D01*
X98285714Y-103901190D01*
X99619047Y-103853571D02*
X99285714Y-103853571D01*
X99285714Y-104377380D02*
X99285714Y-103377380D01*
X99761904Y-103377380D01*
X101476190Y-104377380D02*
X101142857Y-103901190D01*
X100904761Y-104377380D02*
X100904761Y-103377380D01*
X101285714Y-103377380D01*
X101380952Y-103425000D01*
X101428571Y-103472619D01*
X101476190Y-103567857D01*
X101476190Y-103710714D01*
X101428571Y-103805952D01*
X101380952Y-103853571D01*
X101285714Y-103901190D01*
X100904761Y-103901190D01*
X102285714Y-104329761D02*
X102190476Y-104377380D01*
X102000000Y-104377380D01*
X101904761Y-104329761D01*
X101857142Y-104234523D01*
X101857142Y-103853571D01*
X101904761Y-103758333D01*
X102000000Y-103710714D01*
X102190476Y-103710714D01*
X102285714Y-103758333D01*
X102333333Y-103853571D01*
X102333333Y-103948809D01*
X101857142Y-104044047D01*
X103190476Y-104329761D02*
X103095238Y-104377380D01*
X102904761Y-104377380D01*
X102809523Y-104329761D01*
X102761904Y-104282142D01*
X102714285Y-104186904D01*
X102714285Y-103901190D01*
X102761904Y-103805952D01*
X102809523Y-103758333D01*
X102904761Y-103710714D01*
X103095238Y-103710714D01*
X103190476Y-103758333D01*
X104000000Y-104329761D02*
X103904761Y-104377380D01*
X103714285Y-104377380D01*
X103619047Y-104329761D01*
X103571428Y-104234523D01*
X103571428Y-103853571D01*
X103619047Y-103758333D01*
X103714285Y-103710714D01*
X103904761Y-103710714D01*
X104000000Y-103758333D01*
X104047619Y-103853571D01*
X104047619Y-103948809D01*
X103571428Y-104044047D01*
X104476190Y-104377380D02*
X104476190Y-103710714D01*
X104476190Y-103377380D02*
X104428571Y-103425000D01*
X104476190Y-103472619D01*
X104523809Y-103425000D01*
X104476190Y-103377380D01*
X104476190Y-103472619D01*
X104857142Y-103710714D02*
X105095238Y-104377380D01*
X105333333Y-103710714D01*
X106095238Y-104329761D02*
X106000000Y-104377380D01*
X105809523Y-104377380D01*
X105714285Y-104329761D01*
X105666666Y-104234523D01*
X105666666Y-103853571D01*
X105714285Y-103758333D01*
X105809523Y-103710714D01*
X106000000Y-103710714D01*
X106095238Y-103758333D01*
X106142857Y-103853571D01*
X106142857Y-103948809D01*
X105666666Y-104044047D01*
X106571428Y-104377380D02*
X106571428Y-103710714D01*
X106571428Y-103901190D02*
X106619047Y-103805952D01*
X106666666Y-103758333D01*
X106761904Y-103710714D01*
X106857142Y-103710714D01*
X99166666Y-106127380D02*
X98595238Y-106127380D01*
X98880952Y-106127380D02*
X98880952Y-105127380D01*
X98785714Y-105270238D01*
X98690476Y-105365476D01*
X98595238Y-105413095D01*
X99642857Y-106127380D02*
X99833333Y-106127380D01*
X99928571Y-106079761D01*
X99976190Y-106032142D01*
X100071428Y-105889285D01*
X100119047Y-105698809D01*
X100119047Y-105317857D01*
X100071428Y-105222619D01*
X100023809Y-105175000D01*
X99928571Y-105127380D01*
X99738095Y-105127380D01*
X99642857Y-105175000D01*
X99595238Y-105222619D01*
X99547619Y-105317857D01*
X99547619Y-105555952D01*
X99595238Y-105651190D01*
X99642857Y-105698809D01*
X99738095Y-105746428D01*
X99928571Y-105746428D01*
X100023809Y-105698809D01*
X100071428Y-105651190D01*
X100119047Y-105555952D01*
X100738095Y-105127380D02*
X100833333Y-105127380D01*
X100928571Y-105175000D01*
X100976190Y-105222619D01*
X101023809Y-105317857D01*
X101071428Y-105508333D01*
X101071428Y-105746428D01*
X101023809Y-105936904D01*
X100976190Y-106032142D01*
X100928571Y-106079761D01*
X100833333Y-106127380D01*
X100738095Y-106127380D01*
X100642857Y-106079761D01*
X100595238Y-106032142D01*
X100547619Y-105936904D01*
X100500000Y-105746428D01*
X100500000Y-105508333D01*
X100547619Y-105317857D01*
X100595238Y-105222619D01*
X100642857Y-105175000D01*
X100738095Y-105127380D01*
X101928571Y-105460714D02*
X101928571Y-106127380D01*
X101690476Y-105079761D02*
X101452380Y-105794047D01*
X102071428Y-105794047D01*
X103214285Y-105746428D02*
X103976190Y-105746428D01*
X105166666Y-105841666D02*
X105642857Y-105841666D01*
X105071428Y-106127380D02*
X105404761Y-105127380D01*
X105738095Y-106127380D01*
X105928571Y-105127380D02*
X106500000Y-105127380D01*
X106214285Y-106127380D02*
X106214285Y-105127380D01*
D11*
G04 #@! TO.C,C64*
X135462779Y-74090000D02*
X135137221Y-74090000D01*
X135462779Y-75110000D02*
X135137221Y-75110000D01*
D12*
G04 #@! TO.C,U9*
X150700000Y-94275000D02*
X146300000Y-94275000D01*
X152275000Y-99800000D02*
X146300000Y-99800000D01*
D11*
G04 #@! TO.C,R17*
X110010000Y-74237221D02*
X110010000Y-74562779D01*
X108990000Y-74237221D02*
X108990000Y-74562779D01*
G04 #@! TO.C,R14*
X114937221Y-87010000D02*
X115262779Y-87010000D01*
X114937221Y-85990000D02*
X115262779Y-85990000D01*
G04 #@! TO.C,R25*
X144412779Y-86910000D02*
X144087221Y-86910000D01*
X144412779Y-85890000D02*
X144087221Y-85890000D01*
G04 #@! TO.C,R21*
X139337221Y-80310000D02*
X139662779Y-80310000D01*
X139337221Y-79290000D02*
X139662779Y-79290000D01*
G04 #@! TO.C,R15*
X114937221Y-83990000D02*
X115262779Y-83990000D01*
X114937221Y-85010000D02*
X115262779Y-85010000D01*
G04 #@! TO.C,C1*
X75397936Y-100210000D02*
X76602064Y-100210000D01*
X75397936Y-98390000D02*
X76602064Y-98390000D01*
G04 #@! TO.C,C78*
X104162779Y-69260000D02*
X103837221Y-69260000D01*
X104162779Y-68240000D02*
X103837221Y-68240000D01*
G04 #@! TO.C,C52*
X143090000Y-70590000D02*
X143090000Y-72940000D01*
X143090000Y-77410000D02*
X143090000Y-75060000D01*
X148845563Y-77410000D02*
X143090000Y-77410000D01*
X148845563Y-70590000D02*
X143090000Y-70590000D01*
X149910000Y-71654437D02*
X149910000Y-72940000D01*
X149910000Y-76345563D02*
X149910000Y-75060000D01*
X149910000Y-76345563D02*
X148845563Y-77410000D01*
X149910000Y-71654437D02*
X148845563Y-70590000D01*
X150937500Y-75847500D02*
X150150000Y-75847500D01*
X150543750Y-76241250D02*
X150543750Y-75453750D01*
G04 #@! TO.C,C76*
X92090000Y-77160000D02*
X94440000Y-77160000D01*
X98910000Y-77160000D02*
X96560000Y-77160000D01*
X98910000Y-71404437D02*
X98910000Y-77160000D01*
X92090000Y-71404437D02*
X92090000Y-77160000D01*
X93154437Y-70340000D02*
X94440000Y-70340000D01*
X97845563Y-70340000D02*
X96560000Y-70340000D01*
X97845563Y-70340000D02*
X98910000Y-71404437D01*
X93154437Y-70340000D02*
X92090000Y-71404437D01*
X97347500Y-69312500D02*
X97347500Y-70100000D01*
X97741250Y-69706250D02*
X96953750Y-69706250D01*
G04 #@! TO.C,J3*
X94600000Y-67450000D02*
X94150000Y-67450000D01*
X94600000Y-65600000D02*
X94600000Y-67450000D01*
X86800000Y-63050000D02*
X86800000Y-63300000D01*
X94600000Y-63050000D02*
X94600000Y-63300000D01*
X86800000Y-65600000D02*
X86800000Y-67450000D01*
X86800000Y-67450000D02*
X87250000Y-67450000D01*
X92400000Y-68000000D02*
X91950000Y-68000000D01*
X92400000Y-68000000D02*
X92400000Y-67550000D01*
G04 #@! TO.C,J2*
X139750000Y-69260000D02*
X139500000Y-68760000D01*
X139250000Y-69260000D02*
X139750000Y-69260000D01*
X139500000Y-68760000D02*
X139250000Y-69260000D01*
D13*
G04 #@! TO.C,L8*
X109350000Y-71900000D02*
X106350000Y-71900000D01*
X106350000Y-71900000D02*
X106350000Y-68900000D01*
X106350000Y-68900000D02*
X109350000Y-68900000D01*
X109350000Y-68900000D02*
X109350000Y-71900000D01*
D11*
G04 #@! TO.C,TP5*
X143450000Y-96000000D02*
G75*
G03X143450000Y-96000000I-700000J0D01*
G01*
G04 #@! TO.C,TP8*
X145200000Y-101500000D02*
G75*
G03X145200000Y-101500000I-700000J0D01*
G01*
G04 #@! TO.C,TP6*
X153950000Y-91000000D02*
G75*
G03X153950000Y-91000000I-700000J0D01*
G01*
G04 #@! TO.C,TP3*
X153450000Y-85500000D02*
G75*
G03X153450000Y-85500000I-700000J0D01*
G01*
G04 #@! TO.C,TP7*
X143700000Y-90250000D02*
G75*
G03X143700000Y-90250000I-700000J0D01*
G01*
G04 #@! TO.C,TP4*
X147100000Y-84200000D02*
G75*
G03X147100000Y-84200000I-700000J0D01*
G01*
G04 #@! TO.C,U4*
X120950000Y-89860000D02*
X122750000Y-89860000D01*
X122750000Y-86640000D02*
X120300000Y-86640000D01*
G04 #@! TO.C,U11*
X119750000Y-91890000D02*
X117950000Y-91890000D01*
X117950000Y-95110000D02*
X120400000Y-95110000D01*
G04 #@! TO.C,U12*
X94460000Y-96400000D02*
X94460000Y-93950000D01*
X91240000Y-94600000D02*
X91240000Y-96400000D01*
D12*
G04 #@! TO.C,CON1*
X75936000Y-70701800D02*
X75504200Y-70701800D01*
X75504200Y-70701800D02*
X75504200Y-70270000D01*
X75682000Y-63500000D02*
X75500000Y-63500000D01*
X75504200Y-63513600D02*
X75504200Y-63666000D01*
X84064000Y-63500000D02*
X84500000Y-63500000D01*
X84500000Y-63500000D02*
X84500000Y-63920000D01*
X84064000Y-70701800D02*
X84500000Y-70701800D01*
X84500000Y-70701800D02*
X84500000Y-70270000D01*
D11*
G04 #@! TO.C,PSU-1*
X106750000Y-64050000D02*
X109150000Y-64050000D01*
X106750000Y-66450000D02*
X106750000Y-64050000D01*
X109150000Y-66450000D02*
X106750000Y-66450000D01*
X109150000Y-64050000D02*
X109150000Y-66450000D01*
G04 #@! TO.C,PSU+1*
X99400000Y-64050000D02*
X99400000Y-66450000D01*
X99400000Y-66450000D02*
X97000000Y-66450000D01*
X97000000Y-66450000D02*
X97000000Y-64050000D01*
X97000000Y-64050000D02*
X99400000Y-64050000D01*
D12*
G04 #@! TO.C,U3*
X88575000Y-97550000D02*
X84125000Y-97550000D01*
X90100000Y-104450000D02*
X84125000Y-104450000D01*
D11*
G04 #@! TO.C,U2*
X117280000Y-112080000D02*
X117280000Y-109420000D01*
X79120000Y-112080000D02*
X117280000Y-112080000D01*
X79120000Y-109420000D02*
X117280000Y-109420000D01*
X79120000Y-112080000D02*
X79120000Y-109420000D01*
X77850000Y-112080000D02*
X76520000Y-112080000D01*
X76520000Y-112080000D02*
X76520000Y-110750000D01*
D12*
G04 #@! TO.C,U8*
X126225000Y-75625000D02*
X126225000Y-75675000D01*
X130375000Y-75625000D02*
X130375000Y-75770000D01*
X130375000Y-80775000D02*
X130375000Y-80630000D01*
X126225000Y-80775000D02*
X126225000Y-80630000D01*
X126225000Y-75625000D02*
X130375000Y-75625000D01*
X126225000Y-80775000D02*
X130375000Y-80775000D01*
X126225000Y-75675000D02*
X124825000Y-75675000D01*
G04 #@! TO.C,U1*
X128675000Y-99875000D02*
X128675000Y-99750000D01*
X124025000Y-99875000D02*
X124025000Y-99650000D01*
X124025000Y-94625000D02*
X124025000Y-94850000D01*
X128675000Y-94625000D02*
X128675000Y-94850000D01*
X128675000Y-99875000D02*
X124025000Y-99875000D01*
X128675000Y-94625000D02*
X124025000Y-94625000D01*
X128675000Y-99750000D02*
X130025000Y-99750000D01*
D11*
G04 #@! TO.C,U5*
X145650000Y-79390000D02*
X143850000Y-79390000D01*
X143850000Y-82610000D02*
X146800000Y-82610000D01*
G04 #@! TO.C,L1*
X82840000Y-94412779D02*
X82840000Y-94087221D01*
X83860000Y-94412779D02*
X83860000Y-94087221D01*
G04 #@! TO.C,SW2*
X141830000Y-109370000D02*
X141830000Y-112030000D01*
X144430000Y-109370000D02*
X141830000Y-109370000D01*
X144430000Y-112030000D02*
X141830000Y-112030000D01*
X144430000Y-109370000D02*
X144430000Y-112030000D01*
X145700000Y-109370000D02*
X147030000Y-109370000D01*
X147030000Y-109370000D02*
X147030000Y-110700000D01*
G04 #@! TO.C,SW3*
X139380000Y-109370000D02*
X139380000Y-110700000D01*
X138050000Y-109370000D02*
X139380000Y-109370000D01*
X136780000Y-109370000D02*
X136780000Y-112030000D01*
X136780000Y-112030000D02*
X134180000Y-112030000D01*
X136780000Y-109370000D02*
X134180000Y-109370000D01*
X134180000Y-109370000D02*
X134180000Y-112030000D01*
G04 #@! TO.C,SW1*
X126530000Y-109370000D02*
X126530000Y-112030000D01*
X129130000Y-109370000D02*
X126530000Y-109370000D01*
X129130000Y-112030000D02*
X126530000Y-112030000D01*
X129130000Y-109370000D02*
X129130000Y-112030000D01*
X130400000Y-109370000D02*
X131730000Y-109370000D01*
X131730000Y-109370000D02*
X131730000Y-110700000D01*
G04 #@! TO.C,P1*
X119270000Y-112160000D02*
X121930000Y-112160000D01*
X119270000Y-107020000D02*
X119270000Y-112160000D01*
X121930000Y-107020000D02*
X121930000Y-112160000D01*
X119270000Y-107020000D02*
X121930000Y-107020000D01*
X119270000Y-105750000D02*
X119270000Y-104420000D01*
X119270000Y-104420000D02*
X120600000Y-104420000D01*
G04 #@! TO.C,Y1*
X77025000Y-93875000D02*
X75675000Y-93875000D01*
X77025000Y-95625000D02*
X75675000Y-95625000D01*
G04 #@! TO.C,XTAL1*
X103200000Y-94400000D02*
X103200000Y-98900000D01*
X103200000Y-98900000D02*
X108600000Y-98900000D01*
D12*
G04 #@! TO.C,IC2*
X100930001Y-88819999D02*
X101380001Y-88819999D01*
X100930001Y-81469999D02*
X101480001Y-81469999D01*
X108280001Y-81469999D02*
X107730001Y-81469999D01*
X108280001Y-88819999D02*
X107730001Y-88819999D01*
X100930001Y-88819999D02*
X100930001Y-88269999D01*
X108280001Y-88819999D02*
X108280001Y-88269999D01*
X108280001Y-81469999D02*
X108280001Y-82019999D01*
X100930001Y-81469999D02*
X100930001Y-82019999D01*
X101380001Y-88819999D02*
X101380001Y-90094999D01*
G04 #@! TO.C,IC1*
X77380001Y-86400001D02*
X77805001Y-86400001D01*
X77380001Y-79150001D02*
X77905001Y-79150001D01*
X84630001Y-79150001D02*
X84105001Y-79150001D01*
X84630001Y-86400001D02*
X84105001Y-86400001D01*
X77380001Y-86400001D02*
X77380001Y-85875001D01*
X84630001Y-86400001D02*
X84630001Y-85875001D01*
X84630001Y-79150001D02*
X84630001Y-79675001D01*
X77380001Y-79150001D02*
X77380001Y-79675001D01*
X77805001Y-86400001D02*
X77805001Y-87775001D01*
G04 #@! TO.C,IC3*
X135175000Y-86800000D02*
X135175000Y-86825000D01*
X139325000Y-86800000D02*
X139325000Y-86915000D01*
X139325000Y-95700000D02*
X139325000Y-95585000D01*
X135175000Y-95700000D02*
X135175000Y-95585000D01*
X135175000Y-86800000D02*
X139325000Y-86800000D01*
X135175000Y-95700000D02*
X139325000Y-95700000D01*
X135175000Y-86825000D02*
X133800000Y-86825000D01*
D11*
G04 #@! TO.C,U10*
X102600000Y-73970000D02*
X101600000Y-73970000D01*
X100600000Y-71730000D02*
X102600000Y-71730000D01*
G04 #@! TO.C,RX*
X68800000Y-93300000D02*
X71200000Y-93300000D01*
X68800000Y-95700000D02*
X68800000Y-93300000D01*
X71200000Y-95700000D02*
X68800000Y-95700000D01*
X71200000Y-93300000D02*
X71200000Y-95700000D01*
G04 #@! TO.C,TX*
X68800000Y-87800000D02*
X71200000Y-87800000D01*
X68800000Y-90200000D02*
X68800000Y-87800000D01*
X71200000Y-90200000D02*
X68800000Y-90200000D01*
X71200000Y-87800000D02*
X71200000Y-90200000D01*
D12*
G04 #@! TO.C,FL1*
X102275000Y-64000000D02*
X102275000Y-67200000D01*
X102275000Y-67200000D02*
X102675000Y-67200000D01*
X102275000Y-64000000D02*
X102675000Y-64000000D01*
X103225000Y-64000000D02*
X103825000Y-64000000D01*
X104375000Y-64000000D02*
X104775000Y-64000000D01*
X104775000Y-64000000D02*
X104775000Y-67200000D01*
X104775000Y-67200000D02*
X104375000Y-67200000D01*
X103225000Y-67200000D02*
X103825000Y-67200000D01*
G04 #@! TO.C,U7*
X147350000Y-86350000D02*
X147350000Y-88150000D01*
X151150000Y-86350000D02*
X147350000Y-86350000D01*
X151150000Y-88150000D02*
X151150000Y-86350000D01*
X147350000Y-88150000D02*
X151150000Y-88150000D01*
G04 #@! TO.C,J1*
X130216666Y-74452380D02*
X130216666Y-75166666D01*
X130169047Y-75309523D01*
X130073809Y-75404761D01*
X129930952Y-75452380D01*
X129835714Y-75452380D01*
X131216666Y-75452380D02*
X130645238Y-75452380D01*
X130930952Y-75452380D02*
X130930952Y-74452380D01*
X130835714Y-74595238D01*
X130740476Y-74690476D01*
X130645238Y-74738095D01*
G04 #@! TO.C,C64*
X137657142Y-74957142D02*
X137609523Y-75004761D01*
X137466666Y-75052380D01*
X137371428Y-75052380D01*
X137228571Y-75004761D01*
X137133333Y-74909523D01*
X137085714Y-74814285D01*
X137038095Y-74623809D01*
X137038095Y-74480952D01*
X137085714Y-74290476D01*
X137133333Y-74195238D01*
X137228571Y-74100000D01*
X137371428Y-74052380D01*
X137466666Y-74052380D01*
X137609523Y-74100000D01*
X137657142Y-74147619D01*
X138514285Y-74052380D02*
X138323809Y-74052380D01*
X138228571Y-74100000D01*
X138180952Y-74147619D01*
X138085714Y-74290476D01*
X138038095Y-74480952D01*
X138038095Y-74861904D01*
X138085714Y-74957142D01*
X138133333Y-75004761D01*
X138228571Y-75052380D01*
X138419047Y-75052380D01*
X138514285Y-75004761D01*
X138561904Y-74957142D01*
X138609523Y-74861904D01*
X138609523Y-74623809D01*
X138561904Y-74528571D01*
X138514285Y-74480952D01*
X138419047Y-74433333D01*
X138228571Y-74433333D01*
X138133333Y-74480952D01*
X138085714Y-74528571D01*
X138038095Y-74623809D01*
X139466666Y-74385714D02*
X139466666Y-75052380D01*
X139228571Y-74004761D02*
X138990476Y-74719047D01*
X139609523Y-74719047D01*
G04 #@! TO.C,U9*
X147738095Y-100252380D02*
X147738095Y-101061904D01*
X147785714Y-101157142D01*
X147833333Y-101204761D01*
X147928571Y-101252380D01*
X148119047Y-101252380D01*
X148214285Y-101204761D01*
X148261904Y-101157142D01*
X148309523Y-101061904D01*
X148309523Y-100252380D01*
X148833333Y-101252380D02*
X149023809Y-101252380D01*
X149119047Y-101204761D01*
X149166666Y-101157142D01*
X149261904Y-101014285D01*
X149309523Y-100823809D01*
X149309523Y-100442857D01*
X149261904Y-100347619D01*
X149214285Y-100300000D01*
X149119047Y-100252380D01*
X148928571Y-100252380D01*
X148833333Y-100300000D01*
X148785714Y-100347619D01*
X148738095Y-100442857D01*
X148738095Y-100680952D01*
X148785714Y-100776190D01*
X148833333Y-100823809D01*
X148928571Y-100871428D01*
X149119047Y-100871428D01*
X149214285Y-100823809D01*
X149261904Y-100776190D01*
X149309523Y-100680952D01*
G04 #@! TO.C,R17*
X106657142Y-74852380D02*
X106323809Y-74376190D01*
X106085714Y-74852380D02*
X106085714Y-73852380D01*
X106466666Y-73852380D01*
X106561904Y-73900000D01*
X106609523Y-73947619D01*
X106657142Y-74042857D01*
X106657142Y-74185714D01*
X106609523Y-74280952D01*
X106561904Y-74328571D01*
X106466666Y-74376190D01*
X106085714Y-74376190D01*
X107609523Y-74852380D02*
X107038095Y-74852380D01*
X107323809Y-74852380D02*
X107323809Y-73852380D01*
X107228571Y-73995238D01*
X107133333Y-74090476D01*
X107038095Y-74138095D01*
X107942857Y-73852380D02*
X108609523Y-73852380D01*
X108180952Y-74852380D01*
G04 #@! TO.C,R14*
X117357142Y-86952380D02*
X117023809Y-86476190D01*
X116785714Y-86952380D02*
X116785714Y-85952380D01*
X117166666Y-85952380D01*
X117261904Y-86000000D01*
X117309523Y-86047619D01*
X117357142Y-86142857D01*
X117357142Y-86285714D01*
X117309523Y-86380952D01*
X117261904Y-86428571D01*
X117166666Y-86476190D01*
X116785714Y-86476190D01*
X118309523Y-86952380D02*
X117738095Y-86952380D01*
X118023809Y-86952380D02*
X118023809Y-85952380D01*
X117928571Y-86095238D01*
X117833333Y-86190476D01*
X117738095Y-86238095D01*
X119166666Y-86285714D02*
X119166666Y-86952380D01*
X118928571Y-85904761D02*
X118690476Y-86619047D01*
X119309523Y-86619047D01*
G04 #@! TO.C,R25*
X141217857Y-86239285D02*
X140967857Y-85882142D01*
X140789285Y-86239285D02*
X140789285Y-85489285D01*
X141075000Y-85489285D01*
X141146428Y-85525000D01*
X141182142Y-85560714D01*
X141217857Y-85632142D01*
X141217857Y-85739285D01*
X141182142Y-85810714D01*
X141146428Y-85846428D01*
X141075000Y-85882142D01*
X140789285Y-85882142D01*
X141503571Y-85560714D02*
X141539285Y-85525000D01*
X141610714Y-85489285D01*
X141789285Y-85489285D01*
X141860714Y-85525000D01*
X141896428Y-85560714D01*
X141932142Y-85632142D01*
X141932142Y-85703571D01*
X141896428Y-85810714D01*
X141467857Y-86239285D01*
X141932142Y-86239285D01*
X142610714Y-85489285D02*
X142253571Y-85489285D01*
X142217857Y-85846428D01*
X142253571Y-85810714D01*
X142325000Y-85775000D01*
X142503571Y-85775000D01*
X142575000Y-85810714D01*
X142610714Y-85846428D01*
X142646428Y-85917857D01*
X142646428Y-86096428D01*
X142610714Y-86167857D01*
X142575000Y-86203571D01*
X142503571Y-86239285D01*
X142325000Y-86239285D01*
X142253571Y-86203571D01*
X142217857Y-86167857D01*
G04 #@! TO.C,R21*
X141117857Y-78839285D02*
X140867857Y-78482142D01*
X140689285Y-78839285D02*
X140689285Y-78089285D01*
X140975000Y-78089285D01*
X141046428Y-78125000D01*
X141082142Y-78160714D01*
X141117857Y-78232142D01*
X141117857Y-78339285D01*
X141082142Y-78410714D01*
X141046428Y-78446428D01*
X140975000Y-78482142D01*
X140689285Y-78482142D01*
X141403571Y-78160714D02*
X141439285Y-78125000D01*
X141510714Y-78089285D01*
X141689285Y-78089285D01*
X141760714Y-78125000D01*
X141796428Y-78160714D01*
X141832142Y-78232142D01*
X141832142Y-78303571D01*
X141796428Y-78410714D01*
X141367857Y-78839285D01*
X141832142Y-78839285D01*
X142546428Y-78839285D02*
X142117857Y-78839285D01*
X142332142Y-78839285D02*
X142332142Y-78089285D01*
X142260714Y-78196428D01*
X142189285Y-78267857D01*
X142117857Y-78303571D01*
G04 #@! TO.C,R15*
X117357142Y-84952380D02*
X117023809Y-84476190D01*
X116785714Y-84952380D02*
X116785714Y-83952380D01*
X117166666Y-83952380D01*
X117261904Y-84000000D01*
X117309523Y-84047619D01*
X117357142Y-84142857D01*
X117357142Y-84285714D01*
X117309523Y-84380952D01*
X117261904Y-84428571D01*
X117166666Y-84476190D01*
X116785714Y-84476190D01*
X118309523Y-84952380D02*
X117738095Y-84952380D01*
X118023809Y-84952380D02*
X118023809Y-83952380D01*
X117928571Y-84095238D01*
X117833333Y-84190476D01*
X117738095Y-84238095D01*
X119214285Y-83952380D02*
X118738095Y-83952380D01*
X118690476Y-84428571D01*
X118738095Y-84380952D01*
X118833333Y-84333333D01*
X119071428Y-84333333D01*
X119166666Y-84380952D01*
X119214285Y-84428571D01*
X119261904Y-84523809D01*
X119261904Y-84761904D01*
X119214285Y-84857142D01*
X119166666Y-84904761D01*
X119071428Y-84952380D01*
X118833333Y-84952380D01*
X118738095Y-84904761D01*
X118690476Y-84857142D01*
G04 #@! TO.C,C1*
X75933333Y-101557142D02*
X75885714Y-101604761D01*
X75742857Y-101652380D01*
X75647619Y-101652380D01*
X75504761Y-101604761D01*
X75409523Y-101509523D01*
X75361904Y-101414285D01*
X75314285Y-101223809D01*
X75314285Y-101080952D01*
X75361904Y-100890476D01*
X75409523Y-100795238D01*
X75504761Y-100700000D01*
X75647619Y-100652380D01*
X75742857Y-100652380D01*
X75885714Y-100700000D01*
X75933333Y-100747619D01*
X76885714Y-101652380D02*
X76314285Y-101652380D01*
X76600000Y-101652380D02*
X76600000Y-100652380D01*
X76504761Y-100795238D01*
X76409523Y-100890476D01*
X76314285Y-100938095D01*
G04 #@! TO.C,C78*
X105917857Y-68067857D02*
X105882142Y-68103571D01*
X105775000Y-68139285D01*
X105703571Y-68139285D01*
X105596428Y-68103571D01*
X105525000Y-68032142D01*
X105489285Y-67960714D01*
X105453571Y-67817857D01*
X105453571Y-67710714D01*
X105489285Y-67567857D01*
X105525000Y-67496428D01*
X105596428Y-67425000D01*
X105703571Y-67389285D01*
X105775000Y-67389285D01*
X105882142Y-67425000D01*
X105917857Y-67460714D01*
X106167857Y-67389285D02*
X106667857Y-67389285D01*
X106346428Y-68139285D01*
X107060714Y-67710714D02*
X106989285Y-67675000D01*
X106953571Y-67639285D01*
X106917857Y-67567857D01*
X106917857Y-67532142D01*
X106953571Y-67460714D01*
X106989285Y-67425000D01*
X107060714Y-67389285D01*
X107203571Y-67389285D01*
X107275000Y-67425000D01*
X107310714Y-67460714D01*
X107346428Y-67532142D01*
X107346428Y-67567857D01*
X107310714Y-67639285D01*
X107275000Y-67675000D01*
X107203571Y-67710714D01*
X107060714Y-67710714D01*
X106989285Y-67746428D01*
X106953571Y-67782142D01*
X106917857Y-67853571D01*
X106917857Y-67996428D01*
X106953571Y-68067857D01*
X106989285Y-68103571D01*
X107060714Y-68139285D01*
X107203571Y-68139285D01*
X107275000Y-68103571D01*
X107310714Y-68067857D01*
X107346428Y-67996428D01*
X107346428Y-67853571D01*
X107310714Y-67782142D01*
X107275000Y-67746428D01*
X107203571Y-67710714D01*
G04 #@! TO.C,C79*
D14*
X100417857Y-71367857D02*
X100382142Y-71403571D01*
X100275000Y-71439285D01*
X100203571Y-71439285D01*
X100096428Y-71403571D01*
X100025000Y-71332142D01*
X99989285Y-71260714D01*
X99953571Y-71117857D01*
X99953571Y-71010714D01*
X99989285Y-70867857D01*
X100025000Y-70796428D01*
X100096428Y-70725000D01*
X100203571Y-70689285D01*
X100275000Y-70689285D01*
X100382142Y-70725000D01*
X100417857Y-70760714D01*
X100667857Y-70689285D02*
X101167857Y-70689285D01*
X100846428Y-71439285D01*
X101489285Y-71439285D02*
X101632142Y-71439285D01*
X101703571Y-71403571D01*
X101739285Y-71367857D01*
X101810714Y-71260714D01*
X101846428Y-71117857D01*
X101846428Y-70832142D01*
X101810714Y-70760714D01*
X101775000Y-70725000D01*
X101703571Y-70689285D01*
X101560714Y-70689285D01*
X101489285Y-70725000D01*
X101453571Y-70760714D01*
X101417857Y-70832142D01*
X101417857Y-71010714D01*
X101453571Y-71082142D01*
X101489285Y-71117857D01*
X101560714Y-71153571D01*
X101703571Y-71153571D01*
X101775000Y-71117857D01*
X101810714Y-71082142D01*
X101846428Y-71010714D01*
G04 #@! TO.C,C52*
D12*
X150957142Y-72557142D02*
X150909523Y-72604761D01*
X150766666Y-72652380D01*
X150671428Y-72652380D01*
X150528571Y-72604761D01*
X150433333Y-72509523D01*
X150385714Y-72414285D01*
X150338095Y-72223809D01*
X150338095Y-72080952D01*
X150385714Y-71890476D01*
X150433333Y-71795238D01*
X150528571Y-71700000D01*
X150671428Y-71652380D01*
X150766666Y-71652380D01*
X150909523Y-71700000D01*
X150957142Y-71747619D01*
X151861904Y-71652380D02*
X151385714Y-71652380D01*
X151338095Y-72128571D01*
X151385714Y-72080952D01*
X151480952Y-72033333D01*
X151719047Y-72033333D01*
X151814285Y-72080952D01*
X151861904Y-72128571D01*
X151909523Y-72223809D01*
X151909523Y-72461904D01*
X151861904Y-72557142D01*
X151814285Y-72604761D01*
X151719047Y-72652380D01*
X151480952Y-72652380D01*
X151385714Y-72604761D01*
X151338095Y-72557142D01*
X152290476Y-71747619D02*
X152338095Y-71700000D01*
X152433333Y-71652380D01*
X152671428Y-71652380D01*
X152766666Y-71700000D01*
X152814285Y-71747619D01*
X152861904Y-71842857D01*
X152861904Y-71938095D01*
X152814285Y-72080952D01*
X152242857Y-72652380D01*
X152861904Y-72652380D01*
G04 #@! TO.C,C76*
X94957142Y-79657142D02*
X94909523Y-79704761D01*
X94766666Y-79752380D01*
X94671428Y-79752380D01*
X94528571Y-79704761D01*
X94433333Y-79609523D01*
X94385714Y-79514285D01*
X94338095Y-79323809D01*
X94338095Y-79180952D01*
X94385714Y-78990476D01*
X94433333Y-78895238D01*
X94528571Y-78800000D01*
X94671428Y-78752380D01*
X94766666Y-78752380D01*
X94909523Y-78800000D01*
X94957142Y-78847619D01*
X95290476Y-78752380D02*
X95957142Y-78752380D01*
X95528571Y-79752380D01*
X96766666Y-78752380D02*
X96576190Y-78752380D01*
X96480952Y-78800000D01*
X96433333Y-78847619D01*
X96338095Y-78990476D01*
X96290476Y-79180952D01*
X96290476Y-79561904D01*
X96338095Y-79657142D01*
X96385714Y-79704761D01*
X96480952Y-79752380D01*
X96671428Y-79752380D01*
X96766666Y-79704761D01*
X96814285Y-79657142D01*
X96861904Y-79561904D01*
X96861904Y-79323809D01*
X96814285Y-79228571D01*
X96766666Y-79180952D01*
X96671428Y-79133333D01*
X96480952Y-79133333D01*
X96385714Y-79180952D01*
X96338095Y-79228571D01*
X96290476Y-79323809D01*
G04 #@! TO.C,J3*
X92566666Y-68352380D02*
X92566666Y-69066666D01*
X92519047Y-69209523D01*
X92423809Y-69304761D01*
X92280952Y-69352380D01*
X92185714Y-69352380D01*
X92947619Y-68352380D02*
X93566666Y-68352380D01*
X93233333Y-68733333D01*
X93376190Y-68733333D01*
X93471428Y-68780952D01*
X93519047Y-68828571D01*
X93566666Y-68923809D01*
X93566666Y-69161904D01*
X93519047Y-69257142D01*
X93471428Y-69304761D01*
X93376190Y-69352380D01*
X93090476Y-69352380D01*
X92995238Y-69304761D01*
X92947619Y-69257142D01*
G04 #@! TO.C,R3*
X88533333Y-75087379D02*
X88200000Y-74611189D01*
X87961904Y-75087379D02*
X87961904Y-74087379D01*
X88342857Y-74087379D01*
X88438095Y-74134999D01*
X88485714Y-74182618D01*
X88533333Y-74277856D01*
X88533333Y-74420713D01*
X88485714Y-74515951D01*
X88438095Y-74563570D01*
X88342857Y-74611189D01*
X87961904Y-74611189D01*
X88866666Y-74087379D02*
X89485714Y-74087379D01*
X89152380Y-74468332D01*
X89295238Y-74468332D01*
X89390476Y-74515951D01*
X89438095Y-74563570D01*
X89485714Y-74658808D01*
X89485714Y-74896903D01*
X89438095Y-74992141D01*
X89390476Y-75039760D01*
X89295238Y-75087379D01*
X89009523Y-75087379D01*
X88914285Y-75039760D01*
X88866666Y-74992141D01*
G04 #@! TO.C,R4*
X84133333Y-75087379D02*
X83800000Y-74611189D01*
X83561904Y-75087379D02*
X83561904Y-74087379D01*
X83942857Y-74087379D01*
X84038095Y-74134999D01*
X84085714Y-74182618D01*
X84133333Y-74277856D01*
X84133333Y-74420713D01*
X84085714Y-74515951D01*
X84038095Y-74563570D01*
X83942857Y-74611189D01*
X83561904Y-74611189D01*
X84990476Y-74420713D02*
X84990476Y-75087379D01*
X84752380Y-74039760D02*
X84514285Y-74754046D01*
X85133333Y-74754046D01*
G04 #@! TO.C,J2*
X136166666Y-68962380D02*
X136166666Y-69676666D01*
X136119047Y-69819523D01*
X136023809Y-69914761D01*
X135880952Y-69962380D01*
X135785714Y-69962380D01*
X136595238Y-69057619D02*
X136642857Y-69010000D01*
X136738095Y-68962380D01*
X136976190Y-68962380D01*
X137071428Y-69010000D01*
X137119047Y-69057619D01*
X137166666Y-69152857D01*
X137166666Y-69248095D01*
X137119047Y-69390952D01*
X136547619Y-69962380D01*
X137166666Y-69962380D01*
G04 #@! TO.C,L8*
X107733333Y-73152380D02*
X107257142Y-73152380D01*
X107257142Y-72152380D01*
X108209523Y-72580952D02*
X108114285Y-72533333D01*
X108066666Y-72485714D01*
X108019047Y-72390476D01*
X108019047Y-72342857D01*
X108066666Y-72247619D01*
X108114285Y-72200000D01*
X108209523Y-72152380D01*
X108400000Y-72152380D01*
X108495238Y-72200000D01*
X108542857Y-72247619D01*
X108590476Y-72342857D01*
X108590476Y-72390476D01*
X108542857Y-72485714D01*
X108495238Y-72533333D01*
X108400000Y-72580952D01*
X108209523Y-72580952D01*
X108114285Y-72628571D01*
X108066666Y-72676190D01*
X108019047Y-72771428D01*
X108019047Y-72961904D01*
X108066666Y-73057142D01*
X108114285Y-73104761D01*
X108209523Y-73152380D01*
X108400000Y-73152380D01*
X108495238Y-73104761D01*
X108542857Y-73057142D01*
X108590476Y-72961904D01*
X108590476Y-72771428D01*
X108542857Y-72676190D01*
X108495238Y-72628571D01*
X108400000Y-72580952D01*
G04 #@! TO.C,TP5*
X141638095Y-93652380D02*
X142209523Y-93652380D01*
X141923809Y-94652380D02*
X141923809Y-93652380D01*
X142542857Y-94652380D02*
X142542857Y-93652380D01*
X142923809Y-93652380D01*
X143019047Y-93700000D01*
X143066666Y-93747619D01*
X143114285Y-93842857D01*
X143114285Y-93985714D01*
X143066666Y-94080952D01*
X143019047Y-94128571D01*
X142923809Y-94176190D01*
X142542857Y-94176190D01*
X144019047Y-93652380D02*
X143542857Y-93652380D01*
X143495238Y-94128571D01*
X143542857Y-94080952D01*
X143638095Y-94033333D01*
X143876190Y-94033333D01*
X143971428Y-94080952D01*
X144019047Y-94128571D01*
X144066666Y-94223809D01*
X144066666Y-94461904D01*
X144019047Y-94557142D01*
X143971428Y-94604761D01*
X143876190Y-94652380D01*
X143638095Y-94652380D01*
X143542857Y-94604761D01*
X143495238Y-94557142D01*
G04 #@! TO.C,TP8*
X145138095Y-102552380D02*
X145709523Y-102552380D01*
X145423809Y-103552380D02*
X145423809Y-102552380D01*
X146042857Y-103552380D02*
X146042857Y-102552380D01*
X146423809Y-102552380D01*
X146519047Y-102600000D01*
X146566666Y-102647619D01*
X146614285Y-102742857D01*
X146614285Y-102885714D01*
X146566666Y-102980952D01*
X146519047Y-103028571D01*
X146423809Y-103076190D01*
X146042857Y-103076190D01*
X147185714Y-102980952D02*
X147090476Y-102933333D01*
X147042857Y-102885714D01*
X146995238Y-102790476D01*
X146995238Y-102742857D01*
X147042857Y-102647619D01*
X147090476Y-102600000D01*
X147185714Y-102552380D01*
X147376190Y-102552380D01*
X147471428Y-102600000D01*
X147519047Y-102647619D01*
X147566666Y-102742857D01*
X147566666Y-102790476D01*
X147519047Y-102885714D01*
X147471428Y-102933333D01*
X147376190Y-102980952D01*
X147185714Y-102980952D01*
X147090476Y-103028571D01*
X147042857Y-103076190D01*
X146995238Y-103171428D01*
X146995238Y-103361904D01*
X147042857Y-103457142D01*
X147090476Y-103504761D01*
X147185714Y-103552380D01*
X147376190Y-103552380D01*
X147471428Y-103504761D01*
X147519047Y-103457142D01*
X147566666Y-103361904D01*
X147566666Y-103171428D01*
X147519047Y-103076190D01*
X147471428Y-103028571D01*
X147376190Y-102980952D01*
G04 #@! TO.C,TP6*
X151988095Y-88752380D02*
X152559523Y-88752380D01*
X152273809Y-89752380D02*
X152273809Y-88752380D01*
X152892857Y-89752380D02*
X152892857Y-88752380D01*
X153273809Y-88752380D01*
X153369047Y-88800000D01*
X153416666Y-88847619D01*
X153464285Y-88942857D01*
X153464285Y-89085714D01*
X153416666Y-89180952D01*
X153369047Y-89228571D01*
X153273809Y-89276190D01*
X152892857Y-89276190D01*
X154321428Y-88752380D02*
X154130952Y-88752380D01*
X154035714Y-88800000D01*
X153988095Y-88847619D01*
X153892857Y-88990476D01*
X153845238Y-89180952D01*
X153845238Y-89561904D01*
X153892857Y-89657142D01*
X153940476Y-89704761D01*
X154035714Y-89752380D01*
X154226190Y-89752380D01*
X154321428Y-89704761D01*
X154369047Y-89657142D01*
X154416666Y-89561904D01*
X154416666Y-89323809D01*
X154369047Y-89228571D01*
X154321428Y-89180952D01*
X154226190Y-89133333D01*
X154035714Y-89133333D01*
X153940476Y-89180952D01*
X153892857Y-89228571D01*
X153845238Y-89323809D01*
G04 #@! TO.C,TP3*
X153838095Y-84952380D02*
X154409523Y-84952380D01*
X154123809Y-85952380D02*
X154123809Y-84952380D01*
X154742857Y-85952380D02*
X154742857Y-84952380D01*
X155123809Y-84952380D01*
X155219047Y-85000000D01*
X155266666Y-85047619D01*
X155314285Y-85142857D01*
X155314285Y-85285714D01*
X155266666Y-85380952D01*
X155219047Y-85428571D01*
X155123809Y-85476190D01*
X154742857Y-85476190D01*
X155647619Y-84952380D02*
X156266666Y-84952380D01*
X155933333Y-85333333D01*
X156076190Y-85333333D01*
X156171428Y-85380952D01*
X156219047Y-85428571D01*
X156266666Y-85523809D01*
X156266666Y-85761904D01*
X156219047Y-85857142D01*
X156171428Y-85904761D01*
X156076190Y-85952380D01*
X155790476Y-85952380D01*
X155695238Y-85904761D01*
X155647619Y-85857142D01*
G04 #@! TO.C,TP7*
X143738095Y-91152380D02*
X144309523Y-91152380D01*
X144023809Y-92152380D02*
X144023809Y-91152380D01*
X144642857Y-92152380D02*
X144642857Y-91152380D01*
X145023809Y-91152380D01*
X145119047Y-91200000D01*
X145166666Y-91247619D01*
X145214285Y-91342857D01*
X145214285Y-91485714D01*
X145166666Y-91580952D01*
X145119047Y-91628571D01*
X145023809Y-91676190D01*
X144642857Y-91676190D01*
X145547619Y-91152380D02*
X146214285Y-91152380D01*
X145785714Y-92152380D01*
G04 #@! TO.C,TP4*
X146953571Y-82889285D02*
X147382142Y-82889285D01*
X147167857Y-83639285D02*
X147167857Y-82889285D01*
X147632142Y-83639285D02*
X147632142Y-82889285D01*
X147917857Y-82889285D01*
X147989285Y-82925000D01*
X148025000Y-82960714D01*
X148060714Y-83032142D01*
X148060714Y-83139285D01*
X148025000Y-83210714D01*
X147989285Y-83246428D01*
X147917857Y-83282142D01*
X147632142Y-83282142D01*
X148703571Y-83139285D02*
X148703571Y-83639285D01*
X148525000Y-82853571D02*
X148346428Y-83389285D01*
X148810714Y-83389285D01*
G04 #@! TO.C,C54*
X112617857Y-91467857D02*
X112582142Y-91503571D01*
X112475000Y-91539285D01*
X112403571Y-91539285D01*
X112296428Y-91503571D01*
X112225000Y-91432142D01*
X112189285Y-91360714D01*
X112153571Y-91217857D01*
X112153571Y-91110714D01*
X112189285Y-90967857D01*
X112225000Y-90896428D01*
X112296428Y-90825000D01*
X112403571Y-90789285D01*
X112475000Y-90789285D01*
X112582142Y-90825000D01*
X112617857Y-90860714D01*
X113296428Y-90789285D02*
X112939285Y-90789285D01*
X112903571Y-91146428D01*
X112939285Y-91110714D01*
X113010714Y-91075000D01*
X113189285Y-91075000D01*
X113260714Y-91110714D01*
X113296428Y-91146428D01*
X113332142Y-91217857D01*
X113332142Y-91396428D01*
X113296428Y-91467857D01*
X113260714Y-91503571D01*
X113189285Y-91539285D01*
X113010714Y-91539285D01*
X112939285Y-91503571D01*
X112903571Y-91467857D01*
X113975000Y-91039285D02*
X113975000Y-91539285D01*
X113796428Y-90753571D02*
X113617857Y-91289285D01*
X114082142Y-91289285D01*
G04 #@! TO.C,U4*
X122238095Y-90252380D02*
X122238095Y-91061904D01*
X122285714Y-91157142D01*
X122333333Y-91204761D01*
X122428571Y-91252380D01*
X122619047Y-91252380D01*
X122714285Y-91204761D01*
X122761904Y-91157142D01*
X122809523Y-91061904D01*
X122809523Y-90252380D01*
X123714285Y-90585714D02*
X123714285Y-91252380D01*
X123476190Y-90204761D02*
X123238095Y-90919047D01*
X123857142Y-90919047D01*
G04 #@! TO.C,U11*
X117611904Y-95852380D02*
X117611904Y-96661904D01*
X117659523Y-96757142D01*
X117707142Y-96804761D01*
X117802380Y-96852380D01*
X117992857Y-96852380D01*
X118088095Y-96804761D01*
X118135714Y-96757142D01*
X118183333Y-96661904D01*
X118183333Y-95852380D01*
X119183333Y-96852380D02*
X118611904Y-96852380D01*
X118897619Y-96852380D02*
X118897619Y-95852380D01*
X118802380Y-95995238D01*
X118707142Y-96090476D01*
X118611904Y-96138095D01*
X120135714Y-96852380D02*
X119564285Y-96852380D01*
X119850000Y-96852380D02*
X119850000Y-95852380D01*
X119754761Y-95995238D01*
X119659523Y-96090476D01*
X119564285Y-96138095D01*
G04 #@! TO.C,U12*
X91661904Y-97552380D02*
X91661904Y-98361904D01*
X91709523Y-98457142D01*
X91757142Y-98504761D01*
X91852380Y-98552380D01*
X92042857Y-98552380D01*
X92138095Y-98504761D01*
X92185714Y-98457142D01*
X92233333Y-98361904D01*
X92233333Y-97552380D01*
X93233333Y-98552380D02*
X92661904Y-98552380D01*
X92947619Y-98552380D02*
X92947619Y-97552380D01*
X92852380Y-97695238D01*
X92757142Y-97790476D01*
X92661904Y-97838095D01*
X93614285Y-97647619D02*
X93661904Y-97600000D01*
X93757142Y-97552380D01*
X93995238Y-97552380D01*
X94090476Y-97600000D01*
X94138095Y-97647619D01*
X94185714Y-97742857D01*
X94185714Y-97838095D01*
X94138095Y-97980952D01*
X93566666Y-98552380D01*
X94185714Y-98552380D01*
G04 #@! TO.C,CON1*
D14*
X79648085Y-71960257D02*
X79612371Y-71995971D01*
X79505228Y-72031685D01*
X79433800Y-72031685D01*
X79326657Y-71995971D01*
X79255228Y-71924542D01*
X79219514Y-71853114D01*
X79183800Y-71710257D01*
X79183800Y-71603114D01*
X79219514Y-71460257D01*
X79255228Y-71388828D01*
X79326657Y-71317400D01*
X79433800Y-71281685D01*
X79505228Y-71281685D01*
X79612371Y-71317400D01*
X79648085Y-71353114D01*
X80112371Y-71281685D02*
X80255228Y-71281685D01*
X80326657Y-71317400D01*
X80398085Y-71388828D01*
X80433800Y-71531685D01*
X80433800Y-71781685D01*
X80398085Y-71924542D01*
X80326657Y-71995971D01*
X80255228Y-72031685D01*
X80112371Y-72031685D01*
X80040942Y-71995971D01*
X79969514Y-71924542D01*
X79933800Y-71781685D01*
X79933800Y-71531685D01*
X79969514Y-71388828D01*
X80040942Y-71317400D01*
X80112371Y-71281685D01*
X80755228Y-72031685D02*
X80755228Y-71281685D01*
X81183800Y-72031685D01*
X81183800Y-71281685D01*
X81933800Y-72031685D02*
X81505228Y-72031685D01*
X81719514Y-72031685D02*
X81719514Y-71281685D01*
X81648085Y-71388828D01*
X81576657Y-71460257D01*
X81505228Y-71495971D01*
G04 #@! TO.C,PSU-1*
D12*
X109842857Y-65752380D02*
X109842857Y-64752380D01*
X110223809Y-64752380D01*
X110319047Y-64800000D01*
X110366666Y-64847619D01*
X110414285Y-64942857D01*
X110414285Y-65085714D01*
X110366666Y-65180952D01*
X110319047Y-65228571D01*
X110223809Y-65276190D01*
X109842857Y-65276190D01*
X110795238Y-65704761D02*
X110938095Y-65752380D01*
X111176190Y-65752380D01*
X111271428Y-65704761D01*
X111319047Y-65657142D01*
X111366666Y-65561904D01*
X111366666Y-65466666D01*
X111319047Y-65371428D01*
X111271428Y-65323809D01*
X111176190Y-65276190D01*
X110985714Y-65228571D01*
X110890476Y-65180952D01*
X110842857Y-65133333D01*
X110795238Y-65038095D01*
X110795238Y-64942857D01*
X110842857Y-64847619D01*
X110890476Y-64800000D01*
X110985714Y-64752380D01*
X111223809Y-64752380D01*
X111366666Y-64800000D01*
X111795238Y-64752380D02*
X111795238Y-65561904D01*
X111842857Y-65657142D01*
X111890476Y-65704761D01*
X111985714Y-65752380D01*
X112176190Y-65752380D01*
X112271428Y-65704761D01*
X112319047Y-65657142D01*
X112366666Y-65561904D01*
X112366666Y-64752380D01*
X112842857Y-65371428D02*
X113604761Y-65371428D01*
X114604761Y-65752380D02*
X114033333Y-65752380D01*
X114319047Y-65752380D02*
X114319047Y-64752380D01*
X114223809Y-64895238D01*
X114128571Y-64990476D01*
X114033333Y-65038095D01*
G04 #@! TO.C,PSU+1*
X95842857Y-68052380D02*
X95842857Y-67052380D01*
X96223809Y-67052380D01*
X96319047Y-67100000D01*
X96366666Y-67147619D01*
X96414285Y-67242857D01*
X96414285Y-67385714D01*
X96366666Y-67480952D01*
X96319047Y-67528571D01*
X96223809Y-67576190D01*
X95842857Y-67576190D01*
X96795238Y-68004761D02*
X96938095Y-68052380D01*
X97176190Y-68052380D01*
X97271428Y-68004761D01*
X97319047Y-67957142D01*
X97366666Y-67861904D01*
X97366666Y-67766666D01*
X97319047Y-67671428D01*
X97271428Y-67623809D01*
X97176190Y-67576190D01*
X96985714Y-67528571D01*
X96890476Y-67480952D01*
X96842857Y-67433333D01*
X96795238Y-67338095D01*
X96795238Y-67242857D01*
X96842857Y-67147619D01*
X96890476Y-67100000D01*
X96985714Y-67052380D01*
X97223809Y-67052380D01*
X97366666Y-67100000D01*
X97795238Y-67052380D02*
X97795238Y-67861904D01*
X97842857Y-67957142D01*
X97890476Y-68004761D01*
X97985714Y-68052380D01*
X98176190Y-68052380D01*
X98271428Y-68004761D01*
X98319047Y-67957142D01*
X98366666Y-67861904D01*
X98366666Y-67052380D01*
X98842857Y-67671428D02*
X99604761Y-67671428D01*
X99223809Y-68052380D02*
X99223809Y-67290476D01*
X100604761Y-68052380D02*
X100033333Y-68052380D01*
X100319047Y-68052380D02*
X100319047Y-67052380D01*
X100223809Y-67195238D01*
X100128571Y-67290476D01*
X100033333Y-67338095D01*
G04 #@! TO.C,U3*
D14*
X85778571Y-104889285D02*
X85778571Y-105496428D01*
X85814285Y-105567857D01*
X85850000Y-105603571D01*
X85921428Y-105639285D01*
X86064285Y-105639285D01*
X86135714Y-105603571D01*
X86171428Y-105567857D01*
X86207142Y-105496428D01*
X86207142Y-104889285D01*
X86492857Y-104889285D02*
X86957142Y-104889285D01*
X86707142Y-105175000D01*
X86814285Y-105175000D01*
X86885714Y-105210714D01*
X86921428Y-105246428D01*
X86957142Y-105317857D01*
X86957142Y-105496428D01*
X86921428Y-105567857D01*
X86885714Y-105603571D01*
X86814285Y-105639285D01*
X86600000Y-105639285D01*
X86528571Y-105603571D01*
X86492857Y-105567857D01*
G04 #@! TO.C,U2*
X74728571Y-110389285D02*
X74728571Y-110996428D01*
X74764285Y-111067857D01*
X74800000Y-111103571D01*
X74871428Y-111139285D01*
X75014285Y-111139285D01*
X75085714Y-111103571D01*
X75121428Y-111067857D01*
X75157142Y-110996428D01*
X75157142Y-110389285D01*
X75478571Y-110460714D02*
X75514285Y-110425000D01*
X75585714Y-110389285D01*
X75764285Y-110389285D01*
X75835714Y-110425000D01*
X75871428Y-110460714D01*
X75907142Y-110532142D01*
X75907142Y-110603571D01*
X75871428Y-110710714D01*
X75442857Y-111139285D01*
X75907142Y-111139285D01*
G04 #@! TO.C,U8*
X130128571Y-81189285D02*
X130128571Y-81796428D01*
X130164285Y-81867857D01*
X130200000Y-81903571D01*
X130271428Y-81939285D01*
X130414285Y-81939285D01*
X130485714Y-81903571D01*
X130521428Y-81867857D01*
X130557142Y-81796428D01*
X130557142Y-81189285D01*
X131021428Y-81510714D02*
X130950000Y-81475000D01*
X130914285Y-81439285D01*
X130878571Y-81367857D01*
X130878571Y-81332142D01*
X130914285Y-81260714D01*
X130950000Y-81225000D01*
X131021428Y-81189285D01*
X131164285Y-81189285D01*
X131235714Y-81225000D01*
X131271428Y-81260714D01*
X131307142Y-81332142D01*
X131307142Y-81367857D01*
X131271428Y-81439285D01*
X131235714Y-81475000D01*
X131164285Y-81510714D01*
X131021428Y-81510714D01*
X130950000Y-81546428D01*
X130914285Y-81582142D01*
X130878571Y-81653571D01*
X130878571Y-81796428D01*
X130914285Y-81867857D01*
X130950000Y-81903571D01*
X131021428Y-81939285D01*
X131164285Y-81939285D01*
X131235714Y-81903571D01*
X131271428Y-81867857D01*
X131307142Y-81796428D01*
X131307142Y-81653571D01*
X131271428Y-81582142D01*
X131235714Y-81546428D01*
X131164285Y-81510714D01*
G04 #@! TO.C,U1*
X125778571Y-100389285D02*
X125778571Y-100996428D01*
X125814285Y-101067857D01*
X125850000Y-101103571D01*
X125921428Y-101139285D01*
X126064285Y-101139285D01*
X126135714Y-101103571D01*
X126171428Y-101067857D01*
X126207142Y-100996428D01*
X126207142Y-100389285D01*
X126957142Y-101139285D02*
X126528571Y-101139285D01*
X126742857Y-101139285D02*
X126742857Y-100389285D01*
X126671428Y-100496428D01*
X126600000Y-100567857D01*
X126528571Y-100603571D01*
G04 #@! TO.C,U5*
X144178571Y-82989285D02*
X144178571Y-83596428D01*
X144214285Y-83667857D01*
X144250000Y-83703571D01*
X144321428Y-83739285D01*
X144464285Y-83739285D01*
X144535714Y-83703571D01*
X144571428Y-83667857D01*
X144607142Y-83596428D01*
X144607142Y-82989285D01*
X145321428Y-82989285D02*
X144964285Y-82989285D01*
X144928571Y-83346428D01*
X144964285Y-83310714D01*
X145035714Y-83275000D01*
X145214285Y-83275000D01*
X145285714Y-83310714D01*
X145321428Y-83346428D01*
X145357142Y-83417857D01*
X145357142Y-83596428D01*
X145321428Y-83667857D01*
X145285714Y-83703571D01*
X145214285Y-83739285D01*
X145035714Y-83739285D01*
X144964285Y-83703571D01*
X144928571Y-83667857D01*
G04 #@! TO.C,C53*
X136917857Y-84767857D02*
X136882142Y-84803571D01*
X136775000Y-84839285D01*
X136703571Y-84839285D01*
X136596428Y-84803571D01*
X136525000Y-84732142D01*
X136489285Y-84660714D01*
X136453571Y-84517857D01*
X136453571Y-84410714D01*
X136489285Y-84267857D01*
X136525000Y-84196428D01*
X136596428Y-84125000D01*
X136703571Y-84089285D01*
X136775000Y-84089285D01*
X136882142Y-84125000D01*
X136917857Y-84160714D01*
X137596428Y-84089285D02*
X137239285Y-84089285D01*
X137203571Y-84446428D01*
X137239285Y-84410714D01*
X137310714Y-84375000D01*
X137489285Y-84375000D01*
X137560714Y-84410714D01*
X137596428Y-84446428D01*
X137632142Y-84517857D01*
X137632142Y-84696428D01*
X137596428Y-84767857D01*
X137560714Y-84803571D01*
X137489285Y-84839285D01*
X137310714Y-84839285D01*
X137239285Y-84803571D01*
X137203571Y-84767857D01*
X137882142Y-84089285D02*
X138346428Y-84089285D01*
X138096428Y-84375000D01*
X138203571Y-84375000D01*
X138275000Y-84410714D01*
X138310714Y-84446428D01*
X138346428Y-84517857D01*
X138346428Y-84696428D01*
X138310714Y-84767857D01*
X138275000Y-84803571D01*
X138203571Y-84839285D01*
X137989285Y-84839285D01*
X137917857Y-84803571D01*
X137882142Y-84767857D01*
G04 #@! TO.C,C62*
X132717857Y-78067857D02*
X132682142Y-78103571D01*
X132575000Y-78139285D01*
X132503571Y-78139285D01*
X132396428Y-78103571D01*
X132325000Y-78032142D01*
X132289285Y-77960714D01*
X132253571Y-77817857D01*
X132253571Y-77710714D01*
X132289285Y-77567857D01*
X132325000Y-77496428D01*
X132396428Y-77425000D01*
X132503571Y-77389285D01*
X132575000Y-77389285D01*
X132682142Y-77425000D01*
X132717857Y-77460714D01*
X133360714Y-77389285D02*
X133217857Y-77389285D01*
X133146428Y-77425000D01*
X133110714Y-77460714D01*
X133039285Y-77567857D01*
X133003571Y-77710714D01*
X133003571Y-77996428D01*
X133039285Y-78067857D01*
X133075000Y-78103571D01*
X133146428Y-78139285D01*
X133289285Y-78139285D01*
X133360714Y-78103571D01*
X133396428Y-78067857D01*
X133432142Y-77996428D01*
X133432142Y-77817857D01*
X133396428Y-77746428D01*
X133360714Y-77710714D01*
X133289285Y-77675000D01*
X133146428Y-77675000D01*
X133075000Y-77710714D01*
X133039285Y-77746428D01*
X133003571Y-77817857D01*
X133717857Y-77460714D02*
X133753571Y-77425000D01*
X133825000Y-77389285D01*
X134003571Y-77389285D01*
X134075000Y-77425000D01*
X134110714Y-77460714D01*
X134146428Y-77532142D01*
X134146428Y-77603571D01*
X134110714Y-77710714D01*
X133682142Y-78139285D01*
X134146428Y-78139285D01*
G04 #@! TO.C,C33*
X113278571Y-73071428D02*
X113302380Y-73095238D01*
X113326190Y-73166666D01*
X113326190Y-73214285D01*
X113302380Y-73285714D01*
X113254761Y-73333333D01*
X113207142Y-73357142D01*
X113111904Y-73380952D01*
X113040476Y-73380952D01*
X112945238Y-73357142D01*
X112897619Y-73333333D01*
X112850000Y-73285714D01*
X112826190Y-73214285D01*
X112826190Y-73166666D01*
X112850000Y-73095238D01*
X112873809Y-73071428D01*
X112826190Y-72904761D02*
X112826190Y-72595238D01*
X113016666Y-72761904D01*
X113016666Y-72690476D01*
X113040476Y-72642857D01*
X113064285Y-72619047D01*
X113111904Y-72595238D01*
X113230952Y-72595238D01*
X113278571Y-72619047D01*
X113302380Y-72642857D01*
X113326190Y-72690476D01*
X113326190Y-72833333D01*
X113302380Y-72880952D01*
X113278571Y-72904761D01*
X112826190Y-72428571D02*
X112826190Y-72119047D01*
X113016666Y-72285714D01*
X113016666Y-72214285D01*
X113040476Y-72166666D01*
X113064285Y-72142857D01*
X113111904Y-72119047D01*
X113230952Y-72119047D01*
X113278571Y-72142857D01*
X113302380Y-72166666D01*
X113326190Y-72214285D01*
X113326190Y-72357142D01*
X113302380Y-72404761D01*
X113278571Y-72428571D01*
G04 #@! TO.C,C61*
X132817857Y-79467857D02*
X132782142Y-79503571D01*
X132675000Y-79539285D01*
X132603571Y-79539285D01*
X132496428Y-79503571D01*
X132425000Y-79432142D01*
X132389285Y-79360714D01*
X132353571Y-79217857D01*
X132353571Y-79110714D01*
X132389285Y-78967857D01*
X132425000Y-78896428D01*
X132496428Y-78825000D01*
X132603571Y-78789285D01*
X132675000Y-78789285D01*
X132782142Y-78825000D01*
X132817857Y-78860714D01*
X133460714Y-78789285D02*
X133317857Y-78789285D01*
X133246428Y-78825000D01*
X133210714Y-78860714D01*
X133139285Y-78967857D01*
X133103571Y-79110714D01*
X133103571Y-79396428D01*
X133139285Y-79467857D01*
X133175000Y-79503571D01*
X133246428Y-79539285D01*
X133389285Y-79539285D01*
X133460714Y-79503571D01*
X133496428Y-79467857D01*
X133532142Y-79396428D01*
X133532142Y-79217857D01*
X133496428Y-79146428D01*
X133460714Y-79110714D01*
X133389285Y-79075000D01*
X133246428Y-79075000D01*
X133175000Y-79110714D01*
X133139285Y-79146428D01*
X133103571Y-79217857D01*
X134246428Y-79539285D02*
X133817857Y-79539285D01*
X134032142Y-79539285D02*
X134032142Y-78789285D01*
X133960714Y-78896428D01*
X133889285Y-78967857D01*
X133817857Y-79003571D01*
G04 #@! TO.C,C59*
X139017857Y-99067857D02*
X138982142Y-99103571D01*
X138875000Y-99139285D01*
X138803571Y-99139285D01*
X138696428Y-99103571D01*
X138625000Y-99032142D01*
X138589285Y-98960714D01*
X138553571Y-98817857D01*
X138553571Y-98710714D01*
X138589285Y-98567857D01*
X138625000Y-98496428D01*
X138696428Y-98425000D01*
X138803571Y-98389285D01*
X138875000Y-98389285D01*
X138982142Y-98425000D01*
X139017857Y-98460714D01*
X139696428Y-98389285D02*
X139339285Y-98389285D01*
X139303571Y-98746428D01*
X139339285Y-98710714D01*
X139410714Y-98675000D01*
X139589285Y-98675000D01*
X139660714Y-98710714D01*
X139696428Y-98746428D01*
X139732142Y-98817857D01*
X139732142Y-98996428D01*
X139696428Y-99067857D01*
X139660714Y-99103571D01*
X139589285Y-99139285D01*
X139410714Y-99139285D01*
X139339285Y-99103571D01*
X139303571Y-99067857D01*
X140089285Y-99139285D02*
X140232142Y-99139285D01*
X140303571Y-99103571D01*
X140339285Y-99067857D01*
X140410714Y-98960714D01*
X140446428Y-98817857D01*
X140446428Y-98532142D01*
X140410714Y-98460714D01*
X140375000Y-98425000D01*
X140303571Y-98389285D01*
X140160714Y-98389285D01*
X140089285Y-98425000D01*
X140053571Y-98460714D01*
X140017857Y-98532142D01*
X140017857Y-98710714D01*
X140053571Y-98782142D01*
X140089285Y-98817857D01*
X140160714Y-98853571D01*
X140303571Y-98853571D01*
X140375000Y-98817857D01*
X140410714Y-98782142D01*
X140446428Y-98710714D01*
G04 #@! TO.C,C57*
X154117857Y-81567857D02*
X154082142Y-81603571D01*
X153975000Y-81639285D01*
X153903571Y-81639285D01*
X153796428Y-81603571D01*
X153725000Y-81532142D01*
X153689285Y-81460714D01*
X153653571Y-81317857D01*
X153653571Y-81210714D01*
X153689285Y-81067857D01*
X153725000Y-80996428D01*
X153796428Y-80925000D01*
X153903571Y-80889285D01*
X153975000Y-80889285D01*
X154082142Y-80925000D01*
X154117857Y-80960714D01*
X154796428Y-80889285D02*
X154439285Y-80889285D01*
X154403571Y-81246428D01*
X154439285Y-81210714D01*
X154510714Y-81175000D01*
X154689285Y-81175000D01*
X154760714Y-81210714D01*
X154796428Y-81246428D01*
X154832142Y-81317857D01*
X154832142Y-81496428D01*
X154796428Y-81567857D01*
X154760714Y-81603571D01*
X154689285Y-81639285D01*
X154510714Y-81639285D01*
X154439285Y-81603571D01*
X154403571Y-81567857D01*
X155082142Y-80889285D02*
X155582142Y-80889285D01*
X155260714Y-81639285D01*
G04 #@! TO.C,C56*
X152017857Y-84237857D02*
X151982142Y-84273571D01*
X151875000Y-84309285D01*
X151803571Y-84309285D01*
X151696428Y-84273571D01*
X151625000Y-84202142D01*
X151589285Y-84130714D01*
X151553571Y-83987857D01*
X151553571Y-83880714D01*
X151589285Y-83737857D01*
X151625000Y-83666428D01*
X151696428Y-83595000D01*
X151803571Y-83559285D01*
X151875000Y-83559285D01*
X151982142Y-83595000D01*
X152017857Y-83630714D01*
X152696428Y-83559285D02*
X152339285Y-83559285D01*
X152303571Y-83916428D01*
X152339285Y-83880714D01*
X152410714Y-83845000D01*
X152589285Y-83845000D01*
X152660714Y-83880714D01*
X152696428Y-83916428D01*
X152732142Y-83987857D01*
X152732142Y-84166428D01*
X152696428Y-84237857D01*
X152660714Y-84273571D01*
X152589285Y-84309285D01*
X152410714Y-84309285D01*
X152339285Y-84273571D01*
X152303571Y-84237857D01*
X153375000Y-83559285D02*
X153232142Y-83559285D01*
X153160714Y-83595000D01*
X153125000Y-83630714D01*
X153053571Y-83737857D01*
X153017857Y-83880714D01*
X153017857Y-84166428D01*
X153053571Y-84237857D01*
X153089285Y-84273571D01*
X153160714Y-84309285D01*
X153303571Y-84309285D01*
X153375000Y-84273571D01*
X153410714Y-84237857D01*
X153446428Y-84166428D01*
X153446428Y-83987857D01*
X153410714Y-83916428D01*
X153375000Y-83880714D01*
X153303571Y-83845000D01*
X153160714Y-83845000D01*
X153089285Y-83880714D01*
X153053571Y-83916428D01*
X153017857Y-83987857D01*
G04 #@! TO.C,C83*
X112617857Y-94367857D02*
X112582142Y-94403571D01*
X112475000Y-94439285D01*
X112403571Y-94439285D01*
X112296428Y-94403571D01*
X112225000Y-94332142D01*
X112189285Y-94260714D01*
X112153571Y-94117857D01*
X112153571Y-94010714D01*
X112189285Y-93867857D01*
X112225000Y-93796428D01*
X112296428Y-93725000D01*
X112403571Y-93689285D01*
X112475000Y-93689285D01*
X112582142Y-93725000D01*
X112617857Y-93760714D01*
X113046428Y-94010714D02*
X112975000Y-93975000D01*
X112939285Y-93939285D01*
X112903571Y-93867857D01*
X112903571Y-93832142D01*
X112939285Y-93760714D01*
X112975000Y-93725000D01*
X113046428Y-93689285D01*
X113189285Y-93689285D01*
X113260714Y-93725000D01*
X113296428Y-93760714D01*
X113332142Y-93832142D01*
X113332142Y-93867857D01*
X113296428Y-93939285D01*
X113260714Y-93975000D01*
X113189285Y-94010714D01*
X113046428Y-94010714D01*
X112975000Y-94046428D01*
X112939285Y-94082142D01*
X112903571Y-94153571D01*
X112903571Y-94296428D01*
X112939285Y-94367857D01*
X112975000Y-94403571D01*
X113046428Y-94439285D01*
X113189285Y-94439285D01*
X113260714Y-94403571D01*
X113296428Y-94367857D01*
X113332142Y-94296428D01*
X113332142Y-94153571D01*
X113296428Y-94082142D01*
X113260714Y-94046428D01*
X113189285Y-94010714D01*
X113582142Y-93689285D02*
X114046428Y-93689285D01*
X113796428Y-93975000D01*
X113903571Y-93975000D01*
X113975000Y-94010714D01*
X114010714Y-94046428D01*
X114046428Y-94117857D01*
X114046428Y-94296428D01*
X114010714Y-94367857D01*
X113975000Y-94403571D01*
X113903571Y-94439285D01*
X113689285Y-94439285D01*
X113617857Y-94403571D01*
X113582142Y-94367857D01*
G04 #@! TO.C,C51*
X144917857Y-89667857D02*
X144882142Y-89703571D01*
X144775000Y-89739285D01*
X144703571Y-89739285D01*
X144596428Y-89703571D01*
X144525000Y-89632142D01*
X144489285Y-89560714D01*
X144453571Y-89417857D01*
X144453571Y-89310714D01*
X144489285Y-89167857D01*
X144525000Y-89096428D01*
X144596428Y-89025000D01*
X144703571Y-88989285D01*
X144775000Y-88989285D01*
X144882142Y-89025000D01*
X144917857Y-89060714D01*
X145596428Y-88989285D02*
X145239285Y-88989285D01*
X145203571Y-89346428D01*
X145239285Y-89310714D01*
X145310714Y-89275000D01*
X145489285Y-89275000D01*
X145560714Y-89310714D01*
X145596428Y-89346428D01*
X145632142Y-89417857D01*
X145632142Y-89596428D01*
X145596428Y-89667857D01*
X145560714Y-89703571D01*
X145489285Y-89739285D01*
X145310714Y-89739285D01*
X145239285Y-89703571D01*
X145203571Y-89667857D01*
X146346428Y-89739285D02*
X145917857Y-89739285D01*
X146132142Y-89739285D02*
X146132142Y-88989285D01*
X146060714Y-89096428D01*
X145989285Y-89167857D01*
X145917857Y-89203571D01*
G04 #@! TO.C,C50*
X121117857Y-84667857D02*
X121082142Y-84703571D01*
X120975000Y-84739285D01*
X120903571Y-84739285D01*
X120796428Y-84703571D01*
X120725000Y-84632142D01*
X120689285Y-84560714D01*
X120653571Y-84417857D01*
X120653571Y-84310714D01*
X120689285Y-84167857D01*
X120725000Y-84096428D01*
X120796428Y-84025000D01*
X120903571Y-83989285D01*
X120975000Y-83989285D01*
X121082142Y-84025000D01*
X121117857Y-84060714D01*
X121796428Y-83989285D02*
X121439285Y-83989285D01*
X121403571Y-84346428D01*
X121439285Y-84310714D01*
X121510714Y-84275000D01*
X121689285Y-84275000D01*
X121760714Y-84310714D01*
X121796428Y-84346428D01*
X121832142Y-84417857D01*
X121832142Y-84596428D01*
X121796428Y-84667857D01*
X121760714Y-84703571D01*
X121689285Y-84739285D01*
X121510714Y-84739285D01*
X121439285Y-84703571D01*
X121403571Y-84667857D01*
X122296428Y-83989285D02*
X122367857Y-83989285D01*
X122439285Y-84025000D01*
X122475000Y-84060714D01*
X122510714Y-84132142D01*
X122546428Y-84275000D01*
X122546428Y-84453571D01*
X122510714Y-84596428D01*
X122475000Y-84667857D01*
X122439285Y-84703571D01*
X122367857Y-84739285D01*
X122296428Y-84739285D01*
X122225000Y-84703571D01*
X122189285Y-84667857D01*
X122153571Y-84596428D01*
X122117857Y-84453571D01*
X122117857Y-84275000D01*
X122153571Y-84132142D01*
X122189285Y-84060714D01*
X122225000Y-84025000D01*
X122296428Y-83989285D01*
G04 #@! TO.C,C49*
X136917857Y-83267857D02*
X136882142Y-83303571D01*
X136775000Y-83339285D01*
X136703571Y-83339285D01*
X136596428Y-83303571D01*
X136525000Y-83232142D01*
X136489285Y-83160714D01*
X136453571Y-83017857D01*
X136453571Y-82910714D01*
X136489285Y-82767857D01*
X136525000Y-82696428D01*
X136596428Y-82625000D01*
X136703571Y-82589285D01*
X136775000Y-82589285D01*
X136882142Y-82625000D01*
X136917857Y-82660714D01*
X137560714Y-82839285D02*
X137560714Y-83339285D01*
X137382142Y-82553571D02*
X137203571Y-83089285D01*
X137667857Y-83089285D01*
X137989285Y-83339285D02*
X138132142Y-83339285D01*
X138203571Y-83303571D01*
X138239285Y-83267857D01*
X138310714Y-83160714D01*
X138346428Y-83017857D01*
X138346428Y-82732142D01*
X138310714Y-82660714D01*
X138275000Y-82625000D01*
X138203571Y-82589285D01*
X138060714Y-82589285D01*
X137989285Y-82625000D01*
X137953571Y-82660714D01*
X137917857Y-82732142D01*
X137917857Y-82910714D01*
X137953571Y-82982142D01*
X137989285Y-83017857D01*
X138060714Y-83053571D01*
X138203571Y-83053571D01*
X138275000Y-83017857D01*
X138310714Y-82982142D01*
X138346428Y-82910714D01*
G04 #@! TO.C,C48*
X147617857Y-81567857D02*
X147582142Y-81603571D01*
X147475000Y-81639285D01*
X147403571Y-81639285D01*
X147296428Y-81603571D01*
X147225000Y-81532142D01*
X147189285Y-81460714D01*
X147153571Y-81317857D01*
X147153571Y-81210714D01*
X147189285Y-81067857D01*
X147225000Y-80996428D01*
X147296428Y-80925000D01*
X147403571Y-80889285D01*
X147475000Y-80889285D01*
X147582142Y-80925000D01*
X147617857Y-80960714D01*
X148260714Y-81139285D02*
X148260714Y-81639285D01*
X148082142Y-80853571D02*
X147903571Y-81389285D01*
X148367857Y-81389285D01*
X148760714Y-81210714D02*
X148689285Y-81175000D01*
X148653571Y-81139285D01*
X148617857Y-81067857D01*
X148617857Y-81032142D01*
X148653571Y-80960714D01*
X148689285Y-80925000D01*
X148760714Y-80889285D01*
X148903571Y-80889285D01*
X148975000Y-80925000D01*
X149010714Y-80960714D01*
X149046428Y-81032142D01*
X149046428Y-81067857D01*
X149010714Y-81139285D01*
X148975000Y-81175000D01*
X148903571Y-81210714D01*
X148760714Y-81210714D01*
X148689285Y-81246428D01*
X148653571Y-81282142D01*
X148617857Y-81353571D01*
X148617857Y-81496428D01*
X148653571Y-81567857D01*
X148689285Y-81603571D01*
X148760714Y-81639285D01*
X148903571Y-81639285D01*
X148975000Y-81603571D01*
X149010714Y-81567857D01*
X149046428Y-81496428D01*
X149046428Y-81353571D01*
X149010714Y-81282142D01*
X148975000Y-81246428D01*
X148903571Y-81210714D01*
G04 #@! TO.C,C47*
X136917857Y-81867857D02*
X136882142Y-81903571D01*
X136775000Y-81939285D01*
X136703571Y-81939285D01*
X136596428Y-81903571D01*
X136525000Y-81832142D01*
X136489285Y-81760714D01*
X136453571Y-81617857D01*
X136453571Y-81510714D01*
X136489285Y-81367857D01*
X136525000Y-81296428D01*
X136596428Y-81225000D01*
X136703571Y-81189285D01*
X136775000Y-81189285D01*
X136882142Y-81225000D01*
X136917857Y-81260714D01*
X137560714Y-81439285D02*
X137560714Y-81939285D01*
X137382142Y-81153571D02*
X137203571Y-81689285D01*
X137667857Y-81689285D01*
X137882142Y-81189285D02*
X138382142Y-81189285D01*
X138060714Y-81939285D01*
G04 #@! TO.C,C46*
X149517857Y-84237857D02*
X149482142Y-84273571D01*
X149375000Y-84309285D01*
X149303571Y-84309285D01*
X149196428Y-84273571D01*
X149125000Y-84202142D01*
X149089285Y-84130714D01*
X149053571Y-83987857D01*
X149053571Y-83880714D01*
X149089285Y-83737857D01*
X149125000Y-83666428D01*
X149196428Y-83595000D01*
X149303571Y-83559285D01*
X149375000Y-83559285D01*
X149482142Y-83595000D01*
X149517857Y-83630714D01*
X150160714Y-83809285D02*
X150160714Y-84309285D01*
X149982142Y-83523571D02*
X149803571Y-84059285D01*
X150267857Y-84059285D01*
X150875000Y-83559285D02*
X150732142Y-83559285D01*
X150660714Y-83595000D01*
X150625000Y-83630714D01*
X150553571Y-83737857D01*
X150517857Y-83880714D01*
X150517857Y-84166428D01*
X150553571Y-84237857D01*
X150589285Y-84273571D01*
X150660714Y-84309285D01*
X150803571Y-84309285D01*
X150875000Y-84273571D01*
X150910714Y-84237857D01*
X150946428Y-84166428D01*
X150946428Y-83987857D01*
X150910714Y-83916428D01*
X150875000Y-83880714D01*
X150803571Y-83845000D01*
X150660714Y-83845000D01*
X150589285Y-83880714D01*
X150553571Y-83916428D01*
X150517857Y-83987857D01*
G04 #@! TO.C,C45*
X139017857Y-77367857D02*
X138982142Y-77403571D01*
X138875000Y-77439285D01*
X138803571Y-77439285D01*
X138696428Y-77403571D01*
X138625000Y-77332142D01*
X138589285Y-77260714D01*
X138553571Y-77117857D01*
X138553571Y-77010714D01*
X138589285Y-76867857D01*
X138625000Y-76796428D01*
X138696428Y-76725000D01*
X138803571Y-76689285D01*
X138875000Y-76689285D01*
X138982142Y-76725000D01*
X139017857Y-76760714D01*
X139660714Y-76939285D02*
X139660714Y-77439285D01*
X139482142Y-76653571D02*
X139303571Y-77189285D01*
X139767857Y-77189285D01*
X140410714Y-76689285D02*
X140053571Y-76689285D01*
X140017857Y-77046428D01*
X140053571Y-77010714D01*
X140125000Y-76975000D01*
X140303571Y-76975000D01*
X140375000Y-77010714D01*
X140410714Y-77046428D01*
X140446428Y-77117857D01*
X140446428Y-77296428D01*
X140410714Y-77367857D01*
X140375000Y-77403571D01*
X140303571Y-77439285D01*
X140125000Y-77439285D01*
X140053571Y-77403571D01*
X140017857Y-77367857D01*
G04 #@! TO.C,C63*
X139017857Y-100467857D02*
X138982142Y-100503571D01*
X138875000Y-100539285D01*
X138803571Y-100539285D01*
X138696428Y-100503571D01*
X138625000Y-100432142D01*
X138589285Y-100360714D01*
X138553571Y-100217857D01*
X138553571Y-100110714D01*
X138589285Y-99967857D01*
X138625000Y-99896428D01*
X138696428Y-99825000D01*
X138803571Y-99789285D01*
X138875000Y-99789285D01*
X138982142Y-99825000D01*
X139017857Y-99860714D01*
X139660714Y-99789285D02*
X139517857Y-99789285D01*
X139446428Y-99825000D01*
X139410714Y-99860714D01*
X139339285Y-99967857D01*
X139303571Y-100110714D01*
X139303571Y-100396428D01*
X139339285Y-100467857D01*
X139375000Y-100503571D01*
X139446428Y-100539285D01*
X139589285Y-100539285D01*
X139660714Y-100503571D01*
X139696428Y-100467857D01*
X139732142Y-100396428D01*
X139732142Y-100217857D01*
X139696428Y-100146428D01*
X139660714Y-100110714D01*
X139589285Y-100075000D01*
X139446428Y-100075000D01*
X139375000Y-100110714D01*
X139339285Y-100146428D01*
X139303571Y-100217857D01*
X139982142Y-99789285D02*
X140446428Y-99789285D01*
X140196428Y-100075000D01*
X140303571Y-100075000D01*
X140375000Y-100110714D01*
X140410714Y-100146428D01*
X140446428Y-100217857D01*
X140446428Y-100396428D01*
X140410714Y-100467857D01*
X140375000Y-100503571D01*
X140303571Y-100539285D01*
X140089285Y-100539285D01*
X140017857Y-100503571D01*
X139982142Y-100467857D01*
G04 #@! TO.C,C82*
X95517857Y-98367857D02*
X95482142Y-98403571D01*
X95375000Y-98439285D01*
X95303571Y-98439285D01*
X95196428Y-98403571D01*
X95125000Y-98332142D01*
X95089285Y-98260714D01*
X95053571Y-98117857D01*
X95053571Y-98010714D01*
X95089285Y-97867857D01*
X95125000Y-97796428D01*
X95196428Y-97725000D01*
X95303571Y-97689285D01*
X95375000Y-97689285D01*
X95482142Y-97725000D01*
X95517857Y-97760714D01*
X95946428Y-98010714D02*
X95875000Y-97975000D01*
X95839285Y-97939285D01*
X95803571Y-97867857D01*
X95803571Y-97832142D01*
X95839285Y-97760714D01*
X95875000Y-97725000D01*
X95946428Y-97689285D01*
X96089285Y-97689285D01*
X96160714Y-97725000D01*
X96196428Y-97760714D01*
X96232142Y-97832142D01*
X96232142Y-97867857D01*
X96196428Y-97939285D01*
X96160714Y-97975000D01*
X96089285Y-98010714D01*
X95946428Y-98010714D01*
X95875000Y-98046428D01*
X95839285Y-98082142D01*
X95803571Y-98153571D01*
X95803571Y-98296428D01*
X95839285Y-98367857D01*
X95875000Y-98403571D01*
X95946428Y-98439285D01*
X96089285Y-98439285D01*
X96160714Y-98403571D01*
X96196428Y-98367857D01*
X96232142Y-98296428D01*
X96232142Y-98153571D01*
X96196428Y-98082142D01*
X96160714Y-98046428D01*
X96089285Y-98010714D01*
X96517857Y-97760714D02*
X96553571Y-97725000D01*
X96625000Y-97689285D01*
X96803571Y-97689285D01*
X96875000Y-97725000D01*
X96910714Y-97760714D01*
X96946428Y-97832142D01*
X96946428Y-97903571D01*
X96910714Y-98010714D01*
X96482142Y-98439285D01*
X96946428Y-98439285D01*
G04 #@! TO.C,C21*
X109517857Y-98367857D02*
X109482142Y-98403571D01*
X109375000Y-98439285D01*
X109303571Y-98439285D01*
X109196428Y-98403571D01*
X109125000Y-98332142D01*
X109089285Y-98260714D01*
X109053571Y-98117857D01*
X109053571Y-98010714D01*
X109089285Y-97867857D01*
X109125000Y-97796428D01*
X109196428Y-97725000D01*
X109303571Y-97689285D01*
X109375000Y-97689285D01*
X109482142Y-97725000D01*
X109517857Y-97760714D01*
X109803571Y-97760714D02*
X109839285Y-97725000D01*
X109910714Y-97689285D01*
X110089285Y-97689285D01*
X110160714Y-97725000D01*
X110196428Y-97760714D01*
X110232142Y-97832142D01*
X110232142Y-97903571D01*
X110196428Y-98010714D01*
X109767857Y-98439285D01*
X110232142Y-98439285D01*
X110946428Y-98439285D02*
X110517857Y-98439285D01*
X110732142Y-98439285D02*
X110732142Y-97689285D01*
X110660714Y-97796428D01*
X110589285Y-97867857D01*
X110517857Y-97903571D01*
G04 #@! TO.C,C80*
X114602857Y-96967857D02*
X114567142Y-97003571D01*
X114460000Y-97039285D01*
X114388571Y-97039285D01*
X114281428Y-97003571D01*
X114210000Y-96932142D01*
X114174285Y-96860714D01*
X114138571Y-96717857D01*
X114138571Y-96610714D01*
X114174285Y-96467857D01*
X114210000Y-96396428D01*
X114281428Y-96325000D01*
X114388571Y-96289285D01*
X114460000Y-96289285D01*
X114567142Y-96325000D01*
X114602857Y-96360714D01*
X115031428Y-96610714D02*
X114960000Y-96575000D01*
X114924285Y-96539285D01*
X114888571Y-96467857D01*
X114888571Y-96432142D01*
X114924285Y-96360714D01*
X114960000Y-96325000D01*
X115031428Y-96289285D01*
X115174285Y-96289285D01*
X115245714Y-96325000D01*
X115281428Y-96360714D01*
X115317142Y-96432142D01*
X115317142Y-96467857D01*
X115281428Y-96539285D01*
X115245714Y-96575000D01*
X115174285Y-96610714D01*
X115031428Y-96610714D01*
X114960000Y-96646428D01*
X114924285Y-96682142D01*
X114888571Y-96753571D01*
X114888571Y-96896428D01*
X114924285Y-96967857D01*
X114960000Y-97003571D01*
X115031428Y-97039285D01*
X115174285Y-97039285D01*
X115245714Y-97003571D01*
X115281428Y-96967857D01*
X115317142Y-96896428D01*
X115317142Y-96753571D01*
X115281428Y-96682142D01*
X115245714Y-96646428D01*
X115174285Y-96610714D01*
X115781428Y-96289285D02*
X115852857Y-96289285D01*
X115924285Y-96325000D01*
X115960000Y-96360714D01*
X115995714Y-96432142D01*
X116031428Y-96575000D01*
X116031428Y-96753571D01*
X115995714Y-96896428D01*
X115960000Y-96967857D01*
X115924285Y-97003571D01*
X115852857Y-97039285D01*
X115781428Y-97039285D01*
X115710000Y-97003571D01*
X115674285Y-96967857D01*
X115638571Y-96896428D01*
X115602857Y-96753571D01*
X115602857Y-96575000D01*
X115638571Y-96432142D01*
X115674285Y-96360714D01*
X115710000Y-96325000D01*
X115781428Y-96289285D01*
G04 #@! TO.C,C77*
X100402857Y-70367857D02*
X100367142Y-70403571D01*
X100260000Y-70439285D01*
X100188571Y-70439285D01*
X100081428Y-70403571D01*
X100010000Y-70332142D01*
X99974285Y-70260714D01*
X99938571Y-70117857D01*
X99938571Y-70010714D01*
X99974285Y-69867857D01*
X100010000Y-69796428D01*
X100081428Y-69725000D01*
X100188571Y-69689285D01*
X100260000Y-69689285D01*
X100367142Y-69725000D01*
X100402857Y-69760714D01*
X100652857Y-69689285D02*
X101152857Y-69689285D01*
X100831428Y-70439285D01*
X101367142Y-69689285D02*
X101867142Y-69689285D01*
X101545714Y-70439285D01*
G04 #@! TO.C,C75*
X153417857Y-102467857D02*
X153382142Y-102503571D01*
X153275000Y-102539285D01*
X153203571Y-102539285D01*
X153096428Y-102503571D01*
X153025000Y-102432142D01*
X152989285Y-102360714D01*
X152953571Y-102217857D01*
X152953571Y-102110714D01*
X152989285Y-101967857D01*
X153025000Y-101896428D01*
X153096428Y-101825000D01*
X153203571Y-101789285D01*
X153275000Y-101789285D01*
X153382142Y-101825000D01*
X153417857Y-101860714D01*
X153667857Y-101789285D02*
X154167857Y-101789285D01*
X153846428Y-102539285D01*
X154810714Y-101789285D02*
X154453571Y-101789285D01*
X154417857Y-102146428D01*
X154453571Y-102110714D01*
X154525000Y-102075000D01*
X154703571Y-102075000D01*
X154775000Y-102110714D01*
X154810714Y-102146428D01*
X154846428Y-102217857D01*
X154846428Y-102396428D01*
X154810714Y-102467857D01*
X154775000Y-102503571D01*
X154703571Y-102539285D01*
X154525000Y-102539285D01*
X154453571Y-102503571D01*
X154417857Y-102467857D01*
G04 #@! TO.C,C44*
X117617857Y-90687857D02*
X117582142Y-90723571D01*
X117475000Y-90759285D01*
X117403571Y-90759285D01*
X117296428Y-90723571D01*
X117225000Y-90652142D01*
X117189285Y-90580714D01*
X117153571Y-90437857D01*
X117153571Y-90330714D01*
X117189285Y-90187857D01*
X117225000Y-90116428D01*
X117296428Y-90045000D01*
X117403571Y-90009285D01*
X117475000Y-90009285D01*
X117582142Y-90045000D01*
X117617857Y-90080714D01*
X118260714Y-90259285D02*
X118260714Y-90759285D01*
X118082142Y-89973571D02*
X117903571Y-90509285D01*
X118367857Y-90509285D01*
X118975000Y-90259285D02*
X118975000Y-90759285D01*
X118796428Y-89973571D02*
X118617857Y-90509285D01*
X119082142Y-90509285D01*
G04 #@! TO.C,C72*
X153417857Y-100967857D02*
X153382142Y-101003571D01*
X153275000Y-101039285D01*
X153203571Y-101039285D01*
X153096428Y-101003571D01*
X153025000Y-100932142D01*
X152989285Y-100860714D01*
X152953571Y-100717857D01*
X152953571Y-100610714D01*
X152989285Y-100467857D01*
X153025000Y-100396428D01*
X153096428Y-100325000D01*
X153203571Y-100289285D01*
X153275000Y-100289285D01*
X153382142Y-100325000D01*
X153417857Y-100360714D01*
X153667857Y-100289285D02*
X154167857Y-100289285D01*
X153846428Y-101039285D01*
X154417857Y-100360714D02*
X154453571Y-100325000D01*
X154525000Y-100289285D01*
X154703571Y-100289285D01*
X154775000Y-100325000D01*
X154810714Y-100360714D01*
X154846428Y-100432142D01*
X154846428Y-100503571D01*
X154810714Y-100610714D01*
X154382142Y-101039285D01*
X154846428Y-101039285D01*
G04 #@! TO.C,C71*
X153417857Y-99467857D02*
X153382142Y-99503571D01*
X153275000Y-99539285D01*
X153203571Y-99539285D01*
X153096428Y-99503571D01*
X153025000Y-99432142D01*
X152989285Y-99360714D01*
X152953571Y-99217857D01*
X152953571Y-99110714D01*
X152989285Y-98967857D01*
X153025000Y-98896428D01*
X153096428Y-98825000D01*
X153203571Y-98789285D01*
X153275000Y-98789285D01*
X153382142Y-98825000D01*
X153417857Y-98860714D01*
X153667857Y-98789285D02*
X154167857Y-98789285D01*
X153846428Y-99539285D01*
X154846428Y-99539285D02*
X154417857Y-99539285D01*
X154632142Y-99539285D02*
X154632142Y-98789285D01*
X154560714Y-98896428D01*
X154489285Y-98967857D01*
X154417857Y-99003571D01*
G04 #@! TO.C,C70*
X153417857Y-98067857D02*
X153382142Y-98103571D01*
X153275000Y-98139285D01*
X153203571Y-98139285D01*
X153096428Y-98103571D01*
X153025000Y-98032142D01*
X152989285Y-97960714D01*
X152953571Y-97817857D01*
X152953571Y-97710714D01*
X152989285Y-97567857D01*
X153025000Y-97496428D01*
X153096428Y-97425000D01*
X153203571Y-97389285D01*
X153275000Y-97389285D01*
X153382142Y-97425000D01*
X153417857Y-97460714D01*
X153667857Y-97389285D02*
X154167857Y-97389285D01*
X153846428Y-98139285D01*
X154596428Y-97389285D02*
X154667857Y-97389285D01*
X154739285Y-97425000D01*
X154775000Y-97460714D01*
X154810714Y-97532142D01*
X154846428Y-97675000D01*
X154846428Y-97853571D01*
X154810714Y-97996428D01*
X154775000Y-98067857D01*
X154739285Y-98103571D01*
X154667857Y-98139285D01*
X154596428Y-98139285D01*
X154525000Y-98103571D01*
X154489285Y-98067857D01*
X154453571Y-97996428D01*
X154417857Y-97853571D01*
X154417857Y-97675000D01*
X154453571Y-97532142D01*
X154489285Y-97460714D01*
X154525000Y-97425000D01*
X154596428Y-97389285D01*
G04 #@! TO.C,C69*
X153417857Y-96467857D02*
X153382142Y-96503571D01*
X153275000Y-96539285D01*
X153203571Y-96539285D01*
X153096428Y-96503571D01*
X153025000Y-96432142D01*
X152989285Y-96360714D01*
X152953571Y-96217857D01*
X152953571Y-96110714D01*
X152989285Y-95967857D01*
X153025000Y-95896428D01*
X153096428Y-95825000D01*
X153203571Y-95789285D01*
X153275000Y-95789285D01*
X153382142Y-95825000D01*
X153417857Y-95860714D01*
X154060714Y-95789285D02*
X153917857Y-95789285D01*
X153846428Y-95825000D01*
X153810714Y-95860714D01*
X153739285Y-95967857D01*
X153703571Y-96110714D01*
X153703571Y-96396428D01*
X153739285Y-96467857D01*
X153775000Y-96503571D01*
X153846428Y-96539285D01*
X153989285Y-96539285D01*
X154060714Y-96503571D01*
X154096428Y-96467857D01*
X154132142Y-96396428D01*
X154132142Y-96217857D01*
X154096428Y-96146428D01*
X154060714Y-96110714D01*
X153989285Y-96075000D01*
X153846428Y-96075000D01*
X153775000Y-96110714D01*
X153739285Y-96146428D01*
X153703571Y-96217857D01*
X154489285Y-96539285D02*
X154632142Y-96539285D01*
X154703571Y-96503571D01*
X154739285Y-96467857D01*
X154810714Y-96360714D01*
X154846428Y-96217857D01*
X154846428Y-95932142D01*
X154810714Y-95860714D01*
X154775000Y-95825000D01*
X154703571Y-95789285D01*
X154560714Y-95789285D01*
X154489285Y-95825000D01*
X154453571Y-95860714D01*
X154417857Y-95932142D01*
X154417857Y-96110714D01*
X154453571Y-96182142D01*
X154489285Y-96217857D01*
X154560714Y-96253571D01*
X154703571Y-96253571D01*
X154775000Y-96217857D01*
X154810714Y-96182142D01*
X154846428Y-96110714D01*
G04 #@! TO.C,C68*
X153417857Y-95067857D02*
X153382142Y-95103571D01*
X153275000Y-95139285D01*
X153203571Y-95139285D01*
X153096428Y-95103571D01*
X153025000Y-95032142D01*
X152989285Y-94960714D01*
X152953571Y-94817857D01*
X152953571Y-94710714D01*
X152989285Y-94567857D01*
X153025000Y-94496428D01*
X153096428Y-94425000D01*
X153203571Y-94389285D01*
X153275000Y-94389285D01*
X153382142Y-94425000D01*
X153417857Y-94460714D01*
X154060714Y-94389285D02*
X153917857Y-94389285D01*
X153846428Y-94425000D01*
X153810714Y-94460714D01*
X153739285Y-94567857D01*
X153703571Y-94710714D01*
X153703571Y-94996428D01*
X153739285Y-95067857D01*
X153775000Y-95103571D01*
X153846428Y-95139285D01*
X153989285Y-95139285D01*
X154060714Y-95103571D01*
X154096428Y-95067857D01*
X154132142Y-94996428D01*
X154132142Y-94817857D01*
X154096428Y-94746428D01*
X154060714Y-94710714D01*
X153989285Y-94675000D01*
X153846428Y-94675000D01*
X153775000Y-94710714D01*
X153739285Y-94746428D01*
X153703571Y-94817857D01*
X154560714Y-94710714D02*
X154489285Y-94675000D01*
X154453571Y-94639285D01*
X154417857Y-94567857D01*
X154417857Y-94532142D01*
X154453571Y-94460714D01*
X154489285Y-94425000D01*
X154560714Y-94389285D01*
X154703571Y-94389285D01*
X154775000Y-94425000D01*
X154810714Y-94460714D01*
X154846428Y-94532142D01*
X154846428Y-94567857D01*
X154810714Y-94639285D01*
X154775000Y-94675000D01*
X154703571Y-94710714D01*
X154560714Y-94710714D01*
X154489285Y-94746428D01*
X154453571Y-94782142D01*
X154417857Y-94853571D01*
X154417857Y-94996428D01*
X154453571Y-95067857D01*
X154489285Y-95103571D01*
X154560714Y-95139285D01*
X154703571Y-95139285D01*
X154775000Y-95103571D01*
X154810714Y-95067857D01*
X154846428Y-94996428D01*
X154846428Y-94853571D01*
X154810714Y-94782142D01*
X154775000Y-94746428D01*
X154703571Y-94710714D01*
G04 #@! TO.C,C67*
X153417857Y-93567857D02*
X153382142Y-93603571D01*
X153275000Y-93639285D01*
X153203571Y-93639285D01*
X153096428Y-93603571D01*
X153025000Y-93532142D01*
X152989285Y-93460714D01*
X152953571Y-93317857D01*
X152953571Y-93210714D01*
X152989285Y-93067857D01*
X153025000Y-92996428D01*
X153096428Y-92925000D01*
X153203571Y-92889285D01*
X153275000Y-92889285D01*
X153382142Y-92925000D01*
X153417857Y-92960714D01*
X154060714Y-92889285D02*
X153917857Y-92889285D01*
X153846428Y-92925000D01*
X153810714Y-92960714D01*
X153739285Y-93067857D01*
X153703571Y-93210714D01*
X153703571Y-93496428D01*
X153739285Y-93567857D01*
X153775000Y-93603571D01*
X153846428Y-93639285D01*
X153989285Y-93639285D01*
X154060714Y-93603571D01*
X154096428Y-93567857D01*
X154132142Y-93496428D01*
X154132142Y-93317857D01*
X154096428Y-93246428D01*
X154060714Y-93210714D01*
X153989285Y-93175000D01*
X153846428Y-93175000D01*
X153775000Y-93210714D01*
X153739285Y-93246428D01*
X153703571Y-93317857D01*
X154382142Y-92889285D02*
X154882142Y-92889285D01*
X154560714Y-93639285D01*
G04 #@! TO.C,C66*
X155517857Y-90897857D02*
X155482142Y-90933571D01*
X155375000Y-90969285D01*
X155303571Y-90969285D01*
X155196428Y-90933571D01*
X155125000Y-90862142D01*
X155089285Y-90790714D01*
X155053571Y-90647857D01*
X155053571Y-90540714D01*
X155089285Y-90397857D01*
X155125000Y-90326428D01*
X155196428Y-90255000D01*
X155303571Y-90219285D01*
X155375000Y-90219285D01*
X155482142Y-90255000D01*
X155517857Y-90290714D01*
X156160714Y-90219285D02*
X156017857Y-90219285D01*
X155946428Y-90255000D01*
X155910714Y-90290714D01*
X155839285Y-90397857D01*
X155803571Y-90540714D01*
X155803571Y-90826428D01*
X155839285Y-90897857D01*
X155875000Y-90933571D01*
X155946428Y-90969285D01*
X156089285Y-90969285D01*
X156160714Y-90933571D01*
X156196428Y-90897857D01*
X156232142Y-90826428D01*
X156232142Y-90647857D01*
X156196428Y-90576428D01*
X156160714Y-90540714D01*
X156089285Y-90505000D01*
X155946428Y-90505000D01*
X155875000Y-90540714D01*
X155839285Y-90576428D01*
X155803571Y-90647857D01*
X156875000Y-90219285D02*
X156732142Y-90219285D01*
X156660714Y-90255000D01*
X156625000Y-90290714D01*
X156553571Y-90397857D01*
X156517857Y-90540714D01*
X156517857Y-90826428D01*
X156553571Y-90897857D01*
X156589285Y-90933571D01*
X156660714Y-90969285D01*
X156803571Y-90969285D01*
X156875000Y-90933571D01*
X156910714Y-90897857D01*
X156946428Y-90826428D01*
X156946428Y-90647857D01*
X156910714Y-90576428D01*
X156875000Y-90540714D01*
X156803571Y-90505000D01*
X156660714Y-90505000D01*
X156589285Y-90540714D01*
X156553571Y-90576428D01*
X156517857Y-90647857D01*
G04 #@! TO.C,C65*
X134817857Y-71967857D02*
X134782142Y-72003571D01*
X134675000Y-72039285D01*
X134603571Y-72039285D01*
X134496428Y-72003571D01*
X134425000Y-71932142D01*
X134389285Y-71860714D01*
X134353571Y-71717857D01*
X134353571Y-71610714D01*
X134389285Y-71467857D01*
X134425000Y-71396428D01*
X134496428Y-71325000D01*
X134603571Y-71289285D01*
X134675000Y-71289285D01*
X134782142Y-71325000D01*
X134817857Y-71360714D01*
X135460714Y-71289285D02*
X135317857Y-71289285D01*
X135246428Y-71325000D01*
X135210714Y-71360714D01*
X135139285Y-71467857D01*
X135103571Y-71610714D01*
X135103571Y-71896428D01*
X135139285Y-71967857D01*
X135175000Y-72003571D01*
X135246428Y-72039285D01*
X135389285Y-72039285D01*
X135460714Y-72003571D01*
X135496428Y-71967857D01*
X135532142Y-71896428D01*
X135532142Y-71717857D01*
X135496428Y-71646428D01*
X135460714Y-71610714D01*
X135389285Y-71575000D01*
X135246428Y-71575000D01*
X135175000Y-71610714D01*
X135139285Y-71646428D01*
X135103571Y-71717857D01*
X136210714Y-71289285D02*
X135853571Y-71289285D01*
X135817857Y-71646428D01*
X135853571Y-71610714D01*
X135925000Y-71575000D01*
X136103571Y-71575000D01*
X136175000Y-71610714D01*
X136210714Y-71646428D01*
X136246428Y-71717857D01*
X136246428Y-71896428D01*
X136210714Y-71967857D01*
X136175000Y-72003571D01*
X136103571Y-72039285D01*
X135925000Y-72039285D01*
X135853571Y-72003571D01*
X135817857Y-71967857D01*
G04 #@! TO.C,C74*
X118917857Y-76967857D02*
X118882142Y-77003571D01*
X118775000Y-77039285D01*
X118703571Y-77039285D01*
X118596428Y-77003571D01*
X118525000Y-76932142D01*
X118489285Y-76860714D01*
X118453571Y-76717857D01*
X118453571Y-76610714D01*
X118489285Y-76467857D01*
X118525000Y-76396428D01*
X118596428Y-76325000D01*
X118703571Y-76289285D01*
X118775000Y-76289285D01*
X118882142Y-76325000D01*
X118917857Y-76360714D01*
X119167857Y-76289285D02*
X119667857Y-76289285D01*
X119346428Y-77039285D01*
X120275000Y-76539285D02*
X120275000Y-77039285D01*
X120096428Y-76253571D02*
X119917857Y-76789285D01*
X120382142Y-76789285D01*
G04 #@! TO.C,C73*
X118917857Y-78467857D02*
X118882142Y-78503571D01*
X118775000Y-78539285D01*
X118703571Y-78539285D01*
X118596428Y-78503571D01*
X118525000Y-78432142D01*
X118489285Y-78360714D01*
X118453571Y-78217857D01*
X118453571Y-78110714D01*
X118489285Y-77967857D01*
X118525000Y-77896428D01*
X118596428Y-77825000D01*
X118703571Y-77789285D01*
X118775000Y-77789285D01*
X118882142Y-77825000D01*
X118917857Y-77860714D01*
X119167857Y-77789285D02*
X119667857Y-77789285D01*
X119346428Y-78539285D01*
X119882142Y-77789285D02*
X120346428Y-77789285D01*
X120096428Y-78075000D01*
X120203571Y-78075000D01*
X120275000Y-78110714D01*
X120310714Y-78146428D01*
X120346428Y-78217857D01*
X120346428Y-78396428D01*
X120310714Y-78467857D01*
X120275000Y-78503571D01*
X120203571Y-78539285D01*
X119989285Y-78539285D01*
X119917857Y-78503571D01*
X119882142Y-78467857D01*
G04 #@! TO.C,C20*
X101617857Y-95267857D02*
X101582142Y-95303571D01*
X101475000Y-95339285D01*
X101403571Y-95339285D01*
X101296428Y-95303571D01*
X101225000Y-95232142D01*
X101189285Y-95160714D01*
X101153571Y-95017857D01*
X101153571Y-94910714D01*
X101189285Y-94767857D01*
X101225000Y-94696428D01*
X101296428Y-94625000D01*
X101403571Y-94589285D01*
X101475000Y-94589285D01*
X101582142Y-94625000D01*
X101617857Y-94660714D01*
X101903571Y-94660714D02*
X101939285Y-94625000D01*
X102010714Y-94589285D01*
X102189285Y-94589285D01*
X102260714Y-94625000D01*
X102296428Y-94660714D01*
X102332142Y-94732142D01*
X102332142Y-94803571D01*
X102296428Y-94910714D01*
X101867857Y-95339285D01*
X102332142Y-95339285D01*
X102796428Y-94589285D02*
X102867857Y-94589285D01*
X102939285Y-94625000D01*
X102975000Y-94660714D01*
X103010714Y-94732142D01*
X103046428Y-94875000D01*
X103046428Y-95053571D01*
X103010714Y-95196428D01*
X102975000Y-95267857D01*
X102939285Y-95303571D01*
X102867857Y-95339285D01*
X102796428Y-95339285D01*
X102725000Y-95303571D01*
X102689285Y-95267857D01*
X102653571Y-95196428D01*
X102617857Y-95053571D01*
X102617857Y-94875000D01*
X102653571Y-94732142D01*
X102689285Y-94660714D01*
X102725000Y-94625000D01*
X102796428Y-94589285D01*
G04 #@! TO.C,C18*
X98017857Y-98367857D02*
X97982142Y-98403571D01*
X97875000Y-98439285D01*
X97803571Y-98439285D01*
X97696428Y-98403571D01*
X97625000Y-98332142D01*
X97589285Y-98260714D01*
X97553571Y-98117857D01*
X97553571Y-98010714D01*
X97589285Y-97867857D01*
X97625000Y-97796428D01*
X97696428Y-97725000D01*
X97803571Y-97689285D01*
X97875000Y-97689285D01*
X97982142Y-97725000D01*
X98017857Y-97760714D01*
X98732142Y-98439285D02*
X98303571Y-98439285D01*
X98517857Y-98439285D02*
X98517857Y-97689285D01*
X98446428Y-97796428D01*
X98375000Y-97867857D01*
X98303571Y-97903571D01*
X99160714Y-98010714D02*
X99089285Y-97975000D01*
X99053571Y-97939285D01*
X99017857Y-97867857D01*
X99017857Y-97832142D01*
X99053571Y-97760714D01*
X99089285Y-97725000D01*
X99160714Y-97689285D01*
X99303571Y-97689285D01*
X99375000Y-97725000D01*
X99410714Y-97760714D01*
X99446428Y-97832142D01*
X99446428Y-97867857D01*
X99410714Y-97939285D01*
X99375000Y-97975000D01*
X99303571Y-98010714D01*
X99160714Y-98010714D01*
X99089285Y-98046428D01*
X99053571Y-98082142D01*
X99017857Y-98153571D01*
X99017857Y-98296428D01*
X99053571Y-98367857D01*
X99089285Y-98403571D01*
X99160714Y-98439285D01*
X99303571Y-98439285D01*
X99375000Y-98403571D01*
X99410714Y-98367857D01*
X99446428Y-98296428D01*
X99446428Y-98153571D01*
X99410714Y-98082142D01*
X99375000Y-98046428D01*
X99303571Y-98010714D01*
G04 #@! TO.C,C17*
X112617857Y-88567857D02*
X112582142Y-88603571D01*
X112475000Y-88639285D01*
X112403571Y-88639285D01*
X112296428Y-88603571D01*
X112225000Y-88532142D01*
X112189285Y-88460714D01*
X112153571Y-88317857D01*
X112153571Y-88210714D01*
X112189285Y-88067857D01*
X112225000Y-87996428D01*
X112296428Y-87925000D01*
X112403571Y-87889285D01*
X112475000Y-87889285D01*
X112582142Y-87925000D01*
X112617857Y-87960714D01*
X113332142Y-88639285D02*
X112903571Y-88639285D01*
X113117857Y-88639285D02*
X113117857Y-87889285D01*
X113046428Y-87996428D01*
X112975000Y-88067857D01*
X112903571Y-88103571D01*
X113582142Y-87889285D02*
X114082142Y-87889285D01*
X113760714Y-88639285D01*
G04 #@! TO.C,C16*
X74278571Y-83178571D02*
X74254761Y-83202380D01*
X74183333Y-83226190D01*
X74135714Y-83226190D01*
X74064285Y-83202380D01*
X74016666Y-83154761D01*
X73992857Y-83107142D01*
X73969047Y-83011904D01*
X73969047Y-82940476D01*
X73992857Y-82845238D01*
X74016666Y-82797619D01*
X74064285Y-82750000D01*
X74135714Y-82726190D01*
X74183333Y-82726190D01*
X74254761Y-82750000D01*
X74278571Y-82773809D01*
X74754761Y-83226190D02*
X74469047Y-83226190D01*
X74611904Y-83226190D02*
X74611904Y-82726190D01*
X74564285Y-82797619D01*
X74516666Y-82845238D01*
X74469047Y-82869047D01*
X75183333Y-82726190D02*
X75088095Y-82726190D01*
X75040476Y-82750000D01*
X75016666Y-82773809D01*
X74969047Y-82845238D01*
X74945238Y-82940476D01*
X74945238Y-83130952D01*
X74969047Y-83178571D01*
X74992857Y-83202380D01*
X75040476Y-83226190D01*
X75135714Y-83226190D01*
X75183333Y-83202380D01*
X75207142Y-83178571D01*
X75230952Y-83130952D01*
X75230952Y-83011904D01*
X75207142Y-82964285D01*
X75183333Y-82940476D01*
X75135714Y-82916666D01*
X75040476Y-82916666D01*
X74992857Y-82940476D01*
X74969047Y-82964285D01*
X74945238Y-83011904D01*
G04 #@! TO.C,C15*
X81017857Y-95567857D02*
X80982142Y-95603571D01*
X80875000Y-95639285D01*
X80803571Y-95639285D01*
X80696428Y-95603571D01*
X80625000Y-95532142D01*
X80589285Y-95460714D01*
X80553571Y-95317857D01*
X80553571Y-95210714D01*
X80589285Y-95067857D01*
X80625000Y-94996428D01*
X80696428Y-94925000D01*
X80803571Y-94889285D01*
X80875000Y-94889285D01*
X80982142Y-94925000D01*
X81017857Y-94960714D01*
X81732142Y-95639285D02*
X81303571Y-95639285D01*
X81517857Y-95639285D02*
X81517857Y-94889285D01*
X81446428Y-94996428D01*
X81375000Y-95067857D01*
X81303571Y-95103571D01*
X82410714Y-94889285D02*
X82053571Y-94889285D01*
X82017857Y-95246428D01*
X82053571Y-95210714D01*
X82125000Y-95175000D01*
X82303571Y-95175000D01*
X82375000Y-95210714D01*
X82410714Y-95246428D01*
X82446428Y-95317857D01*
X82446428Y-95496428D01*
X82410714Y-95567857D01*
X82375000Y-95603571D01*
X82303571Y-95639285D01*
X82125000Y-95639285D01*
X82053571Y-95603571D01*
X82017857Y-95567857D01*
G04 #@! TO.C,C14*
X74278571Y-84578571D02*
X74254761Y-84602380D01*
X74183333Y-84626190D01*
X74135714Y-84626190D01*
X74064285Y-84602380D01*
X74016666Y-84554761D01*
X73992857Y-84507142D01*
X73969047Y-84411904D01*
X73969047Y-84340476D01*
X73992857Y-84245238D01*
X74016666Y-84197619D01*
X74064285Y-84150000D01*
X74135714Y-84126190D01*
X74183333Y-84126190D01*
X74254761Y-84150000D01*
X74278571Y-84173809D01*
X74754761Y-84626190D02*
X74469047Y-84626190D01*
X74611904Y-84626190D02*
X74611904Y-84126190D01*
X74564285Y-84197619D01*
X74516666Y-84245238D01*
X74469047Y-84269047D01*
X75183333Y-84292857D02*
X75183333Y-84626190D01*
X75064285Y-84102380D02*
X74945238Y-84459523D01*
X75254761Y-84459523D01*
G04 #@! TO.C,C13*
X79517857Y-92567857D02*
X79482142Y-92603571D01*
X79375000Y-92639285D01*
X79303571Y-92639285D01*
X79196428Y-92603571D01*
X79125000Y-92532142D01*
X79089285Y-92460714D01*
X79053571Y-92317857D01*
X79053571Y-92210714D01*
X79089285Y-92067857D01*
X79125000Y-91996428D01*
X79196428Y-91925000D01*
X79303571Y-91889285D01*
X79375000Y-91889285D01*
X79482142Y-91925000D01*
X79517857Y-91960714D01*
X80232142Y-92639285D02*
X79803571Y-92639285D01*
X80017857Y-92639285D02*
X80017857Y-91889285D01*
X79946428Y-91996428D01*
X79875000Y-92067857D01*
X79803571Y-92103571D01*
X80482142Y-91889285D02*
X80946428Y-91889285D01*
X80696428Y-92175000D01*
X80803571Y-92175000D01*
X80875000Y-92210714D01*
X80910714Y-92246428D01*
X80946428Y-92317857D01*
X80946428Y-92496428D01*
X80910714Y-92567857D01*
X80875000Y-92603571D01*
X80803571Y-92639285D01*
X80589285Y-92639285D01*
X80517857Y-92603571D01*
X80482142Y-92567857D01*
G04 #@! TO.C,C43*
X74278571Y-78478571D02*
X74254761Y-78502380D01*
X74183333Y-78526190D01*
X74135714Y-78526190D01*
X74064285Y-78502380D01*
X74016666Y-78454761D01*
X73992857Y-78407142D01*
X73969047Y-78311904D01*
X73969047Y-78240476D01*
X73992857Y-78145238D01*
X74016666Y-78097619D01*
X74064285Y-78050000D01*
X74135714Y-78026190D01*
X74183333Y-78026190D01*
X74254761Y-78050000D01*
X74278571Y-78073809D01*
X74707142Y-78192857D02*
X74707142Y-78526190D01*
X74588095Y-78002380D02*
X74469047Y-78359523D01*
X74778571Y-78359523D01*
X74921428Y-78026190D02*
X75230952Y-78026190D01*
X75064285Y-78216666D01*
X75135714Y-78216666D01*
X75183333Y-78240476D01*
X75207142Y-78264285D01*
X75230952Y-78311904D01*
X75230952Y-78430952D01*
X75207142Y-78478571D01*
X75183333Y-78502380D01*
X75135714Y-78526190D01*
X74992857Y-78526190D01*
X74945238Y-78502380D01*
X74921428Y-78478571D01*
G04 #@! TO.C,C11*
X74278571Y-75778571D02*
X74254761Y-75802380D01*
X74183333Y-75826190D01*
X74135714Y-75826190D01*
X74064285Y-75802380D01*
X74016666Y-75754761D01*
X73992857Y-75707142D01*
X73969047Y-75611904D01*
X73969047Y-75540476D01*
X73992857Y-75445238D01*
X74016666Y-75397619D01*
X74064285Y-75350000D01*
X74135714Y-75326190D01*
X74183333Y-75326190D01*
X74254761Y-75350000D01*
X74278571Y-75373809D01*
X74754761Y-75826190D02*
X74469047Y-75826190D01*
X74611904Y-75826190D02*
X74611904Y-75326190D01*
X74564285Y-75397619D01*
X74516666Y-75445238D01*
X74469047Y-75469047D01*
X75230952Y-75826190D02*
X74945238Y-75826190D01*
X75088095Y-75826190D02*
X75088095Y-75326190D01*
X75040476Y-75397619D01*
X74992857Y-75445238D01*
X74945238Y-75469047D01*
G04 #@! TO.C,C10*
X79117857Y-102467857D02*
X79082142Y-102503571D01*
X78975000Y-102539285D01*
X78903571Y-102539285D01*
X78796428Y-102503571D01*
X78725000Y-102432142D01*
X78689285Y-102360714D01*
X78653571Y-102217857D01*
X78653571Y-102110714D01*
X78689285Y-101967857D01*
X78725000Y-101896428D01*
X78796428Y-101825000D01*
X78903571Y-101789285D01*
X78975000Y-101789285D01*
X79082142Y-101825000D01*
X79117857Y-101860714D01*
X79832142Y-102539285D02*
X79403571Y-102539285D01*
X79617857Y-102539285D02*
X79617857Y-101789285D01*
X79546428Y-101896428D01*
X79475000Y-101967857D01*
X79403571Y-102003571D01*
X80296428Y-101789285D02*
X80367857Y-101789285D01*
X80439285Y-101825000D01*
X80475000Y-101860714D01*
X80510714Y-101932142D01*
X80546428Y-102075000D01*
X80546428Y-102253571D01*
X80510714Y-102396428D01*
X80475000Y-102467857D01*
X80439285Y-102503571D01*
X80367857Y-102539285D01*
X80296428Y-102539285D01*
X80225000Y-102503571D01*
X80189285Y-102467857D01*
X80153571Y-102396428D01*
X80117857Y-102253571D01*
X80117857Y-102075000D01*
X80153571Y-101932142D01*
X80189285Y-101860714D01*
X80225000Y-101825000D01*
X80296428Y-101789285D01*
G04 #@! TO.C,C42*
X118217857Y-73017857D02*
X118182142Y-73053571D01*
X118075000Y-73089285D01*
X118003571Y-73089285D01*
X117896428Y-73053571D01*
X117825000Y-72982142D01*
X117789285Y-72910714D01*
X117753571Y-72767857D01*
X117753571Y-72660714D01*
X117789285Y-72517857D01*
X117825000Y-72446428D01*
X117896428Y-72375000D01*
X118003571Y-72339285D01*
X118075000Y-72339285D01*
X118182142Y-72375000D01*
X118217857Y-72410714D01*
X118860714Y-72589285D02*
X118860714Y-73089285D01*
X118682142Y-72303571D02*
X118503571Y-72839285D01*
X118967857Y-72839285D01*
X119217857Y-72410714D02*
X119253571Y-72375000D01*
X119325000Y-72339285D01*
X119503571Y-72339285D01*
X119575000Y-72375000D01*
X119610714Y-72410714D01*
X119646428Y-72482142D01*
X119646428Y-72553571D01*
X119610714Y-72660714D01*
X119182142Y-73089285D01*
X119646428Y-73089285D01*
G04 #@! TO.C,C8*
X134175000Y-107067857D02*
X134139285Y-107103571D01*
X134032142Y-107139285D01*
X133960714Y-107139285D01*
X133853571Y-107103571D01*
X133782142Y-107032142D01*
X133746428Y-106960714D01*
X133710714Y-106817857D01*
X133710714Y-106710714D01*
X133746428Y-106567857D01*
X133782142Y-106496428D01*
X133853571Y-106425000D01*
X133960714Y-106389285D01*
X134032142Y-106389285D01*
X134139285Y-106425000D01*
X134175000Y-106460714D01*
X134603571Y-106710714D02*
X134532142Y-106675000D01*
X134496428Y-106639285D01*
X134460714Y-106567857D01*
X134460714Y-106532142D01*
X134496428Y-106460714D01*
X134532142Y-106425000D01*
X134603571Y-106389285D01*
X134746428Y-106389285D01*
X134817857Y-106425000D01*
X134853571Y-106460714D01*
X134889285Y-106532142D01*
X134889285Y-106567857D01*
X134853571Y-106639285D01*
X134817857Y-106675000D01*
X134746428Y-106710714D01*
X134603571Y-106710714D01*
X134532142Y-106746428D01*
X134496428Y-106782142D01*
X134460714Y-106853571D01*
X134460714Y-106996428D01*
X134496428Y-107067857D01*
X134532142Y-107103571D01*
X134603571Y-107139285D01*
X134746428Y-107139285D01*
X134817857Y-107103571D01*
X134853571Y-107067857D01*
X134889285Y-106996428D01*
X134889285Y-106853571D01*
X134853571Y-106782142D01*
X134817857Y-106746428D01*
X134746428Y-106710714D01*
G04 #@! TO.C,C7*
X140675000Y-106867857D02*
X140639285Y-106903571D01*
X140532142Y-106939285D01*
X140460714Y-106939285D01*
X140353571Y-106903571D01*
X140282142Y-106832142D01*
X140246428Y-106760714D01*
X140210714Y-106617857D01*
X140210714Y-106510714D01*
X140246428Y-106367857D01*
X140282142Y-106296428D01*
X140353571Y-106225000D01*
X140460714Y-106189285D01*
X140532142Y-106189285D01*
X140639285Y-106225000D01*
X140675000Y-106260714D01*
X140925000Y-106189285D02*
X141425000Y-106189285D01*
X141103571Y-106939285D01*
G04 #@! TO.C,C6*
X126075000Y-104797857D02*
X126039285Y-104833571D01*
X125932142Y-104869285D01*
X125860714Y-104869285D01*
X125753571Y-104833571D01*
X125682142Y-104762142D01*
X125646428Y-104690714D01*
X125610714Y-104547857D01*
X125610714Y-104440714D01*
X125646428Y-104297857D01*
X125682142Y-104226428D01*
X125753571Y-104155000D01*
X125860714Y-104119285D01*
X125932142Y-104119285D01*
X126039285Y-104155000D01*
X126075000Y-104190714D01*
X126717857Y-104119285D02*
X126575000Y-104119285D01*
X126503571Y-104155000D01*
X126467857Y-104190714D01*
X126396428Y-104297857D01*
X126360714Y-104440714D01*
X126360714Y-104726428D01*
X126396428Y-104797857D01*
X126432142Y-104833571D01*
X126503571Y-104869285D01*
X126646428Y-104869285D01*
X126717857Y-104833571D01*
X126753571Y-104797857D01*
X126789285Y-104726428D01*
X126789285Y-104547857D01*
X126753571Y-104476428D01*
X126717857Y-104440714D01*
X126646428Y-104405000D01*
X126503571Y-104405000D01*
X126432142Y-104440714D01*
X126396428Y-104476428D01*
X126360714Y-104547857D01*
G04 #@! TO.C,C5*
X100475000Y-77517857D02*
X100439285Y-77553571D01*
X100332142Y-77589285D01*
X100260714Y-77589285D01*
X100153571Y-77553571D01*
X100082142Y-77482142D01*
X100046428Y-77410714D01*
X100010714Y-77267857D01*
X100010714Y-77160714D01*
X100046428Y-77017857D01*
X100082142Y-76946428D01*
X100153571Y-76875000D01*
X100260714Y-76839285D01*
X100332142Y-76839285D01*
X100439285Y-76875000D01*
X100475000Y-76910714D01*
X101153571Y-76839285D02*
X100796428Y-76839285D01*
X100760714Y-77196428D01*
X100796428Y-77160714D01*
X100867857Y-77125000D01*
X101046428Y-77125000D01*
X101117857Y-77160714D01*
X101153571Y-77196428D01*
X101189285Y-77267857D01*
X101189285Y-77446428D01*
X101153571Y-77517857D01*
X101117857Y-77553571D01*
X101046428Y-77589285D01*
X100867857Y-77589285D01*
X100796428Y-77553571D01*
X100760714Y-77517857D01*
G04 #@! TO.C,C4*
X116975000Y-100097857D02*
X116939285Y-100133571D01*
X116832142Y-100169285D01*
X116760714Y-100169285D01*
X116653571Y-100133571D01*
X116582142Y-100062142D01*
X116546428Y-99990714D01*
X116510714Y-99847857D01*
X116510714Y-99740714D01*
X116546428Y-99597857D01*
X116582142Y-99526428D01*
X116653571Y-99455000D01*
X116760714Y-99419285D01*
X116832142Y-99419285D01*
X116939285Y-99455000D01*
X116975000Y-99490714D01*
X117617857Y-99669285D02*
X117617857Y-100169285D01*
X117439285Y-99383571D02*
X117260714Y-99919285D01*
X117725000Y-99919285D01*
G04 #@! TO.C,C3*
X121575000Y-102467857D02*
X121539285Y-102503571D01*
X121432142Y-102539285D01*
X121360714Y-102539285D01*
X121253571Y-102503571D01*
X121182142Y-102432142D01*
X121146428Y-102360714D01*
X121110714Y-102217857D01*
X121110714Y-102110714D01*
X121146428Y-101967857D01*
X121182142Y-101896428D01*
X121253571Y-101825000D01*
X121360714Y-101789285D01*
X121432142Y-101789285D01*
X121539285Y-101825000D01*
X121575000Y-101860714D01*
X121825000Y-101789285D02*
X122289285Y-101789285D01*
X122039285Y-102075000D01*
X122146428Y-102075000D01*
X122217857Y-102110714D01*
X122253571Y-102146428D01*
X122289285Y-102217857D01*
X122289285Y-102396428D01*
X122253571Y-102467857D01*
X122217857Y-102503571D01*
X122146428Y-102539285D01*
X121932142Y-102539285D01*
X121860714Y-102503571D01*
X121825000Y-102467857D01*
G04 #@! TO.C,C2*
X78975000Y-97267857D02*
X78939285Y-97303571D01*
X78832142Y-97339285D01*
X78760714Y-97339285D01*
X78653571Y-97303571D01*
X78582142Y-97232142D01*
X78546428Y-97160714D01*
X78510714Y-97017857D01*
X78510714Y-96910714D01*
X78546428Y-96767857D01*
X78582142Y-96696428D01*
X78653571Y-96625000D01*
X78760714Y-96589285D01*
X78832142Y-96589285D01*
X78939285Y-96625000D01*
X78975000Y-96660714D01*
X79260714Y-96660714D02*
X79296428Y-96625000D01*
X79367857Y-96589285D01*
X79546428Y-96589285D01*
X79617857Y-96625000D01*
X79653571Y-96660714D01*
X79689285Y-96732142D01*
X79689285Y-96803571D01*
X79653571Y-96910714D01*
X79225000Y-97339285D01*
X79689285Y-97339285D01*
G04 #@! TO.C,C12*
X90617857Y-82097857D02*
X90582142Y-82133571D01*
X90475000Y-82169285D01*
X90403571Y-82169285D01*
X90296428Y-82133571D01*
X90225000Y-82062142D01*
X90189285Y-81990714D01*
X90153571Y-81847857D01*
X90153571Y-81740714D01*
X90189285Y-81597857D01*
X90225000Y-81526428D01*
X90296428Y-81455000D01*
X90403571Y-81419285D01*
X90475000Y-81419285D01*
X90582142Y-81455000D01*
X90617857Y-81490714D01*
X91332142Y-82169285D02*
X90903571Y-82169285D01*
X91117857Y-82169285D02*
X91117857Y-81419285D01*
X91046428Y-81526428D01*
X90975000Y-81597857D01*
X90903571Y-81633571D01*
X91617857Y-81490714D02*
X91653571Y-81455000D01*
X91725000Y-81419285D01*
X91903571Y-81419285D01*
X91975000Y-81455000D01*
X92010714Y-81490714D01*
X92046428Y-81562142D01*
X92046428Y-81633571D01*
X92010714Y-81740714D01*
X91582142Y-82169285D01*
X92046428Y-82169285D01*
G04 #@! TO.C,C41*
X116317857Y-77667857D02*
X116282142Y-77703571D01*
X116175000Y-77739285D01*
X116103571Y-77739285D01*
X115996428Y-77703571D01*
X115925000Y-77632142D01*
X115889285Y-77560714D01*
X115853571Y-77417857D01*
X115853571Y-77310714D01*
X115889285Y-77167857D01*
X115925000Y-77096428D01*
X115996428Y-77025000D01*
X116103571Y-76989285D01*
X116175000Y-76989285D01*
X116282142Y-77025000D01*
X116317857Y-77060714D01*
X116960714Y-77239285D02*
X116960714Y-77739285D01*
X116782142Y-76953571D02*
X116603571Y-77489285D01*
X117067857Y-77489285D01*
X117746428Y-77739285D02*
X117317857Y-77739285D01*
X117532142Y-77739285D02*
X117532142Y-76989285D01*
X117460714Y-77096428D01*
X117389285Y-77167857D01*
X117317857Y-77203571D01*
G04 #@! TO.C,C9*
X91975000Y-102467857D02*
X91939285Y-102503571D01*
X91832142Y-102539285D01*
X91760714Y-102539285D01*
X91653571Y-102503571D01*
X91582142Y-102432142D01*
X91546428Y-102360714D01*
X91510714Y-102217857D01*
X91510714Y-102110714D01*
X91546428Y-101967857D01*
X91582142Y-101896428D01*
X91653571Y-101825000D01*
X91760714Y-101789285D01*
X91832142Y-101789285D01*
X91939285Y-101825000D01*
X91975000Y-101860714D01*
X92332142Y-102539285D02*
X92475000Y-102539285D01*
X92546428Y-102503571D01*
X92582142Y-102467857D01*
X92653571Y-102360714D01*
X92689285Y-102217857D01*
X92689285Y-101932142D01*
X92653571Y-101860714D01*
X92617857Y-101825000D01*
X92546428Y-101789285D01*
X92403571Y-101789285D01*
X92332142Y-101825000D01*
X92296428Y-101860714D01*
X92260714Y-101932142D01*
X92260714Y-102110714D01*
X92296428Y-102182142D01*
X92332142Y-102217857D01*
X92403571Y-102253571D01*
X92546428Y-102253571D01*
X92617857Y-102217857D01*
X92653571Y-102182142D01*
X92689285Y-102110714D01*
G04 #@! TO.C,C40*
X116302857Y-68447857D02*
X116267142Y-68483571D01*
X116160000Y-68519285D01*
X116088571Y-68519285D01*
X115981428Y-68483571D01*
X115910000Y-68412142D01*
X115874285Y-68340714D01*
X115838571Y-68197857D01*
X115838571Y-68090714D01*
X115874285Y-67947857D01*
X115910000Y-67876428D01*
X115981428Y-67805000D01*
X116088571Y-67769285D01*
X116160000Y-67769285D01*
X116267142Y-67805000D01*
X116302857Y-67840714D01*
X116945714Y-68019285D02*
X116945714Y-68519285D01*
X116767142Y-67733571D02*
X116588571Y-68269285D01*
X117052857Y-68269285D01*
X117481428Y-67769285D02*
X117552857Y-67769285D01*
X117624285Y-67805000D01*
X117660000Y-67840714D01*
X117695714Y-67912142D01*
X117731428Y-68055000D01*
X117731428Y-68233571D01*
X117695714Y-68376428D01*
X117660000Y-68447857D01*
X117624285Y-68483571D01*
X117552857Y-68519285D01*
X117481428Y-68519285D01*
X117410000Y-68483571D01*
X117374285Y-68447857D01*
X117338571Y-68376428D01*
X117302857Y-68233571D01*
X117302857Y-68055000D01*
X117338571Y-67912142D01*
X117374285Y-67840714D01*
X117410000Y-67805000D01*
X117481428Y-67769285D01*
G04 #@! TO.C,C39*
X116478571Y-73071428D02*
X116502380Y-73095238D01*
X116526190Y-73166666D01*
X116526190Y-73214285D01*
X116502380Y-73285714D01*
X116454761Y-73333333D01*
X116407142Y-73357142D01*
X116311904Y-73380952D01*
X116240476Y-73380952D01*
X116145238Y-73357142D01*
X116097619Y-73333333D01*
X116050000Y-73285714D01*
X116026190Y-73214285D01*
X116026190Y-73166666D01*
X116050000Y-73095238D01*
X116073809Y-73071428D01*
X116026190Y-72904761D02*
X116026190Y-72595238D01*
X116216666Y-72761904D01*
X116216666Y-72690476D01*
X116240476Y-72642857D01*
X116264285Y-72619047D01*
X116311904Y-72595238D01*
X116430952Y-72595238D01*
X116478571Y-72619047D01*
X116502380Y-72642857D01*
X116526190Y-72690476D01*
X116526190Y-72833333D01*
X116502380Y-72880952D01*
X116478571Y-72904761D01*
X116526190Y-72357142D02*
X116526190Y-72261904D01*
X116502380Y-72214285D01*
X116478571Y-72190476D01*
X116407142Y-72142857D01*
X116311904Y-72119047D01*
X116121428Y-72119047D01*
X116073809Y-72142857D01*
X116050000Y-72166666D01*
X116026190Y-72214285D01*
X116026190Y-72309523D01*
X116050000Y-72357142D01*
X116073809Y-72380952D01*
X116121428Y-72404761D01*
X116240476Y-72404761D01*
X116288095Y-72380952D01*
X116311904Y-72357142D01*
X116335714Y-72309523D01*
X116335714Y-72214285D01*
X116311904Y-72166666D01*
X116288095Y-72142857D01*
X116240476Y-72119047D01*
G04 #@! TO.C,C38*
X113817857Y-77567857D02*
X113782142Y-77603571D01*
X113675000Y-77639285D01*
X113603571Y-77639285D01*
X113496428Y-77603571D01*
X113425000Y-77532142D01*
X113389285Y-77460714D01*
X113353571Y-77317857D01*
X113353571Y-77210714D01*
X113389285Y-77067857D01*
X113425000Y-76996428D01*
X113496428Y-76925000D01*
X113603571Y-76889285D01*
X113675000Y-76889285D01*
X113782142Y-76925000D01*
X113817857Y-76960714D01*
X114067857Y-76889285D02*
X114532142Y-76889285D01*
X114282142Y-77175000D01*
X114389285Y-77175000D01*
X114460714Y-77210714D01*
X114496428Y-77246428D01*
X114532142Y-77317857D01*
X114532142Y-77496428D01*
X114496428Y-77567857D01*
X114460714Y-77603571D01*
X114389285Y-77639285D01*
X114175000Y-77639285D01*
X114103571Y-77603571D01*
X114067857Y-77567857D01*
X114960714Y-77210714D02*
X114889285Y-77175000D01*
X114853571Y-77139285D01*
X114817857Y-77067857D01*
X114817857Y-77032142D01*
X114853571Y-76960714D01*
X114889285Y-76925000D01*
X114960714Y-76889285D01*
X115103571Y-76889285D01*
X115175000Y-76925000D01*
X115210714Y-76960714D01*
X115246428Y-77032142D01*
X115246428Y-77067857D01*
X115210714Y-77139285D01*
X115175000Y-77175000D01*
X115103571Y-77210714D01*
X114960714Y-77210714D01*
X114889285Y-77246428D01*
X114853571Y-77282142D01*
X114817857Y-77353571D01*
X114817857Y-77496428D01*
X114853571Y-77567857D01*
X114889285Y-77603571D01*
X114960714Y-77639285D01*
X115103571Y-77639285D01*
X115175000Y-77603571D01*
X115210714Y-77567857D01*
X115246428Y-77496428D01*
X115246428Y-77353571D01*
X115210714Y-77282142D01*
X115175000Y-77246428D01*
X115103571Y-77210714D01*
G04 #@! TO.C,C37*
X113867857Y-68447857D02*
X113832142Y-68483571D01*
X113725000Y-68519285D01*
X113653571Y-68519285D01*
X113546428Y-68483571D01*
X113475000Y-68412142D01*
X113439285Y-68340714D01*
X113403571Y-68197857D01*
X113403571Y-68090714D01*
X113439285Y-67947857D01*
X113475000Y-67876428D01*
X113546428Y-67805000D01*
X113653571Y-67769285D01*
X113725000Y-67769285D01*
X113832142Y-67805000D01*
X113867857Y-67840714D01*
X114117857Y-67769285D02*
X114582142Y-67769285D01*
X114332142Y-68055000D01*
X114439285Y-68055000D01*
X114510714Y-68090714D01*
X114546428Y-68126428D01*
X114582142Y-68197857D01*
X114582142Y-68376428D01*
X114546428Y-68447857D01*
X114510714Y-68483571D01*
X114439285Y-68519285D01*
X114225000Y-68519285D01*
X114153571Y-68483571D01*
X114117857Y-68447857D01*
X114832142Y-67769285D02*
X115332142Y-67769285D01*
X115010714Y-68519285D01*
G04 #@! TO.C,C36*
X114878571Y-73071428D02*
X114902380Y-73095238D01*
X114926190Y-73166666D01*
X114926190Y-73214285D01*
X114902380Y-73285714D01*
X114854761Y-73333333D01*
X114807142Y-73357142D01*
X114711904Y-73380952D01*
X114640476Y-73380952D01*
X114545238Y-73357142D01*
X114497619Y-73333333D01*
X114450000Y-73285714D01*
X114426190Y-73214285D01*
X114426190Y-73166666D01*
X114450000Y-73095238D01*
X114473809Y-73071428D01*
X114426190Y-72904761D02*
X114426190Y-72595238D01*
X114616666Y-72761904D01*
X114616666Y-72690476D01*
X114640476Y-72642857D01*
X114664285Y-72619047D01*
X114711904Y-72595238D01*
X114830952Y-72595238D01*
X114878571Y-72619047D01*
X114902380Y-72642857D01*
X114926190Y-72690476D01*
X114926190Y-72833333D01*
X114902380Y-72880952D01*
X114878571Y-72904761D01*
X114426190Y-72166666D02*
X114426190Y-72261904D01*
X114450000Y-72309523D01*
X114473809Y-72333333D01*
X114545238Y-72380952D01*
X114640476Y-72404761D01*
X114830952Y-72404761D01*
X114878571Y-72380952D01*
X114902380Y-72357142D01*
X114926190Y-72309523D01*
X114926190Y-72214285D01*
X114902380Y-72166666D01*
X114878571Y-72142857D01*
X114830952Y-72119047D01*
X114711904Y-72119047D01*
X114664285Y-72142857D01*
X114640476Y-72166666D01*
X114616666Y-72214285D01*
X114616666Y-72309523D01*
X114640476Y-72357142D01*
X114664285Y-72380952D01*
X114711904Y-72404761D01*
G04 #@! TO.C,C35*
X111417857Y-77567857D02*
X111382142Y-77603571D01*
X111275000Y-77639285D01*
X111203571Y-77639285D01*
X111096428Y-77603571D01*
X111025000Y-77532142D01*
X110989285Y-77460714D01*
X110953571Y-77317857D01*
X110953571Y-77210714D01*
X110989285Y-77067857D01*
X111025000Y-76996428D01*
X111096428Y-76925000D01*
X111203571Y-76889285D01*
X111275000Y-76889285D01*
X111382142Y-76925000D01*
X111417857Y-76960714D01*
X111667857Y-76889285D02*
X112132142Y-76889285D01*
X111882142Y-77175000D01*
X111989285Y-77175000D01*
X112060714Y-77210714D01*
X112096428Y-77246428D01*
X112132142Y-77317857D01*
X112132142Y-77496428D01*
X112096428Y-77567857D01*
X112060714Y-77603571D01*
X111989285Y-77639285D01*
X111775000Y-77639285D01*
X111703571Y-77603571D01*
X111667857Y-77567857D01*
X112810714Y-76889285D02*
X112453571Y-76889285D01*
X112417857Y-77246428D01*
X112453571Y-77210714D01*
X112525000Y-77175000D01*
X112703571Y-77175000D01*
X112775000Y-77210714D01*
X112810714Y-77246428D01*
X112846428Y-77317857D01*
X112846428Y-77496428D01*
X112810714Y-77567857D01*
X112775000Y-77603571D01*
X112703571Y-77639285D01*
X112525000Y-77639285D01*
X112453571Y-77603571D01*
X112417857Y-77567857D01*
G04 #@! TO.C,C34*
X111432857Y-68447857D02*
X111397142Y-68483571D01*
X111290000Y-68519285D01*
X111218571Y-68519285D01*
X111111428Y-68483571D01*
X111040000Y-68412142D01*
X111004285Y-68340714D01*
X110968571Y-68197857D01*
X110968571Y-68090714D01*
X111004285Y-67947857D01*
X111040000Y-67876428D01*
X111111428Y-67805000D01*
X111218571Y-67769285D01*
X111290000Y-67769285D01*
X111397142Y-67805000D01*
X111432857Y-67840714D01*
X111682857Y-67769285D02*
X112147142Y-67769285D01*
X111897142Y-68055000D01*
X112004285Y-68055000D01*
X112075714Y-68090714D01*
X112111428Y-68126428D01*
X112147142Y-68197857D01*
X112147142Y-68376428D01*
X112111428Y-68447857D01*
X112075714Y-68483571D01*
X112004285Y-68519285D01*
X111790000Y-68519285D01*
X111718571Y-68483571D01*
X111682857Y-68447857D01*
X112790000Y-68019285D02*
X112790000Y-68519285D01*
X112611428Y-67733571D02*
X112432857Y-68269285D01*
X112897142Y-68269285D01*
G04 #@! TO.C,C22*
X112517857Y-78667857D02*
X112482142Y-78703571D01*
X112375000Y-78739285D01*
X112303571Y-78739285D01*
X112196428Y-78703571D01*
X112125000Y-78632142D01*
X112089285Y-78560714D01*
X112053571Y-78417857D01*
X112053571Y-78310714D01*
X112089285Y-78167857D01*
X112125000Y-78096428D01*
X112196428Y-78025000D01*
X112303571Y-77989285D01*
X112375000Y-77989285D01*
X112482142Y-78025000D01*
X112517857Y-78060714D01*
X112803571Y-78060714D02*
X112839285Y-78025000D01*
X112910714Y-77989285D01*
X113089285Y-77989285D01*
X113160714Y-78025000D01*
X113196428Y-78060714D01*
X113232142Y-78132142D01*
X113232142Y-78203571D01*
X113196428Y-78310714D01*
X112767857Y-78739285D01*
X113232142Y-78739285D01*
X113517857Y-78060714D02*
X113553571Y-78025000D01*
X113625000Y-77989285D01*
X113803571Y-77989285D01*
X113875000Y-78025000D01*
X113910714Y-78060714D01*
X113946428Y-78132142D01*
X113946428Y-78203571D01*
X113910714Y-78310714D01*
X113482142Y-78739285D01*
X113946428Y-78739285D01*
G04 #@! TO.C,C32*
X108217857Y-77567857D02*
X108182142Y-77603571D01*
X108075000Y-77639285D01*
X108003571Y-77639285D01*
X107896428Y-77603571D01*
X107825000Y-77532142D01*
X107789285Y-77460714D01*
X107753571Y-77317857D01*
X107753571Y-77210714D01*
X107789285Y-77067857D01*
X107825000Y-76996428D01*
X107896428Y-76925000D01*
X108003571Y-76889285D01*
X108075000Y-76889285D01*
X108182142Y-76925000D01*
X108217857Y-76960714D01*
X108467857Y-76889285D02*
X108932142Y-76889285D01*
X108682142Y-77175000D01*
X108789285Y-77175000D01*
X108860714Y-77210714D01*
X108896428Y-77246428D01*
X108932142Y-77317857D01*
X108932142Y-77496428D01*
X108896428Y-77567857D01*
X108860714Y-77603571D01*
X108789285Y-77639285D01*
X108575000Y-77639285D01*
X108503571Y-77603571D01*
X108467857Y-77567857D01*
X109217857Y-76960714D02*
X109253571Y-76925000D01*
X109325000Y-76889285D01*
X109503571Y-76889285D01*
X109575000Y-76925000D01*
X109610714Y-76960714D01*
X109646428Y-77032142D01*
X109646428Y-77103571D01*
X109610714Y-77210714D01*
X109182142Y-77639285D01*
X109646428Y-77639285D01*
G04 #@! TO.C,C31*
X116717857Y-83067857D02*
X116682142Y-83103571D01*
X116575000Y-83139285D01*
X116503571Y-83139285D01*
X116396428Y-83103571D01*
X116325000Y-83032142D01*
X116289285Y-82960714D01*
X116253571Y-82817857D01*
X116253571Y-82710714D01*
X116289285Y-82567857D01*
X116325000Y-82496428D01*
X116396428Y-82425000D01*
X116503571Y-82389285D01*
X116575000Y-82389285D01*
X116682142Y-82425000D01*
X116717857Y-82460714D01*
X116967857Y-82389285D02*
X117432142Y-82389285D01*
X117182142Y-82675000D01*
X117289285Y-82675000D01*
X117360714Y-82710714D01*
X117396428Y-82746428D01*
X117432142Y-82817857D01*
X117432142Y-82996428D01*
X117396428Y-83067857D01*
X117360714Y-83103571D01*
X117289285Y-83139285D01*
X117075000Y-83139285D01*
X117003571Y-83103571D01*
X116967857Y-83067857D01*
X118146428Y-83139285D02*
X117717857Y-83139285D01*
X117932142Y-83139285D02*
X117932142Y-82389285D01*
X117860714Y-82496428D01*
X117789285Y-82567857D01*
X117717857Y-82603571D01*
G04 #@! TO.C,C19*
X111917857Y-98367857D02*
X111882142Y-98403571D01*
X111775000Y-98439285D01*
X111703571Y-98439285D01*
X111596428Y-98403571D01*
X111525000Y-98332142D01*
X111489285Y-98260714D01*
X111453571Y-98117857D01*
X111453571Y-98010714D01*
X111489285Y-97867857D01*
X111525000Y-97796428D01*
X111596428Y-97725000D01*
X111703571Y-97689285D01*
X111775000Y-97689285D01*
X111882142Y-97725000D01*
X111917857Y-97760714D01*
X112632142Y-98439285D02*
X112203571Y-98439285D01*
X112417857Y-98439285D02*
X112417857Y-97689285D01*
X112346428Y-97796428D01*
X112275000Y-97867857D01*
X112203571Y-97903571D01*
X112989285Y-98439285D02*
X113132142Y-98439285D01*
X113203571Y-98403571D01*
X113239285Y-98367857D01*
X113310714Y-98260714D01*
X113346428Y-98117857D01*
X113346428Y-97832142D01*
X113310714Y-97760714D01*
X113275000Y-97725000D01*
X113203571Y-97689285D01*
X113060714Y-97689285D01*
X112989285Y-97725000D01*
X112953571Y-97760714D01*
X112917857Y-97832142D01*
X112917857Y-98010714D01*
X112953571Y-98082142D01*
X112989285Y-98117857D01*
X113060714Y-98153571D01*
X113203571Y-98153571D01*
X113275000Y-98117857D01*
X113310714Y-98082142D01*
X113346428Y-98010714D01*
G04 #@! TO.C,C29*
X99217857Y-95267857D02*
X99182142Y-95303571D01*
X99075000Y-95339285D01*
X99003571Y-95339285D01*
X98896428Y-95303571D01*
X98825000Y-95232142D01*
X98789285Y-95160714D01*
X98753571Y-95017857D01*
X98753571Y-94910714D01*
X98789285Y-94767857D01*
X98825000Y-94696428D01*
X98896428Y-94625000D01*
X99003571Y-94589285D01*
X99075000Y-94589285D01*
X99182142Y-94625000D01*
X99217857Y-94660714D01*
X99503571Y-94660714D02*
X99539285Y-94625000D01*
X99610714Y-94589285D01*
X99789285Y-94589285D01*
X99860714Y-94625000D01*
X99896428Y-94660714D01*
X99932142Y-94732142D01*
X99932142Y-94803571D01*
X99896428Y-94910714D01*
X99467857Y-95339285D01*
X99932142Y-95339285D01*
X100289285Y-95339285D02*
X100432142Y-95339285D01*
X100503571Y-95303571D01*
X100539285Y-95267857D01*
X100610714Y-95160714D01*
X100646428Y-95017857D01*
X100646428Y-94732142D01*
X100610714Y-94660714D01*
X100575000Y-94625000D01*
X100503571Y-94589285D01*
X100360714Y-94589285D01*
X100289285Y-94625000D01*
X100253571Y-94660714D01*
X100217857Y-94732142D01*
X100217857Y-94910714D01*
X100253571Y-94982142D01*
X100289285Y-95017857D01*
X100360714Y-95053571D01*
X100503571Y-95053571D01*
X100575000Y-95017857D01*
X100610714Y-94982142D01*
X100646428Y-94910714D01*
G04 #@! TO.C,C28*
X95117857Y-84597857D02*
X95082142Y-84633571D01*
X94975000Y-84669285D01*
X94903571Y-84669285D01*
X94796428Y-84633571D01*
X94725000Y-84562142D01*
X94689285Y-84490714D01*
X94653571Y-84347857D01*
X94653571Y-84240714D01*
X94689285Y-84097857D01*
X94725000Y-84026428D01*
X94796428Y-83955000D01*
X94903571Y-83919285D01*
X94975000Y-83919285D01*
X95082142Y-83955000D01*
X95117857Y-83990714D01*
X95403571Y-83990714D02*
X95439285Y-83955000D01*
X95510714Y-83919285D01*
X95689285Y-83919285D01*
X95760714Y-83955000D01*
X95796428Y-83990714D01*
X95832142Y-84062142D01*
X95832142Y-84133571D01*
X95796428Y-84240714D01*
X95367857Y-84669285D01*
X95832142Y-84669285D01*
X96260714Y-84240714D02*
X96189285Y-84205000D01*
X96153571Y-84169285D01*
X96117857Y-84097857D01*
X96117857Y-84062142D01*
X96153571Y-83990714D01*
X96189285Y-83955000D01*
X96260714Y-83919285D01*
X96403571Y-83919285D01*
X96475000Y-83955000D01*
X96510714Y-83990714D01*
X96546428Y-84062142D01*
X96546428Y-84097857D01*
X96510714Y-84169285D01*
X96475000Y-84205000D01*
X96403571Y-84240714D01*
X96260714Y-84240714D01*
X96189285Y-84276428D01*
X96153571Y-84312142D01*
X96117857Y-84383571D01*
X96117857Y-84526428D01*
X96153571Y-84597857D01*
X96189285Y-84633571D01*
X96260714Y-84669285D01*
X96403571Y-84669285D01*
X96475000Y-84633571D01*
X96510714Y-84597857D01*
X96546428Y-84526428D01*
X96546428Y-84383571D01*
X96510714Y-84312142D01*
X96475000Y-84276428D01*
X96403571Y-84240714D01*
G04 #@! TO.C,C27*
X112617857Y-92867857D02*
X112582142Y-92903571D01*
X112475000Y-92939285D01*
X112403571Y-92939285D01*
X112296428Y-92903571D01*
X112225000Y-92832142D01*
X112189285Y-92760714D01*
X112153571Y-92617857D01*
X112153571Y-92510714D01*
X112189285Y-92367857D01*
X112225000Y-92296428D01*
X112296428Y-92225000D01*
X112403571Y-92189285D01*
X112475000Y-92189285D01*
X112582142Y-92225000D01*
X112617857Y-92260714D01*
X112903571Y-92260714D02*
X112939285Y-92225000D01*
X113010714Y-92189285D01*
X113189285Y-92189285D01*
X113260714Y-92225000D01*
X113296428Y-92260714D01*
X113332142Y-92332142D01*
X113332142Y-92403571D01*
X113296428Y-92510714D01*
X112867857Y-92939285D01*
X113332142Y-92939285D01*
X113582142Y-92189285D02*
X114082142Y-92189285D01*
X113760714Y-92939285D01*
G04 #@! TO.C,C26*
X100417857Y-98367857D02*
X100382142Y-98403571D01*
X100275000Y-98439285D01*
X100203571Y-98439285D01*
X100096428Y-98403571D01*
X100025000Y-98332142D01*
X99989285Y-98260714D01*
X99953571Y-98117857D01*
X99953571Y-98010714D01*
X99989285Y-97867857D01*
X100025000Y-97796428D01*
X100096428Y-97725000D01*
X100203571Y-97689285D01*
X100275000Y-97689285D01*
X100382142Y-97725000D01*
X100417857Y-97760714D01*
X100703571Y-97760714D02*
X100739285Y-97725000D01*
X100810714Y-97689285D01*
X100989285Y-97689285D01*
X101060714Y-97725000D01*
X101096428Y-97760714D01*
X101132142Y-97832142D01*
X101132142Y-97903571D01*
X101096428Y-98010714D01*
X100667857Y-98439285D01*
X101132142Y-98439285D01*
X101775000Y-97689285D02*
X101632142Y-97689285D01*
X101560714Y-97725000D01*
X101525000Y-97760714D01*
X101453571Y-97867857D01*
X101417857Y-98010714D01*
X101417857Y-98296428D01*
X101453571Y-98367857D01*
X101489285Y-98403571D01*
X101560714Y-98439285D01*
X101703571Y-98439285D01*
X101775000Y-98403571D01*
X101810714Y-98367857D01*
X101846428Y-98296428D01*
X101846428Y-98117857D01*
X101810714Y-98046428D01*
X101775000Y-98010714D01*
X101703571Y-97975000D01*
X101560714Y-97975000D01*
X101489285Y-98010714D01*
X101453571Y-98046428D01*
X101417857Y-98117857D01*
G04 #@! TO.C,C25*
X112617857Y-89967857D02*
X112582142Y-90003571D01*
X112475000Y-90039285D01*
X112403571Y-90039285D01*
X112296428Y-90003571D01*
X112225000Y-89932142D01*
X112189285Y-89860714D01*
X112153571Y-89717857D01*
X112153571Y-89610714D01*
X112189285Y-89467857D01*
X112225000Y-89396428D01*
X112296428Y-89325000D01*
X112403571Y-89289285D01*
X112475000Y-89289285D01*
X112582142Y-89325000D01*
X112617857Y-89360714D01*
X112903571Y-89360714D02*
X112939285Y-89325000D01*
X113010714Y-89289285D01*
X113189285Y-89289285D01*
X113260714Y-89325000D01*
X113296428Y-89360714D01*
X113332142Y-89432142D01*
X113332142Y-89503571D01*
X113296428Y-89610714D01*
X112867857Y-90039285D01*
X113332142Y-90039285D01*
X114010714Y-89289285D02*
X113653571Y-89289285D01*
X113617857Y-89646428D01*
X113653571Y-89610714D01*
X113725000Y-89575000D01*
X113903571Y-89575000D01*
X113975000Y-89610714D01*
X114010714Y-89646428D01*
X114046428Y-89717857D01*
X114046428Y-89896428D01*
X114010714Y-89967857D01*
X113975000Y-90003571D01*
X113903571Y-90039285D01*
X113725000Y-90039285D01*
X113653571Y-90003571D01*
X113617857Y-89967857D01*
G04 #@! TO.C,C24*
X112517857Y-80167857D02*
X112482142Y-80203571D01*
X112375000Y-80239285D01*
X112303571Y-80239285D01*
X112196428Y-80203571D01*
X112125000Y-80132142D01*
X112089285Y-80060714D01*
X112053571Y-79917857D01*
X112053571Y-79810714D01*
X112089285Y-79667857D01*
X112125000Y-79596428D01*
X112196428Y-79525000D01*
X112303571Y-79489285D01*
X112375000Y-79489285D01*
X112482142Y-79525000D01*
X112517857Y-79560714D01*
X112803571Y-79560714D02*
X112839285Y-79525000D01*
X112910714Y-79489285D01*
X113089285Y-79489285D01*
X113160714Y-79525000D01*
X113196428Y-79560714D01*
X113232142Y-79632142D01*
X113232142Y-79703571D01*
X113196428Y-79810714D01*
X112767857Y-80239285D01*
X113232142Y-80239285D01*
X113875000Y-79739285D02*
X113875000Y-80239285D01*
X113696428Y-79453571D02*
X113517857Y-79989285D01*
X113982142Y-79989285D01*
G04 #@! TO.C,C23*
X102817857Y-76067857D02*
X102782142Y-76103571D01*
X102675000Y-76139285D01*
X102603571Y-76139285D01*
X102496428Y-76103571D01*
X102425000Y-76032142D01*
X102389285Y-75960714D01*
X102353571Y-75817857D01*
X102353571Y-75710714D01*
X102389285Y-75567857D01*
X102425000Y-75496428D01*
X102496428Y-75425000D01*
X102603571Y-75389285D01*
X102675000Y-75389285D01*
X102782142Y-75425000D01*
X102817857Y-75460714D01*
X103103571Y-75460714D02*
X103139285Y-75425000D01*
X103210714Y-75389285D01*
X103389285Y-75389285D01*
X103460714Y-75425000D01*
X103496428Y-75460714D01*
X103532142Y-75532142D01*
X103532142Y-75603571D01*
X103496428Y-75710714D01*
X103067857Y-76139285D01*
X103532142Y-76139285D01*
X103782142Y-75389285D02*
X104246428Y-75389285D01*
X103996428Y-75675000D01*
X104103571Y-75675000D01*
X104175000Y-75710714D01*
X104210714Y-75746428D01*
X104246428Y-75817857D01*
X104246428Y-75996428D01*
X104210714Y-76067857D01*
X104175000Y-76103571D01*
X104103571Y-76139285D01*
X103889285Y-76139285D01*
X103817857Y-76103571D01*
X103782142Y-76067857D01*
G04 #@! TO.C,C30*
X105117857Y-79067857D02*
X105082142Y-79103571D01*
X104975000Y-79139285D01*
X104903571Y-79139285D01*
X104796428Y-79103571D01*
X104725000Y-79032142D01*
X104689285Y-78960714D01*
X104653571Y-78817857D01*
X104653571Y-78710714D01*
X104689285Y-78567857D01*
X104725000Y-78496428D01*
X104796428Y-78425000D01*
X104903571Y-78389285D01*
X104975000Y-78389285D01*
X105082142Y-78425000D01*
X105117857Y-78460714D01*
X105367857Y-78389285D02*
X105832142Y-78389285D01*
X105582142Y-78675000D01*
X105689285Y-78675000D01*
X105760714Y-78710714D01*
X105796428Y-78746428D01*
X105832142Y-78817857D01*
X105832142Y-78996428D01*
X105796428Y-79067857D01*
X105760714Y-79103571D01*
X105689285Y-79139285D01*
X105475000Y-79139285D01*
X105403571Y-79103571D01*
X105367857Y-79067857D01*
X106296428Y-78389285D02*
X106367857Y-78389285D01*
X106439285Y-78425000D01*
X106475000Y-78460714D01*
X106510714Y-78532142D01*
X106546428Y-78675000D01*
X106546428Y-78853571D01*
X106510714Y-78996428D01*
X106475000Y-79067857D01*
X106439285Y-79103571D01*
X106367857Y-79139285D01*
X106296428Y-79139285D01*
X106225000Y-79103571D01*
X106189285Y-79067857D01*
X106153571Y-78996428D01*
X106117857Y-78853571D01*
X106117857Y-78675000D01*
X106153571Y-78532142D01*
X106189285Y-78460714D01*
X106225000Y-78425000D01*
X106296428Y-78389285D01*
G04 #@! TO.C,C85*
X96617857Y-95167857D02*
X96582142Y-95203571D01*
X96475000Y-95239285D01*
X96403571Y-95239285D01*
X96296428Y-95203571D01*
X96225000Y-95132142D01*
X96189285Y-95060714D01*
X96153571Y-94917857D01*
X96153571Y-94810714D01*
X96189285Y-94667857D01*
X96225000Y-94596428D01*
X96296428Y-94525000D01*
X96403571Y-94489285D01*
X96475000Y-94489285D01*
X96582142Y-94525000D01*
X96617857Y-94560714D01*
X97046428Y-94810714D02*
X96975000Y-94775000D01*
X96939285Y-94739285D01*
X96903571Y-94667857D01*
X96903571Y-94632142D01*
X96939285Y-94560714D01*
X96975000Y-94525000D01*
X97046428Y-94489285D01*
X97189285Y-94489285D01*
X97260714Y-94525000D01*
X97296428Y-94560714D01*
X97332142Y-94632142D01*
X97332142Y-94667857D01*
X97296428Y-94739285D01*
X97260714Y-94775000D01*
X97189285Y-94810714D01*
X97046428Y-94810714D01*
X96975000Y-94846428D01*
X96939285Y-94882142D01*
X96903571Y-94953571D01*
X96903571Y-95096428D01*
X96939285Y-95167857D01*
X96975000Y-95203571D01*
X97046428Y-95239285D01*
X97189285Y-95239285D01*
X97260714Y-95203571D01*
X97296428Y-95167857D01*
X97332142Y-95096428D01*
X97332142Y-94953571D01*
X97296428Y-94882142D01*
X97260714Y-94846428D01*
X97189285Y-94810714D01*
X98010714Y-94489285D02*
X97653571Y-94489285D01*
X97617857Y-94846428D01*
X97653571Y-94810714D01*
X97725000Y-94775000D01*
X97903571Y-94775000D01*
X97975000Y-94810714D01*
X98010714Y-94846428D01*
X98046428Y-94917857D01*
X98046428Y-95096428D01*
X98010714Y-95167857D01*
X97975000Y-95203571D01*
X97903571Y-95239285D01*
X97725000Y-95239285D01*
X97653571Y-95203571D01*
X97617857Y-95167857D01*
G04 #@! TO.C,L1*
X84675000Y-94539285D02*
X84317857Y-94539285D01*
X84317857Y-93789285D01*
X85317857Y-94539285D02*
X84889285Y-94539285D01*
X85103571Y-94539285D02*
X85103571Y-93789285D01*
X85032142Y-93896428D01*
X84960714Y-93967857D01*
X84889285Y-94003571D01*
G04 #@! TO.C,SW2*
X143500000Y-108603571D02*
X143607142Y-108639285D01*
X143785714Y-108639285D01*
X143857142Y-108603571D01*
X143892857Y-108567857D01*
X143928571Y-108496428D01*
X143928571Y-108425000D01*
X143892857Y-108353571D01*
X143857142Y-108317857D01*
X143785714Y-108282142D01*
X143642857Y-108246428D01*
X143571428Y-108210714D01*
X143535714Y-108175000D01*
X143500000Y-108103571D01*
X143500000Y-108032142D01*
X143535714Y-107960714D01*
X143571428Y-107925000D01*
X143642857Y-107889285D01*
X143821428Y-107889285D01*
X143928571Y-107925000D01*
X144178571Y-107889285D02*
X144357142Y-108639285D01*
X144500000Y-108103571D01*
X144642857Y-108639285D01*
X144821428Y-107889285D01*
X145071428Y-107960714D02*
X145107142Y-107925000D01*
X145178571Y-107889285D01*
X145357142Y-107889285D01*
X145428571Y-107925000D01*
X145464285Y-107960714D01*
X145500000Y-108032142D01*
X145500000Y-108103571D01*
X145464285Y-108210714D01*
X145035714Y-108639285D01*
X145500000Y-108639285D01*
G04 #@! TO.C,SW3*
X135800000Y-108603571D02*
X135907142Y-108639285D01*
X136085714Y-108639285D01*
X136157142Y-108603571D01*
X136192857Y-108567857D01*
X136228571Y-108496428D01*
X136228571Y-108425000D01*
X136192857Y-108353571D01*
X136157142Y-108317857D01*
X136085714Y-108282142D01*
X135942857Y-108246428D01*
X135871428Y-108210714D01*
X135835714Y-108175000D01*
X135800000Y-108103571D01*
X135800000Y-108032142D01*
X135835714Y-107960714D01*
X135871428Y-107925000D01*
X135942857Y-107889285D01*
X136121428Y-107889285D01*
X136228571Y-107925000D01*
X136478571Y-107889285D02*
X136657142Y-108639285D01*
X136800000Y-108103571D01*
X136942857Y-108639285D01*
X137121428Y-107889285D01*
X137335714Y-107889285D02*
X137800000Y-107889285D01*
X137550000Y-108175000D01*
X137657142Y-108175000D01*
X137728571Y-108210714D01*
X137764285Y-108246428D01*
X137800000Y-108317857D01*
X137800000Y-108496428D01*
X137764285Y-108567857D01*
X137728571Y-108603571D01*
X137657142Y-108639285D01*
X137442857Y-108639285D01*
X137371428Y-108603571D01*
X137335714Y-108567857D01*
G04 #@! TO.C,SW1*
X128100000Y-108503571D02*
X128207142Y-108539285D01*
X128385714Y-108539285D01*
X128457142Y-108503571D01*
X128492857Y-108467857D01*
X128528571Y-108396428D01*
X128528571Y-108325000D01*
X128492857Y-108253571D01*
X128457142Y-108217857D01*
X128385714Y-108182142D01*
X128242857Y-108146428D01*
X128171428Y-108110714D01*
X128135714Y-108075000D01*
X128100000Y-108003571D01*
X128100000Y-107932142D01*
X128135714Y-107860714D01*
X128171428Y-107825000D01*
X128242857Y-107789285D01*
X128421428Y-107789285D01*
X128528571Y-107825000D01*
X128778571Y-107789285D02*
X128957142Y-108539285D01*
X129100000Y-108003571D01*
X129242857Y-108539285D01*
X129421428Y-107789285D01*
X130100000Y-108539285D02*
X129671428Y-108539285D01*
X129885714Y-108539285D02*
X129885714Y-107789285D01*
X129814285Y-107896428D01*
X129742857Y-107967857D01*
X129671428Y-108003571D01*
G04 #@! TO.C,P1*
X122646428Y-112339285D02*
X122646428Y-111589285D01*
X122932142Y-111589285D01*
X123003571Y-111625000D01*
X123039285Y-111660714D01*
X123075000Y-111732142D01*
X123075000Y-111839285D01*
X123039285Y-111910714D01*
X123003571Y-111946428D01*
X122932142Y-111982142D01*
X122646428Y-111982142D01*
X123789285Y-112339285D02*
X123360714Y-112339285D01*
X123575000Y-112339285D02*
X123575000Y-111589285D01*
X123503571Y-111696428D01*
X123432142Y-111767857D01*
X123360714Y-111803571D01*
G04 #@! TO.C,Y1*
X75992857Y-92982142D02*
X75992857Y-93339285D01*
X75742857Y-92589285D02*
X75992857Y-92982142D01*
X76242857Y-92589285D01*
X76885714Y-93339285D02*
X76457142Y-93339285D01*
X76671428Y-93339285D02*
X76671428Y-92589285D01*
X76600000Y-92696428D01*
X76528571Y-92767857D01*
X76457142Y-92803571D01*
G04 #@! TO.C,XTAL1*
X104382142Y-99289285D02*
X104882142Y-100039285D01*
X104882142Y-99289285D02*
X104382142Y-100039285D01*
X105060714Y-99289285D02*
X105489285Y-99289285D01*
X105275000Y-100039285D02*
X105275000Y-99289285D01*
X105703571Y-99825000D02*
X106060714Y-99825000D01*
X105632142Y-100039285D02*
X105882142Y-99289285D01*
X106132142Y-100039285D01*
X106739285Y-100039285D02*
X106382142Y-100039285D01*
X106382142Y-99289285D01*
X107382142Y-100039285D02*
X106953571Y-100039285D01*
X107167857Y-100039285D02*
X107167857Y-99289285D01*
X107096428Y-99396428D01*
X107025000Y-99467857D01*
X106953571Y-99503571D01*
G04 #@! TO.C,L2*
X110975000Y-72239285D02*
X110617857Y-72239285D01*
X110617857Y-71489285D01*
X111189285Y-71560714D02*
X111225000Y-71525000D01*
X111296428Y-71489285D01*
X111475000Y-71489285D01*
X111546428Y-71525000D01*
X111582142Y-71560714D01*
X111617857Y-71632142D01*
X111617857Y-71703571D01*
X111582142Y-71810714D01*
X111153571Y-72239285D01*
X111617857Y-72239285D01*
G04 #@! TO.C,L4*
X113116666Y-71726190D02*
X112878571Y-71726190D01*
X112878571Y-71226190D01*
X113497619Y-71392857D02*
X113497619Y-71726190D01*
X113378571Y-71202380D02*
X113259523Y-71559523D01*
X113569047Y-71559523D01*
G04 #@! TO.C,L5*
X115416666Y-75726190D02*
X115178571Y-75726190D01*
X115178571Y-75226190D01*
X115821428Y-75226190D02*
X115583333Y-75226190D01*
X115559523Y-75464285D01*
X115583333Y-75440476D01*
X115630952Y-75416666D01*
X115750000Y-75416666D01*
X115797619Y-75440476D01*
X115821428Y-75464285D01*
X115845238Y-75511904D01*
X115845238Y-75630952D01*
X115821428Y-75678571D01*
X115797619Y-75702380D01*
X115750000Y-75726190D01*
X115630952Y-75726190D01*
X115583333Y-75702380D01*
X115559523Y-75678571D01*
G04 #@! TO.C,L6*
X118275000Y-71139285D02*
X117917857Y-71139285D01*
X117917857Y-70389285D01*
X118846428Y-70389285D02*
X118703571Y-70389285D01*
X118632142Y-70425000D01*
X118596428Y-70460714D01*
X118525000Y-70567857D01*
X118489285Y-70710714D01*
X118489285Y-70996428D01*
X118525000Y-71067857D01*
X118560714Y-71103571D01*
X118632142Y-71139285D01*
X118775000Y-71139285D01*
X118846428Y-71103571D01*
X118882142Y-71067857D01*
X118917857Y-70996428D01*
X118917857Y-70817857D01*
X118882142Y-70746428D01*
X118846428Y-70710714D01*
X118775000Y-70675000D01*
X118632142Y-70675000D01*
X118560714Y-70710714D01*
X118525000Y-70746428D01*
X118489285Y-70817857D01*
G04 #@! TO.C,L7*
X118175000Y-75039285D02*
X117817857Y-75039285D01*
X117817857Y-74289285D01*
X118353571Y-74289285D02*
X118853571Y-74289285D01*
X118532142Y-75039285D01*
G04 #@! TO.C,L3*
X110875000Y-73939285D02*
X110517857Y-73939285D01*
X110517857Y-73189285D01*
X111053571Y-73189285D02*
X111517857Y-73189285D01*
X111267857Y-73475000D01*
X111375000Y-73475000D01*
X111446428Y-73510714D01*
X111482142Y-73546428D01*
X111517857Y-73617857D01*
X111517857Y-73796428D01*
X111482142Y-73867857D01*
X111446428Y-73903571D01*
X111375000Y-73939285D01*
X111160714Y-73939285D01*
X111089285Y-73903571D01*
X111053571Y-73867857D01*
G04 #@! TO.C,IC2*
X108167857Y-91339285D02*
X108167857Y-90589285D01*
X108953571Y-91267857D02*
X108917857Y-91303571D01*
X108810714Y-91339285D01*
X108739285Y-91339285D01*
X108632142Y-91303571D01*
X108560714Y-91232142D01*
X108525000Y-91160714D01*
X108489285Y-91017857D01*
X108489285Y-90910714D01*
X108525000Y-90767857D01*
X108560714Y-90696428D01*
X108632142Y-90625000D01*
X108739285Y-90589285D01*
X108810714Y-90589285D01*
X108917857Y-90625000D01*
X108953571Y-90660714D01*
X109239285Y-90660714D02*
X109275000Y-90625000D01*
X109346428Y-90589285D01*
X109525000Y-90589285D01*
X109596428Y-90625000D01*
X109632142Y-90660714D01*
X109667857Y-90732142D01*
X109667857Y-90803571D01*
X109632142Y-90910714D01*
X109203571Y-91339285D01*
X109667857Y-91339285D01*
G04 #@! TO.C,IC1*
X84767857Y-89039285D02*
X84767857Y-88289285D01*
X85553571Y-88967857D02*
X85517857Y-89003571D01*
X85410714Y-89039285D01*
X85339285Y-89039285D01*
X85232142Y-89003571D01*
X85160714Y-88932142D01*
X85125000Y-88860714D01*
X85089285Y-88717857D01*
X85089285Y-88610714D01*
X85125000Y-88467857D01*
X85160714Y-88396428D01*
X85232142Y-88325000D01*
X85339285Y-88289285D01*
X85410714Y-88289285D01*
X85517857Y-88325000D01*
X85553571Y-88360714D01*
X86267857Y-89039285D02*
X85839285Y-89039285D01*
X86053571Y-89039285D02*
X86053571Y-88289285D01*
X85982142Y-88396428D01*
X85910714Y-88467857D01*
X85839285Y-88503571D01*
G04 #@! TO.C,IC3*
X138667857Y-96839285D02*
X138667857Y-96089285D01*
X139453571Y-96767857D02*
X139417857Y-96803571D01*
X139310714Y-96839285D01*
X139239285Y-96839285D01*
X139132142Y-96803571D01*
X139060714Y-96732142D01*
X139025000Y-96660714D01*
X138989285Y-96517857D01*
X138989285Y-96410714D01*
X139025000Y-96267857D01*
X139060714Y-96196428D01*
X139132142Y-96125000D01*
X139239285Y-96089285D01*
X139310714Y-96089285D01*
X139417857Y-96125000D01*
X139453571Y-96160714D01*
X139703571Y-96089285D02*
X140167857Y-96089285D01*
X139917857Y-96375000D01*
X140025000Y-96375000D01*
X140096428Y-96410714D01*
X140132142Y-96446428D01*
X140167857Y-96517857D01*
X140167857Y-96696428D01*
X140132142Y-96767857D01*
X140096428Y-96803571D01*
X140025000Y-96839285D01*
X139810714Y-96839285D01*
X139739285Y-96803571D01*
X139703571Y-96767857D01*
G04 #@! TO.C,U10*
X101871428Y-74289285D02*
X101871428Y-74896428D01*
X101907142Y-74967857D01*
X101942857Y-75003571D01*
X102014285Y-75039285D01*
X102157142Y-75039285D01*
X102228571Y-75003571D01*
X102264285Y-74967857D01*
X102300000Y-74896428D01*
X102300000Y-74289285D01*
X103050000Y-75039285D02*
X102621428Y-75039285D01*
X102835714Y-75039285D02*
X102835714Y-74289285D01*
X102764285Y-74396428D01*
X102692857Y-74467857D01*
X102621428Y-74503571D01*
X103514285Y-74289285D02*
X103585714Y-74289285D01*
X103657142Y-74325000D01*
X103692857Y-74360714D01*
X103728571Y-74432142D01*
X103764285Y-74575000D01*
X103764285Y-74753571D01*
X103728571Y-74896428D01*
X103692857Y-74967857D01*
X103657142Y-75003571D01*
X103585714Y-75039285D01*
X103514285Y-75039285D01*
X103442857Y-75003571D01*
X103407142Y-74967857D01*
X103371428Y-74896428D01*
X103335714Y-74753571D01*
X103335714Y-74575000D01*
X103371428Y-74432142D01*
X103407142Y-74360714D01*
X103442857Y-74325000D01*
X103514285Y-74289285D01*
G04 #@! TO.C,R27*
X154117857Y-78739285D02*
X153867857Y-78382142D01*
X153689285Y-78739285D02*
X153689285Y-77989285D01*
X153975000Y-77989285D01*
X154046428Y-78025000D01*
X154082142Y-78060714D01*
X154117857Y-78132142D01*
X154117857Y-78239285D01*
X154082142Y-78310714D01*
X154046428Y-78346428D01*
X153975000Y-78382142D01*
X153689285Y-78382142D01*
X154403571Y-78060714D02*
X154439285Y-78025000D01*
X154510714Y-77989285D01*
X154689285Y-77989285D01*
X154760714Y-78025000D01*
X154796428Y-78060714D01*
X154832142Y-78132142D01*
X154832142Y-78203571D01*
X154796428Y-78310714D01*
X154367857Y-78739285D01*
X154832142Y-78739285D01*
X155082142Y-77989285D02*
X155582142Y-77989285D01*
X155260714Y-78739285D01*
G04 #@! TO.C,R12*
X79117857Y-106309285D02*
X78867857Y-105952142D01*
X78689285Y-106309285D02*
X78689285Y-105559285D01*
X78975000Y-105559285D01*
X79046428Y-105595000D01*
X79082142Y-105630714D01*
X79117857Y-105702142D01*
X79117857Y-105809285D01*
X79082142Y-105880714D01*
X79046428Y-105916428D01*
X78975000Y-105952142D01*
X78689285Y-105952142D01*
X79832142Y-106309285D02*
X79403571Y-106309285D01*
X79617857Y-106309285D02*
X79617857Y-105559285D01*
X79546428Y-105666428D01*
X79475000Y-105737857D01*
X79403571Y-105773571D01*
X80117857Y-105630714D02*
X80153571Y-105595000D01*
X80225000Y-105559285D01*
X80403571Y-105559285D01*
X80475000Y-105595000D01*
X80510714Y-105630714D01*
X80546428Y-105702142D01*
X80546428Y-105773571D01*
X80510714Y-105880714D01*
X80082142Y-106309285D01*
X80546428Y-106309285D01*
G04 #@! TO.C,R11*
X112769285Y-107982142D02*
X112412142Y-108232142D01*
X112769285Y-108410714D02*
X112019285Y-108410714D01*
X112019285Y-108125000D01*
X112055000Y-108053571D01*
X112090714Y-108017857D01*
X112162142Y-107982142D01*
X112269285Y-107982142D01*
X112340714Y-108017857D01*
X112376428Y-108053571D01*
X112412142Y-108125000D01*
X112412142Y-108410714D01*
X112769285Y-107267857D02*
X112769285Y-107696428D01*
X112769285Y-107482142D02*
X112019285Y-107482142D01*
X112126428Y-107553571D01*
X112197857Y-107625000D01*
X112233571Y-107696428D01*
X112769285Y-106553571D02*
X112769285Y-106982142D01*
X112769285Y-106767857D02*
X112019285Y-106767857D01*
X112126428Y-106839285D01*
X112197857Y-106910714D01*
X112233571Y-106982142D01*
G04 #@! TO.C,R10*
X135917857Y-104539285D02*
X135667857Y-104182142D01*
X135489285Y-104539285D02*
X135489285Y-103789285D01*
X135775000Y-103789285D01*
X135846428Y-103825000D01*
X135882142Y-103860714D01*
X135917857Y-103932142D01*
X135917857Y-104039285D01*
X135882142Y-104110714D01*
X135846428Y-104146428D01*
X135775000Y-104182142D01*
X135489285Y-104182142D01*
X136632142Y-104539285D02*
X136203571Y-104539285D01*
X136417857Y-104539285D02*
X136417857Y-103789285D01*
X136346428Y-103896428D01*
X136275000Y-103967857D01*
X136203571Y-104003571D01*
X137096428Y-103789285D02*
X137167857Y-103789285D01*
X137239285Y-103825000D01*
X137275000Y-103860714D01*
X137310714Y-103932142D01*
X137346428Y-104075000D01*
X137346428Y-104253571D01*
X137310714Y-104396428D01*
X137275000Y-104467857D01*
X137239285Y-104503571D01*
X137167857Y-104539285D01*
X137096428Y-104539285D01*
X137025000Y-104503571D01*
X136989285Y-104467857D01*
X136953571Y-104396428D01*
X136917857Y-104253571D01*
X136917857Y-104075000D01*
X136953571Y-103932142D01*
X136989285Y-103860714D01*
X137025000Y-103825000D01*
X137096428Y-103789285D01*
G04 #@! TO.C,R9*
X144275000Y-105539285D02*
X144025000Y-105182142D01*
X143846428Y-105539285D02*
X143846428Y-104789285D01*
X144132142Y-104789285D01*
X144203571Y-104825000D01*
X144239285Y-104860714D01*
X144275000Y-104932142D01*
X144275000Y-105039285D01*
X144239285Y-105110714D01*
X144203571Y-105146428D01*
X144132142Y-105182142D01*
X143846428Y-105182142D01*
X144632142Y-105539285D02*
X144775000Y-105539285D01*
X144846428Y-105503571D01*
X144882142Y-105467857D01*
X144953571Y-105360714D01*
X144989285Y-105217857D01*
X144989285Y-104932142D01*
X144953571Y-104860714D01*
X144917857Y-104825000D01*
X144846428Y-104789285D01*
X144703571Y-104789285D01*
X144632142Y-104825000D01*
X144596428Y-104860714D01*
X144560714Y-104932142D01*
X144560714Y-105110714D01*
X144596428Y-105182142D01*
X144632142Y-105217857D01*
X144703571Y-105253571D01*
X144846428Y-105253571D01*
X144917857Y-105217857D01*
X144953571Y-105182142D01*
X144989285Y-105110714D01*
G04 #@! TO.C,R8*
X126075000Y-105709285D02*
X125825000Y-105352142D01*
X125646428Y-105709285D02*
X125646428Y-104959285D01*
X125932142Y-104959285D01*
X126003571Y-104995000D01*
X126039285Y-105030714D01*
X126075000Y-105102142D01*
X126075000Y-105209285D01*
X126039285Y-105280714D01*
X126003571Y-105316428D01*
X125932142Y-105352142D01*
X125646428Y-105352142D01*
X126503571Y-105280714D02*
X126432142Y-105245000D01*
X126396428Y-105209285D01*
X126360714Y-105137857D01*
X126360714Y-105102142D01*
X126396428Y-105030714D01*
X126432142Y-104995000D01*
X126503571Y-104959285D01*
X126646428Y-104959285D01*
X126717857Y-104995000D01*
X126753571Y-105030714D01*
X126789285Y-105102142D01*
X126789285Y-105137857D01*
X126753571Y-105209285D01*
X126717857Y-105245000D01*
X126646428Y-105280714D01*
X126503571Y-105280714D01*
X126432142Y-105316428D01*
X126396428Y-105352142D01*
X126360714Y-105423571D01*
X126360714Y-105566428D01*
X126396428Y-105637857D01*
X126432142Y-105673571D01*
X126503571Y-105709285D01*
X126646428Y-105709285D01*
X126717857Y-105673571D01*
X126753571Y-105637857D01*
X126789285Y-105566428D01*
X126789285Y-105423571D01*
X126753571Y-105352142D01*
X126717857Y-105316428D01*
X126646428Y-105280714D01*
G04 #@! TO.C,R29*
X136917857Y-76739285D02*
X136667857Y-76382142D01*
X136489285Y-76739285D02*
X136489285Y-75989285D01*
X136775000Y-75989285D01*
X136846428Y-76025000D01*
X136882142Y-76060714D01*
X136917857Y-76132142D01*
X136917857Y-76239285D01*
X136882142Y-76310714D01*
X136846428Y-76346428D01*
X136775000Y-76382142D01*
X136489285Y-76382142D01*
X137203571Y-76060714D02*
X137239285Y-76025000D01*
X137310714Y-75989285D01*
X137489285Y-75989285D01*
X137560714Y-76025000D01*
X137596428Y-76060714D01*
X137632142Y-76132142D01*
X137632142Y-76203571D01*
X137596428Y-76310714D01*
X137167857Y-76739285D01*
X137632142Y-76739285D01*
X137989285Y-76739285D02*
X138132142Y-76739285D01*
X138203571Y-76703571D01*
X138239285Y-76667857D01*
X138310714Y-76560714D01*
X138346428Y-76417857D01*
X138346428Y-76132142D01*
X138310714Y-76060714D01*
X138275000Y-76025000D01*
X138203571Y-75989285D01*
X138060714Y-75989285D01*
X137989285Y-76025000D01*
X137953571Y-76060714D01*
X137917857Y-76132142D01*
X137917857Y-76310714D01*
X137953571Y-76382142D01*
X137989285Y-76417857D01*
X138060714Y-76453571D01*
X138203571Y-76453571D01*
X138275000Y-76417857D01*
X138310714Y-76382142D01*
X138346428Y-76310714D01*
G04 #@! TO.C,R30*
X132717857Y-81039285D02*
X132467857Y-80682142D01*
X132289285Y-81039285D02*
X132289285Y-80289285D01*
X132575000Y-80289285D01*
X132646428Y-80325000D01*
X132682142Y-80360714D01*
X132717857Y-80432142D01*
X132717857Y-80539285D01*
X132682142Y-80610714D01*
X132646428Y-80646428D01*
X132575000Y-80682142D01*
X132289285Y-80682142D01*
X132967857Y-80289285D02*
X133432142Y-80289285D01*
X133182142Y-80575000D01*
X133289285Y-80575000D01*
X133360714Y-80610714D01*
X133396428Y-80646428D01*
X133432142Y-80717857D01*
X133432142Y-80896428D01*
X133396428Y-80967857D01*
X133360714Y-81003571D01*
X133289285Y-81039285D01*
X133075000Y-81039285D01*
X133003571Y-81003571D01*
X132967857Y-80967857D01*
X133896428Y-80289285D02*
X133967857Y-80289285D01*
X134039285Y-80325000D01*
X134075000Y-80360714D01*
X134110714Y-80432142D01*
X134146428Y-80575000D01*
X134146428Y-80753571D01*
X134110714Y-80896428D01*
X134075000Y-80967857D01*
X134039285Y-81003571D01*
X133967857Y-81039285D01*
X133896428Y-81039285D01*
X133825000Y-81003571D01*
X133789285Y-80967857D01*
X133753571Y-80896428D01*
X133717857Y-80753571D01*
X133717857Y-80575000D01*
X133753571Y-80432142D01*
X133789285Y-80360714D01*
X133825000Y-80325000D01*
X133896428Y-80289285D01*
G04 #@! TO.C,R31*
X121017857Y-81109285D02*
X120767857Y-80752142D01*
X120589285Y-81109285D02*
X120589285Y-80359285D01*
X120875000Y-80359285D01*
X120946428Y-80395000D01*
X120982142Y-80430714D01*
X121017857Y-80502142D01*
X121017857Y-80609285D01*
X120982142Y-80680714D01*
X120946428Y-80716428D01*
X120875000Y-80752142D01*
X120589285Y-80752142D01*
X121267857Y-80359285D02*
X121732142Y-80359285D01*
X121482142Y-80645000D01*
X121589285Y-80645000D01*
X121660714Y-80680714D01*
X121696428Y-80716428D01*
X121732142Y-80787857D01*
X121732142Y-80966428D01*
X121696428Y-81037857D01*
X121660714Y-81073571D01*
X121589285Y-81109285D01*
X121375000Y-81109285D01*
X121303571Y-81073571D01*
X121267857Y-81037857D01*
X122446428Y-81109285D02*
X122017857Y-81109285D01*
X122232142Y-81109285D02*
X122232142Y-80359285D01*
X122160714Y-80466428D01*
X122089285Y-80537857D01*
X122017857Y-80573571D01*
G04 #@! TO.C,R32*
X123117857Y-75539285D02*
X122867857Y-75182142D01*
X122689285Y-75539285D02*
X122689285Y-74789285D01*
X122975000Y-74789285D01*
X123046428Y-74825000D01*
X123082142Y-74860714D01*
X123117857Y-74932142D01*
X123117857Y-75039285D01*
X123082142Y-75110714D01*
X123046428Y-75146428D01*
X122975000Y-75182142D01*
X122689285Y-75182142D01*
X123367857Y-74789285D02*
X123832142Y-74789285D01*
X123582142Y-75075000D01*
X123689285Y-75075000D01*
X123760714Y-75110714D01*
X123796428Y-75146428D01*
X123832142Y-75217857D01*
X123832142Y-75396428D01*
X123796428Y-75467857D01*
X123760714Y-75503571D01*
X123689285Y-75539285D01*
X123475000Y-75539285D01*
X123403571Y-75503571D01*
X123367857Y-75467857D01*
X124117857Y-74860714D02*
X124153571Y-74825000D01*
X124225000Y-74789285D01*
X124403571Y-74789285D01*
X124475000Y-74825000D01*
X124510714Y-74860714D01*
X124546428Y-74932142D01*
X124546428Y-75003571D01*
X124510714Y-75110714D01*
X124082142Y-75539285D01*
X124546428Y-75539285D01*
G04 #@! TO.C,R33*
X104617857Y-72939285D02*
X104367857Y-72582142D01*
X104189285Y-72939285D02*
X104189285Y-72189285D01*
X104475000Y-72189285D01*
X104546428Y-72225000D01*
X104582142Y-72260714D01*
X104617857Y-72332142D01*
X104617857Y-72439285D01*
X104582142Y-72510714D01*
X104546428Y-72546428D01*
X104475000Y-72582142D01*
X104189285Y-72582142D01*
X104867857Y-72189285D02*
X105332142Y-72189285D01*
X105082142Y-72475000D01*
X105189285Y-72475000D01*
X105260714Y-72510714D01*
X105296428Y-72546428D01*
X105332142Y-72617857D01*
X105332142Y-72796428D01*
X105296428Y-72867857D01*
X105260714Y-72903571D01*
X105189285Y-72939285D01*
X104975000Y-72939285D01*
X104903571Y-72903571D01*
X104867857Y-72867857D01*
X105582142Y-72189285D02*
X106046428Y-72189285D01*
X105796428Y-72475000D01*
X105903571Y-72475000D01*
X105975000Y-72510714D01*
X106010714Y-72546428D01*
X106046428Y-72617857D01*
X106046428Y-72796428D01*
X106010714Y-72867857D01*
X105975000Y-72903571D01*
X105903571Y-72939285D01*
X105689285Y-72939285D01*
X105617857Y-72903571D01*
X105582142Y-72867857D01*
G04 #@! TO.C,R6*
X142490000Y-102869285D02*
X142240000Y-102512142D01*
X142061428Y-102869285D02*
X142061428Y-102119285D01*
X142347142Y-102119285D01*
X142418571Y-102155000D01*
X142454285Y-102190714D01*
X142490000Y-102262142D01*
X142490000Y-102369285D01*
X142454285Y-102440714D01*
X142418571Y-102476428D01*
X142347142Y-102512142D01*
X142061428Y-102512142D01*
X143132857Y-102119285D02*
X142990000Y-102119285D01*
X142918571Y-102155000D01*
X142882857Y-102190714D01*
X142811428Y-102297857D01*
X142775714Y-102440714D01*
X142775714Y-102726428D01*
X142811428Y-102797857D01*
X142847142Y-102833571D01*
X142918571Y-102869285D01*
X143061428Y-102869285D01*
X143132857Y-102833571D01*
X143168571Y-102797857D01*
X143204285Y-102726428D01*
X143204285Y-102547857D01*
X143168571Y-102476428D01*
X143132857Y-102440714D01*
X143061428Y-102405000D01*
X142918571Y-102405000D01*
X142847142Y-102440714D01*
X142811428Y-102476428D01*
X142775714Y-102547857D01*
G04 #@! TO.C,R1*
X119725000Y-100169285D02*
X119475000Y-99812142D01*
X119296428Y-100169285D02*
X119296428Y-99419285D01*
X119582142Y-99419285D01*
X119653571Y-99455000D01*
X119689285Y-99490714D01*
X119725000Y-99562142D01*
X119725000Y-99669285D01*
X119689285Y-99740714D01*
X119653571Y-99776428D01*
X119582142Y-99812142D01*
X119296428Y-99812142D01*
X120439285Y-100169285D02*
X120010714Y-100169285D01*
X120225000Y-100169285D02*
X120225000Y-99419285D01*
X120153571Y-99526428D01*
X120082142Y-99597857D01*
X120010714Y-99633571D01*
G04 #@! TO.C,R5*
X126075000Y-101869285D02*
X125825000Y-101512142D01*
X125646428Y-101869285D02*
X125646428Y-101119285D01*
X125932142Y-101119285D01*
X126003571Y-101155000D01*
X126039285Y-101190714D01*
X126075000Y-101262142D01*
X126075000Y-101369285D01*
X126039285Y-101440714D01*
X126003571Y-101476428D01*
X125932142Y-101512142D01*
X125646428Y-101512142D01*
X126753571Y-101119285D02*
X126396428Y-101119285D01*
X126360714Y-101476428D01*
X126396428Y-101440714D01*
X126467857Y-101405000D01*
X126646428Y-101405000D01*
X126717857Y-101440714D01*
X126753571Y-101476428D01*
X126789285Y-101547857D01*
X126789285Y-101726428D01*
X126753571Y-101797857D01*
X126717857Y-101833571D01*
X126646428Y-101869285D01*
X126467857Y-101869285D01*
X126396428Y-101833571D01*
X126360714Y-101797857D01*
G04 #@! TO.C,R13*
X110617857Y-95239285D02*
X110367857Y-94882142D01*
X110189285Y-95239285D02*
X110189285Y-94489285D01*
X110475000Y-94489285D01*
X110546428Y-94525000D01*
X110582142Y-94560714D01*
X110617857Y-94632142D01*
X110617857Y-94739285D01*
X110582142Y-94810714D01*
X110546428Y-94846428D01*
X110475000Y-94882142D01*
X110189285Y-94882142D01*
X111332142Y-95239285D02*
X110903571Y-95239285D01*
X111117857Y-95239285D02*
X111117857Y-94489285D01*
X111046428Y-94596428D01*
X110975000Y-94667857D01*
X110903571Y-94703571D01*
X111582142Y-94489285D02*
X112046428Y-94489285D01*
X111796428Y-94775000D01*
X111903571Y-94775000D01*
X111975000Y-94810714D01*
X112010714Y-94846428D01*
X112046428Y-94917857D01*
X112046428Y-95096428D01*
X112010714Y-95167857D01*
X111975000Y-95203571D01*
X111903571Y-95239285D01*
X111689285Y-95239285D01*
X111617857Y-95203571D01*
X111582142Y-95167857D01*
G04 #@! TO.C,R19*
X74278571Y-80226190D02*
X74111904Y-79988095D01*
X73992857Y-80226190D02*
X73992857Y-79726190D01*
X74183333Y-79726190D01*
X74230952Y-79750000D01*
X74254761Y-79773809D01*
X74278571Y-79821428D01*
X74278571Y-79892857D01*
X74254761Y-79940476D01*
X74230952Y-79964285D01*
X74183333Y-79988095D01*
X73992857Y-79988095D01*
X74754761Y-80226190D02*
X74469047Y-80226190D01*
X74611904Y-80226190D02*
X74611904Y-79726190D01*
X74564285Y-79797619D01*
X74516666Y-79845238D01*
X74469047Y-79869047D01*
X74992857Y-80226190D02*
X75088095Y-80226190D01*
X75135714Y-80202380D01*
X75159523Y-80178571D01*
X75207142Y-80107142D01*
X75230952Y-80011904D01*
X75230952Y-79821428D01*
X75207142Y-79773809D01*
X75183333Y-79750000D01*
X75135714Y-79726190D01*
X75040476Y-79726190D01*
X74992857Y-79750000D01*
X74969047Y-79773809D01*
X74945238Y-79821428D01*
X74945238Y-79940476D01*
X74969047Y-79988095D01*
X74992857Y-80011904D01*
X75040476Y-80035714D01*
X75135714Y-80035714D01*
X75183333Y-80011904D01*
X75207142Y-79988095D01*
X75230952Y-79940476D01*
G04 #@! TO.C,R20*
X74278571Y-81726190D02*
X74111904Y-81488095D01*
X73992857Y-81726190D02*
X73992857Y-81226190D01*
X74183333Y-81226190D01*
X74230952Y-81250000D01*
X74254761Y-81273809D01*
X74278571Y-81321428D01*
X74278571Y-81392857D01*
X74254761Y-81440476D01*
X74230952Y-81464285D01*
X74183333Y-81488095D01*
X73992857Y-81488095D01*
X74469047Y-81273809D02*
X74492857Y-81250000D01*
X74540476Y-81226190D01*
X74659523Y-81226190D01*
X74707142Y-81250000D01*
X74730952Y-81273809D01*
X74754761Y-81321428D01*
X74754761Y-81369047D01*
X74730952Y-81440476D01*
X74445238Y-81726190D01*
X74754761Y-81726190D01*
X75064285Y-81226190D02*
X75111904Y-81226190D01*
X75159523Y-81250000D01*
X75183333Y-81273809D01*
X75207142Y-81321428D01*
X75230952Y-81416666D01*
X75230952Y-81535714D01*
X75207142Y-81630952D01*
X75183333Y-81678571D01*
X75159523Y-81702380D01*
X75111904Y-81726190D01*
X75064285Y-81726190D01*
X75016666Y-81702380D01*
X74992857Y-81678571D01*
X74969047Y-81630952D01*
X74945238Y-81535714D01*
X74945238Y-81416666D01*
X74969047Y-81321428D01*
X74992857Y-81273809D01*
X75016666Y-81250000D01*
X75064285Y-81226190D01*
G04 #@! TO.C,R22*
X147617857Y-80139285D02*
X147367857Y-79782142D01*
X147189285Y-80139285D02*
X147189285Y-79389285D01*
X147475000Y-79389285D01*
X147546428Y-79425000D01*
X147582142Y-79460714D01*
X147617857Y-79532142D01*
X147617857Y-79639285D01*
X147582142Y-79710714D01*
X147546428Y-79746428D01*
X147475000Y-79782142D01*
X147189285Y-79782142D01*
X147903571Y-79460714D02*
X147939285Y-79425000D01*
X148010714Y-79389285D01*
X148189285Y-79389285D01*
X148260714Y-79425000D01*
X148296428Y-79460714D01*
X148332142Y-79532142D01*
X148332142Y-79603571D01*
X148296428Y-79710714D01*
X147867857Y-80139285D01*
X148332142Y-80139285D01*
X148617857Y-79460714D02*
X148653571Y-79425000D01*
X148725000Y-79389285D01*
X148903571Y-79389285D01*
X148975000Y-79425000D01*
X149010714Y-79460714D01*
X149046428Y-79532142D01*
X149046428Y-79603571D01*
X149010714Y-79710714D01*
X148582142Y-80139285D01*
X149046428Y-80139285D01*
G04 #@! TO.C,R23*
X147417857Y-78739285D02*
X147167857Y-78382142D01*
X146989285Y-78739285D02*
X146989285Y-77989285D01*
X147275000Y-77989285D01*
X147346428Y-78025000D01*
X147382142Y-78060714D01*
X147417857Y-78132142D01*
X147417857Y-78239285D01*
X147382142Y-78310714D01*
X147346428Y-78346428D01*
X147275000Y-78382142D01*
X146989285Y-78382142D01*
X147703571Y-78060714D02*
X147739285Y-78025000D01*
X147810714Y-77989285D01*
X147989285Y-77989285D01*
X148060714Y-78025000D01*
X148096428Y-78060714D01*
X148132142Y-78132142D01*
X148132142Y-78203571D01*
X148096428Y-78310714D01*
X147667857Y-78739285D01*
X148132142Y-78739285D01*
X148382142Y-77989285D02*
X148846428Y-77989285D01*
X148596428Y-78275000D01*
X148703571Y-78275000D01*
X148775000Y-78310714D01*
X148810714Y-78346428D01*
X148846428Y-78417857D01*
X148846428Y-78596428D01*
X148810714Y-78667857D01*
X148775000Y-78703571D01*
X148703571Y-78739285D01*
X148489285Y-78739285D01*
X148417857Y-78703571D01*
X148382142Y-78667857D01*
G04 #@! TO.C,R24*
X141717857Y-85039285D02*
X141467857Y-84682142D01*
X141289285Y-85039285D02*
X141289285Y-84289285D01*
X141575000Y-84289285D01*
X141646428Y-84325000D01*
X141682142Y-84360714D01*
X141717857Y-84432142D01*
X141717857Y-84539285D01*
X141682142Y-84610714D01*
X141646428Y-84646428D01*
X141575000Y-84682142D01*
X141289285Y-84682142D01*
X142003571Y-84360714D02*
X142039285Y-84325000D01*
X142110714Y-84289285D01*
X142289285Y-84289285D01*
X142360714Y-84325000D01*
X142396428Y-84360714D01*
X142432142Y-84432142D01*
X142432142Y-84503571D01*
X142396428Y-84610714D01*
X141967857Y-85039285D01*
X142432142Y-85039285D01*
X143075000Y-84539285D02*
X143075000Y-85039285D01*
X142896428Y-84253571D02*
X142717857Y-84789285D01*
X143182142Y-84789285D01*
G04 #@! TO.C,R26*
X154117857Y-80139285D02*
X153867857Y-79782142D01*
X153689285Y-80139285D02*
X153689285Y-79389285D01*
X153975000Y-79389285D01*
X154046428Y-79425000D01*
X154082142Y-79460714D01*
X154117857Y-79532142D01*
X154117857Y-79639285D01*
X154082142Y-79710714D01*
X154046428Y-79746428D01*
X153975000Y-79782142D01*
X153689285Y-79782142D01*
X154403571Y-79460714D02*
X154439285Y-79425000D01*
X154510714Y-79389285D01*
X154689285Y-79389285D01*
X154760714Y-79425000D01*
X154796428Y-79460714D01*
X154832142Y-79532142D01*
X154832142Y-79603571D01*
X154796428Y-79710714D01*
X154367857Y-80139285D01*
X154832142Y-80139285D01*
X155475000Y-79389285D02*
X155332142Y-79389285D01*
X155260714Y-79425000D01*
X155225000Y-79460714D01*
X155153571Y-79567857D01*
X155117857Y-79710714D01*
X155117857Y-79996428D01*
X155153571Y-80067857D01*
X155189285Y-80103571D01*
X155260714Y-80139285D01*
X155403571Y-80139285D01*
X155475000Y-80103571D01*
X155510714Y-80067857D01*
X155546428Y-79996428D01*
X155546428Y-79817857D01*
X155510714Y-79746428D01*
X155475000Y-79710714D01*
X155403571Y-79675000D01*
X155260714Y-79675000D01*
X155189285Y-79710714D01*
X155153571Y-79746428D01*
X155117857Y-79817857D01*
G04 #@! TO.C,R18*
X74278571Y-77226190D02*
X74111904Y-76988095D01*
X73992857Y-77226190D02*
X73992857Y-76726190D01*
X74183333Y-76726190D01*
X74230952Y-76750000D01*
X74254761Y-76773809D01*
X74278571Y-76821428D01*
X74278571Y-76892857D01*
X74254761Y-76940476D01*
X74230952Y-76964285D01*
X74183333Y-76988095D01*
X73992857Y-76988095D01*
X74754761Y-77226190D02*
X74469047Y-77226190D01*
X74611904Y-77226190D02*
X74611904Y-76726190D01*
X74564285Y-76797619D01*
X74516666Y-76845238D01*
X74469047Y-76869047D01*
X75040476Y-76940476D02*
X74992857Y-76916666D01*
X74969047Y-76892857D01*
X74945238Y-76845238D01*
X74945238Y-76821428D01*
X74969047Y-76773809D01*
X74992857Y-76750000D01*
X75040476Y-76726190D01*
X75135714Y-76726190D01*
X75183333Y-76750000D01*
X75207142Y-76773809D01*
X75230952Y-76821428D01*
X75230952Y-76845238D01*
X75207142Y-76892857D01*
X75183333Y-76916666D01*
X75135714Y-76940476D01*
X75040476Y-76940476D01*
X74992857Y-76964285D01*
X74969047Y-76988095D01*
X74945238Y-77035714D01*
X74945238Y-77130952D01*
X74969047Y-77178571D01*
X74992857Y-77202380D01*
X75040476Y-77226190D01*
X75135714Y-77226190D01*
X75183333Y-77202380D01*
X75207142Y-77178571D01*
X75230952Y-77130952D01*
X75230952Y-77035714D01*
X75207142Y-76988095D01*
X75183333Y-76964285D01*
X75135714Y-76940476D01*
G04 #@! TO.C,R7*
X134190000Y-101869285D02*
X133940000Y-101512142D01*
X133761428Y-101869285D02*
X133761428Y-101119285D01*
X134047142Y-101119285D01*
X134118571Y-101155000D01*
X134154285Y-101190714D01*
X134190000Y-101262142D01*
X134190000Y-101369285D01*
X134154285Y-101440714D01*
X134118571Y-101476428D01*
X134047142Y-101512142D01*
X133761428Y-101512142D01*
X134440000Y-101119285D02*
X134940000Y-101119285D01*
X134618571Y-101869285D01*
G04 #@! TO.C,R16*
X116717857Y-81739285D02*
X116467857Y-81382142D01*
X116289285Y-81739285D02*
X116289285Y-80989285D01*
X116575000Y-80989285D01*
X116646428Y-81025000D01*
X116682142Y-81060714D01*
X116717857Y-81132142D01*
X116717857Y-81239285D01*
X116682142Y-81310714D01*
X116646428Y-81346428D01*
X116575000Y-81382142D01*
X116289285Y-81382142D01*
X117432142Y-81739285D02*
X117003571Y-81739285D01*
X117217857Y-81739285D02*
X117217857Y-80989285D01*
X117146428Y-81096428D01*
X117075000Y-81167857D01*
X117003571Y-81203571D01*
X118075000Y-80989285D02*
X117932142Y-80989285D01*
X117860714Y-81025000D01*
X117825000Y-81060714D01*
X117753571Y-81167857D01*
X117717857Y-81310714D01*
X117717857Y-81596428D01*
X117753571Y-81667857D01*
X117789285Y-81703571D01*
X117860714Y-81739285D01*
X118003571Y-81739285D01*
X118075000Y-81703571D01*
X118110714Y-81667857D01*
X118146428Y-81596428D01*
X118146428Y-81417857D01*
X118110714Y-81346428D01*
X118075000Y-81310714D01*
X118003571Y-81275000D01*
X117860714Y-81275000D01*
X117789285Y-81310714D01*
X117753571Y-81346428D01*
X117717857Y-81417857D01*
G04 #@! TO.C,R2*
X116975000Y-103759285D02*
X116725000Y-103402142D01*
X116546428Y-103759285D02*
X116546428Y-103009285D01*
X116832142Y-103009285D01*
X116903571Y-103045000D01*
X116939285Y-103080714D01*
X116975000Y-103152142D01*
X116975000Y-103259285D01*
X116939285Y-103330714D01*
X116903571Y-103366428D01*
X116832142Y-103402142D01*
X116546428Y-103402142D01*
X117260714Y-103080714D02*
X117296428Y-103045000D01*
X117367857Y-103009285D01*
X117546428Y-103009285D01*
X117617857Y-103045000D01*
X117653571Y-103080714D01*
X117689285Y-103152142D01*
X117689285Y-103223571D01*
X117653571Y-103330714D01*
X117225000Y-103759285D01*
X117689285Y-103759285D01*
G04 #@! TO.C,RX*
X72075000Y-94839285D02*
X71825000Y-94482142D01*
X71646428Y-94839285D02*
X71646428Y-94089285D01*
X71932142Y-94089285D01*
X72003571Y-94125000D01*
X72039285Y-94160714D01*
X72075000Y-94232142D01*
X72075000Y-94339285D01*
X72039285Y-94410714D01*
X72003571Y-94446428D01*
X71932142Y-94482142D01*
X71646428Y-94482142D01*
X72325000Y-94089285D02*
X72825000Y-94839285D01*
X72825000Y-94089285D02*
X72325000Y-94839285D01*
G04 #@! TO.C,TX*
X71628571Y-88589285D02*
X72057142Y-88589285D01*
X71842857Y-89339285D02*
X71842857Y-88589285D01*
X72235714Y-88589285D02*
X72735714Y-89339285D01*
X72735714Y-88589285D02*
X72235714Y-89339285D01*
G04 #@! TO.C,FL1*
X102971428Y-65546428D02*
X102721428Y-65546428D01*
X102721428Y-65939285D02*
X102721428Y-65189285D01*
X103078571Y-65189285D01*
X103721428Y-65939285D02*
X103364285Y-65939285D01*
X103364285Y-65189285D01*
X104364285Y-65939285D02*
X103935714Y-65939285D01*
X104150000Y-65939285D02*
X104150000Y-65189285D01*
X104078571Y-65296428D01*
X104007142Y-65367857D01*
X103935714Y-65403571D01*
G04 #@! TO.C,U7*
X149828571Y-90089285D02*
X149828571Y-90696428D01*
X149864285Y-90767857D01*
X149900000Y-90803571D01*
X149971428Y-90839285D01*
X150114285Y-90839285D01*
X150185714Y-90803571D01*
X150221428Y-90767857D01*
X150257142Y-90696428D01*
X150257142Y-90089285D01*
X150542857Y-90089285D02*
X151042857Y-90089285D01*
X150721428Y-90839285D01*
G04 #@! TD*
M02*
