G04 #@! TF.GenerationSoftware,KiCad,Pcbnew,(5.0.0)*
G04 #@! TF.CreationDate,2019-01-26T18:48:23+01:00*
G04 #@! TF.ProjectId,rf-receiver,72662D72656365697665722E6B696361,rev?*
G04 #@! TF.SameCoordinates,Original*
G04 #@! TF.FileFunction,Soldermask,Bot*
G04 #@! TF.FilePolarity,Negative*
%FSLAX46Y46*%
G04 Gerber Fmt 4.6, Leading zero omitted, Abs format (unit mm)*
G04 Created by KiCad (PCBNEW (5.0.0)) date 01/26/19 18:48:23*
%MOMM*%
%LPD*%
G01*
G04 APERTURE LIST*
%ADD10R,1.500000X0.800000*%
%ADD11C,1.200000*%
%ADD12R,0.800000X1.500000*%
%ADD13C,1.450000*%
%ADD14O,1.200000X1.900000*%
%ADD15C,5.400000*%
%ADD16R,1.500000X5.080000*%
%ADD17R,2.000000X2.000000*%
%ADD18R,1.700000X1.700000*%
%ADD19O,1.700000X1.700000*%
G04 APERTURE END LIST*
D10*
G04 #@! TO.C,J1*
X125400000Y-66500000D03*
D11*
X130400000Y-64000000D03*
X130400000Y-66500000D03*
X120400000Y-64000000D03*
X120400000Y-66500000D03*
X125400000Y-71500000D03*
D12*
X127900000Y-71500000D03*
X122900000Y-71500000D03*
X130400000Y-71500000D03*
X120400000Y-71500000D03*
G04 #@! TD*
D13*
G04 #@! TO.C,J3*
X93200000Y-67150000D03*
X88200000Y-67150000D03*
D14*
X94200000Y-64450000D03*
X87200000Y-64450000D03*
G04 #@! TD*
D15*
G04 #@! TO.C,MH2*
X154000000Y-67000000D03*
G04 #@! TD*
G04 #@! TO.C,MH4*
X71250000Y-109000000D03*
G04 #@! TD*
G04 #@! TO.C,MH3*
X153750000Y-109000000D03*
G04 #@! TD*
G04 #@! TO.C,MH1*
X71250000Y-67000000D03*
G04 #@! TD*
D16*
G04 #@! TO.C,J2*
X143750000Y-65550000D03*
X135250000Y-65550000D03*
G04 #@! TD*
D17*
G04 #@! TO.C,PSU-1*
X107950000Y-65250000D03*
G04 #@! TD*
G04 #@! TO.C,PSU+1*
X98200000Y-65250000D03*
G04 #@! TD*
D18*
G04 #@! TO.C,U2*
X77850000Y-110750000D03*
D19*
X80390000Y-110750000D03*
X82930000Y-110750000D03*
X85470000Y-110750000D03*
X88010000Y-110750000D03*
X90550000Y-110750000D03*
X93090000Y-110750000D03*
X95630000Y-110750000D03*
X98170000Y-110750000D03*
X100710000Y-110750000D03*
X103250000Y-110750000D03*
X105790000Y-110750000D03*
X108330000Y-110750000D03*
X110870000Y-110750000D03*
X113410000Y-110750000D03*
X115950000Y-110750000D03*
G04 #@! TD*
D18*
G04 #@! TO.C,SW2*
X145700000Y-110700000D03*
D19*
X143160000Y-110700000D03*
G04 #@! TD*
G04 #@! TO.C,SW3*
X135510000Y-110700000D03*
D18*
X138050000Y-110700000D03*
G04 #@! TD*
G04 #@! TO.C,SW1*
X130400000Y-110700000D03*
D19*
X127860000Y-110700000D03*
G04 #@! TD*
D18*
G04 #@! TO.C,P1*
X120600000Y-105750000D03*
D19*
X120600000Y-108290000D03*
X120600000Y-110830000D03*
G04 #@! TD*
D17*
G04 #@! TO.C,RX*
X70000000Y-94500000D03*
G04 #@! TD*
G04 #@! TO.C,TX*
X70000000Y-89000000D03*
G04 #@! TD*
M02*
