M48
;DRILL file {KiCad (5.0.0)} date 03/27/19 19:25:12
;FORMAT={-:-/ absolute / metric / decimal}
FMAT,2
METRIC,TZ
T1C0.200
T2C0.250
T3C0.300
T4C1.000
T5C1.200
T6C2.700
T7C0.500
T8C0.600
T9C0.700
%
G90
G05
M71
T1
X68.Y-65.
X68.Y-68.5
X68.Y-71.
X68.Y-73.5
X68.Y-76.
X68.Y-78.5
X68.Y-80.5
X68.Y-82.5
X68.Y-85.
X68.Y-88.
X68.Y-91.
X68.Y-93.5
X68.Y-96.
X68.Y-98.5
X68.Y-101.
X68.Y-103.5
X68.Y-105.5
X68.Y-107.5
X68.Y-110.5
X68.5Y-112.
X69.1Y-97.4
X69.15Y-100.7
X69.35Y-104.1
X69.5Y-63.5
X70.Y-70.5
X70.25Y-81.85
X70.55Y-79.15
X71.Y-105.
X71.Y-112.5
X71.05Y-75.6
X71.05Y-82.9
X71.1Y-78.5
X71.1Y-84.35
X72.Y-63.5
X72.05Y-80.05
X72.1Y-85.7
X72.25Y-87.05
X72.45Y-89.7
X73.Y-70.5
X73.Y-93.9
X73.15Y-97.05
X73.335Y-84.4
X73.35Y-81.5
X73.35Y-100.3
X73.6Y-103.8
X73.65Y-80.05
X74.Y-63.5
X74.1Y-87.7
X74.25Y-91.3
X74.5Y-112.5
X74.8Y-106.7
X74.95Y-79.2
X75.25Y-82.5
X75.5Y-73.
X75.5Y-76.
X76.Y-63.5
X76.9Y-102.15
X77.5Y-112.5
X78.Y-63.5
X78.1Y-82.55
X78.2Y-107.2
X78.6Y-89.75
X78.65Y-89.
X78.75Y-77.25
X78.75Y-79.6
X79.05Y-91.55
X79.35Y-99.55
X79.6Y-85.5
X79.6Y-90.15
X80.Y-63.5
X80.Y-95.5
X80.Y-112.5
X80.085Y-103.25
X80.25Y-88.25
X80.3Y-91.45
X80.6Y-85.5
X80.85Y-90.75
X80.85Y-97.6
X80.887Y-88.232
X81.3Y-101.65
X81.5Y-95.55
X81.6Y-85.25
X81.65Y-91.75
X81.7Y-90.55
X81.8Y-71.
X82.Y-63.5
X82.Y-105.15
X82.Y-107.4
X82.409Y-85.352
X82.5Y-112.5
X82.6Y-70.
X83.009Y-85.354
X83.15Y-91.8
X83.6Y-85.25
X84.Y-63.5
X84.1Y-83.75
X84.1Y-84.75
X84.1Y-91.
X84.305Y-83.
X84.35Y-73.85
X84.35Y-92.25
X84.8Y-95.75
X85.Y-112.5
X85.4Y-95.75
X85.5Y-63.5
X85.5Y-65.5
X85.5Y-67.5
X85.5Y-69.5
X85.5Y-71.5
X86.Y-95.75
X86.55Y-83.05
X86.6Y-95.75
X86.85Y-82.025
X87.Y-72.
X87.25Y-95.75
X87.5Y-112.5
X87.85Y-81.
X87.85Y-95.75
X88.5Y-72.
X88.6Y-95.75
X88.9Y-76.1
X88.9Y-76.85
X89.4Y-71.6
X89.443Y-81.53
X89.6Y-74.
X89.6Y-94.25
X89.7Y-75.55
X89.7Y-78.25
X90.Y-112.5
X90.1Y-93.75
X90.2Y-71.6
X90.4Y-78.25
X90.45Y-75.55
X90.45Y-105.85
X91.4Y-68.4
X91.4Y-72.
X91.9Y-94.4
X92.313Y-99.768
X92.5Y-112.5
X92.85Y-82.5
X92.85Y-83.15
X92.85Y-99.5
X93.Y-72.
X93.089Y-98.761
X93.8Y-94.4
X93.95Y-106.85
X94.3Y-86.5
X94.313Y-101.018
X94.85Y-100.55
X95.Y-72.
X95.2Y-86.5
X95.2Y-104.35
X95.5Y-112.5
X95.8Y-98.3
X95.85Y-96.015
X96.085Y-85.5
X96.4Y-102.3
X96.5Y-63.5
X96.5Y-66.
X96.5Y-68.
X96.5Y-70.
X96.5Y-72.
X96.7Y-90.6
X96.85Y-92.
X97.05Y-98.3
X97.25Y-91.25
X97.3Y-107.1
X97.65Y-93.15
X98.2Y-94.5
X98.35Y-98.3
X98.5Y-112.5
X98.6Y-90.75
X98.75Y-92.05
X98.9Y-84.9
X99.45Y-104.7
X99.5Y-93.35
X99.6Y-98.3
X100.066Y-72.466
X100.15Y-102.15
X100.2Y-90.75
X100.415Y-80.945
X100.75Y-107.1
X100.85Y-98.3
X100.95Y-92.
X101.5Y-112.5
X101.6Y-84.9
X101.6Y-91.25
X101.85Y-78.75
X102.4Y-83.6
X102.4Y-84.55
X102.4Y-85.65
X102.4Y-86.7
X102.55Y-76.45
X102.55Y-82.95
X102.7Y-91.85
X102.75Y-94.65
X102.85Y-88.2
X102.85Y-90.55
X103.05Y-87.35
X103.1Y-102.15
X103.1Y-104.55
X103.35Y-77.735
X103.35Y-79.5
X103.35Y-82.05
X103.5Y-82.95
X103.85Y-79.6
X103.85Y-82.1
X103.85Y-88.2
X103.85Y-90.55
X103.85Y-91.75
X104.Y-87.35
X104.4Y-82.95
X104.5Y-112.5
X104.6Y-93.5
X104.65Y-107.05
X104.85Y-88.2
X104.85Y-90.55
X104.85Y-91.75
X104.95Y-87.35
X105.1Y-70.515
X105.1Y-73.25
X105.35Y-75.55
X105.4Y-82.95
X105.6Y-78.05
X105.9Y-87.35
X106.Y-63.5
X106.35Y-76.45
X106.45Y-82.95
X106.5Y-102.25
X106.8Y-83.95
X106.8Y-84.9
X106.8Y-85.9
X106.8Y-86.95
X106.85Y-82.25
X106.85Y-91.
X107.1Y-93.25
X107.2Y-104.75
X107.35Y-79.
X107.5Y-79.6
X107.5Y-112.5
X107.55Y-83.4
X107.6Y-85.9
X107.6Y-86.9
X107.6Y-87.4
X108.Y-63.5
X108.5Y-107.2
X110.Y-63.5
X110.Y-112.5
X110.15Y-76.75
X110.15Y-83.4
X110.2Y-87.1
X110.2Y-87.8
X110.25Y-85.95
X110.571Y-93.279
X111.15Y-83.4
X111.6Y-93.25
X111.6Y-107.8
X111.8Y-84.9
X111.8Y-102.1
X112.15Y-83.4
X112.5Y-63.5
X112.5Y-85.55
X112.5Y-104.7
X112.5Y-112.5
X113.1Y-83.4
X113.25Y-84.5
X113.3Y-86.35
X113.6Y-106.5
X114.5Y-99.75
X114.55Y-103.1
X114.615Y-79.9
X115.Y-63.5
X115.Y-112.5
X115.6Y-107.25
X115.7Y-98.55
X115.887Y-84.5
X115.9Y-86.5
X116.75Y-94.15
X116.9Y-78.5
X116.9Y-79.9
X116.95Y-81.35
X116.95Y-82.8
X117.1Y-90.8
X117.2Y-88.
X117.5Y-63.5
X117.5Y-98.75
X117.5Y-112.5
X117.585Y-102.25
X117.85Y-86.35
X117.9Y-100.05
X118.1Y-90.7
X118.193Y-79.395
X118.2Y-77.2
X118.5Y-84.7
X118.585Y-89.25
X118.704Y-79.796
X118.8Y-77.9
X119.Y-63.5
X119.Y-65.5
X119.05Y-98.4
X119.45Y-81.3
X119.5Y-67.5
X119.75Y-85.5
X119.85Y-94.45
X119.9Y-90.85
X119.95Y-92.55
X120.Y-112.5
X120.335Y-101.
X120.7Y-82.6
X120.8Y-84.2
X121.65Y-97.6
X121.75Y-96.25
X121.8Y-102.3
X121.85Y-93.75
X121.95Y-91.25
X122.Y-63.5
X122.5Y-112.5
X122.95Y-87.3
X123.Y-70.
X123.Y-73.
X123.25Y-81.65
X124.Y-66.5
X124.Y-71.5
X124.4Y-93.75
X124.55Y-88.45
X125.Y-112.5
X125.1Y-83.65
X125.4Y-102.7
X125.5Y-65.5
X125.5Y-67.5
X125.65Y-81.2
X125.65Y-89.75
X125.65Y-92.5
X126.65Y-93.9
X127.Y-66.5
X127.Y-106.8
X127.Y-112.5
X127.15Y-80.15
X127.2Y-85.75
X128.5Y-63.5
X129.Y-112.5
X129.75Y-87.85
X131.Y-76.295
X131.5Y-63.5
X131.5Y-112.5
X132.15Y-88.35
X133.Y-63.5
X133.2Y-95.
X133.5Y-102.7
X134.Y-112.5
X134.5Y-63.35
X134.5Y-64.1
X134.5Y-65.15
X134.5Y-66.05
X134.5Y-67.2
X134.5Y-68.25
X134.55Y-91.25
X134.95Y-68.95
X135.024Y-86.
X135.5Y-85.576
X135.75Y-68.95
X135.75Y-95.65
X136.Y-97.25
X136.Y-112.5
X136.65Y-68.9
X136.75Y-87.44
X136.75Y-92.
X136.95Y-94.2
X137.15Y-92.75
X137.4Y-63.4
X137.45Y-64.3
X137.45Y-65.25
X137.45Y-66.25
X137.45Y-68.35
X137.5Y-67.3
X137.75Y-89.5
X137.75Y-97.
X138.Y-90.5
X138.Y-92.25
X138.4Y-86.1
X138.45Y-95.9
X138.5Y-112.5
X139.3Y-85.9
X139.65Y-68.85
X139.65Y-69.75
X139.65Y-70.65
X139.65Y-71.7
X139.65Y-72.6
X139.65Y-73.65
X139.65Y-75.
X139.65Y-76.15
X139.65Y-77.
X140.Y-98.75
X140.05Y-97.9
X140.5Y-112.5
X140.9Y-68.9
X140.9Y-69.75
X140.9Y-70.55
X140.9Y-71.65
X140.9Y-72.6
X140.9Y-73.65
X140.9Y-75.
X140.9Y-76.15
X140.9Y-77.
X140.905Y-97.
X141.25Y-86.45
X141.3Y-92.75
X141.5Y-87.15
X142.13Y-103.7
X143.Y-112.5
X143.05Y-63.45
X143.05Y-64.3
X143.05Y-65.25
X143.05Y-66.3
X143.05Y-67.25
X143.05Y-68.2
X143.35Y-107.6
X143.5Y-83.5
X143.7Y-69.15
X144.25Y-98.6
X144.6Y-69.15
X145.Y-112.5
X145.55Y-69.15
X146.15Y-63.5
X146.15Y-64.35
X146.15Y-65.3
X146.15Y-66.35
X146.15Y-67.35
X146.15Y-68.45
X146.75Y-98.6
X147.Y-110.
X147.Y-112.5
X148.Y-63.5
X149.Y-95.
X149.Y-112.5
X149.5Y-109.
X149.5Y-111.
X149.6Y-85.05
X149.6Y-85.95
X150.Y-63.5
X150.Y-65.
X150.Y-67.
X150.Y-106.5
X150.1Y-99.3
X150.25Y-86.7
X150.5Y-84.4
X151.Y-69.
X151.2Y-83.9
X151.25Y-80.
X151.45Y-94.
X151.45Y-100.15
X151.5Y-112.5
X151.85Y-86.8
X152.Y-63.5
X152.Y-105.
X152.679Y-94.679
X152.7Y-86.9
X152.7Y-99.3
X152.8Y-84.15
X153.5Y-70.5
X153.5Y-112.5
X153.7Y-86.55
X153.95Y-84.7
X154.Y-63.5
X154.15Y-85.7
X155.Y-105.
X155.5Y-90.5
X155.5Y-112.5
X156.Y-63.5
X156.Y-70.5
X157.Y-111.5
X157.5Y-65.
X157.5Y-67.
X157.5Y-69.
X157.5Y-71.
X157.5Y-73.
X157.5Y-75.5
X157.5Y-78.
X157.5Y-80.5
X157.5Y-83.
X157.5Y-85.5
X157.5Y-88.
X157.5Y-90.5
X157.5Y-91.5
X157.5Y-93.
X157.5Y-94.5
X157.5Y-96.
X157.5Y-97.5
X157.5Y-99.
X157.5Y-100.5
X157.5Y-102.
X157.5Y-103.5
X157.5Y-105.5
X157.5Y-107.5
X157.5Y-109.5
T2
X102.1Y-72.35
X102.1Y-73.35
T3
X69.41Y-84.883
X69.75Y-81.
X92.85Y-86.25
X93.738Y-83.224
X97.1Y-88.8
X97.35Y-81.395
X147.Y-96.75
X147.75Y-97.5
X148.75Y-95.75
X149.793Y-96.7
T4
X70.Y-94.6
X127.86Y-110.5
X130.4Y-110.5
X77.85Y-110.5
X80.39Y-110.5
X82.93Y-110.5
X85.47Y-110.5
X88.01Y-110.5
X90.55Y-110.5
X93.09Y-110.5
X95.63Y-110.5
X98.17Y-110.5
X100.71Y-110.5
X103.25Y-110.5
X105.79Y-110.5
X108.33Y-110.5
X110.87Y-110.5
X113.41Y-110.5
X115.95Y-110.5
X70.Y-89.
X143.16Y-110.5
X145.7Y-110.5
X135.51Y-110.5
X138.05Y-110.5
X98.8Y-65.5
X108.Y-65.5
X120.6Y-105.5
X120.6Y-108.04
X120.6Y-110.58
T5
X120.4Y-64.
X120.4Y-66.5
X125.4Y-71.5
X130.4Y-64.
X130.4Y-66.5
T6
X71.25Y-67.
X153.75Y-109.
X71.25Y-109.
X154.Y-67.
T8
X94.6Y-68.05
T1
X120.4Y-71.1G85X120.4Y-71.9
G05
X122.9Y-71.1G85X122.9Y-71.9
G05
X125.8Y-66.5G85X125.Y-66.5
G05
X127.9Y-71.1G85X127.9Y-71.9
G05
X130.4Y-71.1G85X130.4Y-71.9
G05
T7
X87.575Y-68.115G85X87.225Y-68.115
G05
T8
X86.68Y-70.75G85X86.68Y-69.35
G05
X95.32Y-70.75G85X95.32Y-69.35
G05
T9
X86.68Y-65.75G85X86.68Y-64.25
G05
X87.275Y-69.4G85X86.725Y-69.4
G05
X95.275Y-69.4G85X94.725Y-69.4
G05
X95.32Y-65.75G85X95.32Y-64.25
G05
T0
M30
