G04 #@! TF.GenerationSoftware,KiCad,Pcbnew,(5.0.0)*
G04 #@! TF.CreationDate,2019-03-27T19:24:55+01:00*
G04 #@! TF.ProjectId,rf-receiver,72662D72656365697665722E6B696361,rev?*
G04 #@! TF.SameCoordinates,Original*
G04 #@! TF.FileFunction,Legend,Top*
G04 #@! TF.FilePolarity,Positive*
%FSLAX46Y46*%
G04 Gerber Fmt 4.6, Leading zero omitted, Abs format (unit mm)*
G04 Created by KiCad (PCBNEW (5.0.0)) date 03/27/19 19:24:55*
%MOMM*%
%LPD*%
G01*
G04 APERTURE LIST*
%ADD10C,0.250000*%
%ADD11C,0.120000*%
%ADD12C,0.150000*%
%ADD13C,0.100000*%
%ADD14C,0.125000*%
G04 APERTURE END LIST*
D10*
X98857142Y-104377380D02*
X98523809Y-103901190D01*
X98285714Y-104377380D02*
X98285714Y-103377380D01*
X98666666Y-103377380D01*
X98761904Y-103425000D01*
X98809523Y-103472619D01*
X98857142Y-103567857D01*
X98857142Y-103710714D01*
X98809523Y-103805952D01*
X98761904Y-103853571D01*
X98666666Y-103901190D01*
X98285714Y-103901190D01*
X99619047Y-103853571D02*
X99285714Y-103853571D01*
X99285714Y-104377380D02*
X99285714Y-103377380D01*
X99761904Y-103377380D01*
X101476190Y-104377380D02*
X101142857Y-103901190D01*
X100904761Y-104377380D02*
X100904761Y-103377380D01*
X101285714Y-103377380D01*
X101380952Y-103425000D01*
X101428571Y-103472619D01*
X101476190Y-103567857D01*
X101476190Y-103710714D01*
X101428571Y-103805952D01*
X101380952Y-103853571D01*
X101285714Y-103901190D01*
X100904761Y-103901190D01*
X102285714Y-104329761D02*
X102190476Y-104377380D01*
X102000000Y-104377380D01*
X101904761Y-104329761D01*
X101857142Y-104234523D01*
X101857142Y-103853571D01*
X101904761Y-103758333D01*
X102000000Y-103710714D01*
X102190476Y-103710714D01*
X102285714Y-103758333D01*
X102333333Y-103853571D01*
X102333333Y-103948809D01*
X101857142Y-104044047D01*
X103190476Y-104329761D02*
X103095238Y-104377380D01*
X102904761Y-104377380D01*
X102809523Y-104329761D01*
X102761904Y-104282142D01*
X102714285Y-104186904D01*
X102714285Y-103901190D01*
X102761904Y-103805952D01*
X102809523Y-103758333D01*
X102904761Y-103710714D01*
X103095238Y-103710714D01*
X103190476Y-103758333D01*
X104000000Y-104329761D02*
X103904761Y-104377380D01*
X103714285Y-104377380D01*
X103619047Y-104329761D01*
X103571428Y-104234523D01*
X103571428Y-103853571D01*
X103619047Y-103758333D01*
X103714285Y-103710714D01*
X103904761Y-103710714D01*
X104000000Y-103758333D01*
X104047619Y-103853571D01*
X104047619Y-103948809D01*
X103571428Y-104044047D01*
X104476190Y-104377380D02*
X104476190Y-103710714D01*
X104476190Y-103377380D02*
X104428571Y-103425000D01*
X104476190Y-103472619D01*
X104523809Y-103425000D01*
X104476190Y-103377380D01*
X104476190Y-103472619D01*
X104857142Y-103710714D02*
X105095238Y-104377380D01*
X105333333Y-103710714D01*
X106095238Y-104329761D02*
X106000000Y-104377380D01*
X105809523Y-104377380D01*
X105714285Y-104329761D01*
X105666666Y-104234523D01*
X105666666Y-103853571D01*
X105714285Y-103758333D01*
X105809523Y-103710714D01*
X106000000Y-103710714D01*
X106095238Y-103758333D01*
X106142857Y-103853571D01*
X106142857Y-103948809D01*
X105666666Y-104044047D01*
X106571428Y-104377380D02*
X106571428Y-103710714D01*
X106571428Y-103901190D02*
X106619047Y-103805952D01*
X106666666Y-103758333D01*
X106761904Y-103710714D01*
X106857142Y-103710714D01*
X99547619Y-106127380D02*
X98976190Y-106127380D01*
X99261904Y-106127380D02*
X99261904Y-105127380D01*
X99166666Y-105270238D01*
X99071428Y-105365476D01*
X98976190Y-105413095D01*
X100023809Y-106127380D02*
X100214285Y-106127380D01*
X100309523Y-106079761D01*
X100357142Y-106032142D01*
X100452380Y-105889285D01*
X100500000Y-105698809D01*
X100500000Y-105317857D01*
X100452380Y-105222619D01*
X100404761Y-105175000D01*
X100309523Y-105127380D01*
X100119047Y-105127380D01*
X100023809Y-105175000D01*
X99976190Y-105222619D01*
X99928571Y-105317857D01*
X99928571Y-105555952D01*
X99976190Y-105651190D01*
X100023809Y-105698809D01*
X100119047Y-105746428D01*
X100309523Y-105746428D01*
X100404761Y-105698809D01*
X100452380Y-105651190D01*
X100500000Y-105555952D01*
X101452380Y-106127380D02*
X100880952Y-106127380D01*
X101166666Y-106127380D02*
X101166666Y-105127380D01*
X101071428Y-105270238D01*
X100976190Y-105365476D01*
X100880952Y-105413095D01*
X101833333Y-105222619D02*
X101880952Y-105175000D01*
X101976190Y-105127380D01*
X102214285Y-105127380D01*
X102309523Y-105175000D01*
X102357142Y-105222619D01*
X102404761Y-105317857D01*
X102404761Y-105413095D01*
X102357142Y-105555952D01*
X101785714Y-106127380D01*
X102404761Y-106127380D01*
X102833333Y-105746428D02*
X103595238Y-105746428D01*
X104785714Y-105841666D02*
X105261904Y-105841666D01*
X104690476Y-106127380D02*
X105023809Y-105127380D01*
X105357142Y-106127380D01*
X105547619Y-105127380D02*
X106119047Y-105127380D01*
X105833333Y-106127380D02*
X105833333Y-105127380D01*
D11*
G04 #@! TO.C,C55*
X88910000Y-74624721D02*
X88910000Y-74950279D01*
X87890000Y-74624721D02*
X87890000Y-74950279D01*
G04 #@! TO.C,-*
X106800000Y-66700000D02*
X106800000Y-64300000D01*
X109200000Y-66700000D02*
X106800000Y-66700000D01*
X109200000Y-64300000D02*
X109200000Y-66700000D01*
X106800000Y-64300000D02*
X109200000Y-64300000D01*
G04 #@! TO.C,+*
X97600000Y-64300000D02*
X100000000Y-64300000D01*
X100000000Y-64300000D02*
X100000000Y-66700000D01*
X100000000Y-66700000D02*
X97600000Y-66700000D01*
X97600000Y-66700000D02*
X97600000Y-64300000D01*
G04 #@! TO.C,W1*
X68800000Y-90200000D02*
X68800000Y-87800000D01*
X71200000Y-90200000D02*
X68800000Y-90200000D01*
X71200000Y-87800000D02*
X71200000Y-90200000D01*
X68800000Y-87800000D02*
X71200000Y-87800000D01*
G04 #@! TO.C,W2*
X68800000Y-93400000D02*
X71200000Y-93400000D01*
X71200000Y-93400000D02*
X71200000Y-95800000D01*
X71200000Y-95800000D02*
X68800000Y-95800000D01*
X68800000Y-95800000D02*
X68800000Y-93400000D01*
G04 #@! TO.C,C1*
X75837221Y-99810000D02*
X76162779Y-99810000D01*
X75837221Y-98790000D02*
X76162779Y-98790000D01*
G04 #@! TO.C,C62*
X135152221Y-77290000D02*
X135477779Y-77290000D01*
X135152221Y-78310000D02*
X135477779Y-78310000D01*
G04 #@! TO.C,C61*
X135137221Y-79760000D02*
X135462779Y-79760000D01*
X135137221Y-78740000D02*
X135462779Y-78740000D01*
G04 #@! TO.C,C59*
X141912779Y-99260000D02*
X141587221Y-99260000D01*
X141912779Y-98240000D02*
X141587221Y-98240000D01*
G04 #@! TO.C,C57*
X152662779Y-80740000D02*
X152337221Y-80740000D01*
X152662779Y-81760000D02*
X152337221Y-81760000D01*
G04 #@! TO.C,C56*
X152662779Y-83310000D02*
X152337221Y-83310000D01*
X152662779Y-82290000D02*
X152337221Y-82290000D01*
G04 #@! TO.C,C54*
X115277779Y-90640000D02*
X114952221Y-90640000D01*
X115277779Y-91660000D02*
X114952221Y-91660000D01*
G04 #@! TO.C,C53*
X139662779Y-85010000D02*
X139337221Y-85010000D01*
X139662779Y-83990000D02*
X139337221Y-83990000D01*
G04 #@! TO.C,C51*
X144087221Y-88710000D02*
X144412779Y-88710000D01*
X144087221Y-87690000D02*
X144412779Y-87690000D01*
G04 #@! TO.C,C82*
X96360000Y-96337221D02*
X96360000Y-96662779D01*
X95340000Y-96337221D02*
X95340000Y-96662779D01*
G04 #@! TO.C,C49*
X139337221Y-83510000D02*
X139662779Y-83510000D01*
X139337221Y-82490000D02*
X139662779Y-82490000D01*
G04 #@! TO.C,C47*
X139337221Y-81040000D02*
X139662779Y-81040000D01*
X139337221Y-82060000D02*
X139662779Y-82060000D01*
G04 #@! TO.C,C46*
X150162779Y-82290000D02*
X149837221Y-82290000D01*
X150162779Y-83310000D02*
X149837221Y-83310000D01*
G04 #@! TO.C,C45*
X139662779Y-78610000D02*
X139337221Y-78610000D01*
X139662779Y-77590000D02*
X139337221Y-77590000D01*
G04 #@! TO.C,C44*
X118262779Y-88740000D02*
X117937221Y-88740000D01*
X118262779Y-89760000D02*
X117937221Y-89760000D01*
G04 #@! TO.C,C43*
X73012779Y-79010000D02*
X72687221Y-79010000D01*
X73012779Y-77990000D02*
X72687221Y-77990000D01*
G04 #@! TO.C,C42*
X116890000Y-72037221D02*
X116890000Y-72362779D01*
X117910000Y-72037221D02*
X117910000Y-72362779D01*
G04 #@! TO.C,C83*
X114937221Y-93590000D02*
X115262779Y-93590000D01*
X114937221Y-94610000D02*
X115262779Y-94610000D01*
G04 #@! TO.C,C85*
X96590000Y-96337221D02*
X96590000Y-96662779D01*
X97610000Y-96337221D02*
X97610000Y-96662779D01*
G04 #@! TO.C,C63*
X141912779Y-100710000D02*
X141587221Y-100710000D01*
X141912779Y-99690000D02*
X141587221Y-99690000D01*
G04 #@! TO.C,C71*
X155337221Y-99710000D02*
X155662779Y-99710000D01*
X155337221Y-98690000D02*
X155662779Y-98690000D01*
G04 #@! TO.C,C72*
X155337221Y-100190000D02*
X155662779Y-100190000D01*
X155337221Y-101210000D02*
X155662779Y-101210000D01*
G04 #@! TO.C,C80*
X114922221Y-96110000D02*
X115247779Y-96110000D01*
X114922221Y-95090000D02*
X115247779Y-95090000D01*
G04 #@! TO.C,C75*
X155337221Y-101690000D02*
X155662779Y-101690000D01*
X155337221Y-102710000D02*
X155662779Y-102710000D01*
G04 #@! TO.C,C77*
X100722221Y-69510000D02*
X101047779Y-69510000D01*
X100722221Y-68490000D02*
X101047779Y-68490000D01*
G04 #@! TO.C,C79*
X103262779Y-70910000D02*
X102937221Y-70910000D01*
X103262779Y-69890000D02*
X102937221Y-69890000D01*
G04 #@! TO.C,C48*
X150147779Y-80740000D02*
X149822221Y-80740000D01*
X150147779Y-81760000D02*
X149822221Y-81760000D01*
G04 #@! TO.C,C50*
X121762779Y-86010000D02*
X121437221Y-86010000D01*
X121762779Y-84990000D02*
X121437221Y-84990000D01*
G04 #@! TO.C,C69*
X155337221Y-96760000D02*
X155662779Y-96760000D01*
X155337221Y-95740000D02*
X155662779Y-95740000D01*
G04 #@! TO.C,C68*
X155322221Y-94290000D02*
X155647779Y-94290000D01*
X155322221Y-95310000D02*
X155647779Y-95310000D01*
G04 #@! TO.C,C67*
X155337221Y-93810000D02*
X155662779Y-93810000D01*
X155337221Y-92790000D02*
X155662779Y-92790000D01*
G04 #@! TO.C,C66*
X155337221Y-91290000D02*
X155662779Y-91290000D01*
X155337221Y-92310000D02*
X155662779Y-92310000D01*
G04 #@! TO.C,C65*
X135462779Y-72340000D02*
X135137221Y-72340000D01*
X135462779Y-73360000D02*
X135137221Y-73360000D01*
G04 #@! TO.C,C73*
X121662779Y-78660000D02*
X121337221Y-78660000D01*
X121662779Y-77640000D02*
X121337221Y-77640000D01*
G04 #@! TO.C,C20*
X101590000Y-96337221D02*
X101590000Y-96662779D01*
X102610000Y-96337221D02*
X102610000Y-96662779D01*
G04 #@! TO.C,C19*
X112860000Y-96322221D02*
X112860000Y-96647779D01*
X111840000Y-96322221D02*
X111840000Y-96647779D01*
G04 #@! TO.C,C70*
X155337221Y-98260000D02*
X155662779Y-98260000D01*
X155337221Y-97240000D02*
X155662779Y-97240000D01*
G04 #@! TO.C,C40*
X117437221Y-67290000D02*
X117762779Y-67290000D01*
X117437221Y-68310000D02*
X117762779Y-68310000D01*
G04 #@! TO.C,C18*
X98860000Y-96662779D02*
X98860000Y-96337221D01*
X97840000Y-96662779D02*
X97840000Y-96337221D01*
G04 #@! TO.C,C16*
X73012779Y-83460000D02*
X72687221Y-83460000D01*
X73012779Y-82440000D02*
X72687221Y-82440000D01*
G04 #@! TO.C,C15*
X81040000Y-93602221D02*
X81040000Y-93927779D01*
X82060000Y-93602221D02*
X82060000Y-93927779D01*
G04 #@! TO.C,C14*
X73012779Y-84910000D02*
X72687221Y-84910000D01*
X73012779Y-83890000D02*
X72687221Y-83890000D01*
G04 #@! TO.C,C13*
X79490000Y-93587221D02*
X79490000Y-93912779D01*
X80510000Y-93587221D02*
X80510000Y-93912779D01*
G04 #@! TO.C,C12*
X90937221Y-82490000D02*
X91262779Y-82490000D01*
X90937221Y-83510000D02*
X91262779Y-83510000D01*
G04 #@! TO.C,C41*
X118037221Y-76760000D02*
X118362779Y-76760000D01*
X118037221Y-75740000D02*
X118362779Y-75740000D01*
G04 #@! TO.C,C9*
X91937221Y-102740000D02*
X92262779Y-102740000D01*
X91937221Y-103760000D02*
X92262779Y-103760000D01*
G04 #@! TO.C,C7*
X142437221Y-107110000D02*
X142762779Y-107110000D01*
X142437221Y-106090000D02*
X142762779Y-106090000D01*
G04 #@! TO.C,C6*
X126037221Y-105190000D02*
X126362779Y-105190000D01*
X126037221Y-106210000D02*
X126362779Y-106210000D01*
G04 #@! TO.C,C5*
X102310000Y-77412779D02*
X102310000Y-77087221D01*
X101290000Y-77412779D02*
X101290000Y-77087221D01*
G04 #@! TO.C,C4*
X116937221Y-100490000D02*
X117262779Y-100490000D01*
X116937221Y-101510000D02*
X117262779Y-101510000D01*
G04 #@! TO.C,C3*
X119702221Y-102760000D02*
X120027779Y-102760000D01*
X119702221Y-101740000D02*
X120027779Y-101740000D01*
G04 #@! TO.C,C2*
X77512779Y-97460000D02*
X77187221Y-97460000D01*
X77512779Y-96440000D02*
X77187221Y-96440000D01*
G04 #@! TO.C,C11*
X73012779Y-75090000D02*
X72687221Y-75090000D01*
X73012779Y-76110000D02*
X72687221Y-76110000D01*
G04 #@! TO.C,C39*
X116110000Y-72037221D02*
X116110000Y-72362779D01*
X115090000Y-72037221D02*
X115090000Y-72362779D01*
G04 #@! TO.C,C74*
X121662779Y-76190000D02*
X121337221Y-76190000D01*
X121662779Y-77210000D02*
X121337221Y-77210000D01*
G04 #@! TO.C,C8*
X134137221Y-105240000D02*
X134462779Y-105240000D01*
X134137221Y-106260000D02*
X134462779Y-106260000D01*
G04 #@! TO.C,C29*
X100110000Y-96647779D02*
X100110000Y-96322221D01*
X99090000Y-96647779D02*
X99090000Y-96322221D01*
G04 #@! TO.C,C38*
X114837221Y-75740000D02*
X115162779Y-75740000D01*
X114837221Y-76760000D02*
X115162779Y-76760000D01*
G04 #@! TO.C,C37*
X114237221Y-68310000D02*
X114562779Y-68310000D01*
X114237221Y-67290000D02*
X114562779Y-67290000D01*
G04 #@! TO.C,C36*
X114410000Y-72037221D02*
X114410000Y-72362779D01*
X113390000Y-72037221D02*
X113390000Y-72362779D01*
G04 #@! TO.C,C35*
X111637221Y-76760000D02*
X111962779Y-76760000D01*
X111637221Y-75740000D02*
X111962779Y-75740000D01*
G04 #@! TO.C,C34*
X111037221Y-67290000D02*
X111362779Y-67290000D01*
X111037221Y-68310000D02*
X111362779Y-68310000D01*
G04 #@! TO.C,C33*
X111690000Y-72037221D02*
X111690000Y-72362779D01*
X112710000Y-72037221D02*
X112710000Y-72362779D01*
G04 #@! TO.C,C32*
X106590000Y-77412779D02*
X106590000Y-77087221D01*
X107610000Y-77412779D02*
X107610000Y-77087221D01*
G04 #@! TO.C,C21*
X109090000Y-96322221D02*
X109090000Y-96647779D01*
X110110000Y-96322221D02*
X110110000Y-96647779D01*
G04 #@! TO.C,C30*
X106110000Y-77087221D02*
X106110000Y-77412779D01*
X105090000Y-77087221D02*
X105090000Y-77412779D01*
G04 #@! TO.C,C10*
X79762779Y-102740000D02*
X79437221Y-102740000D01*
X79762779Y-103760000D02*
X79437221Y-103760000D01*
G04 #@! TO.C,C22*
X115262779Y-78960000D02*
X114937221Y-78960000D01*
X115262779Y-77940000D02*
X114937221Y-77940000D01*
G04 #@! TO.C,C23*
X102840000Y-77087221D02*
X102840000Y-77412779D01*
X103860000Y-77087221D02*
X103860000Y-77412779D01*
G04 #@! TO.C,C24*
X115262779Y-80410000D02*
X114937221Y-80410000D01*
X115262779Y-79390000D02*
X114937221Y-79390000D01*
G04 #@! TO.C,C25*
X115262779Y-89190000D02*
X114937221Y-89190000D01*
X115262779Y-90210000D02*
X114937221Y-90210000D01*
G04 #@! TO.C,C31*
X114952221Y-82290000D02*
X115277779Y-82290000D01*
X114952221Y-83310000D02*
X115277779Y-83310000D01*
G04 #@! TO.C,C28*
X95437221Y-86010000D02*
X95762779Y-86010000D01*
X95437221Y-84990000D02*
X95762779Y-84990000D01*
G04 #@! TO.C,C17*
X115262779Y-88760000D02*
X114937221Y-88760000D01*
X115262779Y-87740000D02*
X114937221Y-87740000D01*
G04 #@! TO.C,C26*
X101360000Y-96662779D02*
X101360000Y-96337221D01*
X100340000Y-96662779D02*
X100340000Y-96337221D01*
G04 #@! TO.C,C27*
X115262779Y-93110000D02*
X114937221Y-93110000D01*
X115262779Y-92090000D02*
X114937221Y-92090000D01*
G04 #@! TO.C,L2*
X111037221Y-70110000D02*
X111362779Y-70110000D01*
X111037221Y-69090000D02*
X111362779Y-69090000D01*
G04 #@! TO.C,L3*
X111962779Y-75110000D02*
X111637221Y-75110000D01*
X111962779Y-74090000D02*
X111637221Y-74090000D01*
G04 #@! TO.C,L7*
X118362779Y-74090000D02*
X118037221Y-74090000D01*
X118362779Y-75110000D02*
X118037221Y-75110000D01*
G04 #@! TO.C,L4*
X114237221Y-69090000D02*
X114562779Y-69090000D01*
X114237221Y-70110000D02*
X114562779Y-70110000D01*
G04 #@! TO.C,L6*
X117437221Y-70110000D02*
X117762779Y-70110000D01*
X117437221Y-69090000D02*
X117762779Y-69090000D01*
G04 #@! TO.C,L5*
X115162779Y-75110000D02*
X114837221Y-75110000D01*
X115162779Y-74090000D02*
X114837221Y-74090000D01*
G04 #@! TO.C,R32*
X121662779Y-75710000D02*
X121337221Y-75710000D01*
X121662779Y-74690000D02*
X121337221Y-74690000D01*
G04 #@! TO.C,R26*
X152662779Y-79290000D02*
X152337221Y-79290000D01*
X152662779Y-80310000D02*
X152337221Y-80310000D01*
G04 #@! TO.C,R27*
X152662779Y-78860000D02*
X152337221Y-78860000D01*
X152662779Y-77840000D02*
X152337221Y-77840000D01*
G04 #@! TO.C,R29*
X135137221Y-76860000D02*
X135462779Y-76860000D01*
X135137221Y-75840000D02*
X135462779Y-75840000D01*
G04 #@! TO.C,R30*
X135137221Y-80190000D02*
X135462779Y-80190000D01*
X135137221Y-81210000D02*
X135462779Y-81210000D01*
G04 #@! TO.C,R31*
X121662779Y-79090000D02*
X121337221Y-79090000D01*
X121662779Y-80110000D02*
X121337221Y-80110000D01*
G04 #@! TO.C,R33*
X104590000Y-71162779D02*
X104590000Y-70837221D01*
X105610000Y-71162779D02*
X105610000Y-70837221D01*
G04 #@! TO.C,R22*
X149822221Y-80310000D02*
X150147779Y-80310000D01*
X149822221Y-79290000D02*
X150147779Y-79290000D01*
G04 #@! TO.C,R8*
X126362779Y-104710000D02*
X126037221Y-104710000D01*
X126362779Y-103690000D02*
X126037221Y-103690000D01*
G04 #@! TO.C,R6*
X142452221Y-104210000D02*
X142777779Y-104210000D01*
X142452221Y-103190000D02*
X142777779Y-103190000D01*
G04 #@! TO.C,R5*
X126037221Y-102190000D02*
X126362779Y-102190000D01*
X126037221Y-103210000D02*
X126362779Y-103210000D01*
G04 #@! TO.C,R23*
X150162779Y-77840000D02*
X149837221Y-77840000D01*
X150162779Y-78860000D02*
X149837221Y-78860000D01*
G04 #@! TO.C,R3*
X86290000Y-74962779D02*
X86290000Y-74637221D01*
X87310000Y-74962779D02*
X87310000Y-74637221D01*
G04 #@! TO.C,R4*
X85710000Y-74962779D02*
X85710000Y-74637221D01*
X84690000Y-74962779D02*
X84690000Y-74637221D01*
G04 #@! TO.C,R24*
X144087221Y-84190000D02*
X144412779Y-84190000D01*
X144087221Y-85210000D02*
X144412779Y-85210000D01*
G04 #@! TO.C,R9*
X142747779Y-104640000D02*
X142422221Y-104640000D01*
X142747779Y-105660000D02*
X142422221Y-105660000D01*
G04 #@! TO.C,R1*
X119687221Y-100490000D02*
X120012779Y-100490000D01*
X119687221Y-101510000D02*
X120012779Y-101510000D01*
G04 #@! TO.C,R10*
X134462779Y-103690000D02*
X134137221Y-103690000D01*
X134462779Y-104710000D02*
X134137221Y-104710000D01*
G04 #@! TO.C,R7*
X134152221Y-102190000D02*
X134477779Y-102190000D01*
X134152221Y-103210000D02*
X134477779Y-103210000D01*
G04 #@! TO.C,R12*
X79762779Y-104290000D02*
X79437221Y-104290000D01*
X79762779Y-105310000D02*
X79437221Y-105310000D01*
G04 #@! TO.C,R13*
X111610000Y-96352221D02*
X111610000Y-96677779D01*
X110590000Y-96352221D02*
X110590000Y-96677779D01*
G04 #@! TO.C,R16*
X115262779Y-80840000D02*
X114937221Y-80840000D01*
X115262779Y-81860000D02*
X114937221Y-81860000D01*
G04 #@! TO.C,R18*
X72687221Y-76540000D02*
X73012779Y-76540000D01*
X72687221Y-77560000D02*
X73012779Y-77560000D01*
G04 #@! TO.C,R19*
X72687221Y-80560000D02*
X73012779Y-80560000D01*
X72687221Y-79540000D02*
X73012779Y-79540000D01*
G04 #@! TO.C,R20*
X72687221Y-80990000D02*
X73012779Y-80990000D01*
X72687221Y-82010000D02*
X73012779Y-82010000D01*
G04 #@! TO.C,R2*
X117262779Y-101740000D02*
X116937221Y-101740000D01*
X117262779Y-102760000D02*
X116937221Y-102760000D01*
G04 #@! TO.C,R11*
X113090000Y-107162779D02*
X113090000Y-106837221D01*
X114110000Y-107162779D02*
X114110000Y-106837221D01*
G04 #@! TO.C,XTAL1*
X103900000Y-95000000D02*
X103900000Y-98300000D01*
X103900000Y-98300000D02*
X107900000Y-98300000D01*
G04 #@! TO.C,C64*
X135462779Y-74090000D02*
X135137221Y-74090000D01*
X135462779Y-75110000D02*
X135137221Y-75110000D01*
D12*
G04 #@! TO.C,U9*
X150700000Y-94275000D02*
X146300000Y-94275000D01*
X152275000Y-99800000D02*
X146300000Y-99800000D01*
D11*
G04 #@! TO.C,R17*
X109710000Y-74237221D02*
X109710000Y-74562779D01*
X108690000Y-74237221D02*
X108690000Y-74562779D01*
G04 #@! TO.C,R14*
X114937221Y-87010000D02*
X115262779Y-87010000D01*
X114937221Y-85990000D02*
X115262779Y-85990000D01*
G04 #@! TO.C,R25*
X144412779Y-86910000D02*
X144087221Y-86910000D01*
X144412779Y-85890000D02*
X144087221Y-85890000D01*
G04 #@! TO.C,R21*
X139337221Y-80310000D02*
X139662779Y-80310000D01*
X139337221Y-79290000D02*
X139662779Y-79290000D01*
G04 #@! TO.C,R15*
X114937221Y-83990000D02*
X115262779Y-83990000D01*
X114937221Y-85010000D02*
X115262779Y-85010000D01*
G04 #@! TO.C,C78*
X104162779Y-69260000D02*
X103837221Y-69260000D01*
X104162779Y-68240000D02*
X103837221Y-68240000D01*
G04 #@! TO.C,C52*
X143090000Y-70590000D02*
X143090000Y-72940000D01*
X143090000Y-77410000D02*
X143090000Y-75060000D01*
X148845563Y-77410000D02*
X143090000Y-77410000D01*
X148845563Y-70590000D02*
X143090000Y-70590000D01*
X149910000Y-71654437D02*
X149910000Y-72940000D01*
X149910000Y-76345563D02*
X149910000Y-75060000D01*
X149910000Y-76345563D02*
X148845563Y-77410000D01*
X149910000Y-71654437D02*
X148845563Y-70590000D01*
X150937500Y-75847500D02*
X150150000Y-75847500D01*
X150543750Y-76241250D02*
X150543750Y-75453750D01*
G04 #@! TO.C,C76*
X90840000Y-73490000D02*
X90840000Y-75840000D01*
X90840000Y-80310000D02*
X90840000Y-77960000D01*
X96595563Y-80310000D02*
X90840000Y-80310000D01*
X96595563Y-73490000D02*
X90840000Y-73490000D01*
X97660000Y-74554437D02*
X97660000Y-75840000D01*
X97660000Y-79245563D02*
X97660000Y-77960000D01*
X97660000Y-79245563D02*
X96595563Y-80310000D01*
X97660000Y-74554437D02*
X96595563Y-73490000D01*
X98687500Y-78747500D02*
X97900000Y-78747500D01*
X98293750Y-79141250D02*
X98293750Y-78353750D01*
G04 #@! TO.C,J2*
X140500000Y-69410000D02*
X140250000Y-68910000D01*
X140000000Y-69410000D02*
X140500000Y-69410000D01*
X140250000Y-68910000D02*
X140000000Y-69410000D01*
D13*
G04 #@! TO.C,L8*
X109350000Y-71900000D02*
X106350000Y-71900000D01*
X106350000Y-71900000D02*
X106350000Y-68900000D01*
X106350000Y-68900000D02*
X109350000Y-68900000D01*
X109350000Y-68900000D02*
X109350000Y-71900000D01*
D11*
G04 #@! TO.C,TP5*
X143450000Y-96000000D02*
G75*
G03X143450000Y-96000000I-700000J0D01*
G01*
G04 #@! TO.C,TP8*
X145200000Y-101500000D02*
G75*
G03X145200000Y-101500000I-700000J0D01*
G01*
G04 #@! TO.C,TP6*
X153700000Y-89500000D02*
G75*
G03X153700000Y-89500000I-700000J0D01*
G01*
G04 #@! TO.C,TP3*
X153450000Y-85500000D02*
G75*
G03X153450000Y-85500000I-700000J0D01*
G01*
G04 #@! TO.C,TP7*
X143700000Y-90250000D02*
G75*
G03X143700000Y-90250000I-700000J0D01*
G01*
G04 #@! TO.C,TP4*
X147100000Y-84200000D02*
G75*
G03X147100000Y-84200000I-700000J0D01*
G01*
G04 #@! TO.C,U4*
X120950000Y-89860000D02*
X122750000Y-89860000D01*
X122750000Y-86640000D02*
X120300000Y-86640000D01*
G04 #@! TO.C,U11*
X119750000Y-91890000D02*
X117950000Y-91890000D01*
X117950000Y-95110000D02*
X120400000Y-95110000D01*
G04 #@! TO.C,U12*
X94460000Y-96400000D02*
X94460000Y-93950000D01*
X91240000Y-94600000D02*
X91240000Y-96400000D01*
D12*
G04 #@! TO.C,CON1*
X75136000Y-70501800D02*
X74704200Y-70501800D01*
X74704200Y-70501800D02*
X74704200Y-70070000D01*
X74882000Y-63300000D02*
X74700000Y-63300000D01*
X74704200Y-63313600D02*
X74704200Y-63466000D01*
X83264000Y-63300000D02*
X83700000Y-63300000D01*
X83700000Y-63300000D02*
X83700000Y-63720000D01*
X83264000Y-70501800D02*
X83700000Y-70501800D01*
X83700000Y-70501800D02*
X83700000Y-70070000D01*
G04 #@! TO.C,U3*
X88575000Y-97550000D02*
X84125000Y-97550000D01*
X90100000Y-104450000D02*
X84125000Y-104450000D01*
D11*
G04 #@! TO.C,U2*
X117280000Y-111830000D02*
X117280000Y-109170000D01*
X79120000Y-111830000D02*
X117280000Y-111830000D01*
X79120000Y-109170000D02*
X117280000Y-109170000D01*
X79120000Y-111830000D02*
X79120000Y-109170000D01*
X77850000Y-111830000D02*
X76520000Y-111830000D01*
X76520000Y-111830000D02*
X76520000Y-110500000D01*
D12*
G04 #@! TO.C,U8*
X126225000Y-75625000D02*
X126225000Y-75675000D01*
X130375000Y-75625000D02*
X130375000Y-75770000D01*
X130375000Y-80775000D02*
X130375000Y-80630000D01*
X126225000Y-80775000D02*
X126225000Y-80630000D01*
X126225000Y-75625000D02*
X130375000Y-75625000D01*
X126225000Y-80775000D02*
X130375000Y-80775000D01*
X126225000Y-75675000D02*
X124825000Y-75675000D01*
G04 #@! TO.C,U1*
X128675000Y-99875000D02*
X128675000Y-99750000D01*
X124025000Y-99875000D02*
X124025000Y-99650000D01*
X124025000Y-94625000D02*
X124025000Y-94850000D01*
X128675000Y-94625000D02*
X128675000Y-94850000D01*
X128675000Y-99875000D02*
X124025000Y-99875000D01*
X128675000Y-94625000D02*
X124025000Y-94625000D01*
X128675000Y-99750000D02*
X130025000Y-99750000D01*
D11*
G04 #@! TO.C,U5*
X145650000Y-79390000D02*
X143850000Y-79390000D01*
X143850000Y-82610000D02*
X146800000Y-82610000D01*
G04 #@! TO.C,L1*
X82840000Y-94412779D02*
X82840000Y-94087221D01*
X83860000Y-94412779D02*
X83860000Y-94087221D01*
G04 #@! TO.C,SW2*
X141830000Y-109170000D02*
X141830000Y-111830000D01*
X144430000Y-109170000D02*
X141830000Y-109170000D01*
X144430000Y-111830000D02*
X141830000Y-111830000D01*
X144430000Y-109170000D02*
X144430000Y-111830000D01*
X145700000Y-109170000D02*
X147030000Y-109170000D01*
X147030000Y-109170000D02*
X147030000Y-110500000D01*
G04 #@! TO.C,SW3*
X139380000Y-109170000D02*
X139380000Y-110500000D01*
X138050000Y-109170000D02*
X139380000Y-109170000D01*
X136780000Y-109170000D02*
X136780000Y-111830000D01*
X136780000Y-111830000D02*
X134180000Y-111830000D01*
X136780000Y-109170000D02*
X134180000Y-109170000D01*
X134180000Y-109170000D02*
X134180000Y-111830000D01*
G04 #@! TO.C,SW1*
X126530000Y-109170000D02*
X126530000Y-111830000D01*
X129130000Y-109170000D02*
X126530000Y-109170000D01*
X129130000Y-111830000D02*
X126530000Y-111830000D01*
X129130000Y-109170000D02*
X129130000Y-111830000D01*
X130400000Y-109170000D02*
X131730000Y-109170000D01*
X131730000Y-109170000D02*
X131730000Y-110500000D01*
G04 #@! TO.C,P1*
X119270000Y-111910000D02*
X121930000Y-111910000D01*
X119270000Y-106770000D02*
X119270000Y-111910000D01*
X121930000Y-106770000D02*
X121930000Y-111910000D01*
X119270000Y-106770000D02*
X121930000Y-106770000D01*
X119270000Y-105500000D02*
X119270000Y-104170000D01*
X119270000Y-104170000D02*
X120600000Y-104170000D01*
G04 #@! TO.C,Y1*
X77025000Y-93875000D02*
X75675000Y-93875000D01*
X77025000Y-95625000D02*
X75675000Y-95625000D01*
D12*
G04 #@! TO.C,IC2*
X100930001Y-88819999D02*
X101380001Y-88819999D01*
X100930001Y-81469999D02*
X101480001Y-81469999D01*
X108280001Y-81469999D02*
X107730001Y-81469999D01*
X108280001Y-88819999D02*
X107730001Y-88819999D01*
X100930001Y-88819999D02*
X100930001Y-88269999D01*
X108280001Y-88819999D02*
X108280001Y-88269999D01*
X108280001Y-81469999D02*
X108280001Y-82019999D01*
X100930001Y-81469999D02*
X100930001Y-82019999D01*
X101380001Y-88819999D02*
X101380001Y-90094999D01*
G04 #@! TO.C,IC1*
X77380001Y-86400001D02*
X77805001Y-86400001D01*
X77380001Y-79150001D02*
X77905001Y-79150001D01*
X84630001Y-79150001D02*
X84105001Y-79150001D01*
X84630001Y-86400001D02*
X84105001Y-86400001D01*
X77380001Y-86400001D02*
X77380001Y-85875001D01*
X84630001Y-86400001D02*
X84630001Y-85875001D01*
X84630001Y-79150001D02*
X84630001Y-79675001D01*
X77380001Y-79150001D02*
X77380001Y-79675001D01*
X77805001Y-86400001D02*
X77805001Y-87775001D01*
G04 #@! TO.C,IC3*
X135175000Y-86800000D02*
X135175000Y-86825000D01*
X139325000Y-86800000D02*
X139325000Y-86915000D01*
X139325000Y-95700000D02*
X139325000Y-95585000D01*
X135175000Y-95700000D02*
X135175000Y-95585000D01*
X135175000Y-86800000D02*
X139325000Y-86800000D01*
X135175000Y-95700000D02*
X139325000Y-95700000D01*
X135175000Y-86825000D02*
X133800000Y-86825000D01*
D11*
G04 #@! TO.C,U10*
X102600000Y-73970000D02*
X101600000Y-73970000D01*
X100600000Y-71730000D02*
X102600000Y-71730000D01*
D12*
G04 #@! TO.C,FL1*
X102275000Y-64000000D02*
X102275000Y-67200000D01*
X102275000Y-67200000D02*
X102675000Y-67200000D01*
X102275000Y-64000000D02*
X102675000Y-64000000D01*
X103225000Y-64000000D02*
X103825000Y-64000000D01*
X104375000Y-64000000D02*
X104775000Y-64000000D01*
X104775000Y-64000000D02*
X104775000Y-67200000D01*
X104775000Y-67200000D02*
X104375000Y-67200000D01*
X103225000Y-67200000D02*
X103825000Y-67200000D01*
G04 #@! TO.C,U7*
X147350000Y-86350000D02*
X147350000Y-88150000D01*
X151150000Y-86350000D02*
X147350000Y-86350000D01*
X151150000Y-88150000D02*
X151150000Y-86350000D01*
X147350000Y-88150000D02*
X151150000Y-88150000D01*
G04 #@! TO.C,C55*
X88857142Y-78642857D02*
X88904761Y-78690476D01*
X88952380Y-78833333D01*
X88952380Y-78928571D01*
X88904761Y-79071428D01*
X88809523Y-79166666D01*
X88714285Y-79214285D01*
X88523809Y-79261904D01*
X88380952Y-79261904D01*
X88190476Y-79214285D01*
X88095238Y-79166666D01*
X88000000Y-79071428D01*
X87952380Y-78928571D01*
X87952380Y-78833333D01*
X88000000Y-78690476D01*
X88047619Y-78642857D01*
X87952380Y-77738095D02*
X87952380Y-78214285D01*
X88428571Y-78261904D01*
X88380952Y-78214285D01*
X88333333Y-78119047D01*
X88333333Y-77880952D01*
X88380952Y-77785714D01*
X88428571Y-77738095D01*
X88523809Y-77690476D01*
X88761904Y-77690476D01*
X88857142Y-77738095D01*
X88904761Y-77785714D01*
X88952380Y-77880952D01*
X88952380Y-78119047D01*
X88904761Y-78214285D01*
X88857142Y-78261904D01*
X87952380Y-76785714D02*
X87952380Y-77261904D01*
X88428571Y-77309523D01*
X88380952Y-77261904D01*
X88333333Y-77166666D01*
X88333333Y-76928571D01*
X88380952Y-76833333D01*
X88428571Y-76785714D01*
X88523809Y-76738095D01*
X88761904Y-76738095D01*
X88857142Y-76785714D01*
X88904761Y-76833333D01*
X88952380Y-76928571D01*
X88952380Y-77166666D01*
X88904761Y-77261904D01*
X88857142Y-77309523D01*
G04 #@! TO.C,-*
X110119047Y-65071428D02*
X110880952Y-65071428D01*
G04 #@! TO.C,+*
X97619047Y-67571428D02*
X98380952Y-67571428D01*
X98000000Y-67952380D02*
X98000000Y-67190476D01*
G04 #@! TO.C,W1*
X69095238Y-86454380D02*
X69333333Y-87454380D01*
X69523809Y-86740095D01*
X69714285Y-87454380D01*
X69952380Y-86454380D01*
X70857142Y-87454380D02*
X70285714Y-87454380D01*
X70571428Y-87454380D02*
X70571428Y-86454380D01*
X70476190Y-86597238D01*
X70380952Y-86692476D01*
X70285714Y-86740095D01*
G04 #@! TO.C,W2*
X69095238Y-92054380D02*
X69333333Y-93054380D01*
X69523809Y-92340095D01*
X69714285Y-93054380D01*
X69952380Y-92054380D01*
X70285714Y-92149619D02*
X70333333Y-92102000D01*
X70428571Y-92054380D01*
X70666666Y-92054380D01*
X70761904Y-92102000D01*
X70809523Y-92149619D01*
X70857142Y-92244857D01*
X70857142Y-92340095D01*
X70809523Y-92482952D01*
X70238095Y-93054380D01*
X70857142Y-93054380D01*
G04 #@! TO.C,J3*
X97166666Y-71452380D02*
X97166666Y-72166666D01*
X97119047Y-72309523D01*
X97023809Y-72404761D01*
X96880952Y-72452380D01*
X96785714Y-72452380D01*
X97547619Y-71452380D02*
X98166666Y-71452380D01*
X97833333Y-71833333D01*
X97976190Y-71833333D01*
X98071428Y-71880952D01*
X98119047Y-71928571D01*
X98166666Y-72023809D01*
X98166666Y-72261904D01*
X98119047Y-72357142D01*
X98071428Y-72404761D01*
X97976190Y-72452380D01*
X97690476Y-72452380D01*
X97595238Y-72404761D01*
X97547619Y-72357142D01*
G04 #@! TO.C,C1*
X73433333Y-99657142D02*
X73385714Y-99704761D01*
X73242857Y-99752380D01*
X73147619Y-99752380D01*
X73004761Y-99704761D01*
X72909523Y-99609523D01*
X72861904Y-99514285D01*
X72814285Y-99323809D01*
X72814285Y-99180952D01*
X72861904Y-98990476D01*
X72909523Y-98895238D01*
X73004761Y-98800000D01*
X73147619Y-98752380D01*
X73242857Y-98752380D01*
X73385714Y-98800000D01*
X73433333Y-98847619D01*
X74385714Y-99752380D02*
X73814285Y-99752380D01*
X74100000Y-99752380D02*
X74100000Y-98752380D01*
X74004761Y-98895238D01*
X73909523Y-98990476D01*
X73814285Y-99038095D01*
G04 #@! TO.C,C62*
X137857142Y-78442857D02*
X137904761Y-78490476D01*
X137952380Y-78633333D01*
X137952380Y-78728571D01*
X137904761Y-78871428D01*
X137809523Y-78966666D01*
X137714285Y-79014285D01*
X137523809Y-79061904D01*
X137380952Y-79061904D01*
X137190476Y-79014285D01*
X137095238Y-78966666D01*
X137000000Y-78871428D01*
X136952380Y-78728571D01*
X136952380Y-78633333D01*
X137000000Y-78490476D01*
X137047619Y-78442857D01*
X136952380Y-77585714D02*
X136952380Y-77776190D01*
X137000000Y-77871428D01*
X137047619Y-77919047D01*
X137190476Y-78014285D01*
X137380952Y-78061904D01*
X137761904Y-78061904D01*
X137857142Y-78014285D01*
X137904761Y-77966666D01*
X137952380Y-77871428D01*
X137952380Y-77680952D01*
X137904761Y-77585714D01*
X137857142Y-77538095D01*
X137761904Y-77490476D01*
X137523809Y-77490476D01*
X137428571Y-77538095D01*
X137380952Y-77585714D01*
X137333333Y-77680952D01*
X137333333Y-77871428D01*
X137380952Y-77966666D01*
X137428571Y-78014285D01*
X137523809Y-78061904D01*
X137047619Y-77109523D02*
X137000000Y-77061904D01*
X136952380Y-76966666D01*
X136952380Y-76728571D01*
X137000000Y-76633333D01*
X137047619Y-76585714D01*
X137142857Y-76538095D01*
X137238095Y-76538095D01*
X137380952Y-76585714D01*
X137952380Y-77157142D01*
X137952380Y-76538095D01*
G04 #@! TO.C,C61*
X133557142Y-79842857D02*
X133604761Y-79890476D01*
X133652380Y-80033333D01*
X133652380Y-80128571D01*
X133604761Y-80271428D01*
X133509523Y-80366666D01*
X133414285Y-80414285D01*
X133223809Y-80461904D01*
X133080952Y-80461904D01*
X132890476Y-80414285D01*
X132795238Y-80366666D01*
X132700000Y-80271428D01*
X132652380Y-80128571D01*
X132652380Y-80033333D01*
X132700000Y-79890476D01*
X132747619Y-79842857D01*
X132652380Y-78985714D02*
X132652380Y-79176190D01*
X132700000Y-79271428D01*
X132747619Y-79319047D01*
X132890476Y-79414285D01*
X133080952Y-79461904D01*
X133461904Y-79461904D01*
X133557142Y-79414285D01*
X133604761Y-79366666D01*
X133652380Y-79271428D01*
X133652380Y-79080952D01*
X133604761Y-78985714D01*
X133557142Y-78938095D01*
X133461904Y-78890476D01*
X133223809Y-78890476D01*
X133128571Y-78938095D01*
X133080952Y-78985714D01*
X133033333Y-79080952D01*
X133033333Y-79271428D01*
X133080952Y-79366666D01*
X133128571Y-79414285D01*
X133223809Y-79461904D01*
X133652380Y-77938095D02*
X133652380Y-78509523D01*
X133652380Y-78223809D02*
X132652380Y-78223809D01*
X132795238Y-78319047D01*
X132890476Y-78414285D01*
X132938095Y-78509523D01*
G04 #@! TO.C,C59*
X137807142Y-99157142D02*
X137759523Y-99204761D01*
X137616666Y-99252380D01*
X137521428Y-99252380D01*
X137378571Y-99204761D01*
X137283333Y-99109523D01*
X137235714Y-99014285D01*
X137188095Y-98823809D01*
X137188095Y-98680952D01*
X137235714Y-98490476D01*
X137283333Y-98395238D01*
X137378571Y-98300000D01*
X137521428Y-98252380D01*
X137616666Y-98252380D01*
X137759523Y-98300000D01*
X137807142Y-98347619D01*
X138711904Y-98252380D02*
X138235714Y-98252380D01*
X138188095Y-98728571D01*
X138235714Y-98680952D01*
X138330952Y-98633333D01*
X138569047Y-98633333D01*
X138664285Y-98680952D01*
X138711904Y-98728571D01*
X138759523Y-98823809D01*
X138759523Y-99061904D01*
X138711904Y-99157142D01*
X138664285Y-99204761D01*
X138569047Y-99252380D01*
X138330952Y-99252380D01*
X138235714Y-99204761D01*
X138188095Y-99157142D01*
X139235714Y-99252380D02*
X139426190Y-99252380D01*
X139521428Y-99204761D01*
X139569047Y-99157142D01*
X139664285Y-99014285D01*
X139711904Y-98823809D01*
X139711904Y-98442857D01*
X139664285Y-98347619D01*
X139616666Y-98300000D01*
X139521428Y-98252380D01*
X139330952Y-98252380D01*
X139235714Y-98300000D01*
X139188095Y-98347619D01*
X139140476Y-98442857D01*
X139140476Y-98680952D01*
X139188095Y-98776190D01*
X139235714Y-98823809D01*
X139330952Y-98871428D01*
X139521428Y-98871428D01*
X139616666Y-98823809D01*
X139664285Y-98776190D01*
X139711904Y-98680952D01*
G04 #@! TO.C,C57*
X154807142Y-81607142D02*
X154759523Y-81654761D01*
X154616666Y-81702380D01*
X154521428Y-81702380D01*
X154378571Y-81654761D01*
X154283333Y-81559523D01*
X154235714Y-81464285D01*
X154188095Y-81273809D01*
X154188095Y-81130952D01*
X154235714Y-80940476D01*
X154283333Y-80845238D01*
X154378571Y-80750000D01*
X154521428Y-80702380D01*
X154616666Y-80702380D01*
X154759523Y-80750000D01*
X154807142Y-80797619D01*
X155711904Y-80702380D02*
X155235714Y-80702380D01*
X155188095Y-81178571D01*
X155235714Y-81130952D01*
X155330952Y-81083333D01*
X155569047Y-81083333D01*
X155664285Y-81130952D01*
X155711904Y-81178571D01*
X155759523Y-81273809D01*
X155759523Y-81511904D01*
X155711904Y-81607142D01*
X155664285Y-81654761D01*
X155569047Y-81702380D01*
X155330952Y-81702380D01*
X155235714Y-81654761D01*
X155188095Y-81607142D01*
X156092857Y-80702380D02*
X156759523Y-80702380D01*
X156330952Y-81702380D01*
G04 #@! TO.C,C56*
X154807142Y-83157142D02*
X154759523Y-83204761D01*
X154616666Y-83252380D01*
X154521428Y-83252380D01*
X154378571Y-83204761D01*
X154283333Y-83109523D01*
X154235714Y-83014285D01*
X154188095Y-82823809D01*
X154188095Y-82680952D01*
X154235714Y-82490476D01*
X154283333Y-82395238D01*
X154378571Y-82300000D01*
X154521428Y-82252380D01*
X154616666Y-82252380D01*
X154759523Y-82300000D01*
X154807142Y-82347619D01*
X155711904Y-82252380D02*
X155235714Y-82252380D01*
X155188095Y-82728571D01*
X155235714Y-82680952D01*
X155330952Y-82633333D01*
X155569047Y-82633333D01*
X155664285Y-82680952D01*
X155711904Y-82728571D01*
X155759523Y-82823809D01*
X155759523Y-83061904D01*
X155711904Y-83157142D01*
X155664285Y-83204761D01*
X155569047Y-83252380D01*
X155330952Y-83252380D01*
X155235714Y-83204761D01*
X155188095Y-83157142D01*
X156616666Y-82252380D02*
X156426190Y-82252380D01*
X156330952Y-82300000D01*
X156283333Y-82347619D01*
X156188095Y-82490476D01*
X156140476Y-82680952D01*
X156140476Y-83061904D01*
X156188095Y-83157142D01*
X156235714Y-83204761D01*
X156330952Y-83252380D01*
X156521428Y-83252380D01*
X156616666Y-83204761D01*
X156664285Y-83157142D01*
X156711904Y-83061904D01*
X156711904Y-82823809D01*
X156664285Y-82728571D01*
X156616666Y-82680952D01*
X156521428Y-82633333D01*
X156330952Y-82633333D01*
X156235714Y-82680952D01*
X156188095Y-82728571D01*
X156140476Y-82823809D01*
G04 #@! TO.C,C54*
X111557142Y-91457142D02*
X111509523Y-91504761D01*
X111366666Y-91552380D01*
X111271428Y-91552380D01*
X111128571Y-91504761D01*
X111033333Y-91409523D01*
X110985714Y-91314285D01*
X110938095Y-91123809D01*
X110938095Y-90980952D01*
X110985714Y-90790476D01*
X111033333Y-90695238D01*
X111128571Y-90600000D01*
X111271428Y-90552380D01*
X111366666Y-90552380D01*
X111509523Y-90600000D01*
X111557142Y-90647619D01*
X112461904Y-90552380D02*
X111985714Y-90552380D01*
X111938095Y-91028571D01*
X111985714Y-90980952D01*
X112080952Y-90933333D01*
X112319047Y-90933333D01*
X112414285Y-90980952D01*
X112461904Y-91028571D01*
X112509523Y-91123809D01*
X112509523Y-91361904D01*
X112461904Y-91457142D01*
X112414285Y-91504761D01*
X112319047Y-91552380D01*
X112080952Y-91552380D01*
X111985714Y-91504761D01*
X111938095Y-91457142D01*
X113366666Y-90885714D02*
X113366666Y-91552380D01*
X113128571Y-90504761D02*
X112890476Y-91219047D01*
X113509523Y-91219047D01*
G04 #@! TO.C,C53*
X138857142Y-86287142D02*
X138809523Y-86334761D01*
X138666666Y-86382380D01*
X138571428Y-86382380D01*
X138428571Y-86334761D01*
X138333333Y-86239523D01*
X138285714Y-86144285D01*
X138238095Y-85953809D01*
X138238095Y-85810952D01*
X138285714Y-85620476D01*
X138333333Y-85525238D01*
X138428571Y-85430000D01*
X138571428Y-85382380D01*
X138666666Y-85382380D01*
X138809523Y-85430000D01*
X138857142Y-85477619D01*
X139761904Y-85382380D02*
X139285714Y-85382380D01*
X139238095Y-85858571D01*
X139285714Y-85810952D01*
X139380952Y-85763333D01*
X139619047Y-85763333D01*
X139714285Y-85810952D01*
X139761904Y-85858571D01*
X139809523Y-85953809D01*
X139809523Y-86191904D01*
X139761904Y-86287142D01*
X139714285Y-86334761D01*
X139619047Y-86382380D01*
X139380952Y-86382380D01*
X139285714Y-86334761D01*
X139238095Y-86287142D01*
X140142857Y-85382380D02*
X140761904Y-85382380D01*
X140428571Y-85763333D01*
X140571428Y-85763333D01*
X140666666Y-85810952D01*
X140714285Y-85858571D01*
X140761904Y-85953809D01*
X140761904Y-86191904D01*
X140714285Y-86287142D01*
X140666666Y-86334761D01*
X140571428Y-86382380D01*
X140285714Y-86382380D01*
X140190476Y-86334761D01*
X140142857Y-86287142D01*
G04 #@! TO.C,C51*
X144757142Y-90057142D02*
X144709523Y-90104761D01*
X144566666Y-90152380D01*
X144471428Y-90152380D01*
X144328571Y-90104761D01*
X144233333Y-90009523D01*
X144185714Y-89914285D01*
X144138095Y-89723809D01*
X144138095Y-89580952D01*
X144185714Y-89390476D01*
X144233333Y-89295238D01*
X144328571Y-89200000D01*
X144471428Y-89152380D01*
X144566666Y-89152380D01*
X144709523Y-89200000D01*
X144757142Y-89247619D01*
X145661904Y-89152380D02*
X145185714Y-89152380D01*
X145138095Y-89628571D01*
X145185714Y-89580952D01*
X145280952Y-89533333D01*
X145519047Y-89533333D01*
X145614285Y-89580952D01*
X145661904Y-89628571D01*
X145709523Y-89723809D01*
X145709523Y-89961904D01*
X145661904Y-90057142D01*
X145614285Y-90104761D01*
X145519047Y-90152380D01*
X145280952Y-90152380D01*
X145185714Y-90104761D01*
X145138095Y-90057142D01*
X146661904Y-90152380D02*
X146090476Y-90152380D01*
X146376190Y-90152380D02*
X146376190Y-89152380D01*
X146280952Y-89295238D01*
X146185714Y-89390476D01*
X146090476Y-89438095D01*
G04 #@! TO.C,C82*
X96107142Y-100542857D02*
X96154761Y-100590476D01*
X96202380Y-100733333D01*
X96202380Y-100828571D01*
X96154761Y-100971428D01*
X96059523Y-101066666D01*
X95964285Y-101114285D01*
X95773809Y-101161904D01*
X95630952Y-101161904D01*
X95440476Y-101114285D01*
X95345238Y-101066666D01*
X95250000Y-100971428D01*
X95202380Y-100828571D01*
X95202380Y-100733333D01*
X95250000Y-100590476D01*
X95297619Y-100542857D01*
X95630952Y-99971428D02*
X95583333Y-100066666D01*
X95535714Y-100114285D01*
X95440476Y-100161904D01*
X95392857Y-100161904D01*
X95297619Y-100114285D01*
X95250000Y-100066666D01*
X95202380Y-99971428D01*
X95202380Y-99780952D01*
X95250000Y-99685714D01*
X95297619Y-99638095D01*
X95392857Y-99590476D01*
X95440476Y-99590476D01*
X95535714Y-99638095D01*
X95583333Y-99685714D01*
X95630952Y-99780952D01*
X95630952Y-99971428D01*
X95678571Y-100066666D01*
X95726190Y-100114285D01*
X95821428Y-100161904D01*
X96011904Y-100161904D01*
X96107142Y-100114285D01*
X96154761Y-100066666D01*
X96202380Y-99971428D01*
X96202380Y-99780952D01*
X96154761Y-99685714D01*
X96107142Y-99638095D01*
X96011904Y-99590476D01*
X95821428Y-99590476D01*
X95726190Y-99638095D01*
X95678571Y-99685714D01*
X95630952Y-99780952D01*
X95297619Y-99209523D02*
X95250000Y-99161904D01*
X95202380Y-99066666D01*
X95202380Y-98828571D01*
X95250000Y-98733333D01*
X95297619Y-98685714D01*
X95392857Y-98638095D01*
X95488095Y-98638095D01*
X95630952Y-98685714D01*
X96202380Y-99257142D01*
X96202380Y-98638095D01*
G04 #@! TO.C,C49*
X135857142Y-83357142D02*
X135809523Y-83404761D01*
X135666666Y-83452380D01*
X135571428Y-83452380D01*
X135428571Y-83404761D01*
X135333333Y-83309523D01*
X135285714Y-83214285D01*
X135238095Y-83023809D01*
X135238095Y-82880952D01*
X135285714Y-82690476D01*
X135333333Y-82595238D01*
X135428571Y-82500000D01*
X135571428Y-82452380D01*
X135666666Y-82452380D01*
X135809523Y-82500000D01*
X135857142Y-82547619D01*
X136714285Y-82785714D02*
X136714285Y-83452380D01*
X136476190Y-82404761D02*
X136238095Y-83119047D01*
X136857142Y-83119047D01*
X137285714Y-83452380D02*
X137476190Y-83452380D01*
X137571428Y-83404761D01*
X137619047Y-83357142D01*
X137714285Y-83214285D01*
X137761904Y-83023809D01*
X137761904Y-82642857D01*
X137714285Y-82547619D01*
X137666666Y-82500000D01*
X137571428Y-82452380D01*
X137380952Y-82452380D01*
X137285714Y-82500000D01*
X137238095Y-82547619D01*
X137190476Y-82642857D01*
X137190476Y-82880952D01*
X137238095Y-82976190D01*
X137285714Y-83023809D01*
X137380952Y-83071428D01*
X137571428Y-83071428D01*
X137666666Y-83023809D01*
X137714285Y-82976190D01*
X137761904Y-82880952D01*
G04 #@! TO.C,C47*
X142057142Y-82842857D02*
X142104761Y-82890476D01*
X142152380Y-83033333D01*
X142152380Y-83128571D01*
X142104761Y-83271428D01*
X142009523Y-83366666D01*
X141914285Y-83414285D01*
X141723809Y-83461904D01*
X141580952Y-83461904D01*
X141390476Y-83414285D01*
X141295238Y-83366666D01*
X141200000Y-83271428D01*
X141152380Y-83128571D01*
X141152380Y-83033333D01*
X141200000Y-82890476D01*
X141247619Y-82842857D01*
X141485714Y-81985714D02*
X142152380Y-81985714D01*
X141104761Y-82223809D02*
X141819047Y-82461904D01*
X141819047Y-81842857D01*
X141152380Y-81557142D02*
X141152380Y-80890476D01*
X142152380Y-81319047D01*
G04 #@! TO.C,C46*
X149357142Y-84587142D02*
X149309523Y-84634761D01*
X149166666Y-84682380D01*
X149071428Y-84682380D01*
X148928571Y-84634761D01*
X148833333Y-84539523D01*
X148785714Y-84444285D01*
X148738095Y-84253809D01*
X148738095Y-84110952D01*
X148785714Y-83920476D01*
X148833333Y-83825238D01*
X148928571Y-83730000D01*
X149071428Y-83682380D01*
X149166666Y-83682380D01*
X149309523Y-83730000D01*
X149357142Y-83777619D01*
X150214285Y-84015714D02*
X150214285Y-84682380D01*
X149976190Y-83634761D02*
X149738095Y-84349047D01*
X150357142Y-84349047D01*
X151166666Y-83682380D02*
X150976190Y-83682380D01*
X150880952Y-83730000D01*
X150833333Y-83777619D01*
X150738095Y-83920476D01*
X150690476Y-84110952D01*
X150690476Y-84491904D01*
X150738095Y-84587142D01*
X150785714Y-84634761D01*
X150880952Y-84682380D01*
X151071428Y-84682380D01*
X151166666Y-84634761D01*
X151214285Y-84587142D01*
X151261904Y-84491904D01*
X151261904Y-84253809D01*
X151214285Y-84158571D01*
X151166666Y-84110952D01*
X151071428Y-84063333D01*
X150880952Y-84063333D01*
X150785714Y-84110952D01*
X150738095Y-84158571D01*
X150690476Y-84253809D01*
G04 #@! TO.C,C45*
X141757142Y-78607142D02*
X141709523Y-78654761D01*
X141566666Y-78702380D01*
X141471428Y-78702380D01*
X141328571Y-78654761D01*
X141233333Y-78559523D01*
X141185714Y-78464285D01*
X141138095Y-78273809D01*
X141138095Y-78130952D01*
X141185714Y-77940476D01*
X141233333Y-77845238D01*
X141328571Y-77750000D01*
X141471428Y-77702380D01*
X141566666Y-77702380D01*
X141709523Y-77750000D01*
X141757142Y-77797619D01*
X142614285Y-78035714D02*
X142614285Y-78702380D01*
X142376190Y-77654761D02*
X142138095Y-78369047D01*
X142757142Y-78369047D01*
X143614285Y-77702380D02*
X143138095Y-77702380D01*
X143090476Y-78178571D01*
X143138095Y-78130952D01*
X143233333Y-78083333D01*
X143471428Y-78083333D01*
X143566666Y-78130952D01*
X143614285Y-78178571D01*
X143661904Y-78273809D01*
X143661904Y-78511904D01*
X143614285Y-78607142D01*
X143566666Y-78654761D01*
X143471428Y-78702380D01*
X143233333Y-78702380D01*
X143138095Y-78654761D01*
X143090476Y-78607142D01*
G04 #@! TO.C,C44*
X117457142Y-91037142D02*
X117409523Y-91084761D01*
X117266666Y-91132380D01*
X117171428Y-91132380D01*
X117028571Y-91084761D01*
X116933333Y-90989523D01*
X116885714Y-90894285D01*
X116838095Y-90703809D01*
X116838095Y-90560952D01*
X116885714Y-90370476D01*
X116933333Y-90275238D01*
X117028571Y-90180000D01*
X117171428Y-90132380D01*
X117266666Y-90132380D01*
X117409523Y-90180000D01*
X117457142Y-90227619D01*
X118314285Y-90465714D02*
X118314285Y-91132380D01*
X118076190Y-90084761D02*
X117838095Y-90799047D01*
X118457142Y-90799047D01*
X119266666Y-90465714D02*
X119266666Y-91132380D01*
X119028571Y-90084761D02*
X118790476Y-90799047D01*
X119409523Y-90799047D01*
G04 #@! TO.C,C43*
X75457142Y-78942857D02*
X75504761Y-78990476D01*
X75552380Y-79133333D01*
X75552380Y-79228571D01*
X75504761Y-79371428D01*
X75409523Y-79466666D01*
X75314285Y-79514285D01*
X75123809Y-79561904D01*
X74980952Y-79561904D01*
X74790476Y-79514285D01*
X74695238Y-79466666D01*
X74600000Y-79371428D01*
X74552380Y-79228571D01*
X74552380Y-79133333D01*
X74600000Y-78990476D01*
X74647619Y-78942857D01*
X74885714Y-78085714D02*
X75552380Y-78085714D01*
X74504761Y-78323809D02*
X75219047Y-78561904D01*
X75219047Y-77942857D01*
X74552380Y-77657142D02*
X74552380Y-77038095D01*
X74933333Y-77371428D01*
X74933333Y-77228571D01*
X74980952Y-77133333D01*
X75028571Y-77085714D01*
X75123809Y-77038095D01*
X75361904Y-77038095D01*
X75457142Y-77085714D01*
X75504761Y-77133333D01*
X75552380Y-77228571D01*
X75552380Y-77514285D01*
X75504761Y-77609523D01*
X75457142Y-77657142D01*
G04 #@! TO.C,C83*
X111557142Y-94457142D02*
X111509523Y-94504761D01*
X111366666Y-94552380D01*
X111271428Y-94552380D01*
X111128571Y-94504761D01*
X111033333Y-94409523D01*
X110985714Y-94314285D01*
X110938095Y-94123809D01*
X110938095Y-93980952D01*
X110985714Y-93790476D01*
X111033333Y-93695238D01*
X111128571Y-93600000D01*
X111271428Y-93552380D01*
X111366666Y-93552380D01*
X111509523Y-93600000D01*
X111557142Y-93647619D01*
X112128571Y-93980952D02*
X112033333Y-93933333D01*
X111985714Y-93885714D01*
X111938095Y-93790476D01*
X111938095Y-93742857D01*
X111985714Y-93647619D01*
X112033333Y-93600000D01*
X112128571Y-93552380D01*
X112319047Y-93552380D01*
X112414285Y-93600000D01*
X112461904Y-93647619D01*
X112509523Y-93742857D01*
X112509523Y-93790476D01*
X112461904Y-93885714D01*
X112414285Y-93933333D01*
X112319047Y-93980952D01*
X112128571Y-93980952D01*
X112033333Y-94028571D01*
X111985714Y-94076190D01*
X111938095Y-94171428D01*
X111938095Y-94361904D01*
X111985714Y-94457142D01*
X112033333Y-94504761D01*
X112128571Y-94552380D01*
X112319047Y-94552380D01*
X112414285Y-94504761D01*
X112461904Y-94457142D01*
X112509523Y-94361904D01*
X112509523Y-94171428D01*
X112461904Y-94076190D01*
X112414285Y-94028571D01*
X112319047Y-93980952D01*
X112842857Y-93552380D02*
X113461904Y-93552380D01*
X113128571Y-93933333D01*
X113271428Y-93933333D01*
X113366666Y-93980952D01*
X113414285Y-94028571D01*
X113461904Y-94123809D01*
X113461904Y-94361904D01*
X113414285Y-94457142D01*
X113366666Y-94504761D01*
X113271428Y-94552380D01*
X112985714Y-94552380D01*
X112890476Y-94504761D01*
X112842857Y-94457142D01*
G04 #@! TO.C,C85*
X97457142Y-100592857D02*
X97504761Y-100640476D01*
X97552380Y-100783333D01*
X97552380Y-100878571D01*
X97504761Y-101021428D01*
X97409523Y-101116666D01*
X97314285Y-101164285D01*
X97123809Y-101211904D01*
X96980952Y-101211904D01*
X96790476Y-101164285D01*
X96695238Y-101116666D01*
X96600000Y-101021428D01*
X96552380Y-100878571D01*
X96552380Y-100783333D01*
X96600000Y-100640476D01*
X96647619Y-100592857D01*
X96980952Y-100021428D02*
X96933333Y-100116666D01*
X96885714Y-100164285D01*
X96790476Y-100211904D01*
X96742857Y-100211904D01*
X96647619Y-100164285D01*
X96600000Y-100116666D01*
X96552380Y-100021428D01*
X96552380Y-99830952D01*
X96600000Y-99735714D01*
X96647619Y-99688095D01*
X96742857Y-99640476D01*
X96790476Y-99640476D01*
X96885714Y-99688095D01*
X96933333Y-99735714D01*
X96980952Y-99830952D01*
X96980952Y-100021428D01*
X97028571Y-100116666D01*
X97076190Y-100164285D01*
X97171428Y-100211904D01*
X97361904Y-100211904D01*
X97457142Y-100164285D01*
X97504761Y-100116666D01*
X97552380Y-100021428D01*
X97552380Y-99830952D01*
X97504761Y-99735714D01*
X97457142Y-99688095D01*
X97361904Y-99640476D01*
X97171428Y-99640476D01*
X97076190Y-99688095D01*
X97028571Y-99735714D01*
X96980952Y-99830952D01*
X96552380Y-98735714D02*
X96552380Y-99211904D01*
X97028571Y-99259523D01*
X96980952Y-99211904D01*
X96933333Y-99116666D01*
X96933333Y-98878571D01*
X96980952Y-98783333D01*
X97028571Y-98735714D01*
X97123809Y-98688095D01*
X97361904Y-98688095D01*
X97457142Y-98735714D01*
X97504761Y-98783333D01*
X97552380Y-98878571D01*
X97552380Y-99116666D01*
X97504761Y-99211904D01*
X97457142Y-99259523D01*
G04 #@! TO.C,C63*
X141107142Y-101987142D02*
X141059523Y-102034761D01*
X140916666Y-102082380D01*
X140821428Y-102082380D01*
X140678571Y-102034761D01*
X140583333Y-101939523D01*
X140535714Y-101844285D01*
X140488095Y-101653809D01*
X140488095Y-101510952D01*
X140535714Y-101320476D01*
X140583333Y-101225238D01*
X140678571Y-101130000D01*
X140821428Y-101082380D01*
X140916666Y-101082380D01*
X141059523Y-101130000D01*
X141107142Y-101177619D01*
X141964285Y-101082380D02*
X141773809Y-101082380D01*
X141678571Y-101130000D01*
X141630952Y-101177619D01*
X141535714Y-101320476D01*
X141488095Y-101510952D01*
X141488095Y-101891904D01*
X141535714Y-101987142D01*
X141583333Y-102034761D01*
X141678571Y-102082380D01*
X141869047Y-102082380D01*
X141964285Y-102034761D01*
X142011904Y-101987142D01*
X142059523Y-101891904D01*
X142059523Y-101653809D01*
X142011904Y-101558571D01*
X141964285Y-101510952D01*
X141869047Y-101463333D01*
X141678571Y-101463333D01*
X141583333Y-101510952D01*
X141535714Y-101558571D01*
X141488095Y-101653809D01*
X142392857Y-101082380D02*
X143011904Y-101082380D01*
X142678571Y-101463333D01*
X142821428Y-101463333D01*
X142916666Y-101510952D01*
X142964285Y-101558571D01*
X143011904Y-101653809D01*
X143011904Y-101891904D01*
X142964285Y-101987142D01*
X142916666Y-102034761D01*
X142821428Y-102082380D01*
X142535714Y-102082380D01*
X142440476Y-102034761D01*
X142392857Y-101987142D01*
G04 #@! TO.C,C71*
X151857142Y-102407142D02*
X151809523Y-102454761D01*
X151666666Y-102502380D01*
X151571428Y-102502380D01*
X151428571Y-102454761D01*
X151333333Y-102359523D01*
X151285714Y-102264285D01*
X151238095Y-102073809D01*
X151238095Y-101930952D01*
X151285714Y-101740476D01*
X151333333Y-101645238D01*
X151428571Y-101550000D01*
X151571428Y-101502380D01*
X151666666Y-101502380D01*
X151809523Y-101550000D01*
X151857142Y-101597619D01*
X152190476Y-101502380D02*
X152857142Y-101502380D01*
X152428571Y-102502380D01*
X153761904Y-102502380D02*
X153190476Y-102502380D01*
X153476190Y-102502380D02*
X153476190Y-101502380D01*
X153380952Y-101645238D01*
X153285714Y-101740476D01*
X153190476Y-101788095D01*
G04 #@! TO.C,C72*
X151857142Y-103707142D02*
X151809523Y-103754761D01*
X151666666Y-103802380D01*
X151571428Y-103802380D01*
X151428571Y-103754761D01*
X151333333Y-103659523D01*
X151285714Y-103564285D01*
X151238095Y-103373809D01*
X151238095Y-103230952D01*
X151285714Y-103040476D01*
X151333333Y-102945238D01*
X151428571Y-102850000D01*
X151571428Y-102802380D01*
X151666666Y-102802380D01*
X151809523Y-102850000D01*
X151857142Y-102897619D01*
X152190476Y-102802380D02*
X152857142Y-102802380D01*
X152428571Y-103802380D01*
X153190476Y-102897619D02*
X153238095Y-102850000D01*
X153333333Y-102802380D01*
X153571428Y-102802380D01*
X153666666Y-102850000D01*
X153714285Y-102897619D01*
X153761904Y-102992857D01*
X153761904Y-103088095D01*
X153714285Y-103230952D01*
X153142857Y-103802380D01*
X153761904Y-103802380D01*
G04 #@! TO.C,C80*
X114442142Y-97457142D02*
X114394523Y-97504761D01*
X114251666Y-97552380D01*
X114156428Y-97552380D01*
X114013571Y-97504761D01*
X113918333Y-97409523D01*
X113870714Y-97314285D01*
X113823095Y-97123809D01*
X113823095Y-96980952D01*
X113870714Y-96790476D01*
X113918333Y-96695238D01*
X114013571Y-96600000D01*
X114156428Y-96552380D01*
X114251666Y-96552380D01*
X114394523Y-96600000D01*
X114442142Y-96647619D01*
X115013571Y-96980952D02*
X114918333Y-96933333D01*
X114870714Y-96885714D01*
X114823095Y-96790476D01*
X114823095Y-96742857D01*
X114870714Y-96647619D01*
X114918333Y-96600000D01*
X115013571Y-96552380D01*
X115204047Y-96552380D01*
X115299285Y-96600000D01*
X115346904Y-96647619D01*
X115394523Y-96742857D01*
X115394523Y-96790476D01*
X115346904Y-96885714D01*
X115299285Y-96933333D01*
X115204047Y-96980952D01*
X115013571Y-96980952D01*
X114918333Y-97028571D01*
X114870714Y-97076190D01*
X114823095Y-97171428D01*
X114823095Y-97361904D01*
X114870714Y-97457142D01*
X114918333Y-97504761D01*
X115013571Y-97552380D01*
X115204047Y-97552380D01*
X115299285Y-97504761D01*
X115346904Y-97457142D01*
X115394523Y-97361904D01*
X115394523Y-97171428D01*
X115346904Y-97076190D01*
X115299285Y-97028571D01*
X115204047Y-96980952D01*
X116013571Y-96552380D02*
X116108809Y-96552380D01*
X116204047Y-96600000D01*
X116251666Y-96647619D01*
X116299285Y-96742857D01*
X116346904Y-96933333D01*
X116346904Y-97171428D01*
X116299285Y-97361904D01*
X116251666Y-97457142D01*
X116204047Y-97504761D01*
X116108809Y-97552380D01*
X116013571Y-97552380D01*
X115918333Y-97504761D01*
X115870714Y-97457142D01*
X115823095Y-97361904D01*
X115775476Y-97171428D01*
X115775476Y-96933333D01*
X115823095Y-96742857D01*
X115870714Y-96647619D01*
X115918333Y-96600000D01*
X116013571Y-96552380D01*
G04 #@! TO.C,C75*
X154807142Y-104057142D02*
X154759523Y-104104761D01*
X154616666Y-104152380D01*
X154521428Y-104152380D01*
X154378571Y-104104761D01*
X154283333Y-104009523D01*
X154235714Y-103914285D01*
X154188095Y-103723809D01*
X154188095Y-103580952D01*
X154235714Y-103390476D01*
X154283333Y-103295238D01*
X154378571Y-103200000D01*
X154521428Y-103152380D01*
X154616666Y-103152380D01*
X154759523Y-103200000D01*
X154807142Y-103247619D01*
X155140476Y-103152380D02*
X155807142Y-103152380D01*
X155378571Y-104152380D01*
X156664285Y-103152380D02*
X156188095Y-103152380D01*
X156140476Y-103628571D01*
X156188095Y-103580952D01*
X156283333Y-103533333D01*
X156521428Y-103533333D01*
X156616666Y-103580952D01*
X156664285Y-103628571D01*
X156711904Y-103723809D01*
X156711904Y-103961904D01*
X156664285Y-104057142D01*
X156616666Y-104104761D01*
X156521428Y-104152380D01*
X156283333Y-104152380D01*
X156188095Y-104104761D01*
X156140476Y-104057142D01*
G04 #@! TO.C,C77*
X100242142Y-67927142D02*
X100194523Y-67974761D01*
X100051666Y-68022380D01*
X99956428Y-68022380D01*
X99813571Y-67974761D01*
X99718333Y-67879523D01*
X99670714Y-67784285D01*
X99623095Y-67593809D01*
X99623095Y-67450952D01*
X99670714Y-67260476D01*
X99718333Y-67165238D01*
X99813571Y-67070000D01*
X99956428Y-67022380D01*
X100051666Y-67022380D01*
X100194523Y-67070000D01*
X100242142Y-67117619D01*
X100575476Y-67022380D02*
X101242142Y-67022380D01*
X100813571Y-68022380D01*
X101527857Y-67022380D02*
X102194523Y-67022380D01*
X101765952Y-68022380D01*
G04 #@! TO.C,C79*
X99557142Y-70957142D02*
X99509523Y-71004761D01*
X99366666Y-71052380D01*
X99271428Y-71052380D01*
X99128571Y-71004761D01*
X99033333Y-70909523D01*
X98985714Y-70814285D01*
X98938095Y-70623809D01*
X98938095Y-70480952D01*
X98985714Y-70290476D01*
X99033333Y-70195238D01*
X99128571Y-70100000D01*
X99271428Y-70052380D01*
X99366666Y-70052380D01*
X99509523Y-70100000D01*
X99557142Y-70147619D01*
X99890476Y-70052380D02*
X100557142Y-70052380D01*
X100128571Y-71052380D01*
X100985714Y-71052380D02*
X101176190Y-71052380D01*
X101271428Y-71004761D01*
X101319047Y-70957142D01*
X101414285Y-70814285D01*
X101461904Y-70623809D01*
X101461904Y-70242857D01*
X101414285Y-70147619D01*
X101366666Y-70100000D01*
X101271428Y-70052380D01*
X101080952Y-70052380D01*
X100985714Y-70100000D01*
X100938095Y-70147619D01*
X100890476Y-70242857D01*
X100890476Y-70480952D01*
X100938095Y-70576190D01*
X100985714Y-70623809D01*
X101080952Y-70671428D01*
X101271428Y-70671428D01*
X101366666Y-70623809D01*
X101414285Y-70576190D01*
X101461904Y-70480952D01*
G04 #@! TO.C,C48*
X148257142Y-83392857D02*
X148304761Y-83440476D01*
X148352380Y-83583333D01*
X148352380Y-83678571D01*
X148304761Y-83821428D01*
X148209523Y-83916666D01*
X148114285Y-83964285D01*
X147923809Y-84011904D01*
X147780952Y-84011904D01*
X147590476Y-83964285D01*
X147495238Y-83916666D01*
X147400000Y-83821428D01*
X147352380Y-83678571D01*
X147352380Y-83583333D01*
X147400000Y-83440476D01*
X147447619Y-83392857D01*
X147685714Y-82535714D02*
X148352380Y-82535714D01*
X147304761Y-82773809D02*
X148019047Y-83011904D01*
X148019047Y-82392857D01*
X147780952Y-81869047D02*
X147733333Y-81964285D01*
X147685714Y-82011904D01*
X147590476Y-82059523D01*
X147542857Y-82059523D01*
X147447619Y-82011904D01*
X147400000Y-81964285D01*
X147352380Y-81869047D01*
X147352380Y-81678571D01*
X147400000Y-81583333D01*
X147447619Y-81535714D01*
X147542857Y-81488095D01*
X147590476Y-81488095D01*
X147685714Y-81535714D01*
X147733333Y-81583333D01*
X147780952Y-81678571D01*
X147780952Y-81869047D01*
X147828571Y-81964285D01*
X147876190Y-82011904D01*
X147971428Y-82059523D01*
X148161904Y-82059523D01*
X148257142Y-82011904D01*
X148304761Y-81964285D01*
X148352380Y-81869047D01*
X148352380Y-81678571D01*
X148304761Y-81583333D01*
X148257142Y-81535714D01*
X148161904Y-81488095D01*
X147971428Y-81488095D01*
X147876190Y-81535714D01*
X147828571Y-81583333D01*
X147780952Y-81678571D01*
G04 #@! TO.C,C50*
X123857142Y-85857142D02*
X123809523Y-85904761D01*
X123666666Y-85952380D01*
X123571428Y-85952380D01*
X123428571Y-85904761D01*
X123333333Y-85809523D01*
X123285714Y-85714285D01*
X123238095Y-85523809D01*
X123238095Y-85380952D01*
X123285714Y-85190476D01*
X123333333Y-85095238D01*
X123428571Y-85000000D01*
X123571428Y-84952380D01*
X123666666Y-84952380D01*
X123809523Y-85000000D01*
X123857142Y-85047619D01*
X124761904Y-84952380D02*
X124285714Y-84952380D01*
X124238095Y-85428571D01*
X124285714Y-85380952D01*
X124380952Y-85333333D01*
X124619047Y-85333333D01*
X124714285Y-85380952D01*
X124761904Y-85428571D01*
X124809523Y-85523809D01*
X124809523Y-85761904D01*
X124761904Y-85857142D01*
X124714285Y-85904761D01*
X124619047Y-85952380D01*
X124380952Y-85952380D01*
X124285714Y-85904761D01*
X124238095Y-85857142D01*
X125428571Y-84952380D02*
X125523809Y-84952380D01*
X125619047Y-85000000D01*
X125666666Y-85047619D01*
X125714285Y-85142857D01*
X125761904Y-85333333D01*
X125761904Y-85571428D01*
X125714285Y-85761904D01*
X125666666Y-85857142D01*
X125619047Y-85904761D01*
X125523809Y-85952380D01*
X125428571Y-85952380D01*
X125333333Y-85904761D01*
X125285714Y-85857142D01*
X125238095Y-85761904D01*
X125190476Y-85571428D01*
X125190476Y-85333333D01*
X125238095Y-85142857D01*
X125285714Y-85047619D01*
X125333333Y-85000000D01*
X125428571Y-84952380D01*
G04 #@! TO.C,C69*
X153507142Y-97542857D02*
X153554761Y-97590476D01*
X153602380Y-97733333D01*
X153602380Y-97828571D01*
X153554761Y-97971428D01*
X153459523Y-98066666D01*
X153364285Y-98114285D01*
X153173809Y-98161904D01*
X153030952Y-98161904D01*
X152840476Y-98114285D01*
X152745238Y-98066666D01*
X152650000Y-97971428D01*
X152602380Y-97828571D01*
X152602380Y-97733333D01*
X152650000Y-97590476D01*
X152697619Y-97542857D01*
X152602380Y-96685714D02*
X152602380Y-96876190D01*
X152650000Y-96971428D01*
X152697619Y-97019047D01*
X152840476Y-97114285D01*
X153030952Y-97161904D01*
X153411904Y-97161904D01*
X153507142Y-97114285D01*
X153554761Y-97066666D01*
X153602380Y-96971428D01*
X153602380Y-96780952D01*
X153554761Y-96685714D01*
X153507142Y-96638095D01*
X153411904Y-96590476D01*
X153173809Y-96590476D01*
X153078571Y-96638095D01*
X153030952Y-96685714D01*
X152983333Y-96780952D01*
X152983333Y-96971428D01*
X153030952Y-97066666D01*
X153078571Y-97114285D01*
X153173809Y-97161904D01*
X153602380Y-96114285D02*
X153602380Y-95923809D01*
X153554761Y-95828571D01*
X153507142Y-95780952D01*
X153364285Y-95685714D01*
X153173809Y-95638095D01*
X152792857Y-95638095D01*
X152697619Y-95685714D01*
X152650000Y-95733333D01*
X152602380Y-95828571D01*
X152602380Y-96019047D01*
X152650000Y-96114285D01*
X152697619Y-96161904D01*
X152792857Y-96209523D01*
X153030952Y-96209523D01*
X153126190Y-96161904D01*
X153173809Y-96114285D01*
X153221428Y-96019047D01*
X153221428Y-95828571D01*
X153173809Y-95733333D01*
X153126190Y-95685714D01*
X153030952Y-95638095D01*
G04 #@! TO.C,C68*
X153507142Y-94692857D02*
X153554761Y-94740476D01*
X153602380Y-94883333D01*
X153602380Y-94978571D01*
X153554761Y-95121428D01*
X153459523Y-95216666D01*
X153364285Y-95264285D01*
X153173809Y-95311904D01*
X153030952Y-95311904D01*
X152840476Y-95264285D01*
X152745238Y-95216666D01*
X152650000Y-95121428D01*
X152602380Y-94978571D01*
X152602380Y-94883333D01*
X152650000Y-94740476D01*
X152697619Y-94692857D01*
X152602380Y-93835714D02*
X152602380Y-94026190D01*
X152650000Y-94121428D01*
X152697619Y-94169047D01*
X152840476Y-94264285D01*
X153030952Y-94311904D01*
X153411904Y-94311904D01*
X153507142Y-94264285D01*
X153554761Y-94216666D01*
X153602380Y-94121428D01*
X153602380Y-93930952D01*
X153554761Y-93835714D01*
X153507142Y-93788095D01*
X153411904Y-93740476D01*
X153173809Y-93740476D01*
X153078571Y-93788095D01*
X153030952Y-93835714D01*
X152983333Y-93930952D01*
X152983333Y-94121428D01*
X153030952Y-94216666D01*
X153078571Y-94264285D01*
X153173809Y-94311904D01*
X153030952Y-93169047D02*
X152983333Y-93264285D01*
X152935714Y-93311904D01*
X152840476Y-93359523D01*
X152792857Y-93359523D01*
X152697619Y-93311904D01*
X152650000Y-93264285D01*
X152602380Y-93169047D01*
X152602380Y-92978571D01*
X152650000Y-92883333D01*
X152697619Y-92835714D01*
X152792857Y-92788095D01*
X152840476Y-92788095D01*
X152935714Y-92835714D01*
X152983333Y-92883333D01*
X153030952Y-92978571D01*
X153030952Y-93169047D01*
X153078571Y-93264285D01*
X153126190Y-93311904D01*
X153221428Y-93359523D01*
X153411904Y-93359523D01*
X153507142Y-93311904D01*
X153554761Y-93264285D01*
X153602380Y-93169047D01*
X153602380Y-92978571D01*
X153554761Y-92883333D01*
X153507142Y-92835714D01*
X153411904Y-92788095D01*
X153221428Y-92788095D01*
X153126190Y-92835714D01*
X153078571Y-92883333D01*
X153030952Y-92978571D01*
G04 #@! TO.C,C67*
X150557142Y-93157142D02*
X150509523Y-93204761D01*
X150366666Y-93252380D01*
X150271428Y-93252380D01*
X150128571Y-93204761D01*
X150033333Y-93109523D01*
X149985714Y-93014285D01*
X149938095Y-92823809D01*
X149938095Y-92680952D01*
X149985714Y-92490476D01*
X150033333Y-92395238D01*
X150128571Y-92300000D01*
X150271428Y-92252380D01*
X150366666Y-92252380D01*
X150509523Y-92300000D01*
X150557142Y-92347619D01*
X151414285Y-92252380D02*
X151223809Y-92252380D01*
X151128571Y-92300000D01*
X151080952Y-92347619D01*
X150985714Y-92490476D01*
X150938095Y-92680952D01*
X150938095Y-93061904D01*
X150985714Y-93157142D01*
X151033333Y-93204761D01*
X151128571Y-93252380D01*
X151319047Y-93252380D01*
X151414285Y-93204761D01*
X151461904Y-93157142D01*
X151509523Y-93061904D01*
X151509523Y-92823809D01*
X151461904Y-92728571D01*
X151414285Y-92680952D01*
X151319047Y-92633333D01*
X151128571Y-92633333D01*
X151033333Y-92680952D01*
X150985714Y-92728571D01*
X150938095Y-92823809D01*
X151842857Y-92252380D02*
X152509523Y-92252380D01*
X152080952Y-93252380D01*
G04 #@! TO.C,C66*
X154857142Y-90727142D02*
X154809523Y-90774761D01*
X154666666Y-90822380D01*
X154571428Y-90822380D01*
X154428571Y-90774761D01*
X154333333Y-90679523D01*
X154285714Y-90584285D01*
X154238095Y-90393809D01*
X154238095Y-90250952D01*
X154285714Y-90060476D01*
X154333333Y-89965238D01*
X154428571Y-89870000D01*
X154571428Y-89822380D01*
X154666666Y-89822380D01*
X154809523Y-89870000D01*
X154857142Y-89917619D01*
X155714285Y-89822380D02*
X155523809Y-89822380D01*
X155428571Y-89870000D01*
X155380952Y-89917619D01*
X155285714Y-90060476D01*
X155238095Y-90250952D01*
X155238095Y-90631904D01*
X155285714Y-90727142D01*
X155333333Y-90774761D01*
X155428571Y-90822380D01*
X155619047Y-90822380D01*
X155714285Y-90774761D01*
X155761904Y-90727142D01*
X155809523Y-90631904D01*
X155809523Y-90393809D01*
X155761904Y-90298571D01*
X155714285Y-90250952D01*
X155619047Y-90203333D01*
X155428571Y-90203333D01*
X155333333Y-90250952D01*
X155285714Y-90298571D01*
X155238095Y-90393809D01*
X156666666Y-89822380D02*
X156476190Y-89822380D01*
X156380952Y-89870000D01*
X156333333Y-89917619D01*
X156238095Y-90060476D01*
X156190476Y-90250952D01*
X156190476Y-90631904D01*
X156238095Y-90727142D01*
X156285714Y-90774761D01*
X156380952Y-90822380D01*
X156571428Y-90822380D01*
X156666666Y-90774761D01*
X156714285Y-90727142D01*
X156761904Y-90631904D01*
X156761904Y-90393809D01*
X156714285Y-90298571D01*
X156666666Y-90250952D01*
X156571428Y-90203333D01*
X156380952Y-90203333D01*
X156285714Y-90250952D01*
X156238095Y-90298571D01*
X156190476Y-90393809D01*
G04 #@! TO.C,C65*
X134657142Y-71857142D02*
X134609523Y-71904761D01*
X134466666Y-71952380D01*
X134371428Y-71952380D01*
X134228571Y-71904761D01*
X134133333Y-71809523D01*
X134085714Y-71714285D01*
X134038095Y-71523809D01*
X134038095Y-71380952D01*
X134085714Y-71190476D01*
X134133333Y-71095238D01*
X134228571Y-71000000D01*
X134371428Y-70952380D01*
X134466666Y-70952380D01*
X134609523Y-71000000D01*
X134657142Y-71047619D01*
X135514285Y-70952380D02*
X135323809Y-70952380D01*
X135228571Y-71000000D01*
X135180952Y-71047619D01*
X135085714Y-71190476D01*
X135038095Y-71380952D01*
X135038095Y-71761904D01*
X135085714Y-71857142D01*
X135133333Y-71904761D01*
X135228571Y-71952380D01*
X135419047Y-71952380D01*
X135514285Y-71904761D01*
X135561904Y-71857142D01*
X135609523Y-71761904D01*
X135609523Y-71523809D01*
X135561904Y-71428571D01*
X135514285Y-71380952D01*
X135419047Y-71333333D01*
X135228571Y-71333333D01*
X135133333Y-71380952D01*
X135085714Y-71428571D01*
X135038095Y-71523809D01*
X136514285Y-70952380D02*
X136038095Y-70952380D01*
X135990476Y-71428571D01*
X136038095Y-71380952D01*
X136133333Y-71333333D01*
X136371428Y-71333333D01*
X136466666Y-71380952D01*
X136514285Y-71428571D01*
X136561904Y-71523809D01*
X136561904Y-71761904D01*
X136514285Y-71857142D01*
X136466666Y-71904761D01*
X136371428Y-71952380D01*
X136133333Y-71952380D01*
X136038095Y-71904761D01*
X135990476Y-71857142D01*
G04 #@! TO.C,C73*
X124157142Y-80642857D02*
X124204761Y-80690476D01*
X124252380Y-80833333D01*
X124252380Y-80928571D01*
X124204761Y-81071428D01*
X124109523Y-81166666D01*
X124014285Y-81214285D01*
X123823809Y-81261904D01*
X123680952Y-81261904D01*
X123490476Y-81214285D01*
X123395238Y-81166666D01*
X123300000Y-81071428D01*
X123252380Y-80928571D01*
X123252380Y-80833333D01*
X123300000Y-80690476D01*
X123347619Y-80642857D01*
X123252380Y-80309523D02*
X123252380Y-79642857D01*
X124252380Y-80071428D01*
X123252380Y-79357142D02*
X123252380Y-78738095D01*
X123633333Y-79071428D01*
X123633333Y-78928571D01*
X123680952Y-78833333D01*
X123728571Y-78785714D01*
X123823809Y-78738095D01*
X124061904Y-78738095D01*
X124157142Y-78785714D01*
X124204761Y-78833333D01*
X124252380Y-78928571D01*
X124252380Y-79214285D01*
X124204761Y-79309523D01*
X124157142Y-79357142D01*
G04 #@! TO.C,C20*
X102507142Y-100542857D02*
X102554761Y-100590476D01*
X102602380Y-100733333D01*
X102602380Y-100828571D01*
X102554761Y-100971428D01*
X102459523Y-101066666D01*
X102364285Y-101114285D01*
X102173809Y-101161904D01*
X102030952Y-101161904D01*
X101840476Y-101114285D01*
X101745238Y-101066666D01*
X101650000Y-100971428D01*
X101602380Y-100828571D01*
X101602380Y-100733333D01*
X101650000Y-100590476D01*
X101697619Y-100542857D01*
X101697619Y-100161904D02*
X101650000Y-100114285D01*
X101602380Y-100019047D01*
X101602380Y-99780952D01*
X101650000Y-99685714D01*
X101697619Y-99638095D01*
X101792857Y-99590476D01*
X101888095Y-99590476D01*
X102030952Y-99638095D01*
X102602380Y-100209523D01*
X102602380Y-99590476D01*
X101602380Y-98971428D02*
X101602380Y-98876190D01*
X101650000Y-98780952D01*
X101697619Y-98733333D01*
X101792857Y-98685714D01*
X101983333Y-98638095D01*
X102221428Y-98638095D01*
X102411904Y-98685714D01*
X102507142Y-98733333D01*
X102554761Y-98780952D01*
X102602380Y-98876190D01*
X102602380Y-98971428D01*
X102554761Y-99066666D01*
X102507142Y-99114285D01*
X102411904Y-99161904D01*
X102221428Y-99209523D01*
X101983333Y-99209523D01*
X101792857Y-99161904D01*
X101697619Y-99114285D01*
X101650000Y-99066666D01*
X101602380Y-98971428D01*
G04 #@! TO.C,C19*
X112857142Y-100192857D02*
X112904761Y-100240476D01*
X112952380Y-100383333D01*
X112952380Y-100478571D01*
X112904761Y-100621428D01*
X112809523Y-100716666D01*
X112714285Y-100764285D01*
X112523809Y-100811904D01*
X112380952Y-100811904D01*
X112190476Y-100764285D01*
X112095238Y-100716666D01*
X112000000Y-100621428D01*
X111952380Y-100478571D01*
X111952380Y-100383333D01*
X112000000Y-100240476D01*
X112047619Y-100192857D01*
X112952380Y-99240476D02*
X112952380Y-99811904D01*
X112952380Y-99526190D02*
X111952380Y-99526190D01*
X112095238Y-99621428D01*
X112190476Y-99716666D01*
X112238095Y-99811904D01*
X112952380Y-98764285D02*
X112952380Y-98573809D01*
X112904761Y-98478571D01*
X112857142Y-98430952D01*
X112714285Y-98335714D01*
X112523809Y-98288095D01*
X112142857Y-98288095D01*
X112047619Y-98335714D01*
X112000000Y-98383333D01*
X111952380Y-98478571D01*
X111952380Y-98669047D01*
X112000000Y-98764285D01*
X112047619Y-98811904D01*
X112142857Y-98859523D01*
X112380952Y-98859523D01*
X112476190Y-98811904D01*
X112523809Y-98764285D01*
X112571428Y-98669047D01*
X112571428Y-98478571D01*
X112523809Y-98383333D01*
X112476190Y-98335714D01*
X112380952Y-98288095D01*
G04 #@! TO.C,C70*
X151757142Y-101107142D02*
X151709523Y-101154761D01*
X151566666Y-101202380D01*
X151471428Y-101202380D01*
X151328571Y-101154761D01*
X151233333Y-101059523D01*
X151185714Y-100964285D01*
X151138095Y-100773809D01*
X151138095Y-100630952D01*
X151185714Y-100440476D01*
X151233333Y-100345238D01*
X151328571Y-100250000D01*
X151471428Y-100202380D01*
X151566666Y-100202380D01*
X151709523Y-100250000D01*
X151757142Y-100297619D01*
X152090476Y-100202380D02*
X152757142Y-100202380D01*
X152328571Y-101202380D01*
X153328571Y-100202380D02*
X153423809Y-100202380D01*
X153519047Y-100250000D01*
X153566666Y-100297619D01*
X153614285Y-100392857D01*
X153661904Y-100583333D01*
X153661904Y-100821428D01*
X153614285Y-101011904D01*
X153566666Y-101107142D01*
X153519047Y-101154761D01*
X153423809Y-101202380D01*
X153328571Y-101202380D01*
X153233333Y-101154761D01*
X153185714Y-101107142D01*
X153138095Y-101011904D01*
X153090476Y-100821428D01*
X153090476Y-100583333D01*
X153138095Y-100392857D01*
X153185714Y-100297619D01*
X153233333Y-100250000D01*
X153328571Y-100202380D01*
G04 #@! TO.C,C18*
X98757142Y-100592857D02*
X98804761Y-100640476D01*
X98852380Y-100783333D01*
X98852380Y-100878571D01*
X98804761Y-101021428D01*
X98709523Y-101116666D01*
X98614285Y-101164285D01*
X98423809Y-101211904D01*
X98280952Y-101211904D01*
X98090476Y-101164285D01*
X97995238Y-101116666D01*
X97900000Y-101021428D01*
X97852380Y-100878571D01*
X97852380Y-100783333D01*
X97900000Y-100640476D01*
X97947619Y-100592857D01*
X98852380Y-99640476D02*
X98852380Y-100211904D01*
X98852380Y-99926190D02*
X97852380Y-99926190D01*
X97995238Y-100021428D01*
X98090476Y-100116666D01*
X98138095Y-100211904D01*
X98280952Y-99069047D02*
X98233333Y-99164285D01*
X98185714Y-99211904D01*
X98090476Y-99259523D01*
X98042857Y-99259523D01*
X97947619Y-99211904D01*
X97900000Y-99164285D01*
X97852380Y-99069047D01*
X97852380Y-98878571D01*
X97900000Y-98783333D01*
X97947619Y-98735714D01*
X98042857Y-98688095D01*
X98090476Y-98688095D01*
X98185714Y-98735714D01*
X98233333Y-98783333D01*
X98280952Y-98878571D01*
X98280952Y-99069047D01*
X98328571Y-99164285D01*
X98376190Y-99211904D01*
X98471428Y-99259523D01*
X98661904Y-99259523D01*
X98757142Y-99211904D01*
X98804761Y-99164285D01*
X98852380Y-99069047D01*
X98852380Y-98878571D01*
X98804761Y-98783333D01*
X98757142Y-98735714D01*
X98661904Y-98688095D01*
X98471428Y-98688095D01*
X98376190Y-98735714D01*
X98328571Y-98783333D01*
X98280952Y-98878571D01*
G04 #@! TO.C,C16*
X68857142Y-83357142D02*
X68809523Y-83404761D01*
X68666666Y-83452380D01*
X68571428Y-83452380D01*
X68428571Y-83404761D01*
X68333333Y-83309523D01*
X68285714Y-83214285D01*
X68238095Y-83023809D01*
X68238095Y-82880952D01*
X68285714Y-82690476D01*
X68333333Y-82595238D01*
X68428571Y-82500000D01*
X68571428Y-82452380D01*
X68666666Y-82452380D01*
X68809523Y-82500000D01*
X68857142Y-82547619D01*
X69809523Y-83452380D02*
X69238095Y-83452380D01*
X69523809Y-83452380D02*
X69523809Y-82452380D01*
X69428571Y-82595238D01*
X69333333Y-82690476D01*
X69238095Y-82738095D01*
X70666666Y-82452380D02*
X70476190Y-82452380D01*
X70380952Y-82500000D01*
X70333333Y-82547619D01*
X70238095Y-82690476D01*
X70190476Y-82880952D01*
X70190476Y-83261904D01*
X70238095Y-83357142D01*
X70285714Y-83404761D01*
X70380952Y-83452380D01*
X70571428Y-83452380D01*
X70666666Y-83404761D01*
X70714285Y-83357142D01*
X70761904Y-83261904D01*
X70761904Y-83023809D01*
X70714285Y-82928571D01*
X70666666Y-82880952D01*
X70571428Y-82833333D01*
X70380952Y-82833333D01*
X70285714Y-82880952D01*
X70238095Y-82928571D01*
X70190476Y-83023809D01*
G04 #@! TO.C,C15*
X81557142Y-96757142D02*
X81509523Y-96804761D01*
X81366666Y-96852380D01*
X81271428Y-96852380D01*
X81128571Y-96804761D01*
X81033333Y-96709523D01*
X80985714Y-96614285D01*
X80938095Y-96423809D01*
X80938095Y-96280952D01*
X80985714Y-96090476D01*
X81033333Y-95995238D01*
X81128571Y-95900000D01*
X81271428Y-95852380D01*
X81366666Y-95852380D01*
X81509523Y-95900000D01*
X81557142Y-95947619D01*
X82509523Y-96852380D02*
X81938095Y-96852380D01*
X82223809Y-96852380D02*
X82223809Y-95852380D01*
X82128571Y-95995238D01*
X82033333Y-96090476D01*
X81938095Y-96138095D01*
X83414285Y-95852380D02*
X82938095Y-95852380D01*
X82890476Y-96328571D01*
X82938095Y-96280952D01*
X83033333Y-96233333D01*
X83271428Y-96233333D01*
X83366666Y-96280952D01*
X83414285Y-96328571D01*
X83461904Y-96423809D01*
X83461904Y-96661904D01*
X83414285Y-96757142D01*
X83366666Y-96804761D01*
X83271428Y-96852380D01*
X83033333Y-96852380D01*
X82938095Y-96804761D01*
X82890476Y-96757142D01*
G04 #@! TO.C,C14*
X72207142Y-86187142D02*
X72159523Y-86234761D01*
X72016666Y-86282380D01*
X71921428Y-86282380D01*
X71778571Y-86234761D01*
X71683333Y-86139523D01*
X71635714Y-86044285D01*
X71588095Y-85853809D01*
X71588095Y-85710952D01*
X71635714Y-85520476D01*
X71683333Y-85425238D01*
X71778571Y-85330000D01*
X71921428Y-85282380D01*
X72016666Y-85282380D01*
X72159523Y-85330000D01*
X72207142Y-85377619D01*
X73159523Y-86282380D02*
X72588095Y-86282380D01*
X72873809Y-86282380D02*
X72873809Y-85282380D01*
X72778571Y-85425238D01*
X72683333Y-85520476D01*
X72588095Y-85568095D01*
X74016666Y-85615714D02*
X74016666Y-86282380D01*
X73778571Y-85234761D02*
X73540476Y-85949047D01*
X74159523Y-85949047D01*
G04 #@! TO.C,C13*
X77957142Y-91957142D02*
X77909523Y-92004761D01*
X77766666Y-92052380D01*
X77671428Y-92052380D01*
X77528571Y-92004761D01*
X77433333Y-91909523D01*
X77385714Y-91814285D01*
X77338095Y-91623809D01*
X77338095Y-91480952D01*
X77385714Y-91290476D01*
X77433333Y-91195238D01*
X77528571Y-91100000D01*
X77671428Y-91052380D01*
X77766666Y-91052380D01*
X77909523Y-91100000D01*
X77957142Y-91147619D01*
X78909523Y-92052380D02*
X78338095Y-92052380D01*
X78623809Y-92052380D02*
X78623809Y-91052380D01*
X78528571Y-91195238D01*
X78433333Y-91290476D01*
X78338095Y-91338095D01*
X79242857Y-91052380D02*
X79861904Y-91052380D01*
X79528571Y-91433333D01*
X79671428Y-91433333D01*
X79766666Y-91480952D01*
X79814285Y-91528571D01*
X79861904Y-91623809D01*
X79861904Y-91861904D01*
X79814285Y-91957142D01*
X79766666Y-92004761D01*
X79671428Y-92052380D01*
X79385714Y-92052380D01*
X79290476Y-92004761D01*
X79242857Y-91957142D01*
G04 #@! TO.C,C12*
X90457142Y-81927142D02*
X90409523Y-81974761D01*
X90266666Y-82022380D01*
X90171428Y-82022380D01*
X90028571Y-81974761D01*
X89933333Y-81879523D01*
X89885714Y-81784285D01*
X89838095Y-81593809D01*
X89838095Y-81450952D01*
X89885714Y-81260476D01*
X89933333Y-81165238D01*
X90028571Y-81070000D01*
X90171428Y-81022380D01*
X90266666Y-81022380D01*
X90409523Y-81070000D01*
X90457142Y-81117619D01*
X91409523Y-82022380D02*
X90838095Y-82022380D01*
X91123809Y-82022380D02*
X91123809Y-81022380D01*
X91028571Y-81165238D01*
X90933333Y-81260476D01*
X90838095Y-81308095D01*
X91790476Y-81117619D02*
X91838095Y-81070000D01*
X91933333Y-81022380D01*
X92171428Y-81022380D01*
X92266666Y-81070000D01*
X92314285Y-81117619D01*
X92361904Y-81212857D01*
X92361904Y-81308095D01*
X92314285Y-81450952D01*
X91742857Y-82022380D01*
X92361904Y-82022380D01*
G04 #@! TO.C,C9*
X91933333Y-102177142D02*
X91885714Y-102224761D01*
X91742857Y-102272380D01*
X91647619Y-102272380D01*
X91504761Y-102224761D01*
X91409523Y-102129523D01*
X91361904Y-102034285D01*
X91314285Y-101843809D01*
X91314285Y-101700952D01*
X91361904Y-101510476D01*
X91409523Y-101415238D01*
X91504761Y-101320000D01*
X91647619Y-101272380D01*
X91742857Y-101272380D01*
X91885714Y-101320000D01*
X91933333Y-101367619D01*
X92409523Y-102272380D02*
X92600000Y-102272380D01*
X92695238Y-102224761D01*
X92742857Y-102177142D01*
X92838095Y-102034285D01*
X92885714Y-101843809D01*
X92885714Y-101462857D01*
X92838095Y-101367619D01*
X92790476Y-101320000D01*
X92695238Y-101272380D01*
X92504761Y-101272380D01*
X92409523Y-101320000D01*
X92361904Y-101367619D01*
X92314285Y-101462857D01*
X92314285Y-101700952D01*
X92361904Y-101796190D01*
X92409523Y-101843809D01*
X92504761Y-101891428D01*
X92695238Y-101891428D01*
X92790476Y-101843809D01*
X92838095Y-101796190D01*
X92885714Y-101700952D01*
G04 #@! TO.C,C7*
X144883333Y-106957142D02*
X144835714Y-107004761D01*
X144692857Y-107052380D01*
X144597619Y-107052380D01*
X144454761Y-107004761D01*
X144359523Y-106909523D01*
X144311904Y-106814285D01*
X144264285Y-106623809D01*
X144264285Y-106480952D01*
X144311904Y-106290476D01*
X144359523Y-106195238D01*
X144454761Y-106100000D01*
X144597619Y-106052380D01*
X144692857Y-106052380D01*
X144835714Y-106100000D01*
X144883333Y-106147619D01*
X145216666Y-106052380D02*
X145883333Y-106052380D01*
X145454761Y-107052380D01*
G04 #@! TO.C,C6*
X125833333Y-107557142D02*
X125785714Y-107604761D01*
X125642857Y-107652380D01*
X125547619Y-107652380D01*
X125404761Y-107604761D01*
X125309523Y-107509523D01*
X125261904Y-107414285D01*
X125214285Y-107223809D01*
X125214285Y-107080952D01*
X125261904Y-106890476D01*
X125309523Y-106795238D01*
X125404761Y-106700000D01*
X125547619Y-106652380D01*
X125642857Y-106652380D01*
X125785714Y-106700000D01*
X125833333Y-106747619D01*
X126690476Y-106652380D02*
X126500000Y-106652380D01*
X126404761Y-106700000D01*
X126357142Y-106747619D01*
X126261904Y-106890476D01*
X126214285Y-107080952D01*
X126214285Y-107461904D01*
X126261904Y-107557142D01*
X126309523Y-107604761D01*
X126404761Y-107652380D01*
X126595238Y-107652380D01*
X126690476Y-107604761D01*
X126738095Y-107557142D01*
X126785714Y-107461904D01*
X126785714Y-107223809D01*
X126738095Y-107128571D01*
X126690476Y-107080952D01*
X126595238Y-107033333D01*
X126404761Y-107033333D01*
X126309523Y-107080952D01*
X126261904Y-107128571D01*
X126214285Y-107223809D01*
G04 #@! TO.C,C5*
X100727142Y-77416666D02*
X100774761Y-77464285D01*
X100822380Y-77607142D01*
X100822380Y-77702380D01*
X100774761Y-77845238D01*
X100679523Y-77940476D01*
X100584285Y-77988095D01*
X100393809Y-78035714D01*
X100250952Y-78035714D01*
X100060476Y-77988095D01*
X99965238Y-77940476D01*
X99870000Y-77845238D01*
X99822380Y-77702380D01*
X99822380Y-77607142D01*
X99870000Y-77464285D01*
X99917619Y-77416666D01*
X99822380Y-76511904D02*
X99822380Y-76988095D01*
X100298571Y-77035714D01*
X100250952Y-76988095D01*
X100203333Y-76892857D01*
X100203333Y-76654761D01*
X100250952Y-76559523D01*
X100298571Y-76511904D01*
X100393809Y-76464285D01*
X100631904Y-76464285D01*
X100727142Y-76511904D01*
X100774761Y-76559523D01*
X100822380Y-76654761D01*
X100822380Y-76892857D01*
X100774761Y-76988095D01*
X100727142Y-77035714D01*
G04 #@! TO.C,C4*
X116933333Y-99927142D02*
X116885714Y-99974761D01*
X116742857Y-100022380D01*
X116647619Y-100022380D01*
X116504761Y-99974761D01*
X116409523Y-99879523D01*
X116361904Y-99784285D01*
X116314285Y-99593809D01*
X116314285Y-99450952D01*
X116361904Y-99260476D01*
X116409523Y-99165238D01*
X116504761Y-99070000D01*
X116647619Y-99022380D01*
X116742857Y-99022380D01*
X116885714Y-99070000D01*
X116933333Y-99117619D01*
X117790476Y-99355714D02*
X117790476Y-100022380D01*
X117552380Y-98974761D02*
X117314285Y-99689047D01*
X117933333Y-99689047D01*
G04 #@! TO.C,C3*
X122733333Y-102607142D02*
X122685714Y-102654761D01*
X122542857Y-102702380D01*
X122447619Y-102702380D01*
X122304761Y-102654761D01*
X122209523Y-102559523D01*
X122161904Y-102464285D01*
X122114285Y-102273809D01*
X122114285Y-102130952D01*
X122161904Y-101940476D01*
X122209523Y-101845238D01*
X122304761Y-101750000D01*
X122447619Y-101702380D01*
X122542857Y-101702380D01*
X122685714Y-101750000D01*
X122733333Y-101797619D01*
X123066666Y-101702380D02*
X123685714Y-101702380D01*
X123352380Y-102083333D01*
X123495238Y-102083333D01*
X123590476Y-102130952D01*
X123638095Y-102178571D01*
X123685714Y-102273809D01*
X123685714Y-102511904D01*
X123638095Y-102607142D01*
X123590476Y-102654761D01*
X123495238Y-102702380D01*
X123209523Y-102702380D01*
X123114285Y-102654761D01*
X123066666Y-102607142D01*
G04 #@! TO.C,C2*
X79633333Y-97257142D02*
X79585714Y-97304761D01*
X79442857Y-97352380D01*
X79347619Y-97352380D01*
X79204761Y-97304761D01*
X79109523Y-97209523D01*
X79061904Y-97114285D01*
X79014285Y-96923809D01*
X79014285Y-96780952D01*
X79061904Y-96590476D01*
X79109523Y-96495238D01*
X79204761Y-96400000D01*
X79347619Y-96352380D01*
X79442857Y-96352380D01*
X79585714Y-96400000D01*
X79633333Y-96447619D01*
X80014285Y-96447619D02*
X80061904Y-96400000D01*
X80157142Y-96352380D01*
X80395238Y-96352380D01*
X80490476Y-96400000D01*
X80538095Y-96447619D01*
X80585714Y-96542857D01*
X80585714Y-96638095D01*
X80538095Y-96780952D01*
X79966666Y-97352380D01*
X80585714Y-97352380D01*
G04 #@! TO.C,C11*
X72207142Y-74557142D02*
X72159523Y-74604761D01*
X72016666Y-74652380D01*
X71921428Y-74652380D01*
X71778571Y-74604761D01*
X71683333Y-74509523D01*
X71635714Y-74414285D01*
X71588095Y-74223809D01*
X71588095Y-74080952D01*
X71635714Y-73890476D01*
X71683333Y-73795238D01*
X71778571Y-73700000D01*
X71921428Y-73652380D01*
X72016666Y-73652380D01*
X72159523Y-73700000D01*
X72207142Y-73747619D01*
X73159523Y-74652380D02*
X72588095Y-74652380D01*
X72873809Y-74652380D02*
X72873809Y-73652380D01*
X72778571Y-73795238D01*
X72683333Y-73890476D01*
X72588095Y-73938095D01*
X74111904Y-74652380D02*
X73540476Y-74652380D01*
X73826190Y-74652380D02*
X73826190Y-73652380D01*
X73730952Y-73795238D01*
X73635714Y-73890476D01*
X73540476Y-73938095D01*
G04 #@! TO.C,C74*
X119757142Y-77342857D02*
X119804761Y-77390476D01*
X119852380Y-77533333D01*
X119852380Y-77628571D01*
X119804761Y-77771428D01*
X119709523Y-77866666D01*
X119614285Y-77914285D01*
X119423809Y-77961904D01*
X119280952Y-77961904D01*
X119090476Y-77914285D01*
X118995238Y-77866666D01*
X118900000Y-77771428D01*
X118852380Y-77628571D01*
X118852380Y-77533333D01*
X118900000Y-77390476D01*
X118947619Y-77342857D01*
X118852380Y-77009523D02*
X118852380Y-76342857D01*
X119852380Y-76771428D01*
X119185714Y-75533333D02*
X119852380Y-75533333D01*
X118804761Y-75771428D02*
X119519047Y-76009523D01*
X119519047Y-75390476D01*
G04 #@! TO.C,C8*
X134133333Y-107607142D02*
X134085714Y-107654761D01*
X133942857Y-107702380D01*
X133847619Y-107702380D01*
X133704761Y-107654761D01*
X133609523Y-107559523D01*
X133561904Y-107464285D01*
X133514285Y-107273809D01*
X133514285Y-107130952D01*
X133561904Y-106940476D01*
X133609523Y-106845238D01*
X133704761Y-106750000D01*
X133847619Y-106702380D01*
X133942857Y-106702380D01*
X134085714Y-106750000D01*
X134133333Y-106797619D01*
X134704761Y-107130952D02*
X134609523Y-107083333D01*
X134561904Y-107035714D01*
X134514285Y-106940476D01*
X134514285Y-106892857D01*
X134561904Y-106797619D01*
X134609523Y-106750000D01*
X134704761Y-106702380D01*
X134895238Y-106702380D01*
X134990476Y-106750000D01*
X135038095Y-106797619D01*
X135085714Y-106892857D01*
X135085714Y-106940476D01*
X135038095Y-107035714D01*
X134990476Y-107083333D01*
X134895238Y-107130952D01*
X134704761Y-107130952D01*
X134609523Y-107178571D01*
X134561904Y-107226190D01*
X134514285Y-107321428D01*
X134514285Y-107511904D01*
X134561904Y-107607142D01*
X134609523Y-107654761D01*
X134704761Y-107702380D01*
X134895238Y-107702380D01*
X134990476Y-107654761D01*
X135038095Y-107607142D01*
X135085714Y-107511904D01*
X135085714Y-107321428D01*
X135038095Y-107226190D01*
X134990476Y-107178571D01*
X134895238Y-107130952D01*
G04 #@! TO.C,C29*
X100007142Y-100592857D02*
X100054761Y-100640476D01*
X100102380Y-100783333D01*
X100102380Y-100878571D01*
X100054761Y-101021428D01*
X99959523Y-101116666D01*
X99864285Y-101164285D01*
X99673809Y-101211904D01*
X99530952Y-101211904D01*
X99340476Y-101164285D01*
X99245238Y-101116666D01*
X99150000Y-101021428D01*
X99102380Y-100878571D01*
X99102380Y-100783333D01*
X99150000Y-100640476D01*
X99197619Y-100592857D01*
X99197619Y-100211904D02*
X99150000Y-100164285D01*
X99102380Y-100069047D01*
X99102380Y-99830952D01*
X99150000Y-99735714D01*
X99197619Y-99688095D01*
X99292857Y-99640476D01*
X99388095Y-99640476D01*
X99530952Y-99688095D01*
X100102380Y-100259523D01*
X100102380Y-99640476D01*
X100102380Y-99164285D02*
X100102380Y-98973809D01*
X100054761Y-98878571D01*
X100007142Y-98830952D01*
X99864285Y-98735714D01*
X99673809Y-98688095D01*
X99292857Y-98688095D01*
X99197619Y-98735714D01*
X99150000Y-98783333D01*
X99102380Y-98878571D01*
X99102380Y-99069047D01*
X99150000Y-99164285D01*
X99197619Y-99211904D01*
X99292857Y-99259523D01*
X99530952Y-99259523D01*
X99626190Y-99211904D01*
X99673809Y-99164285D01*
X99721428Y-99069047D01*
X99721428Y-98878571D01*
X99673809Y-98783333D01*
X99626190Y-98735714D01*
X99530952Y-98688095D01*
G04 #@! TO.C,C32*
X109057142Y-77942857D02*
X109104761Y-77990476D01*
X109152380Y-78133333D01*
X109152380Y-78228571D01*
X109104761Y-78371428D01*
X109009523Y-78466666D01*
X108914285Y-78514285D01*
X108723809Y-78561904D01*
X108580952Y-78561904D01*
X108390476Y-78514285D01*
X108295238Y-78466666D01*
X108200000Y-78371428D01*
X108152380Y-78228571D01*
X108152380Y-78133333D01*
X108200000Y-77990476D01*
X108247619Y-77942857D01*
X108152380Y-77609523D02*
X108152380Y-76990476D01*
X108533333Y-77323809D01*
X108533333Y-77180952D01*
X108580952Y-77085714D01*
X108628571Y-77038095D01*
X108723809Y-76990476D01*
X108961904Y-76990476D01*
X109057142Y-77038095D01*
X109104761Y-77085714D01*
X109152380Y-77180952D01*
X109152380Y-77466666D01*
X109104761Y-77561904D01*
X109057142Y-77609523D01*
X108247619Y-76609523D02*
X108200000Y-76561904D01*
X108152380Y-76466666D01*
X108152380Y-76228571D01*
X108200000Y-76133333D01*
X108247619Y-76085714D01*
X108342857Y-76038095D01*
X108438095Y-76038095D01*
X108580952Y-76085714D01*
X109152380Y-76657142D01*
X109152380Y-76038095D01*
G04 #@! TO.C,C21*
X109957142Y-100142857D02*
X110004761Y-100190476D01*
X110052380Y-100333333D01*
X110052380Y-100428571D01*
X110004761Y-100571428D01*
X109909523Y-100666666D01*
X109814285Y-100714285D01*
X109623809Y-100761904D01*
X109480952Y-100761904D01*
X109290476Y-100714285D01*
X109195238Y-100666666D01*
X109100000Y-100571428D01*
X109052380Y-100428571D01*
X109052380Y-100333333D01*
X109100000Y-100190476D01*
X109147619Y-100142857D01*
X109147619Y-99761904D02*
X109100000Y-99714285D01*
X109052380Y-99619047D01*
X109052380Y-99380952D01*
X109100000Y-99285714D01*
X109147619Y-99238095D01*
X109242857Y-99190476D01*
X109338095Y-99190476D01*
X109480952Y-99238095D01*
X110052380Y-99809523D01*
X110052380Y-99190476D01*
X110052380Y-98238095D02*
X110052380Y-98809523D01*
X110052380Y-98523809D02*
X109052380Y-98523809D01*
X109195238Y-98619047D01*
X109290476Y-98714285D01*
X109338095Y-98809523D01*
G04 #@! TO.C,C30*
X104857142Y-79857142D02*
X104809523Y-79904761D01*
X104666666Y-79952380D01*
X104571428Y-79952380D01*
X104428571Y-79904761D01*
X104333333Y-79809523D01*
X104285714Y-79714285D01*
X104238095Y-79523809D01*
X104238095Y-79380952D01*
X104285714Y-79190476D01*
X104333333Y-79095238D01*
X104428571Y-79000000D01*
X104571428Y-78952380D01*
X104666666Y-78952380D01*
X104809523Y-79000000D01*
X104857142Y-79047619D01*
X105190476Y-78952380D02*
X105809523Y-78952380D01*
X105476190Y-79333333D01*
X105619047Y-79333333D01*
X105714285Y-79380952D01*
X105761904Y-79428571D01*
X105809523Y-79523809D01*
X105809523Y-79761904D01*
X105761904Y-79857142D01*
X105714285Y-79904761D01*
X105619047Y-79952380D01*
X105333333Y-79952380D01*
X105238095Y-79904761D01*
X105190476Y-79857142D01*
X106428571Y-78952380D02*
X106523809Y-78952380D01*
X106619047Y-79000000D01*
X106666666Y-79047619D01*
X106714285Y-79142857D01*
X106761904Y-79333333D01*
X106761904Y-79571428D01*
X106714285Y-79761904D01*
X106666666Y-79857142D01*
X106619047Y-79904761D01*
X106523809Y-79952380D01*
X106428571Y-79952380D01*
X106333333Y-79904761D01*
X106285714Y-79857142D01*
X106238095Y-79761904D01*
X106190476Y-79571428D01*
X106190476Y-79333333D01*
X106238095Y-79142857D01*
X106285714Y-79047619D01*
X106333333Y-79000000D01*
X106428571Y-78952380D01*
G04 #@! TO.C,C10*
X78957142Y-102157142D02*
X78909523Y-102204761D01*
X78766666Y-102252380D01*
X78671428Y-102252380D01*
X78528571Y-102204761D01*
X78433333Y-102109523D01*
X78385714Y-102014285D01*
X78338095Y-101823809D01*
X78338095Y-101680952D01*
X78385714Y-101490476D01*
X78433333Y-101395238D01*
X78528571Y-101300000D01*
X78671428Y-101252380D01*
X78766666Y-101252380D01*
X78909523Y-101300000D01*
X78957142Y-101347619D01*
X79909523Y-102252380D02*
X79338095Y-102252380D01*
X79623809Y-102252380D02*
X79623809Y-101252380D01*
X79528571Y-101395238D01*
X79433333Y-101490476D01*
X79338095Y-101538095D01*
X80528571Y-101252380D02*
X80623809Y-101252380D01*
X80719047Y-101300000D01*
X80766666Y-101347619D01*
X80814285Y-101442857D01*
X80861904Y-101633333D01*
X80861904Y-101871428D01*
X80814285Y-102061904D01*
X80766666Y-102157142D01*
X80719047Y-102204761D01*
X80623809Y-102252380D01*
X80528571Y-102252380D01*
X80433333Y-102204761D01*
X80385714Y-102157142D01*
X80338095Y-102061904D01*
X80290476Y-101871428D01*
X80290476Y-101633333D01*
X80338095Y-101442857D01*
X80385714Y-101347619D01*
X80433333Y-101300000D01*
X80528571Y-101252380D01*
G04 #@! TO.C,C22*
X111557142Y-78757142D02*
X111509523Y-78804761D01*
X111366666Y-78852380D01*
X111271428Y-78852380D01*
X111128571Y-78804761D01*
X111033333Y-78709523D01*
X110985714Y-78614285D01*
X110938095Y-78423809D01*
X110938095Y-78280952D01*
X110985714Y-78090476D01*
X111033333Y-77995238D01*
X111128571Y-77900000D01*
X111271428Y-77852380D01*
X111366666Y-77852380D01*
X111509523Y-77900000D01*
X111557142Y-77947619D01*
X111938095Y-77947619D02*
X111985714Y-77900000D01*
X112080952Y-77852380D01*
X112319047Y-77852380D01*
X112414285Y-77900000D01*
X112461904Y-77947619D01*
X112509523Y-78042857D01*
X112509523Y-78138095D01*
X112461904Y-78280952D01*
X111890476Y-78852380D01*
X112509523Y-78852380D01*
X112890476Y-77947619D02*
X112938095Y-77900000D01*
X113033333Y-77852380D01*
X113271428Y-77852380D01*
X113366666Y-77900000D01*
X113414285Y-77947619D01*
X113461904Y-78042857D01*
X113461904Y-78138095D01*
X113414285Y-78280952D01*
X112842857Y-78852380D01*
X113461904Y-78852380D01*
G04 #@! TO.C,C23*
X105137142Y-77892857D02*
X105184761Y-77940476D01*
X105232380Y-78083333D01*
X105232380Y-78178571D01*
X105184761Y-78321428D01*
X105089523Y-78416666D01*
X104994285Y-78464285D01*
X104803809Y-78511904D01*
X104660952Y-78511904D01*
X104470476Y-78464285D01*
X104375238Y-78416666D01*
X104280000Y-78321428D01*
X104232380Y-78178571D01*
X104232380Y-78083333D01*
X104280000Y-77940476D01*
X104327619Y-77892857D01*
X104327619Y-77511904D02*
X104280000Y-77464285D01*
X104232380Y-77369047D01*
X104232380Y-77130952D01*
X104280000Y-77035714D01*
X104327619Y-76988095D01*
X104422857Y-76940476D01*
X104518095Y-76940476D01*
X104660952Y-76988095D01*
X105232380Y-77559523D01*
X105232380Y-76940476D01*
X104232380Y-76607142D02*
X104232380Y-75988095D01*
X104613333Y-76321428D01*
X104613333Y-76178571D01*
X104660952Y-76083333D01*
X104708571Y-76035714D01*
X104803809Y-75988095D01*
X105041904Y-75988095D01*
X105137142Y-76035714D01*
X105184761Y-76083333D01*
X105232380Y-76178571D01*
X105232380Y-76464285D01*
X105184761Y-76559523D01*
X105137142Y-76607142D01*
G04 #@! TO.C,C24*
X111557142Y-80257142D02*
X111509523Y-80304761D01*
X111366666Y-80352380D01*
X111271428Y-80352380D01*
X111128571Y-80304761D01*
X111033333Y-80209523D01*
X110985714Y-80114285D01*
X110938095Y-79923809D01*
X110938095Y-79780952D01*
X110985714Y-79590476D01*
X111033333Y-79495238D01*
X111128571Y-79400000D01*
X111271428Y-79352380D01*
X111366666Y-79352380D01*
X111509523Y-79400000D01*
X111557142Y-79447619D01*
X111938095Y-79447619D02*
X111985714Y-79400000D01*
X112080952Y-79352380D01*
X112319047Y-79352380D01*
X112414285Y-79400000D01*
X112461904Y-79447619D01*
X112509523Y-79542857D01*
X112509523Y-79638095D01*
X112461904Y-79780952D01*
X111890476Y-80352380D01*
X112509523Y-80352380D01*
X113366666Y-79685714D02*
X113366666Y-80352380D01*
X113128571Y-79304761D02*
X112890476Y-80019047D01*
X113509523Y-80019047D01*
G04 #@! TO.C,C25*
X111557142Y-90057142D02*
X111509523Y-90104761D01*
X111366666Y-90152380D01*
X111271428Y-90152380D01*
X111128571Y-90104761D01*
X111033333Y-90009523D01*
X110985714Y-89914285D01*
X110938095Y-89723809D01*
X110938095Y-89580952D01*
X110985714Y-89390476D01*
X111033333Y-89295238D01*
X111128571Y-89200000D01*
X111271428Y-89152380D01*
X111366666Y-89152380D01*
X111509523Y-89200000D01*
X111557142Y-89247619D01*
X111938095Y-89247619D02*
X111985714Y-89200000D01*
X112080952Y-89152380D01*
X112319047Y-89152380D01*
X112414285Y-89200000D01*
X112461904Y-89247619D01*
X112509523Y-89342857D01*
X112509523Y-89438095D01*
X112461904Y-89580952D01*
X111890476Y-90152380D01*
X112509523Y-90152380D01*
X113414285Y-89152380D02*
X112938095Y-89152380D01*
X112890476Y-89628571D01*
X112938095Y-89580952D01*
X113033333Y-89533333D01*
X113271428Y-89533333D01*
X113366666Y-89580952D01*
X113414285Y-89628571D01*
X113461904Y-89723809D01*
X113461904Y-89961904D01*
X113414285Y-90057142D01*
X113366666Y-90104761D01*
X113271428Y-90152380D01*
X113033333Y-90152380D01*
X112938095Y-90104761D01*
X112890476Y-90057142D01*
G04 #@! TO.C,C31*
X111557142Y-82957142D02*
X111509523Y-83004761D01*
X111366666Y-83052380D01*
X111271428Y-83052380D01*
X111128571Y-83004761D01*
X111033333Y-82909523D01*
X110985714Y-82814285D01*
X110938095Y-82623809D01*
X110938095Y-82480952D01*
X110985714Y-82290476D01*
X111033333Y-82195238D01*
X111128571Y-82100000D01*
X111271428Y-82052380D01*
X111366666Y-82052380D01*
X111509523Y-82100000D01*
X111557142Y-82147619D01*
X111890476Y-82052380D02*
X112509523Y-82052380D01*
X112176190Y-82433333D01*
X112319047Y-82433333D01*
X112414285Y-82480952D01*
X112461904Y-82528571D01*
X112509523Y-82623809D01*
X112509523Y-82861904D01*
X112461904Y-82957142D01*
X112414285Y-83004761D01*
X112319047Y-83052380D01*
X112033333Y-83052380D01*
X111938095Y-83004761D01*
X111890476Y-82957142D01*
X113461904Y-83052380D02*
X112890476Y-83052380D01*
X113176190Y-83052380D02*
X113176190Y-82052380D01*
X113080952Y-82195238D01*
X112985714Y-82290476D01*
X112890476Y-82338095D01*
G04 #@! TO.C,C28*
X94957142Y-84427142D02*
X94909523Y-84474761D01*
X94766666Y-84522380D01*
X94671428Y-84522380D01*
X94528571Y-84474761D01*
X94433333Y-84379523D01*
X94385714Y-84284285D01*
X94338095Y-84093809D01*
X94338095Y-83950952D01*
X94385714Y-83760476D01*
X94433333Y-83665238D01*
X94528571Y-83570000D01*
X94671428Y-83522380D01*
X94766666Y-83522380D01*
X94909523Y-83570000D01*
X94957142Y-83617619D01*
X95338095Y-83617619D02*
X95385714Y-83570000D01*
X95480952Y-83522380D01*
X95719047Y-83522380D01*
X95814285Y-83570000D01*
X95861904Y-83617619D01*
X95909523Y-83712857D01*
X95909523Y-83808095D01*
X95861904Y-83950952D01*
X95290476Y-84522380D01*
X95909523Y-84522380D01*
X96480952Y-83950952D02*
X96385714Y-83903333D01*
X96338095Y-83855714D01*
X96290476Y-83760476D01*
X96290476Y-83712857D01*
X96338095Y-83617619D01*
X96385714Y-83570000D01*
X96480952Y-83522380D01*
X96671428Y-83522380D01*
X96766666Y-83570000D01*
X96814285Y-83617619D01*
X96861904Y-83712857D01*
X96861904Y-83760476D01*
X96814285Y-83855714D01*
X96766666Y-83903333D01*
X96671428Y-83950952D01*
X96480952Y-83950952D01*
X96385714Y-83998571D01*
X96338095Y-84046190D01*
X96290476Y-84141428D01*
X96290476Y-84331904D01*
X96338095Y-84427142D01*
X96385714Y-84474761D01*
X96480952Y-84522380D01*
X96671428Y-84522380D01*
X96766666Y-84474761D01*
X96814285Y-84427142D01*
X96861904Y-84331904D01*
X96861904Y-84141428D01*
X96814285Y-84046190D01*
X96766666Y-83998571D01*
X96671428Y-83950952D01*
G04 #@! TO.C,C17*
X111557142Y-88557142D02*
X111509523Y-88604761D01*
X111366666Y-88652380D01*
X111271428Y-88652380D01*
X111128571Y-88604761D01*
X111033333Y-88509523D01*
X110985714Y-88414285D01*
X110938095Y-88223809D01*
X110938095Y-88080952D01*
X110985714Y-87890476D01*
X111033333Y-87795238D01*
X111128571Y-87700000D01*
X111271428Y-87652380D01*
X111366666Y-87652380D01*
X111509523Y-87700000D01*
X111557142Y-87747619D01*
X112509523Y-88652380D02*
X111938095Y-88652380D01*
X112223809Y-88652380D02*
X112223809Y-87652380D01*
X112128571Y-87795238D01*
X112033333Y-87890476D01*
X111938095Y-87938095D01*
X112842857Y-87652380D02*
X113509523Y-87652380D01*
X113080952Y-88652380D01*
G04 #@! TO.C,C26*
X101257142Y-100642857D02*
X101304761Y-100690476D01*
X101352380Y-100833333D01*
X101352380Y-100928571D01*
X101304761Y-101071428D01*
X101209523Y-101166666D01*
X101114285Y-101214285D01*
X100923809Y-101261904D01*
X100780952Y-101261904D01*
X100590476Y-101214285D01*
X100495238Y-101166666D01*
X100400000Y-101071428D01*
X100352380Y-100928571D01*
X100352380Y-100833333D01*
X100400000Y-100690476D01*
X100447619Y-100642857D01*
X100447619Y-100261904D02*
X100400000Y-100214285D01*
X100352380Y-100119047D01*
X100352380Y-99880952D01*
X100400000Y-99785714D01*
X100447619Y-99738095D01*
X100542857Y-99690476D01*
X100638095Y-99690476D01*
X100780952Y-99738095D01*
X101352380Y-100309523D01*
X101352380Y-99690476D01*
X100352380Y-98833333D02*
X100352380Y-99023809D01*
X100400000Y-99119047D01*
X100447619Y-99166666D01*
X100590476Y-99261904D01*
X100780952Y-99309523D01*
X101161904Y-99309523D01*
X101257142Y-99261904D01*
X101304761Y-99214285D01*
X101352380Y-99119047D01*
X101352380Y-98928571D01*
X101304761Y-98833333D01*
X101257142Y-98785714D01*
X101161904Y-98738095D01*
X100923809Y-98738095D01*
X100828571Y-98785714D01*
X100780952Y-98833333D01*
X100733333Y-98928571D01*
X100733333Y-99119047D01*
X100780952Y-99214285D01*
X100828571Y-99261904D01*
X100923809Y-99309523D01*
G04 #@! TO.C,C27*
X111557142Y-92857142D02*
X111509523Y-92904761D01*
X111366666Y-92952380D01*
X111271428Y-92952380D01*
X111128571Y-92904761D01*
X111033333Y-92809523D01*
X110985714Y-92714285D01*
X110938095Y-92523809D01*
X110938095Y-92380952D01*
X110985714Y-92190476D01*
X111033333Y-92095238D01*
X111128571Y-92000000D01*
X111271428Y-91952380D01*
X111366666Y-91952380D01*
X111509523Y-92000000D01*
X111557142Y-92047619D01*
X111938095Y-92047619D02*
X111985714Y-92000000D01*
X112080952Y-91952380D01*
X112319047Y-91952380D01*
X112414285Y-92000000D01*
X112461904Y-92047619D01*
X112509523Y-92142857D01*
X112509523Y-92238095D01*
X112461904Y-92380952D01*
X111890476Y-92952380D01*
X112509523Y-92952380D01*
X112842857Y-91952380D02*
X113509523Y-91952380D01*
X113080952Y-92952380D01*
G04 #@! TO.C,R32*
X120857142Y-74252380D02*
X120523809Y-73776190D01*
X120285714Y-74252380D02*
X120285714Y-73252380D01*
X120666666Y-73252380D01*
X120761904Y-73300000D01*
X120809523Y-73347619D01*
X120857142Y-73442857D01*
X120857142Y-73585714D01*
X120809523Y-73680952D01*
X120761904Y-73728571D01*
X120666666Y-73776190D01*
X120285714Y-73776190D01*
X121190476Y-73252380D02*
X121809523Y-73252380D01*
X121476190Y-73633333D01*
X121619047Y-73633333D01*
X121714285Y-73680952D01*
X121761904Y-73728571D01*
X121809523Y-73823809D01*
X121809523Y-74061904D01*
X121761904Y-74157142D01*
X121714285Y-74204761D01*
X121619047Y-74252380D01*
X121333333Y-74252380D01*
X121238095Y-74204761D01*
X121190476Y-74157142D01*
X122190476Y-73347619D02*
X122238095Y-73300000D01*
X122333333Y-73252380D01*
X122571428Y-73252380D01*
X122666666Y-73300000D01*
X122714285Y-73347619D01*
X122761904Y-73442857D01*
X122761904Y-73538095D01*
X122714285Y-73680952D01*
X122142857Y-74252380D01*
X122761904Y-74252380D01*
G04 #@! TO.C,R26*
X154807142Y-80252380D02*
X154473809Y-79776190D01*
X154235714Y-80252380D02*
X154235714Y-79252380D01*
X154616666Y-79252380D01*
X154711904Y-79300000D01*
X154759523Y-79347619D01*
X154807142Y-79442857D01*
X154807142Y-79585714D01*
X154759523Y-79680952D01*
X154711904Y-79728571D01*
X154616666Y-79776190D01*
X154235714Y-79776190D01*
X155188095Y-79347619D02*
X155235714Y-79300000D01*
X155330952Y-79252380D01*
X155569047Y-79252380D01*
X155664285Y-79300000D01*
X155711904Y-79347619D01*
X155759523Y-79442857D01*
X155759523Y-79538095D01*
X155711904Y-79680952D01*
X155140476Y-80252380D01*
X155759523Y-80252380D01*
X156616666Y-79252380D02*
X156426190Y-79252380D01*
X156330952Y-79300000D01*
X156283333Y-79347619D01*
X156188095Y-79490476D01*
X156140476Y-79680952D01*
X156140476Y-80061904D01*
X156188095Y-80157142D01*
X156235714Y-80204761D01*
X156330952Y-80252380D01*
X156521428Y-80252380D01*
X156616666Y-80204761D01*
X156664285Y-80157142D01*
X156711904Y-80061904D01*
X156711904Y-79823809D01*
X156664285Y-79728571D01*
X156616666Y-79680952D01*
X156521428Y-79633333D01*
X156330952Y-79633333D01*
X156235714Y-79680952D01*
X156188095Y-79728571D01*
X156140476Y-79823809D01*
G04 #@! TO.C,R27*
X154807142Y-78802380D02*
X154473809Y-78326190D01*
X154235714Y-78802380D02*
X154235714Y-77802380D01*
X154616666Y-77802380D01*
X154711904Y-77850000D01*
X154759523Y-77897619D01*
X154807142Y-77992857D01*
X154807142Y-78135714D01*
X154759523Y-78230952D01*
X154711904Y-78278571D01*
X154616666Y-78326190D01*
X154235714Y-78326190D01*
X155188095Y-77897619D02*
X155235714Y-77850000D01*
X155330952Y-77802380D01*
X155569047Y-77802380D01*
X155664285Y-77850000D01*
X155711904Y-77897619D01*
X155759523Y-77992857D01*
X155759523Y-78088095D01*
X155711904Y-78230952D01*
X155140476Y-78802380D01*
X155759523Y-78802380D01*
X156092857Y-77802380D02*
X156759523Y-77802380D01*
X156330952Y-78802380D01*
G04 #@! TO.C,R29*
X133652380Y-76942857D02*
X133176190Y-77276190D01*
X133652380Y-77514285D02*
X132652380Y-77514285D01*
X132652380Y-77133333D01*
X132700000Y-77038095D01*
X132747619Y-76990476D01*
X132842857Y-76942857D01*
X132985714Y-76942857D01*
X133080952Y-76990476D01*
X133128571Y-77038095D01*
X133176190Y-77133333D01*
X133176190Y-77514285D01*
X132747619Y-76561904D02*
X132700000Y-76514285D01*
X132652380Y-76419047D01*
X132652380Y-76180952D01*
X132700000Y-76085714D01*
X132747619Y-76038095D01*
X132842857Y-75990476D01*
X132938095Y-75990476D01*
X133080952Y-76038095D01*
X133652380Y-76609523D01*
X133652380Y-75990476D01*
X133652380Y-75514285D02*
X133652380Y-75323809D01*
X133604761Y-75228571D01*
X133557142Y-75180952D01*
X133414285Y-75085714D01*
X133223809Y-75038095D01*
X132842857Y-75038095D01*
X132747619Y-75085714D01*
X132700000Y-75133333D01*
X132652380Y-75228571D01*
X132652380Y-75419047D01*
X132700000Y-75514285D01*
X132747619Y-75561904D01*
X132842857Y-75609523D01*
X133080952Y-75609523D01*
X133176190Y-75561904D01*
X133223809Y-75514285D01*
X133271428Y-75419047D01*
X133271428Y-75228571D01*
X133223809Y-75133333D01*
X133176190Y-75085714D01*
X133080952Y-75038095D01*
G04 #@! TO.C,R30*
X133057142Y-82652380D02*
X132723809Y-82176190D01*
X132485714Y-82652380D02*
X132485714Y-81652380D01*
X132866666Y-81652380D01*
X132961904Y-81700000D01*
X133009523Y-81747619D01*
X133057142Y-81842857D01*
X133057142Y-81985714D01*
X133009523Y-82080952D01*
X132961904Y-82128571D01*
X132866666Y-82176190D01*
X132485714Y-82176190D01*
X133390476Y-81652380D02*
X134009523Y-81652380D01*
X133676190Y-82033333D01*
X133819047Y-82033333D01*
X133914285Y-82080952D01*
X133961904Y-82128571D01*
X134009523Y-82223809D01*
X134009523Y-82461904D01*
X133961904Y-82557142D01*
X133914285Y-82604761D01*
X133819047Y-82652380D01*
X133533333Y-82652380D01*
X133438095Y-82604761D01*
X133390476Y-82557142D01*
X134628571Y-81652380D02*
X134723809Y-81652380D01*
X134819047Y-81700000D01*
X134866666Y-81747619D01*
X134914285Y-81842857D01*
X134961904Y-82033333D01*
X134961904Y-82271428D01*
X134914285Y-82461904D01*
X134866666Y-82557142D01*
X134819047Y-82604761D01*
X134723809Y-82652380D01*
X134628571Y-82652380D01*
X134533333Y-82604761D01*
X134485714Y-82557142D01*
X134438095Y-82461904D01*
X134390476Y-82271428D01*
X134390476Y-82033333D01*
X134438095Y-81842857D01*
X134485714Y-81747619D01*
X134533333Y-81700000D01*
X134628571Y-81652380D01*
G04 #@! TO.C,R31*
X120857142Y-81482380D02*
X120523809Y-81006190D01*
X120285714Y-81482380D02*
X120285714Y-80482380D01*
X120666666Y-80482380D01*
X120761904Y-80530000D01*
X120809523Y-80577619D01*
X120857142Y-80672857D01*
X120857142Y-80815714D01*
X120809523Y-80910952D01*
X120761904Y-80958571D01*
X120666666Y-81006190D01*
X120285714Y-81006190D01*
X121190476Y-80482380D02*
X121809523Y-80482380D01*
X121476190Y-80863333D01*
X121619047Y-80863333D01*
X121714285Y-80910952D01*
X121761904Y-80958571D01*
X121809523Y-81053809D01*
X121809523Y-81291904D01*
X121761904Y-81387142D01*
X121714285Y-81434761D01*
X121619047Y-81482380D01*
X121333333Y-81482380D01*
X121238095Y-81434761D01*
X121190476Y-81387142D01*
X122761904Y-81482380D02*
X122190476Y-81482380D01*
X122476190Y-81482380D02*
X122476190Y-80482380D01*
X122380952Y-80625238D01*
X122285714Y-80720476D01*
X122190476Y-80768095D01*
G04 #@! TO.C,R22*
X148302380Y-80642857D02*
X147826190Y-80976190D01*
X148302380Y-81214285D02*
X147302380Y-81214285D01*
X147302380Y-80833333D01*
X147350000Y-80738095D01*
X147397619Y-80690476D01*
X147492857Y-80642857D01*
X147635714Y-80642857D01*
X147730952Y-80690476D01*
X147778571Y-80738095D01*
X147826190Y-80833333D01*
X147826190Y-81214285D01*
X147397619Y-80261904D02*
X147350000Y-80214285D01*
X147302380Y-80119047D01*
X147302380Y-79880952D01*
X147350000Y-79785714D01*
X147397619Y-79738095D01*
X147492857Y-79690476D01*
X147588095Y-79690476D01*
X147730952Y-79738095D01*
X148302380Y-80309523D01*
X148302380Y-79690476D01*
X147397619Y-79309523D02*
X147350000Y-79261904D01*
X147302380Y-79166666D01*
X147302380Y-78928571D01*
X147350000Y-78833333D01*
X147397619Y-78785714D01*
X147492857Y-78738095D01*
X147588095Y-78738095D01*
X147730952Y-78785714D01*
X148302380Y-79357142D01*
X148302380Y-78738095D01*
G04 #@! TO.C,R8*
X128433333Y-104702380D02*
X128100000Y-104226190D01*
X127861904Y-104702380D02*
X127861904Y-103702380D01*
X128242857Y-103702380D01*
X128338095Y-103750000D01*
X128385714Y-103797619D01*
X128433333Y-103892857D01*
X128433333Y-104035714D01*
X128385714Y-104130952D01*
X128338095Y-104178571D01*
X128242857Y-104226190D01*
X127861904Y-104226190D01*
X129004761Y-104130952D02*
X128909523Y-104083333D01*
X128861904Y-104035714D01*
X128814285Y-103940476D01*
X128814285Y-103892857D01*
X128861904Y-103797619D01*
X128909523Y-103750000D01*
X129004761Y-103702380D01*
X129195238Y-103702380D01*
X129290476Y-103750000D01*
X129338095Y-103797619D01*
X129385714Y-103892857D01*
X129385714Y-103940476D01*
X129338095Y-104035714D01*
X129290476Y-104083333D01*
X129195238Y-104130952D01*
X129004761Y-104130952D01*
X128909523Y-104178571D01*
X128861904Y-104226190D01*
X128814285Y-104321428D01*
X128814285Y-104511904D01*
X128861904Y-104607142D01*
X128909523Y-104654761D01*
X129004761Y-104702380D01*
X129195238Y-104702380D01*
X129290476Y-104654761D01*
X129338095Y-104607142D01*
X129385714Y-104511904D01*
X129385714Y-104321428D01*
X129338095Y-104226190D01*
X129290476Y-104178571D01*
X129195238Y-104130952D01*
G04 #@! TO.C,R6*
X139933333Y-104152380D02*
X139600000Y-103676190D01*
X139361904Y-104152380D02*
X139361904Y-103152380D01*
X139742857Y-103152380D01*
X139838095Y-103200000D01*
X139885714Y-103247619D01*
X139933333Y-103342857D01*
X139933333Y-103485714D01*
X139885714Y-103580952D01*
X139838095Y-103628571D01*
X139742857Y-103676190D01*
X139361904Y-103676190D01*
X140790476Y-103152380D02*
X140600000Y-103152380D01*
X140504761Y-103200000D01*
X140457142Y-103247619D01*
X140361904Y-103390476D01*
X140314285Y-103580952D01*
X140314285Y-103961904D01*
X140361904Y-104057142D01*
X140409523Y-104104761D01*
X140504761Y-104152380D01*
X140695238Y-104152380D01*
X140790476Y-104104761D01*
X140838095Y-104057142D01*
X140885714Y-103961904D01*
X140885714Y-103723809D01*
X140838095Y-103628571D01*
X140790476Y-103580952D01*
X140695238Y-103533333D01*
X140504761Y-103533333D01*
X140409523Y-103580952D01*
X140361904Y-103628571D01*
X140314285Y-103723809D01*
G04 #@! TO.C,R5*
X126033333Y-101722380D02*
X125700000Y-101246190D01*
X125461904Y-101722380D02*
X125461904Y-100722380D01*
X125842857Y-100722380D01*
X125938095Y-100770000D01*
X125985714Y-100817619D01*
X126033333Y-100912857D01*
X126033333Y-101055714D01*
X125985714Y-101150952D01*
X125938095Y-101198571D01*
X125842857Y-101246190D01*
X125461904Y-101246190D01*
X126938095Y-100722380D02*
X126461904Y-100722380D01*
X126414285Y-101198571D01*
X126461904Y-101150952D01*
X126557142Y-101103333D01*
X126795238Y-101103333D01*
X126890476Y-101150952D01*
X126938095Y-101198571D01*
X126985714Y-101293809D01*
X126985714Y-101531904D01*
X126938095Y-101627142D01*
X126890476Y-101674761D01*
X126795238Y-101722380D01*
X126557142Y-101722380D01*
X126461904Y-101674761D01*
X126414285Y-101627142D01*
G04 #@! TO.C,R23*
X150807142Y-77502380D02*
X150473809Y-77026190D01*
X150235714Y-77502380D02*
X150235714Y-76502380D01*
X150616666Y-76502380D01*
X150711904Y-76550000D01*
X150759523Y-76597619D01*
X150807142Y-76692857D01*
X150807142Y-76835714D01*
X150759523Y-76930952D01*
X150711904Y-76978571D01*
X150616666Y-77026190D01*
X150235714Y-77026190D01*
X151188095Y-76597619D02*
X151235714Y-76550000D01*
X151330952Y-76502380D01*
X151569047Y-76502380D01*
X151664285Y-76550000D01*
X151711904Y-76597619D01*
X151759523Y-76692857D01*
X151759523Y-76788095D01*
X151711904Y-76930952D01*
X151140476Y-77502380D01*
X151759523Y-77502380D01*
X152092857Y-76502380D02*
X152711904Y-76502380D01*
X152378571Y-76883333D01*
X152521428Y-76883333D01*
X152616666Y-76930952D01*
X152664285Y-76978571D01*
X152711904Y-77073809D01*
X152711904Y-77311904D01*
X152664285Y-77407142D01*
X152616666Y-77454761D01*
X152521428Y-77502380D01*
X152235714Y-77502380D01*
X152140476Y-77454761D01*
X152092857Y-77407142D01*
G04 #@! TO.C,R3*
X86333333Y-77452380D02*
X86000000Y-76976190D01*
X85761904Y-77452380D02*
X85761904Y-76452380D01*
X86142857Y-76452380D01*
X86238095Y-76500000D01*
X86285714Y-76547619D01*
X86333333Y-76642857D01*
X86333333Y-76785714D01*
X86285714Y-76880952D01*
X86238095Y-76928571D01*
X86142857Y-76976190D01*
X85761904Y-76976190D01*
X86666666Y-76452380D02*
X87285714Y-76452380D01*
X86952380Y-76833333D01*
X87095238Y-76833333D01*
X87190476Y-76880952D01*
X87238095Y-76928571D01*
X87285714Y-77023809D01*
X87285714Y-77261904D01*
X87238095Y-77357142D01*
X87190476Y-77404761D01*
X87095238Y-77452380D01*
X86809523Y-77452380D01*
X86714285Y-77404761D01*
X86666666Y-77357142D01*
G04 #@! TO.C,R4*
X84833333Y-72952380D02*
X84500000Y-72476190D01*
X84261904Y-72952380D02*
X84261904Y-71952380D01*
X84642857Y-71952380D01*
X84738095Y-72000000D01*
X84785714Y-72047619D01*
X84833333Y-72142857D01*
X84833333Y-72285714D01*
X84785714Y-72380952D01*
X84738095Y-72428571D01*
X84642857Y-72476190D01*
X84261904Y-72476190D01*
X85690476Y-72285714D02*
X85690476Y-72952380D01*
X85452380Y-71904761D02*
X85214285Y-72619047D01*
X85833333Y-72619047D01*
G04 #@! TO.C,R24*
X143307142Y-83902380D02*
X142973809Y-83426190D01*
X142735714Y-83902380D02*
X142735714Y-82902380D01*
X143116666Y-82902380D01*
X143211904Y-82950000D01*
X143259523Y-82997619D01*
X143307142Y-83092857D01*
X143307142Y-83235714D01*
X143259523Y-83330952D01*
X143211904Y-83378571D01*
X143116666Y-83426190D01*
X142735714Y-83426190D01*
X143688095Y-82997619D02*
X143735714Y-82950000D01*
X143830952Y-82902380D01*
X144069047Y-82902380D01*
X144164285Y-82950000D01*
X144211904Y-82997619D01*
X144259523Y-83092857D01*
X144259523Y-83188095D01*
X144211904Y-83330952D01*
X143640476Y-83902380D01*
X144259523Y-83902380D01*
X145116666Y-83235714D02*
X145116666Y-83902380D01*
X144878571Y-82854761D02*
X144640476Y-83569047D01*
X145259523Y-83569047D01*
G04 #@! TO.C,R9*
X139933333Y-105602380D02*
X139600000Y-105126190D01*
X139361904Y-105602380D02*
X139361904Y-104602380D01*
X139742857Y-104602380D01*
X139838095Y-104650000D01*
X139885714Y-104697619D01*
X139933333Y-104792857D01*
X139933333Y-104935714D01*
X139885714Y-105030952D01*
X139838095Y-105078571D01*
X139742857Y-105126190D01*
X139361904Y-105126190D01*
X140409523Y-105602380D02*
X140600000Y-105602380D01*
X140695238Y-105554761D01*
X140742857Y-105507142D01*
X140838095Y-105364285D01*
X140885714Y-105173809D01*
X140885714Y-104792857D01*
X140838095Y-104697619D01*
X140790476Y-104650000D01*
X140695238Y-104602380D01*
X140504761Y-104602380D01*
X140409523Y-104650000D01*
X140361904Y-104697619D01*
X140314285Y-104792857D01*
X140314285Y-105030952D01*
X140361904Y-105126190D01*
X140409523Y-105173809D01*
X140504761Y-105221428D01*
X140695238Y-105221428D01*
X140790476Y-105173809D01*
X140838095Y-105126190D01*
X140885714Y-105030952D01*
G04 #@! TO.C,R1*
X119683333Y-100022380D02*
X119350000Y-99546190D01*
X119111904Y-100022380D02*
X119111904Y-99022380D01*
X119492857Y-99022380D01*
X119588095Y-99070000D01*
X119635714Y-99117619D01*
X119683333Y-99212857D01*
X119683333Y-99355714D01*
X119635714Y-99450952D01*
X119588095Y-99498571D01*
X119492857Y-99546190D01*
X119111904Y-99546190D01*
X120635714Y-100022380D02*
X120064285Y-100022380D01*
X120350000Y-100022380D02*
X120350000Y-99022380D01*
X120254761Y-99165238D01*
X120159523Y-99260476D01*
X120064285Y-99308095D01*
G04 #@! TO.C,R10*
X136507142Y-104702380D02*
X136173809Y-104226190D01*
X135935714Y-104702380D02*
X135935714Y-103702380D01*
X136316666Y-103702380D01*
X136411904Y-103750000D01*
X136459523Y-103797619D01*
X136507142Y-103892857D01*
X136507142Y-104035714D01*
X136459523Y-104130952D01*
X136411904Y-104178571D01*
X136316666Y-104226190D01*
X135935714Y-104226190D01*
X137459523Y-104702380D02*
X136888095Y-104702380D01*
X137173809Y-104702380D02*
X137173809Y-103702380D01*
X137078571Y-103845238D01*
X136983333Y-103940476D01*
X136888095Y-103988095D01*
X138078571Y-103702380D02*
X138173809Y-103702380D01*
X138269047Y-103750000D01*
X138316666Y-103797619D01*
X138364285Y-103892857D01*
X138411904Y-104083333D01*
X138411904Y-104321428D01*
X138364285Y-104511904D01*
X138316666Y-104607142D01*
X138269047Y-104654761D01*
X138173809Y-104702380D01*
X138078571Y-104702380D01*
X137983333Y-104654761D01*
X137935714Y-104607142D01*
X137888095Y-104511904D01*
X137840476Y-104321428D01*
X137840476Y-104083333D01*
X137888095Y-103892857D01*
X137935714Y-103797619D01*
X137983333Y-103750000D01*
X138078571Y-103702380D01*
G04 #@! TO.C,R7*
X134148333Y-101722380D02*
X133815000Y-101246190D01*
X133576904Y-101722380D02*
X133576904Y-100722380D01*
X133957857Y-100722380D01*
X134053095Y-100770000D01*
X134100714Y-100817619D01*
X134148333Y-100912857D01*
X134148333Y-101055714D01*
X134100714Y-101150952D01*
X134053095Y-101198571D01*
X133957857Y-101246190D01*
X133576904Y-101246190D01*
X134481666Y-100722380D02*
X135148333Y-100722380D01*
X134719761Y-101722380D01*
G04 #@! TO.C,R12*
X78957142Y-106682380D02*
X78623809Y-106206190D01*
X78385714Y-106682380D02*
X78385714Y-105682380D01*
X78766666Y-105682380D01*
X78861904Y-105730000D01*
X78909523Y-105777619D01*
X78957142Y-105872857D01*
X78957142Y-106015714D01*
X78909523Y-106110952D01*
X78861904Y-106158571D01*
X78766666Y-106206190D01*
X78385714Y-106206190D01*
X79909523Y-106682380D02*
X79338095Y-106682380D01*
X79623809Y-106682380D02*
X79623809Y-105682380D01*
X79528571Y-105825238D01*
X79433333Y-105920476D01*
X79338095Y-105968095D01*
X80290476Y-105777619D02*
X80338095Y-105730000D01*
X80433333Y-105682380D01*
X80671428Y-105682380D01*
X80766666Y-105730000D01*
X80814285Y-105777619D01*
X80861904Y-105872857D01*
X80861904Y-105968095D01*
X80814285Y-106110952D01*
X80242857Y-106682380D01*
X80861904Y-106682380D01*
G04 #@! TO.C,R13*
X111552380Y-100192857D02*
X111076190Y-100526190D01*
X111552380Y-100764285D02*
X110552380Y-100764285D01*
X110552380Y-100383333D01*
X110600000Y-100288095D01*
X110647619Y-100240476D01*
X110742857Y-100192857D01*
X110885714Y-100192857D01*
X110980952Y-100240476D01*
X111028571Y-100288095D01*
X111076190Y-100383333D01*
X111076190Y-100764285D01*
X111552380Y-99240476D02*
X111552380Y-99811904D01*
X111552380Y-99526190D02*
X110552380Y-99526190D01*
X110695238Y-99621428D01*
X110790476Y-99716666D01*
X110838095Y-99811904D01*
X110552380Y-98907142D02*
X110552380Y-98288095D01*
X110933333Y-98621428D01*
X110933333Y-98478571D01*
X110980952Y-98383333D01*
X111028571Y-98335714D01*
X111123809Y-98288095D01*
X111361904Y-98288095D01*
X111457142Y-98335714D01*
X111504761Y-98383333D01*
X111552380Y-98478571D01*
X111552380Y-98764285D01*
X111504761Y-98859523D01*
X111457142Y-98907142D01*
G04 #@! TO.C,R16*
X111557142Y-81752380D02*
X111223809Y-81276190D01*
X110985714Y-81752380D02*
X110985714Y-80752380D01*
X111366666Y-80752380D01*
X111461904Y-80800000D01*
X111509523Y-80847619D01*
X111557142Y-80942857D01*
X111557142Y-81085714D01*
X111509523Y-81180952D01*
X111461904Y-81228571D01*
X111366666Y-81276190D01*
X110985714Y-81276190D01*
X112509523Y-81752380D02*
X111938095Y-81752380D01*
X112223809Y-81752380D02*
X112223809Y-80752380D01*
X112128571Y-80895238D01*
X112033333Y-80990476D01*
X111938095Y-81038095D01*
X113366666Y-80752380D02*
X113176190Y-80752380D01*
X113080952Y-80800000D01*
X113033333Y-80847619D01*
X112938095Y-80990476D01*
X112890476Y-81180952D01*
X112890476Y-81561904D01*
X112938095Y-81657142D01*
X112985714Y-81704761D01*
X113080952Y-81752380D01*
X113271428Y-81752380D01*
X113366666Y-81704761D01*
X113414285Y-81657142D01*
X113461904Y-81561904D01*
X113461904Y-81323809D01*
X113414285Y-81228571D01*
X113366666Y-81180952D01*
X113271428Y-81133333D01*
X113080952Y-81133333D01*
X112985714Y-81180952D01*
X112938095Y-81228571D01*
X112890476Y-81323809D01*
G04 #@! TO.C,R18*
X69257142Y-77552380D02*
X68923809Y-77076190D01*
X68685714Y-77552380D02*
X68685714Y-76552380D01*
X69066666Y-76552380D01*
X69161904Y-76600000D01*
X69209523Y-76647619D01*
X69257142Y-76742857D01*
X69257142Y-76885714D01*
X69209523Y-76980952D01*
X69161904Y-77028571D01*
X69066666Y-77076190D01*
X68685714Y-77076190D01*
X70209523Y-77552380D02*
X69638095Y-77552380D01*
X69923809Y-77552380D02*
X69923809Y-76552380D01*
X69828571Y-76695238D01*
X69733333Y-76790476D01*
X69638095Y-76838095D01*
X70780952Y-76980952D02*
X70685714Y-76933333D01*
X70638095Y-76885714D01*
X70590476Y-76790476D01*
X70590476Y-76742857D01*
X70638095Y-76647619D01*
X70685714Y-76600000D01*
X70780952Y-76552380D01*
X70971428Y-76552380D01*
X71066666Y-76600000D01*
X71114285Y-76647619D01*
X71161904Y-76742857D01*
X71161904Y-76790476D01*
X71114285Y-76885714D01*
X71066666Y-76933333D01*
X70971428Y-76980952D01*
X70780952Y-76980952D01*
X70685714Y-77028571D01*
X70638095Y-77076190D01*
X70590476Y-77171428D01*
X70590476Y-77361904D01*
X70638095Y-77457142D01*
X70685714Y-77504761D01*
X70780952Y-77552380D01*
X70971428Y-77552380D01*
X71066666Y-77504761D01*
X71114285Y-77457142D01*
X71161904Y-77361904D01*
X71161904Y-77171428D01*
X71114285Y-77076190D01*
X71066666Y-77028571D01*
X70971428Y-76980952D01*
G04 #@! TO.C,R19*
X69257142Y-80552380D02*
X68923809Y-80076190D01*
X68685714Y-80552380D02*
X68685714Y-79552380D01*
X69066666Y-79552380D01*
X69161904Y-79600000D01*
X69209523Y-79647619D01*
X69257142Y-79742857D01*
X69257142Y-79885714D01*
X69209523Y-79980952D01*
X69161904Y-80028571D01*
X69066666Y-80076190D01*
X68685714Y-80076190D01*
X70209523Y-80552380D02*
X69638095Y-80552380D01*
X69923809Y-80552380D02*
X69923809Y-79552380D01*
X69828571Y-79695238D01*
X69733333Y-79790476D01*
X69638095Y-79838095D01*
X70685714Y-80552380D02*
X70876190Y-80552380D01*
X70971428Y-80504761D01*
X71019047Y-80457142D01*
X71114285Y-80314285D01*
X71161904Y-80123809D01*
X71161904Y-79742857D01*
X71114285Y-79647619D01*
X71066666Y-79600000D01*
X70971428Y-79552380D01*
X70780952Y-79552380D01*
X70685714Y-79600000D01*
X70638095Y-79647619D01*
X70590476Y-79742857D01*
X70590476Y-79980952D01*
X70638095Y-80076190D01*
X70685714Y-80123809D01*
X70780952Y-80171428D01*
X70971428Y-80171428D01*
X71066666Y-80123809D01*
X71114285Y-80076190D01*
X71161904Y-79980952D01*
G04 #@! TO.C,R20*
X75552380Y-81642857D02*
X75076190Y-81976190D01*
X75552380Y-82214285D02*
X74552380Y-82214285D01*
X74552380Y-81833333D01*
X74600000Y-81738095D01*
X74647619Y-81690476D01*
X74742857Y-81642857D01*
X74885714Y-81642857D01*
X74980952Y-81690476D01*
X75028571Y-81738095D01*
X75076190Y-81833333D01*
X75076190Y-82214285D01*
X74647619Y-81261904D02*
X74600000Y-81214285D01*
X74552380Y-81119047D01*
X74552380Y-80880952D01*
X74600000Y-80785714D01*
X74647619Y-80738095D01*
X74742857Y-80690476D01*
X74838095Y-80690476D01*
X74980952Y-80738095D01*
X75552380Y-81309523D01*
X75552380Y-80690476D01*
X74552380Y-80071428D02*
X74552380Y-79976190D01*
X74600000Y-79880952D01*
X74647619Y-79833333D01*
X74742857Y-79785714D01*
X74933333Y-79738095D01*
X75171428Y-79738095D01*
X75361904Y-79785714D01*
X75457142Y-79833333D01*
X75504761Y-79880952D01*
X75552380Y-79976190D01*
X75552380Y-80071428D01*
X75504761Y-80166666D01*
X75457142Y-80214285D01*
X75361904Y-80261904D01*
X75171428Y-80309523D01*
X74933333Y-80309523D01*
X74742857Y-80261904D01*
X74647619Y-80214285D01*
X74600000Y-80166666D01*
X74552380Y-80071428D01*
G04 #@! TO.C,R2*
X116933333Y-104132380D02*
X116600000Y-103656190D01*
X116361904Y-104132380D02*
X116361904Y-103132380D01*
X116742857Y-103132380D01*
X116838095Y-103180000D01*
X116885714Y-103227619D01*
X116933333Y-103322857D01*
X116933333Y-103465714D01*
X116885714Y-103560952D01*
X116838095Y-103608571D01*
X116742857Y-103656190D01*
X116361904Y-103656190D01*
X117314285Y-103227619D02*
X117361904Y-103180000D01*
X117457142Y-103132380D01*
X117695238Y-103132380D01*
X117790476Y-103180000D01*
X117838095Y-103227619D01*
X117885714Y-103322857D01*
X117885714Y-103418095D01*
X117838095Y-103560952D01*
X117266666Y-104132380D01*
X117885714Y-104132380D01*
G04 #@! TO.C,R11*
X112622380Y-107642857D02*
X112146190Y-107976190D01*
X112622380Y-108214285D02*
X111622380Y-108214285D01*
X111622380Y-107833333D01*
X111670000Y-107738095D01*
X111717619Y-107690476D01*
X111812857Y-107642857D01*
X111955714Y-107642857D01*
X112050952Y-107690476D01*
X112098571Y-107738095D01*
X112146190Y-107833333D01*
X112146190Y-108214285D01*
X112622380Y-106690476D02*
X112622380Y-107261904D01*
X112622380Y-106976190D02*
X111622380Y-106976190D01*
X111765238Y-107071428D01*
X111860476Y-107166666D01*
X111908095Y-107261904D01*
X112622380Y-105738095D02*
X112622380Y-106309523D01*
X112622380Y-106023809D02*
X111622380Y-106023809D01*
X111765238Y-106119047D01*
X111860476Y-106214285D01*
X111908095Y-106309523D01*
G04 #@! TO.C,XTAL1*
X103876190Y-93652380D02*
X104542857Y-94652380D01*
X104542857Y-93652380D02*
X103876190Y-94652380D01*
X104780952Y-93652380D02*
X105352380Y-93652380D01*
X105066666Y-94652380D02*
X105066666Y-93652380D01*
X105638095Y-94366666D02*
X106114285Y-94366666D01*
X105542857Y-94652380D02*
X105876190Y-93652380D01*
X106209523Y-94652380D01*
X107019047Y-94652380D02*
X106542857Y-94652380D01*
X106542857Y-93652380D01*
X107876190Y-94652380D02*
X107304761Y-94652380D01*
X107590476Y-94652380D02*
X107590476Y-93652380D01*
X107495238Y-93795238D01*
X107400000Y-93890476D01*
X107304761Y-93938095D01*
G04 #@! TO.C,J1*
X129516666Y-72852380D02*
X129516666Y-73566666D01*
X129469047Y-73709523D01*
X129373809Y-73804761D01*
X129230952Y-73852380D01*
X129135714Y-73852380D01*
X130516666Y-73852380D02*
X129945238Y-73852380D01*
X130230952Y-73852380D02*
X130230952Y-72852380D01*
X130135714Y-72995238D01*
X130040476Y-73090476D01*
X129945238Y-73138095D01*
G04 #@! TO.C,C64*
X137657142Y-74957142D02*
X137609523Y-75004761D01*
X137466666Y-75052380D01*
X137371428Y-75052380D01*
X137228571Y-75004761D01*
X137133333Y-74909523D01*
X137085714Y-74814285D01*
X137038095Y-74623809D01*
X137038095Y-74480952D01*
X137085714Y-74290476D01*
X137133333Y-74195238D01*
X137228571Y-74100000D01*
X137371428Y-74052380D01*
X137466666Y-74052380D01*
X137609523Y-74100000D01*
X137657142Y-74147619D01*
X138514285Y-74052380D02*
X138323809Y-74052380D01*
X138228571Y-74100000D01*
X138180952Y-74147619D01*
X138085714Y-74290476D01*
X138038095Y-74480952D01*
X138038095Y-74861904D01*
X138085714Y-74957142D01*
X138133333Y-75004761D01*
X138228571Y-75052380D01*
X138419047Y-75052380D01*
X138514285Y-75004761D01*
X138561904Y-74957142D01*
X138609523Y-74861904D01*
X138609523Y-74623809D01*
X138561904Y-74528571D01*
X138514285Y-74480952D01*
X138419047Y-74433333D01*
X138228571Y-74433333D01*
X138133333Y-74480952D01*
X138085714Y-74528571D01*
X138038095Y-74623809D01*
X139466666Y-74385714D02*
X139466666Y-75052380D01*
X139228571Y-74004761D02*
X138990476Y-74719047D01*
X139609523Y-74719047D01*
G04 #@! TO.C,U9*
X147738095Y-100252380D02*
X147738095Y-101061904D01*
X147785714Y-101157142D01*
X147833333Y-101204761D01*
X147928571Y-101252380D01*
X148119047Y-101252380D01*
X148214285Y-101204761D01*
X148261904Y-101157142D01*
X148309523Y-101061904D01*
X148309523Y-100252380D01*
X148833333Y-101252380D02*
X149023809Y-101252380D01*
X149119047Y-101204761D01*
X149166666Y-101157142D01*
X149261904Y-101014285D01*
X149309523Y-100823809D01*
X149309523Y-100442857D01*
X149261904Y-100347619D01*
X149214285Y-100300000D01*
X149119047Y-100252380D01*
X148928571Y-100252380D01*
X148833333Y-100300000D01*
X148785714Y-100347619D01*
X148738095Y-100442857D01*
X148738095Y-100680952D01*
X148785714Y-100776190D01*
X148833333Y-100823809D01*
X148928571Y-100871428D01*
X149119047Y-100871428D01*
X149214285Y-100823809D01*
X149261904Y-100776190D01*
X149309523Y-100680952D01*
G04 #@! TO.C,R17*
X106357142Y-74852380D02*
X106023809Y-74376190D01*
X105785714Y-74852380D02*
X105785714Y-73852380D01*
X106166666Y-73852380D01*
X106261904Y-73900000D01*
X106309523Y-73947619D01*
X106357142Y-74042857D01*
X106357142Y-74185714D01*
X106309523Y-74280952D01*
X106261904Y-74328571D01*
X106166666Y-74376190D01*
X105785714Y-74376190D01*
X107309523Y-74852380D02*
X106738095Y-74852380D01*
X107023809Y-74852380D02*
X107023809Y-73852380D01*
X106928571Y-73995238D01*
X106833333Y-74090476D01*
X106738095Y-74138095D01*
X107642857Y-73852380D02*
X108309523Y-73852380D01*
X107880952Y-74852380D01*
G04 #@! TO.C,R14*
X117357142Y-86952380D02*
X117023809Y-86476190D01*
X116785714Y-86952380D02*
X116785714Y-85952380D01*
X117166666Y-85952380D01*
X117261904Y-86000000D01*
X117309523Y-86047619D01*
X117357142Y-86142857D01*
X117357142Y-86285714D01*
X117309523Y-86380952D01*
X117261904Y-86428571D01*
X117166666Y-86476190D01*
X116785714Y-86476190D01*
X118309523Y-86952380D02*
X117738095Y-86952380D01*
X118023809Y-86952380D02*
X118023809Y-85952380D01*
X117928571Y-86095238D01*
X117833333Y-86190476D01*
X117738095Y-86238095D01*
X119166666Y-86285714D02*
X119166666Y-86952380D01*
X118928571Y-85904761D02*
X118690476Y-86619047D01*
X119309523Y-86619047D01*
G04 #@! TO.C,R25*
X142539285Y-86932142D02*
X142182142Y-87182142D01*
X142539285Y-87360714D02*
X141789285Y-87360714D01*
X141789285Y-87075000D01*
X141825000Y-87003571D01*
X141860714Y-86967857D01*
X141932142Y-86932142D01*
X142039285Y-86932142D01*
X142110714Y-86967857D01*
X142146428Y-87003571D01*
X142182142Y-87075000D01*
X142182142Y-87360714D01*
X141860714Y-86646428D02*
X141825000Y-86610714D01*
X141789285Y-86539285D01*
X141789285Y-86360714D01*
X141825000Y-86289285D01*
X141860714Y-86253571D01*
X141932142Y-86217857D01*
X142003571Y-86217857D01*
X142110714Y-86253571D01*
X142539285Y-86682142D01*
X142539285Y-86217857D01*
X141789285Y-85539285D02*
X141789285Y-85896428D01*
X142146428Y-85932142D01*
X142110714Y-85896428D01*
X142075000Y-85825000D01*
X142075000Y-85646428D01*
X142110714Y-85575000D01*
X142146428Y-85539285D01*
X142217857Y-85503571D01*
X142396428Y-85503571D01*
X142467857Y-85539285D01*
X142503571Y-85575000D01*
X142539285Y-85646428D01*
X142539285Y-85825000D01*
X142503571Y-85896428D01*
X142467857Y-85932142D01*
G04 #@! TO.C,R21*
X141989285Y-80232142D02*
X141632142Y-80482142D01*
X141989285Y-80660714D02*
X141239285Y-80660714D01*
X141239285Y-80375000D01*
X141275000Y-80303571D01*
X141310714Y-80267857D01*
X141382142Y-80232142D01*
X141489285Y-80232142D01*
X141560714Y-80267857D01*
X141596428Y-80303571D01*
X141632142Y-80375000D01*
X141632142Y-80660714D01*
X141310714Y-79946428D02*
X141275000Y-79910714D01*
X141239285Y-79839285D01*
X141239285Y-79660714D01*
X141275000Y-79589285D01*
X141310714Y-79553571D01*
X141382142Y-79517857D01*
X141453571Y-79517857D01*
X141560714Y-79553571D01*
X141989285Y-79982142D01*
X141989285Y-79517857D01*
X141989285Y-78803571D02*
X141989285Y-79232142D01*
X141989285Y-79017857D02*
X141239285Y-79017857D01*
X141346428Y-79089285D01*
X141417857Y-79160714D01*
X141453571Y-79232142D01*
G04 #@! TO.C,R15*
X117357142Y-84952380D02*
X117023809Y-84476190D01*
X116785714Y-84952380D02*
X116785714Y-83952380D01*
X117166666Y-83952380D01*
X117261904Y-84000000D01*
X117309523Y-84047619D01*
X117357142Y-84142857D01*
X117357142Y-84285714D01*
X117309523Y-84380952D01*
X117261904Y-84428571D01*
X117166666Y-84476190D01*
X116785714Y-84476190D01*
X118309523Y-84952380D02*
X117738095Y-84952380D01*
X118023809Y-84952380D02*
X118023809Y-83952380D01*
X117928571Y-84095238D01*
X117833333Y-84190476D01*
X117738095Y-84238095D01*
X119214285Y-83952380D02*
X118738095Y-83952380D01*
X118690476Y-84428571D01*
X118738095Y-84380952D01*
X118833333Y-84333333D01*
X119071428Y-84333333D01*
X119166666Y-84380952D01*
X119214285Y-84428571D01*
X119261904Y-84523809D01*
X119261904Y-84761904D01*
X119214285Y-84857142D01*
X119166666Y-84904761D01*
X119071428Y-84952380D01*
X118833333Y-84952380D01*
X118738095Y-84904761D01*
X118690476Y-84857142D01*
G04 #@! TO.C,C78*
X105917857Y-68067857D02*
X105882142Y-68103571D01*
X105775000Y-68139285D01*
X105703571Y-68139285D01*
X105596428Y-68103571D01*
X105525000Y-68032142D01*
X105489285Y-67960714D01*
X105453571Y-67817857D01*
X105453571Y-67710714D01*
X105489285Y-67567857D01*
X105525000Y-67496428D01*
X105596428Y-67425000D01*
X105703571Y-67389285D01*
X105775000Y-67389285D01*
X105882142Y-67425000D01*
X105917857Y-67460714D01*
X106167857Y-67389285D02*
X106667857Y-67389285D01*
X106346428Y-68139285D01*
X107060714Y-67710714D02*
X106989285Y-67675000D01*
X106953571Y-67639285D01*
X106917857Y-67567857D01*
X106917857Y-67532142D01*
X106953571Y-67460714D01*
X106989285Y-67425000D01*
X107060714Y-67389285D01*
X107203571Y-67389285D01*
X107275000Y-67425000D01*
X107310714Y-67460714D01*
X107346428Y-67532142D01*
X107346428Y-67567857D01*
X107310714Y-67639285D01*
X107275000Y-67675000D01*
X107203571Y-67710714D01*
X107060714Y-67710714D01*
X106989285Y-67746428D01*
X106953571Y-67782142D01*
X106917857Y-67853571D01*
X106917857Y-67996428D01*
X106953571Y-68067857D01*
X106989285Y-68103571D01*
X107060714Y-68139285D01*
X107203571Y-68139285D01*
X107275000Y-68103571D01*
X107310714Y-68067857D01*
X107346428Y-67996428D01*
X107346428Y-67853571D01*
X107310714Y-67782142D01*
X107275000Y-67746428D01*
X107203571Y-67710714D01*
G04 #@! TO.C,C52*
X150957142Y-72557142D02*
X150909523Y-72604761D01*
X150766666Y-72652380D01*
X150671428Y-72652380D01*
X150528571Y-72604761D01*
X150433333Y-72509523D01*
X150385714Y-72414285D01*
X150338095Y-72223809D01*
X150338095Y-72080952D01*
X150385714Y-71890476D01*
X150433333Y-71795238D01*
X150528571Y-71700000D01*
X150671428Y-71652380D01*
X150766666Y-71652380D01*
X150909523Y-71700000D01*
X150957142Y-71747619D01*
X151861904Y-71652380D02*
X151385714Y-71652380D01*
X151338095Y-72128571D01*
X151385714Y-72080952D01*
X151480952Y-72033333D01*
X151719047Y-72033333D01*
X151814285Y-72080952D01*
X151861904Y-72128571D01*
X151909523Y-72223809D01*
X151909523Y-72461904D01*
X151861904Y-72557142D01*
X151814285Y-72604761D01*
X151719047Y-72652380D01*
X151480952Y-72652380D01*
X151385714Y-72604761D01*
X151338095Y-72557142D01*
X152290476Y-71747619D02*
X152338095Y-71700000D01*
X152433333Y-71652380D01*
X152671428Y-71652380D01*
X152766666Y-71700000D01*
X152814285Y-71747619D01*
X152861904Y-71842857D01*
X152861904Y-71938095D01*
X152814285Y-72080952D01*
X152242857Y-72652380D01*
X152861904Y-72652380D01*
G04 #@! TO.C,C76*
X94857142Y-74857142D02*
X94809523Y-74904761D01*
X94666666Y-74952380D01*
X94571428Y-74952380D01*
X94428571Y-74904761D01*
X94333333Y-74809523D01*
X94285714Y-74714285D01*
X94238095Y-74523809D01*
X94238095Y-74380952D01*
X94285714Y-74190476D01*
X94333333Y-74095238D01*
X94428571Y-74000000D01*
X94571428Y-73952380D01*
X94666666Y-73952380D01*
X94809523Y-74000000D01*
X94857142Y-74047619D01*
X95190476Y-73952380D02*
X95857142Y-73952380D01*
X95428571Y-74952380D01*
X96666666Y-73952380D02*
X96476190Y-73952380D01*
X96380952Y-74000000D01*
X96333333Y-74047619D01*
X96238095Y-74190476D01*
X96190476Y-74380952D01*
X96190476Y-74761904D01*
X96238095Y-74857142D01*
X96285714Y-74904761D01*
X96380952Y-74952380D01*
X96571428Y-74952380D01*
X96666666Y-74904761D01*
X96714285Y-74857142D01*
X96761904Y-74761904D01*
X96761904Y-74523809D01*
X96714285Y-74428571D01*
X96666666Y-74380952D01*
X96571428Y-74333333D01*
X96380952Y-74333333D01*
X96285714Y-74380952D01*
X96238095Y-74428571D01*
X96190476Y-74523809D01*
G04 #@! TO.C,J2*
X136916666Y-69112380D02*
X136916666Y-69826666D01*
X136869047Y-69969523D01*
X136773809Y-70064761D01*
X136630952Y-70112380D01*
X136535714Y-70112380D01*
X137345238Y-69207619D02*
X137392857Y-69160000D01*
X137488095Y-69112380D01*
X137726190Y-69112380D01*
X137821428Y-69160000D01*
X137869047Y-69207619D01*
X137916666Y-69302857D01*
X137916666Y-69398095D01*
X137869047Y-69540952D01*
X137297619Y-70112380D01*
X137916666Y-70112380D01*
G04 #@! TO.C,L8*
X107733333Y-73152380D02*
X107257142Y-73152380D01*
X107257142Y-72152380D01*
X108209523Y-72580952D02*
X108114285Y-72533333D01*
X108066666Y-72485714D01*
X108019047Y-72390476D01*
X108019047Y-72342857D01*
X108066666Y-72247619D01*
X108114285Y-72200000D01*
X108209523Y-72152380D01*
X108400000Y-72152380D01*
X108495238Y-72200000D01*
X108542857Y-72247619D01*
X108590476Y-72342857D01*
X108590476Y-72390476D01*
X108542857Y-72485714D01*
X108495238Y-72533333D01*
X108400000Y-72580952D01*
X108209523Y-72580952D01*
X108114285Y-72628571D01*
X108066666Y-72676190D01*
X108019047Y-72771428D01*
X108019047Y-72961904D01*
X108066666Y-73057142D01*
X108114285Y-73104761D01*
X108209523Y-73152380D01*
X108400000Y-73152380D01*
X108495238Y-73104761D01*
X108542857Y-73057142D01*
X108590476Y-72961904D01*
X108590476Y-72771428D01*
X108542857Y-72676190D01*
X108495238Y-72628571D01*
X108400000Y-72580952D01*
G04 #@! TO.C,TP5*
X141638095Y-93652380D02*
X142209523Y-93652380D01*
X141923809Y-94652380D02*
X141923809Y-93652380D01*
X142542857Y-94652380D02*
X142542857Y-93652380D01*
X142923809Y-93652380D01*
X143019047Y-93700000D01*
X143066666Y-93747619D01*
X143114285Y-93842857D01*
X143114285Y-93985714D01*
X143066666Y-94080952D01*
X143019047Y-94128571D01*
X142923809Y-94176190D01*
X142542857Y-94176190D01*
X144019047Y-93652380D02*
X143542857Y-93652380D01*
X143495238Y-94128571D01*
X143542857Y-94080952D01*
X143638095Y-94033333D01*
X143876190Y-94033333D01*
X143971428Y-94080952D01*
X144019047Y-94128571D01*
X144066666Y-94223809D01*
X144066666Y-94461904D01*
X144019047Y-94557142D01*
X143971428Y-94604761D01*
X143876190Y-94652380D01*
X143638095Y-94652380D01*
X143542857Y-94604761D01*
X143495238Y-94557142D01*
G04 #@! TO.C,TP8*
X145138095Y-102552380D02*
X145709523Y-102552380D01*
X145423809Y-103552380D02*
X145423809Y-102552380D01*
X146042857Y-103552380D02*
X146042857Y-102552380D01*
X146423809Y-102552380D01*
X146519047Y-102600000D01*
X146566666Y-102647619D01*
X146614285Y-102742857D01*
X146614285Y-102885714D01*
X146566666Y-102980952D01*
X146519047Y-103028571D01*
X146423809Y-103076190D01*
X146042857Y-103076190D01*
X147185714Y-102980952D02*
X147090476Y-102933333D01*
X147042857Y-102885714D01*
X146995238Y-102790476D01*
X146995238Y-102742857D01*
X147042857Y-102647619D01*
X147090476Y-102600000D01*
X147185714Y-102552380D01*
X147376190Y-102552380D01*
X147471428Y-102600000D01*
X147519047Y-102647619D01*
X147566666Y-102742857D01*
X147566666Y-102790476D01*
X147519047Y-102885714D01*
X147471428Y-102933333D01*
X147376190Y-102980952D01*
X147185714Y-102980952D01*
X147090476Y-103028571D01*
X147042857Y-103076190D01*
X146995238Y-103171428D01*
X146995238Y-103361904D01*
X147042857Y-103457142D01*
X147090476Y-103504761D01*
X147185714Y-103552380D01*
X147376190Y-103552380D01*
X147471428Y-103504761D01*
X147519047Y-103457142D01*
X147566666Y-103361904D01*
X147566666Y-103171428D01*
X147519047Y-103076190D01*
X147471428Y-103028571D01*
X147376190Y-102980952D01*
G04 #@! TO.C,TP6*
X151738095Y-87252380D02*
X152309523Y-87252380D01*
X152023809Y-88252380D02*
X152023809Y-87252380D01*
X152642857Y-88252380D02*
X152642857Y-87252380D01*
X153023809Y-87252380D01*
X153119047Y-87300000D01*
X153166666Y-87347619D01*
X153214285Y-87442857D01*
X153214285Y-87585714D01*
X153166666Y-87680952D01*
X153119047Y-87728571D01*
X153023809Y-87776190D01*
X152642857Y-87776190D01*
X154071428Y-87252380D02*
X153880952Y-87252380D01*
X153785714Y-87300000D01*
X153738095Y-87347619D01*
X153642857Y-87490476D01*
X153595238Y-87680952D01*
X153595238Y-88061904D01*
X153642857Y-88157142D01*
X153690476Y-88204761D01*
X153785714Y-88252380D01*
X153976190Y-88252380D01*
X154071428Y-88204761D01*
X154119047Y-88157142D01*
X154166666Y-88061904D01*
X154166666Y-87823809D01*
X154119047Y-87728571D01*
X154071428Y-87680952D01*
X153976190Y-87633333D01*
X153785714Y-87633333D01*
X153690476Y-87680952D01*
X153642857Y-87728571D01*
X153595238Y-87823809D01*
G04 #@! TO.C,TP3*
X154388095Y-85002380D02*
X154959523Y-85002380D01*
X154673809Y-86002380D02*
X154673809Y-85002380D01*
X155292857Y-86002380D02*
X155292857Y-85002380D01*
X155673809Y-85002380D01*
X155769047Y-85050000D01*
X155816666Y-85097619D01*
X155864285Y-85192857D01*
X155864285Y-85335714D01*
X155816666Y-85430952D01*
X155769047Y-85478571D01*
X155673809Y-85526190D01*
X155292857Y-85526190D01*
X156197619Y-85002380D02*
X156816666Y-85002380D01*
X156483333Y-85383333D01*
X156626190Y-85383333D01*
X156721428Y-85430952D01*
X156769047Y-85478571D01*
X156816666Y-85573809D01*
X156816666Y-85811904D01*
X156769047Y-85907142D01*
X156721428Y-85954761D01*
X156626190Y-86002380D01*
X156340476Y-86002380D01*
X156245238Y-85954761D01*
X156197619Y-85907142D01*
G04 #@! TO.C,TP7*
X143738095Y-91152380D02*
X144309523Y-91152380D01*
X144023809Y-92152380D02*
X144023809Y-91152380D01*
X144642857Y-92152380D02*
X144642857Y-91152380D01*
X145023809Y-91152380D01*
X145119047Y-91200000D01*
X145166666Y-91247619D01*
X145214285Y-91342857D01*
X145214285Y-91485714D01*
X145166666Y-91580952D01*
X145119047Y-91628571D01*
X145023809Y-91676190D01*
X144642857Y-91676190D01*
X145547619Y-91152380D02*
X146214285Y-91152380D01*
X145785714Y-92152380D01*
G04 #@! TO.C,TP4*
X146089285Y-87196428D02*
X146089285Y-86767857D01*
X146839285Y-86982142D02*
X146089285Y-86982142D01*
X146839285Y-86517857D02*
X146089285Y-86517857D01*
X146089285Y-86232142D01*
X146125000Y-86160714D01*
X146160714Y-86125000D01*
X146232142Y-86089285D01*
X146339285Y-86089285D01*
X146410714Y-86125000D01*
X146446428Y-86160714D01*
X146482142Y-86232142D01*
X146482142Y-86517857D01*
X146339285Y-85446428D02*
X146839285Y-85446428D01*
X146053571Y-85625000D02*
X146589285Y-85803571D01*
X146589285Y-85339285D01*
G04 #@! TO.C,U4*
X122238095Y-90252380D02*
X122238095Y-91061904D01*
X122285714Y-91157142D01*
X122333333Y-91204761D01*
X122428571Y-91252380D01*
X122619047Y-91252380D01*
X122714285Y-91204761D01*
X122761904Y-91157142D01*
X122809523Y-91061904D01*
X122809523Y-90252380D01*
X123714285Y-90585714D02*
X123714285Y-91252380D01*
X123476190Y-90204761D02*
X123238095Y-90919047D01*
X123857142Y-90919047D01*
G04 #@! TO.C,U11*
X117611904Y-95852380D02*
X117611904Y-96661904D01*
X117659523Y-96757142D01*
X117707142Y-96804761D01*
X117802380Y-96852380D01*
X117992857Y-96852380D01*
X118088095Y-96804761D01*
X118135714Y-96757142D01*
X118183333Y-96661904D01*
X118183333Y-95852380D01*
X119183333Y-96852380D02*
X118611904Y-96852380D01*
X118897619Y-96852380D02*
X118897619Y-95852380D01*
X118802380Y-95995238D01*
X118707142Y-96090476D01*
X118611904Y-96138095D01*
X120135714Y-96852380D02*
X119564285Y-96852380D01*
X119850000Y-96852380D02*
X119850000Y-95852380D01*
X119754761Y-95995238D01*
X119659523Y-96090476D01*
X119564285Y-96138095D01*
G04 #@! TO.C,U12*
X91661904Y-97552380D02*
X91661904Y-98361904D01*
X91709523Y-98457142D01*
X91757142Y-98504761D01*
X91852380Y-98552380D01*
X92042857Y-98552380D01*
X92138095Y-98504761D01*
X92185714Y-98457142D01*
X92233333Y-98361904D01*
X92233333Y-97552380D01*
X93233333Y-98552380D02*
X92661904Y-98552380D01*
X92947619Y-98552380D02*
X92947619Y-97552380D01*
X92852380Y-97695238D01*
X92757142Y-97790476D01*
X92661904Y-97838095D01*
X93614285Y-97647619D02*
X93661904Y-97600000D01*
X93757142Y-97552380D01*
X93995238Y-97552380D01*
X94090476Y-97600000D01*
X94138095Y-97647619D01*
X94185714Y-97742857D01*
X94185714Y-97838095D01*
X94138095Y-97980952D01*
X93566666Y-98552380D01*
X94185714Y-98552380D01*
G04 #@! TO.C,CON1*
D14*
X78848085Y-71760257D02*
X78812371Y-71795971D01*
X78705228Y-71831685D01*
X78633800Y-71831685D01*
X78526657Y-71795971D01*
X78455228Y-71724542D01*
X78419514Y-71653114D01*
X78383800Y-71510257D01*
X78383800Y-71403114D01*
X78419514Y-71260257D01*
X78455228Y-71188828D01*
X78526657Y-71117400D01*
X78633800Y-71081685D01*
X78705228Y-71081685D01*
X78812371Y-71117400D01*
X78848085Y-71153114D01*
X79312371Y-71081685D02*
X79455228Y-71081685D01*
X79526657Y-71117400D01*
X79598085Y-71188828D01*
X79633800Y-71331685D01*
X79633800Y-71581685D01*
X79598085Y-71724542D01*
X79526657Y-71795971D01*
X79455228Y-71831685D01*
X79312371Y-71831685D01*
X79240942Y-71795971D01*
X79169514Y-71724542D01*
X79133800Y-71581685D01*
X79133800Y-71331685D01*
X79169514Y-71188828D01*
X79240942Y-71117400D01*
X79312371Y-71081685D01*
X79955228Y-71831685D02*
X79955228Y-71081685D01*
X80383800Y-71831685D01*
X80383800Y-71081685D01*
X81133800Y-71831685D02*
X80705228Y-71831685D01*
X80919514Y-71831685D02*
X80919514Y-71081685D01*
X80848085Y-71188828D01*
X80776657Y-71260257D01*
X80705228Y-71295971D01*
G04 #@! TO.C,U3*
X85778571Y-104889285D02*
X85778571Y-105496428D01*
X85814285Y-105567857D01*
X85850000Y-105603571D01*
X85921428Y-105639285D01*
X86064285Y-105639285D01*
X86135714Y-105603571D01*
X86171428Y-105567857D01*
X86207142Y-105496428D01*
X86207142Y-104889285D01*
X86492857Y-104889285D02*
X86957142Y-104889285D01*
X86707142Y-105175000D01*
X86814285Y-105175000D01*
X86885714Y-105210714D01*
X86921428Y-105246428D01*
X86957142Y-105317857D01*
X86957142Y-105496428D01*
X86921428Y-105567857D01*
X86885714Y-105603571D01*
X86814285Y-105639285D01*
X86600000Y-105639285D01*
X86528571Y-105603571D01*
X86492857Y-105567857D01*
G04 #@! TO.C,U2*
X74728571Y-110139285D02*
X74728571Y-110746428D01*
X74764285Y-110817857D01*
X74800000Y-110853571D01*
X74871428Y-110889285D01*
X75014285Y-110889285D01*
X75085714Y-110853571D01*
X75121428Y-110817857D01*
X75157142Y-110746428D01*
X75157142Y-110139285D01*
X75478571Y-110210714D02*
X75514285Y-110175000D01*
X75585714Y-110139285D01*
X75764285Y-110139285D01*
X75835714Y-110175000D01*
X75871428Y-110210714D01*
X75907142Y-110282142D01*
X75907142Y-110353571D01*
X75871428Y-110460714D01*
X75442857Y-110889285D01*
X75907142Y-110889285D01*
G04 #@! TO.C,U8*
X130128571Y-81189285D02*
X130128571Y-81796428D01*
X130164285Y-81867857D01*
X130200000Y-81903571D01*
X130271428Y-81939285D01*
X130414285Y-81939285D01*
X130485714Y-81903571D01*
X130521428Y-81867857D01*
X130557142Y-81796428D01*
X130557142Y-81189285D01*
X131021428Y-81510714D02*
X130950000Y-81475000D01*
X130914285Y-81439285D01*
X130878571Y-81367857D01*
X130878571Y-81332142D01*
X130914285Y-81260714D01*
X130950000Y-81225000D01*
X131021428Y-81189285D01*
X131164285Y-81189285D01*
X131235714Y-81225000D01*
X131271428Y-81260714D01*
X131307142Y-81332142D01*
X131307142Y-81367857D01*
X131271428Y-81439285D01*
X131235714Y-81475000D01*
X131164285Y-81510714D01*
X131021428Y-81510714D01*
X130950000Y-81546428D01*
X130914285Y-81582142D01*
X130878571Y-81653571D01*
X130878571Y-81796428D01*
X130914285Y-81867857D01*
X130950000Y-81903571D01*
X131021428Y-81939285D01*
X131164285Y-81939285D01*
X131235714Y-81903571D01*
X131271428Y-81867857D01*
X131307142Y-81796428D01*
X131307142Y-81653571D01*
X131271428Y-81582142D01*
X131235714Y-81546428D01*
X131164285Y-81510714D01*
G04 #@! TO.C,U1*
X128828571Y-100239285D02*
X128828571Y-100846428D01*
X128864285Y-100917857D01*
X128900000Y-100953571D01*
X128971428Y-100989285D01*
X129114285Y-100989285D01*
X129185714Y-100953571D01*
X129221428Y-100917857D01*
X129257142Y-100846428D01*
X129257142Y-100239285D01*
X130007142Y-100989285D02*
X129578571Y-100989285D01*
X129792857Y-100989285D02*
X129792857Y-100239285D01*
X129721428Y-100346428D01*
X129650000Y-100417857D01*
X129578571Y-100453571D01*
G04 #@! TO.C,U5*
X145678571Y-78289285D02*
X145678571Y-78896428D01*
X145714285Y-78967857D01*
X145750000Y-79003571D01*
X145821428Y-79039285D01*
X145964285Y-79039285D01*
X146035714Y-79003571D01*
X146071428Y-78967857D01*
X146107142Y-78896428D01*
X146107142Y-78289285D01*
X146821428Y-78289285D02*
X146464285Y-78289285D01*
X146428571Y-78646428D01*
X146464285Y-78610714D01*
X146535714Y-78575000D01*
X146714285Y-78575000D01*
X146785714Y-78610714D01*
X146821428Y-78646428D01*
X146857142Y-78717857D01*
X146857142Y-78896428D01*
X146821428Y-78967857D01*
X146785714Y-79003571D01*
X146714285Y-79039285D01*
X146535714Y-79039285D01*
X146464285Y-79003571D01*
X146428571Y-78967857D01*
G04 #@! TO.C,L1*
X84675000Y-94539285D02*
X84317857Y-94539285D01*
X84317857Y-93789285D01*
X85317857Y-94539285D02*
X84889285Y-94539285D01*
X85103571Y-94539285D02*
X85103571Y-93789285D01*
X85032142Y-93896428D01*
X84960714Y-93967857D01*
X84889285Y-94003571D01*
G04 #@! TO.C,SW2*
X143500000Y-108403571D02*
X143607142Y-108439285D01*
X143785714Y-108439285D01*
X143857142Y-108403571D01*
X143892857Y-108367857D01*
X143928571Y-108296428D01*
X143928571Y-108225000D01*
X143892857Y-108153571D01*
X143857142Y-108117857D01*
X143785714Y-108082142D01*
X143642857Y-108046428D01*
X143571428Y-108010714D01*
X143535714Y-107975000D01*
X143500000Y-107903571D01*
X143500000Y-107832142D01*
X143535714Y-107760714D01*
X143571428Y-107725000D01*
X143642857Y-107689285D01*
X143821428Y-107689285D01*
X143928571Y-107725000D01*
X144178571Y-107689285D02*
X144357142Y-108439285D01*
X144500000Y-107903571D01*
X144642857Y-108439285D01*
X144821428Y-107689285D01*
X145071428Y-107760714D02*
X145107142Y-107725000D01*
X145178571Y-107689285D01*
X145357142Y-107689285D01*
X145428571Y-107725000D01*
X145464285Y-107760714D01*
X145500000Y-107832142D01*
X145500000Y-107903571D01*
X145464285Y-108010714D01*
X145035714Y-108439285D01*
X145500000Y-108439285D01*
G04 #@! TO.C,SW3*
X135800000Y-108403571D02*
X135907142Y-108439285D01*
X136085714Y-108439285D01*
X136157142Y-108403571D01*
X136192857Y-108367857D01*
X136228571Y-108296428D01*
X136228571Y-108225000D01*
X136192857Y-108153571D01*
X136157142Y-108117857D01*
X136085714Y-108082142D01*
X135942857Y-108046428D01*
X135871428Y-108010714D01*
X135835714Y-107975000D01*
X135800000Y-107903571D01*
X135800000Y-107832142D01*
X135835714Y-107760714D01*
X135871428Y-107725000D01*
X135942857Y-107689285D01*
X136121428Y-107689285D01*
X136228571Y-107725000D01*
X136478571Y-107689285D02*
X136657142Y-108439285D01*
X136800000Y-107903571D01*
X136942857Y-108439285D01*
X137121428Y-107689285D01*
X137335714Y-107689285D02*
X137800000Y-107689285D01*
X137550000Y-107975000D01*
X137657142Y-107975000D01*
X137728571Y-108010714D01*
X137764285Y-108046428D01*
X137800000Y-108117857D01*
X137800000Y-108296428D01*
X137764285Y-108367857D01*
X137728571Y-108403571D01*
X137657142Y-108439285D01*
X137442857Y-108439285D01*
X137371428Y-108403571D01*
X137335714Y-108367857D01*
G04 #@! TO.C,SW1*
X128100000Y-108303571D02*
X128207142Y-108339285D01*
X128385714Y-108339285D01*
X128457142Y-108303571D01*
X128492857Y-108267857D01*
X128528571Y-108196428D01*
X128528571Y-108125000D01*
X128492857Y-108053571D01*
X128457142Y-108017857D01*
X128385714Y-107982142D01*
X128242857Y-107946428D01*
X128171428Y-107910714D01*
X128135714Y-107875000D01*
X128100000Y-107803571D01*
X128100000Y-107732142D01*
X128135714Y-107660714D01*
X128171428Y-107625000D01*
X128242857Y-107589285D01*
X128421428Y-107589285D01*
X128528571Y-107625000D01*
X128778571Y-107589285D02*
X128957142Y-108339285D01*
X129100000Y-107803571D01*
X129242857Y-108339285D01*
X129421428Y-107589285D01*
X130100000Y-108339285D02*
X129671428Y-108339285D01*
X129885714Y-108339285D02*
X129885714Y-107589285D01*
X129814285Y-107696428D01*
X129742857Y-107767857D01*
X129671428Y-107803571D01*
G04 #@! TO.C,P1*
X122646428Y-112089285D02*
X122646428Y-111339285D01*
X122932142Y-111339285D01*
X123003571Y-111375000D01*
X123039285Y-111410714D01*
X123075000Y-111482142D01*
X123075000Y-111589285D01*
X123039285Y-111660714D01*
X123003571Y-111696428D01*
X122932142Y-111732142D01*
X122646428Y-111732142D01*
X123789285Y-112089285D02*
X123360714Y-112089285D01*
X123575000Y-112089285D02*
X123575000Y-111339285D01*
X123503571Y-111446428D01*
X123432142Y-111517857D01*
X123360714Y-111553571D01*
G04 #@! TO.C,Y1*
X75992857Y-92982142D02*
X75992857Y-93339285D01*
X75742857Y-92589285D02*
X75992857Y-92982142D01*
X76242857Y-92589285D01*
X76885714Y-93339285D02*
X76457142Y-93339285D01*
X76671428Y-93339285D02*
X76671428Y-92589285D01*
X76600000Y-92696428D01*
X76528571Y-92767857D01*
X76457142Y-92803571D01*
G04 #@! TO.C,IC2*
X108167857Y-91339285D02*
X108167857Y-90589285D01*
X108953571Y-91267857D02*
X108917857Y-91303571D01*
X108810714Y-91339285D01*
X108739285Y-91339285D01*
X108632142Y-91303571D01*
X108560714Y-91232142D01*
X108525000Y-91160714D01*
X108489285Y-91017857D01*
X108489285Y-90910714D01*
X108525000Y-90767857D01*
X108560714Y-90696428D01*
X108632142Y-90625000D01*
X108739285Y-90589285D01*
X108810714Y-90589285D01*
X108917857Y-90625000D01*
X108953571Y-90660714D01*
X109239285Y-90660714D02*
X109275000Y-90625000D01*
X109346428Y-90589285D01*
X109525000Y-90589285D01*
X109596428Y-90625000D01*
X109632142Y-90660714D01*
X109667857Y-90732142D01*
X109667857Y-90803571D01*
X109632142Y-90910714D01*
X109203571Y-91339285D01*
X109667857Y-91339285D01*
G04 #@! TO.C,IC1*
X84767857Y-89039285D02*
X84767857Y-88289285D01*
X85553571Y-88967857D02*
X85517857Y-89003571D01*
X85410714Y-89039285D01*
X85339285Y-89039285D01*
X85232142Y-89003571D01*
X85160714Y-88932142D01*
X85125000Y-88860714D01*
X85089285Y-88717857D01*
X85089285Y-88610714D01*
X85125000Y-88467857D01*
X85160714Y-88396428D01*
X85232142Y-88325000D01*
X85339285Y-88289285D01*
X85410714Y-88289285D01*
X85517857Y-88325000D01*
X85553571Y-88360714D01*
X86267857Y-89039285D02*
X85839285Y-89039285D01*
X86053571Y-89039285D02*
X86053571Y-88289285D01*
X85982142Y-88396428D01*
X85910714Y-88467857D01*
X85839285Y-88503571D01*
G04 #@! TO.C,IC3*
X138667857Y-96839285D02*
X138667857Y-96089285D01*
X139453571Y-96767857D02*
X139417857Y-96803571D01*
X139310714Y-96839285D01*
X139239285Y-96839285D01*
X139132142Y-96803571D01*
X139060714Y-96732142D01*
X139025000Y-96660714D01*
X138989285Y-96517857D01*
X138989285Y-96410714D01*
X139025000Y-96267857D01*
X139060714Y-96196428D01*
X139132142Y-96125000D01*
X139239285Y-96089285D01*
X139310714Y-96089285D01*
X139417857Y-96125000D01*
X139453571Y-96160714D01*
X139703571Y-96089285D02*
X140167857Y-96089285D01*
X139917857Y-96375000D01*
X140025000Y-96375000D01*
X140096428Y-96410714D01*
X140132142Y-96446428D01*
X140167857Y-96517857D01*
X140167857Y-96696428D01*
X140132142Y-96767857D01*
X140096428Y-96803571D01*
X140025000Y-96839285D01*
X139810714Y-96839285D01*
X139739285Y-96803571D01*
X139703571Y-96767857D01*
G04 #@! TO.C,U10*
X103871428Y-73389285D02*
X103871428Y-73996428D01*
X103907142Y-74067857D01*
X103942857Y-74103571D01*
X104014285Y-74139285D01*
X104157142Y-74139285D01*
X104228571Y-74103571D01*
X104264285Y-74067857D01*
X104300000Y-73996428D01*
X104300000Y-73389285D01*
X105050000Y-74139285D02*
X104621428Y-74139285D01*
X104835714Y-74139285D02*
X104835714Y-73389285D01*
X104764285Y-73496428D01*
X104692857Y-73567857D01*
X104621428Y-73603571D01*
X105514285Y-73389285D02*
X105585714Y-73389285D01*
X105657142Y-73425000D01*
X105692857Y-73460714D01*
X105728571Y-73532142D01*
X105764285Y-73675000D01*
X105764285Y-73853571D01*
X105728571Y-73996428D01*
X105692857Y-74067857D01*
X105657142Y-74103571D01*
X105585714Y-74139285D01*
X105514285Y-74139285D01*
X105442857Y-74103571D01*
X105407142Y-74067857D01*
X105371428Y-73996428D01*
X105335714Y-73853571D01*
X105335714Y-73675000D01*
X105371428Y-73532142D01*
X105407142Y-73460714D01*
X105442857Y-73425000D01*
X105514285Y-73389285D01*
G04 #@! TO.C,FL1*
X102971428Y-65546428D02*
X102721428Y-65546428D01*
X102721428Y-65939285D02*
X102721428Y-65189285D01*
X103078571Y-65189285D01*
X103721428Y-65939285D02*
X103364285Y-65939285D01*
X103364285Y-65189285D01*
X104364285Y-65939285D02*
X103935714Y-65939285D01*
X104150000Y-65939285D02*
X104150000Y-65189285D01*
X104078571Y-65296428D01*
X104007142Y-65367857D01*
X103935714Y-65403571D01*
G04 #@! TO.C,U7*
X149828571Y-90089285D02*
X149828571Y-90696428D01*
X149864285Y-90767857D01*
X149900000Y-90803571D01*
X149971428Y-90839285D01*
X150114285Y-90839285D01*
X150185714Y-90803571D01*
X150221428Y-90767857D01*
X150257142Y-90696428D01*
X150257142Y-90089285D01*
X150542857Y-90089285D02*
X151042857Y-90089285D01*
X150721428Y-90839285D01*
G04 #@! TD*
M02*
