G04 #@! TF.GenerationSoftware,KiCad,Pcbnew,(5.0.0)*
G04 #@! TF.CreationDate,2019-01-26T18:48:23+01:00*
G04 #@! TF.ProjectId,rf-receiver,72662D72656365697665722E6B696361,rev?*
G04 #@! TF.SameCoordinates,Original*
G04 #@! TF.FileFunction,Copper,L4,Bot,Signal*
G04 #@! TF.FilePolarity,Positive*
%FSLAX46Y46*%
G04 Gerber Fmt 4.6, Leading zero omitted, Abs format (unit mm)*
G04 Created by KiCad (PCBNEW (5.0.0)) date 01/26/19 18:48:23*
%MOMM*%
%LPD*%
G01*
G04 APERTURE LIST*
G04 #@! TA.AperFunction,ComponentPad*
%ADD10R,1.500000X0.800000*%
G04 #@! TD*
G04 #@! TA.AperFunction,ComponentPad*
%ADD11C,1.200000*%
G04 #@! TD*
G04 #@! TA.AperFunction,ComponentPad*
%ADD12R,0.800000X1.500000*%
G04 #@! TD*
G04 #@! TA.AperFunction,ComponentPad*
%ADD13C,1.450000*%
G04 #@! TD*
G04 #@! TA.AperFunction,ComponentPad*
%ADD14O,1.200000X1.900000*%
G04 #@! TD*
G04 #@! TA.AperFunction,ComponentPad*
%ADD15C,5.400000*%
G04 #@! TD*
G04 #@! TA.AperFunction,SMDPad,CuDef*
%ADD16R,1.500000X5.080000*%
G04 #@! TD*
G04 #@! TA.AperFunction,ComponentPad*
%ADD17R,2.000000X2.000000*%
G04 #@! TD*
G04 #@! TA.AperFunction,ComponentPad*
%ADD18R,1.700000X1.700000*%
G04 #@! TD*
G04 #@! TA.AperFunction,ComponentPad*
%ADD19O,1.700000X1.700000*%
G04 #@! TD*
G04 #@! TA.AperFunction,ViaPad*
%ADD20C,0.600000*%
G04 #@! TD*
G04 #@! TA.AperFunction,Conductor*
%ADD21R,0.900000X1.600000*%
G04 #@! TD*
G04 #@! TA.AperFunction,ViaPad*
%ADD22C,0.400000*%
G04 #@! TD*
G04 #@! TA.AperFunction,Conductor*
%ADD23C,0.200000*%
G04 #@! TD*
G04 #@! TA.AperFunction,Conductor*
%ADD24C,0.150000*%
G04 #@! TD*
G04 #@! TA.AperFunction,Conductor*
%ADD25C,0.400000*%
G04 #@! TD*
G04 #@! TA.AperFunction,Conductor*
%ADD26C,0.350000*%
G04 #@! TD*
G04 #@! TA.AperFunction,Conductor*
%ADD27C,0.254000*%
G04 #@! TD*
G04 APERTURE END LIST*
D10*
G04 #@! TO.P,J1,1*
G04 #@! TO.N,GND*
X125400000Y-66500000D03*
D11*
G04 #@! TO.P,J1,*
G04 #@! TO.N,*
X130400000Y-64000000D03*
X130400000Y-66500000D03*
X120400000Y-64000000D03*
X120400000Y-66500000D03*
X125400000Y-71500000D03*
D12*
G04 #@! TO.P,J1,5*
G04 #@! TO.N,Net-(J1-Pad5)*
X127900000Y-71500000D03*
G04 #@! TO.P,J1,4*
G04 #@! TO.N,GND*
X122900000Y-71500000D03*
G04 #@! TO.P,J1,3*
G04 #@! TO.N,/Tayoe Mixer sheet/I_OUT*
X130400000Y-71500000D03*
G04 #@! TO.P,J1,2*
G04 #@! TO.N,/Tayoe Mixer sheet/Q_OUT*
X120400000Y-71500000D03*
G04 #@! TD*
D13*
G04 #@! TO.P,J3,6*
G04 #@! TO.N,GND*
X93200000Y-67150000D03*
X88200000Y-67150000D03*
D14*
X94200000Y-64450000D03*
X87200000Y-64450000D03*
G04 #@! TD*
D15*
G04 #@! TO.P,MH2,1*
G04 #@! TO.N,GND*
X154000000Y-67000000D03*
G04 #@! TD*
G04 #@! TO.P,MH4,1*
G04 #@! TO.N,GND*
X71250000Y-109000000D03*
G04 #@! TD*
G04 #@! TO.P,MH3,1*
G04 #@! TO.N,GND*
X153750000Y-109000000D03*
G04 #@! TD*
G04 #@! TO.P,MH1,1*
G04 #@! TO.N,GND*
X71250000Y-67000000D03*
G04 #@! TD*
D16*
G04 #@! TO.P,J2,2*
G04 #@! TO.N,GND*
X143750000Y-65550000D03*
X135250000Y-65550000D03*
G04 #@! TD*
D17*
G04 #@! TO.P,PSU-1,1*
G04 #@! TO.N,Net-(FL1-Pad3)*
X107950000Y-65250000D03*
G04 #@! TD*
G04 #@! TO.P,PSU+1,1*
G04 #@! TO.N,Net-(FL1-Pad4)*
X98200000Y-65250000D03*
G04 #@! TD*
D18*
G04 #@! TO.P,U2,1*
G04 #@! TO.N,GND*
X77850000Y-110750000D03*
D19*
G04 #@! TO.P,U2,2*
G04 #@! TO.N,+5V*
X80390000Y-110750000D03*
G04 #@! TO.P,U2,3*
G04 #@! TO.N,Net-(R12-Pad1)*
X82930000Y-110750000D03*
G04 #@! TO.P,U2,4*
G04 #@! TO.N,Net-(U2-Pad4)*
X85470000Y-110750000D03*
G04 #@! TO.P,U2,5*
G04 #@! TO.N,Net-(U2-Pad5)*
X88010000Y-110750000D03*
G04 #@! TO.P,U2,6*
G04 #@! TO.N,Net-(U2-Pad6)*
X90550000Y-110750000D03*
G04 #@! TO.P,U2,7*
G04 #@! TO.N,Net-(U2-Pad7)*
X93090000Y-110750000D03*
G04 #@! TO.P,U2,8*
G04 #@! TO.N,Net-(U2-Pad8)*
X95630000Y-110750000D03*
G04 #@! TO.P,U2,9*
G04 #@! TO.N,Net-(U2-Pad9)*
X98170000Y-110750000D03*
G04 #@! TO.P,U2,10*
G04 #@! TO.N,Net-(U2-Pad10)*
X100710000Y-110750000D03*
G04 #@! TO.P,U2,11*
G04 #@! TO.N,Net-(U2-Pad11)*
X103250000Y-110750000D03*
G04 #@! TO.P,U2,12*
G04 #@! TO.N,Net-(U2-Pad12)*
X105790000Y-110750000D03*
G04 #@! TO.P,U2,13*
G04 #@! TO.N,Net-(U2-Pad13)*
X108330000Y-110750000D03*
G04 #@! TO.P,U2,14*
G04 #@! TO.N,Net-(U2-Pad14)*
X110870000Y-110750000D03*
G04 #@! TO.P,U2,15*
G04 #@! TO.N,Net-(R11-Pad1)*
X113410000Y-110750000D03*
G04 #@! TO.P,U2,16*
G04 #@! TO.N,GND*
X115950000Y-110750000D03*
G04 #@! TD*
D18*
G04 #@! TO.P,SW2,1*
G04 #@! TO.N,GND*
X145700000Y-110700000D03*
D19*
G04 #@! TO.P,SW2,2*
G04 #@! TO.N,Net-(R6-Pad2)*
X143160000Y-110700000D03*
G04 #@! TD*
G04 #@! TO.P,SW3,2*
G04 #@! TO.N,Net-(R10-Pad1)*
X135510000Y-110700000D03*
D18*
G04 #@! TO.P,SW3,1*
G04 #@! TO.N,GND*
X138050000Y-110700000D03*
G04 #@! TD*
G04 #@! TO.P,SW1,1*
G04 #@! TO.N,GND*
X130400000Y-110700000D03*
D19*
G04 #@! TO.P,SW1,2*
G04 #@! TO.N,Net-(R5-Pad2)*
X127860000Y-110700000D03*
G04 #@! TD*
D18*
G04 #@! TO.P,P1,1*
G04 #@! TO.N,/ROT_A*
X120600000Y-105750000D03*
D19*
G04 #@! TO.P,P1,2*
G04 #@! TO.N,GND*
X120600000Y-108290000D03*
G04 #@! TO.P,P1,3*
G04 #@! TO.N,/ROT_B*
X120600000Y-110830000D03*
G04 #@! TD*
D20*
G04 #@! TO.N,GND*
G04 #@! TO.C,U10*
X102100000Y-72350000D03*
X102100000Y-73350000D03*
D21*
X102100000Y-72850000D03*
G04 #@! TD*
D17*
G04 #@! TO.P,RX,1*
G04 #@! TO.N,/UART_RX*
X70000000Y-94500000D03*
G04 #@! TD*
G04 #@! TO.P,TX,1*
G04 #@! TO.N,/UART_TX*
X70000000Y-89000000D03*
G04 #@! TD*
D22*
G04 #@! TO.N,GND*
X102600000Y-70400000D03*
X103200000Y-68700000D03*
X101400000Y-69000000D03*
X144000000Y-68000000D03*
X144000000Y-67000000D03*
X144000000Y-66000000D03*
X144000000Y-65000000D03*
X144000000Y-64000000D03*
X135000000Y-68000000D03*
X135000000Y-67000000D03*
X135000000Y-66000000D03*
X135000000Y-65000000D03*
X135000000Y-64000000D03*
D20*
X95500000Y-76500000D03*
X143750000Y-74000000D03*
D22*
X85750000Y-74200000D03*
X104600000Y-85000000D03*
X106100000Y-86500000D03*
X104600000Y-86500000D03*
X104600000Y-83750000D03*
X106100000Y-83750000D03*
X106100000Y-85000000D03*
X103100000Y-85000000D03*
X103100000Y-86500000D03*
X103100000Y-83750000D03*
X83100000Y-98000000D03*
X92600000Y-103250000D03*
X101800000Y-76765000D03*
X104600000Y-95500000D03*
X107350000Y-97750000D03*
X117600000Y-89250000D03*
X121100000Y-85500000D03*
X139000000Y-84500000D03*
X139000000Y-81550000D03*
X139000000Y-83000000D03*
X152750000Y-85500000D03*
X141250000Y-98750000D03*
X141250000Y-100200000D03*
X152750000Y-94750000D03*
X151500000Y-99250000D03*
X156485000Y-91800000D03*
X156500000Y-93300000D03*
X156500000Y-94800000D03*
X156500000Y-96250000D03*
X156500000Y-100700000D03*
X156500000Y-99200000D03*
X156500000Y-97750000D03*
X156485000Y-102200000D03*
X135800000Y-72850000D03*
X136087500Y-74600000D03*
X125550000Y-80200000D03*
X143100000Y-106600000D03*
X134800000Y-105750000D03*
X126700000Y-105700000D03*
X117600000Y-101000000D03*
X120350000Y-102250000D03*
X120600000Y-88250000D03*
X119850000Y-93500000D03*
X115570000Y-95600000D03*
X115600000Y-94100000D03*
X134550000Y-95060000D03*
X150500000Y-85500000D03*
X146250000Y-81000000D03*
X152000000Y-78350000D03*
X150500000Y-78350000D03*
X150500000Y-81250000D03*
X150500000Y-82800000D03*
X152000000Y-82800000D03*
X152000000Y-81250000D03*
X77400000Y-99300000D03*
X76850000Y-96950000D03*
X79100000Y-104800000D03*
X79100000Y-103250000D03*
X72350000Y-75600000D03*
X108100000Y-97250000D03*
X108100000Y-98250000D03*
X106600000Y-98250000D03*
X106600000Y-97250000D03*
X103850000Y-96000000D03*
X105100000Y-95000000D03*
X105100000Y-96000000D03*
X103850000Y-95000000D03*
X97100000Y-97000000D03*
X95850000Y-97000000D03*
X92850000Y-94250000D03*
X80000000Y-94250000D03*
X81550000Y-94250000D03*
X72350000Y-84400000D03*
X72350000Y-78500000D03*
X82500000Y-69500000D03*
X109600000Y-97000000D03*
X102100000Y-96000000D03*
X100850000Y-97000000D03*
X99600000Y-97000000D03*
X98350000Y-97000000D03*
X103350000Y-76750000D03*
X105600000Y-76750000D03*
X106850000Y-76750000D03*
X115600000Y-78450000D03*
X115600000Y-79900000D03*
X115600000Y-81350000D03*
X115600000Y-82800000D03*
X115600000Y-92600000D03*
X115600000Y-91150000D03*
X115600000Y-89700000D03*
X115600000Y-88250000D03*
X95115000Y-85500000D03*
X91585000Y-83000000D03*
X72365000Y-82950000D03*
X103600000Y-79250000D03*
X78600000Y-77000000D03*
X80350000Y-88500000D03*
X145550000Y-98625000D03*
X108100000Y-79750000D03*
X104850000Y-91000000D03*
X103849988Y-91000000D03*
X102849976Y-91000000D03*
X111002084Y-83370009D03*
X110221439Y-87128561D03*
X110268944Y-85976065D03*
X157000000Y-65000000D03*
X157000000Y-69000000D03*
X157000000Y-72000000D03*
X157000000Y-75000000D03*
X157000000Y-78000000D03*
X157000000Y-81000000D03*
X157000000Y-84000000D03*
X157000000Y-87000000D03*
X157000000Y-90000000D03*
X157000000Y-103000000D03*
X157000000Y-106000000D03*
X157000000Y-109000000D03*
X156000000Y-112000000D03*
X152000000Y-112000000D03*
X148000000Y-112000000D03*
X141000000Y-112000000D03*
X133000000Y-112000000D03*
X126000000Y-112000000D03*
X122000000Y-112000000D03*
X118000000Y-112000000D03*
X115000000Y-112000000D03*
X112000000Y-112000000D03*
X109000000Y-112000000D03*
X106000000Y-112000000D03*
X103000000Y-112000000D03*
X100000000Y-112000000D03*
X97000000Y-112000000D03*
X94000000Y-112000000D03*
X91000000Y-112000000D03*
X88000000Y-112000000D03*
X85000000Y-112000000D03*
X82000000Y-112000000D03*
X79000000Y-112000000D03*
X76000000Y-112000000D03*
X73000000Y-112000000D03*
X70000000Y-112000000D03*
X68000000Y-111000000D03*
X68000000Y-108000000D03*
X68000000Y-105000000D03*
X68000000Y-102000000D03*
X68000000Y-99000000D03*
X68000000Y-96000000D03*
X68000000Y-93000000D03*
X68000000Y-90000000D03*
X68000000Y-87000000D03*
X68000000Y-84000000D03*
X68000000Y-81000000D03*
X68000000Y-78000000D03*
X68000000Y-75000000D03*
X68000000Y-72000000D03*
X68000000Y-69000000D03*
X68000000Y-66000000D03*
X69000000Y-64000000D03*
X73000000Y-64000000D03*
X76000000Y-64000000D03*
X79000000Y-64000000D03*
X82000000Y-64000000D03*
X85000000Y-64000000D03*
X86000000Y-65000000D03*
X86000000Y-67000000D03*
X87000000Y-69000000D03*
X89700000Y-68800000D03*
X93000000Y-69000000D03*
X95000000Y-68000000D03*
X95000000Y-66000000D03*
X96000000Y-64000000D03*
X101000000Y-64000000D03*
X105000000Y-64000000D03*
X110000000Y-64000000D03*
X113000000Y-64000000D03*
X116000000Y-64000000D03*
X119000000Y-64000000D03*
X119000000Y-67000000D03*
X122000000Y-64000000D03*
X124000000Y-64000000D03*
X127000000Y-64000000D03*
X132000000Y-64000000D03*
X134000000Y-64000000D03*
X137000000Y-64000000D03*
X142000000Y-64000000D03*
X146000000Y-64000000D03*
X149000000Y-64000000D03*
X152000000Y-64000000D03*
X155000000Y-64000000D03*
X150000000Y-66000000D03*
X151000000Y-69000000D03*
X156000000Y-70000000D03*
X154000000Y-71000000D03*
X152000000Y-70000000D03*
X150000000Y-68000000D03*
X148000000Y-67000000D03*
X146000000Y-67000000D03*
X146000000Y-69000000D03*
X148000000Y-69000000D03*
X150000000Y-71000000D03*
X154000000Y-74000000D03*
X154000000Y-77000000D03*
X152000000Y-77000000D03*
X149000000Y-77000000D03*
X146000000Y-77000000D03*
X143000000Y-77000000D03*
X146000000Y-75000000D03*
X146000000Y-72000000D03*
X143000000Y-72000000D03*
X143000000Y-69000000D03*
X141000000Y-69000000D03*
X141000000Y-72000000D03*
X141000000Y-75000000D03*
X141000000Y-78000000D03*
X143000000Y-79000000D03*
X146000000Y-79000000D03*
X154000000Y-80000000D03*
X154000000Y-83000000D03*
X154000000Y-86000000D03*
X152000000Y-88000000D03*
X155000000Y-88000000D03*
X154000000Y-90000000D03*
X152000000Y-92000000D03*
X151450000Y-94725000D03*
X153000000Y-94000000D03*
X149800000Y-91200000D03*
X149700000Y-93300000D03*
X147000000Y-94000000D03*
X147000000Y-91000000D03*
X147000000Y-88000000D03*
X145000000Y-89000000D03*
X143000000Y-89000000D03*
X144900000Y-92400000D03*
X143100000Y-92700000D03*
X145000000Y-91000000D03*
X136200000Y-93300000D03*
X138000000Y-95000000D03*
X135000000Y-96000000D03*
X133000000Y-95000000D03*
X132000000Y-93000000D03*
X130000000Y-92000000D03*
X129000000Y-90000000D03*
X127000000Y-88000000D03*
X125000000Y-86000000D03*
X123000000Y-85000000D03*
X124000000Y-88000000D03*
X124000000Y-91000000D03*
X126000000Y-91000000D03*
X125000000Y-89000000D03*
X126000000Y-94000000D03*
X124000000Y-94000000D03*
X121000000Y-94000000D03*
X121000000Y-91000000D03*
X118000000Y-91000000D03*
X117000000Y-88000000D03*
X120000000Y-86000000D03*
X117200000Y-85300000D03*
X120000000Y-84000000D03*
X120000000Y-81000000D03*
X122000000Y-83000000D03*
X117000000Y-79000000D03*
X117000000Y-82000000D03*
X114000000Y-82000000D03*
X111000000Y-82000000D03*
X113000000Y-80000000D03*
X110000000Y-80000000D03*
X111800000Y-84900000D03*
X113000000Y-86100000D03*
X112000000Y-89000000D03*
X108600000Y-88900000D03*
X110200000Y-90600000D03*
X112000000Y-92000000D03*
X108000000Y-91000000D03*
X107000000Y-92000000D03*
X109000000Y-92000000D03*
X101000000Y-92000000D03*
X99000000Y-94000000D03*
X97000000Y-91000000D03*
X99000000Y-91000000D03*
X98000000Y-93000000D03*
X98000000Y-95000000D03*
X96000000Y-95000000D03*
X96000000Y-92000000D03*
X94000000Y-91000000D03*
X91000000Y-91000000D03*
X92000000Y-93000000D03*
X94000000Y-93000000D03*
X102000000Y-98000000D03*
X100000000Y-98000000D03*
X98000000Y-98000000D03*
X91000000Y-107000000D03*
X94000000Y-107000000D03*
X97000000Y-107000000D03*
X100000000Y-107000000D03*
X103000000Y-107000000D03*
X106000000Y-107000000D03*
X109000000Y-107000000D03*
X111000000Y-109000000D03*
X112000000Y-107000000D03*
X114000000Y-106000000D03*
X115000000Y-108000000D03*
X117000000Y-109000000D03*
X118000000Y-110000000D03*
X116000000Y-106000000D03*
X116000000Y-103000000D03*
X114000000Y-102000000D03*
X111000000Y-102000000D03*
X108000000Y-102000000D03*
X105000000Y-102000000D03*
X102000000Y-102000000D03*
X99000000Y-102000000D03*
X96000000Y-102000000D03*
X93000000Y-101000000D03*
X91000000Y-100000000D03*
X91000000Y-102000000D03*
X94000000Y-103000000D03*
X91000000Y-104000000D03*
X93000000Y-105000000D03*
X96000000Y-105000000D03*
X99000000Y-105000000D03*
X102000000Y-105000000D03*
X105000000Y-105000000D03*
X108000000Y-105000000D03*
X111000000Y-105000000D03*
X114000000Y-104000000D03*
X86000000Y-107000000D03*
X88000000Y-109000000D03*
X84000000Y-108000000D03*
X85000000Y-109000000D03*
X82000000Y-104000000D03*
X82000000Y-106000000D03*
X83000000Y-109000000D03*
X81000000Y-108000000D03*
X80000000Y-104000000D03*
X78000000Y-104000000D03*
X78000000Y-103000000D03*
X78000000Y-105000000D03*
X80000000Y-109000000D03*
X77000000Y-109000000D03*
X76000000Y-110000000D03*
X74000000Y-111000000D03*
X75000000Y-109000000D03*
X74000000Y-107000000D03*
X73000000Y-106000000D03*
X70000000Y-106000000D03*
X71000000Y-104000000D03*
X74000000Y-104000000D03*
X76000000Y-104000000D03*
X71000000Y-101000000D03*
X71000000Y-98000000D03*
X73000000Y-99000000D03*
X73000000Y-102000000D03*
X77000000Y-101000000D03*
X78000000Y-101000000D03*
X79000000Y-101000000D03*
X79000000Y-100000000D03*
X79000000Y-99000000D03*
X76000000Y-97000000D03*
X76000000Y-98000000D03*
X79000000Y-98000000D03*
X82000000Y-98000000D03*
X82000000Y-100000000D03*
X82000000Y-102000000D03*
X84000000Y-97000000D03*
X81000000Y-96000000D03*
X79000000Y-96000000D03*
X74000000Y-96000000D03*
X74000000Y-93000000D03*
X74000000Y-91000000D03*
X76000000Y-89000000D03*
X75000000Y-88000000D03*
X73000000Y-87000000D03*
X72000000Y-90000000D03*
X71000000Y-92000000D03*
X70200000Y-86300000D03*
X70000000Y-84000000D03*
X71000000Y-77000000D03*
X76000000Y-77000000D03*
X77000000Y-79000000D03*
X78000000Y-86000000D03*
X78000000Y-83000000D03*
X79000000Y-80000000D03*
X80000000Y-81000000D03*
X82000000Y-77000000D03*
X85000000Y-77000000D03*
X86000000Y-79000000D03*
X88000000Y-80000000D03*
X91000000Y-81000000D03*
X94000000Y-81000000D03*
X96000000Y-80000000D03*
X98000000Y-78000000D03*
X92000000Y-79000000D03*
X89000000Y-78000000D03*
X88000000Y-76000000D03*
X91000000Y-74000000D03*
X94000000Y-75000000D03*
X94000000Y-77000000D03*
X94000000Y-79000000D03*
X96000000Y-79000000D03*
X97000000Y-77000000D03*
X97000000Y-75000000D03*
X95000000Y-74000000D03*
X99000000Y-73000000D03*
X100000000Y-75000000D03*
X101000000Y-76000000D03*
X97000000Y-72000000D03*
X99000000Y-70000000D03*
X97000000Y-70000000D03*
X85000000Y-70000000D03*
X86700000Y-71700000D03*
X84000000Y-72000000D03*
X81000000Y-74000000D03*
X78000000Y-75000000D03*
X82000000Y-71000000D03*
X76000000Y-71000000D03*
X73000000Y-73000000D03*
X71000000Y-71000000D03*
X74000000Y-69000000D03*
X75000000Y-66000000D03*
X91000000Y-72000000D03*
X123000000Y-81000000D03*
X126000000Y-84000000D03*
X129000000Y-87000000D03*
X132000000Y-88000000D03*
X133000000Y-86000000D03*
X130000000Y-85000000D03*
X127000000Y-82000000D03*
X128000000Y-80000000D03*
X129000000Y-79000000D03*
X127000000Y-77000000D03*
X129000000Y-77000000D03*
X131000000Y-75000000D03*
X133000000Y-73000000D03*
X133000000Y-70000000D03*
X132100000Y-71000000D03*
X129000000Y-71000000D03*
X129000000Y-75000000D03*
X126000000Y-75000000D03*
X124000000Y-75000000D03*
X124000000Y-73000000D03*
X124000000Y-71000000D03*
X127000000Y-73000000D03*
X129000000Y-73000000D03*
X127000000Y-69000000D03*
X132000000Y-67000000D03*
X128000000Y-67000000D03*
X123000000Y-67000000D03*
X116000000Y-67000000D03*
X113000000Y-67000000D03*
X110000000Y-67000000D03*
X110000000Y-69000000D03*
X110000000Y-72000000D03*
X107000000Y-67000000D03*
X105000000Y-66000000D03*
X102000000Y-66000000D03*
X100000000Y-67000000D03*
X98000000Y-69000000D03*
X128000000Y-102000000D03*
X131000000Y-102000000D03*
X133000000Y-105000000D03*
X134000000Y-108000000D03*
X131000000Y-108000000D03*
X129000000Y-106000000D03*
X130000000Y-104000000D03*
X136000000Y-105000000D03*
X138000000Y-108000000D03*
X141000000Y-108000000D03*
X143000000Y-108000000D03*
X141000000Y-105000000D03*
X139000000Y-103000000D03*
X137000000Y-101000000D03*
X133000000Y-101000000D03*
X139000000Y-106000000D03*
X137000000Y-103000000D03*
X136000000Y-107000000D03*
X151000000Y-111000000D03*
X150000000Y-109000000D03*
X151000000Y-107000000D03*
X152000000Y-106000000D03*
X154000000Y-105000000D03*
X156000000Y-106000000D03*
X145000000Y-107000000D03*
X149000000Y-106000000D03*
X145000000Y-104000000D03*
X148000000Y-102000000D03*
X151000000Y-101000000D03*
X154000000Y-101000000D03*
X152000000Y-103000000D03*
X148000000Y-104000000D03*
X127000000Y-107000000D03*
X126000000Y-109000000D03*
X123000000Y-109000000D03*
X124000000Y-112000000D03*
X123000000Y-106000000D03*
X123000000Y-103000000D03*
X125000000Y-101000000D03*
X122000000Y-101000000D03*
X118000000Y-104000000D03*
X118000000Y-107000000D03*
X113003561Y-90996439D03*
X119900000Y-69000000D03*
G04 #@! TO.N,+1V8*
X96850000Y-92000000D03*
X96085000Y-85500000D03*
X92850000Y-82500000D03*
X70850000Y-80000000D03*
X73335000Y-84400000D03*
X78600000Y-89750000D03*
X103350000Y-77735000D03*
X75500000Y-73000000D03*
X75500000Y-76000000D03*
X74321061Y-78778939D03*
X70885975Y-78799990D03*
G04 #@! TO.N,/JTAGConn58895F8D/SWDIO*
X73350000Y-81500000D03*
X72100000Y-85700000D03*
G04 #@! TO.N,/JTAGConn58895F8D/SWCLK*
X73350000Y-80050000D03*
X71099990Y-83500000D03*
G04 #@! TO.N,VAA*
X115887500Y-84500000D03*
X104600000Y-93500000D03*
X107100000Y-93250000D03*
X111600000Y-93250000D03*
X107350000Y-79000000D03*
X105600000Y-77750000D03*
X114615000Y-79900000D03*
X115900000Y-86500000D03*
X110571434Y-93278556D03*
G04 #@! TO.N,/AD9954sheet/IOUT+*
X118200000Y-79400000D03*
X118200000Y-77200000D03*
G04 #@! TO.N,/AD9954sheet/IOUT-*
X118800000Y-79700000D03*
X118800000Y-77900000D03*
G04 #@! TO.N,+5V*
X113600000Y-107000000D03*
X80085000Y-103250000D03*
X91900000Y-94400000D03*
X93800000Y-94400000D03*
X95850000Y-96015000D03*
X119850000Y-94450000D03*
X119950000Y-92550000D03*
X118585000Y-89250000D03*
X105100000Y-70515000D03*
X105100000Y-73250000D03*
X149000000Y-95000000D03*
G04 #@! TO.N,/ROT_A*
X89600000Y-81750000D03*
X94850000Y-100750000D03*
G04 #@! TO.N,/Tayoe Mixer sheet/270_deg*
X141500000Y-87150000D03*
X138400000Y-86100000D03*
G04 #@! TO.N,/ROT_B*
X87850000Y-81000000D03*
X94313333Y-101018333D03*
G04 #@! TO.N,/Tayoe Mixer sheet/180_deg*
X141250000Y-86450000D03*
X139300000Y-85900000D03*
D20*
G04 #@! TO.N,/UART_TX*
X70599979Y-81153445D03*
X70386051Y-85200294D03*
D22*
G04 #@! TO.N,/DDS_RESET*
X101850000Y-78750000D03*
X100414999Y-80944999D03*
G04 #@! TO.N,/VDDANA*
X80850000Y-90750000D03*
X80886667Y-88231667D03*
G04 #@! TO.N,+12V*
X100065832Y-72465832D03*
X105400000Y-75650000D03*
X110150000Y-76750000D03*
X131000000Y-76295000D03*
D20*
G04 #@! TO.N,/Tayoe Mixer sheet/0_deg*
X147000000Y-96750000D03*
X148750000Y-95750000D03*
D22*
X135500000Y-85575982D03*
D20*
G04 #@! TO.N,/Tayoe Mixer sheet/90_deg*
X147750000Y-97500000D03*
X149792722Y-96700010D03*
D22*
X135023867Y-85999990D03*
G04 #@! TO.N,Net-(IC3-Pad2)*
X138000000Y-92250000D03*
X138000000Y-90500000D03*
G04 #@! TO.N,Net-(IC3-Pad12)*
X136750000Y-92000000D03*
X137750000Y-89500000D03*
G04 #@! TO.N,/CLKMODESEL*
X106850000Y-91000000D03*
X101600000Y-91250000D03*
D20*
G04 #@! TO.N,/IOSYNC*
X92850000Y-86250000D03*
X92905714Y-83424991D03*
G04 #@! TO.N,/PWRDWNCTL*
X97350000Y-81394978D03*
X97100000Y-88800042D03*
D22*
G04 #@! TO.N,/BTN1*
X92313333Y-99768333D03*
X86850000Y-82025011D03*
G04 #@! TO.N,/LCD_D7*
X88600000Y-95750000D03*
X84304999Y-83000000D03*
G04 #@! TO.N,/LCD_D6*
X84100000Y-83750000D03*
X87850000Y-95750000D03*
G04 #@! TO.N,/LCD_D5*
X84100000Y-84750000D03*
X87249987Y-95750000D03*
G04 #@! TO.N,/LCD_D4*
X83600000Y-85250000D03*
X86600000Y-95750000D03*
G04 #@! TO.N,/LCD_EN*
X85999987Y-95750000D03*
X83008791Y-85353600D03*
G04 #@! TO.N,/LCD_RW*
X85399974Y-95750000D03*
X82408783Y-85351661D03*
G04 #@! TO.N,/LCD_RS*
X81600000Y-85250000D03*
X84799961Y-95750000D03*
G04 #@! TO.N,/BTN2*
X80600000Y-85500000D03*
X84100000Y-91000000D03*
X90100000Y-93750000D03*
X93088589Y-98761411D03*
G04 #@! TO.N,/BTN3*
X92850000Y-99500000D03*
X89600000Y-94250000D03*
X84350000Y-92250000D03*
X79600000Y-85500000D03*
G04 #@! TO.N,+3V3*
X125715000Y-102700000D03*
X120335000Y-101000000D03*
X117585000Y-102250000D03*
X133830000Y-102750000D03*
X142130000Y-103700000D03*
X136750000Y-87440000D03*
X122950000Y-87300000D03*
X143500000Y-83500000D03*
X151250000Y-80000000D03*
X136000000Y-97250000D03*
X137750000Y-97000000D03*
X140905000Y-97000000D03*
X126650000Y-93900000D03*
X134549986Y-91250000D03*
X141299978Y-92750000D03*
G04 #@! TD*
D23*
G04 #@! TO.N,+1V8*
X96850000Y-92000000D02*
X96085000Y-91235000D01*
X96085000Y-91235000D02*
X96085000Y-85500000D01*
X93600000Y-83250000D02*
X92850000Y-82500000D01*
X96085000Y-91235000D02*
X93600000Y-88750000D01*
X93600000Y-88750000D02*
X93600000Y-83250000D01*
X96085000Y-85500000D02*
X96085000Y-81515000D01*
X96085000Y-81515000D02*
X99865000Y-77735000D01*
X99865000Y-77735000D02*
X103350000Y-77735000D01*
X75500000Y-73000000D02*
X75500000Y-76000000D01*
X73669168Y-82569168D02*
X74100000Y-82138336D01*
X73669168Y-83665832D02*
X73669168Y-82569168D01*
X74100000Y-79000000D02*
X74321061Y-78778939D01*
X73365000Y-85515000D02*
X73335000Y-85515000D01*
X76100000Y-88250000D02*
X73365000Y-85515000D01*
X73335000Y-84000000D02*
X73669168Y-83665832D01*
X78100000Y-89750000D02*
X76600000Y-88250000D01*
X73335000Y-85515000D02*
X73335000Y-84000000D01*
X76600000Y-88250000D02*
X76100000Y-88250000D01*
X78600000Y-89750000D02*
X78100000Y-89750000D01*
X74100000Y-82138336D02*
X74100000Y-79000000D01*
X70850000Y-78835965D02*
X70885975Y-78799990D01*
X70850000Y-80000000D02*
X70850000Y-78835965D01*
G04 #@! TO.N,/JTAGConn58895F8D/SWDIO*
X71900001Y-85500001D02*
X72100000Y-85700000D01*
X71850000Y-85450000D02*
X71900001Y-85500001D01*
X73067158Y-81500000D02*
X71850000Y-82717158D01*
X73350000Y-81500000D02*
X73067158Y-81500000D01*
X71850000Y-82717158D02*
X71850000Y-85450000D01*
G04 #@! TO.N,/JTAGConn58895F8D/SWCLK*
X71099990Y-83217158D02*
X71099990Y-83500000D01*
X71340002Y-80250000D02*
X71199989Y-80390013D01*
X71199989Y-83117159D02*
X71099990Y-83217158D01*
X73350000Y-80250000D02*
X71340002Y-80250000D01*
X71199989Y-80390013D02*
X71199989Y-83117159D01*
G04 #@! TO.N,VAA*
X104600000Y-93500000D02*
X106850000Y-93500000D01*
X106850000Y-93500000D02*
X107100000Y-93250000D01*
X106850000Y-79000000D02*
X105600000Y-77750000D01*
X107350000Y-79000000D02*
X106850000Y-79000000D01*
X115900000Y-84500000D02*
X115900000Y-86500000D01*
X114615000Y-79900000D02*
X114615000Y-83215000D01*
X114615000Y-83215000D02*
X115900000Y-84500000D01*
X115900000Y-86500000D02*
X115900000Y-86500000D01*
X111600000Y-93250000D02*
X110599990Y-93250000D01*
X110599990Y-93250000D02*
X110571434Y-93278556D01*
D24*
G04 #@! TO.N,/AD9954sheet/IOUT+*
X118200000Y-79400000D02*
X118200000Y-77200000D01*
G04 #@! TO.N,/AD9954sheet/IOUT-*
X118800000Y-79700000D02*
X118800000Y-77900000D01*
D23*
G04 #@! TO.N,+5V*
X105100000Y-70515000D02*
X105100000Y-73000000D01*
X105100000Y-73000000D02*
X105100000Y-73250000D01*
G04 #@! TO.N,/ROT_A*
X89600000Y-81750000D02*
X90350000Y-82500000D01*
X90350000Y-82500000D02*
X90350000Y-92250000D01*
X90350000Y-92250000D02*
X91100000Y-93000000D01*
X91100000Y-93000000D02*
X91100000Y-95500000D01*
X94850000Y-99250000D02*
X94850000Y-100750000D01*
X91100000Y-95500000D02*
X94850000Y-99250000D01*
G04 #@! TO.N,/Tayoe Mixer sheet/270_deg*
X141500000Y-87150000D02*
X139450000Y-87150000D01*
X139450000Y-87150000D02*
X138400000Y-86100000D01*
G04 #@! TO.N,/ROT_B*
X94313333Y-99279033D02*
X94313333Y-100735491D01*
X89850000Y-83000000D02*
X89850000Y-92500000D01*
X87850000Y-81000000D02*
X89850000Y-83000000D01*
X89850000Y-92500000D02*
X90699989Y-93349989D01*
X94313333Y-100735491D02*
X94313333Y-101018333D01*
X90699989Y-95665689D02*
X94313333Y-99279033D01*
X90699989Y-93349989D02*
X90699989Y-95665689D01*
G04 #@! TO.N,/Tayoe Mixer sheet/180_deg*
X141250000Y-86450000D02*
X139850000Y-86450000D01*
X139850000Y-86450000D02*
X139300000Y-85900000D01*
G04 #@! TO.N,/UART_TX*
X70599979Y-84986366D02*
X70386051Y-85200294D01*
X70599979Y-81153445D02*
X70599979Y-84986366D01*
G04 #@! TO.N,/DDS_RESET*
X101850000Y-78750000D02*
X100414999Y-80185001D01*
X100414999Y-80185001D02*
X100414999Y-80944999D01*
G04 #@! TO.N,/VDDANA*
X80850000Y-90750000D02*
X80850000Y-88268334D01*
X80850000Y-88268334D02*
X80886667Y-88231667D01*
D25*
G04 #@! TO.N,+12V*
X110432842Y-76750000D02*
X111132842Y-76050000D01*
X110150000Y-76750000D02*
X110432842Y-76750000D01*
X111132842Y-76050000D02*
X130755000Y-76050000D01*
X130755000Y-76050000D02*
X131000000Y-76295000D01*
X100065832Y-73665832D02*
X100065832Y-72465832D01*
X105400000Y-75650000D02*
X102050000Y-75650000D01*
X102050000Y-75650000D02*
X100065832Y-73665832D01*
D26*
G04 #@! TO.N,/Tayoe Mixer sheet/0_deg*
X147750000Y-96750000D02*
X148750000Y-95750000D01*
X147000000Y-96750000D02*
X147750000Y-96750000D01*
D23*
X137075982Y-85575982D02*
X135782842Y-85575982D01*
X147000000Y-95500000D02*
X137075982Y-85575982D01*
X135782842Y-85575982D02*
X135500000Y-85575982D01*
X147000000Y-96750000D02*
X147000000Y-95500000D01*
D26*
G04 #@! TO.N,/Tayoe Mixer sheet/90_deg*
X148992732Y-97500000D02*
X149492723Y-97000009D01*
X147750000Y-97500000D02*
X148992732Y-97500000D01*
X149492723Y-97000009D02*
X149792722Y-96700010D01*
D23*
X145500000Y-97500000D02*
X142250000Y-94250000D01*
X142250000Y-94250000D02*
X142250000Y-91500000D01*
X142250000Y-91500000D02*
X137004046Y-86254046D01*
X147750000Y-97500000D02*
X145500000Y-97500000D01*
X137004046Y-86254046D02*
X135277923Y-86254046D01*
X135223866Y-86199989D02*
X135023867Y-85999990D01*
X135277923Y-86254046D02*
X135223866Y-86199989D01*
G04 #@! TO.N,Net-(IC3-Pad2)*
X138000000Y-92250000D02*
X138000000Y-90500000D01*
G04 #@! TO.N,Net-(IC3-Pad12)*
X136750000Y-92000000D02*
X137000000Y-91750000D01*
X137000000Y-91750000D02*
X137000000Y-90250000D01*
X137000000Y-90250000D02*
X137750000Y-89500000D01*
G04 #@! TO.N,/CLKMODESEL*
X102100000Y-91750000D02*
X101600000Y-91250000D01*
X106850000Y-91000000D02*
X106100000Y-91750000D01*
X106100000Y-91750000D02*
X102100000Y-91750000D01*
G04 #@! TO.N,/IOSYNC*
X92850000Y-83480705D02*
X92905714Y-83424991D01*
X92850000Y-86250000D02*
X92850000Y-83480705D01*
G04 #@! TO.N,/PWRDWNCTL*
X97350000Y-81394978D02*
X97350000Y-88550042D01*
X97350000Y-88550042D02*
X97100000Y-88800042D01*
G04 #@! TO.N,/BTN1*
X89100000Y-84275011D02*
X87049999Y-82225010D01*
X87049999Y-82225010D02*
X86850000Y-82025011D01*
X92313333Y-99768333D02*
X89100000Y-96555000D01*
X89100000Y-96555000D02*
X89100000Y-84275011D01*
G04 #@! TO.N,/LCD_D7*
X88600000Y-95750000D02*
X88350000Y-95500000D01*
X88350000Y-95500000D02*
X88350000Y-87045001D01*
X88350000Y-87045001D02*
X84304999Y-83000000D01*
G04 #@! TO.N,/LCD_D6*
X87850000Y-87500000D02*
X87850000Y-95750000D01*
X84100000Y-83750000D02*
X87850000Y-87500000D01*
G04 #@! TO.N,/LCD_D5*
X84100000Y-84750000D02*
X87249987Y-87899987D01*
X87249987Y-87899987D02*
X87249987Y-95467158D01*
X87249987Y-95467158D02*
X87249987Y-95750000D01*
G04 #@! TO.N,/LCD_D4*
X83600000Y-85250000D02*
X86600000Y-88250000D01*
X86600000Y-88250000D02*
X86600000Y-95750000D01*
G04 #@! TO.N,/LCD_EN*
X83008791Y-85365913D02*
X83008791Y-85353600D01*
X85999987Y-88357109D02*
X83008791Y-85365913D01*
X85999987Y-95750000D02*
X85999987Y-88357109D01*
G04 #@! TO.N,/LCD_RW*
X82408783Y-85473027D02*
X82408783Y-85351661D01*
X85399974Y-95750000D02*
X85399974Y-88464218D01*
X85399974Y-88464218D02*
X82408783Y-85473027D01*
G04 #@! TO.N,/LCD_RS*
X84850000Y-95699961D02*
X84799961Y-95750000D01*
X81600000Y-85250000D02*
X84850000Y-88500000D01*
X84850000Y-88500000D02*
X84850000Y-95699961D01*
G04 #@! TO.N,/BTN2*
X80600000Y-85500000D02*
X82350000Y-87250000D01*
X82350000Y-87250000D02*
X82350000Y-89250000D01*
X82350000Y-89250000D02*
X84100000Y-91000000D01*
X90100000Y-95772822D02*
X92888590Y-98561412D01*
X92888590Y-98561412D02*
X93088589Y-98761411D01*
X90100000Y-93750000D02*
X90100000Y-95772822D01*
G04 #@! TO.N,/BTN3*
X92850000Y-99500000D02*
X89600000Y-96250000D01*
X89600000Y-96250000D02*
X89600000Y-94250000D01*
X84350000Y-92250000D02*
X81850000Y-89750000D01*
X81850000Y-89750000D02*
X81850000Y-87750000D01*
X81850000Y-87750000D02*
X79600000Y-85500000D01*
D25*
G04 #@! TO.N,+3V3*
X122085000Y-99250000D02*
X120335000Y-101000000D01*
X122085000Y-99250000D02*
X120585000Y-99250000D01*
X120585000Y-99250000D02*
X117585000Y-102250000D01*
X136750000Y-87440000D02*
X136750000Y-89050000D01*
X136750000Y-89050000D02*
X134550000Y-91250000D01*
X145750000Y-80000000D02*
X151250000Y-80000000D01*
X143500000Y-83500000D02*
X143500000Y-82250000D01*
X143500000Y-82250000D02*
X145750000Y-80000000D01*
X137500000Y-97250000D02*
X137750000Y-97000000D01*
X136000000Y-97250000D02*
X137500000Y-97250000D01*
X126650000Y-94182842D02*
X126650000Y-93900000D01*
X126650000Y-98900000D02*
X126650000Y-94182842D01*
X126300000Y-99250000D02*
X126650000Y-98900000D01*
X136000000Y-97770000D02*
X142130000Y-103900000D01*
X136000000Y-97250000D02*
X136000000Y-97770000D01*
X131880000Y-101000000D02*
X133830000Y-102950000D01*
X130150000Y-101000000D02*
X131880000Y-101000000D01*
X126350000Y-101000000D02*
X130120000Y-101000000D01*
X122085000Y-99250000D02*
X126350000Y-99250000D01*
X126350000Y-99250000D02*
X126350000Y-101000000D01*
X141099979Y-92949999D02*
X141299978Y-92750000D01*
X141100000Y-92950020D02*
X141099979Y-92949999D01*
X140905000Y-97000000D02*
X141100000Y-96805000D01*
X141100000Y-96805000D02*
X141100000Y-92950020D01*
X126350000Y-102050000D02*
X125700000Y-102700000D01*
X126350000Y-100950000D02*
X126350000Y-102050000D01*
G04 #@! TD*
D27*
G04 #@! TO.N,GND*
G36*
X96742191Y-63792191D02*
X96601843Y-64002235D01*
X96552560Y-64250000D01*
X96552560Y-66250000D01*
X96601843Y-66497765D01*
X96742191Y-66707809D01*
X96952235Y-66848157D01*
X97200000Y-66897440D01*
X99200000Y-66897440D01*
X99447765Y-66848157D01*
X99657809Y-66707809D01*
X99798157Y-66497765D01*
X99847440Y-66250000D01*
X99847440Y-64250000D01*
X99798157Y-64002235D01*
X99657809Y-63792191D01*
X99497388Y-63685000D01*
X106652612Y-63685000D01*
X106492191Y-63792191D01*
X106351843Y-64002235D01*
X106302560Y-64250000D01*
X106302560Y-66250000D01*
X106351843Y-66497765D01*
X106492191Y-66707809D01*
X106702235Y-66848157D01*
X106950000Y-66897440D01*
X108950000Y-66897440D01*
X109197765Y-66848157D01*
X109407809Y-66707809D01*
X109548157Y-66497765D01*
X109596576Y-66254343D01*
X119165000Y-66254343D01*
X119165000Y-66745657D01*
X119353018Y-67199571D01*
X119700429Y-67546982D01*
X120154343Y-67735000D01*
X120645657Y-67735000D01*
X121099571Y-67546982D01*
X121446982Y-67199571D01*
X121635000Y-66745657D01*
X121635000Y-66254343D01*
X129165000Y-66254343D01*
X129165000Y-66745657D01*
X129353018Y-67199571D01*
X129700429Y-67546982D01*
X130154343Y-67735000D01*
X130645657Y-67735000D01*
X131099571Y-67546982D01*
X131446982Y-67199571D01*
X131635000Y-66745657D01*
X131635000Y-66254343D01*
X131446982Y-65800429D01*
X131099571Y-65453018D01*
X130645657Y-65265000D01*
X130154343Y-65265000D01*
X129700429Y-65453018D01*
X129353018Y-65800429D01*
X129165000Y-66254343D01*
X121635000Y-66254343D01*
X121446982Y-65800429D01*
X121099571Y-65453018D01*
X120645657Y-65265000D01*
X120154343Y-65265000D01*
X119700429Y-65453018D01*
X119353018Y-65800429D01*
X119165000Y-66254343D01*
X109596576Y-66254343D01*
X109597440Y-66250000D01*
X109597440Y-64250000D01*
X109548157Y-64002235D01*
X109407809Y-63792191D01*
X109247388Y-63685000D01*
X119193723Y-63685000D01*
X119165000Y-63754343D01*
X119165000Y-64245657D01*
X119353018Y-64699571D01*
X119700429Y-65046982D01*
X120154343Y-65235000D01*
X120645657Y-65235000D01*
X121099571Y-65046982D01*
X121446982Y-64699571D01*
X121635000Y-64245657D01*
X121635000Y-63754343D01*
X121606277Y-63685000D01*
X122566590Y-63685000D01*
X122706143Y-63893857D01*
X122932727Y-64045255D01*
X123071346Y-64072828D01*
X123200000Y-64098419D01*
X123267461Y-64085000D01*
X127532538Y-64085000D01*
X127600000Y-64098419D01*
X127667461Y-64085000D01*
X127667462Y-64085000D01*
X127867273Y-64045255D01*
X128093857Y-63893857D01*
X128233410Y-63685000D01*
X129193723Y-63685000D01*
X129165000Y-63754343D01*
X129165000Y-64245657D01*
X129353018Y-64699571D01*
X129700429Y-65046982D01*
X130154343Y-65235000D01*
X130645657Y-65235000D01*
X131099571Y-65046982D01*
X131446982Y-64699571D01*
X131635000Y-64245657D01*
X131635000Y-63754343D01*
X131606277Y-63685000D01*
X155456900Y-63685000D01*
X155950020Y-63747296D01*
X156371759Y-63914274D01*
X156738727Y-64180891D01*
X157027858Y-64530391D01*
X157220989Y-64940816D01*
X157312098Y-65418427D01*
X157315001Y-65510791D01*
X157315000Y-110456900D01*
X157252705Y-110950019D01*
X157085726Y-111371761D01*
X156819109Y-111738727D01*
X156469610Y-112027857D01*
X156059184Y-112220989D01*
X155581573Y-112312098D01*
X155489240Y-112315000D01*
X120746256Y-112315000D01*
X121179418Y-112228839D01*
X121670625Y-111900625D01*
X121998839Y-111409418D01*
X122114092Y-110830000D01*
X122088234Y-110700000D01*
X126345908Y-110700000D01*
X126461161Y-111279418D01*
X126789375Y-111770625D01*
X127280582Y-112098839D01*
X127713744Y-112185000D01*
X128006256Y-112185000D01*
X128439418Y-112098839D01*
X128930625Y-111770625D01*
X129258839Y-111279418D01*
X129374092Y-110700000D01*
X133995908Y-110700000D01*
X134111161Y-111279418D01*
X134439375Y-111770625D01*
X134930582Y-112098839D01*
X135363744Y-112185000D01*
X135656256Y-112185000D01*
X136089418Y-112098839D01*
X136580625Y-111770625D01*
X136908839Y-111279418D01*
X137024092Y-110700000D01*
X141645908Y-110700000D01*
X141761161Y-111279418D01*
X142089375Y-111770625D01*
X142580582Y-112098839D01*
X143013744Y-112185000D01*
X143306256Y-112185000D01*
X143739418Y-112098839D01*
X144230625Y-111770625D01*
X144558839Y-111279418D01*
X144674092Y-110700000D01*
X144558839Y-110120582D01*
X144230625Y-109629375D01*
X143739418Y-109301161D01*
X143306256Y-109215000D01*
X143013744Y-109215000D01*
X142580582Y-109301161D01*
X142089375Y-109629375D01*
X141761161Y-110120582D01*
X141645908Y-110700000D01*
X137024092Y-110700000D01*
X136908839Y-110120582D01*
X136580625Y-109629375D01*
X136089418Y-109301161D01*
X135656256Y-109215000D01*
X135363744Y-109215000D01*
X134930582Y-109301161D01*
X134439375Y-109629375D01*
X134111161Y-110120582D01*
X133995908Y-110700000D01*
X129374092Y-110700000D01*
X129258839Y-110120582D01*
X128930625Y-109629375D01*
X128439418Y-109301161D01*
X128006256Y-109215000D01*
X127713744Y-109215000D01*
X127280582Y-109301161D01*
X126789375Y-109629375D01*
X126461161Y-110120582D01*
X126345908Y-110700000D01*
X122088234Y-110700000D01*
X121998839Y-110250582D01*
X121670625Y-109759375D01*
X121179418Y-109431161D01*
X120746256Y-109345000D01*
X120453744Y-109345000D01*
X120020582Y-109431161D01*
X119529375Y-109759375D01*
X119201161Y-110250582D01*
X119085908Y-110830000D01*
X119201161Y-111409418D01*
X119529375Y-111900625D01*
X120020582Y-112228839D01*
X120453744Y-112315000D01*
X69793100Y-112315000D01*
X69299981Y-112252705D01*
X68878239Y-112085726D01*
X68511273Y-111819109D01*
X68222143Y-111469610D01*
X68029011Y-111059184D01*
X67970032Y-110750000D01*
X78875908Y-110750000D01*
X78991161Y-111329418D01*
X79319375Y-111820625D01*
X79810582Y-112148839D01*
X80243744Y-112235000D01*
X80536256Y-112235000D01*
X80969418Y-112148839D01*
X81460625Y-111820625D01*
X81660000Y-111522239D01*
X81859375Y-111820625D01*
X82350582Y-112148839D01*
X82783744Y-112235000D01*
X83076256Y-112235000D01*
X83509418Y-112148839D01*
X84000625Y-111820625D01*
X84200000Y-111522239D01*
X84399375Y-111820625D01*
X84890582Y-112148839D01*
X85323744Y-112235000D01*
X85616256Y-112235000D01*
X86049418Y-112148839D01*
X86540625Y-111820625D01*
X86740000Y-111522239D01*
X86939375Y-111820625D01*
X87430582Y-112148839D01*
X87863744Y-112235000D01*
X88156256Y-112235000D01*
X88589418Y-112148839D01*
X89080625Y-111820625D01*
X89280000Y-111522239D01*
X89479375Y-111820625D01*
X89970582Y-112148839D01*
X90403744Y-112235000D01*
X90696256Y-112235000D01*
X91129418Y-112148839D01*
X91620625Y-111820625D01*
X91820000Y-111522239D01*
X92019375Y-111820625D01*
X92510582Y-112148839D01*
X92943744Y-112235000D01*
X93236256Y-112235000D01*
X93669418Y-112148839D01*
X94160625Y-111820625D01*
X94360000Y-111522239D01*
X94559375Y-111820625D01*
X95050582Y-112148839D01*
X95483744Y-112235000D01*
X95776256Y-112235000D01*
X96209418Y-112148839D01*
X96700625Y-111820625D01*
X96900000Y-111522239D01*
X97099375Y-111820625D01*
X97590582Y-112148839D01*
X98023744Y-112235000D01*
X98316256Y-112235000D01*
X98749418Y-112148839D01*
X99240625Y-111820625D01*
X99440000Y-111522239D01*
X99639375Y-111820625D01*
X100130582Y-112148839D01*
X100563744Y-112235000D01*
X100856256Y-112235000D01*
X101289418Y-112148839D01*
X101780625Y-111820625D01*
X101980000Y-111522239D01*
X102179375Y-111820625D01*
X102670582Y-112148839D01*
X103103744Y-112235000D01*
X103396256Y-112235000D01*
X103829418Y-112148839D01*
X104320625Y-111820625D01*
X104520000Y-111522239D01*
X104719375Y-111820625D01*
X105210582Y-112148839D01*
X105643744Y-112235000D01*
X105936256Y-112235000D01*
X106369418Y-112148839D01*
X106860625Y-111820625D01*
X107060000Y-111522239D01*
X107259375Y-111820625D01*
X107750582Y-112148839D01*
X108183744Y-112235000D01*
X108476256Y-112235000D01*
X108909418Y-112148839D01*
X109400625Y-111820625D01*
X109600000Y-111522239D01*
X109799375Y-111820625D01*
X110290582Y-112148839D01*
X110723744Y-112235000D01*
X111016256Y-112235000D01*
X111449418Y-112148839D01*
X111940625Y-111820625D01*
X112140000Y-111522239D01*
X112339375Y-111820625D01*
X112830582Y-112148839D01*
X113263744Y-112235000D01*
X113556256Y-112235000D01*
X113989418Y-112148839D01*
X114480625Y-111820625D01*
X114808839Y-111329418D01*
X114924092Y-110750000D01*
X114808839Y-110170582D01*
X114480625Y-109679375D01*
X113989418Y-109351161D01*
X113556256Y-109265000D01*
X113263744Y-109265000D01*
X112830582Y-109351161D01*
X112339375Y-109679375D01*
X112140000Y-109977761D01*
X111940625Y-109679375D01*
X111449418Y-109351161D01*
X111016256Y-109265000D01*
X110723744Y-109265000D01*
X110290582Y-109351161D01*
X109799375Y-109679375D01*
X109600000Y-109977761D01*
X109400625Y-109679375D01*
X108909418Y-109351161D01*
X108476256Y-109265000D01*
X108183744Y-109265000D01*
X107750582Y-109351161D01*
X107259375Y-109679375D01*
X107060000Y-109977761D01*
X106860625Y-109679375D01*
X106369418Y-109351161D01*
X105936256Y-109265000D01*
X105643744Y-109265000D01*
X105210582Y-109351161D01*
X104719375Y-109679375D01*
X104520000Y-109977761D01*
X104320625Y-109679375D01*
X103829418Y-109351161D01*
X103396256Y-109265000D01*
X103103744Y-109265000D01*
X102670582Y-109351161D01*
X102179375Y-109679375D01*
X101980000Y-109977761D01*
X101780625Y-109679375D01*
X101289418Y-109351161D01*
X100856256Y-109265000D01*
X100563744Y-109265000D01*
X100130582Y-109351161D01*
X99639375Y-109679375D01*
X99440000Y-109977761D01*
X99240625Y-109679375D01*
X98749418Y-109351161D01*
X98316256Y-109265000D01*
X98023744Y-109265000D01*
X97590582Y-109351161D01*
X97099375Y-109679375D01*
X96900000Y-109977761D01*
X96700625Y-109679375D01*
X96209418Y-109351161D01*
X95776256Y-109265000D01*
X95483744Y-109265000D01*
X95050582Y-109351161D01*
X94559375Y-109679375D01*
X94360000Y-109977761D01*
X94160625Y-109679375D01*
X93669418Y-109351161D01*
X93236256Y-109265000D01*
X92943744Y-109265000D01*
X92510582Y-109351161D01*
X92019375Y-109679375D01*
X91820000Y-109977761D01*
X91620625Y-109679375D01*
X91129418Y-109351161D01*
X90696256Y-109265000D01*
X90403744Y-109265000D01*
X89970582Y-109351161D01*
X89479375Y-109679375D01*
X89280000Y-109977761D01*
X89080625Y-109679375D01*
X88589418Y-109351161D01*
X88156256Y-109265000D01*
X87863744Y-109265000D01*
X87430582Y-109351161D01*
X86939375Y-109679375D01*
X86740000Y-109977761D01*
X86540625Y-109679375D01*
X86049418Y-109351161D01*
X85616256Y-109265000D01*
X85323744Y-109265000D01*
X84890582Y-109351161D01*
X84399375Y-109679375D01*
X84200000Y-109977761D01*
X84000625Y-109679375D01*
X83509418Y-109351161D01*
X83076256Y-109265000D01*
X82783744Y-109265000D01*
X82350582Y-109351161D01*
X81859375Y-109679375D01*
X81660000Y-109977761D01*
X81460625Y-109679375D01*
X80969418Y-109351161D01*
X80536256Y-109265000D01*
X80243744Y-109265000D01*
X79810582Y-109351161D01*
X79319375Y-109679375D01*
X78991161Y-110170582D01*
X78875908Y-110750000D01*
X67970032Y-110750000D01*
X67937902Y-110581573D01*
X67935000Y-110489240D01*
X67935000Y-106833908D01*
X112765000Y-106833908D01*
X112765000Y-107166092D01*
X112892121Y-107472990D01*
X113127010Y-107707879D01*
X113433908Y-107835000D01*
X113766092Y-107835000D01*
X114072990Y-107707879D01*
X114307879Y-107472990D01*
X114435000Y-107166092D01*
X114435000Y-106833908D01*
X114307879Y-106527010D01*
X114072990Y-106292121D01*
X113766092Y-106165000D01*
X113433908Y-106165000D01*
X113127010Y-106292121D01*
X112892121Y-106527010D01*
X112765000Y-106833908D01*
X67935000Y-106833908D01*
X67935000Y-104900000D01*
X119102560Y-104900000D01*
X119102560Y-106600000D01*
X119151843Y-106847765D01*
X119292191Y-107057809D01*
X119502235Y-107198157D01*
X119750000Y-107247440D01*
X121450000Y-107247440D01*
X121697765Y-107198157D01*
X121907809Y-107057809D01*
X122048157Y-106847765D01*
X122097440Y-106600000D01*
X122097440Y-104900000D01*
X122048157Y-104652235D01*
X121907809Y-104442191D01*
X121697765Y-104301843D01*
X121450000Y-104252560D01*
X119750000Y-104252560D01*
X119502235Y-104301843D01*
X119292191Y-104442191D01*
X119151843Y-104652235D01*
X119102560Y-104900000D01*
X67935000Y-104900000D01*
X67935000Y-103083908D01*
X79250000Y-103083908D01*
X79250000Y-103416092D01*
X79377121Y-103722990D01*
X79612010Y-103957879D01*
X79918908Y-104085000D01*
X80251092Y-104085000D01*
X80557990Y-103957879D01*
X80792879Y-103722990D01*
X80920000Y-103416092D01*
X80920000Y-103083908D01*
X80792879Y-102777010D01*
X80557990Y-102542121D01*
X80251092Y-102415000D01*
X79918908Y-102415000D01*
X79612010Y-102542121D01*
X79377121Y-102777010D01*
X79250000Y-103083908D01*
X67935000Y-103083908D01*
X67935000Y-102250000D01*
X116733643Y-102250000D01*
X116750000Y-102332233D01*
X116750000Y-102416092D01*
X116782091Y-102493566D01*
X116798448Y-102575800D01*
X116845030Y-102645515D01*
X116877121Y-102722990D01*
X116936417Y-102782286D01*
X116982999Y-102852001D01*
X117052714Y-102898583D01*
X117112010Y-102957879D01*
X117189485Y-102989970D01*
X117259200Y-103036552D01*
X117341434Y-103052909D01*
X117418908Y-103085000D01*
X117502767Y-103085000D01*
X117585000Y-103101357D01*
X117667233Y-103085000D01*
X117751092Y-103085000D01*
X117828566Y-103052909D01*
X117910800Y-103036552D01*
X117980514Y-102989971D01*
X118057990Y-102957879D01*
X118292879Y-102722990D01*
X118292880Y-102722987D01*
X119602447Y-101413421D01*
X119627121Y-101472990D01*
X119686417Y-101532286D01*
X119732999Y-101602001D01*
X119802714Y-101648583D01*
X119862010Y-101707879D01*
X119939485Y-101739970D01*
X120009200Y-101786552D01*
X120091434Y-101802909D01*
X120168908Y-101835000D01*
X120252767Y-101835000D01*
X120335000Y-101851357D01*
X120417233Y-101835000D01*
X120501092Y-101835000D01*
X120578566Y-101802909D01*
X120660800Y-101786552D01*
X120730514Y-101739971D01*
X120807990Y-101707879D01*
X121042879Y-101472990D01*
X121042880Y-101472987D01*
X122430868Y-100085000D01*
X125515000Y-100085000D01*
X125515001Y-100867760D01*
X125515000Y-100867764D01*
X125515000Y-100917763D01*
X125498642Y-101000000D01*
X125515000Y-101082237D01*
X125515001Y-101704132D01*
X125051416Y-102167717D01*
X125021215Y-102212916D01*
X125007121Y-102227010D01*
X124999494Y-102245424D01*
X124913448Y-102374200D01*
X124883233Y-102526103D01*
X124880000Y-102533908D01*
X124880000Y-102542356D01*
X124848643Y-102700000D01*
X124880000Y-102857644D01*
X124880000Y-102866092D01*
X124883233Y-102873897D01*
X124913448Y-103025800D01*
X124999495Y-103154578D01*
X125007121Y-103172990D01*
X125021212Y-103187081D01*
X125097999Y-103302001D01*
X125212919Y-103378788D01*
X125242010Y-103407879D01*
X125280020Y-103423623D01*
X125374200Y-103486552D01*
X125485292Y-103508649D01*
X125548908Y-103535000D01*
X125617767Y-103535000D01*
X125700000Y-103551357D01*
X125782233Y-103535000D01*
X125881092Y-103535000D01*
X125972424Y-103497169D01*
X126025800Y-103486552D01*
X126071049Y-103456317D01*
X126187990Y-103407879D01*
X126422879Y-103172990D01*
X126433487Y-103147380D01*
X126882282Y-102698586D01*
X126952001Y-102652001D01*
X127136552Y-102375801D01*
X127185000Y-102132237D01*
X127201358Y-102050000D01*
X127185000Y-101967763D01*
X127185000Y-101835000D01*
X131534133Y-101835000D01*
X133297715Y-103598584D01*
X133504199Y-103736552D01*
X133829999Y-103801357D01*
X134155799Y-103736552D01*
X134432000Y-103552000D01*
X134616552Y-103275799D01*
X134681357Y-102949999D01*
X134665000Y-102867766D01*
X134665000Y-102583908D01*
X134537879Y-102277010D01*
X134302990Y-102042121D01*
X133996092Y-101915000D01*
X133975869Y-101915000D01*
X132528587Y-100467720D01*
X132482001Y-100397999D01*
X132205801Y-100213448D01*
X131962237Y-100165000D01*
X131962233Y-100165000D01*
X131880000Y-100148643D01*
X131797767Y-100165000D01*
X127185000Y-100165000D01*
X127185000Y-99546769D01*
X127252001Y-99502001D01*
X127436552Y-99225801D01*
X127485000Y-98982237D01*
X127485000Y-98982236D01*
X127501358Y-98900000D01*
X127485000Y-98817763D01*
X127485000Y-97250000D01*
X135148642Y-97250000D01*
X135165000Y-97332237D01*
X135165000Y-97687767D01*
X135148643Y-97770000D01*
X135165000Y-97852233D01*
X135165000Y-97852237D01*
X135213448Y-98095801D01*
X135398000Y-98372001D01*
X135467718Y-98418585D01*
X141597716Y-104548584D01*
X141804199Y-104686552D01*
X142129999Y-104751357D01*
X142455800Y-104686552D01*
X142732000Y-104502000D01*
X142916552Y-104225800D01*
X142981357Y-103899999D01*
X142965000Y-103817766D01*
X142965000Y-103533908D01*
X142837879Y-103227010D01*
X142602990Y-102992121D01*
X142296092Y-102865000D01*
X142275868Y-102865000D01*
X137510196Y-98099329D01*
X137582233Y-98085000D01*
X137582237Y-98085000D01*
X137825801Y-98036552D01*
X138102001Y-97852001D01*
X138148587Y-97782281D01*
X138222987Y-97707880D01*
X138222990Y-97707879D01*
X138457879Y-97472990D01*
X138489970Y-97395515D01*
X138536552Y-97325800D01*
X138552909Y-97243566D01*
X138585000Y-97166092D01*
X138585000Y-97082234D01*
X138601357Y-97000001D01*
X138585000Y-96917768D01*
X138585000Y-96833908D01*
X138552909Y-96756433D01*
X138536552Y-96674201D01*
X138489972Y-96604489D01*
X138457879Y-96527010D01*
X138398578Y-96467709D01*
X138352000Y-96398000D01*
X138282291Y-96351422D01*
X138222990Y-96292121D01*
X138145511Y-96260028D01*
X138075799Y-96213448D01*
X137993567Y-96197091D01*
X137916092Y-96165000D01*
X137832232Y-96165000D01*
X137749999Y-96148643D01*
X137667766Y-96165000D01*
X137583908Y-96165000D01*
X137506434Y-96197091D01*
X137424200Y-96213448D01*
X137354485Y-96260030D01*
X137277010Y-96292121D01*
X137154131Y-96415000D01*
X136082237Y-96415000D01*
X136000000Y-96398642D01*
X135917763Y-96415000D01*
X135833908Y-96415000D01*
X135756435Y-96447090D01*
X135674199Y-96463448D01*
X135604483Y-96510031D01*
X135527010Y-96542121D01*
X135467714Y-96601417D01*
X135397999Y-96647999D01*
X135351417Y-96717714D01*
X135292121Y-96777010D01*
X135260031Y-96854483D01*
X135213448Y-96924199D01*
X135197090Y-97006435D01*
X135165000Y-97083908D01*
X135165000Y-97167763D01*
X135148642Y-97250000D01*
X127485000Y-97250000D01*
X127485000Y-93733908D01*
X127452910Y-93656435D01*
X127436552Y-93574199D01*
X127389969Y-93504483D01*
X127357879Y-93427010D01*
X127298583Y-93367714D01*
X127252001Y-93297999D01*
X127182286Y-93251417D01*
X127122990Y-93192121D01*
X127045517Y-93160031D01*
X126975801Y-93113448D01*
X126893565Y-93097090D01*
X126816092Y-93065000D01*
X126732237Y-93065000D01*
X126650000Y-93048642D01*
X126567763Y-93065000D01*
X126483908Y-93065000D01*
X126406435Y-93097090D01*
X126324200Y-93113448D01*
X126254485Y-93160030D01*
X126177010Y-93192121D01*
X126117714Y-93251417D01*
X126047999Y-93297999D01*
X126001417Y-93367714D01*
X125942121Y-93427010D01*
X125910031Y-93504483D01*
X125863448Y-93574199D01*
X125847090Y-93656435D01*
X125815000Y-93733908D01*
X125815000Y-94265078D01*
X125815001Y-94265083D01*
X125815000Y-98415000D01*
X122167237Y-98415000D01*
X122085000Y-98398642D01*
X122002763Y-98415000D01*
X120667237Y-98415000D01*
X120585000Y-98398642D01*
X120502763Y-98415000D01*
X120259199Y-98463448D01*
X119982999Y-98647999D01*
X119936415Y-98717717D01*
X117112013Y-101542120D01*
X117112010Y-101542121D01*
X116877121Y-101777010D01*
X116845029Y-101854486D01*
X116798448Y-101924200D01*
X116782091Y-102006434D01*
X116750000Y-102083908D01*
X116750000Y-102167767D01*
X116733643Y-102250000D01*
X67935000Y-102250000D01*
X67935000Y-93500000D01*
X68352560Y-93500000D01*
X68352560Y-95500000D01*
X68401843Y-95747765D01*
X68542191Y-95957809D01*
X68752235Y-96098157D01*
X69000000Y-96147440D01*
X71000000Y-96147440D01*
X71247765Y-96098157D01*
X71457809Y-95957809D01*
X71598157Y-95747765D01*
X71647440Y-95500000D01*
X71647440Y-93500000D01*
X71598157Y-93252235D01*
X71457809Y-93042191D01*
X71247765Y-92901843D01*
X71000000Y-92852560D01*
X69000000Y-92852560D01*
X68752235Y-92901843D01*
X68542191Y-93042191D01*
X68401843Y-93252235D01*
X68352560Y-93500000D01*
X67935000Y-93500000D01*
X67935000Y-88000000D01*
X68352560Y-88000000D01*
X68352560Y-90000000D01*
X68401843Y-90247765D01*
X68542191Y-90457809D01*
X68752235Y-90598157D01*
X69000000Y-90647440D01*
X71000000Y-90647440D01*
X71247765Y-90598157D01*
X71457809Y-90457809D01*
X71598157Y-90247765D01*
X71647440Y-90000000D01*
X71647440Y-88000000D01*
X71598157Y-87752235D01*
X71457809Y-87542191D01*
X71247765Y-87401843D01*
X71000000Y-87352560D01*
X69000000Y-87352560D01*
X68752235Y-87401843D01*
X68542191Y-87542191D01*
X68401843Y-87752235D01*
X68352560Y-88000000D01*
X67935000Y-88000000D01*
X67935000Y-85014311D01*
X69451051Y-85014311D01*
X69451051Y-85386277D01*
X69593396Y-85729929D01*
X69856416Y-85992949D01*
X70200068Y-86135294D01*
X70572034Y-86135294D01*
X70915686Y-85992949D01*
X71163337Y-85745298D01*
X71263911Y-85895818D01*
X71299171Y-85948589D01*
X71392121Y-86172990D01*
X71627010Y-86407879D01*
X71933908Y-86535000D01*
X72266092Y-86535000D01*
X72572990Y-86407879D01*
X72807879Y-86172990D01*
X72848829Y-86074127D01*
X72956875Y-86146321D01*
X75529091Y-88718537D01*
X75570095Y-88779905D01*
X75813217Y-88942354D01*
X76027612Y-88985000D01*
X76027615Y-88985000D01*
X76099999Y-88999398D01*
X76172383Y-88985000D01*
X76295554Y-88985000D01*
X77529090Y-90218537D01*
X77570095Y-90279905D01*
X77813217Y-90442354D01*
X78027612Y-90485000D01*
X78027615Y-90485000D01*
X78099999Y-90499398D01*
X78172383Y-90485000D01*
X78192486Y-90485000D01*
X78433908Y-90585000D01*
X78766092Y-90585000D01*
X79072990Y-90457879D01*
X79307879Y-90222990D01*
X79435000Y-89916092D01*
X79435000Y-89583908D01*
X79307879Y-89277010D01*
X79072990Y-89042121D01*
X78766092Y-88915000D01*
X78433908Y-88915000D01*
X78342365Y-88952918D01*
X77170911Y-87781465D01*
X77129905Y-87720095D01*
X76886783Y-87557646D01*
X76672388Y-87515000D01*
X76672384Y-87515000D01*
X76600000Y-87500602D01*
X76527616Y-87515000D01*
X76404447Y-87515000D01*
X74223355Y-85333908D01*
X78765000Y-85333908D01*
X78765000Y-85666092D01*
X78892121Y-85972990D01*
X79127010Y-86207879D01*
X79368433Y-86307880D01*
X80534355Y-87473802D01*
X80413677Y-87523788D01*
X80178788Y-87758677D01*
X80051667Y-88065575D01*
X80051667Y-88397759D01*
X80115001Y-88550661D01*
X80115000Y-90342486D01*
X80015000Y-90583908D01*
X80015000Y-90916092D01*
X80142121Y-91222990D01*
X80377010Y-91457879D01*
X80683908Y-91585000D01*
X81016092Y-91585000D01*
X81322990Y-91457879D01*
X81557879Y-91222990D01*
X81685000Y-90916092D01*
X81685000Y-90624446D01*
X83542121Y-92481568D01*
X83642121Y-92722990D01*
X83877010Y-92957879D01*
X84115001Y-93056458D01*
X84115001Y-95254091D01*
X84092082Y-95277010D01*
X83964961Y-95583908D01*
X83964961Y-95916092D01*
X84092082Y-96222990D01*
X84326971Y-96457879D01*
X84633869Y-96585000D01*
X84966053Y-96585000D01*
X85099968Y-96529531D01*
X85233882Y-96585000D01*
X85566066Y-96585000D01*
X85699981Y-96529531D01*
X85833895Y-96585000D01*
X86166079Y-96585000D01*
X86299994Y-96529531D01*
X86433908Y-96585000D01*
X86766092Y-96585000D01*
X86924994Y-96519181D01*
X87083895Y-96585000D01*
X87416079Y-96585000D01*
X87549994Y-96529531D01*
X87683908Y-96585000D01*
X88016092Y-96585000D01*
X88225000Y-96498468D01*
X88351430Y-96550837D01*
X88350602Y-96555000D01*
X88365000Y-96627384D01*
X88365000Y-96627387D01*
X88407646Y-96841782D01*
X88570095Y-97084905D01*
X88631465Y-97125911D01*
X91505454Y-99999901D01*
X91605454Y-100241323D01*
X91840343Y-100476212D01*
X92147241Y-100603333D01*
X92479425Y-100603333D01*
X92786323Y-100476212D01*
X92927535Y-100335000D01*
X93016092Y-100335000D01*
X93322990Y-100207879D01*
X93557879Y-99972990D01*
X93578333Y-99923608D01*
X93578334Y-100610817D01*
X93478333Y-100852241D01*
X93478333Y-101184425D01*
X93605454Y-101491323D01*
X93840343Y-101726212D01*
X94147241Y-101853333D01*
X94479425Y-101853333D01*
X94786323Y-101726212D01*
X94927535Y-101585000D01*
X95016092Y-101585000D01*
X95322990Y-101457879D01*
X95557879Y-101222990D01*
X95685000Y-100916092D01*
X95685000Y-100583908D01*
X95585000Y-100342486D01*
X95585000Y-99322384D01*
X95599398Y-99250000D01*
X95585000Y-99177616D01*
X95585000Y-99177612D01*
X95542354Y-98963217D01*
X95379905Y-98720095D01*
X95318538Y-98679091D01*
X92488355Y-95848908D01*
X95015000Y-95848908D01*
X95015000Y-96181092D01*
X95142121Y-96487990D01*
X95377010Y-96722879D01*
X95683908Y-96850000D01*
X96016092Y-96850000D01*
X96322990Y-96722879D01*
X96557879Y-96487990D01*
X96685000Y-96181092D01*
X96685000Y-95848908D01*
X96557879Y-95542010D01*
X96322990Y-95307121D01*
X96016092Y-95180000D01*
X95683908Y-95180000D01*
X95377010Y-95307121D01*
X95142121Y-95542010D01*
X95015000Y-95848908D01*
X92488355Y-95848908D01*
X91874446Y-95235000D01*
X92066092Y-95235000D01*
X92372990Y-95107879D01*
X92607879Y-94872990D01*
X92735000Y-94566092D01*
X92735000Y-94233908D01*
X92965000Y-94233908D01*
X92965000Y-94566092D01*
X93092121Y-94872990D01*
X93327010Y-95107879D01*
X93633908Y-95235000D01*
X93966092Y-95235000D01*
X94272990Y-95107879D01*
X94507879Y-94872990D01*
X94635000Y-94566092D01*
X94635000Y-94233908D01*
X94507879Y-93927010D01*
X94272990Y-93692121D01*
X93966092Y-93565000D01*
X93633908Y-93565000D01*
X93327010Y-93692121D01*
X93092121Y-93927010D01*
X92965000Y-94233908D01*
X92735000Y-94233908D01*
X92607879Y-93927010D01*
X92372990Y-93692121D01*
X92066092Y-93565000D01*
X91835000Y-93565000D01*
X91835000Y-93333908D01*
X103765000Y-93333908D01*
X103765000Y-93666092D01*
X103892121Y-93972990D01*
X104127010Y-94207879D01*
X104433908Y-94335000D01*
X104766092Y-94335000D01*
X104889439Y-94283908D01*
X119015000Y-94283908D01*
X119015000Y-94616092D01*
X119142121Y-94922990D01*
X119377010Y-95157879D01*
X119683908Y-95285000D01*
X120016092Y-95285000D01*
X120322990Y-95157879D01*
X120557879Y-94922990D01*
X120685000Y-94616092D01*
X120685000Y-94283908D01*
X120557879Y-93977010D01*
X120322990Y-93742121D01*
X120016092Y-93615000D01*
X119683908Y-93615000D01*
X119377010Y-93742121D01*
X119142121Y-93977010D01*
X119015000Y-94283908D01*
X104889439Y-94283908D01*
X105007514Y-94235000D01*
X106777616Y-94235000D01*
X106850000Y-94249398D01*
X106922384Y-94235000D01*
X106922388Y-94235000D01*
X107136783Y-94192354D01*
X107348593Y-94050827D01*
X107572990Y-93957879D01*
X107807879Y-93722990D01*
X107935000Y-93416092D01*
X107935000Y-93112464D01*
X109736434Y-93112464D01*
X109736434Y-93444648D01*
X109863555Y-93751546D01*
X110098444Y-93986435D01*
X110405342Y-94113556D01*
X110737526Y-94113556D01*
X111044424Y-93986435D01*
X111045859Y-93985000D01*
X111192486Y-93985000D01*
X111433908Y-94085000D01*
X111766092Y-94085000D01*
X112072990Y-93957879D01*
X112307879Y-93722990D01*
X112435000Y-93416092D01*
X112435000Y-93083908D01*
X112307879Y-92777010D01*
X112072990Y-92542121D01*
X111766092Y-92415000D01*
X111433908Y-92415000D01*
X111192486Y-92515000D01*
X110910007Y-92515000D01*
X110737526Y-92443556D01*
X110405342Y-92443556D01*
X110098444Y-92570677D01*
X109863555Y-92805566D01*
X109736434Y-93112464D01*
X107935000Y-93112464D01*
X107935000Y-93083908D01*
X107807879Y-92777010D01*
X107572990Y-92542121D01*
X107266092Y-92415000D01*
X106933908Y-92415000D01*
X106627010Y-92542121D01*
X106404131Y-92765000D01*
X105007514Y-92765000D01*
X104766092Y-92665000D01*
X104433908Y-92665000D01*
X104127010Y-92792121D01*
X103892121Y-93027010D01*
X103765000Y-93333908D01*
X91835000Y-93333908D01*
X91835000Y-93072383D01*
X91849398Y-92999999D01*
X91835000Y-92927613D01*
X91835000Y-92927612D01*
X91792354Y-92713217D01*
X91629905Y-92470095D01*
X91568538Y-92429091D01*
X91085000Y-91945554D01*
X91085000Y-86064017D01*
X91915000Y-86064017D01*
X91915000Y-86435983D01*
X92057345Y-86779635D01*
X92320365Y-87042655D01*
X92664017Y-87185000D01*
X92865000Y-87185000D01*
X92865000Y-88677616D01*
X92850602Y-88750000D01*
X92865000Y-88822384D01*
X92865000Y-88822387D01*
X92907646Y-89036782D01*
X93070095Y-89279905D01*
X93131465Y-89320911D01*
X95514090Y-91703537D01*
X95555095Y-91764905D01*
X95616465Y-91805911D01*
X96042121Y-92231567D01*
X96142121Y-92472990D01*
X96377010Y-92707879D01*
X96683908Y-92835000D01*
X97016092Y-92835000D01*
X97322990Y-92707879D01*
X97557879Y-92472990D01*
X97685000Y-92166092D01*
X97685000Y-91833908D01*
X97557879Y-91527010D01*
X97322990Y-91292121D01*
X97081567Y-91192121D01*
X96973354Y-91083908D01*
X100765000Y-91083908D01*
X100765000Y-91416092D01*
X100892121Y-91722990D01*
X101127010Y-91957879D01*
X101368433Y-92057879D01*
X101529090Y-92218537D01*
X101570095Y-92279905D01*
X101813217Y-92442354D01*
X102027612Y-92485000D01*
X102027616Y-92485000D01*
X102100000Y-92499398D01*
X102172384Y-92485000D01*
X106027616Y-92485000D01*
X106100000Y-92499398D01*
X106172384Y-92485000D01*
X106172388Y-92485000D01*
X106386783Y-92442354D01*
X106474253Y-92383908D01*
X119115000Y-92383908D01*
X119115000Y-92716092D01*
X119242121Y-93022990D01*
X119477010Y-93257879D01*
X119783908Y-93385000D01*
X120116092Y-93385000D01*
X120422990Y-93257879D01*
X120657879Y-93022990D01*
X120785000Y-92716092D01*
X120785000Y-92383908D01*
X120657879Y-92077010D01*
X120422990Y-91842121D01*
X120116092Y-91715000D01*
X119783908Y-91715000D01*
X119477010Y-91842121D01*
X119242121Y-92077010D01*
X119115000Y-92383908D01*
X106474253Y-92383908D01*
X106629905Y-92279905D01*
X106670911Y-92218535D01*
X107081567Y-91807879D01*
X107322990Y-91707879D01*
X107557879Y-91472990D01*
X107650244Y-91250000D01*
X133698643Y-91250000D01*
X133714986Y-91332163D01*
X133714986Y-91416092D01*
X133747104Y-91493631D01*
X133763448Y-91575800D01*
X133809993Y-91645460D01*
X133842107Y-91722990D01*
X133901445Y-91782328D01*
X133947999Y-91852001D01*
X134017672Y-91898555D01*
X134076996Y-91957879D01*
X134154508Y-91989985D01*
X134224200Y-92036552D01*
X134306407Y-92052904D01*
X134383894Y-92085000D01*
X134467767Y-92085000D01*
X134550000Y-92101357D01*
X134632233Y-92085000D01*
X134716078Y-92085000D01*
X134793540Y-92052914D01*
X134875800Y-92036552D01*
X134945536Y-91989955D01*
X135022976Y-91957879D01*
X135082247Y-91898608D01*
X135082283Y-91898584D01*
X136265001Y-90715867D01*
X136265000Y-91304131D01*
X136042121Y-91527010D01*
X135915000Y-91833908D01*
X135915000Y-92166092D01*
X136042121Y-92472990D01*
X136277010Y-92707879D01*
X136583908Y-92835000D01*
X136916092Y-92835000D01*
X137222990Y-92707879D01*
X137267447Y-92663422D01*
X137292121Y-92722990D01*
X137527010Y-92957879D01*
X137833908Y-93085000D01*
X138166092Y-93085000D01*
X138472990Y-92957879D01*
X138707879Y-92722990D01*
X138835000Y-92416092D01*
X138835000Y-92083908D01*
X138735000Y-91842486D01*
X138735000Y-90907514D01*
X138835000Y-90666092D01*
X138835000Y-90333908D01*
X138707879Y-90027010D01*
X138515280Y-89834411D01*
X138585000Y-89666092D01*
X138585000Y-89333908D01*
X138457879Y-89027010D01*
X138222990Y-88792121D01*
X137916092Y-88665000D01*
X137585000Y-88665000D01*
X137585000Y-87874446D01*
X141515001Y-91804448D01*
X141515001Y-91935268D01*
X141466070Y-91915000D01*
X141382210Y-91915000D01*
X141299977Y-91898643D01*
X141217744Y-91915000D01*
X141133886Y-91915000D01*
X141056412Y-91947091D01*
X140974178Y-91963448D01*
X140904463Y-92010030D01*
X140826988Y-92042121D01*
X140592099Y-92277010D01*
X140592098Y-92277013D01*
X140567698Y-92301413D01*
X140497978Y-92347998D01*
X140329202Y-92600590D01*
X140313427Y-92624199D01*
X140248622Y-92949999D01*
X140265001Y-93032342D01*
X140265000Y-96459131D01*
X140197121Y-96527010D01*
X140165029Y-96604486D01*
X140118448Y-96674200D01*
X140102091Y-96756434D01*
X140070000Y-96833908D01*
X140070000Y-96917767D01*
X140053643Y-97000000D01*
X140070000Y-97082233D01*
X140070000Y-97166092D01*
X140102091Y-97243566D01*
X140118448Y-97325800D01*
X140165030Y-97395515D01*
X140197121Y-97472990D01*
X140256417Y-97532286D01*
X140302999Y-97602001D01*
X140372714Y-97648583D01*
X140432010Y-97707879D01*
X140509485Y-97739970D01*
X140579200Y-97786552D01*
X140661434Y-97802909D01*
X140738908Y-97835000D01*
X140822767Y-97835000D01*
X140905000Y-97851357D01*
X140987233Y-97835000D01*
X141071092Y-97835000D01*
X141148566Y-97802909D01*
X141230800Y-97786552D01*
X141300514Y-97739971D01*
X141377990Y-97707879D01*
X141612879Y-97472990D01*
X141612880Y-97472987D01*
X141632280Y-97453587D01*
X141702001Y-97407001D01*
X141886552Y-97130801D01*
X141935000Y-96887237D01*
X141935000Y-96887236D01*
X141951358Y-96805000D01*
X141935000Y-96722763D01*
X141935000Y-94974446D01*
X144929091Y-97968537D01*
X144970095Y-98029905D01*
X145213217Y-98192354D01*
X145427612Y-98235000D01*
X145427615Y-98235000D01*
X145499999Y-98249398D01*
X145572383Y-98235000D01*
X147162710Y-98235000D01*
X147220365Y-98292655D01*
X147564017Y-98435000D01*
X147935983Y-98435000D01*
X148237760Y-98310000D01*
X148912959Y-98310000D01*
X148992732Y-98325868D01*
X149072505Y-98310000D01*
X149072506Y-98310000D01*
X149308778Y-98263003D01*
X149576709Y-98083977D01*
X149621900Y-98016344D01*
X150020579Y-97617665D01*
X150322357Y-97492665D01*
X150585377Y-97229645D01*
X150727722Y-96885993D01*
X150727722Y-96514027D01*
X150585377Y-96170375D01*
X150322357Y-95907355D01*
X149978705Y-95765010D01*
X149685000Y-95765010D01*
X149685000Y-95564017D01*
X149665040Y-95515829D01*
X149707879Y-95472990D01*
X149835000Y-95166092D01*
X149835000Y-94833908D01*
X149707879Y-94527010D01*
X149472990Y-94292121D01*
X149166092Y-94165000D01*
X148833908Y-94165000D01*
X148527010Y-94292121D01*
X148292121Y-94527010D01*
X148165000Y-94833908D01*
X148165000Y-95012710D01*
X147957345Y-95220365D01*
X147832345Y-95522142D01*
X147735000Y-95619487D01*
X147735000Y-95572384D01*
X147749398Y-95500000D01*
X147735000Y-95427616D01*
X147735000Y-95427612D01*
X147692354Y-95213217D01*
X147529905Y-94970095D01*
X147468538Y-94929091D01*
X140424446Y-87885000D01*
X141092486Y-87885000D01*
X141333908Y-87985000D01*
X141666092Y-87985000D01*
X141972990Y-87857879D01*
X142207879Y-87622990D01*
X142335000Y-87316092D01*
X142335000Y-86983908D01*
X142207879Y-86677010D01*
X142085000Y-86554131D01*
X142085000Y-86283908D01*
X141957879Y-85977010D01*
X141722990Y-85742121D01*
X141416092Y-85615000D01*
X141083908Y-85615000D01*
X140842486Y-85715000D01*
X140154447Y-85715000D01*
X140107879Y-85668433D01*
X140007879Y-85427010D01*
X139772990Y-85192121D01*
X139466092Y-85065000D01*
X139133908Y-85065000D01*
X138827010Y-85192121D01*
X138699056Y-85320075D01*
X138566092Y-85265000D01*
X138233908Y-85265000D01*
X137930232Y-85390786D01*
X137646893Y-85107447D01*
X137605887Y-85046077D01*
X137362765Y-84883628D01*
X137148370Y-84840982D01*
X137148366Y-84840982D01*
X137075982Y-84826584D01*
X137003598Y-84840982D01*
X135907514Y-84840982D01*
X135666092Y-84740982D01*
X135333908Y-84740982D01*
X135027010Y-84868103D01*
X134792121Y-85102992D01*
X134747525Y-85210657D01*
X134550877Y-85292111D01*
X134315988Y-85527000D01*
X134188867Y-85833898D01*
X134188867Y-86166082D01*
X134315988Y-86472980D01*
X134550877Y-86707869D01*
X134769975Y-86798622D01*
X134991140Y-86946400D01*
X135205535Y-86989046D01*
X135205538Y-86989046D01*
X135277922Y-87003444D01*
X135350306Y-86989046D01*
X136032993Y-86989046D01*
X136010030Y-87044485D01*
X135963448Y-87114200D01*
X135947091Y-87196434D01*
X135915000Y-87273908D01*
X135915000Y-87357764D01*
X135915001Y-88704131D01*
X134077023Y-90542110D01*
X134076996Y-90542121D01*
X133842107Y-90777010D01*
X133809992Y-90854541D01*
X133763448Y-90924200D01*
X133747104Y-91006369D01*
X133714986Y-91083908D01*
X133714986Y-91167837D01*
X133698643Y-91250000D01*
X107650244Y-91250000D01*
X107685000Y-91166092D01*
X107685000Y-90833908D01*
X107557879Y-90527010D01*
X107322990Y-90292121D01*
X107016092Y-90165000D01*
X106683908Y-90165000D01*
X106377010Y-90292121D01*
X106142121Y-90527010D01*
X106042121Y-90768433D01*
X105795554Y-91015000D01*
X102406457Y-91015000D01*
X102307879Y-90777010D01*
X102072990Y-90542121D01*
X101766092Y-90415000D01*
X101433908Y-90415000D01*
X101127010Y-90542121D01*
X100892121Y-90777010D01*
X100765000Y-91083908D01*
X96973354Y-91083908D01*
X96820000Y-90930554D01*
X96820000Y-89696099D01*
X96914017Y-89735042D01*
X97285983Y-89735042D01*
X97629635Y-89592697D01*
X97892655Y-89329677D01*
X97994455Y-89083908D01*
X117750000Y-89083908D01*
X117750000Y-89416092D01*
X117877121Y-89722990D01*
X118112010Y-89957879D01*
X118418908Y-90085000D01*
X118751092Y-90085000D01*
X119057990Y-89957879D01*
X119292879Y-89722990D01*
X119420000Y-89416092D01*
X119420000Y-89083908D01*
X119292879Y-88777010D01*
X119057990Y-88542121D01*
X118751092Y-88415000D01*
X118418908Y-88415000D01*
X118112010Y-88542121D01*
X117877121Y-88777010D01*
X117750000Y-89083908D01*
X97994455Y-89083908D01*
X98035000Y-88986025D01*
X98035000Y-88847831D01*
X98042354Y-88836825D01*
X98085000Y-88622430D01*
X98085000Y-88622427D01*
X98099398Y-88550043D01*
X98085000Y-88477659D01*
X98085000Y-81982268D01*
X98142655Y-81924613D01*
X98285000Y-81580961D01*
X98285000Y-81208995D01*
X98142655Y-80865343D01*
X97958379Y-80681067D01*
X100169447Y-78470000D01*
X101062182Y-78470000D01*
X101042121Y-78518432D01*
X99946464Y-79614090D01*
X99885094Y-79655096D01*
X99722645Y-79898219D01*
X99679999Y-80112614D01*
X99679999Y-80112617D01*
X99665601Y-80185001D01*
X99679999Y-80257385D01*
X99679999Y-80537485D01*
X99579999Y-80778907D01*
X99579999Y-81111091D01*
X99707120Y-81417989D01*
X99942009Y-81652878D01*
X100248907Y-81779999D01*
X100581091Y-81779999D01*
X100887989Y-81652878D01*
X101122878Y-81417989D01*
X101249999Y-81111091D01*
X101249999Y-80778907D01*
X101149999Y-80537485D01*
X101149999Y-80489447D01*
X102081568Y-79557879D01*
X102322990Y-79457879D01*
X102557879Y-79222990D01*
X102685000Y-78916092D01*
X102685000Y-78583908D01*
X102637818Y-78470000D01*
X102942486Y-78470000D01*
X103183908Y-78570000D01*
X103516092Y-78570000D01*
X103822990Y-78442879D01*
X104057879Y-78207990D01*
X104185000Y-77901092D01*
X104185000Y-77583908D01*
X104765000Y-77583908D01*
X104765000Y-77916092D01*
X104892121Y-78222990D01*
X105127010Y-78457879D01*
X105368433Y-78557880D01*
X106279090Y-79468537D01*
X106320095Y-79529905D01*
X106563217Y-79692354D01*
X106777612Y-79735000D01*
X106777616Y-79735000D01*
X106850000Y-79749398D01*
X106922384Y-79735000D01*
X106942486Y-79735000D01*
X107183908Y-79835000D01*
X107516092Y-79835000D01*
X107760150Y-79733908D01*
X113780000Y-79733908D01*
X113780000Y-80066092D01*
X113880000Y-80307514D01*
X113880001Y-83142611D01*
X113865602Y-83215000D01*
X113922646Y-83501782D01*
X114031705Y-83665000D01*
X114085096Y-83744905D01*
X114146463Y-83785909D01*
X115070782Y-84710229D01*
X115165000Y-84937692D01*
X115165001Y-86092484D01*
X115065000Y-86333908D01*
X115065000Y-86666092D01*
X115192121Y-86972990D01*
X115427010Y-87207879D01*
X115733908Y-87335000D01*
X116066092Y-87335000D01*
X116372990Y-87207879D01*
X116446961Y-87133908D01*
X122115000Y-87133908D01*
X122115000Y-87466092D01*
X122242121Y-87772990D01*
X122477010Y-88007879D01*
X122783908Y-88135000D01*
X123116092Y-88135000D01*
X123422990Y-88007879D01*
X123657879Y-87772990D01*
X123785000Y-87466092D01*
X123785000Y-87133908D01*
X123657879Y-86827010D01*
X123422990Y-86592121D01*
X123116092Y-86465000D01*
X122783908Y-86465000D01*
X122477010Y-86592121D01*
X122242121Y-86827010D01*
X122115000Y-87133908D01*
X116446961Y-87133908D01*
X116607879Y-86972990D01*
X116735000Y-86666092D01*
X116735000Y-86333908D01*
X116635000Y-86092486D01*
X116635000Y-84877336D01*
X116722500Y-84666092D01*
X116722500Y-84333908D01*
X116595379Y-84027010D01*
X116360490Y-83792121D01*
X116140406Y-83700960D01*
X115350000Y-82910554D01*
X115350000Y-82250000D01*
X142648643Y-82250000D01*
X142665001Y-82332237D01*
X142665000Y-83333908D01*
X142665000Y-83666092D01*
X142697091Y-83743566D01*
X142713448Y-83825800D01*
X142760030Y-83895515D01*
X142792121Y-83972990D01*
X142851417Y-84032286D01*
X142897999Y-84102001D01*
X142967714Y-84148583D01*
X143027010Y-84207879D01*
X143104483Y-84239969D01*
X143174199Y-84286552D01*
X143256435Y-84302910D01*
X143333908Y-84335000D01*
X143417763Y-84335000D01*
X143500000Y-84351358D01*
X143582237Y-84335000D01*
X143666092Y-84335000D01*
X143743565Y-84302910D01*
X143825800Y-84286552D01*
X143895515Y-84239970D01*
X143972990Y-84207879D01*
X144032286Y-84148583D01*
X144102001Y-84102001D01*
X144148583Y-84032286D01*
X144207879Y-83972990D01*
X144239969Y-83895517D01*
X144286552Y-83825801D01*
X144302910Y-83743565D01*
X144335000Y-83666092D01*
X144335000Y-82595867D01*
X146095868Y-80835000D01*
X151416092Y-80835000D01*
X151493565Y-80802910D01*
X151575801Y-80786552D01*
X151645517Y-80739969D01*
X151722990Y-80707879D01*
X151782286Y-80648583D01*
X151852001Y-80602001D01*
X151898583Y-80532286D01*
X151957879Y-80472990D01*
X151989969Y-80395517D01*
X152036552Y-80325801D01*
X152052910Y-80243565D01*
X152085000Y-80166092D01*
X152085000Y-80082237D01*
X152101358Y-80000000D01*
X152085000Y-79917763D01*
X152085000Y-79833908D01*
X152052910Y-79756435D01*
X152036552Y-79674199D01*
X151989969Y-79604483D01*
X151957879Y-79527010D01*
X151898583Y-79467714D01*
X151852001Y-79397999D01*
X151782285Y-79351416D01*
X151722990Y-79292121D01*
X151645517Y-79260031D01*
X151575801Y-79213448D01*
X151493565Y-79197090D01*
X151416092Y-79165000D01*
X145832237Y-79165000D01*
X145750000Y-79148642D01*
X145667763Y-79165000D01*
X145424199Y-79213448D01*
X145147999Y-79397999D01*
X145101415Y-79467717D01*
X142967718Y-81601415D01*
X142898000Y-81647999D01*
X142851416Y-81717717D01*
X142713448Y-81924200D01*
X142648643Y-82250000D01*
X115350000Y-82250000D01*
X115350000Y-80307514D01*
X115450000Y-80066092D01*
X115450000Y-79733908D01*
X115322879Y-79427010D01*
X115087990Y-79192121D01*
X114781092Y-79065000D01*
X114448908Y-79065000D01*
X114142010Y-79192121D01*
X113907121Y-79427010D01*
X113780000Y-79733908D01*
X107760150Y-79733908D01*
X107822990Y-79707879D01*
X108057879Y-79472990D01*
X108185000Y-79166092D01*
X108185000Y-78833908D01*
X108057879Y-78527010D01*
X107822990Y-78292121D01*
X107516092Y-78165000D01*
X107183908Y-78165000D01*
X107092365Y-78202918D01*
X106407880Y-77518433D01*
X106307879Y-77277010D01*
X106072990Y-77042121D01*
X105766092Y-76915000D01*
X105433908Y-76915000D01*
X105127010Y-77042121D01*
X104892121Y-77277010D01*
X104765000Y-77583908D01*
X104185000Y-77583908D01*
X104185000Y-77568908D01*
X104057879Y-77262010D01*
X103822990Y-77027121D01*
X103516092Y-76900000D01*
X103183908Y-76900000D01*
X102942486Y-77000000D01*
X99937383Y-77000000D01*
X99864999Y-76985602D01*
X99792615Y-77000000D01*
X99792612Y-77000000D01*
X99578217Y-77042646D01*
X99335095Y-77205095D01*
X99294091Y-77266462D01*
X95616463Y-80944091D01*
X95555096Y-80985095D01*
X95514092Y-81046462D01*
X95514091Y-81046463D01*
X95392646Y-81228218D01*
X95335602Y-81515000D01*
X95350001Y-81587389D01*
X95350000Y-85092486D01*
X95250000Y-85333908D01*
X95250000Y-85666092D01*
X95350001Y-85907516D01*
X95350000Y-89460554D01*
X94335000Y-88445554D01*
X94335000Y-83322383D01*
X94349398Y-83249999D01*
X94335000Y-83177615D01*
X94335000Y-83177612D01*
X94292354Y-82963217D01*
X94129905Y-82720095D01*
X94068537Y-82679090D01*
X93657879Y-82268433D01*
X93557879Y-82027010D01*
X93322990Y-81792121D01*
X93016092Y-81665000D01*
X92683908Y-81665000D01*
X92377010Y-81792121D01*
X92142121Y-82027010D01*
X92015000Y-82333908D01*
X92015000Y-82666092D01*
X92111512Y-82899092D01*
X91970714Y-83239008D01*
X91970714Y-83610974D01*
X92113059Y-83954626D01*
X92115001Y-83956568D01*
X92115000Y-85662710D01*
X92057345Y-85720365D01*
X91915000Y-86064017D01*
X91085000Y-86064017D01*
X91085000Y-82572383D01*
X91099398Y-82499999D01*
X91085000Y-82427613D01*
X91085000Y-82427612D01*
X91042354Y-82213217D01*
X90879905Y-81970095D01*
X90818538Y-81929091D01*
X90407879Y-81518433D01*
X90307879Y-81277010D01*
X90072990Y-81042121D01*
X89766092Y-80915000D01*
X89433908Y-80915000D01*
X89127010Y-81042121D01*
X89029289Y-81139842D01*
X88657880Y-80768433D01*
X88557879Y-80527010D01*
X88322990Y-80292121D01*
X88016092Y-80165000D01*
X87683908Y-80165000D01*
X87377010Y-80292121D01*
X87142121Y-80527010D01*
X87015000Y-80833908D01*
X87015000Y-81166092D01*
X87026733Y-81194419D01*
X87016092Y-81190011D01*
X86683908Y-81190011D01*
X86377010Y-81317132D01*
X86142121Y-81552021D01*
X86015000Y-81858919D01*
X86015000Y-82191103D01*
X86142121Y-82498001D01*
X86377010Y-82732890D01*
X86618434Y-82832891D01*
X88365001Y-84579459D01*
X88365001Y-86020555D01*
X85112879Y-82768434D01*
X85012878Y-82527010D01*
X84777989Y-82292121D01*
X84471091Y-82165000D01*
X84138907Y-82165000D01*
X83832009Y-82292121D01*
X83597120Y-82527010D01*
X83469999Y-82833908D01*
X83469999Y-83166092D01*
X83479676Y-83189455D01*
X83392121Y-83277010D01*
X83265000Y-83583908D01*
X83265000Y-83916092D01*
X83392121Y-84222990D01*
X83419131Y-84250000D01*
X83392121Y-84277010D01*
X83314472Y-84464472D01*
X83179339Y-84520446D01*
X83174883Y-84518600D01*
X82842699Y-84518600D01*
X82711128Y-84573099D01*
X82574875Y-84516661D01*
X82242691Y-84516661D01*
X82104691Y-84573822D01*
X82072990Y-84542121D01*
X81766092Y-84415000D01*
X81433908Y-84415000D01*
X81127010Y-84542121D01*
X80934411Y-84734720D01*
X80766092Y-84665000D01*
X80433908Y-84665000D01*
X80127010Y-84792121D01*
X80100000Y-84819131D01*
X80072990Y-84792121D01*
X79766092Y-84665000D01*
X79433908Y-84665000D01*
X79127010Y-84792121D01*
X78892121Y-85027010D01*
X78765000Y-85333908D01*
X74223355Y-85333908D01*
X74070000Y-85180554D01*
X74070000Y-84807514D01*
X74170000Y-84566092D01*
X74170000Y-84233908D01*
X74163919Y-84219226D01*
X74199073Y-84195737D01*
X74361522Y-83952615D01*
X74404168Y-83738220D01*
X74404168Y-83738216D01*
X74418566Y-83665832D01*
X74404168Y-83593448D01*
X74404168Y-82873614D01*
X74568535Y-82709247D01*
X74629905Y-82668241D01*
X74792354Y-82425119D01*
X74835000Y-82210724D01*
X74835000Y-82210721D01*
X74849398Y-82138337D01*
X74835000Y-82065953D01*
X74835000Y-79445869D01*
X75028940Y-79251929D01*
X75156061Y-78945031D01*
X75156061Y-78612847D01*
X75028940Y-78305949D01*
X74794051Y-78071060D01*
X74487153Y-77943939D01*
X74154969Y-77943939D01*
X73848071Y-78071060D01*
X73613182Y-78305949D01*
X73504571Y-78568160D01*
X73407646Y-78713218D01*
X73350602Y-79000000D01*
X73365001Y-79072389D01*
X73365001Y-79215000D01*
X73183908Y-79215000D01*
X72877010Y-79342121D01*
X72704131Y-79515000D01*
X71585000Y-79515000D01*
X71585000Y-79281834D01*
X71593854Y-79272980D01*
X71720975Y-78966082D01*
X71720975Y-78633898D01*
X71593854Y-78327000D01*
X71358965Y-78092111D01*
X71052067Y-77964990D01*
X70719883Y-77964990D01*
X70412985Y-78092111D01*
X70178096Y-78327000D01*
X70050975Y-78633898D01*
X70050975Y-78966082D01*
X70115001Y-79120654D01*
X70115000Y-79592485D01*
X70015000Y-79833908D01*
X70015000Y-80166092D01*
X70091941Y-80351844D01*
X70070344Y-80360790D01*
X69807324Y-80623810D01*
X69664979Y-80967462D01*
X69664979Y-81339428D01*
X69807324Y-81683080D01*
X69864979Y-81740735D01*
X69864980Y-84404092D01*
X69856416Y-84407639D01*
X69593396Y-84670659D01*
X69451051Y-85014311D01*
X67935000Y-85014311D01*
X67935000Y-72833908D01*
X74665000Y-72833908D01*
X74665000Y-73166092D01*
X74765000Y-73407514D01*
X74765001Y-75592484D01*
X74665000Y-75833908D01*
X74665000Y-76166092D01*
X74792121Y-76472990D01*
X75027010Y-76707879D01*
X75333908Y-76835000D01*
X75666092Y-76835000D01*
X75871300Y-76750000D01*
X109298642Y-76750000D01*
X109315000Y-76832237D01*
X109315000Y-76916092D01*
X109347090Y-76993565D01*
X109363448Y-77075801D01*
X109410031Y-77145517D01*
X109442121Y-77222990D01*
X109501417Y-77282286D01*
X109547999Y-77352001D01*
X109617714Y-77398583D01*
X109677010Y-77457879D01*
X109754483Y-77489969D01*
X109824199Y-77536552D01*
X109906435Y-77552910D01*
X109983908Y-77585000D01*
X110350609Y-77585000D01*
X110432842Y-77601357D01*
X110515075Y-77585000D01*
X110515079Y-77585000D01*
X110758643Y-77536552D01*
X111034843Y-77352001D01*
X111081429Y-77282281D01*
X111478710Y-76885000D01*
X117426680Y-76885000D01*
X117365000Y-77033908D01*
X117365000Y-77366092D01*
X117490001Y-77667871D01*
X117490000Y-78932130D01*
X117365000Y-79233908D01*
X117365000Y-79566092D01*
X117492121Y-79872990D01*
X117727010Y-80107879D01*
X118033908Y-80235000D01*
X118154131Y-80235000D01*
X118327010Y-80407879D01*
X118633908Y-80535000D01*
X118966092Y-80535000D01*
X119272990Y-80407879D01*
X119507879Y-80172990D01*
X119635000Y-79866092D01*
X119635000Y-79533908D01*
X119510000Y-79232131D01*
X119510000Y-78367869D01*
X119635000Y-78066092D01*
X119635000Y-77733908D01*
X119507879Y-77427010D01*
X119272990Y-77192121D01*
X119035000Y-77093543D01*
X119035000Y-77033908D01*
X118973320Y-76885000D01*
X130409131Y-76885000D01*
X130527010Y-77002879D01*
X130604485Y-77034970D01*
X130674200Y-77081552D01*
X130756434Y-77097909D01*
X130833908Y-77130000D01*
X130917766Y-77130000D01*
X130999999Y-77146357D01*
X131082232Y-77130000D01*
X131166092Y-77130000D01*
X131243567Y-77097909D01*
X131325799Y-77081552D01*
X131395511Y-77034972D01*
X131472990Y-77002879D01*
X131532291Y-76943578D01*
X131602000Y-76897000D01*
X131648578Y-76827291D01*
X131707879Y-76767990D01*
X131739972Y-76690511D01*
X131786552Y-76620799D01*
X131802909Y-76538567D01*
X131835000Y-76461092D01*
X131835000Y-76377232D01*
X131851357Y-76294999D01*
X131835000Y-76212766D01*
X131835000Y-76128908D01*
X131802909Y-76051434D01*
X131786552Y-75969200D01*
X131739970Y-75899485D01*
X131707879Y-75822010D01*
X131472990Y-75587121D01*
X131472987Y-75587120D01*
X131403587Y-75517719D01*
X131357001Y-75447999D01*
X131080801Y-75263448D01*
X130837237Y-75215000D01*
X130837233Y-75215000D01*
X130755000Y-75198643D01*
X130672767Y-75215000D01*
X111215074Y-75215000D01*
X111132841Y-75198643D01*
X111050608Y-75215000D01*
X111050605Y-75215000D01*
X110807041Y-75263448D01*
X110530841Y-75447999D01*
X110484258Y-75517715D01*
X110086974Y-75915000D01*
X109983908Y-75915000D01*
X109906435Y-75947090D01*
X109824199Y-75963448D01*
X109754483Y-76010031D01*
X109677010Y-76042121D01*
X109617714Y-76101417D01*
X109547999Y-76147999D01*
X109501417Y-76217714D01*
X109442121Y-76277010D01*
X109410031Y-76354483D01*
X109363448Y-76424199D01*
X109347090Y-76506435D01*
X109315000Y-76583908D01*
X109315000Y-76667763D01*
X109298642Y-76750000D01*
X75871300Y-76750000D01*
X75972990Y-76707879D01*
X76207879Y-76472990D01*
X76335000Y-76166092D01*
X76335000Y-75833908D01*
X76235000Y-75592486D01*
X76235000Y-73665832D01*
X99214475Y-73665832D01*
X99230832Y-73748065D01*
X99230832Y-73748068D01*
X99279280Y-73991632D01*
X99463831Y-74267833D01*
X99533552Y-74314419D01*
X101401417Y-76182285D01*
X101447999Y-76252001D01*
X101517714Y-76298583D01*
X101517715Y-76298584D01*
X101617114Y-76365000D01*
X101724199Y-76436552D01*
X101967763Y-76485000D01*
X101967766Y-76485000D01*
X102049999Y-76501357D01*
X102132232Y-76485000D01*
X105566092Y-76485000D01*
X105643565Y-76452910D01*
X105725801Y-76436552D01*
X105795517Y-76389969D01*
X105872990Y-76357879D01*
X105932286Y-76298583D01*
X106002001Y-76252001D01*
X106048583Y-76182286D01*
X106107879Y-76122990D01*
X106139969Y-76045517D01*
X106186552Y-75975801D01*
X106202910Y-75893565D01*
X106235000Y-75816092D01*
X106235000Y-75732237D01*
X106251358Y-75650000D01*
X106235000Y-75567763D01*
X106235000Y-75483908D01*
X106202910Y-75406435D01*
X106186552Y-75324199D01*
X106139969Y-75254483D01*
X106107879Y-75177010D01*
X106048583Y-75117714D01*
X106002001Y-75047999D01*
X105932286Y-75001417D01*
X105872990Y-74942121D01*
X105795517Y-74910031D01*
X105725801Y-74863448D01*
X105643565Y-74847090D01*
X105566092Y-74815000D01*
X102395869Y-74815000D01*
X100900832Y-73319965D01*
X100900832Y-72299740D01*
X100868742Y-72222267D01*
X100852384Y-72140031D01*
X100805801Y-72070315D01*
X100773711Y-71992842D01*
X100714415Y-71933546D01*
X100667833Y-71863831D01*
X100598118Y-71817249D01*
X100538822Y-71757953D01*
X100461349Y-71725863D01*
X100391633Y-71679280D01*
X100309397Y-71662922D01*
X100231924Y-71630832D01*
X100148069Y-71630832D01*
X100065832Y-71614474D01*
X99983595Y-71630832D01*
X99899740Y-71630832D01*
X99822267Y-71662922D01*
X99740032Y-71679280D01*
X99670318Y-71725862D01*
X99592842Y-71757953D01*
X99533544Y-71817251D01*
X99463832Y-71863831D01*
X99417252Y-71933543D01*
X99357953Y-71992842D01*
X99325861Y-72070319D01*
X99279281Y-72140031D01*
X99262924Y-72222263D01*
X99230832Y-72299740D01*
X99230832Y-72631924D01*
X99230833Y-72631926D01*
X99230832Y-73583598D01*
X99214475Y-73665832D01*
X76235000Y-73665832D01*
X76235000Y-73407514D01*
X76335000Y-73166092D01*
X76335000Y-72833908D01*
X76207879Y-72527010D01*
X75972990Y-72292121D01*
X75666092Y-72165000D01*
X75333908Y-72165000D01*
X75027010Y-72292121D01*
X74792121Y-72527010D01*
X74665000Y-72833908D01*
X67935000Y-72833908D01*
X67935000Y-70348908D01*
X104265000Y-70348908D01*
X104265000Y-70681092D01*
X104365000Y-70922514D01*
X104365001Y-72842484D01*
X104265000Y-73083908D01*
X104265000Y-73416092D01*
X104392121Y-73722990D01*
X104627010Y-73957879D01*
X104933908Y-74085000D01*
X105266092Y-74085000D01*
X105572990Y-73957879D01*
X105807879Y-73722990D01*
X105935000Y-73416092D01*
X105935000Y-73083908D01*
X105835000Y-72842486D01*
X105835000Y-70922514D01*
X105906457Y-70750000D01*
X119352560Y-70750000D01*
X119352560Y-72250000D01*
X119401843Y-72497765D01*
X119542191Y-72707809D01*
X119752235Y-72848157D01*
X120000000Y-72897440D01*
X120800000Y-72897440D01*
X121047765Y-72848157D01*
X121257809Y-72707809D01*
X121398157Y-72497765D01*
X121447440Y-72250000D01*
X121447440Y-71254343D01*
X124165000Y-71254343D01*
X124165000Y-71745657D01*
X124353018Y-72199571D01*
X124700429Y-72546982D01*
X125154343Y-72735000D01*
X125645657Y-72735000D01*
X126099571Y-72546982D01*
X126446982Y-72199571D01*
X126635000Y-71745657D01*
X126635000Y-71254343D01*
X126446982Y-70800429D01*
X126396553Y-70750000D01*
X126852560Y-70750000D01*
X126852560Y-72250000D01*
X126901843Y-72497765D01*
X127042191Y-72707809D01*
X127252235Y-72848157D01*
X127500000Y-72897440D01*
X128300000Y-72897440D01*
X128547765Y-72848157D01*
X128757809Y-72707809D01*
X128898157Y-72497765D01*
X128947440Y-72250000D01*
X128947440Y-70750000D01*
X129352560Y-70750000D01*
X129352560Y-72250000D01*
X129401843Y-72497765D01*
X129542191Y-72707809D01*
X129752235Y-72848157D01*
X130000000Y-72897440D01*
X130800000Y-72897440D01*
X131047765Y-72848157D01*
X131257809Y-72707809D01*
X131398157Y-72497765D01*
X131447440Y-72250000D01*
X131447440Y-70750000D01*
X131398157Y-70502235D01*
X131257809Y-70292191D01*
X131047765Y-70151843D01*
X130800000Y-70102560D01*
X130000000Y-70102560D01*
X129752235Y-70151843D01*
X129542191Y-70292191D01*
X129401843Y-70502235D01*
X129352560Y-70750000D01*
X128947440Y-70750000D01*
X128898157Y-70502235D01*
X128757809Y-70292191D01*
X128547765Y-70151843D01*
X128300000Y-70102560D01*
X127500000Y-70102560D01*
X127252235Y-70151843D01*
X127042191Y-70292191D01*
X126901843Y-70502235D01*
X126852560Y-70750000D01*
X126396553Y-70750000D01*
X126099571Y-70453018D01*
X125645657Y-70265000D01*
X125154343Y-70265000D01*
X124700429Y-70453018D01*
X124353018Y-70800429D01*
X124165000Y-71254343D01*
X121447440Y-71254343D01*
X121447440Y-70750000D01*
X121398157Y-70502235D01*
X121257809Y-70292191D01*
X121047765Y-70151843D01*
X120800000Y-70102560D01*
X120000000Y-70102560D01*
X119752235Y-70151843D01*
X119542191Y-70292191D01*
X119401843Y-70502235D01*
X119352560Y-70750000D01*
X105906457Y-70750000D01*
X105935000Y-70681092D01*
X105935000Y-70348908D01*
X105807879Y-70042010D01*
X105572990Y-69807121D01*
X105266092Y-69680000D01*
X104933908Y-69680000D01*
X104627010Y-69807121D01*
X104392121Y-70042010D01*
X104265000Y-70348908D01*
X67935000Y-70348908D01*
X67935000Y-65543100D01*
X67997296Y-65049980D01*
X68164274Y-64628241D01*
X68430891Y-64261273D01*
X68780391Y-63972142D01*
X69190816Y-63779011D01*
X69668427Y-63687902D01*
X69760759Y-63685000D01*
X96902612Y-63685000D01*
X96742191Y-63792191D01*
X96742191Y-63792191D01*
G37*
X96742191Y-63792191D02*
X96601843Y-64002235D01*
X96552560Y-64250000D01*
X96552560Y-66250000D01*
X96601843Y-66497765D01*
X96742191Y-66707809D01*
X96952235Y-66848157D01*
X97200000Y-66897440D01*
X99200000Y-66897440D01*
X99447765Y-66848157D01*
X99657809Y-66707809D01*
X99798157Y-66497765D01*
X99847440Y-66250000D01*
X99847440Y-64250000D01*
X99798157Y-64002235D01*
X99657809Y-63792191D01*
X99497388Y-63685000D01*
X106652612Y-63685000D01*
X106492191Y-63792191D01*
X106351843Y-64002235D01*
X106302560Y-64250000D01*
X106302560Y-66250000D01*
X106351843Y-66497765D01*
X106492191Y-66707809D01*
X106702235Y-66848157D01*
X106950000Y-66897440D01*
X108950000Y-66897440D01*
X109197765Y-66848157D01*
X109407809Y-66707809D01*
X109548157Y-66497765D01*
X109596576Y-66254343D01*
X119165000Y-66254343D01*
X119165000Y-66745657D01*
X119353018Y-67199571D01*
X119700429Y-67546982D01*
X120154343Y-67735000D01*
X120645657Y-67735000D01*
X121099571Y-67546982D01*
X121446982Y-67199571D01*
X121635000Y-66745657D01*
X121635000Y-66254343D01*
X129165000Y-66254343D01*
X129165000Y-66745657D01*
X129353018Y-67199571D01*
X129700429Y-67546982D01*
X130154343Y-67735000D01*
X130645657Y-67735000D01*
X131099571Y-67546982D01*
X131446982Y-67199571D01*
X131635000Y-66745657D01*
X131635000Y-66254343D01*
X131446982Y-65800429D01*
X131099571Y-65453018D01*
X130645657Y-65265000D01*
X130154343Y-65265000D01*
X129700429Y-65453018D01*
X129353018Y-65800429D01*
X129165000Y-66254343D01*
X121635000Y-66254343D01*
X121446982Y-65800429D01*
X121099571Y-65453018D01*
X120645657Y-65265000D01*
X120154343Y-65265000D01*
X119700429Y-65453018D01*
X119353018Y-65800429D01*
X119165000Y-66254343D01*
X109596576Y-66254343D01*
X109597440Y-66250000D01*
X109597440Y-64250000D01*
X109548157Y-64002235D01*
X109407809Y-63792191D01*
X109247388Y-63685000D01*
X119193723Y-63685000D01*
X119165000Y-63754343D01*
X119165000Y-64245657D01*
X119353018Y-64699571D01*
X119700429Y-65046982D01*
X120154343Y-65235000D01*
X120645657Y-65235000D01*
X121099571Y-65046982D01*
X121446982Y-64699571D01*
X121635000Y-64245657D01*
X121635000Y-63754343D01*
X121606277Y-63685000D01*
X122566590Y-63685000D01*
X122706143Y-63893857D01*
X122932727Y-64045255D01*
X123071346Y-64072828D01*
X123200000Y-64098419D01*
X123267461Y-64085000D01*
X127532538Y-64085000D01*
X127600000Y-64098419D01*
X127667461Y-64085000D01*
X127667462Y-64085000D01*
X127867273Y-64045255D01*
X128093857Y-63893857D01*
X128233410Y-63685000D01*
X129193723Y-63685000D01*
X129165000Y-63754343D01*
X129165000Y-64245657D01*
X129353018Y-64699571D01*
X129700429Y-65046982D01*
X130154343Y-65235000D01*
X130645657Y-65235000D01*
X131099571Y-65046982D01*
X131446982Y-64699571D01*
X131635000Y-64245657D01*
X131635000Y-63754343D01*
X131606277Y-63685000D01*
X155456900Y-63685000D01*
X155950020Y-63747296D01*
X156371759Y-63914274D01*
X156738727Y-64180891D01*
X157027858Y-64530391D01*
X157220989Y-64940816D01*
X157312098Y-65418427D01*
X157315001Y-65510791D01*
X157315000Y-110456900D01*
X157252705Y-110950019D01*
X157085726Y-111371761D01*
X156819109Y-111738727D01*
X156469610Y-112027857D01*
X156059184Y-112220989D01*
X155581573Y-112312098D01*
X155489240Y-112315000D01*
X120746256Y-112315000D01*
X121179418Y-112228839D01*
X121670625Y-111900625D01*
X121998839Y-111409418D01*
X122114092Y-110830000D01*
X122088234Y-110700000D01*
X126345908Y-110700000D01*
X126461161Y-111279418D01*
X126789375Y-111770625D01*
X127280582Y-112098839D01*
X127713744Y-112185000D01*
X128006256Y-112185000D01*
X128439418Y-112098839D01*
X128930625Y-111770625D01*
X129258839Y-111279418D01*
X129374092Y-110700000D01*
X133995908Y-110700000D01*
X134111161Y-111279418D01*
X134439375Y-111770625D01*
X134930582Y-112098839D01*
X135363744Y-112185000D01*
X135656256Y-112185000D01*
X136089418Y-112098839D01*
X136580625Y-111770625D01*
X136908839Y-111279418D01*
X137024092Y-110700000D01*
X141645908Y-110700000D01*
X141761161Y-111279418D01*
X142089375Y-111770625D01*
X142580582Y-112098839D01*
X143013744Y-112185000D01*
X143306256Y-112185000D01*
X143739418Y-112098839D01*
X144230625Y-111770625D01*
X144558839Y-111279418D01*
X144674092Y-110700000D01*
X144558839Y-110120582D01*
X144230625Y-109629375D01*
X143739418Y-109301161D01*
X143306256Y-109215000D01*
X143013744Y-109215000D01*
X142580582Y-109301161D01*
X142089375Y-109629375D01*
X141761161Y-110120582D01*
X141645908Y-110700000D01*
X137024092Y-110700000D01*
X136908839Y-110120582D01*
X136580625Y-109629375D01*
X136089418Y-109301161D01*
X135656256Y-109215000D01*
X135363744Y-109215000D01*
X134930582Y-109301161D01*
X134439375Y-109629375D01*
X134111161Y-110120582D01*
X133995908Y-110700000D01*
X129374092Y-110700000D01*
X129258839Y-110120582D01*
X128930625Y-109629375D01*
X128439418Y-109301161D01*
X128006256Y-109215000D01*
X127713744Y-109215000D01*
X127280582Y-109301161D01*
X126789375Y-109629375D01*
X126461161Y-110120582D01*
X126345908Y-110700000D01*
X122088234Y-110700000D01*
X121998839Y-110250582D01*
X121670625Y-109759375D01*
X121179418Y-109431161D01*
X120746256Y-109345000D01*
X120453744Y-109345000D01*
X120020582Y-109431161D01*
X119529375Y-109759375D01*
X119201161Y-110250582D01*
X119085908Y-110830000D01*
X119201161Y-111409418D01*
X119529375Y-111900625D01*
X120020582Y-112228839D01*
X120453744Y-112315000D01*
X69793100Y-112315000D01*
X69299981Y-112252705D01*
X68878239Y-112085726D01*
X68511273Y-111819109D01*
X68222143Y-111469610D01*
X68029011Y-111059184D01*
X67970032Y-110750000D01*
X78875908Y-110750000D01*
X78991161Y-111329418D01*
X79319375Y-111820625D01*
X79810582Y-112148839D01*
X80243744Y-112235000D01*
X80536256Y-112235000D01*
X80969418Y-112148839D01*
X81460625Y-111820625D01*
X81660000Y-111522239D01*
X81859375Y-111820625D01*
X82350582Y-112148839D01*
X82783744Y-112235000D01*
X83076256Y-112235000D01*
X83509418Y-112148839D01*
X84000625Y-111820625D01*
X84200000Y-111522239D01*
X84399375Y-111820625D01*
X84890582Y-112148839D01*
X85323744Y-112235000D01*
X85616256Y-112235000D01*
X86049418Y-112148839D01*
X86540625Y-111820625D01*
X86740000Y-111522239D01*
X86939375Y-111820625D01*
X87430582Y-112148839D01*
X87863744Y-112235000D01*
X88156256Y-112235000D01*
X88589418Y-112148839D01*
X89080625Y-111820625D01*
X89280000Y-111522239D01*
X89479375Y-111820625D01*
X89970582Y-112148839D01*
X90403744Y-112235000D01*
X90696256Y-112235000D01*
X91129418Y-112148839D01*
X91620625Y-111820625D01*
X91820000Y-111522239D01*
X92019375Y-111820625D01*
X92510582Y-112148839D01*
X92943744Y-112235000D01*
X93236256Y-112235000D01*
X93669418Y-112148839D01*
X94160625Y-111820625D01*
X94360000Y-111522239D01*
X94559375Y-111820625D01*
X95050582Y-112148839D01*
X95483744Y-112235000D01*
X95776256Y-112235000D01*
X96209418Y-112148839D01*
X96700625Y-111820625D01*
X96900000Y-111522239D01*
X97099375Y-111820625D01*
X97590582Y-112148839D01*
X98023744Y-112235000D01*
X98316256Y-112235000D01*
X98749418Y-112148839D01*
X99240625Y-111820625D01*
X99440000Y-111522239D01*
X99639375Y-111820625D01*
X100130582Y-112148839D01*
X100563744Y-112235000D01*
X100856256Y-112235000D01*
X101289418Y-112148839D01*
X101780625Y-111820625D01*
X101980000Y-111522239D01*
X102179375Y-111820625D01*
X102670582Y-112148839D01*
X103103744Y-112235000D01*
X103396256Y-112235000D01*
X103829418Y-112148839D01*
X104320625Y-111820625D01*
X104520000Y-111522239D01*
X104719375Y-111820625D01*
X105210582Y-112148839D01*
X105643744Y-112235000D01*
X105936256Y-112235000D01*
X106369418Y-112148839D01*
X106860625Y-111820625D01*
X107060000Y-111522239D01*
X107259375Y-111820625D01*
X107750582Y-112148839D01*
X108183744Y-112235000D01*
X108476256Y-112235000D01*
X108909418Y-112148839D01*
X109400625Y-111820625D01*
X109600000Y-111522239D01*
X109799375Y-111820625D01*
X110290582Y-112148839D01*
X110723744Y-112235000D01*
X111016256Y-112235000D01*
X111449418Y-112148839D01*
X111940625Y-111820625D01*
X112140000Y-111522239D01*
X112339375Y-111820625D01*
X112830582Y-112148839D01*
X113263744Y-112235000D01*
X113556256Y-112235000D01*
X113989418Y-112148839D01*
X114480625Y-111820625D01*
X114808839Y-111329418D01*
X114924092Y-110750000D01*
X114808839Y-110170582D01*
X114480625Y-109679375D01*
X113989418Y-109351161D01*
X113556256Y-109265000D01*
X113263744Y-109265000D01*
X112830582Y-109351161D01*
X112339375Y-109679375D01*
X112140000Y-109977761D01*
X111940625Y-109679375D01*
X111449418Y-109351161D01*
X111016256Y-109265000D01*
X110723744Y-109265000D01*
X110290582Y-109351161D01*
X109799375Y-109679375D01*
X109600000Y-109977761D01*
X109400625Y-109679375D01*
X108909418Y-109351161D01*
X108476256Y-109265000D01*
X108183744Y-109265000D01*
X107750582Y-109351161D01*
X107259375Y-109679375D01*
X107060000Y-109977761D01*
X106860625Y-109679375D01*
X106369418Y-109351161D01*
X105936256Y-109265000D01*
X105643744Y-109265000D01*
X105210582Y-109351161D01*
X104719375Y-109679375D01*
X104520000Y-109977761D01*
X104320625Y-109679375D01*
X103829418Y-109351161D01*
X103396256Y-109265000D01*
X103103744Y-109265000D01*
X102670582Y-109351161D01*
X102179375Y-109679375D01*
X101980000Y-109977761D01*
X101780625Y-109679375D01*
X101289418Y-109351161D01*
X100856256Y-109265000D01*
X100563744Y-109265000D01*
X100130582Y-109351161D01*
X99639375Y-109679375D01*
X99440000Y-109977761D01*
X99240625Y-109679375D01*
X98749418Y-109351161D01*
X98316256Y-109265000D01*
X98023744Y-109265000D01*
X97590582Y-109351161D01*
X97099375Y-109679375D01*
X96900000Y-109977761D01*
X96700625Y-109679375D01*
X96209418Y-109351161D01*
X95776256Y-109265000D01*
X95483744Y-109265000D01*
X95050582Y-109351161D01*
X94559375Y-109679375D01*
X94360000Y-109977761D01*
X94160625Y-109679375D01*
X93669418Y-109351161D01*
X93236256Y-109265000D01*
X92943744Y-109265000D01*
X92510582Y-109351161D01*
X92019375Y-109679375D01*
X91820000Y-109977761D01*
X91620625Y-109679375D01*
X91129418Y-109351161D01*
X90696256Y-109265000D01*
X90403744Y-109265000D01*
X89970582Y-109351161D01*
X89479375Y-109679375D01*
X89280000Y-109977761D01*
X89080625Y-109679375D01*
X88589418Y-109351161D01*
X88156256Y-109265000D01*
X87863744Y-109265000D01*
X87430582Y-109351161D01*
X86939375Y-109679375D01*
X86740000Y-109977761D01*
X86540625Y-109679375D01*
X86049418Y-109351161D01*
X85616256Y-109265000D01*
X85323744Y-109265000D01*
X84890582Y-109351161D01*
X84399375Y-109679375D01*
X84200000Y-109977761D01*
X84000625Y-109679375D01*
X83509418Y-109351161D01*
X83076256Y-109265000D01*
X82783744Y-109265000D01*
X82350582Y-109351161D01*
X81859375Y-109679375D01*
X81660000Y-109977761D01*
X81460625Y-109679375D01*
X80969418Y-109351161D01*
X80536256Y-109265000D01*
X80243744Y-109265000D01*
X79810582Y-109351161D01*
X79319375Y-109679375D01*
X78991161Y-110170582D01*
X78875908Y-110750000D01*
X67970032Y-110750000D01*
X67937902Y-110581573D01*
X67935000Y-110489240D01*
X67935000Y-106833908D01*
X112765000Y-106833908D01*
X112765000Y-107166092D01*
X112892121Y-107472990D01*
X113127010Y-107707879D01*
X113433908Y-107835000D01*
X113766092Y-107835000D01*
X114072990Y-107707879D01*
X114307879Y-107472990D01*
X114435000Y-107166092D01*
X114435000Y-106833908D01*
X114307879Y-106527010D01*
X114072990Y-106292121D01*
X113766092Y-106165000D01*
X113433908Y-106165000D01*
X113127010Y-106292121D01*
X112892121Y-106527010D01*
X112765000Y-106833908D01*
X67935000Y-106833908D01*
X67935000Y-104900000D01*
X119102560Y-104900000D01*
X119102560Y-106600000D01*
X119151843Y-106847765D01*
X119292191Y-107057809D01*
X119502235Y-107198157D01*
X119750000Y-107247440D01*
X121450000Y-107247440D01*
X121697765Y-107198157D01*
X121907809Y-107057809D01*
X122048157Y-106847765D01*
X122097440Y-106600000D01*
X122097440Y-104900000D01*
X122048157Y-104652235D01*
X121907809Y-104442191D01*
X121697765Y-104301843D01*
X121450000Y-104252560D01*
X119750000Y-104252560D01*
X119502235Y-104301843D01*
X119292191Y-104442191D01*
X119151843Y-104652235D01*
X119102560Y-104900000D01*
X67935000Y-104900000D01*
X67935000Y-103083908D01*
X79250000Y-103083908D01*
X79250000Y-103416092D01*
X79377121Y-103722990D01*
X79612010Y-103957879D01*
X79918908Y-104085000D01*
X80251092Y-104085000D01*
X80557990Y-103957879D01*
X80792879Y-103722990D01*
X80920000Y-103416092D01*
X80920000Y-103083908D01*
X80792879Y-102777010D01*
X80557990Y-102542121D01*
X80251092Y-102415000D01*
X79918908Y-102415000D01*
X79612010Y-102542121D01*
X79377121Y-102777010D01*
X79250000Y-103083908D01*
X67935000Y-103083908D01*
X67935000Y-102250000D01*
X116733643Y-102250000D01*
X116750000Y-102332233D01*
X116750000Y-102416092D01*
X116782091Y-102493566D01*
X116798448Y-102575800D01*
X116845030Y-102645515D01*
X116877121Y-102722990D01*
X116936417Y-102782286D01*
X116982999Y-102852001D01*
X117052714Y-102898583D01*
X117112010Y-102957879D01*
X117189485Y-102989970D01*
X117259200Y-103036552D01*
X117341434Y-103052909D01*
X117418908Y-103085000D01*
X117502767Y-103085000D01*
X117585000Y-103101357D01*
X117667233Y-103085000D01*
X117751092Y-103085000D01*
X117828566Y-103052909D01*
X117910800Y-103036552D01*
X117980514Y-102989971D01*
X118057990Y-102957879D01*
X118292879Y-102722990D01*
X118292880Y-102722987D01*
X119602447Y-101413421D01*
X119627121Y-101472990D01*
X119686417Y-101532286D01*
X119732999Y-101602001D01*
X119802714Y-101648583D01*
X119862010Y-101707879D01*
X119939485Y-101739970D01*
X120009200Y-101786552D01*
X120091434Y-101802909D01*
X120168908Y-101835000D01*
X120252767Y-101835000D01*
X120335000Y-101851357D01*
X120417233Y-101835000D01*
X120501092Y-101835000D01*
X120578566Y-101802909D01*
X120660800Y-101786552D01*
X120730514Y-101739971D01*
X120807990Y-101707879D01*
X121042879Y-101472990D01*
X121042880Y-101472987D01*
X122430868Y-100085000D01*
X125515000Y-100085000D01*
X125515001Y-100867760D01*
X125515000Y-100867764D01*
X125515000Y-100917763D01*
X125498642Y-101000000D01*
X125515000Y-101082237D01*
X125515001Y-101704132D01*
X125051416Y-102167717D01*
X125021215Y-102212916D01*
X125007121Y-102227010D01*
X124999494Y-102245424D01*
X124913448Y-102374200D01*
X124883233Y-102526103D01*
X124880000Y-102533908D01*
X124880000Y-102542356D01*
X124848643Y-102700000D01*
X124880000Y-102857644D01*
X124880000Y-102866092D01*
X124883233Y-102873897D01*
X124913448Y-103025800D01*
X124999495Y-103154578D01*
X125007121Y-103172990D01*
X125021212Y-103187081D01*
X125097999Y-103302001D01*
X125212919Y-103378788D01*
X125242010Y-103407879D01*
X125280020Y-103423623D01*
X125374200Y-103486552D01*
X125485292Y-103508649D01*
X125548908Y-103535000D01*
X125617767Y-103535000D01*
X125700000Y-103551357D01*
X125782233Y-103535000D01*
X125881092Y-103535000D01*
X125972424Y-103497169D01*
X126025800Y-103486552D01*
X126071049Y-103456317D01*
X126187990Y-103407879D01*
X126422879Y-103172990D01*
X126433487Y-103147380D01*
X126882282Y-102698586D01*
X126952001Y-102652001D01*
X127136552Y-102375801D01*
X127185000Y-102132237D01*
X127201358Y-102050000D01*
X127185000Y-101967763D01*
X127185000Y-101835000D01*
X131534133Y-101835000D01*
X133297715Y-103598584D01*
X133504199Y-103736552D01*
X133829999Y-103801357D01*
X134155799Y-103736552D01*
X134432000Y-103552000D01*
X134616552Y-103275799D01*
X134681357Y-102949999D01*
X134665000Y-102867766D01*
X134665000Y-102583908D01*
X134537879Y-102277010D01*
X134302990Y-102042121D01*
X133996092Y-101915000D01*
X133975869Y-101915000D01*
X132528587Y-100467720D01*
X132482001Y-100397999D01*
X132205801Y-100213448D01*
X131962237Y-100165000D01*
X131962233Y-100165000D01*
X131880000Y-100148643D01*
X131797767Y-100165000D01*
X127185000Y-100165000D01*
X127185000Y-99546769D01*
X127252001Y-99502001D01*
X127436552Y-99225801D01*
X127485000Y-98982237D01*
X127485000Y-98982236D01*
X127501358Y-98900000D01*
X127485000Y-98817763D01*
X127485000Y-97250000D01*
X135148642Y-97250000D01*
X135165000Y-97332237D01*
X135165000Y-97687767D01*
X135148643Y-97770000D01*
X135165000Y-97852233D01*
X135165000Y-97852237D01*
X135213448Y-98095801D01*
X135398000Y-98372001D01*
X135467718Y-98418585D01*
X141597716Y-104548584D01*
X141804199Y-104686552D01*
X142129999Y-104751357D01*
X142455800Y-104686552D01*
X142732000Y-104502000D01*
X142916552Y-104225800D01*
X142981357Y-103899999D01*
X142965000Y-103817766D01*
X142965000Y-103533908D01*
X142837879Y-103227010D01*
X142602990Y-102992121D01*
X142296092Y-102865000D01*
X142275868Y-102865000D01*
X137510196Y-98099329D01*
X137582233Y-98085000D01*
X137582237Y-98085000D01*
X137825801Y-98036552D01*
X138102001Y-97852001D01*
X138148587Y-97782281D01*
X138222987Y-97707880D01*
X138222990Y-97707879D01*
X138457879Y-97472990D01*
X138489970Y-97395515D01*
X138536552Y-97325800D01*
X138552909Y-97243566D01*
X138585000Y-97166092D01*
X138585000Y-97082234D01*
X138601357Y-97000001D01*
X138585000Y-96917768D01*
X138585000Y-96833908D01*
X138552909Y-96756433D01*
X138536552Y-96674201D01*
X138489972Y-96604489D01*
X138457879Y-96527010D01*
X138398578Y-96467709D01*
X138352000Y-96398000D01*
X138282291Y-96351422D01*
X138222990Y-96292121D01*
X138145511Y-96260028D01*
X138075799Y-96213448D01*
X137993567Y-96197091D01*
X137916092Y-96165000D01*
X137832232Y-96165000D01*
X137749999Y-96148643D01*
X137667766Y-96165000D01*
X137583908Y-96165000D01*
X137506434Y-96197091D01*
X137424200Y-96213448D01*
X137354485Y-96260030D01*
X137277010Y-96292121D01*
X137154131Y-96415000D01*
X136082237Y-96415000D01*
X136000000Y-96398642D01*
X135917763Y-96415000D01*
X135833908Y-96415000D01*
X135756435Y-96447090D01*
X135674199Y-96463448D01*
X135604483Y-96510031D01*
X135527010Y-96542121D01*
X135467714Y-96601417D01*
X135397999Y-96647999D01*
X135351417Y-96717714D01*
X135292121Y-96777010D01*
X135260031Y-96854483D01*
X135213448Y-96924199D01*
X135197090Y-97006435D01*
X135165000Y-97083908D01*
X135165000Y-97167763D01*
X135148642Y-97250000D01*
X127485000Y-97250000D01*
X127485000Y-93733908D01*
X127452910Y-93656435D01*
X127436552Y-93574199D01*
X127389969Y-93504483D01*
X127357879Y-93427010D01*
X127298583Y-93367714D01*
X127252001Y-93297999D01*
X127182286Y-93251417D01*
X127122990Y-93192121D01*
X127045517Y-93160031D01*
X126975801Y-93113448D01*
X126893565Y-93097090D01*
X126816092Y-93065000D01*
X126732237Y-93065000D01*
X126650000Y-93048642D01*
X126567763Y-93065000D01*
X126483908Y-93065000D01*
X126406435Y-93097090D01*
X126324200Y-93113448D01*
X126254485Y-93160030D01*
X126177010Y-93192121D01*
X126117714Y-93251417D01*
X126047999Y-93297999D01*
X126001417Y-93367714D01*
X125942121Y-93427010D01*
X125910031Y-93504483D01*
X125863448Y-93574199D01*
X125847090Y-93656435D01*
X125815000Y-93733908D01*
X125815000Y-94265078D01*
X125815001Y-94265083D01*
X125815000Y-98415000D01*
X122167237Y-98415000D01*
X122085000Y-98398642D01*
X122002763Y-98415000D01*
X120667237Y-98415000D01*
X120585000Y-98398642D01*
X120502763Y-98415000D01*
X120259199Y-98463448D01*
X119982999Y-98647999D01*
X119936415Y-98717717D01*
X117112013Y-101542120D01*
X117112010Y-101542121D01*
X116877121Y-101777010D01*
X116845029Y-101854486D01*
X116798448Y-101924200D01*
X116782091Y-102006434D01*
X116750000Y-102083908D01*
X116750000Y-102167767D01*
X116733643Y-102250000D01*
X67935000Y-102250000D01*
X67935000Y-93500000D01*
X68352560Y-93500000D01*
X68352560Y-95500000D01*
X68401843Y-95747765D01*
X68542191Y-95957809D01*
X68752235Y-96098157D01*
X69000000Y-96147440D01*
X71000000Y-96147440D01*
X71247765Y-96098157D01*
X71457809Y-95957809D01*
X71598157Y-95747765D01*
X71647440Y-95500000D01*
X71647440Y-93500000D01*
X71598157Y-93252235D01*
X71457809Y-93042191D01*
X71247765Y-92901843D01*
X71000000Y-92852560D01*
X69000000Y-92852560D01*
X68752235Y-92901843D01*
X68542191Y-93042191D01*
X68401843Y-93252235D01*
X68352560Y-93500000D01*
X67935000Y-93500000D01*
X67935000Y-88000000D01*
X68352560Y-88000000D01*
X68352560Y-90000000D01*
X68401843Y-90247765D01*
X68542191Y-90457809D01*
X68752235Y-90598157D01*
X69000000Y-90647440D01*
X71000000Y-90647440D01*
X71247765Y-90598157D01*
X71457809Y-90457809D01*
X71598157Y-90247765D01*
X71647440Y-90000000D01*
X71647440Y-88000000D01*
X71598157Y-87752235D01*
X71457809Y-87542191D01*
X71247765Y-87401843D01*
X71000000Y-87352560D01*
X69000000Y-87352560D01*
X68752235Y-87401843D01*
X68542191Y-87542191D01*
X68401843Y-87752235D01*
X68352560Y-88000000D01*
X67935000Y-88000000D01*
X67935000Y-85014311D01*
X69451051Y-85014311D01*
X69451051Y-85386277D01*
X69593396Y-85729929D01*
X69856416Y-85992949D01*
X70200068Y-86135294D01*
X70572034Y-86135294D01*
X70915686Y-85992949D01*
X71163337Y-85745298D01*
X71263911Y-85895818D01*
X71299171Y-85948589D01*
X71392121Y-86172990D01*
X71627010Y-86407879D01*
X71933908Y-86535000D01*
X72266092Y-86535000D01*
X72572990Y-86407879D01*
X72807879Y-86172990D01*
X72848829Y-86074127D01*
X72956875Y-86146321D01*
X75529091Y-88718537D01*
X75570095Y-88779905D01*
X75813217Y-88942354D01*
X76027612Y-88985000D01*
X76027615Y-88985000D01*
X76099999Y-88999398D01*
X76172383Y-88985000D01*
X76295554Y-88985000D01*
X77529090Y-90218537D01*
X77570095Y-90279905D01*
X77813217Y-90442354D01*
X78027612Y-90485000D01*
X78027615Y-90485000D01*
X78099999Y-90499398D01*
X78172383Y-90485000D01*
X78192486Y-90485000D01*
X78433908Y-90585000D01*
X78766092Y-90585000D01*
X79072990Y-90457879D01*
X79307879Y-90222990D01*
X79435000Y-89916092D01*
X79435000Y-89583908D01*
X79307879Y-89277010D01*
X79072990Y-89042121D01*
X78766092Y-88915000D01*
X78433908Y-88915000D01*
X78342365Y-88952918D01*
X77170911Y-87781465D01*
X77129905Y-87720095D01*
X76886783Y-87557646D01*
X76672388Y-87515000D01*
X76672384Y-87515000D01*
X76600000Y-87500602D01*
X76527616Y-87515000D01*
X76404447Y-87515000D01*
X74223355Y-85333908D01*
X78765000Y-85333908D01*
X78765000Y-85666092D01*
X78892121Y-85972990D01*
X79127010Y-86207879D01*
X79368433Y-86307880D01*
X80534355Y-87473802D01*
X80413677Y-87523788D01*
X80178788Y-87758677D01*
X80051667Y-88065575D01*
X80051667Y-88397759D01*
X80115001Y-88550661D01*
X80115000Y-90342486D01*
X80015000Y-90583908D01*
X80015000Y-90916092D01*
X80142121Y-91222990D01*
X80377010Y-91457879D01*
X80683908Y-91585000D01*
X81016092Y-91585000D01*
X81322990Y-91457879D01*
X81557879Y-91222990D01*
X81685000Y-90916092D01*
X81685000Y-90624446D01*
X83542121Y-92481568D01*
X83642121Y-92722990D01*
X83877010Y-92957879D01*
X84115001Y-93056458D01*
X84115001Y-95254091D01*
X84092082Y-95277010D01*
X83964961Y-95583908D01*
X83964961Y-95916092D01*
X84092082Y-96222990D01*
X84326971Y-96457879D01*
X84633869Y-96585000D01*
X84966053Y-96585000D01*
X85099968Y-96529531D01*
X85233882Y-96585000D01*
X85566066Y-96585000D01*
X85699981Y-96529531D01*
X85833895Y-96585000D01*
X86166079Y-96585000D01*
X86299994Y-96529531D01*
X86433908Y-96585000D01*
X86766092Y-96585000D01*
X86924994Y-96519181D01*
X87083895Y-96585000D01*
X87416079Y-96585000D01*
X87549994Y-96529531D01*
X87683908Y-96585000D01*
X88016092Y-96585000D01*
X88225000Y-96498468D01*
X88351430Y-96550837D01*
X88350602Y-96555000D01*
X88365000Y-96627384D01*
X88365000Y-96627387D01*
X88407646Y-96841782D01*
X88570095Y-97084905D01*
X88631465Y-97125911D01*
X91505454Y-99999901D01*
X91605454Y-100241323D01*
X91840343Y-100476212D01*
X92147241Y-100603333D01*
X92479425Y-100603333D01*
X92786323Y-100476212D01*
X92927535Y-100335000D01*
X93016092Y-100335000D01*
X93322990Y-100207879D01*
X93557879Y-99972990D01*
X93578333Y-99923608D01*
X93578334Y-100610817D01*
X93478333Y-100852241D01*
X93478333Y-101184425D01*
X93605454Y-101491323D01*
X93840343Y-101726212D01*
X94147241Y-101853333D01*
X94479425Y-101853333D01*
X94786323Y-101726212D01*
X94927535Y-101585000D01*
X95016092Y-101585000D01*
X95322990Y-101457879D01*
X95557879Y-101222990D01*
X95685000Y-100916092D01*
X95685000Y-100583908D01*
X95585000Y-100342486D01*
X95585000Y-99322384D01*
X95599398Y-99250000D01*
X95585000Y-99177616D01*
X95585000Y-99177612D01*
X95542354Y-98963217D01*
X95379905Y-98720095D01*
X95318538Y-98679091D01*
X92488355Y-95848908D01*
X95015000Y-95848908D01*
X95015000Y-96181092D01*
X95142121Y-96487990D01*
X95377010Y-96722879D01*
X95683908Y-96850000D01*
X96016092Y-96850000D01*
X96322990Y-96722879D01*
X96557879Y-96487990D01*
X96685000Y-96181092D01*
X96685000Y-95848908D01*
X96557879Y-95542010D01*
X96322990Y-95307121D01*
X96016092Y-95180000D01*
X95683908Y-95180000D01*
X95377010Y-95307121D01*
X95142121Y-95542010D01*
X95015000Y-95848908D01*
X92488355Y-95848908D01*
X91874446Y-95235000D01*
X92066092Y-95235000D01*
X92372990Y-95107879D01*
X92607879Y-94872990D01*
X92735000Y-94566092D01*
X92735000Y-94233908D01*
X92965000Y-94233908D01*
X92965000Y-94566092D01*
X93092121Y-94872990D01*
X93327010Y-95107879D01*
X93633908Y-95235000D01*
X93966092Y-95235000D01*
X94272990Y-95107879D01*
X94507879Y-94872990D01*
X94635000Y-94566092D01*
X94635000Y-94233908D01*
X94507879Y-93927010D01*
X94272990Y-93692121D01*
X93966092Y-93565000D01*
X93633908Y-93565000D01*
X93327010Y-93692121D01*
X93092121Y-93927010D01*
X92965000Y-94233908D01*
X92735000Y-94233908D01*
X92607879Y-93927010D01*
X92372990Y-93692121D01*
X92066092Y-93565000D01*
X91835000Y-93565000D01*
X91835000Y-93333908D01*
X103765000Y-93333908D01*
X103765000Y-93666092D01*
X103892121Y-93972990D01*
X104127010Y-94207879D01*
X104433908Y-94335000D01*
X104766092Y-94335000D01*
X104889439Y-94283908D01*
X119015000Y-94283908D01*
X119015000Y-94616092D01*
X119142121Y-94922990D01*
X119377010Y-95157879D01*
X119683908Y-95285000D01*
X120016092Y-95285000D01*
X120322990Y-95157879D01*
X120557879Y-94922990D01*
X120685000Y-94616092D01*
X120685000Y-94283908D01*
X120557879Y-93977010D01*
X120322990Y-93742121D01*
X120016092Y-93615000D01*
X119683908Y-93615000D01*
X119377010Y-93742121D01*
X119142121Y-93977010D01*
X119015000Y-94283908D01*
X104889439Y-94283908D01*
X105007514Y-94235000D01*
X106777616Y-94235000D01*
X106850000Y-94249398D01*
X106922384Y-94235000D01*
X106922388Y-94235000D01*
X107136783Y-94192354D01*
X107348593Y-94050827D01*
X107572990Y-93957879D01*
X107807879Y-93722990D01*
X107935000Y-93416092D01*
X107935000Y-93112464D01*
X109736434Y-93112464D01*
X109736434Y-93444648D01*
X109863555Y-93751546D01*
X110098444Y-93986435D01*
X110405342Y-94113556D01*
X110737526Y-94113556D01*
X111044424Y-93986435D01*
X111045859Y-93985000D01*
X111192486Y-93985000D01*
X111433908Y-94085000D01*
X111766092Y-94085000D01*
X112072990Y-93957879D01*
X112307879Y-93722990D01*
X112435000Y-93416092D01*
X112435000Y-93083908D01*
X112307879Y-92777010D01*
X112072990Y-92542121D01*
X111766092Y-92415000D01*
X111433908Y-92415000D01*
X111192486Y-92515000D01*
X110910007Y-92515000D01*
X110737526Y-92443556D01*
X110405342Y-92443556D01*
X110098444Y-92570677D01*
X109863555Y-92805566D01*
X109736434Y-93112464D01*
X107935000Y-93112464D01*
X107935000Y-93083908D01*
X107807879Y-92777010D01*
X107572990Y-92542121D01*
X107266092Y-92415000D01*
X106933908Y-92415000D01*
X106627010Y-92542121D01*
X106404131Y-92765000D01*
X105007514Y-92765000D01*
X104766092Y-92665000D01*
X104433908Y-92665000D01*
X104127010Y-92792121D01*
X103892121Y-93027010D01*
X103765000Y-93333908D01*
X91835000Y-93333908D01*
X91835000Y-93072383D01*
X91849398Y-92999999D01*
X91835000Y-92927613D01*
X91835000Y-92927612D01*
X91792354Y-92713217D01*
X91629905Y-92470095D01*
X91568538Y-92429091D01*
X91085000Y-91945554D01*
X91085000Y-86064017D01*
X91915000Y-86064017D01*
X91915000Y-86435983D01*
X92057345Y-86779635D01*
X92320365Y-87042655D01*
X92664017Y-87185000D01*
X92865000Y-87185000D01*
X92865000Y-88677616D01*
X92850602Y-88750000D01*
X92865000Y-88822384D01*
X92865000Y-88822387D01*
X92907646Y-89036782D01*
X93070095Y-89279905D01*
X93131465Y-89320911D01*
X95514090Y-91703537D01*
X95555095Y-91764905D01*
X95616465Y-91805911D01*
X96042121Y-92231567D01*
X96142121Y-92472990D01*
X96377010Y-92707879D01*
X96683908Y-92835000D01*
X97016092Y-92835000D01*
X97322990Y-92707879D01*
X97557879Y-92472990D01*
X97685000Y-92166092D01*
X97685000Y-91833908D01*
X97557879Y-91527010D01*
X97322990Y-91292121D01*
X97081567Y-91192121D01*
X96973354Y-91083908D01*
X100765000Y-91083908D01*
X100765000Y-91416092D01*
X100892121Y-91722990D01*
X101127010Y-91957879D01*
X101368433Y-92057879D01*
X101529090Y-92218537D01*
X101570095Y-92279905D01*
X101813217Y-92442354D01*
X102027612Y-92485000D01*
X102027616Y-92485000D01*
X102100000Y-92499398D01*
X102172384Y-92485000D01*
X106027616Y-92485000D01*
X106100000Y-92499398D01*
X106172384Y-92485000D01*
X106172388Y-92485000D01*
X106386783Y-92442354D01*
X106474253Y-92383908D01*
X119115000Y-92383908D01*
X119115000Y-92716092D01*
X119242121Y-93022990D01*
X119477010Y-93257879D01*
X119783908Y-93385000D01*
X120116092Y-93385000D01*
X120422990Y-93257879D01*
X120657879Y-93022990D01*
X120785000Y-92716092D01*
X120785000Y-92383908D01*
X120657879Y-92077010D01*
X120422990Y-91842121D01*
X120116092Y-91715000D01*
X119783908Y-91715000D01*
X119477010Y-91842121D01*
X119242121Y-92077010D01*
X119115000Y-92383908D01*
X106474253Y-92383908D01*
X106629905Y-92279905D01*
X106670911Y-92218535D01*
X107081567Y-91807879D01*
X107322990Y-91707879D01*
X107557879Y-91472990D01*
X107650244Y-91250000D01*
X133698643Y-91250000D01*
X133714986Y-91332163D01*
X133714986Y-91416092D01*
X133747104Y-91493631D01*
X133763448Y-91575800D01*
X133809993Y-91645460D01*
X133842107Y-91722990D01*
X133901445Y-91782328D01*
X133947999Y-91852001D01*
X134017672Y-91898555D01*
X134076996Y-91957879D01*
X134154508Y-91989985D01*
X134224200Y-92036552D01*
X134306407Y-92052904D01*
X134383894Y-92085000D01*
X134467767Y-92085000D01*
X134550000Y-92101357D01*
X134632233Y-92085000D01*
X134716078Y-92085000D01*
X134793540Y-92052914D01*
X134875800Y-92036552D01*
X134945536Y-91989955D01*
X135022976Y-91957879D01*
X135082247Y-91898608D01*
X135082283Y-91898584D01*
X136265001Y-90715867D01*
X136265000Y-91304131D01*
X136042121Y-91527010D01*
X135915000Y-91833908D01*
X135915000Y-92166092D01*
X136042121Y-92472990D01*
X136277010Y-92707879D01*
X136583908Y-92835000D01*
X136916092Y-92835000D01*
X137222990Y-92707879D01*
X137267447Y-92663422D01*
X137292121Y-92722990D01*
X137527010Y-92957879D01*
X137833908Y-93085000D01*
X138166092Y-93085000D01*
X138472990Y-92957879D01*
X138707879Y-92722990D01*
X138835000Y-92416092D01*
X138835000Y-92083908D01*
X138735000Y-91842486D01*
X138735000Y-90907514D01*
X138835000Y-90666092D01*
X138835000Y-90333908D01*
X138707879Y-90027010D01*
X138515280Y-89834411D01*
X138585000Y-89666092D01*
X138585000Y-89333908D01*
X138457879Y-89027010D01*
X138222990Y-88792121D01*
X137916092Y-88665000D01*
X137585000Y-88665000D01*
X137585000Y-87874446D01*
X141515001Y-91804448D01*
X141515001Y-91935268D01*
X141466070Y-91915000D01*
X141382210Y-91915000D01*
X141299977Y-91898643D01*
X141217744Y-91915000D01*
X141133886Y-91915000D01*
X141056412Y-91947091D01*
X140974178Y-91963448D01*
X140904463Y-92010030D01*
X140826988Y-92042121D01*
X140592099Y-92277010D01*
X140592098Y-92277013D01*
X140567698Y-92301413D01*
X140497978Y-92347998D01*
X140329202Y-92600590D01*
X140313427Y-92624199D01*
X140248622Y-92949999D01*
X140265001Y-93032342D01*
X140265000Y-96459131D01*
X140197121Y-96527010D01*
X140165029Y-96604486D01*
X140118448Y-96674200D01*
X140102091Y-96756434D01*
X140070000Y-96833908D01*
X140070000Y-96917767D01*
X140053643Y-97000000D01*
X140070000Y-97082233D01*
X140070000Y-97166092D01*
X140102091Y-97243566D01*
X140118448Y-97325800D01*
X140165030Y-97395515D01*
X140197121Y-97472990D01*
X140256417Y-97532286D01*
X140302999Y-97602001D01*
X140372714Y-97648583D01*
X140432010Y-97707879D01*
X140509485Y-97739970D01*
X140579200Y-97786552D01*
X140661434Y-97802909D01*
X140738908Y-97835000D01*
X140822767Y-97835000D01*
X140905000Y-97851357D01*
X140987233Y-97835000D01*
X141071092Y-97835000D01*
X141148566Y-97802909D01*
X141230800Y-97786552D01*
X141300514Y-97739971D01*
X141377990Y-97707879D01*
X141612879Y-97472990D01*
X141612880Y-97472987D01*
X141632280Y-97453587D01*
X141702001Y-97407001D01*
X141886552Y-97130801D01*
X141935000Y-96887237D01*
X141935000Y-96887236D01*
X141951358Y-96805000D01*
X141935000Y-96722763D01*
X141935000Y-94974446D01*
X144929091Y-97968537D01*
X144970095Y-98029905D01*
X145213217Y-98192354D01*
X145427612Y-98235000D01*
X145427615Y-98235000D01*
X145499999Y-98249398D01*
X145572383Y-98235000D01*
X147162710Y-98235000D01*
X147220365Y-98292655D01*
X147564017Y-98435000D01*
X147935983Y-98435000D01*
X148237760Y-98310000D01*
X148912959Y-98310000D01*
X148992732Y-98325868D01*
X149072505Y-98310000D01*
X149072506Y-98310000D01*
X149308778Y-98263003D01*
X149576709Y-98083977D01*
X149621900Y-98016344D01*
X150020579Y-97617665D01*
X150322357Y-97492665D01*
X150585377Y-97229645D01*
X150727722Y-96885993D01*
X150727722Y-96514027D01*
X150585377Y-96170375D01*
X150322357Y-95907355D01*
X149978705Y-95765010D01*
X149685000Y-95765010D01*
X149685000Y-95564017D01*
X149665040Y-95515829D01*
X149707879Y-95472990D01*
X149835000Y-95166092D01*
X149835000Y-94833908D01*
X149707879Y-94527010D01*
X149472990Y-94292121D01*
X149166092Y-94165000D01*
X148833908Y-94165000D01*
X148527010Y-94292121D01*
X148292121Y-94527010D01*
X148165000Y-94833908D01*
X148165000Y-95012710D01*
X147957345Y-95220365D01*
X147832345Y-95522142D01*
X147735000Y-95619487D01*
X147735000Y-95572384D01*
X147749398Y-95500000D01*
X147735000Y-95427616D01*
X147735000Y-95427612D01*
X147692354Y-95213217D01*
X147529905Y-94970095D01*
X147468538Y-94929091D01*
X140424446Y-87885000D01*
X141092486Y-87885000D01*
X141333908Y-87985000D01*
X141666092Y-87985000D01*
X141972990Y-87857879D01*
X142207879Y-87622990D01*
X142335000Y-87316092D01*
X142335000Y-86983908D01*
X142207879Y-86677010D01*
X142085000Y-86554131D01*
X142085000Y-86283908D01*
X141957879Y-85977010D01*
X141722990Y-85742121D01*
X141416092Y-85615000D01*
X141083908Y-85615000D01*
X140842486Y-85715000D01*
X140154447Y-85715000D01*
X140107879Y-85668433D01*
X140007879Y-85427010D01*
X139772990Y-85192121D01*
X139466092Y-85065000D01*
X139133908Y-85065000D01*
X138827010Y-85192121D01*
X138699056Y-85320075D01*
X138566092Y-85265000D01*
X138233908Y-85265000D01*
X137930232Y-85390786D01*
X137646893Y-85107447D01*
X137605887Y-85046077D01*
X137362765Y-84883628D01*
X137148370Y-84840982D01*
X137148366Y-84840982D01*
X137075982Y-84826584D01*
X137003598Y-84840982D01*
X135907514Y-84840982D01*
X135666092Y-84740982D01*
X135333908Y-84740982D01*
X135027010Y-84868103D01*
X134792121Y-85102992D01*
X134747525Y-85210657D01*
X134550877Y-85292111D01*
X134315988Y-85527000D01*
X134188867Y-85833898D01*
X134188867Y-86166082D01*
X134315988Y-86472980D01*
X134550877Y-86707869D01*
X134769975Y-86798622D01*
X134991140Y-86946400D01*
X135205535Y-86989046D01*
X135205538Y-86989046D01*
X135277922Y-87003444D01*
X135350306Y-86989046D01*
X136032993Y-86989046D01*
X136010030Y-87044485D01*
X135963448Y-87114200D01*
X135947091Y-87196434D01*
X135915000Y-87273908D01*
X135915000Y-87357764D01*
X135915001Y-88704131D01*
X134077023Y-90542110D01*
X134076996Y-90542121D01*
X133842107Y-90777010D01*
X133809992Y-90854541D01*
X133763448Y-90924200D01*
X133747104Y-91006369D01*
X133714986Y-91083908D01*
X133714986Y-91167837D01*
X133698643Y-91250000D01*
X107650244Y-91250000D01*
X107685000Y-91166092D01*
X107685000Y-90833908D01*
X107557879Y-90527010D01*
X107322990Y-90292121D01*
X107016092Y-90165000D01*
X106683908Y-90165000D01*
X106377010Y-90292121D01*
X106142121Y-90527010D01*
X106042121Y-90768433D01*
X105795554Y-91015000D01*
X102406457Y-91015000D01*
X102307879Y-90777010D01*
X102072990Y-90542121D01*
X101766092Y-90415000D01*
X101433908Y-90415000D01*
X101127010Y-90542121D01*
X100892121Y-90777010D01*
X100765000Y-91083908D01*
X96973354Y-91083908D01*
X96820000Y-90930554D01*
X96820000Y-89696099D01*
X96914017Y-89735042D01*
X97285983Y-89735042D01*
X97629635Y-89592697D01*
X97892655Y-89329677D01*
X97994455Y-89083908D01*
X117750000Y-89083908D01*
X117750000Y-89416092D01*
X117877121Y-89722990D01*
X118112010Y-89957879D01*
X118418908Y-90085000D01*
X118751092Y-90085000D01*
X119057990Y-89957879D01*
X119292879Y-89722990D01*
X119420000Y-89416092D01*
X119420000Y-89083908D01*
X119292879Y-88777010D01*
X119057990Y-88542121D01*
X118751092Y-88415000D01*
X118418908Y-88415000D01*
X118112010Y-88542121D01*
X117877121Y-88777010D01*
X117750000Y-89083908D01*
X97994455Y-89083908D01*
X98035000Y-88986025D01*
X98035000Y-88847831D01*
X98042354Y-88836825D01*
X98085000Y-88622430D01*
X98085000Y-88622427D01*
X98099398Y-88550043D01*
X98085000Y-88477659D01*
X98085000Y-81982268D01*
X98142655Y-81924613D01*
X98285000Y-81580961D01*
X98285000Y-81208995D01*
X98142655Y-80865343D01*
X97958379Y-80681067D01*
X100169447Y-78470000D01*
X101062182Y-78470000D01*
X101042121Y-78518432D01*
X99946464Y-79614090D01*
X99885094Y-79655096D01*
X99722645Y-79898219D01*
X99679999Y-80112614D01*
X99679999Y-80112617D01*
X99665601Y-80185001D01*
X99679999Y-80257385D01*
X99679999Y-80537485D01*
X99579999Y-80778907D01*
X99579999Y-81111091D01*
X99707120Y-81417989D01*
X99942009Y-81652878D01*
X100248907Y-81779999D01*
X100581091Y-81779999D01*
X100887989Y-81652878D01*
X101122878Y-81417989D01*
X101249999Y-81111091D01*
X101249999Y-80778907D01*
X101149999Y-80537485D01*
X101149999Y-80489447D01*
X102081568Y-79557879D01*
X102322990Y-79457879D01*
X102557879Y-79222990D01*
X102685000Y-78916092D01*
X102685000Y-78583908D01*
X102637818Y-78470000D01*
X102942486Y-78470000D01*
X103183908Y-78570000D01*
X103516092Y-78570000D01*
X103822990Y-78442879D01*
X104057879Y-78207990D01*
X104185000Y-77901092D01*
X104185000Y-77583908D01*
X104765000Y-77583908D01*
X104765000Y-77916092D01*
X104892121Y-78222990D01*
X105127010Y-78457879D01*
X105368433Y-78557880D01*
X106279090Y-79468537D01*
X106320095Y-79529905D01*
X106563217Y-79692354D01*
X106777612Y-79735000D01*
X106777616Y-79735000D01*
X106850000Y-79749398D01*
X106922384Y-79735000D01*
X106942486Y-79735000D01*
X107183908Y-79835000D01*
X107516092Y-79835000D01*
X107760150Y-79733908D01*
X113780000Y-79733908D01*
X113780000Y-80066092D01*
X113880000Y-80307514D01*
X113880001Y-83142611D01*
X113865602Y-83215000D01*
X113922646Y-83501782D01*
X114031705Y-83665000D01*
X114085096Y-83744905D01*
X114146463Y-83785909D01*
X115070782Y-84710229D01*
X115165000Y-84937692D01*
X115165001Y-86092484D01*
X115065000Y-86333908D01*
X115065000Y-86666092D01*
X115192121Y-86972990D01*
X115427010Y-87207879D01*
X115733908Y-87335000D01*
X116066092Y-87335000D01*
X116372990Y-87207879D01*
X116446961Y-87133908D01*
X122115000Y-87133908D01*
X122115000Y-87466092D01*
X122242121Y-87772990D01*
X122477010Y-88007879D01*
X122783908Y-88135000D01*
X123116092Y-88135000D01*
X123422990Y-88007879D01*
X123657879Y-87772990D01*
X123785000Y-87466092D01*
X123785000Y-87133908D01*
X123657879Y-86827010D01*
X123422990Y-86592121D01*
X123116092Y-86465000D01*
X122783908Y-86465000D01*
X122477010Y-86592121D01*
X122242121Y-86827010D01*
X122115000Y-87133908D01*
X116446961Y-87133908D01*
X116607879Y-86972990D01*
X116735000Y-86666092D01*
X116735000Y-86333908D01*
X116635000Y-86092486D01*
X116635000Y-84877336D01*
X116722500Y-84666092D01*
X116722500Y-84333908D01*
X116595379Y-84027010D01*
X116360490Y-83792121D01*
X116140406Y-83700960D01*
X115350000Y-82910554D01*
X115350000Y-82250000D01*
X142648643Y-82250000D01*
X142665001Y-82332237D01*
X142665000Y-83333908D01*
X142665000Y-83666092D01*
X142697091Y-83743566D01*
X142713448Y-83825800D01*
X142760030Y-83895515D01*
X142792121Y-83972990D01*
X142851417Y-84032286D01*
X142897999Y-84102001D01*
X142967714Y-84148583D01*
X143027010Y-84207879D01*
X143104483Y-84239969D01*
X143174199Y-84286552D01*
X143256435Y-84302910D01*
X143333908Y-84335000D01*
X143417763Y-84335000D01*
X143500000Y-84351358D01*
X143582237Y-84335000D01*
X143666092Y-84335000D01*
X143743565Y-84302910D01*
X143825800Y-84286552D01*
X143895515Y-84239970D01*
X143972990Y-84207879D01*
X144032286Y-84148583D01*
X144102001Y-84102001D01*
X144148583Y-84032286D01*
X144207879Y-83972990D01*
X144239969Y-83895517D01*
X144286552Y-83825801D01*
X144302910Y-83743565D01*
X144335000Y-83666092D01*
X144335000Y-82595867D01*
X146095868Y-80835000D01*
X151416092Y-80835000D01*
X151493565Y-80802910D01*
X151575801Y-80786552D01*
X151645517Y-80739969D01*
X151722990Y-80707879D01*
X151782286Y-80648583D01*
X151852001Y-80602001D01*
X151898583Y-80532286D01*
X151957879Y-80472990D01*
X151989969Y-80395517D01*
X152036552Y-80325801D01*
X152052910Y-80243565D01*
X152085000Y-80166092D01*
X152085000Y-80082237D01*
X152101358Y-80000000D01*
X152085000Y-79917763D01*
X152085000Y-79833908D01*
X152052910Y-79756435D01*
X152036552Y-79674199D01*
X151989969Y-79604483D01*
X151957879Y-79527010D01*
X151898583Y-79467714D01*
X151852001Y-79397999D01*
X151782285Y-79351416D01*
X151722990Y-79292121D01*
X151645517Y-79260031D01*
X151575801Y-79213448D01*
X151493565Y-79197090D01*
X151416092Y-79165000D01*
X145832237Y-79165000D01*
X145750000Y-79148642D01*
X145667763Y-79165000D01*
X145424199Y-79213448D01*
X145147999Y-79397999D01*
X145101415Y-79467717D01*
X142967718Y-81601415D01*
X142898000Y-81647999D01*
X142851416Y-81717717D01*
X142713448Y-81924200D01*
X142648643Y-82250000D01*
X115350000Y-82250000D01*
X115350000Y-80307514D01*
X115450000Y-80066092D01*
X115450000Y-79733908D01*
X115322879Y-79427010D01*
X115087990Y-79192121D01*
X114781092Y-79065000D01*
X114448908Y-79065000D01*
X114142010Y-79192121D01*
X113907121Y-79427010D01*
X113780000Y-79733908D01*
X107760150Y-79733908D01*
X107822990Y-79707879D01*
X108057879Y-79472990D01*
X108185000Y-79166092D01*
X108185000Y-78833908D01*
X108057879Y-78527010D01*
X107822990Y-78292121D01*
X107516092Y-78165000D01*
X107183908Y-78165000D01*
X107092365Y-78202918D01*
X106407880Y-77518433D01*
X106307879Y-77277010D01*
X106072990Y-77042121D01*
X105766092Y-76915000D01*
X105433908Y-76915000D01*
X105127010Y-77042121D01*
X104892121Y-77277010D01*
X104765000Y-77583908D01*
X104185000Y-77583908D01*
X104185000Y-77568908D01*
X104057879Y-77262010D01*
X103822990Y-77027121D01*
X103516092Y-76900000D01*
X103183908Y-76900000D01*
X102942486Y-77000000D01*
X99937383Y-77000000D01*
X99864999Y-76985602D01*
X99792615Y-77000000D01*
X99792612Y-77000000D01*
X99578217Y-77042646D01*
X99335095Y-77205095D01*
X99294091Y-77266462D01*
X95616463Y-80944091D01*
X95555096Y-80985095D01*
X95514092Y-81046462D01*
X95514091Y-81046463D01*
X95392646Y-81228218D01*
X95335602Y-81515000D01*
X95350001Y-81587389D01*
X95350000Y-85092486D01*
X95250000Y-85333908D01*
X95250000Y-85666092D01*
X95350001Y-85907516D01*
X95350000Y-89460554D01*
X94335000Y-88445554D01*
X94335000Y-83322383D01*
X94349398Y-83249999D01*
X94335000Y-83177615D01*
X94335000Y-83177612D01*
X94292354Y-82963217D01*
X94129905Y-82720095D01*
X94068537Y-82679090D01*
X93657879Y-82268433D01*
X93557879Y-82027010D01*
X93322990Y-81792121D01*
X93016092Y-81665000D01*
X92683908Y-81665000D01*
X92377010Y-81792121D01*
X92142121Y-82027010D01*
X92015000Y-82333908D01*
X92015000Y-82666092D01*
X92111512Y-82899092D01*
X91970714Y-83239008D01*
X91970714Y-83610974D01*
X92113059Y-83954626D01*
X92115001Y-83956568D01*
X92115000Y-85662710D01*
X92057345Y-85720365D01*
X91915000Y-86064017D01*
X91085000Y-86064017D01*
X91085000Y-82572383D01*
X91099398Y-82499999D01*
X91085000Y-82427613D01*
X91085000Y-82427612D01*
X91042354Y-82213217D01*
X90879905Y-81970095D01*
X90818538Y-81929091D01*
X90407879Y-81518433D01*
X90307879Y-81277010D01*
X90072990Y-81042121D01*
X89766092Y-80915000D01*
X89433908Y-80915000D01*
X89127010Y-81042121D01*
X89029289Y-81139842D01*
X88657880Y-80768433D01*
X88557879Y-80527010D01*
X88322990Y-80292121D01*
X88016092Y-80165000D01*
X87683908Y-80165000D01*
X87377010Y-80292121D01*
X87142121Y-80527010D01*
X87015000Y-80833908D01*
X87015000Y-81166092D01*
X87026733Y-81194419D01*
X87016092Y-81190011D01*
X86683908Y-81190011D01*
X86377010Y-81317132D01*
X86142121Y-81552021D01*
X86015000Y-81858919D01*
X86015000Y-82191103D01*
X86142121Y-82498001D01*
X86377010Y-82732890D01*
X86618434Y-82832891D01*
X88365001Y-84579459D01*
X88365001Y-86020555D01*
X85112879Y-82768434D01*
X85012878Y-82527010D01*
X84777989Y-82292121D01*
X84471091Y-82165000D01*
X84138907Y-82165000D01*
X83832009Y-82292121D01*
X83597120Y-82527010D01*
X83469999Y-82833908D01*
X83469999Y-83166092D01*
X83479676Y-83189455D01*
X83392121Y-83277010D01*
X83265000Y-83583908D01*
X83265000Y-83916092D01*
X83392121Y-84222990D01*
X83419131Y-84250000D01*
X83392121Y-84277010D01*
X83314472Y-84464472D01*
X83179339Y-84520446D01*
X83174883Y-84518600D01*
X82842699Y-84518600D01*
X82711128Y-84573099D01*
X82574875Y-84516661D01*
X82242691Y-84516661D01*
X82104691Y-84573822D01*
X82072990Y-84542121D01*
X81766092Y-84415000D01*
X81433908Y-84415000D01*
X81127010Y-84542121D01*
X80934411Y-84734720D01*
X80766092Y-84665000D01*
X80433908Y-84665000D01*
X80127010Y-84792121D01*
X80100000Y-84819131D01*
X80072990Y-84792121D01*
X79766092Y-84665000D01*
X79433908Y-84665000D01*
X79127010Y-84792121D01*
X78892121Y-85027010D01*
X78765000Y-85333908D01*
X74223355Y-85333908D01*
X74070000Y-85180554D01*
X74070000Y-84807514D01*
X74170000Y-84566092D01*
X74170000Y-84233908D01*
X74163919Y-84219226D01*
X74199073Y-84195737D01*
X74361522Y-83952615D01*
X74404168Y-83738220D01*
X74404168Y-83738216D01*
X74418566Y-83665832D01*
X74404168Y-83593448D01*
X74404168Y-82873614D01*
X74568535Y-82709247D01*
X74629905Y-82668241D01*
X74792354Y-82425119D01*
X74835000Y-82210724D01*
X74835000Y-82210721D01*
X74849398Y-82138337D01*
X74835000Y-82065953D01*
X74835000Y-79445869D01*
X75028940Y-79251929D01*
X75156061Y-78945031D01*
X75156061Y-78612847D01*
X75028940Y-78305949D01*
X74794051Y-78071060D01*
X74487153Y-77943939D01*
X74154969Y-77943939D01*
X73848071Y-78071060D01*
X73613182Y-78305949D01*
X73504571Y-78568160D01*
X73407646Y-78713218D01*
X73350602Y-79000000D01*
X73365001Y-79072389D01*
X73365001Y-79215000D01*
X73183908Y-79215000D01*
X72877010Y-79342121D01*
X72704131Y-79515000D01*
X71585000Y-79515000D01*
X71585000Y-79281834D01*
X71593854Y-79272980D01*
X71720975Y-78966082D01*
X71720975Y-78633898D01*
X71593854Y-78327000D01*
X71358965Y-78092111D01*
X71052067Y-77964990D01*
X70719883Y-77964990D01*
X70412985Y-78092111D01*
X70178096Y-78327000D01*
X70050975Y-78633898D01*
X70050975Y-78966082D01*
X70115001Y-79120654D01*
X70115000Y-79592485D01*
X70015000Y-79833908D01*
X70015000Y-80166092D01*
X70091941Y-80351844D01*
X70070344Y-80360790D01*
X69807324Y-80623810D01*
X69664979Y-80967462D01*
X69664979Y-81339428D01*
X69807324Y-81683080D01*
X69864979Y-81740735D01*
X69864980Y-84404092D01*
X69856416Y-84407639D01*
X69593396Y-84670659D01*
X69451051Y-85014311D01*
X67935000Y-85014311D01*
X67935000Y-72833908D01*
X74665000Y-72833908D01*
X74665000Y-73166092D01*
X74765000Y-73407514D01*
X74765001Y-75592484D01*
X74665000Y-75833908D01*
X74665000Y-76166092D01*
X74792121Y-76472990D01*
X75027010Y-76707879D01*
X75333908Y-76835000D01*
X75666092Y-76835000D01*
X75871300Y-76750000D01*
X109298642Y-76750000D01*
X109315000Y-76832237D01*
X109315000Y-76916092D01*
X109347090Y-76993565D01*
X109363448Y-77075801D01*
X109410031Y-77145517D01*
X109442121Y-77222990D01*
X109501417Y-77282286D01*
X109547999Y-77352001D01*
X109617714Y-77398583D01*
X109677010Y-77457879D01*
X109754483Y-77489969D01*
X109824199Y-77536552D01*
X109906435Y-77552910D01*
X109983908Y-77585000D01*
X110350609Y-77585000D01*
X110432842Y-77601357D01*
X110515075Y-77585000D01*
X110515079Y-77585000D01*
X110758643Y-77536552D01*
X111034843Y-77352001D01*
X111081429Y-77282281D01*
X111478710Y-76885000D01*
X117426680Y-76885000D01*
X117365000Y-77033908D01*
X117365000Y-77366092D01*
X117490001Y-77667871D01*
X117490000Y-78932130D01*
X117365000Y-79233908D01*
X117365000Y-79566092D01*
X117492121Y-79872990D01*
X117727010Y-80107879D01*
X118033908Y-80235000D01*
X118154131Y-80235000D01*
X118327010Y-80407879D01*
X118633908Y-80535000D01*
X118966092Y-80535000D01*
X119272990Y-80407879D01*
X119507879Y-80172990D01*
X119635000Y-79866092D01*
X119635000Y-79533908D01*
X119510000Y-79232131D01*
X119510000Y-78367869D01*
X119635000Y-78066092D01*
X119635000Y-77733908D01*
X119507879Y-77427010D01*
X119272990Y-77192121D01*
X119035000Y-77093543D01*
X119035000Y-77033908D01*
X118973320Y-76885000D01*
X130409131Y-76885000D01*
X130527010Y-77002879D01*
X130604485Y-77034970D01*
X130674200Y-77081552D01*
X130756434Y-77097909D01*
X130833908Y-77130000D01*
X130917766Y-77130000D01*
X130999999Y-77146357D01*
X131082232Y-77130000D01*
X131166092Y-77130000D01*
X131243567Y-77097909D01*
X131325799Y-77081552D01*
X131395511Y-77034972D01*
X131472990Y-77002879D01*
X131532291Y-76943578D01*
X131602000Y-76897000D01*
X131648578Y-76827291D01*
X131707879Y-76767990D01*
X131739972Y-76690511D01*
X131786552Y-76620799D01*
X131802909Y-76538567D01*
X131835000Y-76461092D01*
X131835000Y-76377232D01*
X131851357Y-76294999D01*
X131835000Y-76212766D01*
X131835000Y-76128908D01*
X131802909Y-76051434D01*
X131786552Y-75969200D01*
X131739970Y-75899485D01*
X131707879Y-75822010D01*
X131472990Y-75587121D01*
X131472987Y-75587120D01*
X131403587Y-75517719D01*
X131357001Y-75447999D01*
X131080801Y-75263448D01*
X130837237Y-75215000D01*
X130837233Y-75215000D01*
X130755000Y-75198643D01*
X130672767Y-75215000D01*
X111215074Y-75215000D01*
X111132841Y-75198643D01*
X111050608Y-75215000D01*
X111050605Y-75215000D01*
X110807041Y-75263448D01*
X110530841Y-75447999D01*
X110484258Y-75517715D01*
X110086974Y-75915000D01*
X109983908Y-75915000D01*
X109906435Y-75947090D01*
X109824199Y-75963448D01*
X109754483Y-76010031D01*
X109677010Y-76042121D01*
X109617714Y-76101417D01*
X109547999Y-76147999D01*
X109501417Y-76217714D01*
X109442121Y-76277010D01*
X109410031Y-76354483D01*
X109363448Y-76424199D01*
X109347090Y-76506435D01*
X109315000Y-76583908D01*
X109315000Y-76667763D01*
X109298642Y-76750000D01*
X75871300Y-76750000D01*
X75972990Y-76707879D01*
X76207879Y-76472990D01*
X76335000Y-76166092D01*
X76335000Y-75833908D01*
X76235000Y-75592486D01*
X76235000Y-73665832D01*
X99214475Y-73665832D01*
X99230832Y-73748065D01*
X99230832Y-73748068D01*
X99279280Y-73991632D01*
X99463831Y-74267833D01*
X99533552Y-74314419D01*
X101401417Y-76182285D01*
X101447999Y-76252001D01*
X101517714Y-76298583D01*
X101517715Y-76298584D01*
X101617114Y-76365000D01*
X101724199Y-76436552D01*
X101967763Y-76485000D01*
X101967766Y-76485000D01*
X102049999Y-76501357D01*
X102132232Y-76485000D01*
X105566092Y-76485000D01*
X105643565Y-76452910D01*
X105725801Y-76436552D01*
X105795517Y-76389969D01*
X105872990Y-76357879D01*
X105932286Y-76298583D01*
X106002001Y-76252001D01*
X106048583Y-76182286D01*
X106107879Y-76122990D01*
X106139969Y-76045517D01*
X106186552Y-75975801D01*
X106202910Y-75893565D01*
X106235000Y-75816092D01*
X106235000Y-75732237D01*
X106251358Y-75650000D01*
X106235000Y-75567763D01*
X106235000Y-75483908D01*
X106202910Y-75406435D01*
X106186552Y-75324199D01*
X106139969Y-75254483D01*
X106107879Y-75177010D01*
X106048583Y-75117714D01*
X106002001Y-75047999D01*
X105932286Y-75001417D01*
X105872990Y-74942121D01*
X105795517Y-74910031D01*
X105725801Y-74863448D01*
X105643565Y-74847090D01*
X105566092Y-74815000D01*
X102395869Y-74815000D01*
X100900832Y-73319965D01*
X100900832Y-72299740D01*
X100868742Y-72222267D01*
X100852384Y-72140031D01*
X100805801Y-72070315D01*
X100773711Y-71992842D01*
X100714415Y-71933546D01*
X100667833Y-71863831D01*
X100598118Y-71817249D01*
X100538822Y-71757953D01*
X100461349Y-71725863D01*
X100391633Y-71679280D01*
X100309397Y-71662922D01*
X100231924Y-71630832D01*
X100148069Y-71630832D01*
X100065832Y-71614474D01*
X99983595Y-71630832D01*
X99899740Y-71630832D01*
X99822267Y-71662922D01*
X99740032Y-71679280D01*
X99670318Y-71725862D01*
X99592842Y-71757953D01*
X99533544Y-71817251D01*
X99463832Y-71863831D01*
X99417252Y-71933543D01*
X99357953Y-71992842D01*
X99325861Y-72070319D01*
X99279281Y-72140031D01*
X99262924Y-72222263D01*
X99230832Y-72299740D01*
X99230832Y-72631924D01*
X99230833Y-72631926D01*
X99230832Y-73583598D01*
X99214475Y-73665832D01*
X76235000Y-73665832D01*
X76235000Y-73407514D01*
X76335000Y-73166092D01*
X76335000Y-72833908D01*
X76207879Y-72527010D01*
X75972990Y-72292121D01*
X75666092Y-72165000D01*
X75333908Y-72165000D01*
X75027010Y-72292121D01*
X74792121Y-72527010D01*
X74665000Y-72833908D01*
X67935000Y-72833908D01*
X67935000Y-70348908D01*
X104265000Y-70348908D01*
X104265000Y-70681092D01*
X104365000Y-70922514D01*
X104365001Y-72842484D01*
X104265000Y-73083908D01*
X104265000Y-73416092D01*
X104392121Y-73722990D01*
X104627010Y-73957879D01*
X104933908Y-74085000D01*
X105266092Y-74085000D01*
X105572990Y-73957879D01*
X105807879Y-73722990D01*
X105935000Y-73416092D01*
X105935000Y-73083908D01*
X105835000Y-72842486D01*
X105835000Y-70922514D01*
X105906457Y-70750000D01*
X119352560Y-70750000D01*
X119352560Y-72250000D01*
X119401843Y-72497765D01*
X119542191Y-72707809D01*
X119752235Y-72848157D01*
X120000000Y-72897440D01*
X120800000Y-72897440D01*
X121047765Y-72848157D01*
X121257809Y-72707809D01*
X121398157Y-72497765D01*
X121447440Y-72250000D01*
X121447440Y-71254343D01*
X124165000Y-71254343D01*
X124165000Y-71745657D01*
X124353018Y-72199571D01*
X124700429Y-72546982D01*
X125154343Y-72735000D01*
X125645657Y-72735000D01*
X126099571Y-72546982D01*
X126446982Y-72199571D01*
X126635000Y-71745657D01*
X126635000Y-71254343D01*
X126446982Y-70800429D01*
X126396553Y-70750000D01*
X126852560Y-70750000D01*
X126852560Y-72250000D01*
X126901843Y-72497765D01*
X127042191Y-72707809D01*
X127252235Y-72848157D01*
X127500000Y-72897440D01*
X128300000Y-72897440D01*
X128547765Y-72848157D01*
X128757809Y-72707809D01*
X128898157Y-72497765D01*
X128947440Y-72250000D01*
X128947440Y-70750000D01*
X129352560Y-70750000D01*
X129352560Y-72250000D01*
X129401843Y-72497765D01*
X129542191Y-72707809D01*
X129752235Y-72848157D01*
X130000000Y-72897440D01*
X130800000Y-72897440D01*
X131047765Y-72848157D01*
X131257809Y-72707809D01*
X131398157Y-72497765D01*
X131447440Y-72250000D01*
X131447440Y-70750000D01*
X131398157Y-70502235D01*
X131257809Y-70292191D01*
X131047765Y-70151843D01*
X130800000Y-70102560D01*
X130000000Y-70102560D01*
X129752235Y-70151843D01*
X129542191Y-70292191D01*
X129401843Y-70502235D01*
X129352560Y-70750000D01*
X128947440Y-70750000D01*
X128898157Y-70502235D01*
X128757809Y-70292191D01*
X128547765Y-70151843D01*
X128300000Y-70102560D01*
X127500000Y-70102560D01*
X127252235Y-70151843D01*
X127042191Y-70292191D01*
X126901843Y-70502235D01*
X126852560Y-70750000D01*
X126396553Y-70750000D01*
X126099571Y-70453018D01*
X125645657Y-70265000D01*
X125154343Y-70265000D01*
X124700429Y-70453018D01*
X124353018Y-70800429D01*
X124165000Y-71254343D01*
X121447440Y-71254343D01*
X121447440Y-70750000D01*
X121398157Y-70502235D01*
X121257809Y-70292191D01*
X121047765Y-70151843D01*
X120800000Y-70102560D01*
X120000000Y-70102560D01*
X119752235Y-70151843D01*
X119542191Y-70292191D01*
X119401843Y-70502235D01*
X119352560Y-70750000D01*
X105906457Y-70750000D01*
X105935000Y-70681092D01*
X105935000Y-70348908D01*
X105807879Y-70042010D01*
X105572990Y-69807121D01*
X105266092Y-69680000D01*
X104933908Y-69680000D01*
X104627010Y-69807121D01*
X104392121Y-70042010D01*
X104265000Y-70348908D01*
X67935000Y-70348908D01*
X67935000Y-65543100D01*
X67997296Y-65049980D01*
X68164274Y-64628241D01*
X68430891Y-64261273D01*
X68780391Y-63972142D01*
X69190816Y-63779011D01*
X69668427Y-63687902D01*
X69760759Y-63685000D01*
X96902612Y-63685000D01*
X96742191Y-63792191D01*
G36*
X146265001Y-95804448D02*
X146265000Y-96162710D01*
X146207345Y-96220365D01*
X146065000Y-96564017D01*
X146065000Y-96765000D01*
X145804447Y-96765000D01*
X142985000Y-93945554D01*
X142985000Y-92524447D01*
X146265001Y-95804448D01*
X146265001Y-95804448D01*
G37*
X146265001Y-95804448D02*
X146265000Y-96162710D01*
X146207345Y-96220365D01*
X146065000Y-96564017D01*
X146065000Y-96765000D01*
X145804447Y-96765000D01*
X142985000Y-93945554D01*
X142985000Y-92524447D01*
X146265001Y-95804448D01*
G36*
X72934168Y-83361386D02*
X72866463Y-83429091D01*
X72805096Y-83470095D01*
X72764092Y-83531462D01*
X72764091Y-83531463D01*
X72642646Y-83713218D01*
X72585602Y-84000000D01*
X72589263Y-84018407D01*
X72585000Y-84028699D01*
X72585000Y-83021604D01*
X72934169Y-82672436D01*
X72934168Y-83361386D01*
X72934168Y-83361386D01*
G37*
X72934168Y-83361386D02*
X72866463Y-83429091D01*
X72805096Y-83470095D01*
X72764092Y-83531462D01*
X72764091Y-83531463D01*
X72642646Y-83713218D01*
X72585602Y-84000000D01*
X72589263Y-84018407D01*
X72585000Y-84028699D01*
X72585000Y-83021604D01*
X72934169Y-82672436D01*
X72934168Y-83361386D01*
G04 #@! TD*
M02*
