G04 #@! TF.GenerationSoftware,KiCad,Pcbnew,(5.0.0)*
G04 #@! TF.CreationDate,2019-03-27T19:24:55+01:00*
G04 #@! TF.ProjectId,rf-receiver,72662D72656365697665722E6B696361,rev?*
G04 #@! TF.SameCoordinates,Original*
G04 #@! TF.FileFunction,Soldermask,Bot*
G04 #@! TF.FilePolarity,Negative*
%FSLAX46Y46*%
G04 Gerber Fmt 4.6, Leading zero omitted, Abs format (unit mm)*
G04 Created by KiCad (PCBNEW (5.0.0)) date 03/27/19 19:24:55*
%MOMM*%
%LPD*%
G01*
G04 APERTURE LIST*
%ADD10R,2.000000X2.000000*%
%ADD11O,1.300000X2.600000*%
%ADD12C,0.600000*%
%ADD13O,0.850000X0.500000*%
%ADD14O,1.200000X2.300000*%
%ADD15O,1.350000X1.100000*%
%ADD16R,1.500000X0.800000*%
%ADD17C,1.200000*%
%ADD18R,0.800000X1.500000*%
%ADD19C,5.400000*%
%ADD20R,1.500000X5.080000*%
%ADD21R,1.700000X1.700000*%
%ADD22O,1.700000X1.700000*%
G04 APERTURE END LIST*
D10*
G04 #@! TO.C,-*
X108000000Y-65500000D03*
G04 #@! TD*
G04 #@! TO.C,+*
X98800000Y-65500000D03*
G04 #@! TD*
G04 #@! TO.C,W1*
X70000000Y-89000000D03*
G04 #@! TD*
G04 #@! TO.C,W2*
X70000000Y-94600000D03*
G04 #@! TD*
D11*
G04 #@! TO.C,J3*
X86680000Y-65000000D03*
X95320000Y-65000000D03*
D12*
X94600000Y-68050000D03*
D13*
X87400000Y-68115000D03*
D14*
X95320000Y-70050000D03*
D15*
X95000000Y-69400000D03*
X87000000Y-69400000D03*
D14*
X86680000Y-70050000D03*
G04 #@! TD*
D16*
G04 #@! TO.C,J1*
X125400000Y-66500000D03*
D17*
X130400000Y-64000000D03*
X130400000Y-66500000D03*
X120400000Y-64000000D03*
X120400000Y-66500000D03*
X125400000Y-71500000D03*
D18*
X127900000Y-71500000D03*
X122900000Y-71500000D03*
X130400000Y-71500000D03*
X120400000Y-71500000D03*
G04 #@! TD*
D19*
G04 #@! TO.C,MH2*
X154000000Y-67000000D03*
G04 #@! TD*
G04 #@! TO.C,MH4*
X71250000Y-109000000D03*
G04 #@! TD*
G04 #@! TO.C,MH3*
X153750000Y-109000000D03*
G04 #@! TD*
G04 #@! TO.C,MH1*
X71250000Y-67000000D03*
G04 #@! TD*
D20*
G04 #@! TO.C,J2*
X144500000Y-65700000D03*
X136000000Y-65700000D03*
G04 #@! TD*
D21*
G04 #@! TO.C,U2*
X77850000Y-110500000D03*
D22*
X80390000Y-110500000D03*
X82930000Y-110500000D03*
X85470000Y-110500000D03*
X88010000Y-110500000D03*
X90550000Y-110500000D03*
X93090000Y-110500000D03*
X95630000Y-110500000D03*
X98170000Y-110500000D03*
X100710000Y-110500000D03*
X103250000Y-110500000D03*
X105790000Y-110500000D03*
X108330000Y-110500000D03*
X110870000Y-110500000D03*
X113410000Y-110500000D03*
X115950000Y-110500000D03*
G04 #@! TD*
D21*
G04 #@! TO.C,SW2*
X145700000Y-110500000D03*
D22*
X143160000Y-110500000D03*
G04 #@! TD*
G04 #@! TO.C,SW3*
X135510000Y-110500000D03*
D21*
X138050000Y-110500000D03*
G04 #@! TD*
G04 #@! TO.C,SW1*
X130400000Y-110500000D03*
D22*
X127860000Y-110500000D03*
G04 #@! TD*
D21*
G04 #@! TO.C,P1*
X120600000Y-105500000D03*
D22*
X120600000Y-108040000D03*
X120600000Y-110580000D03*
G04 #@! TD*
M02*
