G04 #@! TF.GenerationSoftware,KiCad,Pcbnew,(5.1.4)-1*
G04 #@! TF.CreationDate,2019-12-12T20:41:28+01:00*
G04 #@! TF.ProjectId,30mhzLP,33306d68-7a4c-4502-9e6b-696361645f70,rev?*
G04 #@! TF.SameCoordinates,Original*
G04 #@! TF.FileFunction,Soldermask,Top*
G04 #@! TF.FilePolarity,Negative*
%FSLAX46Y46*%
G04 Gerber Fmt 4.6, Leading zero omitted, Abs format (unit mm)*
G04 Created by KiCad (PCBNEW (5.1.4)-1) date 2019-12-12 20:41:28*
%MOMM*%
%LPD*%
G04 APERTURE LIST*
%ADD10C,0.100000*%
G04 APERTURE END LIST*
D10*
G36*
X121341000Y-117551000D02*
G01*
X116159000Y-117551000D01*
X116159000Y-115949000D01*
X121341000Y-115949000D01*
X121341000Y-117551000D01*
X121341000Y-117551000D01*
G37*
G36*
X160841000Y-117301000D02*
G01*
X155659000Y-117301000D01*
X155659000Y-115699000D01*
X160841000Y-115699000D01*
X160841000Y-117301000D01*
X160841000Y-117301000D01*
G37*
G36*
X137629591Y-113803085D02*
G01*
X137663569Y-113813393D01*
X137694890Y-113830134D01*
X137722339Y-113852661D01*
X137744866Y-113880110D01*
X137761607Y-113911431D01*
X137771915Y-113945409D01*
X137776000Y-113986890D01*
X137776000Y-114588110D01*
X137771915Y-114629591D01*
X137761607Y-114663569D01*
X137744866Y-114694890D01*
X137722339Y-114722339D01*
X137694890Y-114744866D01*
X137663569Y-114761607D01*
X137629591Y-114771915D01*
X137588110Y-114776000D01*
X136911890Y-114776000D01*
X136870409Y-114771915D01*
X136836431Y-114761607D01*
X136805110Y-114744866D01*
X136777661Y-114722339D01*
X136755134Y-114694890D01*
X136738393Y-114663569D01*
X136728085Y-114629591D01*
X136724000Y-114588110D01*
X136724000Y-113986890D01*
X136728085Y-113945409D01*
X136738393Y-113911431D01*
X136755134Y-113880110D01*
X136777661Y-113852661D01*
X136805110Y-113830134D01*
X136836431Y-113813393D01*
X136870409Y-113803085D01*
X136911890Y-113799000D01*
X137588110Y-113799000D01*
X137629591Y-113803085D01*
X137629591Y-113803085D01*
G37*
G36*
X128879591Y-113803085D02*
G01*
X128913569Y-113813393D01*
X128944890Y-113830134D01*
X128972339Y-113852661D01*
X128994866Y-113880110D01*
X129011607Y-113911431D01*
X129021915Y-113945409D01*
X129026000Y-113986890D01*
X129026000Y-114588110D01*
X129021915Y-114629591D01*
X129011607Y-114663569D01*
X128994866Y-114694890D01*
X128972339Y-114722339D01*
X128944890Y-114744866D01*
X128913569Y-114761607D01*
X128879591Y-114771915D01*
X128838110Y-114776000D01*
X128161890Y-114776000D01*
X128120409Y-114771915D01*
X128086431Y-114761607D01*
X128055110Y-114744866D01*
X128027661Y-114722339D01*
X128005134Y-114694890D01*
X127988393Y-114663569D01*
X127978085Y-114629591D01*
X127974000Y-114588110D01*
X127974000Y-113986890D01*
X127978085Y-113945409D01*
X127988393Y-113911431D01*
X128005134Y-113880110D01*
X128027661Y-113852661D01*
X128055110Y-113830134D01*
X128086431Y-113813393D01*
X128120409Y-113803085D01*
X128161890Y-113799000D01*
X128838110Y-113799000D01*
X128879591Y-113803085D01*
X128879591Y-113803085D01*
G37*
G36*
X144629591Y-113765585D02*
G01*
X144663569Y-113775893D01*
X144694890Y-113792634D01*
X144722339Y-113815161D01*
X144744866Y-113842610D01*
X144761607Y-113873931D01*
X144771915Y-113907909D01*
X144776000Y-113949390D01*
X144776000Y-114550610D01*
X144771915Y-114592091D01*
X144761607Y-114626069D01*
X144744866Y-114657390D01*
X144722339Y-114684839D01*
X144694890Y-114707366D01*
X144663569Y-114724107D01*
X144629591Y-114734415D01*
X144588110Y-114738500D01*
X143911890Y-114738500D01*
X143870409Y-114734415D01*
X143836431Y-114724107D01*
X143805110Y-114707366D01*
X143777661Y-114684839D01*
X143755134Y-114657390D01*
X143738393Y-114626069D01*
X143728085Y-114592091D01*
X143724000Y-114550610D01*
X143724000Y-113949390D01*
X143728085Y-113907909D01*
X143738393Y-113873931D01*
X143755134Y-113842610D01*
X143777661Y-113815161D01*
X143805110Y-113792634D01*
X143836431Y-113775893D01*
X143870409Y-113765585D01*
X143911890Y-113761500D01*
X144588110Y-113761500D01*
X144629591Y-113765585D01*
X144629591Y-113765585D01*
G37*
G36*
X151379591Y-113765585D02*
G01*
X151413569Y-113775893D01*
X151444890Y-113792634D01*
X151472339Y-113815161D01*
X151494866Y-113842610D01*
X151511607Y-113873931D01*
X151521915Y-113907909D01*
X151526000Y-113949390D01*
X151526000Y-114550610D01*
X151521915Y-114592091D01*
X151511607Y-114626069D01*
X151494866Y-114657390D01*
X151472339Y-114684839D01*
X151444890Y-114707366D01*
X151413569Y-114724107D01*
X151379591Y-114734415D01*
X151338110Y-114738500D01*
X150661890Y-114738500D01*
X150620409Y-114734415D01*
X150586431Y-114724107D01*
X150555110Y-114707366D01*
X150527661Y-114684839D01*
X150505134Y-114657390D01*
X150488393Y-114626069D01*
X150478085Y-114592091D01*
X150474000Y-114550610D01*
X150474000Y-113949390D01*
X150478085Y-113907909D01*
X150488393Y-113873931D01*
X150505134Y-113842610D01*
X150527661Y-113815161D01*
X150555110Y-113792634D01*
X150586431Y-113775893D01*
X150620409Y-113765585D01*
X150661890Y-113761500D01*
X151338110Y-113761500D01*
X151379591Y-113765585D01*
X151379591Y-113765585D01*
G37*
G36*
X121341000Y-113301000D02*
G01*
X116159000Y-113301000D01*
X116159000Y-111699000D01*
X121341000Y-111699000D01*
X121341000Y-113301000D01*
X121341000Y-113301000D01*
G37*
G36*
X133054591Y-112228085D02*
G01*
X133088569Y-112238393D01*
X133119890Y-112255134D01*
X133147339Y-112277661D01*
X133169866Y-112305110D01*
X133186607Y-112336431D01*
X133196915Y-112370409D01*
X133201000Y-112411890D01*
X133201000Y-113088110D01*
X133196915Y-113129591D01*
X133186607Y-113163569D01*
X133169866Y-113194890D01*
X133147339Y-113222339D01*
X133119890Y-113244866D01*
X133088569Y-113261607D01*
X133054591Y-113271915D01*
X133013110Y-113276000D01*
X132411890Y-113276000D01*
X132370409Y-113271915D01*
X132336431Y-113261607D01*
X132305110Y-113244866D01*
X132277661Y-113222339D01*
X132255134Y-113194890D01*
X132238393Y-113163569D01*
X132228085Y-113129591D01*
X132224000Y-113088110D01*
X132224000Y-112411890D01*
X132228085Y-112370409D01*
X132238393Y-112336431D01*
X132255134Y-112305110D01*
X132277661Y-112277661D01*
X132305110Y-112255134D01*
X132336431Y-112238393D01*
X132370409Y-112228085D01*
X132411890Y-112224000D01*
X133013110Y-112224000D01*
X133054591Y-112228085D01*
X133054591Y-112228085D01*
G37*
G36*
X147054591Y-112228085D02*
G01*
X147088569Y-112238393D01*
X147119890Y-112255134D01*
X147147339Y-112277661D01*
X147169866Y-112305110D01*
X147186607Y-112336431D01*
X147196915Y-112370409D01*
X147201000Y-112411890D01*
X147201000Y-113088110D01*
X147196915Y-113129591D01*
X147186607Y-113163569D01*
X147169866Y-113194890D01*
X147147339Y-113222339D01*
X147119890Y-113244866D01*
X147088569Y-113261607D01*
X147054591Y-113271915D01*
X147013110Y-113276000D01*
X146411890Y-113276000D01*
X146370409Y-113271915D01*
X146336431Y-113261607D01*
X146305110Y-113244866D01*
X146277661Y-113222339D01*
X146255134Y-113194890D01*
X146238393Y-113163569D01*
X146228085Y-113129591D01*
X146224000Y-113088110D01*
X146224000Y-112411890D01*
X146228085Y-112370409D01*
X146238393Y-112336431D01*
X146255134Y-112305110D01*
X146277661Y-112277661D01*
X146305110Y-112255134D01*
X146336431Y-112238393D01*
X146370409Y-112228085D01*
X146411890Y-112224000D01*
X147013110Y-112224000D01*
X147054591Y-112228085D01*
X147054591Y-112228085D01*
G37*
G36*
X148629591Y-112228085D02*
G01*
X148663569Y-112238393D01*
X148694890Y-112255134D01*
X148722339Y-112277661D01*
X148744866Y-112305110D01*
X148761607Y-112336431D01*
X148771915Y-112370409D01*
X148776000Y-112411890D01*
X148776000Y-113088110D01*
X148771915Y-113129591D01*
X148761607Y-113163569D01*
X148744866Y-113194890D01*
X148722339Y-113222339D01*
X148694890Y-113244866D01*
X148663569Y-113261607D01*
X148629591Y-113271915D01*
X148588110Y-113276000D01*
X147986890Y-113276000D01*
X147945409Y-113271915D01*
X147911431Y-113261607D01*
X147880110Y-113244866D01*
X147852661Y-113222339D01*
X147830134Y-113194890D01*
X147813393Y-113163569D01*
X147803085Y-113129591D01*
X147799000Y-113088110D01*
X147799000Y-112411890D01*
X147803085Y-112370409D01*
X147813393Y-112336431D01*
X147830134Y-112305110D01*
X147852661Y-112277661D01*
X147880110Y-112255134D01*
X147911431Y-112238393D01*
X147945409Y-112228085D01*
X147986890Y-112224000D01*
X148588110Y-112224000D01*
X148629591Y-112228085D01*
X148629591Y-112228085D01*
G37*
G36*
X140304591Y-112228085D02*
G01*
X140338569Y-112238393D01*
X140369890Y-112255134D01*
X140397339Y-112277661D01*
X140419866Y-112305110D01*
X140436607Y-112336431D01*
X140446915Y-112370409D01*
X140451000Y-112411890D01*
X140451000Y-113088110D01*
X140446915Y-113129591D01*
X140436607Y-113163569D01*
X140419866Y-113194890D01*
X140397339Y-113222339D01*
X140369890Y-113244866D01*
X140338569Y-113261607D01*
X140304591Y-113271915D01*
X140263110Y-113276000D01*
X139661890Y-113276000D01*
X139620409Y-113271915D01*
X139586431Y-113261607D01*
X139555110Y-113244866D01*
X139527661Y-113222339D01*
X139505134Y-113194890D01*
X139488393Y-113163569D01*
X139478085Y-113129591D01*
X139474000Y-113088110D01*
X139474000Y-112411890D01*
X139478085Y-112370409D01*
X139488393Y-112336431D01*
X139505134Y-112305110D01*
X139527661Y-112277661D01*
X139555110Y-112255134D01*
X139586431Y-112238393D01*
X139620409Y-112228085D01*
X139661890Y-112224000D01*
X140263110Y-112224000D01*
X140304591Y-112228085D01*
X140304591Y-112228085D01*
G37*
G36*
X141879591Y-112228085D02*
G01*
X141913569Y-112238393D01*
X141944890Y-112255134D01*
X141972339Y-112277661D01*
X141994866Y-112305110D01*
X142011607Y-112336431D01*
X142021915Y-112370409D01*
X142026000Y-112411890D01*
X142026000Y-113088110D01*
X142021915Y-113129591D01*
X142011607Y-113163569D01*
X141994866Y-113194890D01*
X141972339Y-113222339D01*
X141944890Y-113244866D01*
X141913569Y-113261607D01*
X141879591Y-113271915D01*
X141838110Y-113276000D01*
X141236890Y-113276000D01*
X141195409Y-113271915D01*
X141161431Y-113261607D01*
X141130110Y-113244866D01*
X141102661Y-113222339D01*
X141080134Y-113194890D01*
X141063393Y-113163569D01*
X141053085Y-113129591D01*
X141049000Y-113088110D01*
X141049000Y-112411890D01*
X141053085Y-112370409D01*
X141063393Y-112336431D01*
X141080134Y-112305110D01*
X141102661Y-112277661D01*
X141130110Y-112255134D01*
X141161431Y-112238393D01*
X141195409Y-112228085D01*
X141236890Y-112224000D01*
X141838110Y-112224000D01*
X141879591Y-112228085D01*
X141879591Y-112228085D01*
G37*
G36*
X134629591Y-112228085D02*
G01*
X134663569Y-112238393D01*
X134694890Y-112255134D01*
X134722339Y-112277661D01*
X134744866Y-112305110D01*
X134761607Y-112336431D01*
X134771915Y-112370409D01*
X134776000Y-112411890D01*
X134776000Y-113088110D01*
X134771915Y-113129591D01*
X134761607Y-113163569D01*
X134744866Y-113194890D01*
X134722339Y-113222339D01*
X134694890Y-113244866D01*
X134663569Y-113261607D01*
X134629591Y-113271915D01*
X134588110Y-113276000D01*
X133986890Y-113276000D01*
X133945409Y-113271915D01*
X133911431Y-113261607D01*
X133880110Y-113244866D01*
X133852661Y-113222339D01*
X133830134Y-113194890D01*
X133813393Y-113163569D01*
X133803085Y-113129591D01*
X133799000Y-113088110D01*
X133799000Y-112411890D01*
X133803085Y-112370409D01*
X133813393Y-112336431D01*
X133830134Y-112305110D01*
X133852661Y-112277661D01*
X133880110Y-112255134D01*
X133911431Y-112238393D01*
X133945409Y-112228085D01*
X133986890Y-112224000D01*
X134588110Y-112224000D01*
X134629591Y-112228085D01*
X134629591Y-112228085D01*
G37*
G36*
X128879591Y-112228085D02*
G01*
X128913569Y-112238393D01*
X128944890Y-112255134D01*
X128972339Y-112277661D01*
X128994866Y-112305110D01*
X129011607Y-112336431D01*
X129021915Y-112370409D01*
X129026000Y-112411890D01*
X129026000Y-113013110D01*
X129021915Y-113054591D01*
X129011607Y-113088569D01*
X128994866Y-113119890D01*
X128972339Y-113147339D01*
X128944890Y-113169866D01*
X128913569Y-113186607D01*
X128879591Y-113196915D01*
X128838110Y-113201000D01*
X128161890Y-113201000D01*
X128120409Y-113196915D01*
X128086431Y-113186607D01*
X128055110Y-113169866D01*
X128027661Y-113147339D01*
X128005134Y-113119890D01*
X127988393Y-113088569D01*
X127978085Y-113054591D01*
X127974000Y-113013110D01*
X127974000Y-112411890D01*
X127978085Y-112370409D01*
X127988393Y-112336431D01*
X128005134Y-112305110D01*
X128027661Y-112277661D01*
X128055110Y-112255134D01*
X128086431Y-112238393D01*
X128120409Y-112228085D01*
X128161890Y-112224000D01*
X128838110Y-112224000D01*
X128879591Y-112228085D01*
X128879591Y-112228085D01*
G37*
G36*
X137629591Y-112228085D02*
G01*
X137663569Y-112238393D01*
X137694890Y-112255134D01*
X137722339Y-112277661D01*
X137744866Y-112305110D01*
X137761607Y-112336431D01*
X137771915Y-112370409D01*
X137776000Y-112411890D01*
X137776000Y-113013110D01*
X137771915Y-113054591D01*
X137761607Y-113088569D01*
X137744866Y-113119890D01*
X137722339Y-113147339D01*
X137694890Y-113169866D01*
X137663569Y-113186607D01*
X137629591Y-113196915D01*
X137588110Y-113201000D01*
X136911890Y-113201000D01*
X136870409Y-113196915D01*
X136836431Y-113186607D01*
X136805110Y-113169866D01*
X136777661Y-113147339D01*
X136755134Y-113119890D01*
X136738393Y-113088569D01*
X136728085Y-113054591D01*
X136724000Y-113013110D01*
X136724000Y-112411890D01*
X136728085Y-112370409D01*
X136738393Y-112336431D01*
X136755134Y-112305110D01*
X136777661Y-112277661D01*
X136805110Y-112255134D01*
X136836431Y-112238393D01*
X136870409Y-112228085D01*
X136911890Y-112224000D01*
X137588110Y-112224000D01*
X137629591Y-112228085D01*
X137629591Y-112228085D01*
G37*
G36*
X151379591Y-112190585D02*
G01*
X151413569Y-112200893D01*
X151444890Y-112217634D01*
X151472339Y-112240161D01*
X151494866Y-112267610D01*
X151511607Y-112298931D01*
X151521915Y-112332909D01*
X151526000Y-112374390D01*
X151526000Y-112975610D01*
X151521915Y-113017091D01*
X151511607Y-113051069D01*
X151494866Y-113082390D01*
X151472339Y-113109839D01*
X151444890Y-113132366D01*
X151413569Y-113149107D01*
X151379591Y-113159415D01*
X151338110Y-113163500D01*
X150661890Y-113163500D01*
X150620409Y-113159415D01*
X150586431Y-113149107D01*
X150555110Y-113132366D01*
X150527661Y-113109839D01*
X150505134Y-113082390D01*
X150488393Y-113051069D01*
X150478085Y-113017091D01*
X150474000Y-112975610D01*
X150474000Y-112374390D01*
X150478085Y-112332909D01*
X150488393Y-112298931D01*
X150505134Y-112267610D01*
X150527661Y-112240161D01*
X150555110Y-112217634D01*
X150586431Y-112200893D01*
X150620409Y-112190585D01*
X150661890Y-112186500D01*
X151338110Y-112186500D01*
X151379591Y-112190585D01*
X151379591Y-112190585D01*
G37*
G36*
X144629591Y-112190585D02*
G01*
X144663569Y-112200893D01*
X144694890Y-112217634D01*
X144722339Y-112240161D01*
X144744866Y-112267610D01*
X144761607Y-112298931D01*
X144771915Y-112332909D01*
X144776000Y-112374390D01*
X144776000Y-112975610D01*
X144771915Y-113017091D01*
X144761607Y-113051069D01*
X144744866Y-113082390D01*
X144722339Y-113109839D01*
X144694890Y-113132366D01*
X144663569Y-113149107D01*
X144629591Y-113159415D01*
X144588110Y-113163500D01*
X143911890Y-113163500D01*
X143870409Y-113159415D01*
X143836431Y-113149107D01*
X143805110Y-113132366D01*
X143777661Y-113109839D01*
X143755134Y-113082390D01*
X143738393Y-113051069D01*
X143728085Y-113017091D01*
X143724000Y-112975610D01*
X143724000Y-112374390D01*
X143728085Y-112332909D01*
X143738393Y-112298931D01*
X143755134Y-112267610D01*
X143777661Y-112240161D01*
X143805110Y-112217634D01*
X143836431Y-112200893D01*
X143870409Y-112190585D01*
X143911890Y-112186500D01*
X144588110Y-112186500D01*
X144629591Y-112190585D01*
X144629591Y-112190585D01*
G37*
G36*
X160841000Y-113051000D02*
G01*
X155659000Y-113051000D01*
X155659000Y-111449000D01*
X160841000Y-111449000D01*
X160841000Y-113051000D01*
X160841000Y-113051000D01*
G37*
G36*
X129084468Y-110403565D02*
G01*
X129123138Y-110415296D01*
X129158777Y-110434346D01*
X129190017Y-110459983D01*
X129215654Y-110491223D01*
X129234704Y-110526862D01*
X129246435Y-110565532D01*
X129251000Y-110611888D01*
X129251000Y-111263112D01*
X129246435Y-111309468D01*
X129234704Y-111348138D01*
X129215654Y-111383777D01*
X129190017Y-111415017D01*
X129158777Y-111440654D01*
X129123138Y-111459704D01*
X129084468Y-111471435D01*
X129038112Y-111476000D01*
X127961888Y-111476000D01*
X127915532Y-111471435D01*
X127876862Y-111459704D01*
X127841223Y-111440654D01*
X127809983Y-111415017D01*
X127784346Y-111383777D01*
X127765296Y-111348138D01*
X127753565Y-111309468D01*
X127749000Y-111263112D01*
X127749000Y-110611888D01*
X127753565Y-110565532D01*
X127765296Y-110526862D01*
X127784346Y-110491223D01*
X127809983Y-110459983D01*
X127841223Y-110434346D01*
X127876862Y-110415296D01*
X127915532Y-110403565D01*
X127961888Y-110399000D01*
X129038112Y-110399000D01*
X129084468Y-110403565D01*
X129084468Y-110403565D01*
G37*
G36*
X148809468Y-109753565D02*
G01*
X148848138Y-109765296D01*
X148883777Y-109784346D01*
X148915017Y-109809983D01*
X148940654Y-109841223D01*
X148959704Y-109876862D01*
X148971435Y-109915532D01*
X148976000Y-109961888D01*
X148976000Y-111038112D01*
X148971435Y-111084468D01*
X148959704Y-111123138D01*
X148940654Y-111158777D01*
X148915017Y-111190017D01*
X148883777Y-111215654D01*
X148848138Y-111234704D01*
X148809468Y-111246435D01*
X148763112Y-111251000D01*
X148111888Y-111251000D01*
X148065532Y-111246435D01*
X148026862Y-111234704D01*
X147991223Y-111215654D01*
X147959983Y-111190017D01*
X147934346Y-111158777D01*
X147915296Y-111123138D01*
X147903565Y-111084468D01*
X147899000Y-111038112D01*
X147899000Y-109961888D01*
X147903565Y-109915532D01*
X147915296Y-109876862D01*
X147934346Y-109841223D01*
X147959983Y-109809983D01*
X147991223Y-109784346D01*
X148026862Y-109765296D01*
X148065532Y-109753565D01*
X148111888Y-109749000D01*
X148763112Y-109749000D01*
X148809468Y-109753565D01*
X148809468Y-109753565D01*
G37*
G36*
X146934468Y-109753565D02*
G01*
X146973138Y-109765296D01*
X147008777Y-109784346D01*
X147040017Y-109809983D01*
X147065654Y-109841223D01*
X147084704Y-109876862D01*
X147096435Y-109915532D01*
X147101000Y-109961888D01*
X147101000Y-111038112D01*
X147096435Y-111084468D01*
X147084704Y-111123138D01*
X147065654Y-111158777D01*
X147040017Y-111190017D01*
X147008777Y-111215654D01*
X146973138Y-111234704D01*
X146934468Y-111246435D01*
X146888112Y-111251000D01*
X146236888Y-111251000D01*
X146190532Y-111246435D01*
X146151862Y-111234704D01*
X146116223Y-111215654D01*
X146084983Y-111190017D01*
X146059346Y-111158777D01*
X146040296Y-111123138D01*
X146028565Y-111084468D01*
X146024000Y-111038112D01*
X146024000Y-109961888D01*
X146028565Y-109915532D01*
X146040296Y-109876862D01*
X146059346Y-109841223D01*
X146084983Y-109809983D01*
X146116223Y-109784346D01*
X146151862Y-109765296D01*
X146190532Y-109753565D01*
X146236888Y-109749000D01*
X146888112Y-109749000D01*
X146934468Y-109753565D01*
X146934468Y-109753565D01*
G37*
G36*
X142059468Y-109753565D02*
G01*
X142098138Y-109765296D01*
X142133777Y-109784346D01*
X142165017Y-109809983D01*
X142190654Y-109841223D01*
X142209704Y-109876862D01*
X142221435Y-109915532D01*
X142226000Y-109961888D01*
X142226000Y-111038112D01*
X142221435Y-111084468D01*
X142209704Y-111123138D01*
X142190654Y-111158777D01*
X142165017Y-111190017D01*
X142133777Y-111215654D01*
X142098138Y-111234704D01*
X142059468Y-111246435D01*
X142013112Y-111251000D01*
X141361888Y-111251000D01*
X141315532Y-111246435D01*
X141276862Y-111234704D01*
X141241223Y-111215654D01*
X141209983Y-111190017D01*
X141184346Y-111158777D01*
X141165296Y-111123138D01*
X141153565Y-111084468D01*
X141149000Y-111038112D01*
X141149000Y-109961888D01*
X141153565Y-109915532D01*
X141165296Y-109876862D01*
X141184346Y-109841223D01*
X141209983Y-109809983D01*
X141241223Y-109784346D01*
X141276862Y-109765296D01*
X141315532Y-109753565D01*
X141361888Y-109749000D01*
X142013112Y-109749000D01*
X142059468Y-109753565D01*
X142059468Y-109753565D01*
G37*
G36*
X132934468Y-109753565D02*
G01*
X132973138Y-109765296D01*
X133008777Y-109784346D01*
X133040017Y-109809983D01*
X133065654Y-109841223D01*
X133084704Y-109876862D01*
X133096435Y-109915532D01*
X133101000Y-109961888D01*
X133101000Y-111038112D01*
X133096435Y-111084468D01*
X133084704Y-111123138D01*
X133065654Y-111158777D01*
X133040017Y-111190017D01*
X133008777Y-111215654D01*
X132973138Y-111234704D01*
X132934468Y-111246435D01*
X132888112Y-111251000D01*
X132236888Y-111251000D01*
X132190532Y-111246435D01*
X132151862Y-111234704D01*
X132116223Y-111215654D01*
X132084983Y-111190017D01*
X132059346Y-111158777D01*
X132040296Y-111123138D01*
X132028565Y-111084468D01*
X132024000Y-111038112D01*
X132024000Y-109961888D01*
X132028565Y-109915532D01*
X132040296Y-109876862D01*
X132059346Y-109841223D01*
X132084983Y-109809983D01*
X132116223Y-109784346D01*
X132151862Y-109765296D01*
X132190532Y-109753565D01*
X132236888Y-109749000D01*
X132888112Y-109749000D01*
X132934468Y-109753565D01*
X132934468Y-109753565D01*
G37*
G36*
X140184468Y-109753565D02*
G01*
X140223138Y-109765296D01*
X140258777Y-109784346D01*
X140290017Y-109809983D01*
X140315654Y-109841223D01*
X140334704Y-109876862D01*
X140346435Y-109915532D01*
X140351000Y-109961888D01*
X140351000Y-111038112D01*
X140346435Y-111084468D01*
X140334704Y-111123138D01*
X140315654Y-111158777D01*
X140290017Y-111190017D01*
X140258777Y-111215654D01*
X140223138Y-111234704D01*
X140184468Y-111246435D01*
X140138112Y-111251000D01*
X139486888Y-111251000D01*
X139440532Y-111246435D01*
X139401862Y-111234704D01*
X139366223Y-111215654D01*
X139334983Y-111190017D01*
X139309346Y-111158777D01*
X139290296Y-111123138D01*
X139278565Y-111084468D01*
X139274000Y-111038112D01*
X139274000Y-109961888D01*
X139278565Y-109915532D01*
X139290296Y-109876862D01*
X139309346Y-109841223D01*
X139334983Y-109809983D01*
X139366223Y-109784346D01*
X139401862Y-109765296D01*
X139440532Y-109753565D01*
X139486888Y-109749000D01*
X140138112Y-109749000D01*
X140184468Y-109753565D01*
X140184468Y-109753565D01*
G37*
G36*
X134809468Y-109753565D02*
G01*
X134848138Y-109765296D01*
X134883777Y-109784346D01*
X134915017Y-109809983D01*
X134940654Y-109841223D01*
X134959704Y-109876862D01*
X134971435Y-109915532D01*
X134976000Y-109961888D01*
X134976000Y-111038112D01*
X134971435Y-111084468D01*
X134959704Y-111123138D01*
X134940654Y-111158777D01*
X134915017Y-111190017D01*
X134883777Y-111215654D01*
X134848138Y-111234704D01*
X134809468Y-111246435D01*
X134763112Y-111251000D01*
X134111888Y-111251000D01*
X134065532Y-111246435D01*
X134026862Y-111234704D01*
X133991223Y-111215654D01*
X133959983Y-111190017D01*
X133934346Y-111158777D01*
X133915296Y-111123138D01*
X133903565Y-111084468D01*
X133899000Y-111038112D01*
X133899000Y-109961888D01*
X133903565Y-109915532D01*
X133915296Y-109876862D01*
X133934346Y-109841223D01*
X133959983Y-109809983D01*
X133991223Y-109784346D01*
X134026862Y-109765296D01*
X134065532Y-109753565D01*
X134111888Y-109749000D01*
X134763112Y-109749000D01*
X134809468Y-109753565D01*
X134809468Y-109753565D01*
G37*
G36*
X129084468Y-108528565D02*
G01*
X129123138Y-108540296D01*
X129158777Y-108559346D01*
X129190017Y-108584983D01*
X129215654Y-108616223D01*
X129234704Y-108651862D01*
X129246435Y-108690532D01*
X129251000Y-108736888D01*
X129251000Y-109388112D01*
X129246435Y-109434468D01*
X129234704Y-109473138D01*
X129215654Y-109508777D01*
X129190017Y-109540017D01*
X129158777Y-109565654D01*
X129123138Y-109584704D01*
X129084468Y-109596435D01*
X129038112Y-109601000D01*
X127961888Y-109601000D01*
X127915532Y-109596435D01*
X127876862Y-109584704D01*
X127841223Y-109565654D01*
X127809983Y-109540017D01*
X127784346Y-109508777D01*
X127765296Y-109473138D01*
X127753565Y-109434468D01*
X127749000Y-109388112D01*
X127749000Y-108736888D01*
X127753565Y-108690532D01*
X127765296Y-108651862D01*
X127784346Y-108616223D01*
X127809983Y-108584983D01*
X127841223Y-108559346D01*
X127876862Y-108540296D01*
X127915532Y-108528565D01*
X127961888Y-108524000D01*
X129038112Y-108524000D01*
X129084468Y-108528565D01*
X129084468Y-108528565D01*
G37*
G36*
X121341000Y-109051000D02*
G01*
X116159000Y-109051000D01*
X116159000Y-107449000D01*
X121341000Y-107449000D01*
X121341000Y-109051000D01*
X121341000Y-109051000D01*
G37*
G36*
X160841000Y-108801000D02*
G01*
X155659000Y-108801000D01*
X155659000Y-107199000D01*
X160841000Y-107199000D01*
X160841000Y-108801000D01*
X160841000Y-108801000D01*
G37*
M02*
