M48
; DRILL file {KiCad (5.1.4)-1} date 12-12-2019 20:41:32
; FORMAT={-:-/ absolute / metric / decimal}
; #@! TF.CreationDate,2019-12-12T20:41:32+01:00
; #@! TF.GenerationSoftware,Kicad,Pcbnew,(5.1.4)-1
FMAT,2
METRIC
T1C0.400
%
G90
G05
T1
X117.0Y-102.0
X117.0Y-106.0
X117.0Y-110.0
X117.0Y-115.0
X117.0Y-119.0
X117.0Y-123.0
X120.0Y-101.0
X120.0Y-106.0
X120.0Y-110.0
X120.0Y-115.0
X120.0Y-119.0
X120.0Y-124.0
X123.0Y-108.0
X123.0Y-111.0
X123.0Y-114.0
X123.0Y-117.0
X124.0Y-124.0
X125.0Y-100.5
X126.0Y-99.0
X126.0Y-111.0
X126.0Y-114.0
X126.0Y-126.0
X127.0Y-96.0
X127.0Y-129.0
X131.0Y-96.0
X131.0Y-129.0
X135.0Y-96.0
X135.0Y-129.0
X137.25Y-115.5
X139.0Y-96.0
X139.0Y-129.0
X143.0Y-96.0
X143.0Y-129.0
X145.0Y-115.5
X147.0Y-96.0
X147.0Y-129.0
X150.25Y-128.5
X150.5Y-125.5
X151.0Y-96.0
X153.75Y-111.0
X154.0Y-116.5
X154.0Y-124.0
X154.25Y-108.0
X157.25Y-119.0
X157.5Y-124.0
X158.0Y-105.75
X158.0Y-109.5
X158.0Y-114.75
X159.75Y-119.0
X159.75Y-122.5
T0
M30
