G04 #@! TF.GenerationSoftware,KiCad,Pcbnew,(5.1.4)-1*
G04 #@! TF.CreationDate,2019-12-12T20:41:28+01:00*
G04 #@! TF.ProjectId,30mhzLP,33306d68-7a4c-4502-9e6b-696361645f70,rev?*
G04 #@! TF.SameCoordinates,Original*
G04 #@! TF.FileFunction,Legend,Top*
G04 #@! TF.FilePolarity,Positive*
%FSLAX46Y46*%
G04 Gerber Fmt 4.6, Leading zero omitted, Abs format (unit mm)*
G04 Created by KiCad (PCBNEW (5.1.4)-1) date 2019-12-12 20:41:28*
%MOMM*%
%LPD*%
G04 APERTURE LIST*
%ADD10C,0.300000*%
%ADD11C,0.120000*%
%ADD12C,0.150000*%
G04 APERTURE END LIST*
D10*
X130952380Y-118802976D02*
X131785714Y-118802976D01*
X131250000Y-120052976D01*
X132083333Y-119219642D02*
X132559523Y-119219642D01*
X132261904Y-118802976D02*
X132261904Y-119874404D01*
X132321428Y-119993452D01*
X132440476Y-120052976D01*
X132559523Y-120052976D01*
X132976190Y-120052976D02*
X132976190Y-118802976D01*
X133511904Y-120052976D02*
X133511904Y-119398214D01*
X133452380Y-119279166D01*
X133333333Y-119219642D01*
X133154761Y-119219642D01*
X133035714Y-119279166D01*
X132976190Y-119338690D01*
X135238095Y-120052976D02*
X135119047Y-119993452D01*
X135059523Y-119933928D01*
X135000000Y-119814880D01*
X135000000Y-119457738D01*
X135059523Y-119338690D01*
X135119047Y-119279166D01*
X135238095Y-119219642D01*
X135416666Y-119219642D01*
X135535714Y-119279166D01*
X135595238Y-119338690D01*
X135654761Y-119457738D01*
X135654761Y-119814880D01*
X135595238Y-119933928D01*
X135535714Y-119993452D01*
X135416666Y-120052976D01*
X135238095Y-120052976D01*
X136190476Y-120052976D02*
X136190476Y-119219642D01*
X136190476Y-119457738D02*
X136250000Y-119338690D01*
X136309523Y-119279166D01*
X136428571Y-119219642D01*
X136547619Y-119219642D01*
X137500000Y-120052976D02*
X137500000Y-118802976D01*
X137500000Y-119993452D02*
X137380952Y-120052976D01*
X137142857Y-120052976D01*
X137023809Y-119993452D01*
X136964285Y-119933928D01*
X136904761Y-119814880D01*
X136904761Y-119457738D01*
X136964285Y-119338690D01*
X137023809Y-119279166D01*
X137142857Y-119219642D01*
X137380952Y-119219642D01*
X137500000Y-119279166D01*
X138571428Y-119993452D02*
X138452380Y-120052976D01*
X138214285Y-120052976D01*
X138095238Y-119993452D01*
X138035714Y-119874404D01*
X138035714Y-119398214D01*
X138095238Y-119279166D01*
X138214285Y-119219642D01*
X138452380Y-119219642D01*
X138571428Y-119279166D01*
X138630952Y-119398214D01*
X138630952Y-119517261D01*
X138035714Y-119636309D01*
X139166666Y-120052976D02*
X139166666Y-119219642D01*
X139166666Y-119457738D02*
X139226190Y-119338690D01*
X139285714Y-119279166D01*
X139404761Y-119219642D01*
X139523809Y-119219642D01*
X140773809Y-118802976D02*
X141547619Y-118802976D01*
X141130952Y-119279166D01*
X141309523Y-119279166D01*
X141428571Y-119338690D01*
X141488095Y-119398214D01*
X141547619Y-119517261D01*
X141547619Y-119814880D01*
X141488095Y-119933928D01*
X141428571Y-119993452D01*
X141309523Y-120052976D01*
X140952380Y-120052976D01*
X140833333Y-119993452D01*
X140773809Y-119933928D01*
X142321428Y-118802976D02*
X142440476Y-118802976D01*
X142559523Y-118862500D01*
X142619047Y-118922023D01*
X142678571Y-119041071D01*
X142738095Y-119279166D01*
X142738095Y-119576785D01*
X142678571Y-119814880D01*
X142619047Y-119933928D01*
X142559523Y-119993452D01*
X142440476Y-120052976D01*
X142321428Y-120052976D01*
X142202380Y-119993452D01*
X142142857Y-119933928D01*
X142083333Y-119814880D01*
X142023809Y-119576785D01*
X142023809Y-119279166D01*
X142083333Y-119041071D01*
X142142857Y-118922023D01*
X142202380Y-118862500D01*
X142321428Y-118802976D01*
X143273809Y-120052976D02*
X143273809Y-118802976D01*
X143690476Y-119695833D01*
X144107142Y-118802976D01*
X144107142Y-120052976D01*
X144702380Y-120052976D02*
X144702380Y-118802976D01*
X144702380Y-119398214D02*
X145416666Y-119398214D01*
X145416666Y-120052976D02*
X145416666Y-118802976D01*
X145892857Y-119219642D02*
X146547619Y-119219642D01*
X145892857Y-120052976D01*
X146547619Y-120052976D01*
X131547619Y-122227976D02*
X130952380Y-122227976D01*
X130952380Y-120977976D01*
X132142857Y-122227976D02*
X132023809Y-122168452D01*
X131964285Y-122108928D01*
X131904761Y-121989880D01*
X131904761Y-121632738D01*
X131964285Y-121513690D01*
X132023809Y-121454166D01*
X132142857Y-121394642D01*
X132321428Y-121394642D01*
X132440476Y-121454166D01*
X132500000Y-121513690D01*
X132559523Y-121632738D01*
X132559523Y-121989880D01*
X132500000Y-122108928D01*
X132440476Y-122168452D01*
X132321428Y-122227976D01*
X132142857Y-122227976D01*
X132976190Y-121394642D02*
X133214285Y-122227976D01*
X133452380Y-121632738D01*
X133690476Y-122227976D01*
X133928571Y-121394642D01*
X134404761Y-121394642D02*
X134404761Y-122644642D01*
X134404761Y-121454166D02*
X134523809Y-121394642D01*
X134761904Y-121394642D01*
X134880952Y-121454166D01*
X134940476Y-121513690D01*
X135000000Y-121632738D01*
X135000000Y-121989880D01*
X134940476Y-122108928D01*
X134880952Y-122168452D01*
X134761904Y-122227976D01*
X134523809Y-122227976D01*
X134404761Y-122168452D01*
X136071428Y-122227976D02*
X136071428Y-121573214D01*
X136011904Y-121454166D01*
X135892857Y-121394642D01*
X135654761Y-121394642D01*
X135535714Y-121454166D01*
X136071428Y-122168452D02*
X135952380Y-122227976D01*
X135654761Y-122227976D01*
X135535714Y-122168452D01*
X135476190Y-122049404D01*
X135476190Y-121930357D01*
X135535714Y-121811309D01*
X135654761Y-121751785D01*
X135952380Y-121751785D01*
X136071428Y-121692261D01*
X136607142Y-122168452D02*
X136726190Y-122227976D01*
X136964285Y-122227976D01*
X137083333Y-122168452D01*
X137142857Y-122049404D01*
X137142857Y-121989880D01*
X137083333Y-121870833D01*
X136964285Y-121811309D01*
X136785714Y-121811309D01*
X136666666Y-121751785D01*
X136607142Y-121632738D01*
X136607142Y-121573214D01*
X136666666Y-121454166D01*
X136785714Y-121394642D01*
X136964285Y-121394642D01*
X137083333Y-121454166D01*
X137619047Y-122168452D02*
X137738095Y-122227976D01*
X137976190Y-122227976D01*
X138095238Y-122168452D01*
X138154761Y-122049404D01*
X138154761Y-121989880D01*
X138095238Y-121870833D01*
X137976190Y-121811309D01*
X137797619Y-121811309D01*
X137678571Y-121751785D01*
X137619047Y-121632738D01*
X137619047Y-121573214D01*
X137678571Y-121454166D01*
X137797619Y-121394642D01*
X137976190Y-121394642D01*
X138095238Y-121454166D01*
X139642857Y-121573214D02*
X140059523Y-121573214D01*
X140238095Y-122227976D02*
X139642857Y-122227976D01*
X139642857Y-120977976D01*
X140238095Y-120977976D01*
X140952380Y-122227976D02*
X140833333Y-122168452D01*
X140773809Y-122049404D01*
X140773809Y-120977976D01*
X141607142Y-122227976D02*
X141488095Y-122168452D01*
X141428571Y-122049404D01*
X141428571Y-120977976D01*
X142083333Y-122227976D02*
X142083333Y-121394642D01*
X142083333Y-120977976D02*
X142023809Y-121037500D01*
X142083333Y-121097023D01*
X142142857Y-121037500D01*
X142083333Y-120977976D01*
X142083333Y-121097023D01*
X142678571Y-121394642D02*
X142678571Y-122644642D01*
X142678571Y-121454166D02*
X142797619Y-121394642D01*
X143035714Y-121394642D01*
X143154761Y-121454166D01*
X143214285Y-121513690D01*
X143273809Y-121632738D01*
X143273809Y-121989880D01*
X143214285Y-122108928D01*
X143154761Y-122168452D01*
X143035714Y-122227976D01*
X142797619Y-122227976D01*
X142678571Y-122168452D01*
X143630952Y-121394642D02*
X144107142Y-121394642D01*
X143809523Y-120977976D02*
X143809523Y-122049404D01*
X143869047Y-122168452D01*
X143988095Y-122227976D01*
X144107142Y-122227976D01*
X144523809Y-122227976D02*
X144523809Y-121394642D01*
X144523809Y-120977976D02*
X144464285Y-121037500D01*
X144523809Y-121097023D01*
X144583333Y-121037500D01*
X144523809Y-120977976D01*
X144523809Y-121097023D01*
X145654761Y-122168452D02*
X145535714Y-122227976D01*
X145297619Y-122227976D01*
X145178571Y-122168452D01*
X145119047Y-122108928D01*
X145059523Y-121989880D01*
X145059523Y-121632738D01*
X145119047Y-121513690D01*
X145178571Y-121454166D01*
X145297619Y-121394642D01*
X145535714Y-121394642D01*
X145654761Y-121454166D01*
X133333333Y-124402976D02*
X132916666Y-123807738D01*
X132619047Y-124402976D02*
X132619047Y-123152976D01*
X133095238Y-123152976D01*
X133214285Y-123212500D01*
X133273809Y-123272023D01*
X133333333Y-123391071D01*
X133333333Y-123569642D01*
X133273809Y-123688690D01*
X133214285Y-123748214D01*
X133095238Y-123807738D01*
X132619047Y-123807738D01*
X133869047Y-124402976D02*
X133869047Y-123569642D01*
X133869047Y-123152976D02*
X133809523Y-123212500D01*
X133869047Y-123272023D01*
X133928571Y-123212500D01*
X133869047Y-123152976D01*
X133869047Y-123272023D01*
X134464285Y-123569642D02*
X134464285Y-124819642D01*
X134464285Y-123629166D02*
X134583333Y-123569642D01*
X134821428Y-123569642D01*
X134940476Y-123629166D01*
X135000000Y-123688690D01*
X135059523Y-123807738D01*
X135059523Y-124164880D01*
X135000000Y-124283928D01*
X134940476Y-124343452D01*
X134821428Y-124402976D01*
X134583333Y-124402976D01*
X134464285Y-124343452D01*
X135595238Y-123569642D02*
X135595238Y-124819642D01*
X135595238Y-123629166D02*
X135714285Y-123569642D01*
X135952380Y-123569642D01*
X136071428Y-123629166D01*
X136130952Y-123688690D01*
X136190476Y-123807738D01*
X136190476Y-124164880D01*
X136130952Y-124283928D01*
X136071428Y-124343452D01*
X135952380Y-124402976D01*
X135714285Y-124402976D01*
X135595238Y-124343452D01*
X136904761Y-124402976D02*
X136785714Y-124343452D01*
X136726190Y-124224404D01*
X136726190Y-123152976D01*
X137857142Y-124343452D02*
X137738095Y-124402976D01*
X137500000Y-124402976D01*
X137380952Y-124343452D01*
X137321428Y-124224404D01*
X137321428Y-123748214D01*
X137380952Y-123629166D01*
X137500000Y-123569642D01*
X137738095Y-123569642D01*
X137857142Y-123629166D01*
X137916666Y-123748214D01*
X137916666Y-123867261D01*
X137321428Y-123986309D01*
X139404761Y-123926785D02*
X140357142Y-123926785D01*
X140833333Y-123152976D02*
X141607142Y-123152976D01*
X141190476Y-123629166D01*
X141369047Y-123629166D01*
X141488095Y-123688690D01*
X141547619Y-123748214D01*
X141607142Y-123867261D01*
X141607142Y-124164880D01*
X141547619Y-124283928D01*
X141488095Y-124343452D01*
X141369047Y-124402976D01*
X141011904Y-124402976D01*
X140892857Y-124343452D01*
X140833333Y-124283928D01*
X142678571Y-124402976D02*
X142678571Y-123152976D01*
X142678571Y-124343452D02*
X142559523Y-124402976D01*
X142321428Y-124402976D01*
X142202380Y-124343452D01*
X142142857Y-124283928D01*
X142083333Y-124164880D01*
X142083333Y-123807738D01*
X142142857Y-123688690D01*
X142202380Y-123629166D01*
X142321428Y-123569642D01*
X142559523Y-123569642D01*
X142678571Y-123629166D01*
X143690476Y-123748214D02*
X143869047Y-123807738D01*
X143928571Y-123867261D01*
X143988095Y-123986309D01*
X143988095Y-124164880D01*
X143928571Y-124283928D01*
X143869047Y-124343452D01*
X143750000Y-124402976D01*
X143273809Y-124402976D01*
X143273809Y-123152976D01*
X143690476Y-123152976D01*
X143809523Y-123212500D01*
X143869047Y-123272023D01*
X143928571Y-123391071D01*
X143928571Y-123510119D01*
X143869047Y-123629166D01*
X143809523Y-123688690D01*
X143690476Y-123748214D01*
X143273809Y-123748214D01*
X131011904Y-126518452D02*
X131190476Y-126577976D01*
X131488095Y-126577976D01*
X131607142Y-126518452D01*
X131666666Y-126458928D01*
X131726190Y-126339880D01*
X131726190Y-126220833D01*
X131666666Y-126101785D01*
X131607142Y-126042261D01*
X131488095Y-125982738D01*
X131250000Y-125923214D01*
X131130952Y-125863690D01*
X131071428Y-125804166D01*
X131011904Y-125685119D01*
X131011904Y-125566071D01*
X131071428Y-125447023D01*
X131130952Y-125387500D01*
X131250000Y-125327976D01*
X131547619Y-125327976D01*
X131726190Y-125387500D01*
X132083333Y-125744642D02*
X132559523Y-125744642D01*
X132261904Y-125327976D02*
X132261904Y-126399404D01*
X132321428Y-126518452D01*
X132440476Y-126577976D01*
X132559523Y-126577976D01*
X133154761Y-126577976D02*
X133035714Y-126518452D01*
X132976190Y-126458928D01*
X132916666Y-126339880D01*
X132916666Y-125982738D01*
X132976190Y-125863690D01*
X133035714Y-125804166D01*
X133154761Y-125744642D01*
X133333333Y-125744642D01*
X133452380Y-125804166D01*
X133511904Y-125863690D01*
X133571428Y-125982738D01*
X133571428Y-126339880D01*
X133511904Y-126458928D01*
X133452380Y-126518452D01*
X133333333Y-126577976D01*
X133154761Y-126577976D01*
X134107142Y-125744642D02*
X134107142Y-126994642D01*
X134107142Y-125804166D02*
X134226190Y-125744642D01*
X134464285Y-125744642D01*
X134583333Y-125804166D01*
X134642857Y-125863690D01*
X134702380Y-125982738D01*
X134702380Y-126339880D01*
X134642857Y-126458928D01*
X134583333Y-126518452D01*
X134464285Y-126577976D01*
X134226190Y-126577976D01*
X134107142Y-126518452D01*
X135238095Y-126577976D02*
X135238095Y-125327976D01*
X135238095Y-125804166D02*
X135357142Y-125744642D01*
X135595238Y-125744642D01*
X135714285Y-125804166D01*
X135773809Y-125863690D01*
X135833333Y-125982738D01*
X135833333Y-126339880D01*
X135773809Y-126458928D01*
X135714285Y-126518452D01*
X135595238Y-126577976D01*
X135357142Y-126577976D01*
X135238095Y-126518452D01*
X136904761Y-126577976D02*
X136904761Y-125923214D01*
X136845238Y-125804166D01*
X136726190Y-125744642D01*
X136488095Y-125744642D01*
X136369047Y-125804166D01*
X136904761Y-126518452D02*
X136785714Y-126577976D01*
X136488095Y-126577976D01*
X136369047Y-126518452D01*
X136309523Y-126399404D01*
X136309523Y-126280357D01*
X136369047Y-126161309D01*
X136488095Y-126101785D01*
X136785714Y-126101785D01*
X136904761Y-126042261D01*
X137500000Y-125744642D02*
X137500000Y-126577976D01*
X137500000Y-125863690D02*
X137559523Y-125804166D01*
X137678571Y-125744642D01*
X137857142Y-125744642D01*
X137976190Y-125804166D01*
X138035714Y-125923214D01*
X138035714Y-126577976D01*
X139166666Y-126577976D02*
X139166666Y-125327976D01*
X139166666Y-126518452D02*
X139047619Y-126577976D01*
X138809523Y-126577976D01*
X138690476Y-126518452D01*
X138630952Y-126458928D01*
X138571428Y-126339880D01*
X138571428Y-125982738D01*
X138630952Y-125863690D01*
X138690476Y-125804166D01*
X138809523Y-125744642D01*
X139047619Y-125744642D01*
X139166666Y-125804166D01*
X140714285Y-126101785D02*
X141666666Y-126101785D01*
X142797619Y-125327976D02*
X142559523Y-125327976D01*
X142440476Y-125387500D01*
X142380952Y-125447023D01*
X142261904Y-125625595D01*
X142202380Y-125863690D01*
X142202380Y-126339880D01*
X142261904Y-126458928D01*
X142321428Y-126518452D01*
X142440476Y-126577976D01*
X142678571Y-126577976D01*
X142797619Y-126518452D01*
X142857142Y-126458928D01*
X142916666Y-126339880D01*
X142916666Y-126042261D01*
X142857142Y-125923214D01*
X142797619Y-125863690D01*
X142678571Y-125804166D01*
X142440476Y-125804166D01*
X142321428Y-125863690D01*
X142261904Y-125923214D01*
X142202380Y-126042261D01*
X143690476Y-125327976D02*
X143809523Y-125327976D01*
X143928571Y-125387500D01*
X143988095Y-125447023D01*
X144047619Y-125566071D01*
X144107142Y-125804166D01*
X144107142Y-126101785D01*
X144047619Y-126339880D01*
X143988095Y-126458928D01*
X143928571Y-126518452D01*
X143809523Y-126577976D01*
X143690476Y-126577976D01*
X143571428Y-126518452D01*
X143511904Y-126458928D01*
X143452380Y-126339880D01*
X143392857Y-126101785D01*
X143392857Y-125804166D01*
X143452380Y-125566071D01*
X143511904Y-125447023D01*
X143571428Y-125387500D01*
X143690476Y-125327976D01*
X145178571Y-126577976D02*
X145178571Y-125327976D01*
X145178571Y-126518452D02*
X145059523Y-126577976D01*
X144821428Y-126577976D01*
X144702380Y-126518452D01*
X144642857Y-126458928D01*
X144583333Y-126339880D01*
X144583333Y-125982738D01*
X144642857Y-125863690D01*
X144702380Y-125804166D01*
X144821428Y-125744642D01*
X145059523Y-125744642D01*
X145178571Y-125804166D01*
X146190476Y-125923214D02*
X146369047Y-125982738D01*
X146428571Y-126042261D01*
X146488095Y-126161309D01*
X146488095Y-126339880D01*
X146428571Y-126458928D01*
X146369047Y-126518452D01*
X146250000Y-126577976D01*
X145773809Y-126577976D01*
X145773809Y-125327976D01*
X146190476Y-125327976D01*
X146309523Y-125387500D01*
X146369047Y-125447023D01*
X146428571Y-125566071D01*
X146428571Y-125685119D01*
X146369047Y-125804166D01*
X146309523Y-125863690D01*
X146190476Y-125923214D01*
X145773809Y-125923214D01*
X133041666Y-100620833D02*
X133636904Y-100620833D01*
X132922619Y-100977976D02*
X133339285Y-99727976D01*
X133755952Y-100977976D01*
X133994047Y-99727976D02*
X134708333Y-99727976D01*
X134351190Y-100977976D02*
X134351190Y-99727976D01*
X135125000Y-100977976D02*
X135125000Y-99727976D01*
X135125000Y-100323214D02*
X135839285Y-100323214D01*
X135839285Y-100977976D02*
X135839285Y-99727976D01*
X136434523Y-100977976D02*
X136434523Y-99727976D01*
X137744047Y-100977976D02*
X137327380Y-100382738D01*
X137029761Y-100977976D02*
X137029761Y-99727976D01*
X137505952Y-99727976D01*
X137625000Y-99787500D01*
X137684523Y-99847023D01*
X137744047Y-99966071D01*
X137744047Y-100144642D01*
X137684523Y-100263690D01*
X137625000Y-100323214D01*
X137505952Y-100382738D01*
X137029761Y-100382738D01*
X139232142Y-100501785D02*
X140184523Y-100501785D01*
X142386904Y-100977976D02*
X141672619Y-100977976D01*
X142029761Y-100977976D02*
X142029761Y-99727976D01*
X141910714Y-99906547D01*
X141791666Y-100025595D01*
X141672619Y-100085119D01*
X142982142Y-100977976D02*
X143220238Y-100977976D01*
X143339285Y-100918452D01*
X143398809Y-100858928D01*
X143517857Y-100680357D01*
X143577380Y-100442261D01*
X143577380Y-99966071D01*
X143517857Y-99847023D01*
X143458333Y-99787500D01*
X143339285Y-99727976D01*
X143101190Y-99727976D01*
X142982142Y-99787500D01*
X142922619Y-99847023D01*
X142863095Y-99966071D01*
X142863095Y-100263690D01*
X142922619Y-100382738D01*
X142982142Y-100442261D01*
X143101190Y-100501785D01*
X143339285Y-100501785D01*
X143458333Y-100442261D01*
X143517857Y-100382738D01*
X143577380Y-100263690D01*
X144708333Y-99727976D02*
X144113095Y-99727976D01*
X144053571Y-100323214D01*
X144113095Y-100263690D01*
X144232142Y-100204166D01*
X144529761Y-100204166D01*
X144648809Y-100263690D01*
X144708333Y-100323214D01*
X144767857Y-100442261D01*
X144767857Y-100739880D01*
X144708333Y-100858928D01*
X144648809Y-100918452D01*
X144529761Y-100977976D01*
X144232142Y-100977976D01*
X144113095Y-100918452D01*
X144053571Y-100858928D01*
X145541666Y-99727976D02*
X145660714Y-99727976D01*
X145779761Y-99787500D01*
X145839285Y-99847023D01*
X145898809Y-99966071D01*
X145958333Y-100204166D01*
X145958333Y-100501785D01*
X145898809Y-100739880D01*
X145839285Y-100858928D01*
X145779761Y-100918452D01*
X145660714Y-100977976D01*
X145541666Y-100977976D01*
X145422619Y-100918452D01*
X145363095Y-100858928D01*
X145303571Y-100739880D01*
X145244047Y-100501785D01*
X145244047Y-100204166D01*
X145303571Y-99966071D01*
X145363095Y-99847023D01*
X145422619Y-99787500D01*
X145541666Y-99727976D01*
X137505952Y-103152976D02*
X137089285Y-102557738D01*
X136791666Y-103152976D02*
X136791666Y-101902976D01*
X137267857Y-101902976D01*
X137386904Y-101962500D01*
X137446428Y-102022023D01*
X137505952Y-102141071D01*
X137505952Y-102319642D01*
X137446428Y-102438690D01*
X137386904Y-102498214D01*
X137267857Y-102557738D01*
X136791666Y-102557738D01*
X138517857Y-103093452D02*
X138398809Y-103152976D01*
X138160714Y-103152976D01*
X138041666Y-103093452D01*
X137982142Y-102974404D01*
X137982142Y-102498214D01*
X138041666Y-102379166D01*
X138160714Y-102319642D01*
X138398809Y-102319642D01*
X138517857Y-102379166D01*
X138577380Y-102498214D01*
X138577380Y-102617261D01*
X137982142Y-102736309D01*
X138994047Y-102319642D02*
X139291666Y-103152976D01*
X139589285Y-102319642D01*
X140065476Y-103033928D02*
X140125000Y-103093452D01*
X140065476Y-103152976D01*
X140005952Y-103093452D01*
X140065476Y-103033928D01*
X140065476Y-103152976D01*
X141553571Y-102022023D02*
X141613095Y-101962500D01*
X141732142Y-101902976D01*
X142029761Y-101902976D01*
X142148809Y-101962500D01*
X142208333Y-102022023D01*
X142267857Y-102141071D01*
X142267857Y-102260119D01*
X142208333Y-102438690D01*
X141494047Y-103152976D01*
X142267857Y-103152976D01*
D11*
X129210000Y-110258578D02*
X129210000Y-109741422D01*
X127790000Y-110258578D02*
X127790000Y-109741422D01*
X147241422Y-111210000D02*
X147758578Y-111210000D01*
X147241422Y-109790000D02*
X147758578Y-109790000D01*
X140491422Y-111210000D02*
X141008578Y-111210000D01*
X140491422Y-109790000D02*
X141008578Y-109790000D01*
X133241422Y-111210000D02*
X133758578Y-111210000D01*
X133241422Y-109790000D02*
X133758578Y-109790000D01*
X155040000Y-112250000D02*
X154540000Y-112000000D01*
X154540000Y-112000000D02*
X154540000Y-112500000D01*
X154540000Y-112500000D02*
X155040000Y-112250000D01*
X121960000Y-112500000D02*
X122460000Y-112750000D01*
X122460000Y-112750000D02*
X122460000Y-112250000D01*
X122460000Y-112250000D02*
X121960000Y-112500000D01*
X150490000Y-113299721D02*
X150490000Y-113625279D01*
X151510000Y-113299721D02*
X151510000Y-113625279D01*
X147662779Y-112240000D02*
X147337221Y-112240000D01*
X147662779Y-113260000D02*
X147337221Y-113260000D01*
X143740000Y-113299721D02*
X143740000Y-113625279D01*
X144760000Y-113299721D02*
X144760000Y-113625279D01*
X140912779Y-112240000D02*
X140587221Y-112240000D01*
X140912779Y-113260000D02*
X140587221Y-113260000D01*
X136740000Y-113337221D02*
X136740000Y-113662779D01*
X137760000Y-113337221D02*
X137760000Y-113662779D01*
X133662779Y-112240000D02*
X133337221Y-112240000D01*
X133662779Y-113260000D02*
X133337221Y-113260000D01*
X127990000Y-113337221D02*
X127990000Y-113662779D01*
X129010000Y-113337221D02*
X129010000Y-113662779D01*
D12*
X128333333Y-108202380D02*
X128000000Y-107726190D01*
X127761904Y-108202380D02*
X127761904Y-107202380D01*
X128142857Y-107202380D01*
X128238095Y-107250000D01*
X128285714Y-107297619D01*
X128333333Y-107392857D01*
X128333333Y-107535714D01*
X128285714Y-107630952D01*
X128238095Y-107678571D01*
X128142857Y-107726190D01*
X127761904Y-107726190D01*
X129285714Y-108202380D02*
X128714285Y-108202380D01*
X129000000Y-108202380D02*
X129000000Y-107202380D01*
X128904761Y-107345238D01*
X128809523Y-107440476D01*
X128714285Y-107488095D01*
X126261904Y-108702380D02*
X125785714Y-108702380D01*
X125738095Y-109178571D01*
X125785714Y-109130952D01*
X125880952Y-109083333D01*
X126119047Y-109083333D01*
X126214285Y-109130952D01*
X126261904Y-109178571D01*
X126309523Y-109273809D01*
X126309523Y-109511904D01*
X126261904Y-109607142D01*
X126214285Y-109654761D01*
X126119047Y-109702380D01*
X125880952Y-109702380D01*
X125785714Y-109654761D01*
X125738095Y-109607142D01*
X126928571Y-108702380D02*
X127023809Y-108702380D01*
X127119047Y-108750000D01*
X127166666Y-108797619D01*
X127214285Y-108892857D01*
X127261904Y-109083333D01*
X127261904Y-109321428D01*
X127214285Y-109511904D01*
X127166666Y-109607142D01*
X127119047Y-109654761D01*
X127023809Y-109702380D01*
X126928571Y-109702380D01*
X126833333Y-109654761D01*
X126785714Y-109607142D01*
X126738095Y-109511904D01*
X126690476Y-109321428D01*
X126690476Y-109083333D01*
X126738095Y-108892857D01*
X126785714Y-108797619D01*
X126833333Y-108750000D01*
X126928571Y-108702380D01*
X147333333Y-109302380D02*
X146857142Y-109302380D01*
X146857142Y-108302380D01*
X147571428Y-108302380D02*
X148190476Y-108302380D01*
X147857142Y-108683333D01*
X148000000Y-108683333D01*
X148095238Y-108730952D01*
X148142857Y-108778571D01*
X148190476Y-108873809D01*
X148190476Y-109111904D01*
X148142857Y-109207142D01*
X148095238Y-109254761D01*
X148000000Y-109302380D01*
X147714285Y-109302380D01*
X147619047Y-109254761D01*
X147571428Y-109207142D01*
X146380952Y-107952380D02*
X145809523Y-107952380D01*
X146095238Y-107952380D02*
X146095238Y-106952380D01*
X146000000Y-107095238D01*
X145904761Y-107190476D01*
X145809523Y-107238095D01*
X146761904Y-107047619D02*
X146809523Y-107000000D01*
X146904761Y-106952380D01*
X147142857Y-106952380D01*
X147238095Y-107000000D01*
X147285714Y-107047619D01*
X147333333Y-107142857D01*
X147333333Y-107238095D01*
X147285714Y-107380952D01*
X146714285Y-107952380D01*
X147333333Y-107952380D01*
X147952380Y-106952380D02*
X148047619Y-106952380D01*
X148142857Y-107000000D01*
X148190476Y-107047619D01*
X148238095Y-107142857D01*
X148285714Y-107333333D01*
X148285714Y-107571428D01*
X148238095Y-107761904D01*
X148190476Y-107857142D01*
X148142857Y-107904761D01*
X148047619Y-107952380D01*
X147952380Y-107952380D01*
X147857142Y-107904761D01*
X147809523Y-107857142D01*
X147761904Y-107761904D01*
X147714285Y-107571428D01*
X147714285Y-107333333D01*
X147761904Y-107142857D01*
X147809523Y-107047619D01*
X147857142Y-107000000D01*
X147952380Y-106952380D01*
X148714285Y-107285714D02*
X148714285Y-107952380D01*
X148714285Y-107380952D02*
X148761904Y-107333333D01*
X148857142Y-107285714D01*
X149000000Y-107285714D01*
X149095238Y-107333333D01*
X149142857Y-107428571D01*
X149142857Y-107952380D01*
X140583333Y-109302380D02*
X140107142Y-109302380D01*
X140107142Y-108302380D01*
X140869047Y-108397619D02*
X140916666Y-108350000D01*
X141011904Y-108302380D01*
X141250000Y-108302380D01*
X141345238Y-108350000D01*
X141392857Y-108397619D01*
X141440476Y-108492857D01*
X141440476Y-108588095D01*
X141392857Y-108730952D01*
X140821428Y-109302380D01*
X141440476Y-109302380D01*
X139630952Y-107952380D02*
X139059523Y-107952380D01*
X139345238Y-107952380D02*
X139345238Y-106952380D01*
X139250000Y-107095238D01*
X139154761Y-107190476D01*
X139059523Y-107238095D01*
X140250000Y-106952380D02*
X140345238Y-106952380D01*
X140440476Y-107000000D01*
X140488095Y-107047619D01*
X140535714Y-107142857D01*
X140583333Y-107333333D01*
X140583333Y-107571428D01*
X140535714Y-107761904D01*
X140488095Y-107857142D01*
X140440476Y-107904761D01*
X140345238Y-107952380D01*
X140250000Y-107952380D01*
X140154761Y-107904761D01*
X140107142Y-107857142D01*
X140059523Y-107761904D01*
X140011904Y-107571428D01*
X140011904Y-107333333D01*
X140059523Y-107142857D01*
X140107142Y-107047619D01*
X140154761Y-107000000D01*
X140250000Y-106952380D01*
X141202380Y-106952380D02*
X141297619Y-106952380D01*
X141392857Y-107000000D01*
X141440476Y-107047619D01*
X141488095Y-107142857D01*
X141535714Y-107333333D01*
X141535714Y-107571428D01*
X141488095Y-107761904D01*
X141440476Y-107857142D01*
X141392857Y-107904761D01*
X141297619Y-107952380D01*
X141202380Y-107952380D01*
X141107142Y-107904761D01*
X141059523Y-107857142D01*
X141011904Y-107761904D01*
X140964285Y-107571428D01*
X140964285Y-107333333D01*
X141011904Y-107142857D01*
X141059523Y-107047619D01*
X141107142Y-107000000D01*
X141202380Y-106952380D01*
X141964285Y-107285714D02*
X141964285Y-107952380D01*
X141964285Y-107380952D02*
X142011904Y-107333333D01*
X142107142Y-107285714D01*
X142250000Y-107285714D01*
X142345238Y-107333333D01*
X142392857Y-107428571D01*
X142392857Y-107952380D01*
X133333333Y-109202380D02*
X132857142Y-109202380D01*
X132857142Y-108202380D01*
X134190476Y-109202380D02*
X133619047Y-109202380D01*
X133904761Y-109202380D02*
X133904761Y-108202380D01*
X133809523Y-108345238D01*
X133714285Y-108440476D01*
X133619047Y-108488095D01*
X132380952Y-107952380D02*
X131809523Y-107952380D01*
X132095238Y-107952380D02*
X132095238Y-106952380D01*
X132000000Y-107095238D01*
X131904761Y-107190476D01*
X131809523Y-107238095D01*
X132952380Y-107380952D02*
X132857142Y-107333333D01*
X132809523Y-107285714D01*
X132761904Y-107190476D01*
X132761904Y-107142857D01*
X132809523Y-107047619D01*
X132857142Y-107000000D01*
X132952380Y-106952380D01*
X133142857Y-106952380D01*
X133238095Y-107000000D01*
X133285714Y-107047619D01*
X133333333Y-107142857D01*
X133333333Y-107190476D01*
X133285714Y-107285714D01*
X133238095Y-107333333D01*
X133142857Y-107380952D01*
X132952380Y-107380952D01*
X132857142Y-107428571D01*
X132809523Y-107476190D01*
X132761904Y-107571428D01*
X132761904Y-107761904D01*
X132809523Y-107857142D01*
X132857142Y-107904761D01*
X132952380Y-107952380D01*
X133142857Y-107952380D01*
X133238095Y-107904761D01*
X133285714Y-107857142D01*
X133333333Y-107761904D01*
X133333333Y-107571428D01*
X133285714Y-107476190D01*
X133238095Y-107428571D01*
X133142857Y-107380952D01*
X133952380Y-106952380D02*
X134047619Y-106952380D01*
X134142857Y-107000000D01*
X134190476Y-107047619D01*
X134238095Y-107142857D01*
X134285714Y-107333333D01*
X134285714Y-107571428D01*
X134238095Y-107761904D01*
X134190476Y-107857142D01*
X134142857Y-107904761D01*
X134047619Y-107952380D01*
X133952380Y-107952380D01*
X133857142Y-107904761D01*
X133809523Y-107857142D01*
X133761904Y-107761904D01*
X133714285Y-107571428D01*
X133714285Y-107333333D01*
X133761904Y-107142857D01*
X133809523Y-107047619D01*
X133857142Y-107000000D01*
X133952380Y-106952380D01*
X134714285Y-107285714D02*
X134714285Y-107952380D01*
X134714285Y-107380952D02*
X134761904Y-107333333D01*
X134857142Y-107285714D01*
X135000000Y-107285714D01*
X135095238Y-107333333D01*
X135142857Y-107428571D01*
X135142857Y-107952380D01*
X150833333Y-111607142D02*
X150785714Y-111654761D01*
X150642857Y-111702380D01*
X150547619Y-111702380D01*
X150404761Y-111654761D01*
X150309523Y-111559523D01*
X150261904Y-111464285D01*
X150214285Y-111273809D01*
X150214285Y-111130952D01*
X150261904Y-110940476D01*
X150309523Y-110845238D01*
X150404761Y-110750000D01*
X150547619Y-110702380D01*
X150642857Y-110702380D01*
X150785714Y-110750000D01*
X150833333Y-110797619D01*
X151166666Y-110702380D02*
X151833333Y-110702380D01*
X151404761Y-111702380D01*
X149559523Y-109547619D02*
X149607142Y-109500000D01*
X149702380Y-109452380D01*
X149940476Y-109452380D01*
X150035714Y-109500000D01*
X150083333Y-109547619D01*
X150130952Y-109642857D01*
X150130952Y-109738095D01*
X150083333Y-109880952D01*
X149511904Y-110452380D01*
X150130952Y-110452380D01*
X150464285Y-109452380D02*
X151130952Y-109452380D01*
X150702380Y-110452380D01*
X151702380Y-109452380D02*
X151797619Y-109452380D01*
X151892857Y-109500000D01*
X151940476Y-109547619D01*
X151988095Y-109642857D01*
X152035714Y-109833333D01*
X152035714Y-110071428D01*
X151988095Y-110261904D01*
X151940476Y-110357142D01*
X151892857Y-110404761D01*
X151797619Y-110452380D01*
X151702380Y-110452380D01*
X151607142Y-110404761D01*
X151559523Y-110357142D01*
X151511904Y-110261904D01*
X151464285Y-110071428D01*
X151464285Y-109833333D01*
X151511904Y-109642857D01*
X151559523Y-109547619D01*
X151607142Y-109500000D01*
X151702380Y-109452380D01*
X152464285Y-109785714D02*
X152464285Y-110785714D01*
X152464285Y-109833333D02*
X152559523Y-109785714D01*
X152750000Y-109785714D01*
X152845238Y-109833333D01*
X152892857Y-109880952D01*
X152940476Y-109976190D01*
X152940476Y-110261904D01*
X152892857Y-110357142D01*
X152845238Y-110404761D01*
X152750000Y-110452380D01*
X152559523Y-110452380D01*
X152464285Y-110404761D01*
X147333333Y-114537142D02*
X147285714Y-114584761D01*
X147142857Y-114632380D01*
X147047619Y-114632380D01*
X146904761Y-114584761D01*
X146809523Y-114489523D01*
X146761904Y-114394285D01*
X146714285Y-114203809D01*
X146714285Y-114060952D01*
X146761904Y-113870476D01*
X146809523Y-113775238D01*
X146904761Y-113680000D01*
X147047619Y-113632380D01*
X147142857Y-113632380D01*
X147285714Y-113680000D01*
X147333333Y-113727619D01*
X148190476Y-113632380D02*
X148000000Y-113632380D01*
X147904761Y-113680000D01*
X147857142Y-113727619D01*
X147761904Y-113870476D01*
X147714285Y-114060952D01*
X147714285Y-114441904D01*
X147761904Y-114537142D01*
X147809523Y-114584761D01*
X147904761Y-114632380D01*
X148095238Y-114632380D01*
X148190476Y-114584761D01*
X148238095Y-114537142D01*
X148285714Y-114441904D01*
X148285714Y-114203809D01*
X148238095Y-114108571D01*
X148190476Y-114060952D01*
X148095238Y-114013333D01*
X147904761Y-114013333D01*
X147809523Y-114060952D01*
X147761904Y-114108571D01*
X147714285Y-114203809D01*
X146380952Y-115952380D02*
X145809523Y-115952380D01*
X146095238Y-115952380D02*
X146095238Y-114952380D01*
X146000000Y-115095238D01*
X145904761Y-115190476D01*
X145809523Y-115238095D01*
X146714285Y-114952380D02*
X147333333Y-114952380D01*
X147000000Y-115333333D01*
X147142857Y-115333333D01*
X147238095Y-115380952D01*
X147285714Y-115428571D01*
X147333333Y-115523809D01*
X147333333Y-115761904D01*
X147285714Y-115857142D01*
X147238095Y-115904761D01*
X147142857Y-115952380D01*
X146857142Y-115952380D01*
X146761904Y-115904761D01*
X146714285Y-115857142D01*
X147952380Y-114952380D02*
X148047619Y-114952380D01*
X148142857Y-115000000D01*
X148190476Y-115047619D01*
X148238095Y-115142857D01*
X148285714Y-115333333D01*
X148285714Y-115571428D01*
X148238095Y-115761904D01*
X148190476Y-115857142D01*
X148142857Y-115904761D01*
X148047619Y-115952380D01*
X147952380Y-115952380D01*
X147857142Y-115904761D01*
X147809523Y-115857142D01*
X147761904Y-115761904D01*
X147714285Y-115571428D01*
X147714285Y-115333333D01*
X147761904Y-115142857D01*
X147809523Y-115047619D01*
X147857142Y-115000000D01*
X147952380Y-114952380D01*
X148714285Y-115285714D02*
X148714285Y-116285714D01*
X148714285Y-115333333D02*
X148809523Y-115285714D01*
X149000000Y-115285714D01*
X149095238Y-115333333D01*
X149142857Y-115380952D01*
X149190476Y-115476190D01*
X149190476Y-115761904D01*
X149142857Y-115857142D01*
X149095238Y-115904761D01*
X149000000Y-115952380D01*
X148809523Y-115952380D01*
X148714285Y-115904761D01*
X144083333Y-111607142D02*
X144035714Y-111654761D01*
X143892857Y-111702380D01*
X143797619Y-111702380D01*
X143654761Y-111654761D01*
X143559523Y-111559523D01*
X143511904Y-111464285D01*
X143464285Y-111273809D01*
X143464285Y-111130952D01*
X143511904Y-110940476D01*
X143559523Y-110845238D01*
X143654761Y-110750000D01*
X143797619Y-110702380D01*
X143892857Y-110702380D01*
X144035714Y-110750000D01*
X144083333Y-110797619D01*
X144988095Y-110702380D02*
X144511904Y-110702380D01*
X144464285Y-111178571D01*
X144511904Y-111130952D01*
X144607142Y-111083333D01*
X144845238Y-111083333D01*
X144940476Y-111130952D01*
X144988095Y-111178571D01*
X145035714Y-111273809D01*
X145035714Y-111511904D01*
X144988095Y-111607142D01*
X144940476Y-111654761D01*
X144845238Y-111702380D01*
X144607142Y-111702380D01*
X144511904Y-111654761D01*
X144464285Y-111607142D01*
X142559523Y-109547619D02*
X142607142Y-109500000D01*
X142702380Y-109452380D01*
X142940476Y-109452380D01*
X143035714Y-109500000D01*
X143083333Y-109547619D01*
X143130952Y-109642857D01*
X143130952Y-109738095D01*
X143083333Y-109880952D01*
X142511904Y-110452380D01*
X143130952Y-110452380D01*
X143464285Y-109452380D02*
X144130952Y-109452380D01*
X143702380Y-110452380D01*
X144702380Y-109452380D02*
X144797619Y-109452380D01*
X144892857Y-109500000D01*
X144940476Y-109547619D01*
X144988095Y-109642857D01*
X145035714Y-109833333D01*
X145035714Y-110071428D01*
X144988095Y-110261904D01*
X144940476Y-110357142D01*
X144892857Y-110404761D01*
X144797619Y-110452380D01*
X144702380Y-110452380D01*
X144607142Y-110404761D01*
X144559523Y-110357142D01*
X144511904Y-110261904D01*
X144464285Y-110071428D01*
X144464285Y-109833333D01*
X144511904Y-109642857D01*
X144559523Y-109547619D01*
X144607142Y-109500000D01*
X144702380Y-109452380D01*
X145464285Y-109785714D02*
X145464285Y-110785714D01*
X145464285Y-109833333D02*
X145559523Y-109785714D01*
X145750000Y-109785714D01*
X145845238Y-109833333D01*
X145892857Y-109880952D01*
X145940476Y-109976190D01*
X145940476Y-110261904D01*
X145892857Y-110357142D01*
X145845238Y-110404761D01*
X145750000Y-110452380D01*
X145559523Y-110452380D01*
X145464285Y-110404761D01*
X140583333Y-114537142D02*
X140535714Y-114584761D01*
X140392857Y-114632380D01*
X140297619Y-114632380D01*
X140154761Y-114584761D01*
X140059523Y-114489523D01*
X140011904Y-114394285D01*
X139964285Y-114203809D01*
X139964285Y-114060952D01*
X140011904Y-113870476D01*
X140059523Y-113775238D01*
X140154761Y-113680000D01*
X140297619Y-113632380D01*
X140392857Y-113632380D01*
X140535714Y-113680000D01*
X140583333Y-113727619D01*
X141440476Y-113965714D02*
X141440476Y-114632380D01*
X141202380Y-113584761D02*
X140964285Y-114299047D01*
X141583333Y-114299047D01*
X139059523Y-115047619D02*
X139107142Y-115000000D01*
X139202380Y-114952380D01*
X139440476Y-114952380D01*
X139535714Y-115000000D01*
X139583333Y-115047619D01*
X139630952Y-115142857D01*
X139630952Y-115238095D01*
X139583333Y-115380952D01*
X139011904Y-115952380D01*
X139630952Y-115952380D01*
X140011904Y-115047619D02*
X140059523Y-115000000D01*
X140154761Y-114952380D01*
X140392857Y-114952380D01*
X140488095Y-115000000D01*
X140535714Y-115047619D01*
X140583333Y-115142857D01*
X140583333Y-115238095D01*
X140535714Y-115380952D01*
X139964285Y-115952380D01*
X140583333Y-115952380D01*
X141202380Y-114952380D02*
X141297619Y-114952380D01*
X141392857Y-115000000D01*
X141440476Y-115047619D01*
X141488095Y-115142857D01*
X141535714Y-115333333D01*
X141535714Y-115571428D01*
X141488095Y-115761904D01*
X141440476Y-115857142D01*
X141392857Y-115904761D01*
X141297619Y-115952380D01*
X141202380Y-115952380D01*
X141107142Y-115904761D01*
X141059523Y-115857142D01*
X141011904Y-115761904D01*
X140964285Y-115571428D01*
X140964285Y-115333333D01*
X141011904Y-115142857D01*
X141059523Y-115047619D01*
X141107142Y-115000000D01*
X141202380Y-114952380D01*
X141964285Y-115285714D02*
X141964285Y-116285714D01*
X141964285Y-115333333D02*
X142059523Y-115285714D01*
X142250000Y-115285714D01*
X142345238Y-115333333D01*
X142392857Y-115380952D01*
X142440476Y-115476190D01*
X142440476Y-115761904D01*
X142392857Y-115857142D01*
X142345238Y-115904761D01*
X142250000Y-115952380D01*
X142059523Y-115952380D01*
X141964285Y-115904761D01*
X137083333Y-111607142D02*
X137035714Y-111654761D01*
X136892857Y-111702380D01*
X136797619Y-111702380D01*
X136654761Y-111654761D01*
X136559523Y-111559523D01*
X136511904Y-111464285D01*
X136464285Y-111273809D01*
X136464285Y-111130952D01*
X136511904Y-110940476D01*
X136559523Y-110845238D01*
X136654761Y-110750000D01*
X136797619Y-110702380D01*
X136892857Y-110702380D01*
X137035714Y-110750000D01*
X137083333Y-110797619D01*
X137416666Y-110702380D02*
X138035714Y-110702380D01*
X137702380Y-111083333D01*
X137845238Y-111083333D01*
X137940476Y-111130952D01*
X137988095Y-111178571D01*
X138035714Y-111273809D01*
X138035714Y-111511904D01*
X137988095Y-111607142D01*
X137940476Y-111654761D01*
X137845238Y-111702380D01*
X137559523Y-111702380D01*
X137464285Y-111654761D01*
X137416666Y-111607142D01*
X135511904Y-109452380D02*
X136130952Y-109452380D01*
X135797619Y-109833333D01*
X135940476Y-109833333D01*
X136035714Y-109880952D01*
X136083333Y-109928571D01*
X136130952Y-110023809D01*
X136130952Y-110261904D01*
X136083333Y-110357142D01*
X136035714Y-110404761D01*
X135940476Y-110452380D01*
X135654761Y-110452380D01*
X135559523Y-110404761D01*
X135511904Y-110357142D01*
X136464285Y-109452380D02*
X137083333Y-109452380D01*
X136750000Y-109833333D01*
X136892857Y-109833333D01*
X136988095Y-109880952D01*
X137035714Y-109928571D01*
X137083333Y-110023809D01*
X137083333Y-110261904D01*
X137035714Y-110357142D01*
X136988095Y-110404761D01*
X136892857Y-110452380D01*
X136607142Y-110452380D01*
X136511904Y-110404761D01*
X136464285Y-110357142D01*
X137702380Y-109452380D02*
X137797619Y-109452380D01*
X137892857Y-109500000D01*
X137940476Y-109547619D01*
X137988095Y-109642857D01*
X138035714Y-109833333D01*
X138035714Y-110071428D01*
X137988095Y-110261904D01*
X137940476Y-110357142D01*
X137892857Y-110404761D01*
X137797619Y-110452380D01*
X137702380Y-110452380D01*
X137607142Y-110404761D01*
X137559523Y-110357142D01*
X137511904Y-110261904D01*
X137464285Y-110071428D01*
X137464285Y-109833333D01*
X137511904Y-109642857D01*
X137559523Y-109547619D01*
X137607142Y-109500000D01*
X137702380Y-109452380D01*
X138464285Y-109785714D02*
X138464285Y-110785714D01*
X138464285Y-109833333D02*
X138559523Y-109785714D01*
X138750000Y-109785714D01*
X138845238Y-109833333D01*
X138892857Y-109880952D01*
X138940476Y-109976190D01*
X138940476Y-110261904D01*
X138892857Y-110357142D01*
X138845238Y-110404761D01*
X138750000Y-110452380D01*
X138559523Y-110452380D01*
X138464285Y-110404761D01*
X133333333Y-114607142D02*
X133285714Y-114654761D01*
X133142857Y-114702380D01*
X133047619Y-114702380D01*
X132904761Y-114654761D01*
X132809523Y-114559523D01*
X132761904Y-114464285D01*
X132714285Y-114273809D01*
X132714285Y-114130952D01*
X132761904Y-113940476D01*
X132809523Y-113845238D01*
X132904761Y-113750000D01*
X133047619Y-113702380D01*
X133142857Y-113702380D01*
X133285714Y-113750000D01*
X133333333Y-113797619D01*
X133714285Y-113797619D02*
X133761904Y-113750000D01*
X133857142Y-113702380D01*
X134095238Y-113702380D01*
X134190476Y-113750000D01*
X134238095Y-113797619D01*
X134285714Y-113892857D01*
X134285714Y-113988095D01*
X134238095Y-114130952D01*
X133666666Y-114702380D01*
X134285714Y-114702380D01*
X132238095Y-114952380D02*
X132857142Y-114952380D01*
X132523809Y-115333333D01*
X132666666Y-115333333D01*
X132761904Y-115380952D01*
X132809523Y-115428571D01*
X132857142Y-115523809D01*
X132857142Y-115761904D01*
X132809523Y-115857142D01*
X132761904Y-115904761D01*
X132666666Y-115952380D01*
X132380952Y-115952380D01*
X132285714Y-115904761D01*
X132238095Y-115857142D01*
X133333333Y-115952380D02*
X133523809Y-115952380D01*
X133619047Y-115904761D01*
X133666666Y-115857142D01*
X133761904Y-115714285D01*
X133809523Y-115523809D01*
X133809523Y-115142857D01*
X133761904Y-115047619D01*
X133714285Y-115000000D01*
X133619047Y-114952380D01*
X133428571Y-114952380D01*
X133333333Y-115000000D01*
X133285714Y-115047619D01*
X133238095Y-115142857D01*
X133238095Y-115380952D01*
X133285714Y-115476190D01*
X133333333Y-115523809D01*
X133428571Y-115571428D01*
X133619047Y-115571428D01*
X133714285Y-115523809D01*
X133761904Y-115476190D01*
X133809523Y-115380952D01*
X134238095Y-115285714D02*
X134238095Y-116285714D01*
X134238095Y-115333333D02*
X134333333Y-115285714D01*
X134523809Y-115285714D01*
X134619047Y-115333333D01*
X134666666Y-115380952D01*
X134714285Y-115476190D01*
X134714285Y-115761904D01*
X134666666Y-115857142D01*
X134619047Y-115904761D01*
X134523809Y-115952380D01*
X134333333Y-115952380D01*
X134238095Y-115904761D01*
X128333333Y-116107142D02*
X128285714Y-116154761D01*
X128142857Y-116202380D01*
X128047619Y-116202380D01*
X127904761Y-116154761D01*
X127809523Y-116059523D01*
X127761904Y-115964285D01*
X127714285Y-115773809D01*
X127714285Y-115630952D01*
X127761904Y-115440476D01*
X127809523Y-115345238D01*
X127904761Y-115250000D01*
X128047619Y-115202380D01*
X128142857Y-115202380D01*
X128285714Y-115250000D01*
X128333333Y-115297619D01*
X129285714Y-116202380D02*
X128714285Y-116202380D01*
X129000000Y-116202380D02*
X129000000Y-115202380D01*
X128904761Y-115345238D01*
X128809523Y-115440476D01*
X128714285Y-115488095D01*
X126761904Y-116452380D02*
X127380952Y-116452380D01*
X127047619Y-116833333D01*
X127190476Y-116833333D01*
X127285714Y-116880952D01*
X127333333Y-116928571D01*
X127380952Y-117023809D01*
X127380952Y-117261904D01*
X127333333Y-117357142D01*
X127285714Y-117404761D01*
X127190476Y-117452380D01*
X126904761Y-117452380D01*
X126809523Y-117404761D01*
X126761904Y-117357142D01*
X127714285Y-116452380D02*
X128333333Y-116452380D01*
X128000000Y-116833333D01*
X128142857Y-116833333D01*
X128238095Y-116880952D01*
X128285714Y-116928571D01*
X128333333Y-117023809D01*
X128333333Y-117261904D01*
X128285714Y-117357142D01*
X128238095Y-117404761D01*
X128142857Y-117452380D01*
X127857142Y-117452380D01*
X127761904Y-117404761D01*
X127714285Y-117357142D01*
X128952380Y-116452380D02*
X129047619Y-116452380D01*
X129142857Y-116500000D01*
X129190476Y-116547619D01*
X129238095Y-116642857D01*
X129285714Y-116833333D01*
X129285714Y-117071428D01*
X129238095Y-117261904D01*
X129190476Y-117357142D01*
X129142857Y-117404761D01*
X129047619Y-117452380D01*
X128952380Y-117452380D01*
X128857142Y-117404761D01*
X128809523Y-117357142D01*
X128761904Y-117261904D01*
X128714285Y-117071428D01*
X128714285Y-116833333D01*
X128761904Y-116642857D01*
X128809523Y-116547619D01*
X128857142Y-116500000D01*
X128952380Y-116452380D01*
X129714285Y-116785714D02*
X129714285Y-117785714D01*
X129714285Y-116833333D02*
X129809523Y-116785714D01*
X130000000Y-116785714D01*
X130095238Y-116833333D01*
X130142857Y-116880952D01*
X130190476Y-116976190D01*
X130190476Y-117261904D01*
X130142857Y-117357142D01*
X130095238Y-117404761D01*
X130000000Y-117452380D01*
X129809523Y-117452380D01*
X129714285Y-117404761D01*
M02*
