G04 #@! TF.GenerationSoftware,KiCad,Pcbnew,(5.1.4)-1*
G04 #@! TF.CreationDate,2019-12-12T20:41:28+01:00*
G04 #@! TF.ProjectId,30mhzLP,33306d68-7a4c-4502-9e6b-696361645f70,rev?*
G04 #@! TF.SameCoordinates,Original*
G04 #@! TF.FileFunction,Profile,NP*
%FSLAX46Y46*%
G04 Gerber Fmt 4.6, Leading zero omitted, Abs format (unit mm)*
G04 Created by KiCad (PCBNEW (5.1.4)-1) date 2019-12-12 20:41:28*
%MOMM*%
%LPD*%
G04 APERTURE LIST*
%ADD10C,0.050000*%
G04 APERTURE END LIST*
D10*
X117500000Y-125500000D02*
X123500000Y-125500000D01*
X117500000Y-125500000D02*
G75*
G02X116000000Y-124000000I0J1500000D01*
G01*
X126500000Y-130500000D02*
G75*
G02X125000000Y-129000000I0J1500000D01*
G01*
X125000000Y-129000000D02*
X125000000Y-127000000D01*
X123500000Y-125500000D02*
G75*
G02X125000000Y-127000000I0J-1500000D01*
G01*
X161000000Y-124000000D02*
G75*
G02X159500000Y-125500000I-1500000J0D01*
G01*
X153500000Y-125500000D02*
X159500000Y-125500000D01*
X152000000Y-129000000D02*
G75*
G02X150500000Y-130500000I-1500000J0D01*
G01*
X152000000Y-129000000D02*
X152000000Y-127000000D01*
X150500000Y-130500000D02*
X126500000Y-130500000D01*
X152000000Y-127000000D02*
G75*
G02X153500000Y-125500000I1500000J0D01*
G01*
X116000000Y-101500000D02*
G75*
G02X117500000Y-100000000I1500000J0D01*
G01*
X159500000Y-100000000D02*
X153500000Y-100000000D01*
X159500000Y-100000000D02*
G75*
G02X161000000Y-101500000I0J-1500000D01*
G01*
X125000000Y-96500000D02*
G75*
G02X126500000Y-95000000I1500000J0D01*
G01*
X125000000Y-96500000D02*
X125000000Y-98500000D01*
X125000000Y-98500000D02*
G75*
G02X123500000Y-100000000I-1500000J0D01*
G01*
X152000000Y-96500000D02*
X152000000Y-98500000D01*
X150500000Y-95000000D02*
G75*
G02X152000000Y-96500000I0J-1500000D01*
G01*
X123500000Y-100000000D02*
X117500000Y-100000000D01*
X153500000Y-100000000D02*
G75*
G02X152000000Y-98500000I0J1500000D01*
G01*
X116000000Y-124000000D02*
X116000000Y-101500000D01*
X161000000Y-101500000D02*
X161000000Y-124000000D01*
X126500000Y-95000000D02*
X150500000Y-95000000D01*
M02*
