G04 #@! TF.GenerationSoftware,KiCad,Pcbnew,(5.1.4)-1*
G04 #@! TF.CreationDate,2019-12-12T20:41:28+01:00*
G04 #@! TF.ProjectId,30mhzLP,33306d68-7a4c-4502-9e6b-696361645f70,rev?*
G04 #@! TF.SameCoordinates,Original*
G04 #@! TF.FileFunction,Copper,L1,Top*
G04 #@! TF.FilePolarity,Positive*
%FSLAX46Y46*%
G04 Gerber Fmt 4.6, Leading zero omitted, Abs format (unit mm)*
G04 Created by KiCad (PCBNEW (5.1.4)-1) date 2019-12-12 20:41:28*
%MOMM*%
%LPD*%
G04 APERTURE LIST*
%ADD10C,0.100000*%
%ADD11C,0.975000*%
%ADD12R,5.080000X1.500000*%
%ADD13C,0.875000*%
%ADD14C,0.800000*%
%ADD15C,0.250000*%
%ADD16C,0.254000*%
G04 APERTURE END LIST*
D10*
G36*
X128980142Y-108576174D02*
G01*
X129003803Y-108579684D01*
X129027007Y-108585496D01*
X129049529Y-108593554D01*
X129071153Y-108603782D01*
X129091670Y-108616079D01*
X129110883Y-108630329D01*
X129128607Y-108646393D01*
X129144671Y-108664117D01*
X129158921Y-108683330D01*
X129171218Y-108703847D01*
X129181446Y-108725471D01*
X129189504Y-108747993D01*
X129195316Y-108771197D01*
X129198826Y-108794858D01*
X129200000Y-108818750D01*
X129200000Y-109306250D01*
X129198826Y-109330142D01*
X129195316Y-109353803D01*
X129189504Y-109377007D01*
X129181446Y-109399529D01*
X129171218Y-109421153D01*
X129158921Y-109441670D01*
X129144671Y-109460883D01*
X129128607Y-109478607D01*
X129110883Y-109494671D01*
X129091670Y-109508921D01*
X129071153Y-109521218D01*
X129049529Y-109531446D01*
X129027007Y-109539504D01*
X129003803Y-109545316D01*
X128980142Y-109548826D01*
X128956250Y-109550000D01*
X128043750Y-109550000D01*
X128019858Y-109548826D01*
X127996197Y-109545316D01*
X127972993Y-109539504D01*
X127950471Y-109531446D01*
X127928847Y-109521218D01*
X127908330Y-109508921D01*
X127889117Y-109494671D01*
X127871393Y-109478607D01*
X127855329Y-109460883D01*
X127841079Y-109441670D01*
X127828782Y-109421153D01*
X127818554Y-109399529D01*
X127810496Y-109377007D01*
X127804684Y-109353803D01*
X127801174Y-109330142D01*
X127800000Y-109306250D01*
X127800000Y-108818750D01*
X127801174Y-108794858D01*
X127804684Y-108771197D01*
X127810496Y-108747993D01*
X127818554Y-108725471D01*
X127828782Y-108703847D01*
X127841079Y-108683330D01*
X127855329Y-108664117D01*
X127871393Y-108646393D01*
X127889117Y-108630329D01*
X127908330Y-108616079D01*
X127928847Y-108603782D01*
X127950471Y-108593554D01*
X127972993Y-108585496D01*
X127996197Y-108579684D01*
X128019858Y-108576174D01*
X128043750Y-108575000D01*
X128956250Y-108575000D01*
X128980142Y-108576174D01*
X128980142Y-108576174D01*
G37*
D11*
X128500000Y-109062500D03*
D10*
G36*
X128980142Y-110451174D02*
G01*
X129003803Y-110454684D01*
X129027007Y-110460496D01*
X129049529Y-110468554D01*
X129071153Y-110478782D01*
X129091670Y-110491079D01*
X129110883Y-110505329D01*
X129128607Y-110521393D01*
X129144671Y-110539117D01*
X129158921Y-110558330D01*
X129171218Y-110578847D01*
X129181446Y-110600471D01*
X129189504Y-110622993D01*
X129195316Y-110646197D01*
X129198826Y-110669858D01*
X129200000Y-110693750D01*
X129200000Y-111181250D01*
X129198826Y-111205142D01*
X129195316Y-111228803D01*
X129189504Y-111252007D01*
X129181446Y-111274529D01*
X129171218Y-111296153D01*
X129158921Y-111316670D01*
X129144671Y-111335883D01*
X129128607Y-111353607D01*
X129110883Y-111369671D01*
X129091670Y-111383921D01*
X129071153Y-111396218D01*
X129049529Y-111406446D01*
X129027007Y-111414504D01*
X129003803Y-111420316D01*
X128980142Y-111423826D01*
X128956250Y-111425000D01*
X128043750Y-111425000D01*
X128019858Y-111423826D01*
X127996197Y-111420316D01*
X127972993Y-111414504D01*
X127950471Y-111406446D01*
X127928847Y-111396218D01*
X127908330Y-111383921D01*
X127889117Y-111369671D01*
X127871393Y-111353607D01*
X127855329Y-111335883D01*
X127841079Y-111316670D01*
X127828782Y-111296153D01*
X127818554Y-111274529D01*
X127810496Y-111252007D01*
X127804684Y-111228803D01*
X127801174Y-111205142D01*
X127800000Y-111181250D01*
X127800000Y-110693750D01*
X127801174Y-110669858D01*
X127804684Y-110646197D01*
X127810496Y-110622993D01*
X127818554Y-110600471D01*
X127828782Y-110578847D01*
X127841079Y-110558330D01*
X127855329Y-110539117D01*
X127871393Y-110521393D01*
X127889117Y-110505329D01*
X127908330Y-110491079D01*
X127928847Y-110478782D01*
X127950471Y-110468554D01*
X127972993Y-110460496D01*
X127996197Y-110454684D01*
X128019858Y-110451174D01*
X128043750Y-110450000D01*
X128956250Y-110450000D01*
X128980142Y-110451174D01*
X128980142Y-110451174D01*
G37*
D11*
X128500000Y-110937500D03*
D10*
G36*
X148705142Y-109801174D02*
G01*
X148728803Y-109804684D01*
X148752007Y-109810496D01*
X148774529Y-109818554D01*
X148796153Y-109828782D01*
X148816670Y-109841079D01*
X148835883Y-109855329D01*
X148853607Y-109871393D01*
X148869671Y-109889117D01*
X148883921Y-109908330D01*
X148896218Y-109928847D01*
X148906446Y-109950471D01*
X148914504Y-109972993D01*
X148920316Y-109996197D01*
X148923826Y-110019858D01*
X148925000Y-110043750D01*
X148925000Y-110956250D01*
X148923826Y-110980142D01*
X148920316Y-111003803D01*
X148914504Y-111027007D01*
X148906446Y-111049529D01*
X148896218Y-111071153D01*
X148883921Y-111091670D01*
X148869671Y-111110883D01*
X148853607Y-111128607D01*
X148835883Y-111144671D01*
X148816670Y-111158921D01*
X148796153Y-111171218D01*
X148774529Y-111181446D01*
X148752007Y-111189504D01*
X148728803Y-111195316D01*
X148705142Y-111198826D01*
X148681250Y-111200000D01*
X148193750Y-111200000D01*
X148169858Y-111198826D01*
X148146197Y-111195316D01*
X148122993Y-111189504D01*
X148100471Y-111181446D01*
X148078847Y-111171218D01*
X148058330Y-111158921D01*
X148039117Y-111144671D01*
X148021393Y-111128607D01*
X148005329Y-111110883D01*
X147991079Y-111091670D01*
X147978782Y-111071153D01*
X147968554Y-111049529D01*
X147960496Y-111027007D01*
X147954684Y-111003803D01*
X147951174Y-110980142D01*
X147950000Y-110956250D01*
X147950000Y-110043750D01*
X147951174Y-110019858D01*
X147954684Y-109996197D01*
X147960496Y-109972993D01*
X147968554Y-109950471D01*
X147978782Y-109928847D01*
X147991079Y-109908330D01*
X148005329Y-109889117D01*
X148021393Y-109871393D01*
X148039117Y-109855329D01*
X148058330Y-109841079D01*
X148078847Y-109828782D01*
X148100471Y-109818554D01*
X148122993Y-109810496D01*
X148146197Y-109804684D01*
X148169858Y-109801174D01*
X148193750Y-109800000D01*
X148681250Y-109800000D01*
X148705142Y-109801174D01*
X148705142Y-109801174D01*
G37*
D11*
X148437500Y-110500000D03*
D10*
G36*
X146830142Y-109801174D02*
G01*
X146853803Y-109804684D01*
X146877007Y-109810496D01*
X146899529Y-109818554D01*
X146921153Y-109828782D01*
X146941670Y-109841079D01*
X146960883Y-109855329D01*
X146978607Y-109871393D01*
X146994671Y-109889117D01*
X147008921Y-109908330D01*
X147021218Y-109928847D01*
X147031446Y-109950471D01*
X147039504Y-109972993D01*
X147045316Y-109996197D01*
X147048826Y-110019858D01*
X147050000Y-110043750D01*
X147050000Y-110956250D01*
X147048826Y-110980142D01*
X147045316Y-111003803D01*
X147039504Y-111027007D01*
X147031446Y-111049529D01*
X147021218Y-111071153D01*
X147008921Y-111091670D01*
X146994671Y-111110883D01*
X146978607Y-111128607D01*
X146960883Y-111144671D01*
X146941670Y-111158921D01*
X146921153Y-111171218D01*
X146899529Y-111181446D01*
X146877007Y-111189504D01*
X146853803Y-111195316D01*
X146830142Y-111198826D01*
X146806250Y-111200000D01*
X146318750Y-111200000D01*
X146294858Y-111198826D01*
X146271197Y-111195316D01*
X146247993Y-111189504D01*
X146225471Y-111181446D01*
X146203847Y-111171218D01*
X146183330Y-111158921D01*
X146164117Y-111144671D01*
X146146393Y-111128607D01*
X146130329Y-111110883D01*
X146116079Y-111091670D01*
X146103782Y-111071153D01*
X146093554Y-111049529D01*
X146085496Y-111027007D01*
X146079684Y-111003803D01*
X146076174Y-110980142D01*
X146075000Y-110956250D01*
X146075000Y-110043750D01*
X146076174Y-110019858D01*
X146079684Y-109996197D01*
X146085496Y-109972993D01*
X146093554Y-109950471D01*
X146103782Y-109928847D01*
X146116079Y-109908330D01*
X146130329Y-109889117D01*
X146146393Y-109871393D01*
X146164117Y-109855329D01*
X146183330Y-109841079D01*
X146203847Y-109828782D01*
X146225471Y-109818554D01*
X146247993Y-109810496D01*
X146271197Y-109804684D01*
X146294858Y-109801174D01*
X146318750Y-109800000D01*
X146806250Y-109800000D01*
X146830142Y-109801174D01*
X146830142Y-109801174D01*
G37*
D11*
X146562500Y-110500000D03*
D10*
G36*
X141955142Y-109801174D02*
G01*
X141978803Y-109804684D01*
X142002007Y-109810496D01*
X142024529Y-109818554D01*
X142046153Y-109828782D01*
X142066670Y-109841079D01*
X142085883Y-109855329D01*
X142103607Y-109871393D01*
X142119671Y-109889117D01*
X142133921Y-109908330D01*
X142146218Y-109928847D01*
X142156446Y-109950471D01*
X142164504Y-109972993D01*
X142170316Y-109996197D01*
X142173826Y-110019858D01*
X142175000Y-110043750D01*
X142175000Y-110956250D01*
X142173826Y-110980142D01*
X142170316Y-111003803D01*
X142164504Y-111027007D01*
X142156446Y-111049529D01*
X142146218Y-111071153D01*
X142133921Y-111091670D01*
X142119671Y-111110883D01*
X142103607Y-111128607D01*
X142085883Y-111144671D01*
X142066670Y-111158921D01*
X142046153Y-111171218D01*
X142024529Y-111181446D01*
X142002007Y-111189504D01*
X141978803Y-111195316D01*
X141955142Y-111198826D01*
X141931250Y-111200000D01*
X141443750Y-111200000D01*
X141419858Y-111198826D01*
X141396197Y-111195316D01*
X141372993Y-111189504D01*
X141350471Y-111181446D01*
X141328847Y-111171218D01*
X141308330Y-111158921D01*
X141289117Y-111144671D01*
X141271393Y-111128607D01*
X141255329Y-111110883D01*
X141241079Y-111091670D01*
X141228782Y-111071153D01*
X141218554Y-111049529D01*
X141210496Y-111027007D01*
X141204684Y-111003803D01*
X141201174Y-110980142D01*
X141200000Y-110956250D01*
X141200000Y-110043750D01*
X141201174Y-110019858D01*
X141204684Y-109996197D01*
X141210496Y-109972993D01*
X141218554Y-109950471D01*
X141228782Y-109928847D01*
X141241079Y-109908330D01*
X141255329Y-109889117D01*
X141271393Y-109871393D01*
X141289117Y-109855329D01*
X141308330Y-109841079D01*
X141328847Y-109828782D01*
X141350471Y-109818554D01*
X141372993Y-109810496D01*
X141396197Y-109804684D01*
X141419858Y-109801174D01*
X141443750Y-109800000D01*
X141931250Y-109800000D01*
X141955142Y-109801174D01*
X141955142Y-109801174D01*
G37*
D11*
X141687500Y-110500000D03*
D10*
G36*
X140080142Y-109801174D02*
G01*
X140103803Y-109804684D01*
X140127007Y-109810496D01*
X140149529Y-109818554D01*
X140171153Y-109828782D01*
X140191670Y-109841079D01*
X140210883Y-109855329D01*
X140228607Y-109871393D01*
X140244671Y-109889117D01*
X140258921Y-109908330D01*
X140271218Y-109928847D01*
X140281446Y-109950471D01*
X140289504Y-109972993D01*
X140295316Y-109996197D01*
X140298826Y-110019858D01*
X140300000Y-110043750D01*
X140300000Y-110956250D01*
X140298826Y-110980142D01*
X140295316Y-111003803D01*
X140289504Y-111027007D01*
X140281446Y-111049529D01*
X140271218Y-111071153D01*
X140258921Y-111091670D01*
X140244671Y-111110883D01*
X140228607Y-111128607D01*
X140210883Y-111144671D01*
X140191670Y-111158921D01*
X140171153Y-111171218D01*
X140149529Y-111181446D01*
X140127007Y-111189504D01*
X140103803Y-111195316D01*
X140080142Y-111198826D01*
X140056250Y-111200000D01*
X139568750Y-111200000D01*
X139544858Y-111198826D01*
X139521197Y-111195316D01*
X139497993Y-111189504D01*
X139475471Y-111181446D01*
X139453847Y-111171218D01*
X139433330Y-111158921D01*
X139414117Y-111144671D01*
X139396393Y-111128607D01*
X139380329Y-111110883D01*
X139366079Y-111091670D01*
X139353782Y-111071153D01*
X139343554Y-111049529D01*
X139335496Y-111027007D01*
X139329684Y-111003803D01*
X139326174Y-110980142D01*
X139325000Y-110956250D01*
X139325000Y-110043750D01*
X139326174Y-110019858D01*
X139329684Y-109996197D01*
X139335496Y-109972993D01*
X139343554Y-109950471D01*
X139353782Y-109928847D01*
X139366079Y-109908330D01*
X139380329Y-109889117D01*
X139396393Y-109871393D01*
X139414117Y-109855329D01*
X139433330Y-109841079D01*
X139453847Y-109828782D01*
X139475471Y-109818554D01*
X139497993Y-109810496D01*
X139521197Y-109804684D01*
X139544858Y-109801174D01*
X139568750Y-109800000D01*
X140056250Y-109800000D01*
X140080142Y-109801174D01*
X140080142Y-109801174D01*
G37*
D11*
X139812500Y-110500000D03*
D10*
G36*
X134705142Y-109801174D02*
G01*
X134728803Y-109804684D01*
X134752007Y-109810496D01*
X134774529Y-109818554D01*
X134796153Y-109828782D01*
X134816670Y-109841079D01*
X134835883Y-109855329D01*
X134853607Y-109871393D01*
X134869671Y-109889117D01*
X134883921Y-109908330D01*
X134896218Y-109928847D01*
X134906446Y-109950471D01*
X134914504Y-109972993D01*
X134920316Y-109996197D01*
X134923826Y-110019858D01*
X134925000Y-110043750D01*
X134925000Y-110956250D01*
X134923826Y-110980142D01*
X134920316Y-111003803D01*
X134914504Y-111027007D01*
X134906446Y-111049529D01*
X134896218Y-111071153D01*
X134883921Y-111091670D01*
X134869671Y-111110883D01*
X134853607Y-111128607D01*
X134835883Y-111144671D01*
X134816670Y-111158921D01*
X134796153Y-111171218D01*
X134774529Y-111181446D01*
X134752007Y-111189504D01*
X134728803Y-111195316D01*
X134705142Y-111198826D01*
X134681250Y-111200000D01*
X134193750Y-111200000D01*
X134169858Y-111198826D01*
X134146197Y-111195316D01*
X134122993Y-111189504D01*
X134100471Y-111181446D01*
X134078847Y-111171218D01*
X134058330Y-111158921D01*
X134039117Y-111144671D01*
X134021393Y-111128607D01*
X134005329Y-111110883D01*
X133991079Y-111091670D01*
X133978782Y-111071153D01*
X133968554Y-111049529D01*
X133960496Y-111027007D01*
X133954684Y-111003803D01*
X133951174Y-110980142D01*
X133950000Y-110956250D01*
X133950000Y-110043750D01*
X133951174Y-110019858D01*
X133954684Y-109996197D01*
X133960496Y-109972993D01*
X133968554Y-109950471D01*
X133978782Y-109928847D01*
X133991079Y-109908330D01*
X134005329Y-109889117D01*
X134021393Y-109871393D01*
X134039117Y-109855329D01*
X134058330Y-109841079D01*
X134078847Y-109828782D01*
X134100471Y-109818554D01*
X134122993Y-109810496D01*
X134146197Y-109804684D01*
X134169858Y-109801174D01*
X134193750Y-109800000D01*
X134681250Y-109800000D01*
X134705142Y-109801174D01*
X134705142Y-109801174D01*
G37*
D11*
X134437500Y-110500000D03*
D10*
G36*
X132830142Y-109801174D02*
G01*
X132853803Y-109804684D01*
X132877007Y-109810496D01*
X132899529Y-109818554D01*
X132921153Y-109828782D01*
X132941670Y-109841079D01*
X132960883Y-109855329D01*
X132978607Y-109871393D01*
X132994671Y-109889117D01*
X133008921Y-109908330D01*
X133021218Y-109928847D01*
X133031446Y-109950471D01*
X133039504Y-109972993D01*
X133045316Y-109996197D01*
X133048826Y-110019858D01*
X133050000Y-110043750D01*
X133050000Y-110956250D01*
X133048826Y-110980142D01*
X133045316Y-111003803D01*
X133039504Y-111027007D01*
X133031446Y-111049529D01*
X133021218Y-111071153D01*
X133008921Y-111091670D01*
X132994671Y-111110883D01*
X132978607Y-111128607D01*
X132960883Y-111144671D01*
X132941670Y-111158921D01*
X132921153Y-111171218D01*
X132899529Y-111181446D01*
X132877007Y-111189504D01*
X132853803Y-111195316D01*
X132830142Y-111198826D01*
X132806250Y-111200000D01*
X132318750Y-111200000D01*
X132294858Y-111198826D01*
X132271197Y-111195316D01*
X132247993Y-111189504D01*
X132225471Y-111181446D01*
X132203847Y-111171218D01*
X132183330Y-111158921D01*
X132164117Y-111144671D01*
X132146393Y-111128607D01*
X132130329Y-111110883D01*
X132116079Y-111091670D01*
X132103782Y-111071153D01*
X132093554Y-111049529D01*
X132085496Y-111027007D01*
X132079684Y-111003803D01*
X132076174Y-110980142D01*
X132075000Y-110956250D01*
X132075000Y-110043750D01*
X132076174Y-110019858D01*
X132079684Y-109996197D01*
X132085496Y-109972993D01*
X132093554Y-109950471D01*
X132103782Y-109928847D01*
X132116079Y-109908330D01*
X132130329Y-109889117D01*
X132146393Y-109871393D01*
X132164117Y-109855329D01*
X132183330Y-109841079D01*
X132203847Y-109828782D01*
X132225471Y-109818554D01*
X132247993Y-109810496D01*
X132271197Y-109804684D01*
X132294858Y-109801174D01*
X132318750Y-109800000D01*
X132806250Y-109800000D01*
X132830142Y-109801174D01*
X132830142Y-109801174D01*
G37*
D11*
X132562500Y-110500000D03*
D12*
X158250000Y-112250000D03*
X158250000Y-108000000D03*
X158250000Y-116500000D03*
X118750000Y-112500000D03*
X118750000Y-116750000D03*
X118750000Y-108250000D03*
D10*
G36*
X151277691Y-113813553D02*
G01*
X151298926Y-113816703D01*
X151319750Y-113821919D01*
X151339962Y-113829151D01*
X151359368Y-113838330D01*
X151377781Y-113849366D01*
X151395024Y-113862154D01*
X151410930Y-113876570D01*
X151425346Y-113892476D01*
X151438134Y-113909719D01*
X151449170Y-113928132D01*
X151458349Y-113947538D01*
X151465581Y-113967750D01*
X151470797Y-113988574D01*
X151473947Y-114009809D01*
X151475000Y-114031250D01*
X151475000Y-114468750D01*
X151473947Y-114490191D01*
X151470797Y-114511426D01*
X151465581Y-114532250D01*
X151458349Y-114552462D01*
X151449170Y-114571868D01*
X151438134Y-114590281D01*
X151425346Y-114607524D01*
X151410930Y-114623430D01*
X151395024Y-114637846D01*
X151377781Y-114650634D01*
X151359368Y-114661670D01*
X151339962Y-114670849D01*
X151319750Y-114678081D01*
X151298926Y-114683297D01*
X151277691Y-114686447D01*
X151256250Y-114687500D01*
X150743750Y-114687500D01*
X150722309Y-114686447D01*
X150701074Y-114683297D01*
X150680250Y-114678081D01*
X150660038Y-114670849D01*
X150640632Y-114661670D01*
X150622219Y-114650634D01*
X150604976Y-114637846D01*
X150589070Y-114623430D01*
X150574654Y-114607524D01*
X150561866Y-114590281D01*
X150550830Y-114571868D01*
X150541651Y-114552462D01*
X150534419Y-114532250D01*
X150529203Y-114511426D01*
X150526053Y-114490191D01*
X150525000Y-114468750D01*
X150525000Y-114031250D01*
X150526053Y-114009809D01*
X150529203Y-113988574D01*
X150534419Y-113967750D01*
X150541651Y-113947538D01*
X150550830Y-113928132D01*
X150561866Y-113909719D01*
X150574654Y-113892476D01*
X150589070Y-113876570D01*
X150604976Y-113862154D01*
X150622219Y-113849366D01*
X150640632Y-113838330D01*
X150660038Y-113829151D01*
X150680250Y-113821919D01*
X150701074Y-113816703D01*
X150722309Y-113813553D01*
X150743750Y-113812500D01*
X151256250Y-113812500D01*
X151277691Y-113813553D01*
X151277691Y-113813553D01*
G37*
D13*
X151000000Y-114250000D03*
D10*
G36*
X151277691Y-112238553D02*
G01*
X151298926Y-112241703D01*
X151319750Y-112246919D01*
X151339962Y-112254151D01*
X151359368Y-112263330D01*
X151377781Y-112274366D01*
X151395024Y-112287154D01*
X151410930Y-112301570D01*
X151425346Y-112317476D01*
X151438134Y-112334719D01*
X151449170Y-112353132D01*
X151458349Y-112372538D01*
X151465581Y-112392750D01*
X151470797Y-112413574D01*
X151473947Y-112434809D01*
X151475000Y-112456250D01*
X151475000Y-112893750D01*
X151473947Y-112915191D01*
X151470797Y-112936426D01*
X151465581Y-112957250D01*
X151458349Y-112977462D01*
X151449170Y-112996868D01*
X151438134Y-113015281D01*
X151425346Y-113032524D01*
X151410930Y-113048430D01*
X151395024Y-113062846D01*
X151377781Y-113075634D01*
X151359368Y-113086670D01*
X151339962Y-113095849D01*
X151319750Y-113103081D01*
X151298926Y-113108297D01*
X151277691Y-113111447D01*
X151256250Y-113112500D01*
X150743750Y-113112500D01*
X150722309Y-113111447D01*
X150701074Y-113108297D01*
X150680250Y-113103081D01*
X150660038Y-113095849D01*
X150640632Y-113086670D01*
X150622219Y-113075634D01*
X150604976Y-113062846D01*
X150589070Y-113048430D01*
X150574654Y-113032524D01*
X150561866Y-113015281D01*
X150550830Y-112996868D01*
X150541651Y-112977462D01*
X150534419Y-112957250D01*
X150529203Y-112936426D01*
X150526053Y-112915191D01*
X150525000Y-112893750D01*
X150525000Y-112456250D01*
X150526053Y-112434809D01*
X150529203Y-112413574D01*
X150534419Y-112392750D01*
X150541651Y-112372538D01*
X150550830Y-112353132D01*
X150561866Y-112334719D01*
X150574654Y-112317476D01*
X150589070Y-112301570D01*
X150604976Y-112287154D01*
X150622219Y-112274366D01*
X150640632Y-112263330D01*
X150660038Y-112254151D01*
X150680250Y-112246919D01*
X150701074Y-112241703D01*
X150722309Y-112238553D01*
X150743750Y-112237500D01*
X151256250Y-112237500D01*
X151277691Y-112238553D01*
X151277691Y-112238553D01*
G37*
D13*
X151000000Y-112675000D03*
D10*
G36*
X146952691Y-112276053D02*
G01*
X146973926Y-112279203D01*
X146994750Y-112284419D01*
X147014962Y-112291651D01*
X147034368Y-112300830D01*
X147052781Y-112311866D01*
X147070024Y-112324654D01*
X147085930Y-112339070D01*
X147100346Y-112354976D01*
X147113134Y-112372219D01*
X147124170Y-112390632D01*
X147133349Y-112410038D01*
X147140581Y-112430250D01*
X147145797Y-112451074D01*
X147148947Y-112472309D01*
X147150000Y-112493750D01*
X147150000Y-113006250D01*
X147148947Y-113027691D01*
X147145797Y-113048926D01*
X147140581Y-113069750D01*
X147133349Y-113089962D01*
X147124170Y-113109368D01*
X147113134Y-113127781D01*
X147100346Y-113145024D01*
X147085930Y-113160930D01*
X147070024Y-113175346D01*
X147052781Y-113188134D01*
X147034368Y-113199170D01*
X147014962Y-113208349D01*
X146994750Y-113215581D01*
X146973926Y-113220797D01*
X146952691Y-113223947D01*
X146931250Y-113225000D01*
X146493750Y-113225000D01*
X146472309Y-113223947D01*
X146451074Y-113220797D01*
X146430250Y-113215581D01*
X146410038Y-113208349D01*
X146390632Y-113199170D01*
X146372219Y-113188134D01*
X146354976Y-113175346D01*
X146339070Y-113160930D01*
X146324654Y-113145024D01*
X146311866Y-113127781D01*
X146300830Y-113109368D01*
X146291651Y-113089962D01*
X146284419Y-113069750D01*
X146279203Y-113048926D01*
X146276053Y-113027691D01*
X146275000Y-113006250D01*
X146275000Y-112493750D01*
X146276053Y-112472309D01*
X146279203Y-112451074D01*
X146284419Y-112430250D01*
X146291651Y-112410038D01*
X146300830Y-112390632D01*
X146311866Y-112372219D01*
X146324654Y-112354976D01*
X146339070Y-112339070D01*
X146354976Y-112324654D01*
X146372219Y-112311866D01*
X146390632Y-112300830D01*
X146410038Y-112291651D01*
X146430250Y-112284419D01*
X146451074Y-112279203D01*
X146472309Y-112276053D01*
X146493750Y-112275000D01*
X146931250Y-112275000D01*
X146952691Y-112276053D01*
X146952691Y-112276053D01*
G37*
D13*
X146712500Y-112750000D03*
D10*
G36*
X148527691Y-112276053D02*
G01*
X148548926Y-112279203D01*
X148569750Y-112284419D01*
X148589962Y-112291651D01*
X148609368Y-112300830D01*
X148627781Y-112311866D01*
X148645024Y-112324654D01*
X148660930Y-112339070D01*
X148675346Y-112354976D01*
X148688134Y-112372219D01*
X148699170Y-112390632D01*
X148708349Y-112410038D01*
X148715581Y-112430250D01*
X148720797Y-112451074D01*
X148723947Y-112472309D01*
X148725000Y-112493750D01*
X148725000Y-113006250D01*
X148723947Y-113027691D01*
X148720797Y-113048926D01*
X148715581Y-113069750D01*
X148708349Y-113089962D01*
X148699170Y-113109368D01*
X148688134Y-113127781D01*
X148675346Y-113145024D01*
X148660930Y-113160930D01*
X148645024Y-113175346D01*
X148627781Y-113188134D01*
X148609368Y-113199170D01*
X148589962Y-113208349D01*
X148569750Y-113215581D01*
X148548926Y-113220797D01*
X148527691Y-113223947D01*
X148506250Y-113225000D01*
X148068750Y-113225000D01*
X148047309Y-113223947D01*
X148026074Y-113220797D01*
X148005250Y-113215581D01*
X147985038Y-113208349D01*
X147965632Y-113199170D01*
X147947219Y-113188134D01*
X147929976Y-113175346D01*
X147914070Y-113160930D01*
X147899654Y-113145024D01*
X147886866Y-113127781D01*
X147875830Y-113109368D01*
X147866651Y-113089962D01*
X147859419Y-113069750D01*
X147854203Y-113048926D01*
X147851053Y-113027691D01*
X147850000Y-113006250D01*
X147850000Y-112493750D01*
X147851053Y-112472309D01*
X147854203Y-112451074D01*
X147859419Y-112430250D01*
X147866651Y-112410038D01*
X147875830Y-112390632D01*
X147886866Y-112372219D01*
X147899654Y-112354976D01*
X147914070Y-112339070D01*
X147929976Y-112324654D01*
X147947219Y-112311866D01*
X147965632Y-112300830D01*
X147985038Y-112291651D01*
X148005250Y-112284419D01*
X148026074Y-112279203D01*
X148047309Y-112276053D01*
X148068750Y-112275000D01*
X148506250Y-112275000D01*
X148527691Y-112276053D01*
X148527691Y-112276053D01*
G37*
D13*
X148287500Y-112750000D03*
D10*
G36*
X144527691Y-113813553D02*
G01*
X144548926Y-113816703D01*
X144569750Y-113821919D01*
X144589962Y-113829151D01*
X144609368Y-113838330D01*
X144627781Y-113849366D01*
X144645024Y-113862154D01*
X144660930Y-113876570D01*
X144675346Y-113892476D01*
X144688134Y-113909719D01*
X144699170Y-113928132D01*
X144708349Y-113947538D01*
X144715581Y-113967750D01*
X144720797Y-113988574D01*
X144723947Y-114009809D01*
X144725000Y-114031250D01*
X144725000Y-114468750D01*
X144723947Y-114490191D01*
X144720797Y-114511426D01*
X144715581Y-114532250D01*
X144708349Y-114552462D01*
X144699170Y-114571868D01*
X144688134Y-114590281D01*
X144675346Y-114607524D01*
X144660930Y-114623430D01*
X144645024Y-114637846D01*
X144627781Y-114650634D01*
X144609368Y-114661670D01*
X144589962Y-114670849D01*
X144569750Y-114678081D01*
X144548926Y-114683297D01*
X144527691Y-114686447D01*
X144506250Y-114687500D01*
X143993750Y-114687500D01*
X143972309Y-114686447D01*
X143951074Y-114683297D01*
X143930250Y-114678081D01*
X143910038Y-114670849D01*
X143890632Y-114661670D01*
X143872219Y-114650634D01*
X143854976Y-114637846D01*
X143839070Y-114623430D01*
X143824654Y-114607524D01*
X143811866Y-114590281D01*
X143800830Y-114571868D01*
X143791651Y-114552462D01*
X143784419Y-114532250D01*
X143779203Y-114511426D01*
X143776053Y-114490191D01*
X143775000Y-114468750D01*
X143775000Y-114031250D01*
X143776053Y-114009809D01*
X143779203Y-113988574D01*
X143784419Y-113967750D01*
X143791651Y-113947538D01*
X143800830Y-113928132D01*
X143811866Y-113909719D01*
X143824654Y-113892476D01*
X143839070Y-113876570D01*
X143854976Y-113862154D01*
X143872219Y-113849366D01*
X143890632Y-113838330D01*
X143910038Y-113829151D01*
X143930250Y-113821919D01*
X143951074Y-113816703D01*
X143972309Y-113813553D01*
X143993750Y-113812500D01*
X144506250Y-113812500D01*
X144527691Y-113813553D01*
X144527691Y-113813553D01*
G37*
D13*
X144250000Y-114250000D03*
D10*
G36*
X144527691Y-112238553D02*
G01*
X144548926Y-112241703D01*
X144569750Y-112246919D01*
X144589962Y-112254151D01*
X144609368Y-112263330D01*
X144627781Y-112274366D01*
X144645024Y-112287154D01*
X144660930Y-112301570D01*
X144675346Y-112317476D01*
X144688134Y-112334719D01*
X144699170Y-112353132D01*
X144708349Y-112372538D01*
X144715581Y-112392750D01*
X144720797Y-112413574D01*
X144723947Y-112434809D01*
X144725000Y-112456250D01*
X144725000Y-112893750D01*
X144723947Y-112915191D01*
X144720797Y-112936426D01*
X144715581Y-112957250D01*
X144708349Y-112977462D01*
X144699170Y-112996868D01*
X144688134Y-113015281D01*
X144675346Y-113032524D01*
X144660930Y-113048430D01*
X144645024Y-113062846D01*
X144627781Y-113075634D01*
X144609368Y-113086670D01*
X144589962Y-113095849D01*
X144569750Y-113103081D01*
X144548926Y-113108297D01*
X144527691Y-113111447D01*
X144506250Y-113112500D01*
X143993750Y-113112500D01*
X143972309Y-113111447D01*
X143951074Y-113108297D01*
X143930250Y-113103081D01*
X143910038Y-113095849D01*
X143890632Y-113086670D01*
X143872219Y-113075634D01*
X143854976Y-113062846D01*
X143839070Y-113048430D01*
X143824654Y-113032524D01*
X143811866Y-113015281D01*
X143800830Y-112996868D01*
X143791651Y-112977462D01*
X143784419Y-112957250D01*
X143779203Y-112936426D01*
X143776053Y-112915191D01*
X143775000Y-112893750D01*
X143775000Y-112456250D01*
X143776053Y-112434809D01*
X143779203Y-112413574D01*
X143784419Y-112392750D01*
X143791651Y-112372538D01*
X143800830Y-112353132D01*
X143811866Y-112334719D01*
X143824654Y-112317476D01*
X143839070Y-112301570D01*
X143854976Y-112287154D01*
X143872219Y-112274366D01*
X143890632Y-112263330D01*
X143910038Y-112254151D01*
X143930250Y-112246919D01*
X143951074Y-112241703D01*
X143972309Y-112238553D01*
X143993750Y-112237500D01*
X144506250Y-112237500D01*
X144527691Y-112238553D01*
X144527691Y-112238553D01*
G37*
D13*
X144250000Y-112675000D03*
D10*
G36*
X140202691Y-112276053D02*
G01*
X140223926Y-112279203D01*
X140244750Y-112284419D01*
X140264962Y-112291651D01*
X140284368Y-112300830D01*
X140302781Y-112311866D01*
X140320024Y-112324654D01*
X140335930Y-112339070D01*
X140350346Y-112354976D01*
X140363134Y-112372219D01*
X140374170Y-112390632D01*
X140383349Y-112410038D01*
X140390581Y-112430250D01*
X140395797Y-112451074D01*
X140398947Y-112472309D01*
X140400000Y-112493750D01*
X140400000Y-113006250D01*
X140398947Y-113027691D01*
X140395797Y-113048926D01*
X140390581Y-113069750D01*
X140383349Y-113089962D01*
X140374170Y-113109368D01*
X140363134Y-113127781D01*
X140350346Y-113145024D01*
X140335930Y-113160930D01*
X140320024Y-113175346D01*
X140302781Y-113188134D01*
X140284368Y-113199170D01*
X140264962Y-113208349D01*
X140244750Y-113215581D01*
X140223926Y-113220797D01*
X140202691Y-113223947D01*
X140181250Y-113225000D01*
X139743750Y-113225000D01*
X139722309Y-113223947D01*
X139701074Y-113220797D01*
X139680250Y-113215581D01*
X139660038Y-113208349D01*
X139640632Y-113199170D01*
X139622219Y-113188134D01*
X139604976Y-113175346D01*
X139589070Y-113160930D01*
X139574654Y-113145024D01*
X139561866Y-113127781D01*
X139550830Y-113109368D01*
X139541651Y-113089962D01*
X139534419Y-113069750D01*
X139529203Y-113048926D01*
X139526053Y-113027691D01*
X139525000Y-113006250D01*
X139525000Y-112493750D01*
X139526053Y-112472309D01*
X139529203Y-112451074D01*
X139534419Y-112430250D01*
X139541651Y-112410038D01*
X139550830Y-112390632D01*
X139561866Y-112372219D01*
X139574654Y-112354976D01*
X139589070Y-112339070D01*
X139604976Y-112324654D01*
X139622219Y-112311866D01*
X139640632Y-112300830D01*
X139660038Y-112291651D01*
X139680250Y-112284419D01*
X139701074Y-112279203D01*
X139722309Y-112276053D01*
X139743750Y-112275000D01*
X140181250Y-112275000D01*
X140202691Y-112276053D01*
X140202691Y-112276053D01*
G37*
D13*
X139962500Y-112750000D03*
D10*
G36*
X141777691Y-112276053D02*
G01*
X141798926Y-112279203D01*
X141819750Y-112284419D01*
X141839962Y-112291651D01*
X141859368Y-112300830D01*
X141877781Y-112311866D01*
X141895024Y-112324654D01*
X141910930Y-112339070D01*
X141925346Y-112354976D01*
X141938134Y-112372219D01*
X141949170Y-112390632D01*
X141958349Y-112410038D01*
X141965581Y-112430250D01*
X141970797Y-112451074D01*
X141973947Y-112472309D01*
X141975000Y-112493750D01*
X141975000Y-113006250D01*
X141973947Y-113027691D01*
X141970797Y-113048926D01*
X141965581Y-113069750D01*
X141958349Y-113089962D01*
X141949170Y-113109368D01*
X141938134Y-113127781D01*
X141925346Y-113145024D01*
X141910930Y-113160930D01*
X141895024Y-113175346D01*
X141877781Y-113188134D01*
X141859368Y-113199170D01*
X141839962Y-113208349D01*
X141819750Y-113215581D01*
X141798926Y-113220797D01*
X141777691Y-113223947D01*
X141756250Y-113225000D01*
X141318750Y-113225000D01*
X141297309Y-113223947D01*
X141276074Y-113220797D01*
X141255250Y-113215581D01*
X141235038Y-113208349D01*
X141215632Y-113199170D01*
X141197219Y-113188134D01*
X141179976Y-113175346D01*
X141164070Y-113160930D01*
X141149654Y-113145024D01*
X141136866Y-113127781D01*
X141125830Y-113109368D01*
X141116651Y-113089962D01*
X141109419Y-113069750D01*
X141104203Y-113048926D01*
X141101053Y-113027691D01*
X141100000Y-113006250D01*
X141100000Y-112493750D01*
X141101053Y-112472309D01*
X141104203Y-112451074D01*
X141109419Y-112430250D01*
X141116651Y-112410038D01*
X141125830Y-112390632D01*
X141136866Y-112372219D01*
X141149654Y-112354976D01*
X141164070Y-112339070D01*
X141179976Y-112324654D01*
X141197219Y-112311866D01*
X141215632Y-112300830D01*
X141235038Y-112291651D01*
X141255250Y-112284419D01*
X141276074Y-112279203D01*
X141297309Y-112276053D01*
X141318750Y-112275000D01*
X141756250Y-112275000D01*
X141777691Y-112276053D01*
X141777691Y-112276053D01*
G37*
D13*
X141537500Y-112750000D03*
D10*
G36*
X137527691Y-113851053D02*
G01*
X137548926Y-113854203D01*
X137569750Y-113859419D01*
X137589962Y-113866651D01*
X137609368Y-113875830D01*
X137627781Y-113886866D01*
X137645024Y-113899654D01*
X137660930Y-113914070D01*
X137675346Y-113929976D01*
X137688134Y-113947219D01*
X137699170Y-113965632D01*
X137708349Y-113985038D01*
X137715581Y-114005250D01*
X137720797Y-114026074D01*
X137723947Y-114047309D01*
X137725000Y-114068750D01*
X137725000Y-114506250D01*
X137723947Y-114527691D01*
X137720797Y-114548926D01*
X137715581Y-114569750D01*
X137708349Y-114589962D01*
X137699170Y-114609368D01*
X137688134Y-114627781D01*
X137675346Y-114645024D01*
X137660930Y-114660930D01*
X137645024Y-114675346D01*
X137627781Y-114688134D01*
X137609368Y-114699170D01*
X137589962Y-114708349D01*
X137569750Y-114715581D01*
X137548926Y-114720797D01*
X137527691Y-114723947D01*
X137506250Y-114725000D01*
X136993750Y-114725000D01*
X136972309Y-114723947D01*
X136951074Y-114720797D01*
X136930250Y-114715581D01*
X136910038Y-114708349D01*
X136890632Y-114699170D01*
X136872219Y-114688134D01*
X136854976Y-114675346D01*
X136839070Y-114660930D01*
X136824654Y-114645024D01*
X136811866Y-114627781D01*
X136800830Y-114609368D01*
X136791651Y-114589962D01*
X136784419Y-114569750D01*
X136779203Y-114548926D01*
X136776053Y-114527691D01*
X136775000Y-114506250D01*
X136775000Y-114068750D01*
X136776053Y-114047309D01*
X136779203Y-114026074D01*
X136784419Y-114005250D01*
X136791651Y-113985038D01*
X136800830Y-113965632D01*
X136811866Y-113947219D01*
X136824654Y-113929976D01*
X136839070Y-113914070D01*
X136854976Y-113899654D01*
X136872219Y-113886866D01*
X136890632Y-113875830D01*
X136910038Y-113866651D01*
X136930250Y-113859419D01*
X136951074Y-113854203D01*
X136972309Y-113851053D01*
X136993750Y-113850000D01*
X137506250Y-113850000D01*
X137527691Y-113851053D01*
X137527691Y-113851053D01*
G37*
D13*
X137250000Y-114287500D03*
D10*
G36*
X137527691Y-112276053D02*
G01*
X137548926Y-112279203D01*
X137569750Y-112284419D01*
X137589962Y-112291651D01*
X137609368Y-112300830D01*
X137627781Y-112311866D01*
X137645024Y-112324654D01*
X137660930Y-112339070D01*
X137675346Y-112354976D01*
X137688134Y-112372219D01*
X137699170Y-112390632D01*
X137708349Y-112410038D01*
X137715581Y-112430250D01*
X137720797Y-112451074D01*
X137723947Y-112472309D01*
X137725000Y-112493750D01*
X137725000Y-112931250D01*
X137723947Y-112952691D01*
X137720797Y-112973926D01*
X137715581Y-112994750D01*
X137708349Y-113014962D01*
X137699170Y-113034368D01*
X137688134Y-113052781D01*
X137675346Y-113070024D01*
X137660930Y-113085930D01*
X137645024Y-113100346D01*
X137627781Y-113113134D01*
X137609368Y-113124170D01*
X137589962Y-113133349D01*
X137569750Y-113140581D01*
X137548926Y-113145797D01*
X137527691Y-113148947D01*
X137506250Y-113150000D01*
X136993750Y-113150000D01*
X136972309Y-113148947D01*
X136951074Y-113145797D01*
X136930250Y-113140581D01*
X136910038Y-113133349D01*
X136890632Y-113124170D01*
X136872219Y-113113134D01*
X136854976Y-113100346D01*
X136839070Y-113085930D01*
X136824654Y-113070024D01*
X136811866Y-113052781D01*
X136800830Y-113034368D01*
X136791651Y-113014962D01*
X136784419Y-112994750D01*
X136779203Y-112973926D01*
X136776053Y-112952691D01*
X136775000Y-112931250D01*
X136775000Y-112493750D01*
X136776053Y-112472309D01*
X136779203Y-112451074D01*
X136784419Y-112430250D01*
X136791651Y-112410038D01*
X136800830Y-112390632D01*
X136811866Y-112372219D01*
X136824654Y-112354976D01*
X136839070Y-112339070D01*
X136854976Y-112324654D01*
X136872219Y-112311866D01*
X136890632Y-112300830D01*
X136910038Y-112291651D01*
X136930250Y-112284419D01*
X136951074Y-112279203D01*
X136972309Y-112276053D01*
X136993750Y-112275000D01*
X137506250Y-112275000D01*
X137527691Y-112276053D01*
X137527691Y-112276053D01*
G37*
D13*
X137250000Y-112712500D03*
D10*
G36*
X132952691Y-112276053D02*
G01*
X132973926Y-112279203D01*
X132994750Y-112284419D01*
X133014962Y-112291651D01*
X133034368Y-112300830D01*
X133052781Y-112311866D01*
X133070024Y-112324654D01*
X133085930Y-112339070D01*
X133100346Y-112354976D01*
X133113134Y-112372219D01*
X133124170Y-112390632D01*
X133133349Y-112410038D01*
X133140581Y-112430250D01*
X133145797Y-112451074D01*
X133148947Y-112472309D01*
X133150000Y-112493750D01*
X133150000Y-113006250D01*
X133148947Y-113027691D01*
X133145797Y-113048926D01*
X133140581Y-113069750D01*
X133133349Y-113089962D01*
X133124170Y-113109368D01*
X133113134Y-113127781D01*
X133100346Y-113145024D01*
X133085930Y-113160930D01*
X133070024Y-113175346D01*
X133052781Y-113188134D01*
X133034368Y-113199170D01*
X133014962Y-113208349D01*
X132994750Y-113215581D01*
X132973926Y-113220797D01*
X132952691Y-113223947D01*
X132931250Y-113225000D01*
X132493750Y-113225000D01*
X132472309Y-113223947D01*
X132451074Y-113220797D01*
X132430250Y-113215581D01*
X132410038Y-113208349D01*
X132390632Y-113199170D01*
X132372219Y-113188134D01*
X132354976Y-113175346D01*
X132339070Y-113160930D01*
X132324654Y-113145024D01*
X132311866Y-113127781D01*
X132300830Y-113109368D01*
X132291651Y-113089962D01*
X132284419Y-113069750D01*
X132279203Y-113048926D01*
X132276053Y-113027691D01*
X132275000Y-113006250D01*
X132275000Y-112493750D01*
X132276053Y-112472309D01*
X132279203Y-112451074D01*
X132284419Y-112430250D01*
X132291651Y-112410038D01*
X132300830Y-112390632D01*
X132311866Y-112372219D01*
X132324654Y-112354976D01*
X132339070Y-112339070D01*
X132354976Y-112324654D01*
X132372219Y-112311866D01*
X132390632Y-112300830D01*
X132410038Y-112291651D01*
X132430250Y-112284419D01*
X132451074Y-112279203D01*
X132472309Y-112276053D01*
X132493750Y-112275000D01*
X132931250Y-112275000D01*
X132952691Y-112276053D01*
X132952691Y-112276053D01*
G37*
D13*
X132712500Y-112750000D03*
D10*
G36*
X134527691Y-112276053D02*
G01*
X134548926Y-112279203D01*
X134569750Y-112284419D01*
X134589962Y-112291651D01*
X134609368Y-112300830D01*
X134627781Y-112311866D01*
X134645024Y-112324654D01*
X134660930Y-112339070D01*
X134675346Y-112354976D01*
X134688134Y-112372219D01*
X134699170Y-112390632D01*
X134708349Y-112410038D01*
X134715581Y-112430250D01*
X134720797Y-112451074D01*
X134723947Y-112472309D01*
X134725000Y-112493750D01*
X134725000Y-113006250D01*
X134723947Y-113027691D01*
X134720797Y-113048926D01*
X134715581Y-113069750D01*
X134708349Y-113089962D01*
X134699170Y-113109368D01*
X134688134Y-113127781D01*
X134675346Y-113145024D01*
X134660930Y-113160930D01*
X134645024Y-113175346D01*
X134627781Y-113188134D01*
X134609368Y-113199170D01*
X134589962Y-113208349D01*
X134569750Y-113215581D01*
X134548926Y-113220797D01*
X134527691Y-113223947D01*
X134506250Y-113225000D01*
X134068750Y-113225000D01*
X134047309Y-113223947D01*
X134026074Y-113220797D01*
X134005250Y-113215581D01*
X133985038Y-113208349D01*
X133965632Y-113199170D01*
X133947219Y-113188134D01*
X133929976Y-113175346D01*
X133914070Y-113160930D01*
X133899654Y-113145024D01*
X133886866Y-113127781D01*
X133875830Y-113109368D01*
X133866651Y-113089962D01*
X133859419Y-113069750D01*
X133854203Y-113048926D01*
X133851053Y-113027691D01*
X133850000Y-113006250D01*
X133850000Y-112493750D01*
X133851053Y-112472309D01*
X133854203Y-112451074D01*
X133859419Y-112430250D01*
X133866651Y-112410038D01*
X133875830Y-112390632D01*
X133886866Y-112372219D01*
X133899654Y-112354976D01*
X133914070Y-112339070D01*
X133929976Y-112324654D01*
X133947219Y-112311866D01*
X133965632Y-112300830D01*
X133985038Y-112291651D01*
X134005250Y-112284419D01*
X134026074Y-112279203D01*
X134047309Y-112276053D01*
X134068750Y-112275000D01*
X134506250Y-112275000D01*
X134527691Y-112276053D01*
X134527691Y-112276053D01*
G37*
D13*
X134287500Y-112750000D03*
D10*
G36*
X128777691Y-113851053D02*
G01*
X128798926Y-113854203D01*
X128819750Y-113859419D01*
X128839962Y-113866651D01*
X128859368Y-113875830D01*
X128877781Y-113886866D01*
X128895024Y-113899654D01*
X128910930Y-113914070D01*
X128925346Y-113929976D01*
X128938134Y-113947219D01*
X128949170Y-113965632D01*
X128958349Y-113985038D01*
X128965581Y-114005250D01*
X128970797Y-114026074D01*
X128973947Y-114047309D01*
X128975000Y-114068750D01*
X128975000Y-114506250D01*
X128973947Y-114527691D01*
X128970797Y-114548926D01*
X128965581Y-114569750D01*
X128958349Y-114589962D01*
X128949170Y-114609368D01*
X128938134Y-114627781D01*
X128925346Y-114645024D01*
X128910930Y-114660930D01*
X128895024Y-114675346D01*
X128877781Y-114688134D01*
X128859368Y-114699170D01*
X128839962Y-114708349D01*
X128819750Y-114715581D01*
X128798926Y-114720797D01*
X128777691Y-114723947D01*
X128756250Y-114725000D01*
X128243750Y-114725000D01*
X128222309Y-114723947D01*
X128201074Y-114720797D01*
X128180250Y-114715581D01*
X128160038Y-114708349D01*
X128140632Y-114699170D01*
X128122219Y-114688134D01*
X128104976Y-114675346D01*
X128089070Y-114660930D01*
X128074654Y-114645024D01*
X128061866Y-114627781D01*
X128050830Y-114609368D01*
X128041651Y-114589962D01*
X128034419Y-114569750D01*
X128029203Y-114548926D01*
X128026053Y-114527691D01*
X128025000Y-114506250D01*
X128025000Y-114068750D01*
X128026053Y-114047309D01*
X128029203Y-114026074D01*
X128034419Y-114005250D01*
X128041651Y-113985038D01*
X128050830Y-113965632D01*
X128061866Y-113947219D01*
X128074654Y-113929976D01*
X128089070Y-113914070D01*
X128104976Y-113899654D01*
X128122219Y-113886866D01*
X128140632Y-113875830D01*
X128160038Y-113866651D01*
X128180250Y-113859419D01*
X128201074Y-113854203D01*
X128222309Y-113851053D01*
X128243750Y-113850000D01*
X128756250Y-113850000D01*
X128777691Y-113851053D01*
X128777691Y-113851053D01*
G37*
D13*
X128500000Y-114287500D03*
D10*
G36*
X128777691Y-112276053D02*
G01*
X128798926Y-112279203D01*
X128819750Y-112284419D01*
X128839962Y-112291651D01*
X128859368Y-112300830D01*
X128877781Y-112311866D01*
X128895024Y-112324654D01*
X128910930Y-112339070D01*
X128925346Y-112354976D01*
X128938134Y-112372219D01*
X128949170Y-112390632D01*
X128958349Y-112410038D01*
X128965581Y-112430250D01*
X128970797Y-112451074D01*
X128973947Y-112472309D01*
X128975000Y-112493750D01*
X128975000Y-112931250D01*
X128973947Y-112952691D01*
X128970797Y-112973926D01*
X128965581Y-112994750D01*
X128958349Y-113014962D01*
X128949170Y-113034368D01*
X128938134Y-113052781D01*
X128925346Y-113070024D01*
X128910930Y-113085930D01*
X128895024Y-113100346D01*
X128877781Y-113113134D01*
X128859368Y-113124170D01*
X128839962Y-113133349D01*
X128819750Y-113140581D01*
X128798926Y-113145797D01*
X128777691Y-113148947D01*
X128756250Y-113150000D01*
X128243750Y-113150000D01*
X128222309Y-113148947D01*
X128201074Y-113145797D01*
X128180250Y-113140581D01*
X128160038Y-113133349D01*
X128140632Y-113124170D01*
X128122219Y-113113134D01*
X128104976Y-113100346D01*
X128089070Y-113085930D01*
X128074654Y-113070024D01*
X128061866Y-113052781D01*
X128050830Y-113034368D01*
X128041651Y-113014962D01*
X128034419Y-112994750D01*
X128029203Y-112973926D01*
X128026053Y-112952691D01*
X128025000Y-112931250D01*
X128025000Y-112493750D01*
X128026053Y-112472309D01*
X128029203Y-112451074D01*
X128034419Y-112430250D01*
X128041651Y-112410038D01*
X128050830Y-112390632D01*
X128061866Y-112372219D01*
X128074654Y-112354976D01*
X128089070Y-112339070D01*
X128104976Y-112324654D01*
X128122219Y-112311866D01*
X128140632Y-112300830D01*
X128160038Y-112291651D01*
X128180250Y-112284419D01*
X128201074Y-112279203D01*
X128222309Y-112276053D01*
X128243750Y-112275000D01*
X128756250Y-112275000D01*
X128777691Y-112276053D01*
X128777691Y-112276053D01*
G37*
D13*
X128500000Y-112712500D03*
D14*
X147000000Y-129000000D03*
X143000000Y-129000000D03*
X139000000Y-129000000D03*
X135000000Y-129000000D03*
X131000000Y-129000000D03*
X127000000Y-129000000D03*
X126000000Y-126000000D03*
X124000000Y-124000000D03*
X120000000Y-124000000D03*
X117000000Y-123000000D03*
X117000000Y-119000000D03*
X120000000Y-119000000D03*
X123000000Y-117000000D03*
X123000000Y-114000000D03*
X126000000Y-114000000D03*
X126000000Y-111000000D03*
X123000000Y-111000000D03*
X123000000Y-108000000D03*
X120000000Y-106000000D03*
X117000000Y-106000000D03*
X117000000Y-102000000D03*
X120000000Y-101000000D03*
X125000000Y-100500000D03*
X126000000Y-99000000D03*
X127000000Y-96000000D03*
X131000000Y-96000000D03*
X135000000Y-96000000D03*
X139000000Y-96000000D03*
X143000000Y-96000000D03*
X147000000Y-96000000D03*
X151000000Y-96000000D03*
X153750000Y-111000000D03*
X145000000Y-115500000D03*
X137250000Y-115500000D03*
X117000000Y-115000000D03*
X120000000Y-115000000D03*
X120000000Y-110000000D03*
X117000000Y-110000000D03*
X150250000Y-128500000D03*
X150500000Y-125500000D03*
X154000000Y-124000000D03*
X157500000Y-124000000D03*
X159750000Y-122500000D03*
X159750000Y-119000000D03*
X157250000Y-119000000D03*
X158000000Y-114750000D03*
X158000000Y-109500000D03*
X154000000Y-116500000D03*
X154250000Y-108000000D03*
X158000000Y-105750000D03*
D15*
X118962500Y-112712500D02*
X128500000Y-112712500D01*
X118500000Y-112500000D02*
X118750000Y-112500000D01*
X118750000Y-112500000D02*
X118962500Y-112712500D01*
X128500000Y-110937500D02*
X128500000Y-112712500D01*
X132712500Y-110650000D02*
X132562500Y-110500000D01*
X132712500Y-112750000D02*
X132712500Y-110650000D01*
X128937500Y-110500000D02*
X128500000Y-110937500D01*
X132562500Y-110500000D02*
X128937500Y-110500000D01*
X134437500Y-112600000D02*
X134287500Y-112750000D01*
X134437500Y-110500000D02*
X134437500Y-112600000D01*
X137212500Y-112750000D02*
X137250000Y-112712500D01*
X134287500Y-112750000D02*
X137212500Y-112750000D01*
X137287500Y-112750000D02*
X137250000Y-112712500D01*
X139962500Y-112750000D02*
X137287500Y-112750000D01*
X139812500Y-112600000D02*
X139962500Y-112750000D01*
X139812500Y-110500000D02*
X139812500Y-112600000D01*
X141537500Y-110650000D02*
X141687500Y-110500000D01*
X141537500Y-112750000D02*
X141537500Y-110650000D01*
X144175000Y-112750000D02*
X144250000Y-112675000D01*
X141537500Y-112750000D02*
X144175000Y-112750000D01*
X146637500Y-112675000D02*
X146712500Y-112750000D01*
X144250000Y-112675000D02*
X146637500Y-112675000D01*
X146562500Y-112600000D02*
X146712500Y-112750000D01*
X146562500Y-110500000D02*
X146562500Y-112600000D01*
X148437500Y-112600000D02*
X148287500Y-112750000D01*
X148437500Y-110500000D02*
X148437500Y-112600000D01*
X150925000Y-112750000D02*
X151000000Y-112675000D01*
X148287500Y-112750000D02*
X150925000Y-112750000D01*
X157575000Y-112675000D02*
X158000000Y-112250000D01*
X151000000Y-112675000D02*
X157575000Y-112675000D01*
D16*
G36*
X131504053Y-111293709D02*
G01*
X131585542Y-111446164D01*
X131695208Y-111579792D01*
X131828836Y-111689458D01*
X131952500Y-111755558D01*
X131952500Y-111834857D01*
X131887885Y-111887885D01*
X131781329Y-112017725D01*
X131702150Y-112165858D01*
X131653392Y-112326592D01*
X131636928Y-112493750D01*
X131636928Y-113006250D01*
X131653392Y-113173408D01*
X131702150Y-113334142D01*
X131781329Y-113482275D01*
X131887885Y-113612115D01*
X132017725Y-113718671D01*
X132165858Y-113797850D01*
X132326592Y-113846608D01*
X132493750Y-113863072D01*
X132931250Y-113863072D01*
X133098408Y-113846608D01*
X133259142Y-113797850D01*
X133407275Y-113718671D01*
X133500000Y-113642574D01*
X133592725Y-113718671D01*
X133740858Y-113797850D01*
X133901592Y-113846608D01*
X134068750Y-113863072D01*
X134506250Y-113863072D01*
X134673408Y-113846608D01*
X134834142Y-113797850D01*
X134982275Y-113718671D01*
X135112115Y-113612115D01*
X135195918Y-113510000D01*
X136365632Y-113510000D01*
X136387885Y-113537115D01*
X136517725Y-113643671D01*
X136665858Y-113722850D01*
X136826592Y-113771608D01*
X136993750Y-113788072D01*
X137506250Y-113788072D01*
X137673408Y-113771608D01*
X137834142Y-113722850D01*
X137982275Y-113643671D01*
X138112115Y-113537115D01*
X138134368Y-113510000D01*
X139054082Y-113510000D01*
X139137885Y-113612115D01*
X139267725Y-113718671D01*
X139415858Y-113797850D01*
X139576592Y-113846608D01*
X139743750Y-113863072D01*
X140181250Y-113863072D01*
X140348408Y-113846608D01*
X140509142Y-113797850D01*
X140657275Y-113718671D01*
X140750000Y-113642574D01*
X140842725Y-113718671D01*
X140990858Y-113797850D01*
X141151592Y-113846608D01*
X141318750Y-113863072D01*
X141756250Y-113863072D01*
X141923408Y-113846608D01*
X142084142Y-113797850D01*
X142232275Y-113718671D01*
X142362115Y-113612115D01*
X142445918Y-113510000D01*
X143400539Y-113510000D01*
X143517725Y-113606171D01*
X143665858Y-113685350D01*
X143826592Y-113734108D01*
X143993750Y-113750572D01*
X144506250Y-113750572D01*
X144673408Y-113734108D01*
X144834142Y-113685350D01*
X144982275Y-113606171D01*
X145112115Y-113499615D01*
X145165143Y-113435000D01*
X145756060Y-113435000D01*
X145781329Y-113482275D01*
X145887885Y-113612115D01*
X146017725Y-113718671D01*
X146165858Y-113797850D01*
X146326592Y-113846608D01*
X146493750Y-113863072D01*
X146931250Y-113863072D01*
X147098408Y-113846608D01*
X147259142Y-113797850D01*
X147407275Y-113718671D01*
X147500000Y-113642574D01*
X147592725Y-113718671D01*
X147740858Y-113797850D01*
X147901592Y-113846608D01*
X148068750Y-113863072D01*
X148506250Y-113863072D01*
X148673408Y-113846608D01*
X148834142Y-113797850D01*
X148982275Y-113718671D01*
X149112115Y-113612115D01*
X149195918Y-113510000D01*
X150150539Y-113510000D01*
X150267725Y-113606171D01*
X150415858Y-113685350D01*
X150576592Y-113734108D01*
X150743750Y-113750572D01*
X151256250Y-113750572D01*
X151423408Y-113734108D01*
X151584142Y-113685350D01*
X151732275Y-113606171D01*
X151862115Y-113499615D01*
X151915143Y-113435000D01*
X155245532Y-113435000D01*
X155258815Y-113451185D01*
X155355506Y-113530537D01*
X155465820Y-113589502D01*
X155585518Y-113625812D01*
X155710000Y-113638072D01*
X160340001Y-113638072D01*
X160340001Y-123967712D01*
X160320898Y-124162540D01*
X160273692Y-124318895D01*
X160197018Y-124463096D01*
X160093792Y-124589664D01*
X159967951Y-124693768D01*
X159824289Y-124771447D01*
X159668271Y-124819742D01*
X159475527Y-124840000D01*
X153467581Y-124840000D01*
X153438972Y-124842818D01*
X153429712Y-124842753D01*
X153420541Y-124843652D01*
X153129395Y-124874252D01*
X153070753Y-124886290D01*
X153012037Y-124897490D01*
X153003216Y-124900153D01*
X152723560Y-124986721D01*
X152668422Y-125009899D01*
X152612950Y-125032311D01*
X152604819Y-125036635D01*
X152604815Y-125036637D01*
X152604814Y-125036638D01*
X152347298Y-125175877D01*
X152297749Y-125209299D01*
X152247653Y-125242080D01*
X152240512Y-125247905D01*
X152014945Y-125434510D01*
X151972804Y-125476946D01*
X151930055Y-125518809D01*
X151924181Y-125525909D01*
X151739155Y-125752773D01*
X151706055Y-125802592D01*
X151672256Y-125851955D01*
X151667873Y-125860061D01*
X151530436Y-126118542D01*
X151507645Y-126173836D01*
X151484075Y-126228829D01*
X151481350Y-126237632D01*
X151396736Y-126517886D01*
X151385116Y-126576571D01*
X151372680Y-126635079D01*
X151371717Y-126644244D01*
X151343150Y-126935596D01*
X151343150Y-126935608D01*
X151340001Y-126967581D01*
X151340000Y-128967722D01*
X151320898Y-129162540D01*
X151273692Y-129318895D01*
X151197018Y-129463096D01*
X151093792Y-129589664D01*
X150967951Y-129693768D01*
X150824289Y-129771447D01*
X150668271Y-129819742D01*
X150475527Y-129840000D01*
X126532277Y-129840000D01*
X126337460Y-129820898D01*
X126181105Y-129773692D01*
X126036904Y-129697018D01*
X125910336Y-129593792D01*
X125806232Y-129467951D01*
X125728553Y-129324289D01*
X125680258Y-129168271D01*
X125660000Y-128975527D01*
X125660000Y-126967581D01*
X125657182Y-126938972D01*
X125657247Y-126929712D01*
X125656348Y-126920541D01*
X125625748Y-126629395D01*
X125613710Y-126570753D01*
X125602510Y-126512037D01*
X125599847Y-126503216D01*
X125513279Y-126223560D01*
X125490101Y-126168422D01*
X125467689Y-126112950D01*
X125463362Y-126104814D01*
X125324123Y-125847298D01*
X125290701Y-125797749D01*
X125257920Y-125747653D01*
X125252095Y-125740512D01*
X125065490Y-125514945D01*
X125023054Y-125472804D01*
X124981191Y-125430055D01*
X124974091Y-125424181D01*
X124747227Y-125239155D01*
X124697408Y-125206055D01*
X124648045Y-125172256D01*
X124639939Y-125167873D01*
X124381458Y-125030436D01*
X124326164Y-125007645D01*
X124271171Y-124984075D01*
X124262368Y-124981350D01*
X123982114Y-124896736D01*
X123923429Y-124885116D01*
X123864921Y-124872680D01*
X123855758Y-124871717D01*
X123855756Y-124871717D01*
X123564404Y-124843150D01*
X123564402Y-124843150D01*
X123532419Y-124840000D01*
X117532277Y-124840000D01*
X117337460Y-124820898D01*
X117181105Y-124773692D01*
X117036904Y-124697018D01*
X116910336Y-124593792D01*
X116806232Y-124467951D01*
X116728553Y-124324289D01*
X116680258Y-124168271D01*
X116660000Y-123975527D01*
X116660000Y-113888072D01*
X121290000Y-113888072D01*
X121414482Y-113875812D01*
X121534180Y-113839502D01*
X121644494Y-113780537D01*
X121741185Y-113701185D01*
X121820537Y-113604494D01*
X121879502Y-113494180D01*
X121886079Y-113472500D01*
X127584857Y-113472500D01*
X127637885Y-113537115D01*
X127767725Y-113643671D01*
X127915858Y-113722850D01*
X128076592Y-113771608D01*
X128243750Y-113788072D01*
X128756250Y-113788072D01*
X128923408Y-113771608D01*
X129084142Y-113722850D01*
X129232275Y-113643671D01*
X129362115Y-113537115D01*
X129468671Y-113407275D01*
X129547850Y-113259142D01*
X129596608Y-113098408D01*
X129613072Y-112931250D01*
X129613072Y-112493750D01*
X129596608Y-112326592D01*
X129547850Y-112165858D01*
X129468671Y-112017725D01*
X129402901Y-111937583D01*
X129446164Y-111914458D01*
X129579792Y-111804792D01*
X129689458Y-111671164D01*
X129770947Y-111518709D01*
X129821128Y-111353285D01*
X129830316Y-111260000D01*
X131493827Y-111260000D01*
X131504053Y-111293709D01*
X131504053Y-111293709D01*
G37*
X131504053Y-111293709D02*
X131585542Y-111446164D01*
X131695208Y-111579792D01*
X131828836Y-111689458D01*
X131952500Y-111755558D01*
X131952500Y-111834857D01*
X131887885Y-111887885D01*
X131781329Y-112017725D01*
X131702150Y-112165858D01*
X131653392Y-112326592D01*
X131636928Y-112493750D01*
X131636928Y-113006250D01*
X131653392Y-113173408D01*
X131702150Y-113334142D01*
X131781329Y-113482275D01*
X131887885Y-113612115D01*
X132017725Y-113718671D01*
X132165858Y-113797850D01*
X132326592Y-113846608D01*
X132493750Y-113863072D01*
X132931250Y-113863072D01*
X133098408Y-113846608D01*
X133259142Y-113797850D01*
X133407275Y-113718671D01*
X133500000Y-113642574D01*
X133592725Y-113718671D01*
X133740858Y-113797850D01*
X133901592Y-113846608D01*
X134068750Y-113863072D01*
X134506250Y-113863072D01*
X134673408Y-113846608D01*
X134834142Y-113797850D01*
X134982275Y-113718671D01*
X135112115Y-113612115D01*
X135195918Y-113510000D01*
X136365632Y-113510000D01*
X136387885Y-113537115D01*
X136517725Y-113643671D01*
X136665858Y-113722850D01*
X136826592Y-113771608D01*
X136993750Y-113788072D01*
X137506250Y-113788072D01*
X137673408Y-113771608D01*
X137834142Y-113722850D01*
X137982275Y-113643671D01*
X138112115Y-113537115D01*
X138134368Y-113510000D01*
X139054082Y-113510000D01*
X139137885Y-113612115D01*
X139267725Y-113718671D01*
X139415858Y-113797850D01*
X139576592Y-113846608D01*
X139743750Y-113863072D01*
X140181250Y-113863072D01*
X140348408Y-113846608D01*
X140509142Y-113797850D01*
X140657275Y-113718671D01*
X140750000Y-113642574D01*
X140842725Y-113718671D01*
X140990858Y-113797850D01*
X141151592Y-113846608D01*
X141318750Y-113863072D01*
X141756250Y-113863072D01*
X141923408Y-113846608D01*
X142084142Y-113797850D01*
X142232275Y-113718671D01*
X142362115Y-113612115D01*
X142445918Y-113510000D01*
X143400539Y-113510000D01*
X143517725Y-113606171D01*
X143665858Y-113685350D01*
X143826592Y-113734108D01*
X143993750Y-113750572D01*
X144506250Y-113750572D01*
X144673408Y-113734108D01*
X144834142Y-113685350D01*
X144982275Y-113606171D01*
X145112115Y-113499615D01*
X145165143Y-113435000D01*
X145756060Y-113435000D01*
X145781329Y-113482275D01*
X145887885Y-113612115D01*
X146017725Y-113718671D01*
X146165858Y-113797850D01*
X146326592Y-113846608D01*
X146493750Y-113863072D01*
X146931250Y-113863072D01*
X147098408Y-113846608D01*
X147259142Y-113797850D01*
X147407275Y-113718671D01*
X147500000Y-113642574D01*
X147592725Y-113718671D01*
X147740858Y-113797850D01*
X147901592Y-113846608D01*
X148068750Y-113863072D01*
X148506250Y-113863072D01*
X148673408Y-113846608D01*
X148834142Y-113797850D01*
X148982275Y-113718671D01*
X149112115Y-113612115D01*
X149195918Y-113510000D01*
X150150539Y-113510000D01*
X150267725Y-113606171D01*
X150415858Y-113685350D01*
X150576592Y-113734108D01*
X150743750Y-113750572D01*
X151256250Y-113750572D01*
X151423408Y-113734108D01*
X151584142Y-113685350D01*
X151732275Y-113606171D01*
X151862115Y-113499615D01*
X151915143Y-113435000D01*
X155245532Y-113435000D01*
X155258815Y-113451185D01*
X155355506Y-113530537D01*
X155465820Y-113589502D01*
X155585518Y-113625812D01*
X155710000Y-113638072D01*
X160340001Y-113638072D01*
X160340001Y-123967712D01*
X160320898Y-124162540D01*
X160273692Y-124318895D01*
X160197018Y-124463096D01*
X160093792Y-124589664D01*
X159967951Y-124693768D01*
X159824289Y-124771447D01*
X159668271Y-124819742D01*
X159475527Y-124840000D01*
X153467581Y-124840000D01*
X153438972Y-124842818D01*
X153429712Y-124842753D01*
X153420541Y-124843652D01*
X153129395Y-124874252D01*
X153070753Y-124886290D01*
X153012037Y-124897490D01*
X153003216Y-124900153D01*
X152723560Y-124986721D01*
X152668422Y-125009899D01*
X152612950Y-125032311D01*
X152604819Y-125036635D01*
X152604815Y-125036637D01*
X152604814Y-125036638D01*
X152347298Y-125175877D01*
X152297749Y-125209299D01*
X152247653Y-125242080D01*
X152240512Y-125247905D01*
X152014945Y-125434510D01*
X151972804Y-125476946D01*
X151930055Y-125518809D01*
X151924181Y-125525909D01*
X151739155Y-125752773D01*
X151706055Y-125802592D01*
X151672256Y-125851955D01*
X151667873Y-125860061D01*
X151530436Y-126118542D01*
X151507645Y-126173836D01*
X151484075Y-126228829D01*
X151481350Y-126237632D01*
X151396736Y-126517886D01*
X151385116Y-126576571D01*
X151372680Y-126635079D01*
X151371717Y-126644244D01*
X151343150Y-126935596D01*
X151343150Y-126935608D01*
X151340001Y-126967581D01*
X151340000Y-128967722D01*
X151320898Y-129162540D01*
X151273692Y-129318895D01*
X151197018Y-129463096D01*
X151093792Y-129589664D01*
X150967951Y-129693768D01*
X150824289Y-129771447D01*
X150668271Y-129819742D01*
X150475527Y-129840000D01*
X126532277Y-129840000D01*
X126337460Y-129820898D01*
X126181105Y-129773692D01*
X126036904Y-129697018D01*
X125910336Y-129593792D01*
X125806232Y-129467951D01*
X125728553Y-129324289D01*
X125680258Y-129168271D01*
X125660000Y-128975527D01*
X125660000Y-126967581D01*
X125657182Y-126938972D01*
X125657247Y-126929712D01*
X125656348Y-126920541D01*
X125625748Y-126629395D01*
X125613710Y-126570753D01*
X125602510Y-126512037D01*
X125599847Y-126503216D01*
X125513279Y-126223560D01*
X125490101Y-126168422D01*
X125467689Y-126112950D01*
X125463362Y-126104814D01*
X125324123Y-125847298D01*
X125290701Y-125797749D01*
X125257920Y-125747653D01*
X125252095Y-125740512D01*
X125065490Y-125514945D01*
X125023054Y-125472804D01*
X124981191Y-125430055D01*
X124974091Y-125424181D01*
X124747227Y-125239155D01*
X124697408Y-125206055D01*
X124648045Y-125172256D01*
X124639939Y-125167873D01*
X124381458Y-125030436D01*
X124326164Y-125007645D01*
X124271171Y-124984075D01*
X124262368Y-124981350D01*
X123982114Y-124896736D01*
X123923429Y-124885116D01*
X123864921Y-124872680D01*
X123855758Y-124871717D01*
X123855756Y-124871717D01*
X123564404Y-124843150D01*
X123564402Y-124843150D01*
X123532419Y-124840000D01*
X117532277Y-124840000D01*
X117337460Y-124820898D01*
X117181105Y-124773692D01*
X117036904Y-124697018D01*
X116910336Y-124593792D01*
X116806232Y-124467951D01*
X116728553Y-124324289D01*
X116680258Y-124168271D01*
X116660000Y-123975527D01*
X116660000Y-113888072D01*
X121290000Y-113888072D01*
X121414482Y-113875812D01*
X121534180Y-113839502D01*
X121644494Y-113780537D01*
X121741185Y-113701185D01*
X121820537Y-113604494D01*
X121879502Y-113494180D01*
X121886079Y-113472500D01*
X127584857Y-113472500D01*
X127637885Y-113537115D01*
X127767725Y-113643671D01*
X127915858Y-113722850D01*
X128076592Y-113771608D01*
X128243750Y-113788072D01*
X128756250Y-113788072D01*
X128923408Y-113771608D01*
X129084142Y-113722850D01*
X129232275Y-113643671D01*
X129362115Y-113537115D01*
X129468671Y-113407275D01*
X129547850Y-113259142D01*
X129596608Y-113098408D01*
X129613072Y-112931250D01*
X129613072Y-112493750D01*
X129596608Y-112326592D01*
X129547850Y-112165858D01*
X129468671Y-112017725D01*
X129402901Y-111937583D01*
X129446164Y-111914458D01*
X129579792Y-111804792D01*
X129689458Y-111671164D01*
X129770947Y-111518709D01*
X129821128Y-111353285D01*
X129830316Y-111260000D01*
X131493827Y-111260000D01*
X131504053Y-111293709D01*
G36*
X150662540Y-95679102D02*
G01*
X150818894Y-95726308D01*
X150963096Y-95802982D01*
X151089663Y-95906207D01*
X151193769Y-96032051D01*
X151271447Y-96175711D01*
X151319742Y-96331729D01*
X151340000Y-96524473D01*
X151340001Y-98532419D01*
X151342818Y-98561018D01*
X151342753Y-98570288D01*
X151343652Y-98579460D01*
X151374252Y-98870605D01*
X151386283Y-98929217D01*
X151397489Y-98987963D01*
X151400153Y-98996784D01*
X151486721Y-99276440D01*
X151509899Y-99331578D01*
X151532311Y-99387050D01*
X151536638Y-99395186D01*
X151675877Y-99652702D01*
X151709304Y-99702259D01*
X151742080Y-99752347D01*
X151747905Y-99759488D01*
X151934510Y-99985056D01*
X151976965Y-100027215D01*
X152018809Y-100069945D01*
X152025909Y-100075819D01*
X152252773Y-100260845D01*
X152302566Y-100293927D01*
X152351955Y-100327745D01*
X152360061Y-100332127D01*
X152618542Y-100469564D01*
X152673836Y-100492355D01*
X152728829Y-100515925D01*
X152737632Y-100518650D01*
X153017887Y-100603264D01*
X153076564Y-100614882D01*
X153135079Y-100627320D01*
X153144242Y-100628283D01*
X153144244Y-100628283D01*
X153435596Y-100656850D01*
X153435598Y-100656850D01*
X153467581Y-100660000D01*
X159467723Y-100660000D01*
X159662540Y-100679102D01*
X159818894Y-100726308D01*
X159963096Y-100802982D01*
X160089663Y-100906207D01*
X160193769Y-101032051D01*
X160271447Y-101175711D01*
X160319742Y-101331729D01*
X160340000Y-101524473D01*
X160340000Y-110861928D01*
X155710000Y-110861928D01*
X155585518Y-110874188D01*
X155465820Y-110910498D01*
X155355506Y-110969463D01*
X155258815Y-111048815D01*
X155179463Y-111145506D01*
X155120498Y-111255820D01*
X155084188Y-111375518D01*
X155071928Y-111500000D01*
X155071928Y-111915000D01*
X151915143Y-111915000D01*
X151862115Y-111850385D01*
X151732275Y-111743829D01*
X151584142Y-111664650D01*
X151423408Y-111615892D01*
X151256250Y-111599428D01*
X150743750Y-111599428D01*
X150576592Y-111615892D01*
X150415858Y-111664650D01*
X150267725Y-111743829D01*
X150137885Y-111850385D01*
X150031329Y-111980225D01*
X150026104Y-111990000D01*
X149197500Y-111990000D01*
X149197500Y-111667845D01*
X149304792Y-111579792D01*
X149414458Y-111446164D01*
X149495947Y-111293709D01*
X149546128Y-111128285D01*
X149563072Y-110956250D01*
X149563072Y-110043750D01*
X149546128Y-109871715D01*
X149495947Y-109706291D01*
X149414458Y-109553836D01*
X149304792Y-109420208D01*
X149171164Y-109310542D01*
X149018709Y-109229053D01*
X148853285Y-109178872D01*
X148681250Y-109161928D01*
X148193750Y-109161928D01*
X148021715Y-109178872D01*
X147856291Y-109229053D01*
X147703836Y-109310542D01*
X147570208Y-109420208D01*
X147500000Y-109505756D01*
X147429792Y-109420208D01*
X147296164Y-109310542D01*
X147143709Y-109229053D01*
X146978285Y-109178872D01*
X146806250Y-109161928D01*
X146318750Y-109161928D01*
X146146715Y-109178872D01*
X145981291Y-109229053D01*
X145828836Y-109310542D01*
X145695208Y-109420208D01*
X145585542Y-109553836D01*
X145504053Y-109706291D01*
X145453872Y-109871715D01*
X145436928Y-110043750D01*
X145436928Y-110956250D01*
X145453872Y-111128285D01*
X145504053Y-111293709D01*
X145585542Y-111446164D01*
X145695208Y-111579792D01*
X145802501Y-111667845D01*
X145802501Y-111915000D01*
X145165143Y-111915000D01*
X145112115Y-111850385D01*
X144982275Y-111743829D01*
X144834142Y-111664650D01*
X144673408Y-111615892D01*
X144506250Y-111599428D01*
X143993750Y-111599428D01*
X143826592Y-111615892D01*
X143665858Y-111664650D01*
X143517725Y-111743829D01*
X143387885Y-111850385D01*
X143281329Y-111980225D01*
X143276104Y-111990000D01*
X142445918Y-111990000D01*
X142362115Y-111887885D01*
X142297500Y-111834857D01*
X142297500Y-111755558D01*
X142421164Y-111689458D01*
X142554792Y-111579792D01*
X142664458Y-111446164D01*
X142745947Y-111293709D01*
X142796128Y-111128285D01*
X142813072Y-110956250D01*
X142813072Y-110043750D01*
X142796128Y-109871715D01*
X142745947Y-109706291D01*
X142664458Y-109553836D01*
X142554792Y-109420208D01*
X142421164Y-109310542D01*
X142268709Y-109229053D01*
X142103285Y-109178872D01*
X141931250Y-109161928D01*
X141443750Y-109161928D01*
X141271715Y-109178872D01*
X141106291Y-109229053D01*
X140953836Y-109310542D01*
X140820208Y-109420208D01*
X140750000Y-109505756D01*
X140679792Y-109420208D01*
X140546164Y-109310542D01*
X140393709Y-109229053D01*
X140228285Y-109178872D01*
X140056250Y-109161928D01*
X139568750Y-109161928D01*
X139396715Y-109178872D01*
X139231291Y-109229053D01*
X139078836Y-109310542D01*
X138945208Y-109420208D01*
X138835542Y-109553836D01*
X138754053Y-109706291D01*
X138703872Y-109871715D01*
X138686928Y-110043750D01*
X138686928Y-110956250D01*
X138703872Y-111128285D01*
X138754053Y-111293709D01*
X138835542Y-111446164D01*
X138945208Y-111579792D01*
X139052501Y-111667845D01*
X139052501Y-111990000D01*
X138195918Y-111990000D01*
X138112115Y-111887885D01*
X137982275Y-111781329D01*
X137834142Y-111702150D01*
X137673408Y-111653392D01*
X137506250Y-111636928D01*
X136993750Y-111636928D01*
X136826592Y-111653392D01*
X136665858Y-111702150D01*
X136517725Y-111781329D01*
X136387885Y-111887885D01*
X136304082Y-111990000D01*
X135197500Y-111990000D01*
X135197500Y-111667845D01*
X135304792Y-111579792D01*
X135414458Y-111446164D01*
X135495947Y-111293709D01*
X135546128Y-111128285D01*
X135563072Y-110956250D01*
X135563072Y-110043750D01*
X135546128Y-109871715D01*
X135495947Y-109706291D01*
X135414458Y-109553836D01*
X135304792Y-109420208D01*
X135171164Y-109310542D01*
X135018709Y-109229053D01*
X134853285Y-109178872D01*
X134681250Y-109161928D01*
X134193750Y-109161928D01*
X134021715Y-109178872D01*
X133856291Y-109229053D01*
X133703836Y-109310542D01*
X133570208Y-109420208D01*
X133500000Y-109505756D01*
X133429792Y-109420208D01*
X133296164Y-109310542D01*
X133143709Y-109229053D01*
X132978285Y-109178872D01*
X132806250Y-109161928D01*
X132318750Y-109161928D01*
X132146715Y-109178872D01*
X131981291Y-109229053D01*
X131828836Y-109310542D01*
X131695208Y-109420208D01*
X131585542Y-109553836D01*
X131504053Y-109706291D01*
X131493827Y-109740000D01*
X128974822Y-109740000D01*
X128937499Y-109736324D01*
X128900176Y-109740000D01*
X128900167Y-109740000D01*
X128788514Y-109750997D01*
X128645253Y-109794454D01*
X128612562Y-109811928D01*
X128043750Y-109811928D01*
X127871715Y-109828872D01*
X127706291Y-109879053D01*
X127553836Y-109960542D01*
X127420208Y-110070208D01*
X127310542Y-110203836D01*
X127229053Y-110356291D01*
X127178872Y-110521715D01*
X127161928Y-110693750D01*
X127161928Y-111181250D01*
X127178872Y-111353285D01*
X127229053Y-111518709D01*
X127310542Y-111671164D01*
X127420208Y-111804792D01*
X127553836Y-111914458D01*
X127597099Y-111937583D01*
X127584857Y-111952500D01*
X121928072Y-111952500D01*
X121928072Y-111750000D01*
X121915812Y-111625518D01*
X121879502Y-111505820D01*
X121820537Y-111395506D01*
X121741185Y-111298815D01*
X121644494Y-111219463D01*
X121534180Y-111160498D01*
X121414482Y-111124188D01*
X121290000Y-111111928D01*
X116660000Y-111111928D01*
X116660000Y-101532277D01*
X116679102Y-101337460D01*
X116726308Y-101181106D01*
X116802982Y-101036904D01*
X116906207Y-100910337D01*
X117032051Y-100806231D01*
X117175711Y-100728553D01*
X117331729Y-100680258D01*
X117524473Y-100660000D01*
X123532419Y-100660000D01*
X123561028Y-100657182D01*
X123570288Y-100657247D01*
X123579460Y-100656348D01*
X123870605Y-100625748D01*
X123929217Y-100613717D01*
X123987963Y-100602511D01*
X123996784Y-100599847D01*
X124276440Y-100513279D01*
X124331578Y-100490101D01*
X124387050Y-100467689D01*
X124395181Y-100463365D01*
X124395185Y-100463363D01*
X124395188Y-100463361D01*
X124652702Y-100324123D01*
X124702259Y-100290696D01*
X124752347Y-100257920D01*
X124759488Y-100252095D01*
X124985056Y-100065490D01*
X125027215Y-100023035D01*
X125069945Y-99981191D01*
X125075819Y-99974091D01*
X125260845Y-99747227D01*
X125293927Y-99697434D01*
X125327745Y-99648045D01*
X125332127Y-99639939D01*
X125469564Y-99381458D01*
X125492355Y-99326164D01*
X125515925Y-99271171D01*
X125518650Y-99262368D01*
X125603264Y-98982113D01*
X125614882Y-98923436D01*
X125627320Y-98864921D01*
X125628283Y-98855756D01*
X125656850Y-98564404D01*
X125656850Y-98564402D01*
X125660000Y-98532419D01*
X125660000Y-96532277D01*
X125679102Y-96337460D01*
X125726308Y-96181106D01*
X125802982Y-96036904D01*
X125906207Y-95910337D01*
X126032051Y-95806231D01*
X126175711Y-95728553D01*
X126331729Y-95680258D01*
X126524473Y-95660000D01*
X150467723Y-95660000D01*
X150662540Y-95679102D01*
X150662540Y-95679102D01*
G37*
X150662540Y-95679102D02*
X150818894Y-95726308D01*
X150963096Y-95802982D01*
X151089663Y-95906207D01*
X151193769Y-96032051D01*
X151271447Y-96175711D01*
X151319742Y-96331729D01*
X151340000Y-96524473D01*
X151340001Y-98532419D01*
X151342818Y-98561018D01*
X151342753Y-98570288D01*
X151343652Y-98579460D01*
X151374252Y-98870605D01*
X151386283Y-98929217D01*
X151397489Y-98987963D01*
X151400153Y-98996784D01*
X151486721Y-99276440D01*
X151509899Y-99331578D01*
X151532311Y-99387050D01*
X151536638Y-99395186D01*
X151675877Y-99652702D01*
X151709304Y-99702259D01*
X151742080Y-99752347D01*
X151747905Y-99759488D01*
X151934510Y-99985056D01*
X151976965Y-100027215D01*
X152018809Y-100069945D01*
X152025909Y-100075819D01*
X152252773Y-100260845D01*
X152302566Y-100293927D01*
X152351955Y-100327745D01*
X152360061Y-100332127D01*
X152618542Y-100469564D01*
X152673836Y-100492355D01*
X152728829Y-100515925D01*
X152737632Y-100518650D01*
X153017887Y-100603264D01*
X153076564Y-100614882D01*
X153135079Y-100627320D01*
X153144242Y-100628283D01*
X153144244Y-100628283D01*
X153435596Y-100656850D01*
X153435598Y-100656850D01*
X153467581Y-100660000D01*
X159467723Y-100660000D01*
X159662540Y-100679102D01*
X159818894Y-100726308D01*
X159963096Y-100802982D01*
X160089663Y-100906207D01*
X160193769Y-101032051D01*
X160271447Y-101175711D01*
X160319742Y-101331729D01*
X160340000Y-101524473D01*
X160340000Y-110861928D01*
X155710000Y-110861928D01*
X155585518Y-110874188D01*
X155465820Y-110910498D01*
X155355506Y-110969463D01*
X155258815Y-111048815D01*
X155179463Y-111145506D01*
X155120498Y-111255820D01*
X155084188Y-111375518D01*
X155071928Y-111500000D01*
X155071928Y-111915000D01*
X151915143Y-111915000D01*
X151862115Y-111850385D01*
X151732275Y-111743829D01*
X151584142Y-111664650D01*
X151423408Y-111615892D01*
X151256250Y-111599428D01*
X150743750Y-111599428D01*
X150576592Y-111615892D01*
X150415858Y-111664650D01*
X150267725Y-111743829D01*
X150137885Y-111850385D01*
X150031329Y-111980225D01*
X150026104Y-111990000D01*
X149197500Y-111990000D01*
X149197500Y-111667845D01*
X149304792Y-111579792D01*
X149414458Y-111446164D01*
X149495947Y-111293709D01*
X149546128Y-111128285D01*
X149563072Y-110956250D01*
X149563072Y-110043750D01*
X149546128Y-109871715D01*
X149495947Y-109706291D01*
X149414458Y-109553836D01*
X149304792Y-109420208D01*
X149171164Y-109310542D01*
X149018709Y-109229053D01*
X148853285Y-109178872D01*
X148681250Y-109161928D01*
X148193750Y-109161928D01*
X148021715Y-109178872D01*
X147856291Y-109229053D01*
X147703836Y-109310542D01*
X147570208Y-109420208D01*
X147500000Y-109505756D01*
X147429792Y-109420208D01*
X147296164Y-109310542D01*
X147143709Y-109229053D01*
X146978285Y-109178872D01*
X146806250Y-109161928D01*
X146318750Y-109161928D01*
X146146715Y-109178872D01*
X145981291Y-109229053D01*
X145828836Y-109310542D01*
X145695208Y-109420208D01*
X145585542Y-109553836D01*
X145504053Y-109706291D01*
X145453872Y-109871715D01*
X145436928Y-110043750D01*
X145436928Y-110956250D01*
X145453872Y-111128285D01*
X145504053Y-111293709D01*
X145585542Y-111446164D01*
X145695208Y-111579792D01*
X145802501Y-111667845D01*
X145802501Y-111915000D01*
X145165143Y-111915000D01*
X145112115Y-111850385D01*
X144982275Y-111743829D01*
X144834142Y-111664650D01*
X144673408Y-111615892D01*
X144506250Y-111599428D01*
X143993750Y-111599428D01*
X143826592Y-111615892D01*
X143665858Y-111664650D01*
X143517725Y-111743829D01*
X143387885Y-111850385D01*
X143281329Y-111980225D01*
X143276104Y-111990000D01*
X142445918Y-111990000D01*
X142362115Y-111887885D01*
X142297500Y-111834857D01*
X142297500Y-111755558D01*
X142421164Y-111689458D01*
X142554792Y-111579792D01*
X142664458Y-111446164D01*
X142745947Y-111293709D01*
X142796128Y-111128285D01*
X142813072Y-110956250D01*
X142813072Y-110043750D01*
X142796128Y-109871715D01*
X142745947Y-109706291D01*
X142664458Y-109553836D01*
X142554792Y-109420208D01*
X142421164Y-109310542D01*
X142268709Y-109229053D01*
X142103285Y-109178872D01*
X141931250Y-109161928D01*
X141443750Y-109161928D01*
X141271715Y-109178872D01*
X141106291Y-109229053D01*
X140953836Y-109310542D01*
X140820208Y-109420208D01*
X140750000Y-109505756D01*
X140679792Y-109420208D01*
X140546164Y-109310542D01*
X140393709Y-109229053D01*
X140228285Y-109178872D01*
X140056250Y-109161928D01*
X139568750Y-109161928D01*
X139396715Y-109178872D01*
X139231291Y-109229053D01*
X139078836Y-109310542D01*
X138945208Y-109420208D01*
X138835542Y-109553836D01*
X138754053Y-109706291D01*
X138703872Y-109871715D01*
X138686928Y-110043750D01*
X138686928Y-110956250D01*
X138703872Y-111128285D01*
X138754053Y-111293709D01*
X138835542Y-111446164D01*
X138945208Y-111579792D01*
X139052501Y-111667845D01*
X139052501Y-111990000D01*
X138195918Y-111990000D01*
X138112115Y-111887885D01*
X137982275Y-111781329D01*
X137834142Y-111702150D01*
X137673408Y-111653392D01*
X137506250Y-111636928D01*
X136993750Y-111636928D01*
X136826592Y-111653392D01*
X136665858Y-111702150D01*
X136517725Y-111781329D01*
X136387885Y-111887885D01*
X136304082Y-111990000D01*
X135197500Y-111990000D01*
X135197500Y-111667845D01*
X135304792Y-111579792D01*
X135414458Y-111446164D01*
X135495947Y-111293709D01*
X135546128Y-111128285D01*
X135563072Y-110956250D01*
X135563072Y-110043750D01*
X135546128Y-109871715D01*
X135495947Y-109706291D01*
X135414458Y-109553836D01*
X135304792Y-109420208D01*
X135171164Y-109310542D01*
X135018709Y-109229053D01*
X134853285Y-109178872D01*
X134681250Y-109161928D01*
X134193750Y-109161928D01*
X134021715Y-109178872D01*
X133856291Y-109229053D01*
X133703836Y-109310542D01*
X133570208Y-109420208D01*
X133500000Y-109505756D01*
X133429792Y-109420208D01*
X133296164Y-109310542D01*
X133143709Y-109229053D01*
X132978285Y-109178872D01*
X132806250Y-109161928D01*
X132318750Y-109161928D01*
X132146715Y-109178872D01*
X131981291Y-109229053D01*
X131828836Y-109310542D01*
X131695208Y-109420208D01*
X131585542Y-109553836D01*
X131504053Y-109706291D01*
X131493827Y-109740000D01*
X128974822Y-109740000D01*
X128937499Y-109736324D01*
X128900176Y-109740000D01*
X128900167Y-109740000D01*
X128788514Y-109750997D01*
X128645253Y-109794454D01*
X128612562Y-109811928D01*
X128043750Y-109811928D01*
X127871715Y-109828872D01*
X127706291Y-109879053D01*
X127553836Y-109960542D01*
X127420208Y-110070208D01*
X127310542Y-110203836D01*
X127229053Y-110356291D01*
X127178872Y-110521715D01*
X127161928Y-110693750D01*
X127161928Y-111181250D01*
X127178872Y-111353285D01*
X127229053Y-111518709D01*
X127310542Y-111671164D01*
X127420208Y-111804792D01*
X127553836Y-111914458D01*
X127597099Y-111937583D01*
X127584857Y-111952500D01*
X121928072Y-111952500D01*
X121928072Y-111750000D01*
X121915812Y-111625518D01*
X121879502Y-111505820D01*
X121820537Y-111395506D01*
X121741185Y-111298815D01*
X121644494Y-111219463D01*
X121534180Y-111160498D01*
X121414482Y-111124188D01*
X121290000Y-111111928D01*
X116660000Y-111111928D01*
X116660000Y-101532277D01*
X116679102Y-101337460D01*
X116726308Y-101181106D01*
X116802982Y-101036904D01*
X116906207Y-100910337D01*
X117032051Y-100806231D01*
X117175711Y-100728553D01*
X117331729Y-100680258D01*
X117524473Y-100660000D01*
X123532419Y-100660000D01*
X123561028Y-100657182D01*
X123570288Y-100657247D01*
X123579460Y-100656348D01*
X123870605Y-100625748D01*
X123929217Y-100613717D01*
X123987963Y-100602511D01*
X123996784Y-100599847D01*
X124276440Y-100513279D01*
X124331578Y-100490101D01*
X124387050Y-100467689D01*
X124395181Y-100463365D01*
X124395185Y-100463363D01*
X124395188Y-100463361D01*
X124652702Y-100324123D01*
X124702259Y-100290696D01*
X124752347Y-100257920D01*
X124759488Y-100252095D01*
X124985056Y-100065490D01*
X125027215Y-100023035D01*
X125069945Y-99981191D01*
X125075819Y-99974091D01*
X125260845Y-99747227D01*
X125293927Y-99697434D01*
X125327745Y-99648045D01*
X125332127Y-99639939D01*
X125469564Y-99381458D01*
X125492355Y-99326164D01*
X125515925Y-99271171D01*
X125518650Y-99262368D01*
X125603264Y-98982113D01*
X125614882Y-98923436D01*
X125627320Y-98864921D01*
X125628283Y-98855756D01*
X125656850Y-98564404D01*
X125656850Y-98564402D01*
X125660000Y-98532419D01*
X125660000Y-96532277D01*
X125679102Y-96337460D01*
X125726308Y-96181106D01*
X125802982Y-96036904D01*
X125906207Y-95910337D01*
X126032051Y-95806231D01*
X126175711Y-95728553D01*
X126331729Y-95680258D01*
X126524473Y-95660000D01*
X150467723Y-95660000D01*
X150662540Y-95679102D01*
M02*
