G04 #@! TF.GenerationSoftware,KiCad,Pcbnew,(5.1.0)-1*
G04 #@! TF.CreationDate,2019-05-10T19:25:27+02:00*
G04 #@! TF.ProjectId,1602adapter,31363032-6164-4617-9074-65722e6b6963,rev?*
G04 #@! TF.SameCoordinates,Original*
G04 #@! TF.FileFunction,Soldermask,Bot*
G04 #@! TF.FilePolarity,Negative*
%FSLAX46Y46*%
G04 Gerber Fmt 4.6, Leading zero omitted, Abs format (unit mm)*
G04 Created by KiCad (PCBNEW (5.1.0)-1) date 2019-05-10 19:25:27*
%MOMM*%
%LPD*%
G04 APERTURE LIST*
%ADD10C,0.100000*%
G04 APERTURE END LIST*
D10*
G36*
X138908600Y-114602989D02*
G01*
X138941652Y-114613015D01*
X138972103Y-114629292D01*
X138998799Y-114651201D01*
X139020708Y-114677897D01*
X139036985Y-114708348D01*
X139047011Y-114741400D01*
X139051000Y-114781903D01*
X139051000Y-116218097D01*
X139047011Y-116258600D01*
X139036985Y-116291652D01*
X139020708Y-116322103D01*
X138998799Y-116348799D01*
X138972103Y-116370708D01*
X138941652Y-116386985D01*
X138908600Y-116397011D01*
X138868097Y-116401000D01*
X137131903Y-116401000D01*
X137091400Y-116397011D01*
X137058348Y-116386985D01*
X137027897Y-116370708D01*
X137001201Y-116348799D01*
X136979292Y-116322103D01*
X136963015Y-116291652D01*
X136952989Y-116258600D01*
X136949000Y-116218097D01*
X136949000Y-114781903D01*
X136952989Y-114741400D01*
X136963015Y-114708348D01*
X136979292Y-114677897D01*
X137001201Y-114651201D01*
X137027897Y-114629292D01*
X137058348Y-114613015D01*
X137091400Y-114602989D01*
X137131903Y-114599000D01*
X138868097Y-114599000D01*
X138908600Y-114602989D01*
X138908600Y-114602989D01*
G37*
G36*
X138260442Y-112105518D02*
G01*
X138326627Y-112112037D01*
X138496466Y-112163557D01*
X138652991Y-112247222D01*
X138688729Y-112276552D01*
X138790186Y-112359814D01*
X138861298Y-112446466D01*
X138902778Y-112497009D01*
X138986443Y-112653534D01*
X139037963Y-112823373D01*
X139055359Y-113000000D01*
X139037963Y-113176627D01*
X138986443Y-113346466D01*
X138902778Y-113502991D01*
X138873448Y-113538729D01*
X138790186Y-113640186D01*
X138688729Y-113723448D01*
X138652991Y-113752778D01*
X138496466Y-113836443D01*
X138326627Y-113887963D01*
X138260443Y-113894481D01*
X138194260Y-113901000D01*
X137805740Y-113901000D01*
X137739557Y-113894481D01*
X137673373Y-113887963D01*
X137503534Y-113836443D01*
X137347009Y-113752778D01*
X137311271Y-113723448D01*
X137209814Y-113640186D01*
X137126552Y-113538729D01*
X137097222Y-113502991D01*
X137013557Y-113346466D01*
X136962037Y-113176627D01*
X136944641Y-113000000D01*
X136962037Y-112823373D01*
X137013557Y-112653534D01*
X137097222Y-112497009D01*
X137138702Y-112446466D01*
X137209814Y-112359814D01*
X137311271Y-112276552D01*
X137347009Y-112247222D01*
X137503534Y-112163557D01*
X137673373Y-112112037D01*
X137739558Y-112105518D01*
X137805740Y-112099000D01*
X138194260Y-112099000D01*
X138260442Y-112105518D01*
X138260442Y-112105518D01*
G37*
G36*
X130460443Y-111205519D02*
G01*
X130526627Y-111212037D01*
X130696466Y-111263557D01*
X130852991Y-111347222D01*
X130888729Y-111376552D01*
X130990186Y-111459814D01*
X131073448Y-111561271D01*
X131102778Y-111597009D01*
X131186443Y-111753534D01*
X131237963Y-111923373D01*
X131255359Y-112100000D01*
X131237963Y-112276627D01*
X131186443Y-112446466D01*
X131102778Y-112602991D01*
X131073448Y-112638729D01*
X130990186Y-112740186D01*
X130888821Y-112823373D01*
X130852991Y-112852778D01*
X130696466Y-112936443D01*
X130526627Y-112987963D01*
X130460443Y-112994481D01*
X130394260Y-113001000D01*
X130305740Y-113001000D01*
X130239557Y-112994481D01*
X130173373Y-112987963D01*
X130003534Y-112936443D01*
X129847009Y-112852778D01*
X129811179Y-112823373D01*
X129709814Y-112740186D01*
X129626552Y-112638729D01*
X129597222Y-112602991D01*
X129513557Y-112446466D01*
X129462037Y-112276627D01*
X129444641Y-112100000D01*
X129462037Y-111923373D01*
X129513557Y-111753534D01*
X129597222Y-111597009D01*
X129626552Y-111561271D01*
X129709814Y-111459814D01*
X129811271Y-111376552D01*
X129847009Y-111347222D01*
X130003534Y-111263557D01*
X130173373Y-111212037D01*
X130239557Y-111205519D01*
X130305740Y-111199000D01*
X130394260Y-111199000D01*
X130460443Y-111205519D01*
X130460443Y-111205519D01*
G37*
G36*
X130460443Y-108665519D02*
G01*
X130526627Y-108672037D01*
X130696466Y-108723557D01*
X130852991Y-108807222D01*
X130888729Y-108836552D01*
X130990186Y-108919814D01*
X131073448Y-109021271D01*
X131102778Y-109057009D01*
X131186443Y-109213534D01*
X131237963Y-109383373D01*
X131255359Y-109560000D01*
X131237963Y-109736627D01*
X131186443Y-109906466D01*
X131102778Y-110062991D01*
X131073448Y-110098729D01*
X130990186Y-110200186D01*
X130888729Y-110283448D01*
X130852991Y-110312778D01*
X130696466Y-110396443D01*
X130526627Y-110447963D01*
X130460443Y-110454481D01*
X130394260Y-110461000D01*
X130305740Y-110461000D01*
X130239557Y-110454481D01*
X130173373Y-110447963D01*
X130003534Y-110396443D01*
X129847009Y-110312778D01*
X129811271Y-110283448D01*
X129709814Y-110200186D01*
X129626552Y-110098729D01*
X129597222Y-110062991D01*
X129513557Y-109906466D01*
X129462037Y-109736627D01*
X129444641Y-109560000D01*
X129462037Y-109383373D01*
X129513557Y-109213534D01*
X129597222Y-109057009D01*
X129626552Y-109021271D01*
X129709814Y-108919814D01*
X129811271Y-108836552D01*
X129847009Y-108807222D01*
X130003534Y-108723557D01*
X130173373Y-108672037D01*
X130239557Y-108665519D01*
X130305740Y-108659000D01*
X130394260Y-108659000D01*
X130460443Y-108665519D01*
X130460443Y-108665519D01*
G37*
G36*
X130460443Y-106125519D02*
G01*
X130526627Y-106132037D01*
X130696466Y-106183557D01*
X130852991Y-106267222D01*
X130888729Y-106296552D01*
X130990186Y-106379814D01*
X131073448Y-106481271D01*
X131102778Y-106517009D01*
X131186443Y-106673534D01*
X131237963Y-106843373D01*
X131255359Y-107020000D01*
X131237963Y-107196627D01*
X131186443Y-107366466D01*
X131102778Y-107522991D01*
X131073448Y-107558729D01*
X130990186Y-107660186D01*
X130888729Y-107743448D01*
X130852991Y-107772778D01*
X130696466Y-107856443D01*
X130526627Y-107907963D01*
X130460443Y-107914481D01*
X130394260Y-107921000D01*
X130305740Y-107921000D01*
X130239557Y-107914481D01*
X130173373Y-107907963D01*
X130003534Y-107856443D01*
X129847009Y-107772778D01*
X129811271Y-107743448D01*
X129709814Y-107660186D01*
X129626552Y-107558729D01*
X129597222Y-107522991D01*
X129513557Y-107366466D01*
X129462037Y-107196627D01*
X129444641Y-107020000D01*
X129462037Y-106843373D01*
X129513557Y-106673534D01*
X129597222Y-106517009D01*
X129626552Y-106481271D01*
X129709814Y-106379814D01*
X129811271Y-106296552D01*
X129847009Y-106267222D01*
X130003534Y-106183557D01*
X130173373Y-106132037D01*
X130239557Y-106125519D01*
X130305740Y-106119000D01*
X130394260Y-106119000D01*
X130460443Y-106125519D01*
X130460443Y-106125519D01*
G37*
G36*
X139110443Y-106125519D02*
G01*
X139176627Y-106132037D01*
X139346466Y-106183557D01*
X139502991Y-106267222D01*
X139538729Y-106296552D01*
X139640186Y-106379814D01*
X139723448Y-106481271D01*
X139752778Y-106517009D01*
X139836443Y-106673534D01*
X139887963Y-106843373D01*
X139905359Y-107020000D01*
X139887963Y-107196627D01*
X139836443Y-107366466D01*
X139752778Y-107522991D01*
X139723448Y-107558729D01*
X139640186Y-107660186D01*
X139538729Y-107743448D01*
X139502991Y-107772778D01*
X139346466Y-107856443D01*
X139176627Y-107907963D01*
X139110443Y-107914481D01*
X139044260Y-107921000D01*
X138955740Y-107921000D01*
X138889557Y-107914481D01*
X138823373Y-107907963D01*
X138653534Y-107856443D01*
X138497009Y-107772778D01*
X138461271Y-107743448D01*
X138359814Y-107660186D01*
X138276552Y-107558729D01*
X138247222Y-107522991D01*
X138163557Y-107366466D01*
X138112037Y-107196627D01*
X138094641Y-107020000D01*
X138112037Y-106843373D01*
X138163557Y-106673534D01*
X138247222Y-106517009D01*
X138276552Y-106481271D01*
X138359814Y-106379814D01*
X138461271Y-106296552D01*
X138497009Y-106267222D01*
X138653534Y-106183557D01*
X138823373Y-106132037D01*
X138889557Y-106125519D01*
X138955740Y-106119000D01*
X139044260Y-106119000D01*
X139110443Y-106125519D01*
X139110443Y-106125519D01*
G37*
G36*
X139110442Y-103585518D02*
G01*
X139176627Y-103592037D01*
X139346466Y-103643557D01*
X139502991Y-103727222D01*
X139538729Y-103756552D01*
X139640186Y-103839814D01*
X139723448Y-103941271D01*
X139752778Y-103977009D01*
X139836443Y-104133534D01*
X139887963Y-104303373D01*
X139905359Y-104480000D01*
X139887963Y-104656627D01*
X139836443Y-104826466D01*
X139752778Y-104982991D01*
X139723448Y-105018729D01*
X139640186Y-105120186D01*
X139538729Y-105203448D01*
X139502991Y-105232778D01*
X139346466Y-105316443D01*
X139176627Y-105367963D01*
X139110443Y-105374481D01*
X139044260Y-105381000D01*
X138955740Y-105381000D01*
X138889557Y-105374481D01*
X138823373Y-105367963D01*
X138653534Y-105316443D01*
X138497009Y-105232778D01*
X138461271Y-105203448D01*
X138359814Y-105120186D01*
X138276552Y-105018729D01*
X138247222Y-104982991D01*
X138163557Y-104826466D01*
X138112037Y-104656627D01*
X138094641Y-104480000D01*
X138112037Y-104303373D01*
X138163557Y-104133534D01*
X138247222Y-103977009D01*
X138276552Y-103941271D01*
X138359814Y-103839814D01*
X138461271Y-103756552D01*
X138497009Y-103727222D01*
X138653534Y-103643557D01*
X138823373Y-103592037D01*
X138889558Y-103585518D01*
X138955740Y-103579000D01*
X139044260Y-103579000D01*
X139110442Y-103585518D01*
X139110442Y-103585518D01*
G37*
G36*
X130460442Y-103585518D02*
G01*
X130526627Y-103592037D01*
X130696466Y-103643557D01*
X130852991Y-103727222D01*
X130888729Y-103756552D01*
X130990186Y-103839814D01*
X131073448Y-103941271D01*
X131102778Y-103977009D01*
X131186443Y-104133534D01*
X131237963Y-104303373D01*
X131255359Y-104480000D01*
X131237963Y-104656627D01*
X131186443Y-104826466D01*
X131102778Y-104982991D01*
X131073448Y-105018729D01*
X130990186Y-105120186D01*
X130888729Y-105203448D01*
X130852991Y-105232778D01*
X130696466Y-105316443D01*
X130526627Y-105367963D01*
X130460443Y-105374481D01*
X130394260Y-105381000D01*
X130305740Y-105381000D01*
X130239557Y-105374481D01*
X130173373Y-105367963D01*
X130003534Y-105316443D01*
X129847009Y-105232778D01*
X129811271Y-105203448D01*
X129709814Y-105120186D01*
X129626552Y-105018729D01*
X129597222Y-104982991D01*
X129513557Y-104826466D01*
X129462037Y-104656627D01*
X129444641Y-104480000D01*
X129462037Y-104303373D01*
X129513557Y-104133534D01*
X129597222Y-103977009D01*
X129626552Y-103941271D01*
X129709814Y-103839814D01*
X129811271Y-103756552D01*
X129847009Y-103727222D01*
X130003534Y-103643557D01*
X130173373Y-103592037D01*
X130239558Y-103585518D01*
X130305740Y-103579000D01*
X130394260Y-103579000D01*
X130460442Y-103585518D01*
X130460442Y-103585518D01*
G37*
G36*
X130460443Y-101045519D02*
G01*
X130526627Y-101052037D01*
X130696466Y-101103557D01*
X130852991Y-101187222D01*
X130888729Y-101216552D01*
X130990186Y-101299814D01*
X131073448Y-101401271D01*
X131102778Y-101437009D01*
X131186443Y-101593534D01*
X131237963Y-101763373D01*
X131255359Y-101940000D01*
X131237963Y-102116627D01*
X131186443Y-102286466D01*
X131102778Y-102442991D01*
X131073448Y-102478729D01*
X130990186Y-102580186D01*
X130888729Y-102663448D01*
X130852991Y-102692778D01*
X130696466Y-102776443D01*
X130526627Y-102827963D01*
X130460442Y-102834482D01*
X130394260Y-102841000D01*
X130305740Y-102841000D01*
X130239557Y-102834481D01*
X130173373Y-102827963D01*
X130003534Y-102776443D01*
X129847009Y-102692778D01*
X129811271Y-102663448D01*
X129709814Y-102580186D01*
X129626552Y-102478729D01*
X129597222Y-102442991D01*
X129513557Y-102286466D01*
X129462037Y-102116627D01*
X129444641Y-101940000D01*
X129462037Y-101763373D01*
X129513557Y-101593534D01*
X129597222Y-101437009D01*
X129626552Y-101401271D01*
X129709814Y-101299814D01*
X129811271Y-101216552D01*
X129847009Y-101187222D01*
X130003534Y-101103557D01*
X130173373Y-101052037D01*
X130239557Y-101045519D01*
X130305740Y-101039000D01*
X130394260Y-101039000D01*
X130460443Y-101045519D01*
X130460443Y-101045519D01*
G37*
G36*
X139110443Y-101045519D02*
G01*
X139176627Y-101052037D01*
X139346466Y-101103557D01*
X139502991Y-101187222D01*
X139538729Y-101216552D01*
X139640186Y-101299814D01*
X139723448Y-101401271D01*
X139752778Y-101437009D01*
X139836443Y-101593534D01*
X139887963Y-101763373D01*
X139905359Y-101940000D01*
X139887963Y-102116627D01*
X139836443Y-102286466D01*
X139752778Y-102442991D01*
X139723448Y-102478729D01*
X139640186Y-102580186D01*
X139538729Y-102663448D01*
X139502991Y-102692778D01*
X139346466Y-102776443D01*
X139176627Y-102827963D01*
X139110442Y-102834482D01*
X139044260Y-102841000D01*
X138955740Y-102841000D01*
X138889557Y-102834481D01*
X138823373Y-102827963D01*
X138653534Y-102776443D01*
X138497009Y-102692778D01*
X138461271Y-102663448D01*
X138359814Y-102580186D01*
X138276552Y-102478729D01*
X138247222Y-102442991D01*
X138163557Y-102286466D01*
X138112037Y-102116627D01*
X138094641Y-101940000D01*
X138112037Y-101763373D01*
X138163557Y-101593534D01*
X138247222Y-101437009D01*
X138276552Y-101401271D01*
X138359814Y-101299814D01*
X138461271Y-101216552D01*
X138497009Y-101187222D01*
X138653534Y-101103557D01*
X138823373Y-101052037D01*
X138889557Y-101045519D01*
X138955740Y-101039000D01*
X139044260Y-101039000D01*
X139110443Y-101045519D01*
X139110443Y-101045519D01*
G37*
G36*
X130460442Y-98505518D02*
G01*
X130526627Y-98512037D01*
X130696466Y-98563557D01*
X130852991Y-98647222D01*
X130888729Y-98676552D01*
X130990186Y-98759814D01*
X131073448Y-98861271D01*
X131102778Y-98897009D01*
X131186443Y-99053534D01*
X131237963Y-99223373D01*
X131255359Y-99400000D01*
X131237963Y-99576627D01*
X131186443Y-99746466D01*
X131102778Y-99902991D01*
X131073448Y-99938729D01*
X130990186Y-100040186D01*
X130888729Y-100123448D01*
X130852991Y-100152778D01*
X130696466Y-100236443D01*
X130526627Y-100287963D01*
X130460442Y-100294482D01*
X130394260Y-100301000D01*
X130305740Y-100301000D01*
X130239558Y-100294482D01*
X130173373Y-100287963D01*
X130003534Y-100236443D01*
X129847009Y-100152778D01*
X129811271Y-100123448D01*
X129709814Y-100040186D01*
X129626552Y-99938729D01*
X129597222Y-99902991D01*
X129513557Y-99746466D01*
X129462037Y-99576627D01*
X129444641Y-99400000D01*
X129462037Y-99223373D01*
X129513557Y-99053534D01*
X129597222Y-98897009D01*
X129626552Y-98861271D01*
X129709814Y-98759814D01*
X129811271Y-98676552D01*
X129847009Y-98647222D01*
X130003534Y-98563557D01*
X130173373Y-98512037D01*
X130239557Y-98505519D01*
X130305740Y-98499000D01*
X130394260Y-98499000D01*
X130460442Y-98505518D01*
X130460442Y-98505518D01*
G37*
G36*
X139110442Y-98505518D02*
G01*
X139176627Y-98512037D01*
X139346466Y-98563557D01*
X139502991Y-98647222D01*
X139538729Y-98676552D01*
X139640186Y-98759814D01*
X139723448Y-98861271D01*
X139752778Y-98897009D01*
X139836443Y-99053534D01*
X139887963Y-99223373D01*
X139905359Y-99400000D01*
X139887963Y-99576627D01*
X139836443Y-99746466D01*
X139752778Y-99902991D01*
X139723448Y-99938729D01*
X139640186Y-100040186D01*
X139538729Y-100123448D01*
X139502991Y-100152778D01*
X139346466Y-100236443D01*
X139176627Y-100287963D01*
X139110442Y-100294482D01*
X139044260Y-100301000D01*
X138955740Y-100301000D01*
X138889558Y-100294482D01*
X138823373Y-100287963D01*
X138653534Y-100236443D01*
X138497009Y-100152778D01*
X138461271Y-100123448D01*
X138359814Y-100040186D01*
X138276552Y-99938729D01*
X138247222Y-99902991D01*
X138163557Y-99746466D01*
X138112037Y-99576627D01*
X138094641Y-99400000D01*
X138112037Y-99223373D01*
X138163557Y-99053534D01*
X138247222Y-98897009D01*
X138276552Y-98861271D01*
X138359814Y-98759814D01*
X138461271Y-98676552D01*
X138497009Y-98647222D01*
X138653534Y-98563557D01*
X138823373Y-98512037D01*
X138889557Y-98505519D01*
X138955740Y-98499000D01*
X139044260Y-98499000D01*
X139110442Y-98505518D01*
X139110442Y-98505518D01*
G37*
G36*
X139110443Y-95965519D02*
G01*
X139176627Y-95972037D01*
X139346466Y-96023557D01*
X139502991Y-96107222D01*
X139538729Y-96136552D01*
X139640186Y-96219814D01*
X139723448Y-96321271D01*
X139752778Y-96357009D01*
X139836443Y-96513534D01*
X139887963Y-96683373D01*
X139905359Y-96860000D01*
X139887963Y-97036627D01*
X139836443Y-97206466D01*
X139752778Y-97362991D01*
X139723448Y-97398729D01*
X139640186Y-97500186D01*
X139538729Y-97583448D01*
X139502991Y-97612778D01*
X139346466Y-97696443D01*
X139176627Y-97747963D01*
X139110443Y-97754481D01*
X139044260Y-97761000D01*
X138955740Y-97761000D01*
X138889557Y-97754481D01*
X138823373Y-97747963D01*
X138653534Y-97696443D01*
X138497009Y-97612778D01*
X138461271Y-97583448D01*
X138359814Y-97500186D01*
X138276552Y-97398729D01*
X138247222Y-97362991D01*
X138163557Y-97206466D01*
X138112037Y-97036627D01*
X138094641Y-96860000D01*
X138112037Y-96683373D01*
X138163557Y-96513534D01*
X138247222Y-96357009D01*
X138276552Y-96321271D01*
X138359814Y-96219814D01*
X138461271Y-96136552D01*
X138497009Y-96107222D01*
X138653534Y-96023557D01*
X138823373Y-95972037D01*
X138889557Y-95965519D01*
X138955740Y-95959000D01*
X139044260Y-95959000D01*
X139110443Y-95965519D01*
X139110443Y-95965519D01*
G37*
G36*
X130460443Y-95965519D02*
G01*
X130526627Y-95972037D01*
X130696466Y-96023557D01*
X130852991Y-96107222D01*
X130888729Y-96136552D01*
X130990186Y-96219814D01*
X131073448Y-96321271D01*
X131102778Y-96357009D01*
X131186443Y-96513534D01*
X131237963Y-96683373D01*
X131255359Y-96860000D01*
X131237963Y-97036627D01*
X131186443Y-97206466D01*
X131102778Y-97362991D01*
X131073448Y-97398729D01*
X130990186Y-97500186D01*
X130888729Y-97583448D01*
X130852991Y-97612778D01*
X130696466Y-97696443D01*
X130526627Y-97747963D01*
X130460443Y-97754481D01*
X130394260Y-97761000D01*
X130305740Y-97761000D01*
X130239557Y-97754481D01*
X130173373Y-97747963D01*
X130003534Y-97696443D01*
X129847009Y-97612778D01*
X129811271Y-97583448D01*
X129709814Y-97500186D01*
X129626552Y-97398729D01*
X129597222Y-97362991D01*
X129513557Y-97206466D01*
X129462037Y-97036627D01*
X129444641Y-96860000D01*
X129462037Y-96683373D01*
X129513557Y-96513534D01*
X129597222Y-96357009D01*
X129626552Y-96321271D01*
X129709814Y-96219814D01*
X129811271Y-96136552D01*
X129847009Y-96107222D01*
X130003534Y-96023557D01*
X130173373Y-95972037D01*
X130239557Y-95965519D01*
X130305740Y-95959000D01*
X130394260Y-95959000D01*
X130460443Y-95965519D01*
X130460443Y-95965519D01*
G37*
G36*
X130460442Y-93425518D02*
G01*
X130526627Y-93432037D01*
X130696466Y-93483557D01*
X130852991Y-93567222D01*
X130888729Y-93596552D01*
X130990186Y-93679814D01*
X131073448Y-93781271D01*
X131102778Y-93817009D01*
X131186443Y-93973534D01*
X131237963Y-94143373D01*
X131255359Y-94320000D01*
X131237963Y-94496627D01*
X131186443Y-94666466D01*
X131102778Y-94822991D01*
X131073448Y-94858729D01*
X130990186Y-94960186D01*
X130888729Y-95043448D01*
X130852991Y-95072778D01*
X130696466Y-95156443D01*
X130526627Y-95207963D01*
X130460443Y-95214481D01*
X130394260Y-95221000D01*
X130305740Y-95221000D01*
X130239557Y-95214481D01*
X130173373Y-95207963D01*
X130003534Y-95156443D01*
X129847009Y-95072778D01*
X129811271Y-95043448D01*
X129709814Y-94960186D01*
X129626552Y-94858729D01*
X129597222Y-94822991D01*
X129513557Y-94666466D01*
X129462037Y-94496627D01*
X129444641Y-94320000D01*
X129462037Y-94143373D01*
X129513557Y-93973534D01*
X129597222Y-93817009D01*
X129626552Y-93781271D01*
X129709814Y-93679814D01*
X129811271Y-93596552D01*
X129847009Y-93567222D01*
X130003534Y-93483557D01*
X130173373Y-93432037D01*
X130239558Y-93425518D01*
X130305740Y-93419000D01*
X130394260Y-93419000D01*
X130460442Y-93425518D01*
X130460442Y-93425518D01*
G37*
G36*
X139110442Y-93425518D02*
G01*
X139176627Y-93432037D01*
X139346466Y-93483557D01*
X139502991Y-93567222D01*
X139538729Y-93596552D01*
X139640186Y-93679814D01*
X139723448Y-93781271D01*
X139752778Y-93817009D01*
X139836443Y-93973534D01*
X139887963Y-94143373D01*
X139905359Y-94320000D01*
X139887963Y-94496627D01*
X139836443Y-94666466D01*
X139752778Y-94822991D01*
X139723448Y-94858729D01*
X139640186Y-94960186D01*
X139538729Y-95043448D01*
X139502991Y-95072778D01*
X139346466Y-95156443D01*
X139176627Y-95207963D01*
X139110443Y-95214481D01*
X139044260Y-95221000D01*
X138955740Y-95221000D01*
X138889557Y-95214481D01*
X138823373Y-95207963D01*
X138653534Y-95156443D01*
X138497009Y-95072778D01*
X138461271Y-95043448D01*
X138359814Y-94960186D01*
X138276552Y-94858729D01*
X138247222Y-94822991D01*
X138163557Y-94666466D01*
X138112037Y-94496627D01*
X138094641Y-94320000D01*
X138112037Y-94143373D01*
X138163557Y-93973534D01*
X138247222Y-93817009D01*
X138276552Y-93781271D01*
X138359814Y-93679814D01*
X138461271Y-93596552D01*
X138497009Y-93567222D01*
X138653534Y-93483557D01*
X138823373Y-93432037D01*
X138889558Y-93425518D01*
X138955740Y-93419000D01*
X139044260Y-93419000D01*
X139110442Y-93425518D01*
X139110442Y-93425518D01*
G37*
G36*
X130460443Y-90885519D02*
G01*
X130526627Y-90892037D01*
X130696466Y-90943557D01*
X130852991Y-91027222D01*
X130888729Y-91056552D01*
X130990186Y-91139814D01*
X131073448Y-91241271D01*
X131102778Y-91277009D01*
X131186443Y-91433534D01*
X131237963Y-91603373D01*
X131255359Y-91780000D01*
X131237963Y-91956627D01*
X131186443Y-92126466D01*
X131102778Y-92282991D01*
X131073448Y-92318729D01*
X130990186Y-92420186D01*
X130888729Y-92503448D01*
X130852991Y-92532778D01*
X130696466Y-92616443D01*
X130526627Y-92667963D01*
X130460442Y-92674482D01*
X130394260Y-92681000D01*
X130305740Y-92681000D01*
X130239558Y-92674482D01*
X130173373Y-92667963D01*
X130003534Y-92616443D01*
X129847009Y-92532778D01*
X129811271Y-92503448D01*
X129709814Y-92420186D01*
X129626552Y-92318729D01*
X129597222Y-92282991D01*
X129513557Y-92126466D01*
X129462037Y-91956627D01*
X129444641Y-91780000D01*
X129462037Y-91603373D01*
X129513557Y-91433534D01*
X129597222Y-91277009D01*
X129626552Y-91241271D01*
X129709814Y-91139814D01*
X129811271Y-91056552D01*
X129847009Y-91027222D01*
X130003534Y-90943557D01*
X130173373Y-90892037D01*
X130239557Y-90885519D01*
X130305740Y-90879000D01*
X130394260Y-90879000D01*
X130460443Y-90885519D01*
X130460443Y-90885519D01*
G37*
G36*
X139110443Y-90885519D02*
G01*
X139176627Y-90892037D01*
X139346466Y-90943557D01*
X139502991Y-91027222D01*
X139538729Y-91056552D01*
X139640186Y-91139814D01*
X139723448Y-91241271D01*
X139752778Y-91277009D01*
X139836443Y-91433534D01*
X139887963Y-91603373D01*
X139905359Y-91780000D01*
X139887963Y-91956627D01*
X139836443Y-92126466D01*
X139752778Y-92282991D01*
X139723448Y-92318729D01*
X139640186Y-92420186D01*
X139538729Y-92503448D01*
X139502991Y-92532778D01*
X139346466Y-92616443D01*
X139176627Y-92667963D01*
X139110442Y-92674482D01*
X139044260Y-92681000D01*
X138955740Y-92681000D01*
X138889558Y-92674482D01*
X138823373Y-92667963D01*
X138653534Y-92616443D01*
X138497009Y-92532778D01*
X138461271Y-92503448D01*
X138359814Y-92420186D01*
X138276552Y-92318729D01*
X138247222Y-92282991D01*
X138163557Y-92126466D01*
X138112037Y-91956627D01*
X138094641Y-91780000D01*
X138112037Y-91603373D01*
X138163557Y-91433534D01*
X138247222Y-91277009D01*
X138276552Y-91241271D01*
X138359814Y-91139814D01*
X138461271Y-91056552D01*
X138497009Y-91027222D01*
X138653534Y-90943557D01*
X138823373Y-90892037D01*
X138889557Y-90885519D01*
X138955740Y-90879000D01*
X139044260Y-90879000D01*
X139110443Y-90885519D01*
X139110443Y-90885519D01*
G37*
G36*
X139110443Y-88345519D02*
G01*
X139176627Y-88352037D01*
X139346466Y-88403557D01*
X139502991Y-88487222D01*
X139538729Y-88516552D01*
X139640186Y-88599814D01*
X139723448Y-88701271D01*
X139752778Y-88737009D01*
X139836443Y-88893534D01*
X139887963Y-89063373D01*
X139905359Y-89240000D01*
X139887963Y-89416627D01*
X139836443Y-89586466D01*
X139752778Y-89742991D01*
X139723448Y-89778729D01*
X139640186Y-89880186D01*
X139538729Y-89963448D01*
X139502991Y-89992778D01*
X139346466Y-90076443D01*
X139176627Y-90127963D01*
X139110442Y-90134482D01*
X139044260Y-90141000D01*
X138955740Y-90141000D01*
X138889558Y-90134482D01*
X138823373Y-90127963D01*
X138653534Y-90076443D01*
X138497009Y-89992778D01*
X138461271Y-89963448D01*
X138359814Y-89880186D01*
X138276552Y-89778729D01*
X138247222Y-89742991D01*
X138163557Y-89586466D01*
X138112037Y-89416627D01*
X138094641Y-89240000D01*
X138112037Y-89063373D01*
X138163557Y-88893534D01*
X138247222Y-88737009D01*
X138276552Y-88701271D01*
X138359814Y-88599814D01*
X138461271Y-88516552D01*
X138497009Y-88487222D01*
X138653534Y-88403557D01*
X138823373Y-88352037D01*
X138889557Y-88345519D01*
X138955740Y-88339000D01*
X139044260Y-88339000D01*
X139110443Y-88345519D01*
X139110443Y-88345519D01*
G37*
G36*
X130460443Y-88345519D02*
G01*
X130526627Y-88352037D01*
X130696466Y-88403557D01*
X130852991Y-88487222D01*
X130888729Y-88516552D01*
X130990186Y-88599814D01*
X131073448Y-88701271D01*
X131102778Y-88737009D01*
X131186443Y-88893534D01*
X131237963Y-89063373D01*
X131255359Y-89240000D01*
X131237963Y-89416627D01*
X131186443Y-89586466D01*
X131102778Y-89742991D01*
X131073448Y-89778729D01*
X130990186Y-89880186D01*
X130888729Y-89963448D01*
X130852991Y-89992778D01*
X130696466Y-90076443D01*
X130526627Y-90127963D01*
X130460442Y-90134482D01*
X130394260Y-90141000D01*
X130305740Y-90141000D01*
X130239558Y-90134482D01*
X130173373Y-90127963D01*
X130003534Y-90076443D01*
X129847009Y-89992778D01*
X129811271Y-89963448D01*
X129709814Y-89880186D01*
X129626552Y-89778729D01*
X129597222Y-89742991D01*
X129513557Y-89586466D01*
X129462037Y-89416627D01*
X129444641Y-89240000D01*
X129462037Y-89063373D01*
X129513557Y-88893534D01*
X129597222Y-88737009D01*
X129626552Y-88701271D01*
X129709814Y-88599814D01*
X129811271Y-88516552D01*
X129847009Y-88487222D01*
X130003534Y-88403557D01*
X130173373Y-88352037D01*
X130239557Y-88345519D01*
X130305740Y-88339000D01*
X130394260Y-88339000D01*
X130460443Y-88345519D01*
X130460443Y-88345519D01*
G37*
G36*
X130460442Y-85805518D02*
G01*
X130526627Y-85812037D01*
X130696466Y-85863557D01*
X130852991Y-85947222D01*
X130888729Y-85976552D01*
X130990186Y-86059814D01*
X131073448Y-86161271D01*
X131102778Y-86197009D01*
X131186443Y-86353534D01*
X131237963Y-86523373D01*
X131255359Y-86700000D01*
X131237963Y-86876627D01*
X131186443Y-87046466D01*
X131102778Y-87202991D01*
X131073448Y-87238729D01*
X130990186Y-87340186D01*
X130888729Y-87423448D01*
X130852991Y-87452778D01*
X130696466Y-87536443D01*
X130526627Y-87587963D01*
X130460442Y-87594482D01*
X130394260Y-87601000D01*
X130305740Y-87601000D01*
X130239558Y-87594482D01*
X130173373Y-87587963D01*
X130003534Y-87536443D01*
X129847009Y-87452778D01*
X129811271Y-87423448D01*
X129709814Y-87340186D01*
X129626552Y-87238729D01*
X129597222Y-87202991D01*
X129513557Y-87046466D01*
X129462037Y-86876627D01*
X129444641Y-86700000D01*
X129462037Y-86523373D01*
X129513557Y-86353534D01*
X129597222Y-86197009D01*
X129626552Y-86161271D01*
X129709814Y-86059814D01*
X129811271Y-85976552D01*
X129847009Y-85947222D01*
X130003534Y-85863557D01*
X130173373Y-85812037D01*
X130239558Y-85805518D01*
X130305740Y-85799000D01*
X130394260Y-85799000D01*
X130460442Y-85805518D01*
X130460442Y-85805518D01*
G37*
G36*
X139110442Y-85805518D02*
G01*
X139176627Y-85812037D01*
X139346466Y-85863557D01*
X139502991Y-85947222D01*
X139538729Y-85976552D01*
X139640186Y-86059814D01*
X139723448Y-86161271D01*
X139752778Y-86197009D01*
X139836443Y-86353534D01*
X139887963Y-86523373D01*
X139905359Y-86700000D01*
X139887963Y-86876627D01*
X139836443Y-87046466D01*
X139752778Y-87202991D01*
X139723448Y-87238729D01*
X139640186Y-87340186D01*
X139538729Y-87423448D01*
X139502991Y-87452778D01*
X139346466Y-87536443D01*
X139176627Y-87587963D01*
X139110442Y-87594482D01*
X139044260Y-87601000D01*
X138955740Y-87601000D01*
X138889558Y-87594482D01*
X138823373Y-87587963D01*
X138653534Y-87536443D01*
X138497009Y-87452778D01*
X138461271Y-87423448D01*
X138359814Y-87340186D01*
X138276552Y-87238729D01*
X138247222Y-87202991D01*
X138163557Y-87046466D01*
X138112037Y-86876627D01*
X138094641Y-86700000D01*
X138112037Y-86523373D01*
X138163557Y-86353534D01*
X138247222Y-86197009D01*
X138276552Y-86161271D01*
X138359814Y-86059814D01*
X138461271Y-85976552D01*
X138497009Y-85947222D01*
X138653534Y-85863557D01*
X138823373Y-85812037D01*
X138889558Y-85805518D01*
X138955740Y-85799000D01*
X139044260Y-85799000D01*
X139110442Y-85805518D01*
X139110442Y-85805518D01*
G37*
G36*
X139110442Y-83265518D02*
G01*
X139176627Y-83272037D01*
X139346466Y-83323557D01*
X139502991Y-83407222D01*
X139538729Y-83436552D01*
X139640186Y-83519814D01*
X139723448Y-83621271D01*
X139752778Y-83657009D01*
X139836443Y-83813534D01*
X139887963Y-83983373D01*
X139905359Y-84160000D01*
X139887963Y-84336627D01*
X139836443Y-84506466D01*
X139752778Y-84662991D01*
X139723448Y-84698729D01*
X139640186Y-84800186D01*
X139538729Y-84883448D01*
X139502991Y-84912778D01*
X139346466Y-84996443D01*
X139176627Y-85047963D01*
X139110443Y-85054481D01*
X139044260Y-85061000D01*
X138955740Y-85061000D01*
X138889557Y-85054481D01*
X138823373Y-85047963D01*
X138653534Y-84996443D01*
X138497009Y-84912778D01*
X138461271Y-84883448D01*
X138359814Y-84800186D01*
X138276552Y-84698729D01*
X138247222Y-84662991D01*
X138163557Y-84506466D01*
X138112037Y-84336627D01*
X138094641Y-84160000D01*
X138112037Y-83983373D01*
X138163557Y-83813534D01*
X138247222Y-83657009D01*
X138276552Y-83621271D01*
X138359814Y-83519814D01*
X138461271Y-83436552D01*
X138497009Y-83407222D01*
X138653534Y-83323557D01*
X138823373Y-83272037D01*
X138889558Y-83265518D01*
X138955740Y-83259000D01*
X139044260Y-83259000D01*
X139110442Y-83265518D01*
X139110442Y-83265518D01*
G37*
G36*
X130460442Y-83265518D02*
G01*
X130526627Y-83272037D01*
X130696466Y-83323557D01*
X130852991Y-83407222D01*
X130888729Y-83436552D01*
X130990186Y-83519814D01*
X131073448Y-83621271D01*
X131102778Y-83657009D01*
X131186443Y-83813534D01*
X131237963Y-83983373D01*
X131255359Y-84160000D01*
X131237963Y-84336627D01*
X131186443Y-84506466D01*
X131102778Y-84662991D01*
X131073448Y-84698729D01*
X130990186Y-84800186D01*
X130888729Y-84883448D01*
X130852991Y-84912778D01*
X130696466Y-84996443D01*
X130526627Y-85047963D01*
X130460443Y-85054481D01*
X130394260Y-85061000D01*
X130305740Y-85061000D01*
X130239557Y-85054481D01*
X130173373Y-85047963D01*
X130003534Y-84996443D01*
X129847009Y-84912778D01*
X129811271Y-84883448D01*
X129709814Y-84800186D01*
X129626552Y-84698729D01*
X129597222Y-84662991D01*
X129513557Y-84506466D01*
X129462037Y-84336627D01*
X129444641Y-84160000D01*
X129462037Y-83983373D01*
X129513557Y-83813534D01*
X129597222Y-83657009D01*
X129626552Y-83621271D01*
X129709814Y-83519814D01*
X129811271Y-83436552D01*
X129847009Y-83407222D01*
X130003534Y-83323557D01*
X130173373Y-83272037D01*
X130239558Y-83265518D01*
X130305740Y-83259000D01*
X130394260Y-83259000D01*
X130460442Y-83265518D01*
X130460442Y-83265518D01*
G37*
G36*
X130460443Y-80725519D02*
G01*
X130526627Y-80732037D01*
X130696466Y-80783557D01*
X130852991Y-80867222D01*
X130888729Y-80896552D01*
X130990186Y-80979814D01*
X131073448Y-81081271D01*
X131102778Y-81117009D01*
X131186443Y-81273534D01*
X131237963Y-81443373D01*
X131255359Y-81620000D01*
X131237963Y-81796627D01*
X131186443Y-81966466D01*
X131102778Y-82122991D01*
X131073448Y-82158729D01*
X130990186Y-82260186D01*
X130888729Y-82343448D01*
X130852991Y-82372778D01*
X130696466Y-82456443D01*
X130526627Y-82507963D01*
X130460442Y-82514482D01*
X130394260Y-82521000D01*
X130305740Y-82521000D01*
X130239558Y-82514482D01*
X130173373Y-82507963D01*
X130003534Y-82456443D01*
X129847009Y-82372778D01*
X129811271Y-82343448D01*
X129709814Y-82260186D01*
X129626552Y-82158729D01*
X129597222Y-82122991D01*
X129513557Y-81966466D01*
X129462037Y-81796627D01*
X129444641Y-81620000D01*
X129462037Y-81443373D01*
X129513557Y-81273534D01*
X129597222Y-81117009D01*
X129626552Y-81081271D01*
X129709814Y-80979814D01*
X129811271Y-80896552D01*
X129847009Y-80867222D01*
X130003534Y-80783557D01*
X130173373Y-80732037D01*
X130239557Y-80725519D01*
X130305740Y-80719000D01*
X130394260Y-80719000D01*
X130460443Y-80725519D01*
X130460443Y-80725519D01*
G37*
G36*
X139110443Y-80725519D02*
G01*
X139176627Y-80732037D01*
X139346466Y-80783557D01*
X139502991Y-80867222D01*
X139538729Y-80896552D01*
X139640186Y-80979814D01*
X139723448Y-81081271D01*
X139752778Y-81117009D01*
X139836443Y-81273534D01*
X139887963Y-81443373D01*
X139905359Y-81620000D01*
X139887963Y-81796627D01*
X139836443Y-81966466D01*
X139752778Y-82122991D01*
X139723448Y-82158729D01*
X139640186Y-82260186D01*
X139538729Y-82343448D01*
X139502991Y-82372778D01*
X139346466Y-82456443D01*
X139176627Y-82507963D01*
X139110442Y-82514482D01*
X139044260Y-82521000D01*
X138955740Y-82521000D01*
X138889558Y-82514482D01*
X138823373Y-82507963D01*
X138653534Y-82456443D01*
X138497009Y-82372778D01*
X138461271Y-82343448D01*
X138359814Y-82260186D01*
X138276552Y-82158729D01*
X138247222Y-82122991D01*
X138163557Y-81966466D01*
X138112037Y-81796627D01*
X138094641Y-81620000D01*
X138112037Y-81443373D01*
X138163557Y-81273534D01*
X138247222Y-81117009D01*
X138276552Y-81081271D01*
X138359814Y-80979814D01*
X138461271Y-80896552D01*
X138497009Y-80867222D01*
X138653534Y-80783557D01*
X138823373Y-80732037D01*
X138889557Y-80725519D01*
X138955740Y-80719000D01*
X139044260Y-80719000D01*
X139110443Y-80725519D01*
X139110443Y-80725519D01*
G37*
G36*
X139110442Y-78185518D02*
G01*
X139176627Y-78192037D01*
X139346466Y-78243557D01*
X139502991Y-78327222D01*
X139538729Y-78356552D01*
X139640186Y-78439814D01*
X139723448Y-78541271D01*
X139752778Y-78577009D01*
X139836443Y-78733534D01*
X139887963Y-78903373D01*
X139905359Y-79080000D01*
X139887963Y-79256627D01*
X139836443Y-79426466D01*
X139752778Y-79582991D01*
X139723448Y-79618729D01*
X139640186Y-79720186D01*
X139538729Y-79803448D01*
X139502991Y-79832778D01*
X139346466Y-79916443D01*
X139176627Y-79967963D01*
X139110443Y-79974481D01*
X139044260Y-79981000D01*
X138955740Y-79981000D01*
X138889557Y-79974481D01*
X138823373Y-79967963D01*
X138653534Y-79916443D01*
X138497009Y-79832778D01*
X138461271Y-79803448D01*
X138359814Y-79720186D01*
X138276552Y-79618729D01*
X138247222Y-79582991D01*
X138163557Y-79426466D01*
X138112037Y-79256627D01*
X138094641Y-79080000D01*
X138112037Y-78903373D01*
X138163557Y-78733534D01*
X138247222Y-78577009D01*
X138276552Y-78541271D01*
X138359814Y-78439814D01*
X138461271Y-78356552D01*
X138497009Y-78327222D01*
X138653534Y-78243557D01*
X138823373Y-78192037D01*
X138889558Y-78185518D01*
X138955740Y-78179000D01*
X139044260Y-78179000D01*
X139110442Y-78185518D01*
X139110442Y-78185518D01*
G37*
G36*
X130460442Y-78185518D02*
G01*
X130526627Y-78192037D01*
X130696466Y-78243557D01*
X130852991Y-78327222D01*
X130888729Y-78356552D01*
X130990186Y-78439814D01*
X131073448Y-78541271D01*
X131102778Y-78577009D01*
X131186443Y-78733534D01*
X131237963Y-78903373D01*
X131255359Y-79080000D01*
X131237963Y-79256627D01*
X131186443Y-79426466D01*
X131102778Y-79582991D01*
X131073448Y-79618729D01*
X130990186Y-79720186D01*
X130888729Y-79803448D01*
X130852991Y-79832778D01*
X130696466Y-79916443D01*
X130526627Y-79967963D01*
X130460443Y-79974481D01*
X130394260Y-79981000D01*
X130305740Y-79981000D01*
X130239557Y-79974481D01*
X130173373Y-79967963D01*
X130003534Y-79916443D01*
X129847009Y-79832778D01*
X129811271Y-79803448D01*
X129709814Y-79720186D01*
X129626552Y-79618729D01*
X129597222Y-79582991D01*
X129513557Y-79426466D01*
X129462037Y-79256627D01*
X129444641Y-79080000D01*
X129462037Y-78903373D01*
X129513557Y-78733534D01*
X129597222Y-78577009D01*
X129626552Y-78541271D01*
X129709814Y-78439814D01*
X129811271Y-78356552D01*
X129847009Y-78327222D01*
X130003534Y-78243557D01*
X130173373Y-78192037D01*
X130239558Y-78185518D01*
X130305740Y-78179000D01*
X130394260Y-78179000D01*
X130460442Y-78185518D01*
X130460442Y-78185518D01*
G37*
G36*
X139110442Y-75645518D02*
G01*
X139176627Y-75652037D01*
X139346466Y-75703557D01*
X139502991Y-75787222D01*
X139538729Y-75816552D01*
X139640186Y-75899814D01*
X139723448Y-76001271D01*
X139752778Y-76037009D01*
X139836443Y-76193534D01*
X139887963Y-76363373D01*
X139905359Y-76540000D01*
X139887963Y-76716627D01*
X139836443Y-76886466D01*
X139752778Y-77042991D01*
X139723448Y-77078729D01*
X139640186Y-77180186D01*
X139538729Y-77263448D01*
X139502991Y-77292778D01*
X139346466Y-77376443D01*
X139176627Y-77427963D01*
X139110442Y-77434482D01*
X139044260Y-77441000D01*
X138955740Y-77441000D01*
X138889558Y-77434482D01*
X138823373Y-77427963D01*
X138653534Y-77376443D01*
X138497009Y-77292778D01*
X138461271Y-77263448D01*
X138359814Y-77180186D01*
X138276552Y-77078729D01*
X138247222Y-77042991D01*
X138163557Y-76886466D01*
X138112037Y-76716627D01*
X138094641Y-76540000D01*
X138112037Y-76363373D01*
X138163557Y-76193534D01*
X138247222Y-76037009D01*
X138276552Y-76001271D01*
X138359814Y-75899814D01*
X138461271Y-75816552D01*
X138497009Y-75787222D01*
X138653534Y-75703557D01*
X138823373Y-75652037D01*
X138889558Y-75645518D01*
X138955740Y-75639000D01*
X139044260Y-75639000D01*
X139110442Y-75645518D01*
X139110442Y-75645518D01*
G37*
G36*
X130460442Y-75645518D02*
G01*
X130526627Y-75652037D01*
X130696466Y-75703557D01*
X130852991Y-75787222D01*
X130888729Y-75816552D01*
X130990186Y-75899814D01*
X131073448Y-76001271D01*
X131102778Y-76037009D01*
X131186443Y-76193534D01*
X131237963Y-76363373D01*
X131255359Y-76540000D01*
X131237963Y-76716627D01*
X131186443Y-76886466D01*
X131102778Y-77042991D01*
X131073448Y-77078729D01*
X130990186Y-77180186D01*
X130888729Y-77263448D01*
X130852991Y-77292778D01*
X130696466Y-77376443D01*
X130526627Y-77427963D01*
X130460442Y-77434482D01*
X130394260Y-77441000D01*
X130305740Y-77441000D01*
X130239558Y-77434482D01*
X130173373Y-77427963D01*
X130003534Y-77376443D01*
X129847009Y-77292778D01*
X129811271Y-77263448D01*
X129709814Y-77180186D01*
X129626552Y-77078729D01*
X129597222Y-77042991D01*
X129513557Y-76886466D01*
X129462037Y-76716627D01*
X129444641Y-76540000D01*
X129462037Y-76363373D01*
X129513557Y-76193534D01*
X129597222Y-76037009D01*
X129626552Y-76001271D01*
X129709814Y-75899814D01*
X129811271Y-75816552D01*
X129847009Y-75787222D01*
X130003534Y-75703557D01*
X130173373Y-75652037D01*
X130239558Y-75645518D01*
X130305740Y-75639000D01*
X130394260Y-75639000D01*
X130460442Y-75645518D01*
X130460442Y-75645518D01*
G37*
G36*
X131251000Y-74901000D02*
G01*
X129449000Y-74901000D01*
X129449000Y-73099000D01*
X131251000Y-73099000D01*
X131251000Y-74901000D01*
X131251000Y-74901000D01*
G37*
G36*
X139901000Y-74901000D02*
G01*
X138099000Y-74901000D01*
X138099000Y-73099000D01*
X139901000Y-73099000D01*
X139901000Y-74901000D01*
X139901000Y-74901000D01*
G37*
M02*
