M48
; DRILL file {KiCad (5.1.0)-1} date 10-05-2019 19:25:31
; FORMAT={-:-/ absolute / metric / decimal}
; #@! TF.CreationDate,2019-05-10T19:25:31+02:00
; #@! TF.GenerationSoftware,Kicad,Pcbnew,(5.1.0)-1
FMAT,2
METRIC
T1C1.000
%
G90
G05
T1
X138.0Y-113.0
X138.0Y-115.5
X139.0Y-74.0
X139.0Y-76.54
X139.0Y-79.08
X139.0Y-81.62
X139.0Y-84.16
X139.0Y-86.7
X139.0Y-89.24
X139.0Y-91.78
X139.0Y-94.32
X139.0Y-96.86
X139.0Y-99.4
X139.0Y-101.94
X139.0Y-104.48
X139.0Y-107.02
X130.35Y-74.0
X130.35Y-76.54
X130.35Y-79.08
X130.35Y-81.62
X130.35Y-84.16
X130.35Y-86.7
X130.35Y-89.24
X130.35Y-91.78
X130.35Y-94.32
X130.35Y-96.86
X130.35Y-99.4
X130.35Y-101.94
X130.35Y-104.48
X130.35Y-107.02
X130.35Y-109.56
X130.35Y-112.1
T0
M30
