M48
; DRILL file {KiCad (5.1.4)-1} date 05-09-2019 19:32:52
; FORMAT={-:-/ absolute / metric / decimal}
; #@! TF.CreationDate,2019-09-05T19:32:52+02:00
; #@! TF.GenerationSoftware,Kicad,Pcbnew,(5.1.4)-1
FMAT,2
METRIC
T1C0.200
T2C0.300
T3C1.000
T4C1.300
T5C2.700
%
G90
G05
T1
X82.5Y-109.25
X84.5Y-71.75
X85.5Y-93.75
X86.25Y-71.75
X86.5Y-97.0
X88.0Y-71.75
X88.5Y-77.5
X88.5Y-94.0
X90.25Y-79.75
X90.25Y-82.25
X90.25Y-86.0
X90.25Y-87.5
X91.0Y-94.0
X91.25Y-89.0
X92.5Y-89.0
X92.75Y-84.0
X95.0Y-67.5
X95.0Y-69.5
X95.5Y-66.5
X97.0Y-68.5
X97.25Y-66.5
X97.25Y-95.75
X97.75Y-85.75
X98.5Y-85.75
X99.0Y-66.25
X99.25Y-82.75
X104.25Y-112.75
X105.093Y-62.207
X106.5Y-65.85
X107.5Y-62.75
X109.75Y-62.5
X111.5Y-60.75
X111.75Y-87.0
X112.0Y-64.75
X112.0Y-107.25
X112.25Y-61.25
X112.25Y-105.0
X113.0Y-80.25
X113.0Y-81.25
X113.0Y-82.5
X113.75Y-79.5
X113.8Y-82.75
X114.0Y-65.25
X114.0Y-81.25
X114.25Y-80.5
X114.25Y-117.0
X114.45Y-85.25
X114.613Y-87.244
X115.0Y-79.5
X115.0Y-85.25
X115.25Y-80.5
X115.25Y-105.25
X115.5Y-65.25
X115.8Y-80.5
X116.0Y-86.0
X116.5Y-79.5
X116.5Y-80.5
X116.65Y-85.001
X117.2Y-80.5
X117.227Y-88.1
X117.235Y-87.2
X117.25Y-61.0
X117.25Y-85.0
X117.5Y-90.5
X117.75Y-105.0
X117.75Y-109.75
X117.991Y-88.137
X118.0Y-80.5
X118.0Y-106.75
X118.068Y-88.682
X118.25Y-79.0
X118.25Y-110.5
X118.25Y-113.75
X118.37Y-86.433
X118.5Y-78.25
X118.55Y-80.5
X119.25Y-117.75
X119.488Y-86.324
X119.5Y-90.75
X119.5Y-106.75
X119.85Y-98.764
X119.95Y-99.75
X120.0Y-85.5
X120.25Y-85.0
X120.5Y-98.75
X120.75Y-91.25
X121.0Y-94.25
X121.225Y-85.777
X121.5Y-91.25
X121.75Y-101.25
X122.0Y-107.75
X122.75Y-86.5
X122.75Y-114.75
X123.25Y-90.25
X123.25Y-91.0
X123.5Y-107.25
X124.0Y-95.25
X124.005Y-88.763
X124.197Y-88.247
X124.5Y-89.5
X124.75Y-88.0
X124.75Y-95.25
X124.75Y-103.5
X124.782Y-91.2
X125.0Y-104.25
X125.25Y-119.75
X125.75Y-91.5
X126.0Y-85.0
T2
X75.5Y-61.0
X75.5Y-62.5
X75.5Y-64.25
X75.5Y-66.0
X75.5Y-68.0
X75.5Y-70.0
X75.5Y-72.25
X75.5Y-74.25
X75.5Y-76.25
X75.5Y-78.5
X75.5Y-80.75
X75.5Y-83.0
X75.5Y-85.25
X75.5Y-87.5
X75.5Y-89.75
X75.5Y-92.25
X75.5Y-94.75
X75.5Y-97.0
X75.5Y-99.0
X75.5Y-101.25
X75.5Y-103.5
X75.5Y-105.75
X75.5Y-107.75
X75.5Y-109.5
X75.5Y-111.5
X75.5Y-113.5
X75.5Y-115.5
X75.5Y-118.75
X75.75Y-117.25
X75.75Y-120.75
X76.0Y-59.25
X76.75Y-116.25
X81.25Y-122.25
X81.5Y-58.25
X82.0Y-117.25
X82.25Y-63.0
X82.5Y-60.5
X82.5Y-66.25
X82.5Y-67.25
X82.5Y-68.25
X82.5Y-69.25
X82.5Y-120.25
X82.75Y-59.75
X82.75Y-72.0
X82.75Y-74.75
X82.75Y-77.0
X82.75Y-78.75
X82.75Y-118.75
X83.0Y-81.25
X83.0Y-122.25
X83.175Y-108.0
X83.25Y-58.25
X83.25Y-63.5
X83.25Y-70.5
X83.25Y-73.0
X83.5Y-60.5
X83.5Y-66.25
X83.5Y-69.25
X83.75Y-107.25
X84.0Y-102.0
X84.25Y-63.5
X84.25Y-106.25
X84.5Y-80.0
X84.75Y-60.5
X84.75Y-108.5
X84.75Y-109.75
X85.0Y-110.75
X85.0Y-122.25
X85.25Y-107.75
X85.5Y-58.25
X85.5Y-70.5
X85.5Y-105.25
X85.75Y-111.25
X86.25Y-81.5
X86.25Y-107.75
X87.0Y-111.25
X87.05Y-106.55
X87.25Y-70.5
X87.25Y-97.75
X87.25Y-107.75
X87.25Y-122.25
X87.5Y-79.75
X87.75Y-58.25
X88.75Y-70.0
X88.75Y-76.5
X88.75Y-78.5
X89.0Y-74.5
X89.0Y-81.25
X89.0Y-96.75
X89.25Y-97.75
X89.25Y-122.25
X89.75Y-58.25
X90.0Y-70.75
X90.0Y-72.75
X90.0Y-76.5
X90.0Y-78.5
X90.25Y-65.75
X90.5Y-67.75
X90.75Y-64.0
X91.431Y-112.835
X91.5Y-69.25
X91.5Y-91.75
X91.5Y-93.0
X91.75Y-122.25
X92.0Y-58.25
X92.0Y-62.5
X92.0Y-72.5
X92.0Y-96.5
X92.0Y-112.25
X92.75Y-70.75
X92.75Y-90.75
X93.0Y-66.5
X93.0Y-68.25
X93.0Y-120.75
X93.25Y-64.0
X93.25Y-118.75
X93.5Y-116.75
X93.75Y-62.75
X93.75Y-122.25
X94.0Y-58.25
X94.0Y-112.25
X94.25Y-65.5
X94.25Y-72.5
X94.5Y-62.25
X94.5Y-119.25
X94.5Y-120.75
X94.55Y-99.95
X94.75Y-89.25
X94.75Y-117.5
X95.5Y-70.75
X95.75Y-112.25
X96.25Y-58.25
X96.25Y-59.75
X96.25Y-96.5
X96.5Y-85.75
X96.55Y-99.95
X96.75Y-72.5
X96.75Y-89.25
X97.0Y-90.5
X97.25Y-86.75
X97.25Y-97.0
X97.25Y-117.0
X97.75Y-112.5
X97.8Y-99.95
X98.0Y-92.25
X98.25Y-58.25
X98.25Y-60.0
X98.25Y-61.5
X98.25Y-94.5
X98.25Y-114.75
X98.5Y-70.75
X98.5Y-89.25
X98.5Y-110.25
X99.0Y-90.5
X99.0Y-95.75
X99.0Y-117.0
X99.25Y-72.5
X99.5Y-86.75
X99.55Y-99.95
X99.75Y-68.75
X99.75Y-106.75
X100.0Y-58.25
X100.0Y-62.5
X100.25Y-92.0
X100.25Y-103.0
X100.25Y-104.25
X100.5Y-60.0
X100.5Y-75.75
X100.5Y-81.75
X100.5Y-85.25
X100.5Y-89.25
X100.5Y-105.75
X100.5Y-117.0
X100.75Y-77.25
X100.75Y-94.25
X100.75Y-114.75
X101.0Y-112.5
X101.25Y-64.0
X101.25Y-70.5
X101.25Y-83.75
X101.25Y-86.75
X101.5Y-61.5
X101.5Y-72.5
X101.75Y-80.25
X101.75Y-90.75
X101.75Y-106.75
X101.75Y-109.25
X101.775Y-99.025
X102.0Y-58.25
X102.25Y-68.75
X102.25Y-76.25
X102.5Y-65.25
X102.5Y-78.0
X102.5Y-82.5
X102.5Y-84.25
X102.5Y-86.25
X102.5Y-117.25
X102.75Y-60.0
X102.75Y-89.25
X102.75Y-92.75
X103.0Y-62.75
X103.525Y-97.275
X103.75Y-70.0
X103.75Y-72.5
X103.8Y-100.2
X103.95Y-108.3
X104.0Y-58.25
X104.25Y-61.5
X104.25Y-67.5
X104.25Y-114.75
X104.25Y-117.0
X104.4Y-106.65
X104.5Y-63.0
X104.5Y-90.75
X104.75Y-60.0
X104.75Y-64.25
X104.75Y-89.25
X105.006Y-109.744
X105.025Y-95.775
X105.25Y-77.75
X105.25Y-79.25
X105.45Y-102.8
X105.45Y-105.05
X105.5Y-91.75
X105.75Y-117.0
X105.8Y-100.2
X106.0Y-58.25
X106.131Y-110.869
X106.25Y-71.25
X106.25Y-80.0
X106.25Y-81.5
X106.25Y-83.25
X106.25Y-84.75
X106.25Y-86.5
X106.5Y-77.75
X107.0Y-90.5
X107.3Y-111.95
X107.5Y-67.25
X107.5Y-71.0
X107.5Y-72.75
X107.5Y-74.25
X107.5Y-81.0
X107.5Y-85.25
X107.5Y-117.0
X108.0Y-88.75
X108.25Y-58.25
X108.25Y-91.75
X108.3Y-100.2
X108.5Y-71.0
X108.5Y-75.0
X108.5Y-77.75
X108.5Y-79.25
X108.75Y-106.0
X109.0Y-73.5
X109.25Y-67.75
X109.25Y-88.25
X109.3Y-111.95
X109.5Y-83.0
X109.75Y-90.5
X110.0Y-71.75
X110.0Y-81.0
X110.0Y-106.0
X110.25Y-58.25
X110.25Y-77.75
X110.25Y-79.25
X110.25Y-104.0
X110.75Y-70.0
X110.75Y-73.25
X110.75Y-75.0
X110.75Y-84.25
X111.0Y-117.0
X111.5Y-92.25
X111.75Y-79.25
X111.75Y-81.0
X111.75Y-82.75
X111.75Y-84.0
X112.0Y-77.75
X112.25Y-58.25
X112.25Y-105.75
X112.25Y-117.5
X112.75Y-91.0
X112.75Y-97.0
X112.75Y-106.5
X112.75Y-118.75
X112.75Y-120.25
X112.75Y-121.75
X113.0Y-75.0
X113.25Y-67.5
X113.75Y-61.0
X114.0Y-58.25
X114.0Y-77.75
X114.0Y-119.0
X114.0Y-122.25
X114.25Y-97.0
X114.5Y-73.25
X114.75Y-120.75
X115.0Y-106.25
X115.25Y-61.0
X115.25Y-103.5
X115.25Y-113.75
X115.5Y-73.0
X115.5Y-112.25
X115.5Y-114.75
X115.75Y-58.25
X115.75Y-97.0
X115.75Y-99.0
X115.75Y-100.25
X116.0Y-67.5
X116.0Y-103.0
X116.0Y-122.25
X116.25Y-77.75
X116.5Y-98.0
X117.0Y-74.5
X117.25Y-72.75
X117.5Y-58.25
X117.5Y-97.0
X117.75Y-100.0
X117.75Y-101.0
X117.75Y-103.0
X118.0Y-98.0
X118.0Y-122.25
X118.5Y-72.0
X118.5Y-74.25
X118.75Y-103.0
X119.0Y-98.0
X119.0Y-100.0
X119.25Y-58.25
X119.25Y-112.75
X119.5Y-73.25
X119.5Y-75.25
X119.75Y-122.25
X120.0Y-111.0
X120.5Y-72.0
X120.75Y-97.25
X121.0Y-58.25
X121.0Y-111.75
X121.0Y-112.75
X121.25Y-73.25
X121.25Y-75.25
X121.75Y-83.0
X121.75Y-122.25
X122.25Y-71.25
X122.25Y-112.75
X122.5Y-97.75
X123.0Y-58.25
X123.5Y-68.25
X123.5Y-69.75
X123.5Y-71.5
X123.5Y-73.0
X123.5Y-74.5
X123.5Y-76.25
X123.5Y-122.25
X124.0Y-112.75
X124.0Y-114.0
X124.0Y-115.75
X124.25Y-119.25
X124.5Y-58.25
X124.5Y-60.75
X124.5Y-62.0
X124.5Y-117.5
X124.75Y-97.5
X124.75Y-121.0
X125.0Y-59.25
X125.0Y-63.25
X125.25Y-74.75
X125.25Y-76.0
X125.25Y-112.75
X125.5Y-74.0
X125.75Y-66.0
X125.75Y-66.75
X125.75Y-122.25
X126.0Y-58.25
X126.0Y-64.25
X126.0Y-67.5
X126.0Y-73.5
X126.0Y-76.75
X126.0Y-111.0
X126.0Y-116.0
X126.25Y-65.25
X126.25Y-97.25
X126.25Y-114.25
X126.75Y-67.75
X127.0Y-78.25
X127.0Y-112.0
X127.25Y-65.25
X127.25Y-73.5
X127.5Y-76.75
X127.75Y-67.75
X127.75Y-97.5
X127.75Y-115.5
X128.0Y-65.25
X128.0Y-102.75
X128.0Y-107.5
X128.0Y-108.75
X128.0Y-110.25
X128.25Y-99.0
X128.25Y-100.25
X128.25Y-112.75
X128.25Y-114.25
X128.5Y-73.5
X128.75Y-67.75
X129.0Y-65.25
X129.0Y-76.75
X129.0Y-103.75
X129.0Y-104.75
X129.0Y-105.5
X129.0Y-106.5
X129.0Y-107.5
X129.0Y-108.75
X129.0Y-110.0
X129.25Y-78.25
X129.25Y-101.0
X129.25Y-102.5
X129.25Y-112.75
X129.25Y-115.75
X129.5Y-73.5
X129.75Y-65.25
X129.75Y-67.75
X130.25Y-97.5
X130.25Y-99.0
X130.25Y-100.75
X130.25Y-102.25
X130.25Y-103.75
X130.25Y-105.25
X130.25Y-106.75
X130.25Y-108.25
X130.25Y-109.75
X130.25Y-111.5
X130.25Y-112.75
X130.5Y-76.75
X130.5Y-78.75
X130.5Y-81.0
X130.5Y-83.75
X130.5Y-86.25
X130.5Y-88.75
X130.5Y-91.25
X130.5Y-93.25
X130.5Y-95.5
X130.5Y-116.5
X130.75Y-65.25
X130.75Y-67.75
X130.75Y-73.5
X131.0Y-63.25
X131.0Y-64.25
X131.0Y-113.5
X131.0Y-114.75
X131.0Y-115.75
X131.0Y-117.25
T3
X113.75Y-100.21
X113.75Y-102.75
X113.75Y-105.29
X113.75Y-107.83
X113.75Y-110.37
X77.71Y-65.99
X77.71Y-68.53
X77.71Y-71.07
X77.71Y-73.61
X77.71Y-76.15
X77.71Y-78.69
X77.71Y-81.23
X77.71Y-83.77
X77.71Y-86.31
X77.71Y-88.85
X77.71Y-91.39
X77.71Y-93.93
X77.71Y-96.47
X77.71Y-99.01
X77.71Y-101.55
X77.71Y-104.09
X77.71Y-106.63
X77.71Y-109.17
X77.71Y-111.71
X77.71Y-114.25
X80.25Y-65.99
X80.25Y-68.53
X80.25Y-71.07
X80.25Y-73.61
X80.25Y-76.15
X80.25Y-78.69
X80.25Y-81.23
X80.25Y-83.77
X80.25Y-86.31
X80.25Y-88.85
X80.25Y-91.39
X80.25Y-93.93
X80.25Y-96.47
X80.25Y-99.01
X80.25Y-101.55
X80.25Y-104.09
X80.25Y-106.63
X80.25Y-109.17
X80.25Y-111.71
X80.25Y-114.25
X117.17Y-120.0
X119.71Y-120.0
X122.25Y-120.0
T4
X85.42Y-120.0
X90.5Y-120.0
T5
X79.0Y-119.25
X128.0Y-119.25
X128.0Y-61.25
X79.0Y-61.25
T0
M30
