G04 #@! TF.GenerationSoftware,KiCad,Pcbnew,(5.1.4)-1*
G04 #@! TF.CreationDate,2019-09-05T19:32:48+02:00*
G04 #@! TF.ProjectId,rf-receiver,72662d72-6563-4656-9976-65722e6b6963,rev?*
G04 #@! TF.SameCoordinates,Original*
G04 #@! TF.FileFunction,Legend,Top*
G04 #@! TF.FilePolarity,Positive*
%FSLAX46Y46*%
G04 Gerber Fmt 4.6, Leading zero omitted, Abs format (unit mm)*
G04 Created by KiCad (PCBNEW (5.1.4)-1) date 2019-09-05 19:32:48*
%MOMM*%
%LPD*%
G04 APERTURE LIST*
%ADD10C,0.125000*%
%ADD11C,0.250000*%
%ADD12C,0.150000*%
%ADD13C,0.120000*%
%ADD14C,0.100000*%
G04 APERTURE END LIST*
D10*
X93028571Y-120107142D02*
X94171428Y-120107142D01*
X93600000Y-120678571D02*
X93600000Y-119535714D01*
D11*
X99404761Y-90827380D02*
X99071428Y-90351190D01*
X98833333Y-90827380D02*
X98833333Y-89827380D01*
X99214285Y-89827380D01*
X99309523Y-89875000D01*
X99357142Y-89922619D01*
X99404761Y-90017857D01*
X99404761Y-90160714D01*
X99357142Y-90255952D01*
X99309523Y-90303571D01*
X99214285Y-90351190D01*
X98833333Y-90351190D01*
X100166666Y-90303571D02*
X99833333Y-90303571D01*
X99833333Y-90827380D02*
X99833333Y-89827380D01*
X100309523Y-89827380D01*
X101404761Y-90779761D02*
X101547619Y-90827380D01*
X101785714Y-90827380D01*
X101880952Y-90779761D01*
X101928571Y-90732142D01*
X101976190Y-90636904D01*
X101976190Y-90541666D01*
X101928571Y-90446428D01*
X101880952Y-90398809D01*
X101785714Y-90351190D01*
X101595238Y-90303571D01*
X101500000Y-90255952D01*
X101452380Y-90208333D01*
X101404761Y-90113095D01*
X101404761Y-90017857D01*
X101452380Y-89922619D01*
X101500000Y-89875000D01*
X101595238Y-89827380D01*
X101833333Y-89827380D01*
X101976190Y-89875000D01*
X102404761Y-90827380D02*
X102404761Y-89827380D01*
X102404761Y-90303571D02*
X102976190Y-90303571D01*
X102976190Y-90827380D02*
X102976190Y-89827380D01*
X103452380Y-90827380D02*
X103452380Y-89827380D01*
X103928571Y-90303571D02*
X104261904Y-90303571D01*
X104404761Y-90827380D02*
X103928571Y-90827380D01*
X103928571Y-89827380D01*
X104404761Y-89827380D01*
X105309523Y-90827380D02*
X104833333Y-90827380D01*
X104833333Y-89827380D01*
X105642857Y-90827380D02*
X105642857Y-89827380D01*
X105880952Y-89827380D01*
X106023809Y-89875000D01*
X106119047Y-89970238D01*
X106166666Y-90065476D01*
X106214285Y-90255952D01*
X106214285Y-90398809D01*
X106166666Y-90589285D01*
X106119047Y-90684523D01*
X106023809Y-90779761D01*
X105880952Y-90827380D01*
X105642857Y-90827380D01*
X99547619Y-92577380D02*
X98976190Y-92577380D01*
X99261904Y-92577380D02*
X99261904Y-91577380D01*
X99166666Y-91720238D01*
X99071428Y-91815476D01*
X98976190Y-91863095D01*
X100023809Y-92577380D02*
X100214285Y-92577380D01*
X100309523Y-92529761D01*
X100357142Y-92482142D01*
X100452380Y-92339285D01*
X100500000Y-92148809D01*
X100500000Y-91767857D01*
X100452380Y-91672619D01*
X100404761Y-91625000D01*
X100309523Y-91577380D01*
X100119047Y-91577380D01*
X100023809Y-91625000D01*
X99976190Y-91672619D01*
X99928571Y-91767857D01*
X99928571Y-92005952D01*
X99976190Y-92101190D01*
X100023809Y-92148809D01*
X100119047Y-92196428D01*
X100309523Y-92196428D01*
X100404761Y-92148809D01*
X100452380Y-92101190D01*
X100500000Y-92005952D01*
X100833333Y-91577380D02*
X101452380Y-91577380D01*
X101119047Y-91958333D01*
X101261904Y-91958333D01*
X101357142Y-92005952D01*
X101404761Y-92053571D01*
X101452380Y-92148809D01*
X101452380Y-92386904D01*
X101404761Y-92482142D01*
X101357142Y-92529761D01*
X101261904Y-92577380D01*
X100976190Y-92577380D01*
X100880952Y-92529761D01*
X100833333Y-92482142D01*
X102309523Y-91577380D02*
X102119047Y-91577380D01*
X102023809Y-91625000D01*
X101976190Y-91672619D01*
X101880952Y-91815476D01*
X101833333Y-92005952D01*
X101833333Y-92386904D01*
X101880952Y-92482142D01*
X101928571Y-92529761D01*
X102023809Y-92577380D01*
X102214285Y-92577380D01*
X102309523Y-92529761D01*
X102357142Y-92482142D01*
X102404761Y-92386904D01*
X102404761Y-92148809D01*
X102357142Y-92053571D01*
X102309523Y-92005952D01*
X102214285Y-91958333D01*
X102023809Y-91958333D01*
X101928571Y-92005952D01*
X101880952Y-92053571D01*
X101833333Y-92148809D01*
X102833333Y-92196428D02*
X103595238Y-92196428D01*
X104785714Y-92291666D02*
X105261904Y-92291666D01*
X104690476Y-92577380D02*
X105023809Y-91577380D01*
X105357142Y-92577380D01*
X105547619Y-91577380D02*
X106119047Y-91577380D01*
X105833333Y-92577380D02*
X105833333Y-91577380D01*
D12*
X84750000Y-116250000D02*
X90750000Y-116250000D01*
X90750000Y-109250000D02*
X84750000Y-109250000D01*
X90750000Y-116250000D02*
X90750000Y-109250000D01*
X84750000Y-116250000D02*
X84750000Y-109250000D01*
D13*
X96310000Y-90500000D02*
X95810000Y-90500000D01*
X96060000Y-90250000D02*
X96060000Y-90750000D01*
X93304437Y-90990000D02*
X92240000Y-92054437D01*
X95695563Y-90990000D02*
X96760000Y-92054437D01*
X95695563Y-90990000D02*
X95560000Y-90990000D01*
X93304437Y-90990000D02*
X93440000Y-90990000D01*
X92240000Y-92054437D02*
X92240000Y-95510000D01*
X96760000Y-92054437D02*
X96760000Y-95510000D01*
X96760000Y-95510000D02*
X95560000Y-95510000D01*
X92240000Y-95510000D02*
X93440000Y-95510000D01*
X89000000Y-69560000D02*
X89000000Y-69060000D01*
X89250000Y-69310000D02*
X88750000Y-69310000D01*
X88510000Y-66554437D02*
X87445563Y-65490000D01*
X88510000Y-68945563D02*
X87445563Y-70010000D01*
X88510000Y-68945563D02*
X88510000Y-68810000D01*
X88510000Y-66554437D02*
X88510000Y-66690000D01*
X87445563Y-65490000D02*
X83990000Y-65490000D01*
X87445563Y-70010000D02*
X83990000Y-70010000D01*
X83990000Y-70010000D02*
X83990000Y-68810000D01*
X83990000Y-65490000D02*
X83990000Y-66690000D01*
X88750000Y-86060000D02*
X88750000Y-85560000D01*
X89000000Y-85810000D02*
X88500000Y-85810000D01*
X88260000Y-83054437D02*
X87195563Y-81990000D01*
X88260000Y-85445563D02*
X87195563Y-86510000D01*
X88260000Y-85445563D02*
X88260000Y-85310000D01*
X88260000Y-83054437D02*
X88260000Y-83190000D01*
X87195563Y-81990000D02*
X83740000Y-81990000D01*
X87195563Y-86510000D02*
X83740000Y-86510000D01*
X83740000Y-86510000D02*
X83740000Y-85310000D01*
X83740000Y-81990000D02*
X83740000Y-83190000D01*
X103000000Y-106190000D02*
X103000000Y-106690000D01*
X102750000Y-106440000D02*
X103250000Y-106440000D01*
X103490000Y-109195563D02*
X104554437Y-110260000D01*
X103490000Y-106804437D02*
X104554437Y-105740000D01*
X103490000Y-106804437D02*
X103490000Y-106940000D01*
X103490000Y-109195563D02*
X103490000Y-109060000D01*
X104554437Y-110260000D02*
X108010000Y-110260000D01*
X104554437Y-105740000D02*
X108010000Y-105740000D01*
X108010000Y-105740000D02*
X108010000Y-106940000D01*
X108010000Y-110260000D02*
X108010000Y-109060000D01*
X111310000Y-111000000D02*
X110810000Y-111000000D01*
X111060000Y-110750000D02*
X111060000Y-111250000D01*
X108304437Y-111490000D02*
X107240000Y-112554437D01*
X110695563Y-111490000D02*
X111760000Y-112554437D01*
X110695563Y-111490000D02*
X110560000Y-111490000D01*
X108304437Y-111490000D02*
X108440000Y-111490000D01*
X107240000Y-112554437D02*
X107240000Y-116010000D01*
X111760000Y-112554437D02*
X111760000Y-116010000D01*
X111760000Y-116010000D02*
X110560000Y-116010000D01*
X107240000Y-116010000D02*
X108440000Y-116010000D01*
X104310000Y-110750000D02*
X103810000Y-110750000D01*
X104060000Y-110500000D02*
X104060000Y-111000000D01*
X101304437Y-111240000D02*
X100240000Y-112304437D01*
X103695563Y-111240000D02*
X104760000Y-112304437D01*
X103695563Y-111240000D02*
X103560000Y-111240000D01*
X101304437Y-111240000D02*
X101440000Y-111240000D01*
X100240000Y-112304437D02*
X100240000Y-115760000D01*
X104760000Y-112304437D02*
X104760000Y-115760000D01*
X104760000Y-115760000D02*
X103560000Y-115760000D01*
X100240000Y-115760000D02*
X101440000Y-115760000D01*
X127162779Y-105740000D02*
X126837221Y-105740000D01*
X127162779Y-106760000D02*
X126837221Y-106760000D01*
X88510000Y-73912779D02*
X88510000Y-73587221D01*
X87490000Y-73912779D02*
X87490000Y-73587221D01*
X85010000Y-73912779D02*
X85010000Y-73587221D01*
X83990000Y-73912779D02*
X83990000Y-73587221D01*
X94990000Y-64587221D02*
X94990000Y-64912779D01*
X96010000Y-64587221D02*
X96010000Y-64912779D01*
X110490000Y-62587221D02*
X110490000Y-62912779D01*
X111510000Y-62587221D02*
X111510000Y-62912779D01*
X108337221Y-66510000D02*
X108662779Y-66510000D01*
X108337221Y-65490000D02*
X108662779Y-65490000D01*
X97760000Y-64587221D02*
X97760000Y-64912779D01*
X96740000Y-64587221D02*
X96740000Y-64912779D01*
X119337221Y-106510000D02*
X119662779Y-106510000D01*
X119337221Y-105490000D02*
X119662779Y-105490000D01*
X105250000Y-93440000D02*
X105250000Y-93940000D01*
X105000000Y-93690000D02*
X105500000Y-93690000D01*
X105740000Y-96445563D02*
X106804437Y-97510000D01*
X105740000Y-94054437D02*
X106804437Y-92990000D01*
X105740000Y-94054437D02*
X105740000Y-94190000D01*
X105740000Y-96445563D02*
X105740000Y-96310000D01*
X106804437Y-97510000D02*
X110260000Y-97510000D01*
X106804437Y-92990000D02*
X110260000Y-92990000D01*
X110260000Y-92990000D02*
X110260000Y-94190000D01*
X110260000Y-97510000D02*
X110260000Y-96310000D01*
X110560000Y-99250000D02*
X110060000Y-99250000D01*
X110310000Y-99000000D02*
X110310000Y-99500000D01*
X107554437Y-99740000D02*
X106490000Y-100804437D01*
X109945563Y-99740000D02*
X111010000Y-100804437D01*
X109945563Y-99740000D02*
X109810000Y-99740000D01*
X107554437Y-99740000D02*
X107690000Y-99740000D01*
X106490000Y-100804437D02*
X106490000Y-104260000D01*
X111010000Y-100804437D02*
X111010000Y-104260000D01*
X111010000Y-104260000D02*
X109810000Y-104260000D01*
X106490000Y-104260000D02*
X107690000Y-104260000D01*
X90062500Y-63997500D02*
X90062500Y-63372500D01*
X90375000Y-63685000D02*
X89750000Y-63685000D01*
X89510000Y-60304437D02*
X88445563Y-59240000D01*
X89510000Y-63695563D02*
X88445563Y-64760000D01*
X89510000Y-63695563D02*
X89510000Y-63060000D01*
X89510000Y-60304437D02*
X89510000Y-60940000D01*
X88445563Y-59240000D02*
X83990000Y-59240000D01*
X88445563Y-64760000D02*
X83990000Y-64760000D01*
X83990000Y-64760000D02*
X83990000Y-63060000D01*
X83990000Y-59240000D02*
X83990000Y-60940000D01*
X97800000Y-106050000D02*
X95750000Y-106050000D01*
X97800000Y-98950000D02*
X97800000Y-106050000D01*
X95750000Y-98950000D02*
X97800000Y-98950000D01*
X90700000Y-106050000D02*
X92750000Y-106050000D01*
X90700000Y-98950000D02*
X90700000Y-106050000D01*
X92750000Y-98950000D02*
X90700000Y-98950000D01*
X118900000Y-84250000D02*
X118900000Y-80750000D01*
X114100000Y-81750000D02*
X114100000Y-83750000D01*
X104000000Y-83450000D02*
X104000000Y-85050000D01*
X91000000Y-83450000D02*
X91000000Y-85050000D01*
X104000000Y-77450000D02*
X104000000Y-79050000D01*
X91000000Y-77450000D02*
X91000000Y-79050000D01*
X99700000Y-88230000D02*
X101300000Y-88230000D01*
X99700000Y-74270000D02*
X101300000Y-74270000D01*
X93700000Y-88230000D02*
X95300000Y-88230000D01*
X93700000Y-74270000D02*
X95300000Y-74270000D01*
X125700000Y-98750000D02*
X127300000Y-98750000D01*
X125700000Y-111750000D02*
X127300000Y-111750000D01*
X119700000Y-98750000D02*
X121300000Y-98750000D01*
X119700000Y-111750000D02*
X121300000Y-111750000D01*
X130480000Y-103050000D02*
X130480000Y-101450000D01*
X116520000Y-103050000D02*
X116520000Y-101450000D01*
X130480000Y-109050000D02*
X130480000Y-107450000D01*
X116520000Y-109050000D02*
X116520000Y-107450000D01*
X129500000Y-89950000D02*
X129500000Y-91550000D01*
X112700000Y-89950000D02*
X112700000Y-91550000D01*
X129500000Y-83950000D02*
X129500000Y-85550000D01*
X112700000Y-83950000D02*
X112700000Y-85550000D01*
X123300000Y-96150000D02*
X124900000Y-96150000D01*
X123300000Y-79350000D02*
X124900000Y-79350000D01*
X117300000Y-96150000D02*
X118900000Y-96150000D01*
X117300000Y-79350000D02*
X118900000Y-79350000D01*
X122650000Y-70450000D02*
X122650000Y-72050000D01*
X105850000Y-70450000D02*
X105850000Y-72050000D01*
X122650000Y-64450000D02*
X122650000Y-66050000D01*
X105850000Y-64450000D02*
X105850000Y-66050000D01*
X116450000Y-76650000D02*
X118050000Y-76650000D01*
X116450000Y-59850000D02*
X118050000Y-59850000D01*
X110450000Y-76650000D02*
X112050000Y-76650000D01*
X110450000Y-59850000D02*
X112050000Y-59850000D01*
X122410000Y-90610000D02*
X123110000Y-90610000D01*
X118890000Y-86390000D02*
X118890000Y-87090000D01*
X119590000Y-86390000D02*
X118890000Y-86390000D01*
X123110000Y-86390000D02*
X123110000Y-87090000D01*
X122410000Y-86390000D02*
X123110000Y-86390000D01*
X118890000Y-90610000D02*
X118890000Y-89910000D01*
X119590000Y-90610000D02*
X118890000Y-90610000D01*
X124360000Y-106750000D02*
X124360000Y-103750000D01*
X122140000Y-105250000D02*
X122140000Y-103750000D01*
X113750000Y-98880000D02*
X115080000Y-98880000D01*
X115080000Y-98880000D02*
X115080000Y-100210000D01*
X115080000Y-101480000D02*
X115080000Y-111700000D01*
X112420000Y-111700000D02*
X115080000Y-111700000D01*
X112420000Y-101480000D02*
X112420000Y-111700000D01*
X112420000Y-101480000D02*
X115080000Y-101480000D01*
X92600000Y-77500000D02*
X92600000Y-81500000D01*
X95900000Y-77500000D02*
X92600000Y-77500000D01*
X85600000Y-79110000D02*
X88050000Y-79110000D01*
X87400000Y-75890000D02*
X85600000Y-75890000D01*
X94087221Y-85010000D02*
X94412779Y-85010000D01*
X94087221Y-83990000D02*
X94412779Y-83990000D01*
X94087221Y-86760000D02*
X94412779Y-86760000D01*
X94087221Y-85740000D02*
X94412779Y-85740000D01*
X98490000Y-64587221D02*
X98490000Y-64912779D01*
X99510000Y-64587221D02*
X99510000Y-64912779D01*
X86760000Y-73912779D02*
X86760000Y-73587221D01*
X85740000Y-73912779D02*
X85740000Y-73587221D01*
X96990000Y-76587221D02*
X96990000Y-76912779D01*
X98010000Y-76587221D02*
X98010000Y-76912779D01*
X99760000Y-76912779D02*
X99760000Y-76587221D01*
X98740000Y-76912779D02*
X98740000Y-76587221D01*
X94412779Y-75740000D02*
X94087221Y-75740000D01*
X94412779Y-76760000D02*
X94087221Y-76760000D01*
X94087221Y-83260000D02*
X94412779Y-83260000D01*
X94087221Y-82240000D02*
X94412779Y-82240000D01*
X109700000Y-85000000D02*
G75*
G03X109700000Y-85000000I-700000J0D01*
G01*
X108700000Y-87000000D02*
G75*
G03X108700000Y-87000000I-700000J0D01*
G01*
X111200000Y-87000000D02*
G75*
G03X111200000Y-87000000I-700000J0D01*
G01*
X111200000Y-89250000D02*
G75*
G03X111200000Y-89250000I-700000J0D01*
G01*
D14*
X99550000Y-80400000D02*
X99550000Y-79200000D01*
X99850000Y-80700000D02*
X99550000Y-80400000D01*
X96650000Y-80400000D02*
X96950000Y-80400000D01*
X96650000Y-80700000D02*
X96650000Y-80400000D01*
X96650000Y-83600000D02*
X96650000Y-83300000D01*
X96950000Y-83600000D02*
X96650000Y-83600000D01*
X99850000Y-83600000D02*
X99550000Y-83600000D01*
X99850000Y-83300000D02*
X99850000Y-83600000D01*
D13*
X83900000Y-118500000D02*
X92000000Y-118500000D01*
X92000000Y-121500000D02*
X83900000Y-121500000D01*
X83900000Y-118500000D02*
X83900000Y-121500000D01*
X92000000Y-121500000D02*
X92000000Y-118500000D01*
X84780000Y-88892779D02*
X84780000Y-88567221D01*
X83760000Y-88892779D02*
X83760000Y-88567221D01*
X86510000Y-88912779D02*
X86510000Y-88587221D01*
X85490000Y-88912779D02*
X85490000Y-88587221D01*
X83490000Y-103837221D02*
X83490000Y-104162779D01*
X84510000Y-103837221D02*
X84510000Y-104162779D01*
X99837221Y-108510000D02*
X100162779Y-108510000D01*
X99837221Y-107490000D02*
X100162779Y-107490000D01*
X99758750Y-105543750D02*
X100546250Y-105543750D01*
X100152500Y-105937500D02*
X100152500Y-105150000D01*
X104345563Y-104910000D02*
X105410000Y-103845563D01*
X99654437Y-104910000D02*
X98590000Y-103845563D01*
X99654437Y-104910000D02*
X100940000Y-104910000D01*
X104345563Y-104910000D02*
X103060000Y-104910000D01*
X105410000Y-103845563D02*
X105410000Y-98090000D01*
X98590000Y-103845563D02*
X98590000Y-98090000D01*
X98590000Y-98090000D02*
X100940000Y-98090000D01*
X105410000Y-98090000D02*
X103060000Y-98090000D01*
X97991250Y-108206250D02*
X97203750Y-108206250D01*
X97597500Y-107812500D02*
X97597500Y-108600000D01*
X93404437Y-108840000D02*
X92340000Y-109904437D01*
X98095563Y-108840000D02*
X99160000Y-109904437D01*
X98095563Y-108840000D02*
X96810000Y-108840000D01*
X93404437Y-108840000D02*
X94690000Y-108840000D01*
X92340000Y-109904437D02*
X92340000Y-115660000D01*
X99160000Y-109904437D02*
X99160000Y-115660000D01*
X99160000Y-115660000D02*
X96810000Y-115660000D01*
X92340000Y-115660000D02*
X94690000Y-115660000D01*
X119912779Y-108740000D02*
X119587221Y-108740000D01*
X119912779Y-109760000D02*
X119587221Y-109760000D01*
X119912779Y-100740000D02*
X119587221Y-100740000D01*
X119912779Y-101760000D02*
X119587221Y-101760000D01*
X86140000Y-103350000D02*
X86140000Y-105800000D01*
X89360000Y-105150000D02*
X89360000Y-103350000D01*
X84912779Y-98240000D02*
X84587221Y-98240000D01*
X84912779Y-99260000D02*
X84587221Y-99260000D01*
X84912779Y-100490000D02*
X84587221Y-100490000D01*
X84912779Y-101510000D02*
X84587221Y-101510000D01*
X84587221Y-97510000D02*
X84912779Y-97510000D01*
X84587221Y-96490000D02*
X84912779Y-96490000D01*
X127162779Y-103740000D02*
X126837221Y-103740000D01*
X127162779Y-104760000D02*
X126837221Y-104760000D01*
D12*
X84925000Y-90725000D02*
X83525000Y-90725000D01*
X84925000Y-95825000D02*
X89075000Y-95825000D01*
X84925000Y-90675000D02*
X89075000Y-90675000D01*
X84925000Y-95825000D02*
X84925000Y-95680000D01*
X89075000Y-95825000D02*
X89075000Y-95680000D01*
X89075000Y-90675000D02*
X89075000Y-90820000D01*
X84925000Y-90675000D02*
X84925000Y-90725000D01*
D13*
X117790000Y-62741422D02*
X117790000Y-63258578D01*
X119210000Y-62741422D02*
X119210000Y-63258578D01*
X125260000Y-101337221D02*
X125260000Y-101662779D01*
X124240000Y-101337221D02*
X124240000Y-101662779D01*
X122240000Y-101337221D02*
X122240000Y-101662779D01*
X123260000Y-101337221D02*
X123260000Y-101662779D01*
X126837221Y-85990000D02*
X127162779Y-85990000D01*
X126837221Y-87010000D02*
X127162779Y-87010000D01*
X108662779Y-68240000D02*
X108337221Y-68240000D01*
X108662779Y-69260000D02*
X108337221Y-69260000D01*
X119740000Y-82162779D02*
X119740000Y-81837221D01*
X120760000Y-82162779D02*
X120760000Y-81837221D01*
X119412779Y-70240000D02*
X119087221Y-70240000D01*
X119412779Y-71260000D02*
X119087221Y-71260000D01*
X108337221Y-63490000D02*
X108662779Y-63490000D01*
X108337221Y-64510000D02*
X108662779Y-64510000D01*
X119990000Y-63162779D02*
X119990000Y-62837221D01*
X121010000Y-63162779D02*
X121010000Y-62837221D01*
X126837221Y-87740000D02*
X127162779Y-87740000D01*
X126837221Y-88760000D02*
X127162779Y-88760000D01*
X123240000Y-93337221D02*
X123240000Y-93662779D01*
X124260000Y-93337221D02*
X124260000Y-93662779D01*
X126260000Y-93337221D02*
X126260000Y-93662779D01*
X125240000Y-93337221D02*
X125240000Y-93662779D01*
X128010000Y-93337221D02*
X128010000Y-93662779D01*
X126990000Y-93337221D02*
X126990000Y-93662779D01*
X112240000Y-62587221D02*
X112240000Y-62912779D01*
X113260000Y-62587221D02*
X113260000Y-62912779D01*
X119490000Y-93337221D02*
X119490000Y-93662779D01*
X120510000Y-93337221D02*
X120510000Y-93662779D01*
X118760000Y-93352221D02*
X118760000Y-93677779D01*
X117740000Y-93352221D02*
X117740000Y-93677779D01*
X115740000Y-93337221D02*
X115740000Y-93662779D01*
X116760000Y-93337221D02*
X116760000Y-93662779D01*
X115010000Y-93337221D02*
X115010000Y-93662779D01*
X113990000Y-93337221D02*
X113990000Y-93662779D01*
X119337221Y-104760000D02*
X119662779Y-104760000D01*
X119337221Y-103740000D02*
X119662779Y-103740000D01*
X124240000Y-109162779D02*
X124240000Y-108837221D01*
X125260000Y-109162779D02*
X125260000Y-108837221D01*
X121490000Y-93337221D02*
X121490000Y-93662779D01*
X122510000Y-93337221D02*
X122510000Y-93662779D01*
X117337221Y-114240000D02*
X117662779Y-114240000D01*
X117337221Y-115260000D02*
X117662779Y-115260000D01*
X120587221Y-115260000D02*
X120912779Y-115260000D01*
X120587221Y-114240000D02*
X120912779Y-114240000D01*
X127260000Y-109162779D02*
X127260000Y-108837221D01*
X126240000Y-109162779D02*
X126240000Y-108837221D01*
X95010000Y-60412779D02*
X95010000Y-60087221D01*
X93990000Y-60412779D02*
X93990000Y-60087221D01*
X92240000Y-60412779D02*
X92240000Y-60087221D01*
X93260000Y-60412779D02*
X93260000Y-60087221D01*
X126240000Y-101337221D02*
X126240000Y-101662779D01*
X127260000Y-101337221D02*
X127260000Y-101662779D01*
X123260000Y-109162779D02*
X123260000Y-108837221D01*
X122240000Y-109162779D02*
X122240000Y-108837221D01*
X116810000Y-62912779D02*
X116810000Y-62587221D01*
X115790000Y-62912779D02*
X115790000Y-62587221D01*
X113990000Y-62587221D02*
X113990000Y-62912779D01*
X115010000Y-62587221D02*
X115010000Y-62912779D01*
X119087221Y-66240000D02*
X119412779Y-66240000D01*
X119087221Y-67260000D02*
X119412779Y-67260000D01*
X120912779Y-117260000D02*
X120587221Y-117260000D01*
X120912779Y-116240000D02*
X120587221Y-116240000D01*
X117662779Y-116240000D02*
X117337221Y-116240000D01*
X117662779Y-117260000D02*
X117337221Y-117260000D01*
X119087221Y-68240000D02*
X119412779Y-68240000D01*
X119087221Y-69260000D02*
X119412779Y-69260000D01*
X125040000Y-71000000D02*
X125540000Y-70750000D01*
X125040000Y-70500000D02*
X125040000Y-71000000D01*
X125540000Y-70750000D02*
X125040000Y-70500000D01*
X108450000Y-82750000D02*
G75*
G03X108450000Y-82750000I-700000J0D01*
G01*
X125450000Y-77500000D02*
G75*
G03X125450000Y-77500000I-700000J0D01*
G01*
X96350000Y-70110000D02*
X98150000Y-70110000D01*
X98150000Y-66890000D02*
X95700000Y-66890000D01*
X114150000Y-65890000D02*
X112350000Y-65890000D01*
X112350000Y-69110000D02*
X115300000Y-69110000D01*
X115840000Y-118670000D02*
X115840000Y-121330000D01*
X120980000Y-118670000D02*
X115840000Y-118670000D01*
X120980000Y-121330000D02*
X115840000Y-121330000D01*
X120980000Y-118670000D02*
X120980000Y-121330000D01*
X122250000Y-118670000D02*
X123580000Y-118670000D01*
X123580000Y-118670000D02*
X123580000Y-120000000D01*
D12*
X114900000Y-70850000D02*
X113100000Y-70850000D01*
X114900000Y-74650000D02*
X114900000Y-70850000D01*
X113100000Y-74650000D02*
X114900000Y-74650000D01*
X113100000Y-70850000D02*
X113100000Y-74650000D01*
X83011904Y-117178571D02*
X82678571Y-117178571D01*
X82678571Y-117702380D02*
X82678571Y-116702380D01*
X83154761Y-116702380D01*
X84011904Y-117702380D02*
X83535714Y-117702380D01*
X83535714Y-116702380D01*
X84869047Y-117702380D02*
X84297619Y-117702380D01*
X84583333Y-117702380D02*
X84583333Y-116702380D01*
X84488095Y-116845238D01*
X84392857Y-116940476D01*
X84297619Y-116988095D01*
X98057142Y-93892857D02*
X98104761Y-93940476D01*
X98152380Y-94083333D01*
X98152380Y-94178571D01*
X98104761Y-94321428D01*
X98009523Y-94416666D01*
X97914285Y-94464285D01*
X97723809Y-94511904D01*
X97580952Y-94511904D01*
X97390476Y-94464285D01*
X97295238Y-94416666D01*
X97200000Y-94321428D01*
X97152380Y-94178571D01*
X97152380Y-94083333D01*
X97200000Y-93940476D01*
X97247619Y-93892857D01*
X97152380Y-92988095D02*
X97152380Y-93464285D01*
X97628571Y-93511904D01*
X97580952Y-93464285D01*
X97533333Y-93369047D01*
X97533333Y-93130952D01*
X97580952Y-93035714D01*
X97628571Y-92988095D01*
X97723809Y-92940476D01*
X97961904Y-92940476D01*
X98057142Y-92988095D01*
X98104761Y-93035714D01*
X98152380Y-93130952D01*
X98152380Y-93369047D01*
X98104761Y-93464285D01*
X98057142Y-93511904D01*
X97580952Y-92369047D02*
X97533333Y-92464285D01*
X97485714Y-92511904D01*
X97390476Y-92559523D01*
X97342857Y-92559523D01*
X97247619Y-92511904D01*
X97200000Y-92464285D01*
X97152380Y-92369047D01*
X97152380Y-92178571D01*
X97200000Y-92083333D01*
X97247619Y-92035714D01*
X97342857Y-91988095D01*
X97390476Y-91988095D01*
X97485714Y-92035714D01*
X97533333Y-92083333D01*
X97580952Y-92178571D01*
X97580952Y-92369047D01*
X97628571Y-92464285D01*
X97676190Y-92511904D01*
X97771428Y-92559523D01*
X97961904Y-92559523D01*
X98057142Y-92511904D01*
X98104761Y-92464285D01*
X98152380Y-92369047D01*
X98152380Y-92178571D01*
X98104761Y-92083333D01*
X98057142Y-92035714D01*
X97961904Y-91988095D01*
X97771428Y-91988095D01*
X97676190Y-92035714D01*
X97628571Y-92083333D01*
X97580952Y-92178571D01*
X90857142Y-68392857D02*
X90904761Y-68440476D01*
X90952380Y-68583333D01*
X90952380Y-68678571D01*
X90904761Y-68821428D01*
X90809523Y-68916666D01*
X90714285Y-68964285D01*
X90523809Y-69011904D01*
X90380952Y-69011904D01*
X90190476Y-68964285D01*
X90095238Y-68916666D01*
X90000000Y-68821428D01*
X89952380Y-68678571D01*
X89952380Y-68583333D01*
X90000000Y-68440476D01*
X90047619Y-68392857D01*
X89952380Y-67488095D02*
X89952380Y-67964285D01*
X90428571Y-68011904D01*
X90380952Y-67964285D01*
X90333333Y-67869047D01*
X90333333Y-67630952D01*
X90380952Y-67535714D01*
X90428571Y-67488095D01*
X90523809Y-67440476D01*
X90761904Y-67440476D01*
X90857142Y-67488095D01*
X90904761Y-67535714D01*
X90952380Y-67630952D01*
X90952380Y-67869047D01*
X90904761Y-67964285D01*
X90857142Y-68011904D01*
X89952380Y-66583333D02*
X89952380Y-66773809D01*
X90000000Y-66869047D01*
X90047619Y-66916666D01*
X90190476Y-67011904D01*
X90380952Y-67059523D01*
X90761904Y-67059523D01*
X90857142Y-67011904D01*
X90904761Y-66964285D01*
X90952380Y-66869047D01*
X90952380Y-66678571D01*
X90904761Y-66583333D01*
X90857142Y-66535714D01*
X90761904Y-66488095D01*
X90523809Y-66488095D01*
X90428571Y-66535714D01*
X90380952Y-66583333D01*
X90333333Y-66678571D01*
X90333333Y-66869047D01*
X90380952Y-66964285D01*
X90428571Y-67011904D01*
X90523809Y-67059523D01*
X82857142Y-81607142D02*
X82809523Y-81654761D01*
X82666666Y-81702380D01*
X82571428Y-81702380D01*
X82428571Y-81654761D01*
X82333333Y-81559523D01*
X82285714Y-81464285D01*
X82238095Y-81273809D01*
X82238095Y-81130952D01*
X82285714Y-80940476D01*
X82333333Y-80845238D01*
X82428571Y-80750000D01*
X82571428Y-80702380D01*
X82666666Y-80702380D01*
X82809523Y-80750000D01*
X82857142Y-80797619D01*
X83761904Y-80702380D02*
X83285714Y-80702380D01*
X83238095Y-81178571D01*
X83285714Y-81130952D01*
X83380952Y-81083333D01*
X83619047Y-81083333D01*
X83714285Y-81130952D01*
X83761904Y-81178571D01*
X83809523Y-81273809D01*
X83809523Y-81511904D01*
X83761904Y-81607142D01*
X83714285Y-81654761D01*
X83619047Y-81702380D01*
X83380952Y-81702380D01*
X83285714Y-81654761D01*
X83238095Y-81607142D01*
X84714285Y-80702380D02*
X84238095Y-80702380D01*
X84190476Y-81178571D01*
X84238095Y-81130952D01*
X84333333Y-81083333D01*
X84571428Y-81083333D01*
X84666666Y-81130952D01*
X84714285Y-81178571D01*
X84761904Y-81273809D01*
X84761904Y-81511904D01*
X84714285Y-81607142D01*
X84666666Y-81654761D01*
X84571428Y-81702380D01*
X84333333Y-81702380D01*
X84238095Y-81654761D01*
X84190476Y-81607142D01*
X110357142Y-108642857D02*
X110404761Y-108690476D01*
X110452380Y-108833333D01*
X110452380Y-108928571D01*
X110404761Y-109071428D01*
X110309523Y-109166666D01*
X110214285Y-109214285D01*
X110023809Y-109261904D01*
X109880952Y-109261904D01*
X109690476Y-109214285D01*
X109595238Y-109166666D01*
X109500000Y-109071428D01*
X109452380Y-108928571D01*
X109452380Y-108833333D01*
X109500000Y-108690476D01*
X109547619Y-108642857D01*
X109547619Y-108261904D02*
X109500000Y-108214285D01*
X109452380Y-108119047D01*
X109452380Y-107880952D01*
X109500000Y-107785714D01*
X109547619Y-107738095D01*
X109642857Y-107690476D01*
X109738095Y-107690476D01*
X109880952Y-107738095D01*
X110452380Y-108309523D01*
X110452380Y-107690476D01*
X109452380Y-107357142D02*
X109452380Y-106738095D01*
X109833333Y-107071428D01*
X109833333Y-106928571D01*
X109880952Y-106833333D01*
X109928571Y-106785714D01*
X110023809Y-106738095D01*
X110261904Y-106738095D01*
X110357142Y-106785714D01*
X110404761Y-106833333D01*
X110452380Y-106928571D01*
X110452380Y-107214285D01*
X110404761Y-107309523D01*
X110357142Y-107357142D01*
X113057142Y-114392857D02*
X113104761Y-114440476D01*
X113152380Y-114583333D01*
X113152380Y-114678571D01*
X113104761Y-114821428D01*
X113009523Y-114916666D01*
X112914285Y-114964285D01*
X112723809Y-115011904D01*
X112580952Y-115011904D01*
X112390476Y-114964285D01*
X112295238Y-114916666D01*
X112200000Y-114821428D01*
X112152380Y-114678571D01*
X112152380Y-114583333D01*
X112200000Y-114440476D01*
X112247619Y-114392857D01*
X112247619Y-114011904D02*
X112200000Y-113964285D01*
X112152380Y-113869047D01*
X112152380Y-113630952D01*
X112200000Y-113535714D01*
X112247619Y-113488095D01*
X112342857Y-113440476D01*
X112438095Y-113440476D01*
X112580952Y-113488095D01*
X113152380Y-114059523D01*
X113152380Y-113440476D01*
X112247619Y-113059523D02*
X112200000Y-113011904D01*
X112152380Y-112916666D01*
X112152380Y-112678571D01*
X112200000Y-112583333D01*
X112247619Y-112535714D01*
X112342857Y-112488095D01*
X112438095Y-112488095D01*
X112580952Y-112535714D01*
X113152380Y-113107142D01*
X113152380Y-112488095D01*
X106057142Y-114142857D02*
X106104761Y-114190476D01*
X106152380Y-114333333D01*
X106152380Y-114428571D01*
X106104761Y-114571428D01*
X106009523Y-114666666D01*
X105914285Y-114714285D01*
X105723809Y-114761904D01*
X105580952Y-114761904D01*
X105390476Y-114714285D01*
X105295238Y-114666666D01*
X105200000Y-114571428D01*
X105152380Y-114428571D01*
X105152380Y-114333333D01*
X105200000Y-114190476D01*
X105247619Y-114142857D01*
X106152380Y-113190476D02*
X106152380Y-113761904D01*
X106152380Y-113476190D02*
X105152380Y-113476190D01*
X105295238Y-113571428D01*
X105390476Y-113666666D01*
X105438095Y-113761904D01*
X105152380Y-112571428D02*
X105152380Y-112476190D01*
X105200000Y-112380952D01*
X105247619Y-112333333D01*
X105342857Y-112285714D01*
X105533333Y-112238095D01*
X105771428Y-112238095D01*
X105961904Y-112285714D01*
X106057142Y-112333333D01*
X106104761Y-112380952D01*
X106152380Y-112476190D01*
X106152380Y-112571428D01*
X106104761Y-112666666D01*
X106057142Y-112714285D01*
X105961904Y-112761904D01*
X105771428Y-112809523D01*
X105533333Y-112809523D01*
X105342857Y-112761904D01*
X105247619Y-112714285D01*
X105200000Y-112666666D01*
X105152380Y-112571428D01*
X89857142Y-74392857D02*
X89904761Y-74440476D01*
X89952380Y-74583333D01*
X89952380Y-74678571D01*
X89904761Y-74821428D01*
X89809523Y-74916666D01*
X89714285Y-74964285D01*
X89523809Y-75011904D01*
X89380952Y-75011904D01*
X89190476Y-74964285D01*
X89095238Y-74916666D01*
X89000000Y-74821428D01*
X88952380Y-74678571D01*
X88952380Y-74583333D01*
X89000000Y-74440476D01*
X89047619Y-74392857D01*
X89952380Y-73440476D02*
X89952380Y-74011904D01*
X89952380Y-73726190D02*
X88952380Y-73726190D01*
X89095238Y-73821428D01*
X89190476Y-73916666D01*
X89238095Y-74011904D01*
X89380952Y-72869047D02*
X89333333Y-72964285D01*
X89285714Y-73011904D01*
X89190476Y-73059523D01*
X89142857Y-73059523D01*
X89047619Y-73011904D01*
X89000000Y-72964285D01*
X88952380Y-72869047D01*
X88952380Y-72678571D01*
X89000000Y-72583333D01*
X89047619Y-72535714D01*
X89142857Y-72488095D01*
X89190476Y-72488095D01*
X89285714Y-72535714D01*
X89333333Y-72583333D01*
X89380952Y-72678571D01*
X89380952Y-72869047D01*
X89428571Y-72964285D01*
X89476190Y-73011904D01*
X89571428Y-73059523D01*
X89761904Y-73059523D01*
X89857142Y-73011904D01*
X89904761Y-72964285D01*
X89952380Y-72869047D01*
X89952380Y-72678571D01*
X89904761Y-72583333D01*
X89857142Y-72535714D01*
X89761904Y-72488095D01*
X89571428Y-72488095D01*
X89476190Y-72535714D01*
X89428571Y-72583333D01*
X89380952Y-72678571D01*
X83427142Y-74392857D02*
X83474761Y-74440476D01*
X83522380Y-74583333D01*
X83522380Y-74678571D01*
X83474761Y-74821428D01*
X83379523Y-74916666D01*
X83284285Y-74964285D01*
X83093809Y-75011904D01*
X82950952Y-75011904D01*
X82760476Y-74964285D01*
X82665238Y-74916666D01*
X82570000Y-74821428D01*
X82522380Y-74678571D01*
X82522380Y-74583333D01*
X82570000Y-74440476D01*
X82617619Y-74392857D01*
X83522380Y-73440476D02*
X83522380Y-74011904D01*
X83522380Y-73726190D02*
X82522380Y-73726190D01*
X82665238Y-73821428D01*
X82760476Y-73916666D01*
X82808095Y-74011904D01*
X83522380Y-72964285D02*
X83522380Y-72773809D01*
X83474761Y-72678571D01*
X83427142Y-72630952D01*
X83284285Y-72535714D01*
X83093809Y-72488095D01*
X82712857Y-72488095D01*
X82617619Y-72535714D01*
X82570000Y-72583333D01*
X82522380Y-72678571D01*
X82522380Y-72869047D01*
X82570000Y-72964285D01*
X82617619Y-73011904D01*
X82712857Y-73059523D01*
X82950952Y-73059523D01*
X83046190Y-73011904D01*
X83093809Y-72964285D01*
X83141428Y-72869047D01*
X83141428Y-72678571D01*
X83093809Y-72583333D01*
X83046190Y-72535714D01*
X82950952Y-72488095D01*
X94607142Y-65392857D02*
X94654761Y-65440476D01*
X94702380Y-65583333D01*
X94702380Y-65678571D01*
X94654761Y-65821428D01*
X94559523Y-65916666D01*
X94464285Y-65964285D01*
X94273809Y-66011904D01*
X94130952Y-66011904D01*
X93940476Y-65964285D01*
X93845238Y-65916666D01*
X93750000Y-65821428D01*
X93702380Y-65678571D01*
X93702380Y-65583333D01*
X93750000Y-65440476D01*
X93797619Y-65392857D01*
X94035714Y-64535714D02*
X94702380Y-64535714D01*
X93654761Y-64773809D02*
X94369047Y-65011904D01*
X94369047Y-64392857D01*
X94035714Y-63583333D02*
X94702380Y-63583333D01*
X93654761Y-63821428D02*
X94369047Y-64059523D01*
X94369047Y-63440476D01*
X96607142Y-62857142D02*
X96559523Y-62904761D01*
X96416666Y-62952380D01*
X96321428Y-62952380D01*
X96178571Y-62904761D01*
X96083333Y-62809523D01*
X96035714Y-62714285D01*
X95988095Y-62523809D01*
X95988095Y-62380952D01*
X96035714Y-62190476D01*
X96083333Y-62095238D01*
X96178571Y-62000000D01*
X96321428Y-61952380D01*
X96416666Y-61952380D01*
X96559523Y-62000000D01*
X96607142Y-62047619D01*
X97511904Y-61952380D02*
X97035714Y-61952380D01*
X96988095Y-62428571D01*
X97035714Y-62380952D01*
X97130952Y-62333333D01*
X97369047Y-62333333D01*
X97464285Y-62380952D01*
X97511904Y-62428571D01*
X97559523Y-62523809D01*
X97559523Y-62761904D01*
X97511904Y-62857142D01*
X97464285Y-62904761D01*
X97369047Y-62952380D01*
X97130952Y-62952380D01*
X97035714Y-62904761D01*
X96988095Y-62857142D01*
X98178571Y-61952380D02*
X98273809Y-61952380D01*
X98369047Y-62000000D01*
X98416666Y-62047619D01*
X98464285Y-62142857D01*
X98511904Y-62333333D01*
X98511904Y-62571428D01*
X98464285Y-62761904D01*
X98416666Y-62857142D01*
X98369047Y-62904761D01*
X98273809Y-62952380D01*
X98178571Y-62952380D01*
X98083333Y-62904761D01*
X98035714Y-62857142D01*
X97988095Y-62761904D01*
X97940476Y-62571428D01*
X97940476Y-62333333D01*
X97988095Y-62142857D01*
X98035714Y-62047619D01*
X98083333Y-62000000D01*
X98178571Y-61952380D01*
X107833333Y-92357142D02*
X107785714Y-92404761D01*
X107642857Y-92452380D01*
X107547619Y-92452380D01*
X107404761Y-92404761D01*
X107309523Y-92309523D01*
X107261904Y-92214285D01*
X107214285Y-92023809D01*
X107214285Y-91880952D01*
X107261904Y-91690476D01*
X107309523Y-91595238D01*
X107404761Y-91500000D01*
X107547619Y-91452380D01*
X107642857Y-91452380D01*
X107785714Y-91500000D01*
X107833333Y-91547619D01*
X108309523Y-92452380D02*
X108500000Y-92452380D01*
X108595238Y-92404761D01*
X108642857Y-92357142D01*
X108738095Y-92214285D01*
X108785714Y-92023809D01*
X108785714Y-91642857D01*
X108738095Y-91547619D01*
X108690476Y-91500000D01*
X108595238Y-91452380D01*
X108404761Y-91452380D01*
X108309523Y-91500000D01*
X108261904Y-91547619D01*
X108214285Y-91642857D01*
X108214285Y-91880952D01*
X108261904Y-91976190D01*
X108309523Y-92023809D01*
X108404761Y-92071428D01*
X108595238Y-92071428D01*
X108690476Y-92023809D01*
X108738095Y-91976190D01*
X108785714Y-91880952D01*
X110583333Y-105607142D02*
X110535714Y-105654761D01*
X110392857Y-105702380D01*
X110297619Y-105702380D01*
X110154761Y-105654761D01*
X110059523Y-105559523D01*
X110011904Y-105464285D01*
X109964285Y-105273809D01*
X109964285Y-105130952D01*
X110011904Y-104940476D01*
X110059523Y-104845238D01*
X110154761Y-104750000D01*
X110297619Y-104702380D01*
X110392857Y-104702380D01*
X110535714Y-104750000D01*
X110583333Y-104797619D01*
X110916666Y-104702380D02*
X111583333Y-104702380D01*
X111154761Y-105702380D01*
X89607142Y-59357142D02*
X89559523Y-59404761D01*
X89416666Y-59452380D01*
X89321428Y-59452380D01*
X89178571Y-59404761D01*
X89083333Y-59309523D01*
X89035714Y-59214285D01*
X88988095Y-59023809D01*
X88988095Y-58880952D01*
X89035714Y-58690476D01*
X89083333Y-58595238D01*
X89178571Y-58500000D01*
X89321428Y-58452380D01*
X89416666Y-58452380D01*
X89559523Y-58500000D01*
X89607142Y-58547619D01*
X90511904Y-58452380D02*
X90035714Y-58452380D01*
X89988095Y-58928571D01*
X90035714Y-58880952D01*
X90130952Y-58833333D01*
X90369047Y-58833333D01*
X90464285Y-58880952D01*
X90511904Y-58928571D01*
X90559523Y-59023809D01*
X90559523Y-59261904D01*
X90511904Y-59357142D01*
X90464285Y-59404761D01*
X90369047Y-59452380D01*
X90130952Y-59452380D01*
X90035714Y-59404761D01*
X89988095Y-59357142D01*
X90940476Y-58547619D02*
X90988095Y-58500000D01*
X91083333Y-58452380D01*
X91321428Y-58452380D01*
X91416666Y-58500000D01*
X91464285Y-58547619D01*
X91511904Y-58642857D01*
X91511904Y-58738095D01*
X91464285Y-58880952D01*
X90892857Y-59452380D01*
X91511904Y-59452380D01*
X92833333Y-108202380D02*
X92357142Y-108202380D01*
X92357142Y-107202380D01*
X93690476Y-108202380D02*
X93119047Y-108202380D01*
X93404761Y-108202380D02*
X93404761Y-107202380D01*
X93309523Y-107345238D01*
X93214285Y-107440476D01*
X93119047Y-107488095D01*
X114273809Y-86202380D02*
X114273809Y-85202380D01*
X115321428Y-86107142D02*
X115273809Y-86154761D01*
X115130952Y-86202380D01*
X115035714Y-86202380D01*
X114892857Y-86154761D01*
X114797619Y-86059523D01*
X114750000Y-85964285D01*
X114702380Y-85773809D01*
X114702380Y-85630952D01*
X114750000Y-85440476D01*
X114797619Y-85345238D01*
X114892857Y-85250000D01*
X115035714Y-85202380D01*
X115130952Y-85202380D01*
X115273809Y-85250000D01*
X115321428Y-85297619D01*
X115654761Y-85202380D02*
X116273809Y-85202380D01*
X115940476Y-85583333D01*
X116083333Y-85583333D01*
X116178571Y-85630952D01*
X116226190Y-85678571D01*
X116273809Y-85773809D01*
X116273809Y-86011904D01*
X116226190Y-86107142D01*
X116178571Y-86154761D01*
X116083333Y-86202380D01*
X115797619Y-86202380D01*
X115702380Y-86154761D01*
X115654761Y-86107142D01*
X114722380Y-105583333D02*
X115436666Y-105583333D01*
X115579523Y-105630952D01*
X115674761Y-105726190D01*
X115722380Y-105869047D01*
X115722380Y-105964285D01*
X114722380Y-104678571D02*
X114722380Y-104869047D01*
X114770000Y-104964285D01*
X114817619Y-105011904D01*
X114960476Y-105107142D01*
X115150952Y-105154761D01*
X115531904Y-105154761D01*
X115627142Y-105107142D01*
X115674761Y-105059523D01*
X115722380Y-104964285D01*
X115722380Y-104773809D01*
X115674761Y-104678571D01*
X115627142Y-104630952D01*
X115531904Y-104583333D01*
X115293809Y-104583333D01*
X115198571Y-104630952D01*
X115150952Y-104678571D01*
X115103333Y-104773809D01*
X115103333Y-104964285D01*
X115150952Y-105059523D01*
X115198571Y-105107142D01*
X115293809Y-105154761D01*
X123988095Y-90202380D02*
X123988095Y-91011904D01*
X124035714Y-91107142D01*
X124083333Y-91154761D01*
X124178571Y-91202380D01*
X124369047Y-91202380D01*
X124464285Y-91154761D01*
X124511904Y-91107142D01*
X124559523Y-91011904D01*
X124559523Y-90202380D01*
X125083333Y-91202380D02*
X125273809Y-91202380D01*
X125369047Y-91154761D01*
X125416666Y-91107142D01*
X125511904Y-90964285D01*
X125559523Y-90773809D01*
X125559523Y-90392857D01*
X125511904Y-90297619D01*
X125464285Y-90250000D01*
X125369047Y-90202380D01*
X125178571Y-90202380D01*
X125083333Y-90250000D01*
X125035714Y-90297619D01*
X124988095Y-90392857D01*
X124988095Y-90630952D01*
X125035714Y-90726190D01*
X125083333Y-90773809D01*
X125178571Y-90821428D01*
X125369047Y-90821428D01*
X125464285Y-90773809D01*
X125511904Y-90726190D01*
X125559523Y-90630952D01*
X120238095Y-107202380D02*
X120238095Y-108011904D01*
X120285714Y-108107142D01*
X120333333Y-108154761D01*
X120428571Y-108202380D01*
X120619047Y-108202380D01*
X120714285Y-108154761D01*
X120761904Y-108107142D01*
X120809523Y-108011904D01*
X120809523Y-107202380D01*
X121428571Y-107630952D02*
X121333333Y-107583333D01*
X121285714Y-107535714D01*
X121238095Y-107440476D01*
X121238095Y-107392857D01*
X121285714Y-107297619D01*
X121333333Y-107250000D01*
X121428571Y-107202380D01*
X121619047Y-107202380D01*
X121714285Y-107250000D01*
X121761904Y-107297619D01*
X121809523Y-107392857D01*
X121809523Y-107440476D01*
X121761904Y-107535714D01*
X121714285Y-107583333D01*
X121619047Y-107630952D01*
X121428571Y-107630952D01*
X121333333Y-107678571D01*
X121285714Y-107726190D01*
X121238095Y-107821428D01*
X121238095Y-108011904D01*
X121285714Y-108107142D01*
X121333333Y-108154761D01*
X121428571Y-108202380D01*
X121619047Y-108202380D01*
X121714285Y-108154761D01*
X121761904Y-108107142D01*
X121809523Y-108011904D01*
X121809523Y-107821428D01*
X121761904Y-107726190D01*
X121714285Y-107678571D01*
X121619047Y-107630952D01*
X85738095Y-79702380D02*
X85738095Y-80511904D01*
X85785714Y-80607142D01*
X85833333Y-80654761D01*
X85928571Y-80702380D01*
X86119047Y-80702380D01*
X86214285Y-80654761D01*
X86261904Y-80607142D01*
X86309523Y-80511904D01*
X86309523Y-79702380D01*
X87309523Y-80702380D02*
X86738095Y-80702380D01*
X87023809Y-80702380D02*
X87023809Y-79702380D01*
X86928571Y-79845238D01*
X86833333Y-79940476D01*
X86738095Y-79988095D01*
X100787142Y-65392857D02*
X100834761Y-65440476D01*
X100882380Y-65583333D01*
X100882380Y-65678571D01*
X100834761Y-65821428D01*
X100739523Y-65916666D01*
X100644285Y-65964285D01*
X100453809Y-66011904D01*
X100310952Y-66011904D01*
X100120476Y-65964285D01*
X100025238Y-65916666D01*
X99930000Y-65821428D01*
X99882380Y-65678571D01*
X99882380Y-65583333D01*
X99930000Y-65440476D01*
X99977619Y-65392857D01*
X99977619Y-65011904D02*
X99930000Y-64964285D01*
X99882380Y-64869047D01*
X99882380Y-64630952D01*
X99930000Y-64535714D01*
X99977619Y-64488095D01*
X100072857Y-64440476D01*
X100168095Y-64440476D01*
X100310952Y-64488095D01*
X100882380Y-65059523D01*
X100882380Y-64440476D01*
X100882380Y-63488095D02*
X100882380Y-64059523D01*
X100882380Y-63773809D02*
X99882380Y-63773809D01*
X100025238Y-63869047D01*
X100120476Y-63964285D01*
X100168095Y-64059523D01*
X85607142Y-72107142D02*
X85559523Y-72154761D01*
X85416666Y-72202380D01*
X85321428Y-72202380D01*
X85178571Y-72154761D01*
X85083333Y-72059523D01*
X85035714Y-71964285D01*
X84988095Y-71773809D01*
X84988095Y-71630952D01*
X85035714Y-71440476D01*
X85083333Y-71345238D01*
X85178571Y-71250000D01*
X85321428Y-71202380D01*
X85416666Y-71202380D01*
X85559523Y-71250000D01*
X85607142Y-71297619D01*
X85988095Y-71297619D02*
X86035714Y-71250000D01*
X86130952Y-71202380D01*
X86369047Y-71202380D01*
X86464285Y-71250000D01*
X86511904Y-71297619D01*
X86559523Y-71392857D01*
X86559523Y-71488095D01*
X86511904Y-71630952D01*
X85940476Y-72202380D01*
X86559523Y-72202380D01*
X87178571Y-71202380D02*
X87273809Y-71202380D01*
X87369047Y-71250000D01*
X87416666Y-71297619D01*
X87464285Y-71392857D01*
X87511904Y-71583333D01*
X87511904Y-71821428D01*
X87464285Y-72011904D01*
X87416666Y-72107142D01*
X87369047Y-72154761D01*
X87273809Y-72202380D01*
X87178571Y-72202380D01*
X87083333Y-72154761D01*
X87035714Y-72107142D01*
X86988095Y-72011904D01*
X86940476Y-71821428D01*
X86940476Y-71583333D01*
X86988095Y-71392857D01*
X87035714Y-71297619D01*
X87083333Y-71250000D01*
X87178571Y-71202380D01*
X108952380Y-83761904D02*
X108952380Y-83190476D01*
X109952380Y-83476190D02*
X108952380Y-83476190D01*
X109952380Y-82857142D02*
X108952380Y-82857142D01*
X108952380Y-82476190D01*
X109000000Y-82380952D01*
X109047619Y-82333333D01*
X109142857Y-82285714D01*
X109285714Y-82285714D01*
X109380952Y-82333333D01*
X109428571Y-82380952D01*
X109476190Y-82476190D01*
X109476190Y-82857142D01*
X109380952Y-81714285D02*
X109333333Y-81809523D01*
X109285714Y-81857142D01*
X109190476Y-81904761D01*
X109142857Y-81904761D01*
X109047619Y-81857142D01*
X109000000Y-81809523D01*
X108952380Y-81714285D01*
X108952380Y-81523809D01*
X109000000Y-81428571D01*
X109047619Y-81380952D01*
X109142857Y-81333333D01*
X109190476Y-81333333D01*
X109285714Y-81380952D01*
X109333333Y-81428571D01*
X109380952Y-81523809D01*
X109380952Y-81714285D01*
X109428571Y-81809523D01*
X109476190Y-81857142D01*
X109571428Y-81904761D01*
X109761904Y-81904761D01*
X109857142Y-81857142D01*
X109904761Y-81809523D01*
X109952380Y-81714285D01*
X109952380Y-81523809D01*
X109904761Y-81428571D01*
X109857142Y-81380952D01*
X109761904Y-81333333D01*
X109571428Y-81333333D01*
X109476190Y-81380952D01*
X109428571Y-81428571D01*
X109380952Y-81523809D01*
X105702380Y-88261904D02*
X105702380Y-87690476D01*
X106702380Y-87976190D02*
X105702380Y-87976190D01*
X106702380Y-87357142D02*
X105702380Y-87357142D01*
X105702380Y-86976190D01*
X105750000Y-86880952D01*
X105797619Y-86833333D01*
X105892857Y-86785714D01*
X106035714Y-86785714D01*
X106130952Y-86833333D01*
X106178571Y-86880952D01*
X106226190Y-86976190D01*
X106226190Y-87357142D01*
X105702380Y-86452380D02*
X105702380Y-85785714D01*
X106702380Y-86214285D01*
X110452380Y-85761904D02*
X110452380Y-85190476D01*
X111452380Y-85476190D02*
X110452380Y-85476190D01*
X111452380Y-84857142D02*
X110452380Y-84857142D01*
X110452380Y-84476190D01*
X110500000Y-84380952D01*
X110547619Y-84333333D01*
X110642857Y-84285714D01*
X110785714Y-84285714D01*
X110880952Y-84333333D01*
X110928571Y-84380952D01*
X110976190Y-84476190D01*
X110976190Y-84857142D01*
X110452380Y-83428571D02*
X110452380Y-83619047D01*
X110500000Y-83714285D01*
X110547619Y-83761904D01*
X110690476Y-83857142D01*
X110880952Y-83904761D01*
X111261904Y-83904761D01*
X111357142Y-83857142D01*
X111404761Y-83809523D01*
X111452380Y-83714285D01*
X111452380Y-83523809D01*
X111404761Y-83428571D01*
X111357142Y-83380952D01*
X111261904Y-83333333D01*
X111023809Y-83333333D01*
X110928571Y-83380952D01*
X110880952Y-83428571D01*
X110833333Y-83523809D01*
X110833333Y-83714285D01*
X110880952Y-83809523D01*
X110928571Y-83857142D01*
X111023809Y-83904761D01*
X109238095Y-90452380D02*
X109809523Y-90452380D01*
X109523809Y-91452380D02*
X109523809Y-90452380D01*
X110142857Y-91452380D02*
X110142857Y-90452380D01*
X110523809Y-90452380D01*
X110619047Y-90500000D01*
X110666666Y-90547619D01*
X110714285Y-90642857D01*
X110714285Y-90785714D01*
X110666666Y-90880952D01*
X110619047Y-90928571D01*
X110523809Y-90976190D01*
X110142857Y-90976190D01*
X111619047Y-90452380D02*
X111142857Y-90452380D01*
X111095238Y-90928571D01*
X111142857Y-90880952D01*
X111238095Y-90833333D01*
X111476190Y-90833333D01*
X111571428Y-90880952D01*
X111619047Y-90928571D01*
X111666666Y-91023809D01*
X111666666Y-91261904D01*
X111619047Y-91357142D01*
X111571428Y-91404761D01*
X111476190Y-91452380D01*
X111238095Y-91452380D01*
X111142857Y-91404761D01*
X111095238Y-91357142D01*
X97488095Y-85852380D02*
X97488095Y-86661904D01*
X97535714Y-86757142D01*
X97583333Y-86804761D01*
X97678571Y-86852380D01*
X97869047Y-86852380D01*
X97964285Y-86804761D01*
X98011904Y-86757142D01*
X98059523Y-86661904D01*
X98059523Y-85852380D01*
X98440476Y-85852380D02*
X99059523Y-85852380D01*
X98726190Y-86233333D01*
X98869047Y-86233333D01*
X98964285Y-86280952D01*
X99011904Y-86328571D01*
X99059523Y-86423809D01*
X99059523Y-86661904D01*
X99011904Y-86757142D01*
X98964285Y-86804761D01*
X98869047Y-86852380D01*
X98583333Y-86852380D01*
X98488095Y-86804761D01*
X98440476Y-86757142D01*
X83197142Y-89372857D02*
X83244761Y-89420476D01*
X83292380Y-89563333D01*
X83292380Y-89658571D01*
X83244761Y-89801428D01*
X83149523Y-89896666D01*
X83054285Y-89944285D01*
X82863809Y-89991904D01*
X82720952Y-89991904D01*
X82530476Y-89944285D01*
X82435238Y-89896666D01*
X82340000Y-89801428D01*
X82292380Y-89658571D01*
X82292380Y-89563333D01*
X82340000Y-89420476D01*
X82387619Y-89372857D01*
X82720952Y-88801428D02*
X82673333Y-88896666D01*
X82625714Y-88944285D01*
X82530476Y-88991904D01*
X82482857Y-88991904D01*
X82387619Y-88944285D01*
X82340000Y-88896666D01*
X82292380Y-88801428D01*
X82292380Y-88610952D01*
X82340000Y-88515714D01*
X82387619Y-88468095D01*
X82482857Y-88420476D01*
X82530476Y-88420476D01*
X82625714Y-88468095D01*
X82673333Y-88515714D01*
X82720952Y-88610952D01*
X82720952Y-88801428D01*
X82768571Y-88896666D01*
X82816190Y-88944285D01*
X82911428Y-88991904D01*
X83101904Y-88991904D01*
X83197142Y-88944285D01*
X83244761Y-88896666D01*
X83292380Y-88801428D01*
X83292380Y-88610952D01*
X83244761Y-88515714D01*
X83197142Y-88468095D01*
X83101904Y-88420476D01*
X82911428Y-88420476D01*
X82816190Y-88468095D01*
X82768571Y-88515714D01*
X82720952Y-88610952D01*
X83292380Y-87468095D02*
X83292380Y-88039523D01*
X83292380Y-87753809D02*
X82292380Y-87753809D01*
X82435238Y-87849047D01*
X82530476Y-87944285D01*
X82578095Y-88039523D01*
X87857142Y-89392857D02*
X87904761Y-89440476D01*
X87952380Y-89583333D01*
X87952380Y-89678571D01*
X87904761Y-89821428D01*
X87809523Y-89916666D01*
X87714285Y-89964285D01*
X87523809Y-90011904D01*
X87380952Y-90011904D01*
X87190476Y-89964285D01*
X87095238Y-89916666D01*
X87000000Y-89821428D01*
X86952380Y-89678571D01*
X86952380Y-89583333D01*
X87000000Y-89440476D01*
X87047619Y-89392857D01*
X86952380Y-88535714D02*
X86952380Y-88726190D01*
X87000000Y-88821428D01*
X87047619Y-88869047D01*
X87190476Y-88964285D01*
X87380952Y-89011904D01*
X87761904Y-89011904D01*
X87857142Y-88964285D01*
X87904761Y-88916666D01*
X87952380Y-88821428D01*
X87952380Y-88630952D01*
X87904761Y-88535714D01*
X87857142Y-88488095D01*
X87761904Y-88440476D01*
X87523809Y-88440476D01*
X87428571Y-88488095D01*
X87380952Y-88535714D01*
X87333333Y-88630952D01*
X87333333Y-88821428D01*
X87380952Y-88916666D01*
X87428571Y-88964285D01*
X87523809Y-89011904D01*
X86952380Y-87821428D02*
X86952380Y-87726190D01*
X87000000Y-87630952D01*
X87047619Y-87583333D01*
X87142857Y-87535714D01*
X87333333Y-87488095D01*
X87571428Y-87488095D01*
X87761904Y-87535714D01*
X87857142Y-87583333D01*
X87904761Y-87630952D01*
X87952380Y-87726190D01*
X87952380Y-87821428D01*
X87904761Y-87916666D01*
X87857142Y-87964285D01*
X87761904Y-88011904D01*
X87571428Y-88059523D01*
X87333333Y-88059523D01*
X87142857Y-88011904D01*
X87047619Y-87964285D01*
X87000000Y-87916666D01*
X86952380Y-87821428D01*
X83107142Y-106607142D02*
X83059523Y-106654761D01*
X82916666Y-106702380D01*
X82821428Y-106702380D01*
X82678571Y-106654761D01*
X82583333Y-106559523D01*
X82535714Y-106464285D01*
X82488095Y-106273809D01*
X82488095Y-106130952D01*
X82535714Y-105940476D01*
X82583333Y-105845238D01*
X82678571Y-105750000D01*
X82821428Y-105702380D01*
X82916666Y-105702380D01*
X83059523Y-105750000D01*
X83107142Y-105797619D01*
X84059523Y-106702380D02*
X83488095Y-106702380D01*
X83773809Y-106702380D02*
X83773809Y-105702380D01*
X83678571Y-105845238D01*
X83583333Y-105940476D01*
X83488095Y-105988095D01*
X84392857Y-105702380D02*
X85011904Y-105702380D01*
X84678571Y-106083333D01*
X84821428Y-106083333D01*
X84916666Y-106130952D01*
X84964285Y-106178571D01*
X85011904Y-106273809D01*
X85011904Y-106511904D01*
X84964285Y-106607142D01*
X84916666Y-106654761D01*
X84821428Y-106702380D01*
X84535714Y-106702380D01*
X84440476Y-106654761D01*
X84392857Y-106607142D01*
X99357142Y-106927142D02*
X99309523Y-106974761D01*
X99166666Y-107022380D01*
X99071428Y-107022380D01*
X98928571Y-106974761D01*
X98833333Y-106879523D01*
X98785714Y-106784285D01*
X98738095Y-106593809D01*
X98738095Y-106450952D01*
X98785714Y-106260476D01*
X98833333Y-106165238D01*
X98928571Y-106070000D01*
X99071428Y-106022380D01*
X99166666Y-106022380D01*
X99309523Y-106070000D01*
X99357142Y-106117619D01*
X100309523Y-107022380D02*
X99738095Y-107022380D01*
X100023809Y-107022380D02*
X100023809Y-106022380D01*
X99928571Y-106165238D01*
X99833333Y-106260476D01*
X99738095Y-106308095D01*
X100690476Y-106117619D02*
X100738095Y-106070000D01*
X100833333Y-106022380D01*
X101071428Y-106022380D01*
X101166666Y-106070000D01*
X101214285Y-106117619D01*
X101261904Y-106212857D01*
X101261904Y-106308095D01*
X101214285Y-106450952D01*
X100642857Y-107022380D01*
X101261904Y-107022380D01*
X98857142Y-97607142D02*
X98809523Y-97654761D01*
X98666666Y-97702380D01*
X98571428Y-97702380D01*
X98428571Y-97654761D01*
X98333333Y-97559523D01*
X98285714Y-97464285D01*
X98238095Y-97273809D01*
X98238095Y-97130952D01*
X98285714Y-96940476D01*
X98333333Y-96845238D01*
X98428571Y-96750000D01*
X98571428Y-96702380D01*
X98666666Y-96702380D01*
X98809523Y-96750000D01*
X98857142Y-96797619D01*
X99809523Y-97702380D02*
X99238095Y-97702380D01*
X99523809Y-97702380D02*
X99523809Y-96702380D01*
X99428571Y-96845238D01*
X99333333Y-96940476D01*
X99238095Y-96988095D01*
X100761904Y-97702380D02*
X100190476Y-97702380D01*
X100476190Y-97702380D02*
X100476190Y-96702380D01*
X100380952Y-96845238D01*
X100285714Y-96940476D01*
X100190476Y-96988095D01*
X93333333Y-117107142D02*
X93285714Y-117154761D01*
X93142857Y-117202380D01*
X93047619Y-117202380D01*
X92904761Y-117154761D01*
X92809523Y-117059523D01*
X92761904Y-116964285D01*
X92714285Y-116773809D01*
X92714285Y-116630952D01*
X92761904Y-116440476D01*
X92809523Y-116345238D01*
X92904761Y-116250000D01*
X93047619Y-116202380D01*
X93142857Y-116202380D01*
X93285714Y-116250000D01*
X93333333Y-116297619D01*
X93904761Y-116630952D02*
X93809523Y-116583333D01*
X93761904Y-116535714D01*
X93714285Y-116440476D01*
X93714285Y-116392857D01*
X93761904Y-116297619D01*
X93809523Y-116250000D01*
X93904761Y-116202380D01*
X94095238Y-116202380D01*
X94190476Y-116250000D01*
X94238095Y-116297619D01*
X94285714Y-116392857D01*
X94285714Y-116440476D01*
X94238095Y-116535714D01*
X94190476Y-116583333D01*
X94095238Y-116630952D01*
X93904761Y-116630952D01*
X93809523Y-116678571D01*
X93761904Y-116726190D01*
X93714285Y-116821428D01*
X93714285Y-117011904D01*
X93761904Y-117107142D01*
X93809523Y-117154761D01*
X93904761Y-117202380D01*
X94095238Y-117202380D01*
X94190476Y-117154761D01*
X94238095Y-117107142D01*
X94285714Y-117011904D01*
X94285714Y-116821428D01*
X94238095Y-116726190D01*
X94190476Y-116678571D01*
X94095238Y-116630952D01*
X87988095Y-106452380D02*
X87988095Y-107261904D01*
X88035714Y-107357142D01*
X88083333Y-107404761D01*
X88178571Y-107452380D01*
X88369047Y-107452380D01*
X88464285Y-107404761D01*
X88511904Y-107357142D01*
X88559523Y-107261904D01*
X88559523Y-106452380D01*
X88988095Y-106547619D02*
X89035714Y-106500000D01*
X89130952Y-106452380D01*
X89369047Y-106452380D01*
X89464285Y-106500000D01*
X89511904Y-106547619D01*
X89559523Y-106642857D01*
X89559523Y-106738095D01*
X89511904Y-106880952D01*
X88940476Y-107452380D01*
X89559523Y-107452380D01*
X87083333Y-99202380D02*
X86750000Y-98726190D01*
X86511904Y-99202380D02*
X86511904Y-98202380D01*
X86892857Y-98202380D01*
X86988095Y-98250000D01*
X87035714Y-98297619D01*
X87083333Y-98392857D01*
X87083333Y-98535714D01*
X87035714Y-98630952D01*
X86988095Y-98678571D01*
X86892857Y-98726190D01*
X86511904Y-98726190D01*
X87988095Y-98202380D02*
X87511904Y-98202380D01*
X87464285Y-98678571D01*
X87511904Y-98630952D01*
X87607142Y-98583333D01*
X87845238Y-98583333D01*
X87940476Y-98630952D01*
X87988095Y-98678571D01*
X88035714Y-98773809D01*
X88035714Y-99011904D01*
X87988095Y-99107142D01*
X87940476Y-99154761D01*
X87845238Y-99202380D01*
X87607142Y-99202380D01*
X87511904Y-99154761D01*
X87464285Y-99107142D01*
X87083333Y-101452380D02*
X86750000Y-100976190D01*
X86511904Y-101452380D02*
X86511904Y-100452380D01*
X86892857Y-100452380D01*
X86988095Y-100500000D01*
X87035714Y-100547619D01*
X87083333Y-100642857D01*
X87083333Y-100785714D01*
X87035714Y-100880952D01*
X86988095Y-100928571D01*
X86892857Y-100976190D01*
X86511904Y-100976190D01*
X87940476Y-100785714D02*
X87940476Y-101452380D01*
X87702380Y-100404761D02*
X87464285Y-101119047D01*
X88083333Y-101119047D01*
X87083333Y-97452380D02*
X86750000Y-96976190D01*
X86511904Y-97452380D02*
X86511904Y-96452380D01*
X86892857Y-96452380D01*
X86988095Y-96500000D01*
X87035714Y-96547619D01*
X87083333Y-96642857D01*
X87083333Y-96785714D01*
X87035714Y-96880952D01*
X86988095Y-96928571D01*
X86892857Y-96976190D01*
X86511904Y-96976190D01*
X87416666Y-96452380D02*
X88035714Y-96452380D01*
X87702380Y-96833333D01*
X87845238Y-96833333D01*
X87940476Y-96880952D01*
X87988095Y-96928571D01*
X88035714Y-97023809D01*
X88035714Y-97261904D01*
X87988095Y-97357142D01*
X87940476Y-97404761D01*
X87845238Y-97452380D01*
X87559523Y-97452380D01*
X87464285Y-97404761D01*
X87416666Y-97357142D01*
X88988095Y-96202380D02*
X88988095Y-97011904D01*
X89035714Y-97107142D01*
X89083333Y-97154761D01*
X89178571Y-97202380D01*
X89369047Y-97202380D01*
X89464285Y-97154761D01*
X89511904Y-97107142D01*
X89559523Y-97011904D01*
X89559523Y-96202380D01*
X90464285Y-96202380D02*
X90273809Y-96202380D01*
X90178571Y-96250000D01*
X90130952Y-96297619D01*
X90035714Y-96440476D01*
X89988095Y-96630952D01*
X89988095Y-97011904D01*
X90035714Y-97107142D01*
X90083333Y-97154761D01*
X90178571Y-97202380D01*
X90369047Y-97202380D01*
X90464285Y-97154761D01*
X90511904Y-97107142D01*
X90559523Y-97011904D01*
X90559523Y-96773809D01*
X90511904Y-96678571D01*
X90464285Y-96630952D01*
X90369047Y-96583333D01*
X90178571Y-96583333D01*
X90083333Y-96630952D01*
X90035714Y-96678571D01*
X89988095Y-96773809D01*
X126357142Y-85357142D02*
X126309523Y-85404761D01*
X126166666Y-85452380D01*
X126071428Y-85452380D01*
X125928571Y-85404761D01*
X125833333Y-85309523D01*
X125785714Y-85214285D01*
X125738095Y-85023809D01*
X125738095Y-84880952D01*
X125785714Y-84690476D01*
X125833333Y-84595238D01*
X125928571Y-84500000D01*
X126071428Y-84452380D01*
X126166666Y-84452380D01*
X126309523Y-84500000D01*
X126357142Y-84547619D01*
X127261904Y-84452380D02*
X126785714Y-84452380D01*
X126738095Y-84928571D01*
X126785714Y-84880952D01*
X126880952Y-84833333D01*
X127119047Y-84833333D01*
X127214285Y-84880952D01*
X127261904Y-84928571D01*
X127309523Y-85023809D01*
X127309523Y-85261904D01*
X127261904Y-85357142D01*
X127214285Y-85404761D01*
X127119047Y-85452380D01*
X126880952Y-85452380D01*
X126785714Y-85404761D01*
X126738095Y-85357142D01*
X127785714Y-85452380D02*
X127976190Y-85452380D01*
X128071428Y-85404761D01*
X128119047Y-85357142D01*
X128214285Y-85214285D01*
X128261904Y-85023809D01*
X128261904Y-84642857D01*
X128214285Y-84547619D01*
X128166666Y-84500000D01*
X128071428Y-84452380D01*
X127880952Y-84452380D01*
X127785714Y-84500000D01*
X127738095Y-84547619D01*
X127690476Y-84642857D01*
X127690476Y-84880952D01*
X127738095Y-84976190D01*
X127785714Y-85023809D01*
X127880952Y-85071428D01*
X128071428Y-85071428D01*
X128166666Y-85023809D01*
X128214285Y-84976190D01*
X128261904Y-84880952D01*
X121857142Y-82357142D02*
X121809523Y-82404761D01*
X121666666Y-82452380D01*
X121571428Y-82452380D01*
X121428571Y-82404761D01*
X121333333Y-82309523D01*
X121285714Y-82214285D01*
X121238095Y-82023809D01*
X121238095Y-81880952D01*
X121285714Y-81690476D01*
X121333333Y-81595238D01*
X121428571Y-81500000D01*
X121571428Y-81452380D01*
X121666666Y-81452380D01*
X121809523Y-81500000D01*
X121857142Y-81547619D01*
X122761904Y-81452380D02*
X122285714Y-81452380D01*
X122238095Y-81928571D01*
X122285714Y-81880952D01*
X122380952Y-81833333D01*
X122619047Y-81833333D01*
X122714285Y-81880952D01*
X122761904Y-81928571D01*
X122809523Y-82023809D01*
X122809523Y-82261904D01*
X122761904Y-82357142D01*
X122714285Y-82404761D01*
X122619047Y-82452380D01*
X122380952Y-82452380D01*
X122285714Y-82404761D01*
X122238095Y-82357142D01*
X123142857Y-81452380D02*
X123761904Y-81452380D01*
X123428571Y-81833333D01*
X123571428Y-81833333D01*
X123666666Y-81880952D01*
X123714285Y-81928571D01*
X123761904Y-82023809D01*
X123761904Y-82261904D01*
X123714285Y-82357142D01*
X123666666Y-82404761D01*
X123571428Y-82452380D01*
X123285714Y-82452380D01*
X123190476Y-82404761D01*
X123142857Y-82357142D01*
X126357142Y-90107142D02*
X126309523Y-90154761D01*
X126166666Y-90202380D01*
X126071428Y-90202380D01*
X125928571Y-90154761D01*
X125833333Y-90059523D01*
X125785714Y-89964285D01*
X125738095Y-89773809D01*
X125738095Y-89630952D01*
X125785714Y-89440476D01*
X125833333Y-89345238D01*
X125928571Y-89250000D01*
X126071428Y-89202380D01*
X126166666Y-89202380D01*
X126309523Y-89250000D01*
X126357142Y-89297619D01*
X127214285Y-89202380D02*
X127023809Y-89202380D01*
X126928571Y-89250000D01*
X126880952Y-89297619D01*
X126785714Y-89440476D01*
X126738095Y-89630952D01*
X126738095Y-90011904D01*
X126785714Y-90107142D01*
X126833333Y-90154761D01*
X126928571Y-90202380D01*
X127119047Y-90202380D01*
X127214285Y-90154761D01*
X127261904Y-90107142D01*
X127309523Y-90011904D01*
X127309523Y-89773809D01*
X127261904Y-89678571D01*
X127214285Y-89630952D01*
X127119047Y-89583333D01*
X126928571Y-89583333D01*
X126833333Y-89630952D01*
X126785714Y-89678571D01*
X126738095Y-89773809D01*
X127642857Y-89202380D02*
X128261904Y-89202380D01*
X127928571Y-89583333D01*
X128071428Y-89583333D01*
X128166666Y-89630952D01*
X128214285Y-89678571D01*
X128261904Y-89773809D01*
X128261904Y-90011904D01*
X128214285Y-90107142D01*
X128166666Y-90154761D01*
X128071428Y-90202380D01*
X127785714Y-90202380D01*
X127690476Y-90154761D01*
X127642857Y-90107142D01*
X114333333Y-115107142D02*
X114285714Y-115154761D01*
X114142857Y-115202380D01*
X114047619Y-115202380D01*
X113904761Y-115154761D01*
X113809523Y-115059523D01*
X113761904Y-114964285D01*
X113714285Y-114773809D01*
X113714285Y-114630952D01*
X113761904Y-114440476D01*
X113809523Y-114345238D01*
X113904761Y-114250000D01*
X114047619Y-114202380D01*
X114142857Y-114202380D01*
X114285714Y-114250000D01*
X114333333Y-114297619D01*
X115190476Y-114535714D02*
X115190476Y-115202380D01*
X114952380Y-114154761D02*
X114714285Y-114869047D01*
X115333333Y-114869047D01*
X123333333Y-115107142D02*
X123285714Y-115154761D01*
X123142857Y-115202380D01*
X123047619Y-115202380D01*
X122904761Y-115154761D01*
X122809523Y-115059523D01*
X122761904Y-114964285D01*
X122714285Y-114773809D01*
X122714285Y-114630952D01*
X122761904Y-114440476D01*
X122809523Y-114345238D01*
X122904761Y-114250000D01*
X123047619Y-114202380D01*
X123142857Y-114202380D01*
X123285714Y-114250000D01*
X123333333Y-114297619D01*
X123666666Y-114202380D02*
X124285714Y-114202380D01*
X123952380Y-114583333D01*
X124095238Y-114583333D01*
X124190476Y-114630952D01*
X124238095Y-114678571D01*
X124285714Y-114773809D01*
X124285714Y-115011904D01*
X124238095Y-115107142D01*
X124190476Y-115154761D01*
X124095238Y-115202380D01*
X123809523Y-115202380D01*
X123714285Y-115154761D01*
X123666666Y-115107142D01*
X96452380Y-60892857D02*
X95976190Y-61226190D01*
X96452380Y-61464285D02*
X95452380Y-61464285D01*
X95452380Y-61083333D01*
X95500000Y-60988095D01*
X95547619Y-60940476D01*
X95642857Y-60892857D01*
X95785714Y-60892857D01*
X95880952Y-60940476D01*
X95928571Y-60988095D01*
X95976190Y-61083333D01*
X95976190Y-61464285D01*
X95547619Y-60511904D02*
X95500000Y-60464285D01*
X95452380Y-60369047D01*
X95452380Y-60130952D01*
X95500000Y-60035714D01*
X95547619Y-59988095D01*
X95642857Y-59940476D01*
X95738095Y-59940476D01*
X95880952Y-59988095D01*
X96452380Y-60559523D01*
X96452380Y-59940476D01*
X95452380Y-59083333D02*
X95452380Y-59273809D01*
X95500000Y-59369047D01*
X95547619Y-59416666D01*
X95690476Y-59511904D01*
X95880952Y-59559523D01*
X96261904Y-59559523D01*
X96357142Y-59511904D01*
X96404761Y-59464285D01*
X96452380Y-59369047D01*
X96452380Y-59178571D01*
X96404761Y-59083333D01*
X96357142Y-59035714D01*
X96261904Y-58988095D01*
X96023809Y-58988095D01*
X95928571Y-59035714D01*
X95880952Y-59083333D01*
X95833333Y-59178571D01*
X95833333Y-59369047D01*
X95880952Y-59464285D01*
X95928571Y-59511904D01*
X96023809Y-59559523D01*
X93202380Y-63842857D02*
X92726190Y-64176190D01*
X93202380Y-64414285D02*
X92202380Y-64414285D01*
X92202380Y-64033333D01*
X92250000Y-63938095D01*
X92297619Y-63890476D01*
X92392857Y-63842857D01*
X92535714Y-63842857D01*
X92630952Y-63890476D01*
X92678571Y-63938095D01*
X92726190Y-64033333D01*
X92726190Y-64414285D01*
X92297619Y-63461904D02*
X92250000Y-63414285D01*
X92202380Y-63319047D01*
X92202380Y-63080952D01*
X92250000Y-62985714D01*
X92297619Y-62938095D01*
X92392857Y-62890476D01*
X92488095Y-62890476D01*
X92630952Y-62938095D01*
X93202380Y-63509523D01*
X93202380Y-62890476D01*
X92202380Y-62557142D02*
X92202380Y-61890476D01*
X93202380Y-62319047D01*
X123333333Y-117202380D02*
X123000000Y-116726190D01*
X122761904Y-117202380D02*
X122761904Y-116202380D01*
X123142857Y-116202380D01*
X123238095Y-116250000D01*
X123285714Y-116297619D01*
X123333333Y-116392857D01*
X123333333Y-116535714D01*
X123285714Y-116630952D01*
X123238095Y-116678571D01*
X123142857Y-116726190D01*
X122761904Y-116726190D01*
X124285714Y-117202380D02*
X123714285Y-117202380D01*
X124000000Y-117202380D02*
X124000000Y-116202380D01*
X123904761Y-116345238D01*
X123809523Y-116440476D01*
X123714285Y-116488095D01*
X114333333Y-117202380D02*
X114000000Y-116726190D01*
X113761904Y-117202380D02*
X113761904Y-116202380D01*
X114142857Y-116202380D01*
X114238095Y-116250000D01*
X114285714Y-116297619D01*
X114333333Y-116392857D01*
X114333333Y-116535714D01*
X114285714Y-116630952D01*
X114238095Y-116678571D01*
X114142857Y-116726190D01*
X113761904Y-116726190D01*
X114714285Y-116297619D02*
X114761904Y-116250000D01*
X114857142Y-116202380D01*
X115095238Y-116202380D01*
X115190476Y-116250000D01*
X115238095Y-116297619D01*
X115285714Y-116392857D01*
X115285714Y-116488095D01*
X115238095Y-116630952D01*
X114666666Y-117202380D01*
X115285714Y-117202380D01*
X124242380Y-68083333D02*
X124956666Y-68083333D01*
X125099523Y-68130952D01*
X125194761Y-68226190D01*
X125242380Y-68369047D01*
X125242380Y-68464285D01*
X124337619Y-67654761D02*
X124290000Y-67607142D01*
X124242380Y-67511904D01*
X124242380Y-67273809D01*
X124290000Y-67178571D01*
X124337619Y-67130952D01*
X124432857Y-67083333D01*
X124528095Y-67083333D01*
X124670952Y-67130952D01*
X125242380Y-67702380D01*
X125242380Y-67083333D01*
X105452380Y-84011904D02*
X105452380Y-83440476D01*
X106452380Y-83726190D02*
X105452380Y-83726190D01*
X106452380Y-83107142D02*
X105452380Y-83107142D01*
X105452380Y-82726190D01*
X105500000Y-82630952D01*
X105547619Y-82583333D01*
X105642857Y-82535714D01*
X105785714Y-82535714D01*
X105880952Y-82583333D01*
X105928571Y-82630952D01*
X105976190Y-82726190D01*
X105976190Y-83107142D01*
X105452380Y-82202380D02*
X105452380Y-81583333D01*
X105833333Y-81916666D01*
X105833333Y-81773809D01*
X105880952Y-81678571D01*
X105928571Y-81630952D01*
X106023809Y-81583333D01*
X106261904Y-81583333D01*
X106357142Y-81630952D01*
X106404761Y-81678571D01*
X106452380Y-81773809D01*
X106452380Y-82059523D01*
X106404761Y-82154761D01*
X106357142Y-82202380D01*
X125803571Y-77089285D02*
X126232142Y-77089285D01*
X126017857Y-77839285D02*
X126017857Y-77089285D01*
X126482142Y-77839285D02*
X126482142Y-77089285D01*
X126767857Y-77089285D01*
X126839285Y-77125000D01*
X126875000Y-77160714D01*
X126910714Y-77232142D01*
X126910714Y-77339285D01*
X126875000Y-77410714D01*
X126839285Y-77446428D01*
X126767857Y-77482142D01*
X126482142Y-77482142D01*
X127553571Y-77339285D02*
X127553571Y-77839285D01*
X127375000Y-77053571D02*
X127196428Y-77589285D01*
X127660714Y-77589285D01*
X97638095Y-70502380D02*
X97638095Y-71311904D01*
X97685714Y-71407142D01*
X97733333Y-71454761D01*
X97828571Y-71502380D01*
X98019047Y-71502380D01*
X98114285Y-71454761D01*
X98161904Y-71407142D01*
X98209523Y-71311904D01*
X98209523Y-70502380D01*
X99114285Y-70835714D02*
X99114285Y-71502380D01*
X98876190Y-70454761D02*
X98638095Y-71169047D01*
X99257142Y-71169047D01*
D10*
X114178571Y-64789285D02*
X114178571Y-65396428D01*
X114214285Y-65467857D01*
X114250000Y-65503571D01*
X114321428Y-65539285D01*
X114464285Y-65539285D01*
X114535714Y-65503571D01*
X114571428Y-65467857D01*
X114607142Y-65396428D01*
X114607142Y-64789285D01*
X115321428Y-64789285D02*
X114964285Y-64789285D01*
X114928571Y-65146428D01*
X114964285Y-65110714D01*
X115035714Y-65075000D01*
X115214285Y-65075000D01*
X115285714Y-65110714D01*
X115321428Y-65146428D01*
X115357142Y-65217857D01*
X115357142Y-65396428D01*
X115321428Y-65467857D01*
X115285714Y-65503571D01*
X115214285Y-65539285D01*
X115035714Y-65539285D01*
X114964285Y-65503571D01*
X114928571Y-65467857D01*
X113946428Y-121589285D02*
X113946428Y-120839285D01*
X114232142Y-120839285D01*
X114303571Y-120875000D01*
X114339285Y-120910714D01*
X114375000Y-120982142D01*
X114375000Y-121089285D01*
X114339285Y-121160714D01*
X114303571Y-121196428D01*
X114232142Y-121232142D01*
X113946428Y-121232142D01*
X115089285Y-121589285D02*
X114660714Y-121589285D01*
X114875000Y-121589285D02*
X114875000Y-120839285D01*
X114803571Y-120946428D01*
X114732142Y-121017857D01*
X114660714Y-121053571D01*
X115178571Y-72339285D02*
X115178571Y-72946428D01*
X115214285Y-73017857D01*
X115250000Y-73053571D01*
X115321428Y-73089285D01*
X115464285Y-73089285D01*
X115535714Y-73053571D01*
X115571428Y-73017857D01*
X115607142Y-72946428D01*
X115607142Y-72339285D01*
X115892857Y-72339285D02*
X116392857Y-72339285D01*
X116071428Y-73089285D01*
M02*
