G04 #@! TF.GenerationSoftware,KiCad,Pcbnew,(5.1.4)-1*
G04 #@! TF.CreationDate,2019-10-26T22:21:00+02:00*
G04 #@! TF.ProjectId,rf-receiver,72662d72-6563-4656-9976-65722e6b6963,rev?*
G04 #@! TF.SameCoordinates,Original*
G04 #@! TF.FileFunction,Legend,Bot*
G04 #@! TF.FilePolarity,Positive*
%FSLAX46Y46*%
G04 Gerber Fmt 4.6, Leading zero omitted, Abs format (unit mm)*
G04 Created by KiCad (PCBNEW (5.1.4)-1) date 2019-10-26 22:21:00*
%MOMM*%
%LPD*%
G04 APERTURE LIST*
%ADD10C,0.150000*%
%ADD11C,0.250000*%
%ADD12C,0.125000*%
%ADD13C,0.120000*%
G04 APERTURE END LIST*
D10*
X86950000Y-107500000D02*
X86950000Y-109400000D01*
X83550000Y-107500000D02*
X86950000Y-107500000D01*
X86950000Y-109400000D02*
X83550000Y-109400000D01*
X83550000Y-109400000D02*
X83550000Y-107500000D01*
X83550000Y-106700000D02*
X83550000Y-104800000D01*
X86950000Y-106700000D02*
X83550000Y-106700000D01*
X86950000Y-104800000D02*
X86950000Y-106700000D01*
X83550000Y-104800000D02*
X86950000Y-104800000D01*
X104050000Y-101750000D02*
X104050000Y-98750000D01*
X104050000Y-98750000D02*
X105550000Y-98750000D01*
X105550000Y-101750000D02*
X104050000Y-101750000D01*
X105550000Y-98750000D02*
X105550000Y-101750000D01*
X106000000Y-101750000D02*
X106000000Y-98750000D01*
X106000000Y-98750000D02*
X107500000Y-98750000D01*
X107500000Y-101750000D02*
X106000000Y-101750000D01*
X107500000Y-98750000D02*
X107500000Y-101750000D01*
X107750000Y-101750000D02*
X107750000Y-98750000D01*
X107750000Y-98750000D02*
X109250000Y-98750000D01*
X109250000Y-101750000D02*
X107750000Y-101750000D01*
X109250000Y-98750000D02*
X109250000Y-101750000D01*
X117850000Y-106950000D02*
X117850000Y-103950000D01*
X117850000Y-103950000D02*
X119350000Y-103950000D01*
X119350000Y-106950000D02*
X117850000Y-106950000D01*
X119350000Y-103950000D02*
X119350000Y-106950000D01*
X119550000Y-106950000D02*
X119550000Y-103950000D01*
X119550000Y-103950000D02*
X121050000Y-103950000D01*
X121050000Y-106950000D02*
X119550000Y-106950000D01*
X121050000Y-103950000D02*
X121050000Y-106950000D01*
X121250000Y-106950000D02*
X121250000Y-103950000D01*
X121250000Y-103950000D02*
X122750000Y-103950000D01*
X122750000Y-106950000D02*
X121250000Y-106950000D01*
X122750000Y-103950000D02*
X122750000Y-106950000D01*
X126500000Y-105550000D02*
X123500000Y-105550000D01*
X123500000Y-105550000D02*
X123500000Y-104050000D01*
X126500000Y-104050000D02*
X126500000Y-105550000D01*
X123500000Y-104050000D02*
X126500000Y-104050000D01*
X123250000Y-108950000D02*
X123250000Y-105950000D01*
X123250000Y-105950000D02*
X124750000Y-105950000D01*
X124750000Y-108950000D02*
X123250000Y-108950000D01*
X124750000Y-105950000D02*
X124750000Y-108950000D01*
X125200000Y-109000000D02*
X125200000Y-106000000D01*
X125200000Y-106000000D02*
X126700000Y-106000000D01*
X126700000Y-109000000D02*
X125200000Y-109000000D01*
X126700000Y-106000000D02*
X126700000Y-109000000D01*
X125250000Y-112250000D02*
X125250000Y-109250000D01*
X125250000Y-109250000D02*
X126750000Y-109250000D01*
X126750000Y-112250000D02*
X125250000Y-112250000D01*
X126750000Y-109250000D02*
X126750000Y-112250000D01*
X123250000Y-112250000D02*
X123250000Y-109250000D01*
X124750000Y-112250000D02*
X123250000Y-112250000D01*
X124750000Y-109250000D02*
X124750000Y-112250000D01*
X123250000Y-109250000D02*
X124750000Y-109250000D01*
X91500000Y-77250000D02*
X88500000Y-77250000D01*
X91500000Y-78700000D02*
X91500000Y-77250000D01*
X88500000Y-78700000D02*
X91500000Y-78700000D01*
X88500000Y-77250000D02*
X88500000Y-78700000D01*
X91500000Y-75500000D02*
X88500000Y-75500000D01*
X91500000Y-76950000D02*
X91500000Y-75500000D01*
X88500000Y-76950000D02*
X91500000Y-76950000D01*
X88500000Y-75500000D02*
X88500000Y-76950000D01*
X91500000Y-73750000D02*
X88500000Y-73750000D01*
X91500000Y-75200000D02*
X91500000Y-73750000D01*
X88500000Y-75200000D02*
X91500000Y-75200000D01*
X88500000Y-73750000D02*
X88500000Y-75200000D01*
X99550000Y-79700000D02*
X99550000Y-77750000D01*
X102950000Y-79700000D02*
X99550000Y-79700000D01*
X102950000Y-77750000D02*
X102950000Y-79700000D01*
X99550000Y-77750000D02*
X102950000Y-77750000D01*
X102750000Y-75750000D02*
X99750000Y-75750000D01*
X102750000Y-77200000D02*
X102750000Y-75750000D01*
X99750000Y-77200000D02*
X102750000Y-77200000D01*
X99750000Y-75750000D02*
X99750000Y-77200000D01*
X102750000Y-74000000D02*
X99750000Y-74000000D01*
X102750000Y-75450000D02*
X102750000Y-74000000D01*
X99750000Y-75450000D02*
X102750000Y-75450000D01*
X99750000Y-74000000D02*
X99750000Y-75450000D01*
X92250000Y-97200000D02*
X92250000Y-94250000D01*
X90750000Y-97200000D02*
X92250000Y-97200000D01*
X90750000Y-94250000D02*
X90750000Y-97200000D01*
X92250000Y-94250000D02*
X90750000Y-94250000D01*
X94000000Y-97200000D02*
X94000000Y-94250000D01*
X92500000Y-97200000D02*
X94000000Y-97200000D01*
X92500000Y-94250000D02*
X92500000Y-97200000D01*
X94000000Y-94250000D02*
X92500000Y-94250000D01*
X99200000Y-88500000D02*
X96250000Y-88500000D01*
X99200000Y-89950000D02*
X99200000Y-88500000D01*
X96250000Y-89950000D02*
X99200000Y-89950000D01*
X96250000Y-88500000D02*
X96250000Y-89950000D01*
X93800000Y-92900000D02*
X93800000Y-87700000D01*
X89700000Y-92900000D02*
X93800000Y-92900000D01*
X89100000Y-92300000D02*
X89700000Y-92900000D01*
X89100000Y-87700000D02*
X89100000Y-92300000D01*
X93800000Y-87700000D02*
X89100000Y-87700000D01*
X94100000Y-83900000D02*
X98300000Y-83900000D01*
X94100000Y-87600000D02*
X94100000Y-83900000D01*
X97700000Y-87600000D02*
X94100000Y-87600000D01*
X98300000Y-87000000D02*
X97700000Y-87600000D01*
X98300000Y-83900000D02*
X98300000Y-87000000D01*
D11*
X101304761Y-108922619D02*
X100971428Y-109398809D01*
X100733333Y-108922619D02*
X100733333Y-109922619D01*
X101114285Y-109922619D01*
X101209523Y-109875000D01*
X101257142Y-109827380D01*
X101304761Y-109732142D01*
X101304761Y-109589285D01*
X101257142Y-109494047D01*
X101209523Y-109446428D01*
X101114285Y-109398809D01*
X100733333Y-109398809D01*
X102066666Y-109446428D02*
X101733333Y-109446428D01*
X101733333Y-108922619D02*
X101733333Y-109922619D01*
X102209523Y-109922619D01*
X103304761Y-108970238D02*
X103447619Y-108922619D01*
X103685714Y-108922619D01*
X103780952Y-108970238D01*
X103828571Y-109017857D01*
X103876190Y-109113095D01*
X103876190Y-109208333D01*
X103828571Y-109303571D01*
X103780952Y-109351190D01*
X103685714Y-109398809D01*
X103495238Y-109446428D01*
X103400000Y-109494047D01*
X103352380Y-109541666D01*
X103304761Y-109636904D01*
X103304761Y-109732142D01*
X103352380Y-109827380D01*
X103400000Y-109875000D01*
X103495238Y-109922619D01*
X103733333Y-109922619D01*
X103876190Y-109875000D01*
X104304761Y-108922619D02*
X104304761Y-109922619D01*
X104304761Y-109446428D02*
X104876190Y-109446428D01*
X104876190Y-108922619D02*
X104876190Y-109922619D01*
X105352380Y-108922619D02*
X105352380Y-109922619D01*
X105828571Y-109446428D02*
X106161904Y-109446428D01*
X106304761Y-108922619D02*
X105828571Y-108922619D01*
X105828571Y-109922619D01*
X106304761Y-109922619D01*
X107209523Y-108922619D02*
X106733333Y-108922619D01*
X106733333Y-109922619D01*
X107542857Y-108922619D02*
X107542857Y-109922619D01*
X107780952Y-109922619D01*
X107923809Y-109875000D01*
X108019047Y-109779761D01*
X108066666Y-109684523D01*
X108114285Y-109494047D01*
X108114285Y-109351190D01*
X108066666Y-109160714D01*
X108019047Y-109065476D01*
X107923809Y-108970238D01*
X107780952Y-108922619D01*
X107542857Y-108922619D01*
X101447619Y-107172619D02*
X100876190Y-107172619D01*
X101161904Y-107172619D02*
X101161904Y-108172619D01*
X101066666Y-108029761D01*
X100971428Y-107934523D01*
X100876190Y-107886904D01*
X101923809Y-107172619D02*
X102114285Y-107172619D01*
X102209523Y-107220238D01*
X102257142Y-107267857D01*
X102352380Y-107410714D01*
X102400000Y-107601190D01*
X102400000Y-107982142D01*
X102352380Y-108077380D01*
X102304761Y-108125000D01*
X102209523Y-108172619D01*
X102019047Y-108172619D01*
X101923809Y-108125000D01*
X101876190Y-108077380D01*
X101828571Y-107982142D01*
X101828571Y-107744047D01*
X101876190Y-107648809D01*
X101923809Y-107601190D01*
X102019047Y-107553571D01*
X102209523Y-107553571D01*
X102304761Y-107601190D01*
X102352380Y-107648809D01*
X102400000Y-107744047D01*
X103257142Y-107839285D02*
X103257142Y-107172619D01*
X103019047Y-108220238D02*
X102780952Y-107505952D01*
X103400000Y-107505952D01*
X103685714Y-108172619D02*
X104304761Y-108172619D01*
X103971428Y-107791666D01*
X104114285Y-107791666D01*
X104209523Y-107744047D01*
X104257142Y-107696428D01*
X104304761Y-107601190D01*
X104304761Y-107363095D01*
X104257142Y-107267857D01*
X104209523Y-107220238D01*
X104114285Y-107172619D01*
X103828571Y-107172619D01*
X103733333Y-107220238D01*
X103685714Y-107267857D01*
X104733333Y-107553571D02*
X105495238Y-107553571D01*
X106685714Y-107458333D02*
X107161904Y-107458333D01*
X106590476Y-107172619D02*
X106923809Y-108172619D01*
X107257142Y-107172619D01*
X107447619Y-108172619D02*
X108019047Y-108172619D01*
X107733333Y-107172619D02*
X107733333Y-108172619D01*
D10*
X115700000Y-70500000D02*
X115700000Y-69000000D01*
X118700000Y-70500000D02*
X115700000Y-70500000D01*
X118700000Y-69000000D02*
X118700000Y-70500000D01*
X115700000Y-69000000D02*
X118700000Y-69000000D01*
X115700000Y-68500000D02*
X115700000Y-67000000D01*
X118700000Y-68500000D02*
X115700000Y-68500000D01*
X118700000Y-67000000D02*
X118700000Y-68500000D01*
X115700000Y-67000000D02*
X118700000Y-67000000D01*
X115700000Y-65000000D02*
X115800000Y-65000000D01*
X115700000Y-66500000D02*
X115700000Y-65000000D01*
X118700000Y-66500000D02*
X115700000Y-66500000D01*
X118700000Y-65000000D02*
X118700000Y-66500000D01*
X115800000Y-65000000D02*
X118700000Y-65000000D01*
D12*
X113996428Y-67121428D02*
X113889285Y-67157142D01*
X113853571Y-67192857D01*
X113817857Y-67264285D01*
X113817857Y-67371428D01*
X113853571Y-67442857D01*
X113889285Y-67478571D01*
X113960714Y-67514285D01*
X114246428Y-67514285D01*
X114246428Y-66764285D01*
X113996428Y-66764285D01*
X113925000Y-66800000D01*
X113889285Y-66835714D01*
X113853571Y-66907142D01*
X113853571Y-66978571D01*
X113889285Y-67050000D01*
X113925000Y-67085714D01*
X113996428Y-67121428D01*
X114246428Y-67121428D01*
X113496428Y-66764285D02*
X113496428Y-67371428D01*
X113460714Y-67442857D01*
X113425000Y-67478571D01*
X113353571Y-67514285D01*
X113210714Y-67514285D01*
X113139285Y-67478571D01*
X113103571Y-67442857D01*
X113067857Y-67371428D01*
X113067857Y-66764285D01*
X112460714Y-67121428D02*
X112710714Y-67121428D01*
X112710714Y-67514285D02*
X112710714Y-66764285D01*
X112353571Y-66764285D01*
X111817857Y-67121428D02*
X112067857Y-67121428D01*
X112067857Y-67514285D02*
X112067857Y-66764285D01*
X111710714Y-66764285D01*
X111425000Y-67121428D02*
X111175000Y-67121428D01*
X111067857Y-67514285D02*
X111425000Y-67514285D01*
X111425000Y-66764285D01*
X111067857Y-66764285D01*
X110317857Y-67514285D02*
X110567857Y-67157142D01*
X110746428Y-67514285D02*
X110746428Y-66764285D01*
X110460714Y-66764285D01*
X110389285Y-66800000D01*
X110353571Y-66835714D01*
X110317857Y-66907142D01*
X110317857Y-67014285D01*
X110353571Y-67085714D01*
X110389285Y-67121428D01*
X110460714Y-67157142D01*
X110746428Y-67157142D01*
X114692857Y-68764285D02*
X115121428Y-68764285D01*
X114907142Y-68764285D02*
X114907142Y-68014285D01*
X114978571Y-68121428D01*
X115050000Y-68192857D01*
X115121428Y-68228571D01*
X114371428Y-68692857D02*
X114335714Y-68728571D01*
X114371428Y-68764285D01*
X114407142Y-68728571D01*
X114371428Y-68692857D01*
X114371428Y-68764285D01*
X114371428Y-68300000D02*
X114335714Y-68335714D01*
X114371428Y-68371428D01*
X114407142Y-68335714D01*
X114371428Y-68300000D01*
X114371428Y-68371428D01*
X113692857Y-68264285D02*
X113692857Y-68764285D01*
X113871428Y-67978571D02*
X114050000Y-68514285D01*
X113585714Y-68514285D01*
X112478571Y-68371428D02*
X112371428Y-68407142D01*
X112335714Y-68442857D01*
X112300000Y-68514285D01*
X112300000Y-68621428D01*
X112335714Y-68692857D01*
X112371428Y-68728571D01*
X112442857Y-68764285D01*
X112728571Y-68764285D01*
X112728571Y-68014285D01*
X112478571Y-68014285D01*
X112407142Y-68050000D01*
X112371428Y-68085714D01*
X112335714Y-68157142D01*
X112335714Y-68228571D01*
X112371428Y-68300000D01*
X112407142Y-68335714D01*
X112478571Y-68371428D01*
X112728571Y-68371428D01*
X112014285Y-68550000D02*
X111657142Y-68550000D01*
X112085714Y-68764285D02*
X111835714Y-68014285D01*
X111585714Y-68764285D01*
X110978571Y-68764285D02*
X111335714Y-68764285D01*
X111335714Y-68014285D01*
X110728571Y-68014285D02*
X110728571Y-68621428D01*
X110692857Y-68692857D01*
X110657142Y-68728571D01*
X110585714Y-68764285D01*
X110442857Y-68764285D01*
X110371428Y-68728571D01*
X110335714Y-68692857D01*
X110300000Y-68621428D01*
X110300000Y-68014285D01*
X109942857Y-68764285D02*
X109942857Y-68014285D01*
X109514285Y-68764285D01*
X109514285Y-68014285D01*
X91082142Y-67664285D02*
X91046428Y-67700000D01*
X91010714Y-67807142D01*
X91010714Y-67878571D01*
X91046428Y-67985714D01*
X91117857Y-68057142D01*
X91189285Y-68092857D01*
X91332142Y-68128571D01*
X91439285Y-68128571D01*
X91582142Y-68092857D01*
X91653571Y-68057142D01*
X91725000Y-67985714D01*
X91760714Y-67878571D01*
X91760714Y-67807142D01*
X91725000Y-67700000D01*
X91689285Y-67664285D01*
X91010714Y-66985714D02*
X91010714Y-67342857D01*
X91760714Y-67342857D01*
X91760714Y-66592857D02*
X91760714Y-66450000D01*
X91725000Y-66378571D01*
X91653571Y-66307142D01*
X91510714Y-66271428D01*
X91260714Y-66271428D01*
X91117857Y-66307142D01*
X91046428Y-66378571D01*
X91010714Y-66450000D01*
X91010714Y-66592857D01*
X91046428Y-66664285D01*
X91117857Y-66735714D01*
X91260714Y-66771428D01*
X91510714Y-66771428D01*
X91653571Y-66735714D01*
X91725000Y-66664285D01*
X91760714Y-66592857D01*
X91082142Y-65521428D02*
X91046428Y-65557142D01*
X91010714Y-65664285D01*
X91010714Y-65735714D01*
X91046428Y-65842857D01*
X91117857Y-65914285D01*
X91189285Y-65950000D01*
X91332142Y-65985714D01*
X91439285Y-65985714D01*
X91582142Y-65950000D01*
X91653571Y-65914285D01*
X91725000Y-65842857D01*
X91760714Y-65735714D01*
X91760714Y-65664285D01*
X91725000Y-65557142D01*
X91689285Y-65521428D01*
X91010714Y-65200000D02*
X91760714Y-65200000D01*
X91010714Y-64771428D02*
X91439285Y-65092857D01*
X91760714Y-64771428D02*
X91332142Y-65200000D01*
X91110714Y-92360714D02*
X91860714Y-92360714D01*
X91860714Y-92182142D01*
X91825000Y-92075000D01*
X91753571Y-92003571D01*
X91682142Y-91967857D01*
X91539285Y-91932142D01*
X91432142Y-91932142D01*
X91289285Y-91967857D01*
X91217857Y-92003571D01*
X91146428Y-92075000D01*
X91110714Y-92182142D01*
X91110714Y-92360714D01*
X91146428Y-91325000D02*
X91110714Y-91396428D01*
X91110714Y-91539285D01*
X91146428Y-91610714D01*
X91217857Y-91646428D01*
X91503571Y-91646428D01*
X91575000Y-91610714D01*
X91610714Y-91539285D01*
X91610714Y-91396428D01*
X91575000Y-91325000D01*
X91503571Y-91289285D01*
X91432142Y-91289285D01*
X91360714Y-91646428D01*
X91610714Y-91075000D02*
X91610714Y-90789285D01*
X91860714Y-90967857D02*
X91217857Y-90967857D01*
X91146428Y-90932142D01*
X91110714Y-90860714D01*
X91110714Y-90789285D01*
X91146428Y-90253571D02*
X91110714Y-90325000D01*
X91110714Y-90467857D01*
X91146428Y-90539285D01*
X91217857Y-90575000D01*
X91503571Y-90575000D01*
X91575000Y-90539285D01*
X91610714Y-90467857D01*
X91610714Y-90325000D01*
X91575000Y-90253571D01*
X91503571Y-90217857D01*
X91432142Y-90217857D01*
X91360714Y-90575000D01*
X91146428Y-89575000D02*
X91110714Y-89646428D01*
X91110714Y-89789285D01*
X91146428Y-89860714D01*
X91182142Y-89896428D01*
X91253571Y-89932142D01*
X91467857Y-89932142D01*
X91539285Y-89896428D01*
X91575000Y-89860714D01*
X91610714Y-89789285D01*
X91610714Y-89646428D01*
X91575000Y-89575000D01*
X91610714Y-89360714D02*
X91610714Y-89075000D01*
X91860714Y-89253571D02*
X91217857Y-89253571D01*
X91146428Y-89217857D01*
X91110714Y-89146428D01*
X91110714Y-89075000D01*
X91110714Y-88717857D02*
X91146428Y-88789285D01*
X91182142Y-88825000D01*
X91253571Y-88860714D01*
X91467857Y-88860714D01*
X91539285Y-88825000D01*
X91575000Y-88789285D01*
X91610714Y-88717857D01*
X91610714Y-88610714D01*
X91575000Y-88539285D01*
X91539285Y-88503571D01*
X91467857Y-88467857D01*
X91253571Y-88467857D01*
X91182142Y-88503571D01*
X91146428Y-88539285D01*
X91110714Y-88610714D01*
X91110714Y-88717857D01*
X91110714Y-88146428D02*
X91610714Y-88146428D01*
X91467857Y-88146428D02*
X91539285Y-88110714D01*
X91575000Y-88075000D01*
X91610714Y-88003571D01*
X91610714Y-87932142D01*
X110582142Y-85950000D02*
X110939285Y-85950000D01*
X110510714Y-85735714D02*
X110760714Y-86485714D01*
X111010714Y-85735714D01*
X111260714Y-86485714D02*
X111260714Y-85878571D01*
X111296428Y-85807142D01*
X111332142Y-85771428D01*
X111403571Y-85735714D01*
X111546428Y-85735714D01*
X111617857Y-85771428D01*
X111653571Y-85807142D01*
X111689285Y-85878571D01*
X111689285Y-86485714D01*
X112046428Y-85735714D02*
X112046428Y-86485714D01*
X112225000Y-86485714D01*
X112332142Y-86450000D01*
X112403571Y-86378571D01*
X112439285Y-86307142D01*
X112475000Y-86164285D01*
X112475000Y-86057142D01*
X112439285Y-85914285D01*
X112403571Y-85842857D01*
X112332142Y-85771428D01*
X112225000Y-85735714D01*
X112046428Y-85735714D01*
X112796428Y-85735714D02*
X112796428Y-86485714D01*
X113296428Y-86485714D02*
X113439285Y-86485714D01*
X113510714Y-86450000D01*
X113582142Y-86378571D01*
X113617857Y-86235714D01*
X113617857Y-85985714D01*
X113582142Y-85842857D01*
X113510714Y-85771428D01*
X113439285Y-85735714D01*
X113296428Y-85735714D01*
X113225000Y-85771428D01*
X113153571Y-85842857D01*
X113117857Y-85985714D01*
X113117857Y-86235714D01*
X113153571Y-86378571D01*
X113225000Y-86450000D01*
X113296428Y-86485714D01*
X110760714Y-84700000D02*
X111117857Y-84700000D01*
X110689285Y-84485714D02*
X110939285Y-85235714D01*
X111189285Y-84485714D01*
X111439285Y-84485714D02*
X111439285Y-85235714D01*
X111689285Y-84700000D01*
X111939285Y-85235714D01*
X111939285Y-84485714D01*
X112296428Y-84485714D02*
X112296428Y-85235714D01*
X112582142Y-85235714D01*
X112653571Y-85200000D01*
X112689285Y-85164285D01*
X112725000Y-85092857D01*
X112725000Y-84985714D01*
X112689285Y-84914285D01*
X112653571Y-84878571D01*
X112582142Y-84842857D01*
X112296428Y-84842857D01*
X113010714Y-84521428D02*
X113117857Y-84485714D01*
X113296428Y-84485714D01*
X113367857Y-84521428D01*
X113403571Y-84557142D01*
X113439285Y-84628571D01*
X113439285Y-84700000D01*
X113403571Y-84771428D01*
X113367857Y-84807142D01*
X113296428Y-84842857D01*
X113153571Y-84878571D01*
X113082142Y-84914285D01*
X113046428Y-84950000D01*
X113010714Y-85021428D01*
X113010714Y-85092857D01*
X113046428Y-85164285D01*
X113082142Y-85200000D01*
X113153571Y-85235714D01*
X113332142Y-85235714D01*
X113439285Y-85200000D01*
D10*
X119500000Y-78450000D02*
X119500000Y-92550000D01*
X104500000Y-78450000D02*
X119500000Y-78450000D01*
X104500000Y-92550000D02*
X104500000Y-78450000D01*
X119500000Y-92550000D02*
X104500000Y-92550000D01*
X84450000Y-58750000D02*
X99550000Y-58750000D01*
X84450000Y-72750000D02*
X84450000Y-58750000D01*
X99550000Y-72750000D02*
X84450000Y-72750000D01*
X99550000Y-58750000D02*
X99550000Y-72750000D01*
X103400000Y-76100000D02*
X103400000Y-58400000D01*
X121100000Y-76100000D02*
X103400000Y-76100000D01*
X121100000Y-58400000D02*
X121100000Y-76100000D01*
X103400000Y-58400000D02*
X121100000Y-58400000D01*
X100950000Y-81100000D02*
X100950000Y-81200000D01*
X83050000Y-81100000D02*
X100950000Y-81100000D01*
X83050000Y-99000000D02*
X83050000Y-81100000D01*
X100950000Y-99000000D02*
X83050000Y-99000000D01*
X100950000Y-81200000D02*
X100950000Y-99000000D01*
X86250000Y-60950000D02*
X87750000Y-60950000D01*
X86250000Y-64050000D02*
X86250000Y-60950000D01*
X87750000Y-64050000D02*
X86250000Y-64050000D01*
X87750000Y-60950000D02*
X87750000Y-64050000D01*
X89450000Y-60950000D02*
X89550000Y-60950000D01*
X88050000Y-60950000D02*
X89450000Y-60950000D01*
X88050000Y-64050000D02*
X88050000Y-60950000D01*
X89550000Y-64050000D02*
X88050000Y-64050000D01*
X89550000Y-60950000D02*
X89550000Y-64050000D01*
X89750000Y-60950000D02*
X91250000Y-60950000D01*
X89750000Y-64050000D02*
X89750000Y-60950000D01*
X91250000Y-64050000D02*
X89750000Y-64050000D01*
X91250000Y-60950000D02*
X91250000Y-64050000D01*
X97950000Y-68250000D02*
X97950000Y-66750000D01*
X94950000Y-68250000D02*
X97950000Y-68250000D01*
X94950000Y-66750000D02*
X94950000Y-68250000D01*
X97950000Y-66750000D02*
X94950000Y-66750000D01*
X97950000Y-66450000D02*
X97950000Y-65050000D01*
X94950000Y-66450000D02*
X97950000Y-66450000D01*
X94950000Y-65050000D02*
X94950000Y-66450000D01*
X97950000Y-65050000D02*
X94950000Y-65050000D01*
X91650000Y-60750000D02*
X95850000Y-60750000D01*
X91650000Y-64250000D02*
X91650000Y-60750000D01*
X95850000Y-64250000D02*
X91650000Y-64250000D01*
X95850000Y-60750000D02*
X95850000Y-64250000D01*
X96250000Y-60950000D02*
X97750000Y-60950000D01*
X96250000Y-64050000D02*
X96250000Y-60950000D01*
X97750000Y-64050000D02*
X96250000Y-64050000D01*
X97750000Y-60950000D02*
X97750000Y-64050000D01*
X109500000Y-87750000D02*
X109500000Y-90750000D01*
X108000000Y-87750000D02*
X109500000Y-87750000D01*
X108000000Y-90750000D02*
X108000000Y-87750000D01*
X109500000Y-90750000D02*
X108000000Y-90750000D01*
X111500000Y-87750000D02*
X111500000Y-90750000D01*
X110000000Y-87750000D02*
X111500000Y-87750000D01*
X110000000Y-90750000D02*
X110000000Y-87750000D01*
X111500000Y-90750000D02*
X110000000Y-90750000D01*
X113500000Y-87750000D02*
X113500000Y-90750000D01*
X112000000Y-87750000D02*
X113500000Y-87750000D01*
X112000000Y-90750000D02*
X112000000Y-87750000D01*
X113500000Y-90750000D02*
X112000000Y-90750000D01*
X110000000Y-83750000D02*
X110000000Y-85250000D01*
X107000000Y-83750000D02*
X110000000Y-83750000D01*
X107000000Y-85250000D02*
X107000000Y-83750000D01*
X110000000Y-85250000D02*
X107000000Y-85250000D01*
X110000000Y-85750000D02*
X110000000Y-87250000D01*
X107000000Y-85750000D02*
X110000000Y-85750000D01*
X107000000Y-87250000D02*
X107000000Y-85750000D01*
X110000000Y-87250000D02*
X107000000Y-87250000D01*
X109500000Y-80250000D02*
X109500000Y-83250000D01*
X108000000Y-80250000D02*
X109500000Y-80250000D01*
X108000000Y-83250000D02*
X108000000Y-80250000D01*
X109500000Y-83250000D02*
X108000000Y-83250000D01*
X111500000Y-80250000D02*
X111500000Y-83250000D01*
X110000000Y-80250000D02*
X111500000Y-80250000D01*
X110000000Y-83250000D02*
X110000000Y-80250000D01*
X111500000Y-83250000D02*
X110000000Y-83250000D01*
X113500000Y-80250000D02*
X113500000Y-83250000D01*
X112000000Y-80250000D02*
X113500000Y-80250000D01*
X112000000Y-83250000D02*
X112000000Y-80250000D01*
X113500000Y-83250000D02*
X112000000Y-83250000D01*
X114300000Y-82250000D02*
X117200000Y-82250000D01*
X114300000Y-80750000D02*
X114300000Y-82250000D01*
X117200000Y-80750000D02*
X114300000Y-80750000D01*
X117200000Y-82250000D02*
X117200000Y-80750000D01*
X114500000Y-85450000D02*
X117500000Y-85450000D01*
X114500000Y-83950000D02*
X114500000Y-85450000D01*
X117500000Y-83950000D02*
X114500000Y-83950000D01*
X117500000Y-85450000D02*
X117500000Y-83950000D01*
X117500000Y-85750000D02*
X117500000Y-87250000D01*
X114500000Y-85750000D02*
X117500000Y-85750000D01*
X114500000Y-87250000D02*
X114500000Y-85750000D01*
X117500000Y-87250000D02*
X114500000Y-87250000D01*
X114200000Y-90250000D02*
X117200000Y-90250000D01*
X114200000Y-88750000D02*
X114200000Y-90250000D01*
X117200000Y-88750000D02*
X114200000Y-88750000D01*
X117200000Y-90250000D02*
X117200000Y-88750000D01*
X84750000Y-95600000D02*
X87750000Y-95600000D01*
X87750000Y-93700000D02*
X84750000Y-93700000D01*
X87750000Y-91900000D02*
X84750000Y-91900000D01*
X84750000Y-90000000D02*
X87750000Y-90000000D01*
X87750000Y-88100000D02*
X84750000Y-88100000D01*
X84750000Y-86300000D02*
X87750000Y-86300000D01*
X87750000Y-84400000D02*
X84750000Y-84400000D01*
X87750000Y-97300000D02*
X87750000Y-82800000D01*
X84750000Y-97300000D02*
X87750000Y-97300000D01*
X84750000Y-82800000D02*
X84750000Y-97300000D01*
X87750000Y-82800000D02*
X84750000Y-82800000D01*
X119300000Y-60500000D02*
X117800000Y-60500000D01*
X119300000Y-63500000D02*
X119300000Y-60500000D01*
X117800000Y-63500000D02*
X119300000Y-63500000D01*
X117800000Y-60500000D02*
X117800000Y-63500000D01*
X117450000Y-60300000D02*
X115550000Y-60300000D01*
X117450000Y-63700000D02*
X117450000Y-60300000D01*
X115550000Y-63700000D02*
X117450000Y-63700000D01*
X115550000Y-60300000D02*
X115550000Y-63700000D01*
X113550000Y-63250000D02*
X113550000Y-60250000D01*
X115050000Y-63250000D02*
X113550000Y-63250000D01*
X115050000Y-60250000D02*
X115050000Y-63250000D01*
X113550000Y-60250000D02*
X115050000Y-60250000D01*
X113250000Y-60250000D02*
X111750000Y-60250000D01*
X113250000Y-63250000D02*
X113250000Y-60250000D01*
X111750000Y-63250000D02*
X113250000Y-63250000D01*
X111750000Y-60250000D02*
X111750000Y-63250000D01*
X111500000Y-60250000D02*
X110000000Y-60250000D01*
X111500000Y-60250000D02*
X111500000Y-63250000D01*
X110000000Y-63250000D02*
X111500000Y-63250000D01*
X110000000Y-60250000D02*
X110000000Y-63250000D01*
X108250000Y-60250000D02*
X108250000Y-63250000D01*
X109750000Y-60250000D02*
X108250000Y-60250000D01*
X109750000Y-63250000D02*
X109750000Y-60250000D01*
X108250000Y-63250000D02*
X109750000Y-63250000D01*
X108000000Y-62250000D02*
X105000000Y-62250000D01*
X108000000Y-63750000D02*
X108000000Y-62250000D01*
X105000000Y-63750000D02*
X108000000Y-63750000D01*
X105000000Y-62250000D02*
X105000000Y-63750000D01*
X108000000Y-64250000D02*
X105000000Y-64250000D01*
X108000000Y-65750000D02*
X108000000Y-64250000D01*
X105000000Y-65750000D02*
X108000000Y-65750000D01*
X105000000Y-64250000D02*
X105000000Y-65750000D01*
X105000000Y-67250000D02*
X105000000Y-67000000D01*
X105000000Y-68500000D02*
X105000000Y-67250000D01*
X108000000Y-68500000D02*
X105000000Y-68500000D01*
X108000000Y-67000000D02*
X108000000Y-68500000D01*
X105000000Y-67000000D02*
X108000000Y-67000000D01*
D13*
X80250000Y-115580000D02*
X81580000Y-115580000D01*
X81580000Y-115580000D02*
X81580000Y-114250000D01*
X78980000Y-115580000D02*
X78980000Y-112980000D01*
X78980000Y-112980000D02*
X81580000Y-112980000D01*
X81580000Y-112980000D02*
X81580000Y-64660000D01*
X76380000Y-64660000D02*
X81580000Y-64660000D01*
X76380000Y-115580000D02*
X76380000Y-64660000D01*
X76380000Y-115580000D02*
X78980000Y-115580000D01*
M02*
