G04 #@! TF.GenerationSoftware,KiCad,Pcbnew,(5.1.4)-1*
G04 #@! TF.CreationDate,2019-10-26T22:21:00+02:00*
G04 #@! TF.ProjectId,rf-receiver,72662d72-6563-4656-9976-65722e6b6963,rev?*
G04 #@! TF.SameCoordinates,Original*
G04 #@! TF.FileFunction,Legend,Top*
G04 #@! TF.FilePolarity,Positive*
%FSLAX46Y46*%
G04 Gerber Fmt 4.6, Leading zero omitted, Abs format (unit mm)*
G04 Created by KiCad (PCBNEW (5.1.4)-1) date 2019-10-26 22:21:00*
%MOMM*%
%LPD*%
G04 APERTURE LIST*
%ADD10C,0.125000*%
%ADD11C,0.120000*%
%ADD12C,0.150000*%
%ADD13C,0.100000*%
G04 APERTURE END LIST*
D10*
X121164285Y-113421428D02*
X121926190Y-113421428D01*
X121545238Y-113802380D02*
X121545238Y-113040476D01*
X122878571Y-112802380D02*
X122402380Y-112802380D01*
X122354761Y-113278571D01*
X122402380Y-113230952D01*
X122497619Y-113183333D01*
X122735714Y-113183333D01*
X122830952Y-113230952D01*
X122878571Y-113278571D01*
X122926190Y-113373809D01*
X122926190Y-113611904D01*
X122878571Y-113707142D01*
X122830952Y-113754761D01*
X122735714Y-113802380D01*
X122497619Y-113802380D01*
X122402380Y-113754761D01*
X122354761Y-113707142D01*
X123211904Y-112802380D02*
X123545238Y-113802380D01*
X123878571Y-112802380D01*
X113738095Y-112850000D02*
X113642857Y-112802380D01*
X113500000Y-112802380D01*
X113357142Y-112850000D01*
X113261904Y-112945238D01*
X113214285Y-113040476D01*
X113166666Y-113230952D01*
X113166666Y-113373809D01*
X113214285Y-113564285D01*
X113261904Y-113659523D01*
X113357142Y-113754761D01*
X113500000Y-113802380D01*
X113595238Y-113802380D01*
X113738095Y-113754761D01*
X113785714Y-113707142D01*
X113785714Y-113373809D01*
X113595238Y-113373809D01*
X114214285Y-113802380D02*
X114214285Y-112802380D01*
X114785714Y-113802380D01*
X114785714Y-112802380D01*
X115261904Y-113802380D02*
X115261904Y-112802380D01*
X115500000Y-112802380D01*
X115642857Y-112850000D01*
X115738095Y-112945238D01*
X115785714Y-113040476D01*
X115833333Y-113230952D01*
X115833333Y-113373809D01*
X115785714Y-113564285D01*
X115738095Y-113659523D01*
X115642857Y-113754761D01*
X115500000Y-113802380D01*
X115261904Y-113802380D01*
X121071428Y-92011904D02*
X121071428Y-91250000D01*
X121452380Y-90250000D02*
X121452380Y-90821428D01*
X121452380Y-90535714D02*
X120452380Y-90535714D01*
X120595238Y-90630952D01*
X120690476Y-90726190D01*
X120738095Y-90821428D01*
X120547619Y-89869047D02*
X120500000Y-89821428D01*
X120452380Y-89726190D01*
X120452380Y-89488095D01*
X120500000Y-89392857D01*
X120547619Y-89345238D01*
X120642857Y-89297619D01*
X120738095Y-89297619D01*
X120880952Y-89345238D01*
X121452380Y-89916666D01*
X121452380Y-89297619D01*
X120452380Y-89011904D02*
X121452380Y-88678571D01*
X120452380Y-88345238D01*
X121071428Y-82311904D02*
X121071428Y-81550000D01*
X121452380Y-81930952D02*
X120690476Y-81930952D01*
X121452380Y-80550000D02*
X121452380Y-81121428D01*
X121452380Y-80835714D02*
X120452380Y-80835714D01*
X120595238Y-80930952D01*
X120690476Y-81026190D01*
X120738095Y-81121428D01*
X120547619Y-80169047D02*
X120500000Y-80121428D01*
X120452380Y-80026190D01*
X120452380Y-79788095D01*
X120500000Y-79692857D01*
X120547619Y-79645238D01*
X120642857Y-79597619D01*
X120738095Y-79597619D01*
X120880952Y-79645238D01*
X121452380Y-80216666D01*
X121452380Y-79597619D01*
X120452380Y-79311904D02*
X121452380Y-78978571D01*
X120452380Y-78645238D01*
D11*
X115587221Y-90010000D02*
X115912779Y-90010000D01*
X115587221Y-88990000D02*
X115912779Y-88990000D01*
X119300000Y-115450000D02*
X119300000Y-118600000D01*
X117600000Y-115450000D02*
X117600000Y-118600000D01*
X119300000Y-115450000D02*
X117600000Y-115450000D01*
D12*
X84000000Y-73750000D02*
G75*
G03X84000000Y-73750000I-750000J0D01*
G01*
X84000000Y-66250000D02*
G75*
G03X84000000Y-66250000I-750000J0D01*
G01*
X84000000Y-60500000D02*
G75*
G03X84000000Y-60500000I-750000J0D01*
G01*
X110750000Y-107500000D02*
G75*
G03X110750000Y-107500000I-750000J0D01*
G01*
X106000000Y-95000000D02*
G75*
G03X106000000Y-95000000I-750000J0D01*
G01*
X111250000Y-96000000D02*
G75*
G03X111250000Y-96000000I-750000J0D01*
G01*
X91950000Y-101150000D02*
G75*
G03X91950000Y-101150000I-750000J0D01*
G01*
X87650000Y-101150000D02*
G75*
G03X87650000Y-101150000I-750000J0D01*
G01*
X102250000Y-60750000D02*
G75*
G03X102250000Y-60750000I-750000J0D01*
G01*
X102000000Y-72250000D02*
G75*
G03X102000000Y-72250000I-750000J0D01*
G01*
X97350000Y-101500000D02*
G75*
G03X97350000Y-101500000I-750000J0D01*
G01*
X124000000Y-74500000D02*
G75*
G03X124000000Y-74500000I-750000J0D01*
G01*
X124000000Y-67750000D02*
G75*
G03X124000000Y-67750000I-750000J0D01*
G01*
X102250000Y-67000000D02*
G75*
G03X102250000Y-67000000I-750000J0D01*
G01*
X85000000Y-101300000D02*
G75*
G03X85000000Y-101300000I-750000J0D01*
G01*
D11*
X122500000Y-98040000D02*
X119050000Y-98040000D01*
X122500000Y-98040000D02*
X124450000Y-98040000D01*
X122500000Y-103160000D02*
X120550000Y-103160000D01*
X122500000Y-103160000D02*
X124450000Y-103160000D01*
X84991422Y-109160000D02*
X85508578Y-109160000D01*
X84991422Y-107740000D02*
X85508578Y-107740000D01*
X119110000Y-105612779D02*
X119110000Y-105287221D01*
X118090000Y-105612779D02*
X118090000Y-105287221D01*
X122510000Y-105612779D02*
X122510000Y-105287221D01*
X121490000Y-105612779D02*
X121490000Y-105287221D01*
X120810000Y-105612779D02*
X120810000Y-105287221D01*
X119790000Y-105612779D02*
X119790000Y-105287221D01*
X84991422Y-106460000D02*
X85508578Y-106460000D01*
X84991422Y-105040000D02*
X85508578Y-105040000D01*
X127920000Y-97670000D02*
X129250000Y-97670000D01*
X127920000Y-99000000D02*
X127920000Y-97670000D01*
X127920000Y-100270000D02*
X130580000Y-100270000D01*
X130580000Y-100270000D02*
X130580000Y-102870000D01*
X127920000Y-100270000D02*
X127920000Y-102870000D01*
X127920000Y-102870000D02*
X130580000Y-102870000D01*
X92085000Y-107315000D02*
X88200000Y-107315000D01*
X92085000Y-109585000D02*
X92085000Y-107315000D01*
X88200000Y-109585000D02*
X92085000Y-109585000D01*
X92085000Y-104615000D02*
X88200000Y-104615000D01*
X92085000Y-106885000D02*
X92085000Y-104615000D01*
X88200000Y-106885000D02*
X92085000Y-106885000D01*
X125112779Y-104290000D02*
X124787221Y-104290000D01*
X125112779Y-105310000D02*
X124787221Y-105310000D01*
X91675000Y-114650000D02*
X88000000Y-114650000D01*
X91675000Y-116400000D02*
X91675000Y-114650000D01*
X84325000Y-114650000D02*
X88000000Y-114650000D01*
X84325000Y-116400000D02*
X84325000Y-114650000D01*
X84325000Y-121850000D02*
X88000000Y-121850000D01*
X84325000Y-120100000D02*
X84325000Y-121850000D01*
X91675000Y-121850000D02*
X88000000Y-121850000D01*
X91675000Y-120100000D02*
X91675000Y-121850000D01*
X85210000Y-111758578D02*
X85210000Y-111241422D01*
X83790000Y-111758578D02*
X83790000Y-111241422D01*
D12*
X123650000Y-94900000D02*
X123650000Y-94300000D01*
X123650000Y-93350000D02*
X123650000Y-93750000D01*
X120450000Y-93350000D02*
X123650000Y-93350000D01*
X120450000Y-93750000D02*
X120450000Y-93350000D01*
X120450000Y-94900000D02*
X120450000Y-94300000D01*
X120450000Y-95850000D02*
X120450000Y-95450000D01*
X123650000Y-95850000D02*
X123650000Y-95450000D01*
X120450000Y-95850000D02*
X123650000Y-95850000D01*
X123950000Y-85850000D02*
X123950000Y-85250000D01*
X123950000Y-84300000D02*
X123950000Y-84700000D01*
X120750000Y-84300000D02*
X123950000Y-84300000D01*
X120750000Y-84700000D02*
X120750000Y-84300000D01*
X120750000Y-85850000D02*
X120750000Y-85250000D01*
X120750000Y-86800000D02*
X120750000Y-86400000D01*
X123950000Y-86800000D02*
X123950000Y-86400000D01*
X120750000Y-86800000D02*
X123950000Y-86800000D01*
D11*
X100991422Y-79460000D02*
X101508578Y-79460000D01*
X100991422Y-78040000D02*
X101508578Y-78040000D01*
X104760000Y-108412779D02*
X104760000Y-108087221D01*
X103740000Y-108412779D02*
X103740000Y-108087221D01*
X125910000Y-94762779D02*
X125910000Y-94437221D01*
X124890000Y-94762779D02*
X124890000Y-94437221D01*
X126360000Y-85712779D02*
X126360000Y-85387221D01*
X125340000Y-85712779D02*
X125340000Y-85387221D01*
X102710000Y-108508578D02*
X102710000Y-107991422D01*
X101290000Y-108508578D02*
X101290000Y-107991422D01*
X128110000Y-94858578D02*
X128110000Y-94341422D01*
X126690000Y-94858578D02*
X126690000Y-94341422D01*
X128560000Y-85808578D02*
X128560000Y-85291422D01*
X127140000Y-85808578D02*
X127140000Y-85291422D01*
X94008750Y-115793750D02*
X94796250Y-115793750D01*
X94402500Y-116187500D02*
X94402500Y-115400000D01*
X98595563Y-115160000D02*
X99660000Y-114095563D01*
X93904437Y-115160000D02*
X92840000Y-114095563D01*
X93904437Y-115160000D02*
X95190000Y-115160000D01*
X98595563Y-115160000D02*
X97310000Y-115160000D01*
X99660000Y-114095563D02*
X99660000Y-108340000D01*
X92840000Y-114095563D02*
X92840000Y-108340000D01*
X92840000Y-108340000D02*
X95190000Y-108340000D01*
X99660000Y-108340000D02*
X97310000Y-108340000D01*
D12*
X93800000Y-87700000D02*
X89100000Y-87700000D01*
X89100000Y-92300000D02*
X89690000Y-92900000D01*
X89100000Y-92300000D02*
X89100000Y-87700000D01*
X93800000Y-92900000D02*
X89690000Y-92900000D01*
X93800000Y-87700000D02*
X93800000Y-92900000D01*
X94150000Y-87600000D02*
X94750000Y-87600000D01*
X94150000Y-83900000D02*
X94150000Y-87600000D01*
X94750000Y-83900000D02*
X94150000Y-83900000D01*
X98350000Y-83900000D02*
X97750000Y-83900000D01*
X98350000Y-84500000D02*
X98350000Y-83900000D01*
X97750000Y-87600000D02*
X98350000Y-87000000D01*
X97750000Y-87600000D02*
X94750000Y-87600000D01*
X98350000Y-84500000D02*
X98350000Y-87000000D01*
X94750000Y-83900000D02*
X97750000Y-83900000D01*
X109750000Y-116500000D02*
X109750000Y-110500000D01*
X102750000Y-110500000D02*
X102750000Y-116500000D01*
X109750000Y-110500000D02*
X102750000Y-110500000D01*
X109750000Y-116500000D02*
X102750000Y-116500000D01*
D11*
X98750000Y-78060000D02*
X98750000Y-77560000D01*
X99000000Y-77810000D02*
X98500000Y-77810000D01*
X98260000Y-75054437D02*
X97195563Y-73990000D01*
X98260000Y-77445563D02*
X97195563Y-78510000D01*
X98260000Y-77445563D02*
X98260000Y-77310000D01*
X98260000Y-75054437D02*
X98260000Y-75190000D01*
X97195563Y-73990000D02*
X93740000Y-73990000D01*
X97195563Y-78510000D02*
X93740000Y-78510000D01*
X93740000Y-78510000D02*
X93740000Y-77310000D01*
X93740000Y-73990000D02*
X93740000Y-75190000D01*
X108337221Y-85010000D02*
X108662779Y-85010000D01*
X108337221Y-83990000D02*
X108662779Y-83990000D01*
X89837221Y-78510000D02*
X90162779Y-78510000D01*
X89837221Y-77490000D02*
X90162779Y-77490000D01*
X89837221Y-75010000D02*
X90162779Y-75010000D01*
X89837221Y-73990000D02*
X90162779Y-73990000D01*
X104240000Y-100087221D02*
X104240000Y-100412779D01*
X105260000Y-100087221D02*
X105260000Y-100412779D01*
X108490000Y-61587221D02*
X108490000Y-61912779D01*
X109510000Y-61587221D02*
X109510000Y-61912779D01*
X106337221Y-65510000D02*
X106662779Y-65510000D01*
X106337221Y-64490000D02*
X106662779Y-64490000D01*
X107260000Y-100087221D02*
X107260000Y-100412779D01*
X106240000Y-100087221D02*
X106240000Y-100412779D01*
X116162779Y-84240000D02*
X115837221Y-84240000D01*
X116162779Y-85260000D02*
X115837221Y-85260000D01*
X89800000Y-72250000D02*
X88200000Y-72250000D01*
X89800000Y-59250000D02*
X88200000Y-59250000D01*
X95800000Y-72250000D02*
X94200000Y-72250000D01*
X95800000Y-59250000D02*
X94200000Y-59250000D01*
X85020000Y-67950000D02*
X85020000Y-69550000D01*
X98980000Y-67950000D02*
X98980000Y-69550000D01*
X85020000Y-61950000D02*
X85020000Y-63550000D01*
X98980000Y-61950000D02*
X98980000Y-63550000D01*
X109800000Y-92000000D02*
X108200000Y-92000000D01*
X109800000Y-79000000D02*
X108200000Y-79000000D01*
X115800000Y-92000000D02*
X114200000Y-92000000D01*
X115800000Y-79000000D02*
X114200000Y-79000000D01*
X105020000Y-87700000D02*
X105020000Y-89300000D01*
X118980000Y-87700000D02*
X118980000Y-89300000D01*
X105020000Y-81700000D02*
X105020000Y-83300000D01*
X118980000Y-81700000D02*
X118980000Y-83300000D01*
X83600000Y-87800000D02*
X83600000Y-86200000D01*
X100400000Y-87800000D02*
X100400000Y-86200000D01*
X83600000Y-93800000D02*
X83600000Y-92200000D01*
X100400000Y-93800000D02*
X100400000Y-92200000D01*
X89800000Y-81600000D02*
X88200000Y-81600000D01*
X89800000Y-98400000D02*
X88200000Y-98400000D01*
X95800000Y-81600000D02*
X94200000Y-81600000D01*
X95800000Y-98400000D02*
X94200000Y-98400000D01*
X120650000Y-69450000D02*
X120650000Y-71050000D01*
X103850000Y-69450000D02*
X103850000Y-71050000D01*
X120650000Y-63450000D02*
X120650000Y-65050000D01*
X103850000Y-63450000D02*
X103850000Y-65050000D01*
X114450000Y-75650000D02*
X116050000Y-75650000D01*
X114450000Y-58850000D02*
X116050000Y-58850000D01*
X108450000Y-75650000D02*
X110050000Y-75650000D01*
X108450000Y-58850000D02*
X110050000Y-58850000D01*
X111140000Y-84000000D02*
X111140000Y-87000000D01*
X113360000Y-85500000D02*
X113360000Y-87000000D01*
X113750000Y-98880000D02*
X115080000Y-98880000D01*
X115080000Y-98880000D02*
X115080000Y-100210000D01*
X115080000Y-101480000D02*
X115080000Y-111700000D01*
X112420000Y-111700000D02*
X115080000Y-111700000D01*
X112420000Y-101480000D02*
X112420000Y-111700000D01*
X112420000Y-101480000D02*
X115080000Y-101480000D01*
X95750000Y-60850000D02*
X91750000Y-60850000D01*
X95750000Y-64150000D02*
X95750000Y-60850000D01*
X84640000Y-75600000D02*
X84640000Y-78050000D01*
X87860000Y-77400000D02*
X87860000Y-75600000D01*
X88240000Y-62337221D02*
X88240000Y-62662779D01*
X89260000Y-62337221D02*
X89260000Y-62662779D01*
X86490000Y-62337221D02*
X86490000Y-62662779D01*
X87510000Y-62337221D02*
X87510000Y-62662779D01*
X107990000Y-100087221D02*
X107990000Y-100412779D01*
X109010000Y-100087221D02*
X109010000Y-100412779D01*
X89837221Y-76760000D02*
X90162779Y-76760000D01*
X89837221Y-75740000D02*
X90162779Y-75740000D01*
X96662779Y-65240000D02*
X96337221Y-65240000D01*
X96662779Y-66260000D02*
X96337221Y-66260000D01*
X96337221Y-68010000D02*
X96662779Y-68010000D01*
X96337221Y-66990000D02*
X96662779Y-66990000D01*
X97510000Y-62662779D02*
X97510000Y-62337221D01*
X96490000Y-62662779D02*
X96490000Y-62337221D01*
X89990000Y-62337221D02*
X89990000Y-62662779D01*
X91010000Y-62337221D02*
X91010000Y-62662779D01*
D13*
X92850000Y-67800000D02*
X94050000Y-67800000D01*
X92550000Y-68100000D02*
X92850000Y-67800000D01*
X92850000Y-64900000D02*
X92850000Y-65200000D01*
X92550000Y-64900000D02*
X92850000Y-64900000D01*
X89650000Y-64900000D02*
X89950000Y-64900000D01*
X89650000Y-65200000D02*
X89650000Y-64900000D01*
X89650000Y-68100000D02*
X89650000Y-67800000D01*
X89950000Y-68100000D02*
X89650000Y-68100000D01*
D11*
X115587221Y-82010000D02*
X115912779Y-82010000D01*
X115587221Y-80990000D02*
X115912779Y-80990000D01*
X108337221Y-87010000D02*
X108662779Y-87010000D01*
X108337221Y-85990000D02*
X108662779Y-85990000D01*
X115790000Y-61741422D02*
X115790000Y-62258578D01*
X117210000Y-61741422D02*
X117210000Y-62258578D01*
X110240000Y-89412779D02*
X110240000Y-89087221D01*
X111260000Y-89412779D02*
X111260000Y-89087221D01*
X113260000Y-89412779D02*
X113260000Y-89087221D01*
X112240000Y-89412779D02*
X112240000Y-89087221D01*
X93760000Y-95587221D02*
X93760000Y-95912779D01*
X92740000Y-95587221D02*
X92740000Y-95912779D01*
X106662779Y-67240000D02*
X106337221Y-67240000D01*
X106662779Y-68260000D02*
X106337221Y-68260000D01*
X97587221Y-88740000D02*
X97912779Y-88740000D01*
X97587221Y-89760000D02*
X97912779Y-89760000D01*
X117412779Y-69240000D02*
X117087221Y-69240000D01*
X117412779Y-70260000D02*
X117087221Y-70260000D01*
X106337221Y-62490000D02*
X106662779Y-62490000D01*
X106337221Y-63510000D02*
X106662779Y-63510000D01*
X117990000Y-62162779D02*
X117990000Y-61837221D01*
X119010000Y-62162779D02*
X119010000Y-61837221D01*
X92010000Y-95587221D02*
X92010000Y-95912779D01*
X90990000Y-95587221D02*
X90990000Y-95912779D01*
X86412779Y-92240000D02*
X86087221Y-92240000D01*
X86412779Y-93260000D02*
X86087221Y-93260000D01*
X86412779Y-95260000D02*
X86087221Y-95260000D01*
X86412779Y-94240000D02*
X86087221Y-94240000D01*
X86412779Y-97010000D02*
X86087221Y-97010000D01*
X86412779Y-95990000D02*
X86087221Y-95990000D01*
X110240000Y-61587221D02*
X110240000Y-61912779D01*
X111260000Y-61587221D02*
X111260000Y-61912779D01*
X86412779Y-88490000D02*
X86087221Y-88490000D01*
X86412779Y-89510000D02*
X86087221Y-89510000D01*
X86397779Y-87760000D02*
X86072221Y-87760000D01*
X86397779Y-86740000D02*
X86072221Y-86740000D01*
X86412779Y-84740000D02*
X86087221Y-84740000D01*
X86412779Y-85760000D02*
X86087221Y-85760000D01*
X86412779Y-84010000D02*
X86087221Y-84010000D01*
X86412779Y-82990000D02*
X86087221Y-82990000D01*
X116162779Y-85990000D02*
X115837221Y-85990000D01*
X116162779Y-87010000D02*
X115837221Y-87010000D01*
X111260000Y-81587221D02*
X111260000Y-81912779D01*
X110240000Y-81587221D02*
X110240000Y-81912779D01*
X86412779Y-90490000D02*
X86087221Y-90490000D01*
X86412779Y-91510000D02*
X86087221Y-91510000D01*
X123490000Y-110912779D02*
X123490000Y-110587221D01*
X124510000Y-110912779D02*
X124510000Y-110587221D01*
X123490000Y-107337221D02*
X123490000Y-107662779D01*
X124510000Y-107337221D02*
X124510000Y-107662779D01*
X108240000Y-81587221D02*
X108240000Y-81912779D01*
X109260000Y-81587221D02*
X109260000Y-81912779D01*
X101087221Y-75260000D02*
X101412779Y-75260000D01*
X101087221Y-74240000D02*
X101412779Y-74240000D01*
X101087221Y-75990000D02*
X101412779Y-75990000D01*
X101087221Y-77010000D02*
X101412779Y-77010000D01*
X109260000Y-89412779D02*
X109260000Y-89087221D01*
X108240000Y-89412779D02*
X108240000Y-89087221D01*
X112240000Y-81587221D02*
X112240000Y-81912779D01*
X113260000Y-81587221D02*
X113260000Y-81912779D01*
X114810000Y-61912779D02*
X114810000Y-61587221D01*
X113790000Y-61912779D02*
X113790000Y-61587221D01*
X111990000Y-61587221D02*
X111990000Y-61912779D01*
X113010000Y-61587221D02*
X113010000Y-61912779D01*
X117087221Y-65240000D02*
X117412779Y-65240000D01*
X117087221Y-66260000D02*
X117412779Y-66260000D01*
X126510000Y-107337221D02*
X126510000Y-107662779D01*
X125490000Y-107337221D02*
X125490000Y-107662779D01*
X125490000Y-110587221D02*
X125490000Y-110912779D01*
X126510000Y-110587221D02*
X126510000Y-110912779D01*
X117087221Y-67240000D02*
X117412779Y-67240000D01*
X117087221Y-68260000D02*
X117412779Y-68260000D01*
X125040000Y-71000000D02*
X125540000Y-70750000D01*
X125040000Y-70500000D02*
X125040000Y-71000000D01*
X125540000Y-70750000D02*
X125040000Y-70500000D01*
X105850000Y-105610000D02*
X107650000Y-105610000D01*
X107650000Y-102390000D02*
X105200000Y-102390000D01*
X112150000Y-64890000D02*
X110350000Y-64890000D01*
X110350000Y-68110000D02*
X113300000Y-68110000D01*
X127920000Y-112410000D02*
X130580000Y-112410000D01*
X127920000Y-107270000D02*
X127920000Y-112410000D01*
X130580000Y-107270000D02*
X130580000Y-112410000D01*
X127920000Y-107270000D02*
X130580000Y-107270000D01*
X127920000Y-106000000D02*
X127920000Y-104670000D01*
X127920000Y-104670000D02*
X129250000Y-104670000D01*
D12*
X112900000Y-69850000D02*
X111100000Y-69850000D01*
X112900000Y-73650000D02*
X112900000Y-69850000D01*
X111100000Y-73650000D02*
X112900000Y-73650000D01*
X111100000Y-69850000D02*
X111100000Y-73650000D01*
M02*
