G04 #@! TF.GenerationSoftware,KiCad,Pcbnew,(5.1.4)-1*
G04 #@! TF.CreationDate,2019-12-12T20:12:38+01:00*
G04 #@! TF.ProjectId,rf-receiver,72662d72-6563-4656-9976-65722e6b6963,Rev 2*
G04 #@! TF.SameCoordinates,Original*
G04 #@! TF.FileFunction,Legend,Top*
G04 #@! TF.FilePolarity,Positive*
%FSLAX46Y46*%
G04 Gerber Fmt 4.6, Leading zero omitted, Abs format (unit mm)*
G04 Created by KiCad (PCBNEW (5.1.4)-1) date 2019-12-12 20:12:38*
%MOMM*%
%LPD*%
G04 APERTURE LIST*
%ADD10C,0.125000*%
%ADD11C,0.120000*%
%ADD12C,0.150000*%
%ADD13C,0.100000*%
G04 APERTURE END LIST*
D10*
X121164285Y-113421428D02*
X121926190Y-113421428D01*
X121545238Y-113802380D02*
X121545238Y-113040476D01*
X122878571Y-112802380D02*
X122402380Y-112802380D01*
X122354761Y-113278571D01*
X122402380Y-113230952D01*
X122497619Y-113183333D01*
X122735714Y-113183333D01*
X122830952Y-113230952D01*
X122878571Y-113278571D01*
X122926190Y-113373809D01*
X122926190Y-113611904D01*
X122878571Y-113707142D01*
X122830952Y-113754761D01*
X122735714Y-113802380D01*
X122497619Y-113802380D01*
X122402380Y-113754761D01*
X122354761Y-113707142D01*
X123211904Y-112802380D02*
X123545238Y-113802380D01*
X123878571Y-112802380D01*
X113738095Y-112850000D02*
X113642857Y-112802380D01*
X113500000Y-112802380D01*
X113357142Y-112850000D01*
X113261904Y-112945238D01*
X113214285Y-113040476D01*
X113166666Y-113230952D01*
X113166666Y-113373809D01*
X113214285Y-113564285D01*
X113261904Y-113659523D01*
X113357142Y-113754761D01*
X113500000Y-113802380D01*
X113595238Y-113802380D01*
X113738095Y-113754761D01*
X113785714Y-113707142D01*
X113785714Y-113373809D01*
X113595238Y-113373809D01*
X114214285Y-113802380D02*
X114214285Y-112802380D01*
X114785714Y-113802380D01*
X114785714Y-112802380D01*
X115261904Y-113802380D02*
X115261904Y-112802380D01*
X115500000Y-112802380D01*
X115642857Y-112850000D01*
X115738095Y-112945238D01*
X115785714Y-113040476D01*
X115833333Y-113230952D01*
X115833333Y-113373809D01*
X115785714Y-113564285D01*
X115738095Y-113659523D01*
X115642857Y-113754761D01*
X115500000Y-113802380D01*
X115261904Y-113802380D01*
X121071428Y-92011904D02*
X121071428Y-91250000D01*
X121452380Y-90250000D02*
X121452380Y-90821428D01*
X121452380Y-90535714D02*
X120452380Y-90535714D01*
X120595238Y-90630952D01*
X120690476Y-90726190D01*
X120738095Y-90821428D01*
X120547619Y-89869047D02*
X120500000Y-89821428D01*
X120452380Y-89726190D01*
X120452380Y-89488095D01*
X120500000Y-89392857D01*
X120547619Y-89345238D01*
X120642857Y-89297619D01*
X120738095Y-89297619D01*
X120880952Y-89345238D01*
X121452380Y-89916666D01*
X121452380Y-89297619D01*
X120452380Y-89011904D02*
X121452380Y-88678571D01*
X120452380Y-88345238D01*
X121071428Y-82311904D02*
X121071428Y-81550000D01*
X121452380Y-81930952D02*
X120690476Y-81930952D01*
X121452380Y-80550000D02*
X121452380Y-81121428D01*
X121452380Y-80835714D02*
X120452380Y-80835714D01*
X120595238Y-80930952D01*
X120690476Y-81026190D01*
X120738095Y-81121428D01*
X120547619Y-80169047D02*
X120500000Y-80121428D01*
X120452380Y-80026190D01*
X120452380Y-79788095D01*
X120500000Y-79692857D01*
X120547619Y-79645238D01*
X120642857Y-79597619D01*
X120738095Y-79597619D01*
X120880952Y-79645238D01*
X121452380Y-80216666D01*
X121452380Y-79597619D01*
X120452380Y-79311904D02*
X121452380Y-78978571D01*
X120452380Y-78645238D01*
D11*
X115587221Y-90010000D02*
X115912779Y-90010000D01*
X115587221Y-88990000D02*
X115912779Y-88990000D01*
X119300000Y-115450000D02*
X119300000Y-118600000D01*
X117600000Y-115450000D02*
X117600000Y-118600000D01*
X119300000Y-115450000D02*
X117600000Y-115450000D01*
D12*
X84000000Y-73750000D02*
G75*
G03X84000000Y-73750000I-750000J0D01*
G01*
X84000000Y-66250000D02*
G75*
G03X84000000Y-66250000I-750000J0D01*
G01*
X84000000Y-60500000D02*
G75*
G03X84000000Y-60500000I-750000J0D01*
G01*
X110750000Y-107500000D02*
G75*
G03X110750000Y-107500000I-750000J0D01*
G01*
X106000000Y-95000000D02*
G75*
G03X106000000Y-95000000I-750000J0D01*
G01*
X111250000Y-96000000D02*
G75*
G03X111250000Y-96000000I-750000J0D01*
G01*
X91950000Y-101150000D02*
G75*
G03X91950000Y-101150000I-750000J0D01*
G01*
X87650000Y-101150000D02*
G75*
G03X87650000Y-101150000I-750000J0D01*
G01*
X102250000Y-60750000D02*
G75*
G03X102250000Y-60750000I-750000J0D01*
G01*
X102000000Y-72250000D02*
G75*
G03X102000000Y-72250000I-750000J0D01*
G01*
X97350000Y-101500000D02*
G75*
G03X97350000Y-101500000I-750000J0D01*
G01*
X124000000Y-74500000D02*
G75*
G03X124000000Y-74500000I-750000J0D01*
G01*
X124000000Y-67750000D02*
G75*
G03X124000000Y-67750000I-750000J0D01*
G01*
X102250000Y-67000000D02*
G75*
G03X102250000Y-67000000I-750000J0D01*
G01*
X85000000Y-101300000D02*
G75*
G03X85000000Y-101300000I-750000J0D01*
G01*
D11*
X122500000Y-98040000D02*
X119050000Y-98040000D01*
X122500000Y-98040000D02*
X124450000Y-98040000D01*
X122500000Y-103160000D02*
X120550000Y-103160000D01*
X122500000Y-103160000D02*
X124450000Y-103160000D01*
X84991422Y-109160000D02*
X85508578Y-109160000D01*
X84991422Y-107740000D02*
X85508578Y-107740000D01*
X119110000Y-105612779D02*
X119110000Y-105287221D01*
X118090000Y-105612779D02*
X118090000Y-105287221D01*
X122510000Y-105612779D02*
X122510000Y-105287221D01*
X121490000Y-105612779D02*
X121490000Y-105287221D01*
X120810000Y-105612779D02*
X120810000Y-105287221D01*
X119790000Y-105612779D02*
X119790000Y-105287221D01*
X84991422Y-106460000D02*
X85508578Y-106460000D01*
X84991422Y-105040000D02*
X85508578Y-105040000D01*
X127920000Y-97670000D02*
X129250000Y-97670000D01*
X127920000Y-99000000D02*
X127920000Y-97670000D01*
X127920000Y-100270000D02*
X130580000Y-100270000D01*
X130580000Y-100270000D02*
X130580000Y-102870000D01*
X127920000Y-100270000D02*
X127920000Y-102870000D01*
X127920000Y-102870000D02*
X130580000Y-102870000D01*
X92085000Y-107315000D02*
X88200000Y-107315000D01*
X92085000Y-109585000D02*
X92085000Y-107315000D01*
X88200000Y-109585000D02*
X92085000Y-109585000D01*
X92085000Y-104615000D02*
X88200000Y-104615000D01*
X92085000Y-106885000D02*
X92085000Y-104615000D01*
X88200000Y-106885000D02*
X92085000Y-106885000D01*
X125112779Y-104290000D02*
X124787221Y-104290000D01*
X125112779Y-105310000D02*
X124787221Y-105310000D01*
X91675000Y-114650000D02*
X88000000Y-114650000D01*
X91675000Y-116400000D02*
X91675000Y-114650000D01*
X84325000Y-114650000D02*
X88000000Y-114650000D01*
X84325000Y-116400000D02*
X84325000Y-114650000D01*
X84325000Y-121850000D02*
X88000000Y-121850000D01*
X84325000Y-120100000D02*
X84325000Y-121850000D01*
X91675000Y-121850000D02*
X88000000Y-121850000D01*
X91675000Y-120100000D02*
X91675000Y-121850000D01*
X85210000Y-111758578D02*
X85210000Y-111241422D01*
X83790000Y-111758578D02*
X83790000Y-111241422D01*
D12*
X123650000Y-94900000D02*
X123650000Y-94300000D01*
X123650000Y-93350000D02*
X123650000Y-93750000D01*
X120450000Y-93350000D02*
X123650000Y-93350000D01*
X120450000Y-93750000D02*
X120450000Y-93350000D01*
X120450000Y-94900000D02*
X120450000Y-94300000D01*
X120450000Y-95850000D02*
X120450000Y-95450000D01*
X123650000Y-95850000D02*
X123650000Y-95450000D01*
X120450000Y-95850000D02*
X123650000Y-95850000D01*
X123950000Y-85850000D02*
X123950000Y-85250000D01*
X123950000Y-84300000D02*
X123950000Y-84700000D01*
X120750000Y-84300000D02*
X123950000Y-84300000D01*
X120750000Y-84700000D02*
X120750000Y-84300000D01*
X120750000Y-85850000D02*
X120750000Y-85250000D01*
X120750000Y-86800000D02*
X120750000Y-86400000D01*
X123950000Y-86800000D02*
X123950000Y-86400000D01*
X120750000Y-86800000D02*
X123950000Y-86800000D01*
D11*
X100991422Y-79460000D02*
X101508578Y-79460000D01*
X100991422Y-78040000D02*
X101508578Y-78040000D01*
X104760000Y-108412779D02*
X104760000Y-108087221D01*
X103740000Y-108412779D02*
X103740000Y-108087221D01*
X125910000Y-94762779D02*
X125910000Y-94437221D01*
X124890000Y-94762779D02*
X124890000Y-94437221D01*
X126360000Y-85712779D02*
X126360000Y-85387221D01*
X125340000Y-85712779D02*
X125340000Y-85387221D01*
X102710000Y-108508578D02*
X102710000Y-107991422D01*
X101290000Y-108508578D02*
X101290000Y-107991422D01*
X128110000Y-94858578D02*
X128110000Y-94341422D01*
X126690000Y-94858578D02*
X126690000Y-94341422D01*
X128560000Y-85808578D02*
X128560000Y-85291422D01*
X127140000Y-85808578D02*
X127140000Y-85291422D01*
X94008750Y-115793750D02*
X94796250Y-115793750D01*
X94402500Y-116187500D02*
X94402500Y-115400000D01*
X98595563Y-115160000D02*
X99660000Y-114095563D01*
X93904437Y-115160000D02*
X92840000Y-114095563D01*
X93904437Y-115160000D02*
X95190000Y-115160000D01*
X98595563Y-115160000D02*
X97310000Y-115160000D01*
X99660000Y-114095563D02*
X99660000Y-108340000D01*
X92840000Y-114095563D02*
X92840000Y-108340000D01*
X92840000Y-108340000D02*
X95190000Y-108340000D01*
X99660000Y-108340000D02*
X97310000Y-108340000D01*
D12*
X93800000Y-87700000D02*
X89100000Y-87700000D01*
X89100000Y-92300000D02*
X89690000Y-92900000D01*
X89100000Y-92300000D02*
X89100000Y-87700000D01*
X93800000Y-92900000D02*
X89690000Y-92900000D01*
X93800000Y-87700000D02*
X93800000Y-92900000D01*
X94150000Y-87600000D02*
X94750000Y-87600000D01*
X94150000Y-83900000D02*
X94150000Y-87600000D01*
X94750000Y-83900000D02*
X94150000Y-83900000D01*
X98350000Y-83900000D02*
X97750000Y-83900000D01*
X98350000Y-84500000D02*
X98350000Y-83900000D01*
X97750000Y-87600000D02*
X98350000Y-87000000D01*
X97750000Y-87600000D02*
X94750000Y-87600000D01*
X98350000Y-84500000D02*
X98350000Y-87000000D01*
X94750000Y-83900000D02*
X97750000Y-83900000D01*
X109750000Y-116500000D02*
X109750000Y-110500000D01*
X102750000Y-110500000D02*
X102750000Y-116500000D01*
X109750000Y-110500000D02*
X102750000Y-110500000D01*
X109750000Y-116500000D02*
X102750000Y-116500000D01*
D11*
X98750000Y-78060000D02*
X98750000Y-77560000D01*
X99000000Y-77810000D02*
X98500000Y-77810000D01*
X98260000Y-75054437D02*
X97195563Y-73990000D01*
X98260000Y-77445563D02*
X97195563Y-78510000D01*
X98260000Y-77445563D02*
X98260000Y-77310000D01*
X98260000Y-75054437D02*
X98260000Y-75190000D01*
X97195563Y-73990000D02*
X93740000Y-73990000D01*
X97195563Y-78510000D02*
X93740000Y-78510000D01*
X93740000Y-78510000D02*
X93740000Y-77310000D01*
X93740000Y-73990000D02*
X93740000Y-75190000D01*
X108337221Y-85010000D02*
X108662779Y-85010000D01*
X108337221Y-83990000D02*
X108662779Y-83990000D01*
X89837221Y-78510000D02*
X90162779Y-78510000D01*
X89837221Y-77490000D02*
X90162779Y-77490000D01*
X89837221Y-75010000D02*
X90162779Y-75010000D01*
X89837221Y-73990000D02*
X90162779Y-73990000D01*
X104240000Y-100087221D02*
X104240000Y-100412779D01*
X105260000Y-100087221D02*
X105260000Y-100412779D01*
X108490000Y-61587221D02*
X108490000Y-61912779D01*
X109510000Y-61587221D02*
X109510000Y-61912779D01*
X106337221Y-65510000D02*
X106662779Y-65510000D01*
X106337221Y-64490000D02*
X106662779Y-64490000D01*
X107260000Y-100087221D02*
X107260000Y-100412779D01*
X106240000Y-100087221D02*
X106240000Y-100412779D01*
X116162779Y-84240000D02*
X115837221Y-84240000D01*
X116162779Y-85260000D02*
X115837221Y-85260000D01*
X89800000Y-72250000D02*
X88200000Y-72250000D01*
X89800000Y-59250000D02*
X88200000Y-59250000D01*
X95800000Y-72250000D02*
X94200000Y-72250000D01*
X95800000Y-59250000D02*
X94200000Y-59250000D01*
X85020000Y-67950000D02*
X85020000Y-69550000D01*
X98980000Y-67950000D02*
X98980000Y-69550000D01*
X85020000Y-61950000D02*
X85020000Y-63550000D01*
X98980000Y-61950000D02*
X98980000Y-63550000D01*
X109800000Y-92000000D02*
X108200000Y-92000000D01*
X109800000Y-79000000D02*
X108200000Y-79000000D01*
X115800000Y-92000000D02*
X114200000Y-92000000D01*
X115800000Y-79000000D02*
X114200000Y-79000000D01*
X105020000Y-87700000D02*
X105020000Y-89300000D01*
X118980000Y-87700000D02*
X118980000Y-89300000D01*
X105020000Y-81700000D02*
X105020000Y-83300000D01*
X118980000Y-81700000D02*
X118980000Y-83300000D01*
X83600000Y-87800000D02*
X83600000Y-86200000D01*
X100400000Y-87800000D02*
X100400000Y-86200000D01*
X83600000Y-93800000D02*
X83600000Y-92200000D01*
X100400000Y-93800000D02*
X100400000Y-92200000D01*
X89800000Y-81600000D02*
X88200000Y-81600000D01*
X89800000Y-98400000D02*
X88200000Y-98400000D01*
X95800000Y-81600000D02*
X94200000Y-81600000D01*
X95800000Y-98400000D02*
X94200000Y-98400000D01*
X120650000Y-69450000D02*
X120650000Y-71050000D01*
X103850000Y-69450000D02*
X103850000Y-71050000D01*
X120650000Y-63450000D02*
X120650000Y-65050000D01*
X103850000Y-63450000D02*
X103850000Y-65050000D01*
X114450000Y-75650000D02*
X116050000Y-75650000D01*
X114450000Y-58850000D02*
X116050000Y-58850000D01*
X108450000Y-75650000D02*
X110050000Y-75650000D01*
X108450000Y-58850000D02*
X110050000Y-58850000D01*
X111140000Y-84000000D02*
X111140000Y-87000000D01*
X113360000Y-85500000D02*
X113360000Y-87000000D01*
X113750000Y-98880000D02*
X115080000Y-98880000D01*
X115080000Y-98880000D02*
X115080000Y-100210000D01*
X115080000Y-101480000D02*
X115080000Y-111700000D01*
X112420000Y-111700000D02*
X115080000Y-111700000D01*
X112420000Y-101480000D02*
X112420000Y-111700000D01*
X112420000Y-101480000D02*
X115080000Y-101480000D01*
X95750000Y-60850000D02*
X91750000Y-60850000D01*
X95750000Y-64150000D02*
X95750000Y-60850000D01*
X84640000Y-75600000D02*
X84640000Y-78050000D01*
X87860000Y-77400000D02*
X87860000Y-75600000D01*
X88240000Y-62337221D02*
X88240000Y-62662779D01*
X89260000Y-62337221D02*
X89260000Y-62662779D01*
X86490000Y-62337221D02*
X86490000Y-62662779D01*
X87510000Y-62337221D02*
X87510000Y-62662779D01*
X107990000Y-100087221D02*
X107990000Y-100412779D01*
X109010000Y-100087221D02*
X109010000Y-100412779D01*
X89837221Y-76760000D02*
X90162779Y-76760000D01*
X89837221Y-75740000D02*
X90162779Y-75740000D01*
X96662779Y-65240000D02*
X96337221Y-65240000D01*
X96662779Y-66260000D02*
X96337221Y-66260000D01*
X96337221Y-68010000D02*
X96662779Y-68010000D01*
X96337221Y-66990000D02*
X96662779Y-66990000D01*
X97510000Y-62662779D02*
X97510000Y-62337221D01*
X96490000Y-62662779D02*
X96490000Y-62337221D01*
X89990000Y-62337221D02*
X89990000Y-62662779D01*
X91010000Y-62337221D02*
X91010000Y-62662779D01*
D13*
X92850000Y-67800000D02*
X94050000Y-67800000D01*
X92550000Y-68100000D02*
X92850000Y-67800000D01*
X92850000Y-64900000D02*
X92850000Y-65200000D01*
X92550000Y-64900000D02*
X92850000Y-64900000D01*
X89650000Y-64900000D02*
X89950000Y-64900000D01*
X89650000Y-65200000D02*
X89650000Y-64900000D01*
X89650000Y-68100000D02*
X89650000Y-67800000D01*
X89950000Y-68100000D02*
X89650000Y-68100000D01*
D11*
X115587221Y-82010000D02*
X115912779Y-82010000D01*
X115587221Y-80990000D02*
X115912779Y-80990000D01*
X108337221Y-87010000D02*
X108662779Y-87010000D01*
X108337221Y-85990000D02*
X108662779Y-85990000D01*
X115790000Y-61741422D02*
X115790000Y-62258578D01*
X117210000Y-61741422D02*
X117210000Y-62258578D01*
X110240000Y-89412779D02*
X110240000Y-89087221D01*
X111260000Y-89412779D02*
X111260000Y-89087221D01*
X113260000Y-89412779D02*
X113260000Y-89087221D01*
X112240000Y-89412779D02*
X112240000Y-89087221D01*
X93760000Y-95587221D02*
X93760000Y-95912779D01*
X92740000Y-95587221D02*
X92740000Y-95912779D01*
X106662779Y-67240000D02*
X106337221Y-67240000D01*
X106662779Y-68260000D02*
X106337221Y-68260000D01*
X97587221Y-88740000D02*
X97912779Y-88740000D01*
X97587221Y-89760000D02*
X97912779Y-89760000D01*
X117412779Y-69240000D02*
X117087221Y-69240000D01*
X117412779Y-70260000D02*
X117087221Y-70260000D01*
X106337221Y-62490000D02*
X106662779Y-62490000D01*
X106337221Y-63510000D02*
X106662779Y-63510000D01*
X117990000Y-62162779D02*
X117990000Y-61837221D01*
X119010000Y-62162779D02*
X119010000Y-61837221D01*
X92010000Y-95587221D02*
X92010000Y-95912779D01*
X90990000Y-95587221D02*
X90990000Y-95912779D01*
X86412779Y-92240000D02*
X86087221Y-92240000D01*
X86412779Y-93260000D02*
X86087221Y-93260000D01*
X86412779Y-95260000D02*
X86087221Y-95260000D01*
X86412779Y-94240000D02*
X86087221Y-94240000D01*
X86412779Y-97010000D02*
X86087221Y-97010000D01*
X86412779Y-95990000D02*
X86087221Y-95990000D01*
X110240000Y-61587221D02*
X110240000Y-61912779D01*
X111260000Y-61587221D02*
X111260000Y-61912779D01*
X86412779Y-88490000D02*
X86087221Y-88490000D01*
X86412779Y-89510000D02*
X86087221Y-89510000D01*
X86397779Y-87760000D02*
X86072221Y-87760000D01*
X86397779Y-86740000D02*
X86072221Y-86740000D01*
X86412779Y-84740000D02*
X86087221Y-84740000D01*
X86412779Y-85760000D02*
X86087221Y-85760000D01*
X86412779Y-84010000D02*
X86087221Y-84010000D01*
X86412779Y-82990000D02*
X86087221Y-82990000D01*
X116162779Y-85990000D02*
X115837221Y-85990000D01*
X116162779Y-87010000D02*
X115837221Y-87010000D01*
X111260000Y-81587221D02*
X111260000Y-81912779D01*
X110240000Y-81587221D02*
X110240000Y-81912779D01*
X86412779Y-90490000D02*
X86087221Y-90490000D01*
X86412779Y-91510000D02*
X86087221Y-91510000D01*
X123490000Y-110912779D02*
X123490000Y-110587221D01*
X124510000Y-110912779D02*
X124510000Y-110587221D01*
X123490000Y-107337221D02*
X123490000Y-107662779D01*
X124510000Y-107337221D02*
X124510000Y-107662779D01*
X108240000Y-81587221D02*
X108240000Y-81912779D01*
X109260000Y-81587221D02*
X109260000Y-81912779D01*
X101087221Y-75260000D02*
X101412779Y-75260000D01*
X101087221Y-74240000D02*
X101412779Y-74240000D01*
X101087221Y-75990000D02*
X101412779Y-75990000D01*
X101087221Y-77010000D02*
X101412779Y-77010000D01*
X109260000Y-89412779D02*
X109260000Y-89087221D01*
X108240000Y-89412779D02*
X108240000Y-89087221D01*
X112240000Y-81587221D02*
X112240000Y-81912779D01*
X113260000Y-81587221D02*
X113260000Y-81912779D01*
X114810000Y-61912779D02*
X114810000Y-61587221D01*
X113790000Y-61912779D02*
X113790000Y-61587221D01*
X111990000Y-61587221D02*
X111990000Y-61912779D01*
X113010000Y-61587221D02*
X113010000Y-61912779D01*
X117087221Y-65240000D02*
X117412779Y-65240000D01*
X117087221Y-66260000D02*
X117412779Y-66260000D01*
X126510000Y-107337221D02*
X126510000Y-107662779D01*
X125490000Y-107337221D02*
X125490000Y-107662779D01*
X125490000Y-110587221D02*
X125490000Y-110912779D01*
X126510000Y-110587221D02*
X126510000Y-110912779D01*
X117087221Y-67240000D02*
X117412779Y-67240000D01*
X117087221Y-68260000D02*
X117412779Y-68260000D01*
X125040000Y-71000000D02*
X125540000Y-70750000D01*
X125040000Y-70500000D02*
X125040000Y-71000000D01*
X125540000Y-70750000D02*
X125040000Y-70500000D01*
X105850000Y-105610000D02*
X107650000Y-105610000D01*
X107650000Y-102390000D02*
X105200000Y-102390000D01*
X112150000Y-64890000D02*
X110350000Y-64890000D01*
X110350000Y-68110000D02*
X113300000Y-68110000D01*
X127920000Y-112410000D02*
X130580000Y-112410000D01*
X127920000Y-107270000D02*
X127920000Y-112410000D01*
X130580000Y-107270000D02*
X130580000Y-112410000D01*
X127920000Y-107270000D02*
X130580000Y-107270000D01*
X127920000Y-106000000D02*
X127920000Y-104670000D01*
X127920000Y-104670000D02*
X129250000Y-104670000D01*
D12*
X112900000Y-69850000D02*
X111100000Y-69850000D01*
X112900000Y-73650000D02*
X112900000Y-69850000D01*
X111100000Y-73650000D02*
X112900000Y-73650000D01*
X111100000Y-69850000D02*
X111100000Y-73650000D01*
X115583333Y-88427142D02*
X115535714Y-88474761D01*
X115392857Y-88522380D01*
X115297619Y-88522380D01*
X115154761Y-88474761D01*
X115059523Y-88379523D01*
X115011904Y-88284285D01*
X114964285Y-88093809D01*
X114964285Y-87950952D01*
X115011904Y-87760476D01*
X115059523Y-87665238D01*
X115154761Y-87570000D01*
X115297619Y-87522380D01*
X115392857Y-87522380D01*
X115535714Y-87570000D01*
X115583333Y-87617619D01*
X116535714Y-88522380D02*
X115964285Y-88522380D01*
X116250000Y-88522380D02*
X116250000Y-87522380D01*
X116154761Y-87665238D01*
X116059523Y-87760476D01*
X115964285Y-87808095D01*
X120752380Y-118088095D02*
X119752380Y-118088095D01*
X119752380Y-117850000D01*
X119800000Y-117707142D01*
X119895238Y-117611904D01*
X119990476Y-117564285D01*
X120180952Y-117516666D01*
X120323809Y-117516666D01*
X120514285Y-117564285D01*
X120609523Y-117611904D01*
X120704761Y-117707142D01*
X120752380Y-117850000D01*
X120752380Y-118088095D01*
X119752380Y-117183333D02*
X119752380Y-116564285D01*
X120133333Y-116897619D01*
X120133333Y-116754761D01*
X120180952Y-116659523D01*
X120228571Y-116611904D01*
X120323809Y-116564285D01*
X120561904Y-116564285D01*
X120657142Y-116611904D01*
X120704761Y-116659523D01*
X120752380Y-116754761D01*
X120752380Y-117040476D01*
X120704761Y-117135714D01*
X120657142Y-117183333D01*
X84211904Y-73202380D02*
X84783333Y-73202380D01*
X84497619Y-74202380D02*
X84497619Y-73202380D01*
X85116666Y-74202380D02*
X85116666Y-73202380D01*
X85497619Y-73202380D01*
X85592857Y-73250000D01*
X85640476Y-73297619D01*
X85688095Y-73392857D01*
X85688095Y-73535714D01*
X85640476Y-73630952D01*
X85592857Y-73678571D01*
X85497619Y-73726190D01*
X85116666Y-73726190D01*
X86640476Y-74202380D02*
X86069047Y-74202380D01*
X86354761Y-74202380D02*
X86354761Y-73202380D01*
X86259523Y-73345238D01*
X86164285Y-73440476D01*
X86069047Y-73488095D01*
X87497619Y-73535714D02*
X87497619Y-74202380D01*
X87259523Y-73154761D02*
X87021428Y-73869047D01*
X87640476Y-73869047D01*
X82752380Y-70888095D02*
X82752380Y-70316666D01*
X83752380Y-70602380D02*
X82752380Y-70602380D01*
X83752380Y-69983333D02*
X82752380Y-69983333D01*
X82752380Y-69602380D01*
X82800000Y-69507142D01*
X82847619Y-69459523D01*
X82942857Y-69411904D01*
X83085714Y-69411904D01*
X83180952Y-69459523D01*
X83228571Y-69507142D01*
X83276190Y-69602380D01*
X83276190Y-69983333D01*
X83752380Y-68459523D02*
X83752380Y-69030952D01*
X83752380Y-68745238D02*
X82752380Y-68745238D01*
X82895238Y-68840476D01*
X82990476Y-68935714D01*
X83038095Y-69030952D01*
X82752380Y-68126190D02*
X82752380Y-67507142D01*
X83133333Y-67840476D01*
X83133333Y-67697619D01*
X83180952Y-67602380D01*
X83228571Y-67554761D01*
X83323809Y-67507142D01*
X83561904Y-67507142D01*
X83657142Y-67554761D01*
X83704761Y-67602380D01*
X83752380Y-67697619D01*
X83752380Y-67983333D01*
X83704761Y-68078571D01*
X83657142Y-68126190D01*
X82802380Y-63961904D02*
X82802380Y-63390476D01*
X83802380Y-63676190D02*
X82802380Y-63676190D01*
X83802380Y-63057142D02*
X82802380Y-63057142D01*
X82802380Y-62676190D01*
X82850000Y-62580952D01*
X82897619Y-62533333D01*
X82992857Y-62485714D01*
X83135714Y-62485714D01*
X83230952Y-62533333D01*
X83278571Y-62580952D01*
X83326190Y-62676190D01*
X83326190Y-63057142D01*
X82897619Y-62104761D02*
X82850000Y-62057142D01*
X82802380Y-61961904D01*
X82802380Y-61723809D01*
X82850000Y-61628571D01*
X82897619Y-61580952D01*
X82992857Y-61533333D01*
X83088095Y-61533333D01*
X83230952Y-61580952D01*
X83802380Y-62152380D01*
X83802380Y-61533333D01*
X108761904Y-105202380D02*
X109333333Y-105202380D01*
X109047619Y-106202380D02*
X109047619Y-105202380D01*
X109666666Y-106202380D02*
X109666666Y-105202380D01*
X110047619Y-105202380D01*
X110142857Y-105250000D01*
X110190476Y-105297619D01*
X110238095Y-105392857D01*
X110238095Y-105535714D01*
X110190476Y-105630952D01*
X110142857Y-105678571D01*
X110047619Y-105726190D01*
X109666666Y-105726190D01*
X111190476Y-106202380D02*
X110619047Y-106202380D01*
X110904761Y-106202380D02*
X110904761Y-105202380D01*
X110809523Y-105345238D01*
X110714285Y-105440476D01*
X110619047Y-105488095D01*
X112095238Y-105202380D02*
X111619047Y-105202380D01*
X111571428Y-105678571D01*
X111619047Y-105630952D01*
X111714285Y-105583333D01*
X111952380Y-105583333D01*
X112047619Y-105630952D01*
X112095238Y-105678571D01*
X112142857Y-105773809D01*
X112142857Y-106011904D01*
X112095238Y-106107142D01*
X112047619Y-106154761D01*
X111952380Y-106202380D01*
X111714285Y-106202380D01*
X111619047Y-106154761D01*
X111571428Y-106107142D01*
X103011904Y-92952380D02*
X103583333Y-92952380D01*
X103297619Y-93952380D02*
X103297619Y-92952380D01*
X103916666Y-93952380D02*
X103916666Y-92952380D01*
X104297619Y-92952380D01*
X104392857Y-93000000D01*
X104440476Y-93047619D01*
X104488095Y-93142857D01*
X104488095Y-93285714D01*
X104440476Y-93380952D01*
X104392857Y-93428571D01*
X104297619Y-93476190D01*
X103916666Y-93476190D01*
X105440476Y-93952380D02*
X104869047Y-93952380D01*
X105154761Y-93952380D02*
X105154761Y-92952380D01*
X105059523Y-93095238D01*
X104964285Y-93190476D01*
X104869047Y-93238095D01*
X105821428Y-93047619D02*
X105869047Y-93000000D01*
X105964285Y-92952380D01*
X106202380Y-92952380D01*
X106297619Y-93000000D01*
X106345238Y-93047619D01*
X106392857Y-93142857D01*
X106392857Y-93238095D01*
X106345238Y-93380952D01*
X105773809Y-93952380D01*
X106392857Y-93952380D01*
X108761904Y-93752380D02*
X109333333Y-93752380D01*
X109047619Y-94752380D02*
X109047619Y-93752380D01*
X109666666Y-94752380D02*
X109666666Y-93752380D01*
X110047619Y-93752380D01*
X110142857Y-93800000D01*
X110190476Y-93847619D01*
X110238095Y-93942857D01*
X110238095Y-94085714D01*
X110190476Y-94180952D01*
X110142857Y-94228571D01*
X110047619Y-94276190D01*
X109666666Y-94276190D01*
X111190476Y-94752380D02*
X110619047Y-94752380D01*
X110904761Y-94752380D02*
X110904761Y-93752380D01*
X110809523Y-93895238D01*
X110714285Y-93990476D01*
X110619047Y-94038095D01*
X112142857Y-94752380D02*
X111571428Y-94752380D01*
X111857142Y-94752380D02*
X111857142Y-93752380D01*
X111761904Y-93895238D01*
X111666666Y-93990476D01*
X111571428Y-94038095D01*
X89938095Y-102202380D02*
X90509523Y-102202380D01*
X90223809Y-103202380D02*
X90223809Y-102202380D01*
X90842857Y-103202380D02*
X90842857Y-102202380D01*
X91223809Y-102202380D01*
X91319047Y-102250000D01*
X91366666Y-102297619D01*
X91414285Y-102392857D01*
X91414285Y-102535714D01*
X91366666Y-102630952D01*
X91319047Y-102678571D01*
X91223809Y-102726190D01*
X90842857Y-102726190D01*
X91890476Y-103202380D02*
X92080952Y-103202380D01*
X92176190Y-103154761D01*
X92223809Y-103107142D01*
X92319047Y-102964285D01*
X92366666Y-102773809D01*
X92366666Y-102392857D01*
X92319047Y-102297619D01*
X92271428Y-102250000D01*
X92176190Y-102202380D01*
X91985714Y-102202380D01*
X91890476Y-102250000D01*
X91842857Y-102297619D01*
X91795238Y-102392857D01*
X91795238Y-102630952D01*
X91842857Y-102726190D01*
X91890476Y-102773809D01*
X91985714Y-102821428D01*
X92176190Y-102821428D01*
X92271428Y-102773809D01*
X92319047Y-102726190D01*
X92366666Y-102630952D01*
X85988095Y-102752380D02*
X86559523Y-102752380D01*
X86273809Y-103752380D02*
X86273809Y-102752380D01*
X86892857Y-103752380D02*
X86892857Y-102752380D01*
X87273809Y-102752380D01*
X87369047Y-102800000D01*
X87416666Y-102847619D01*
X87464285Y-102942857D01*
X87464285Y-103085714D01*
X87416666Y-103180952D01*
X87369047Y-103228571D01*
X87273809Y-103276190D01*
X86892857Y-103276190D01*
X88035714Y-103180952D02*
X87940476Y-103133333D01*
X87892857Y-103085714D01*
X87845238Y-102990476D01*
X87845238Y-102942857D01*
X87892857Y-102847619D01*
X87940476Y-102800000D01*
X88035714Y-102752380D01*
X88226190Y-102752380D01*
X88321428Y-102800000D01*
X88369047Y-102847619D01*
X88416666Y-102942857D01*
X88416666Y-102990476D01*
X88369047Y-103085714D01*
X88321428Y-103133333D01*
X88226190Y-103180952D01*
X88035714Y-103180952D01*
X87940476Y-103228571D01*
X87892857Y-103276190D01*
X87845238Y-103371428D01*
X87845238Y-103561904D01*
X87892857Y-103657142D01*
X87940476Y-103704761D01*
X88035714Y-103752380D01*
X88226190Y-103752380D01*
X88321428Y-103704761D01*
X88369047Y-103657142D01*
X88416666Y-103561904D01*
X88416666Y-103371428D01*
X88369047Y-103276190D01*
X88321428Y-103228571D01*
X88226190Y-103180952D01*
X100238095Y-58202380D02*
X100809523Y-58202380D01*
X100523809Y-59202380D02*
X100523809Y-58202380D01*
X101142857Y-59202380D02*
X101142857Y-58202380D01*
X101523809Y-58202380D01*
X101619047Y-58250000D01*
X101666666Y-58297619D01*
X101714285Y-58392857D01*
X101714285Y-58535714D01*
X101666666Y-58630952D01*
X101619047Y-58678571D01*
X101523809Y-58726190D01*
X101142857Y-58726190D01*
X102047619Y-58202380D02*
X102714285Y-58202380D01*
X102285714Y-59202380D01*
X99988095Y-70002380D02*
X100559523Y-70002380D01*
X100273809Y-71002380D02*
X100273809Y-70002380D01*
X100892857Y-71002380D02*
X100892857Y-70002380D01*
X101273809Y-70002380D01*
X101369047Y-70050000D01*
X101416666Y-70097619D01*
X101464285Y-70192857D01*
X101464285Y-70335714D01*
X101416666Y-70430952D01*
X101369047Y-70478571D01*
X101273809Y-70526190D01*
X100892857Y-70526190D01*
X102321428Y-70002380D02*
X102130952Y-70002380D01*
X102035714Y-70050000D01*
X101988095Y-70097619D01*
X101892857Y-70240476D01*
X101845238Y-70430952D01*
X101845238Y-70811904D01*
X101892857Y-70907142D01*
X101940476Y-70954761D01*
X102035714Y-71002380D01*
X102226190Y-71002380D01*
X102321428Y-70954761D01*
X102369047Y-70907142D01*
X102416666Y-70811904D01*
X102416666Y-70573809D01*
X102369047Y-70478571D01*
X102321428Y-70430952D01*
X102226190Y-70383333D01*
X102035714Y-70383333D01*
X101940476Y-70430952D01*
X101892857Y-70478571D01*
X101845238Y-70573809D01*
X95338095Y-102952380D02*
X95909523Y-102952380D01*
X95623809Y-103952380D02*
X95623809Y-102952380D01*
X96242857Y-103952380D02*
X96242857Y-102952380D01*
X96623809Y-102952380D01*
X96719047Y-103000000D01*
X96766666Y-103047619D01*
X96814285Y-103142857D01*
X96814285Y-103285714D01*
X96766666Y-103380952D01*
X96719047Y-103428571D01*
X96623809Y-103476190D01*
X96242857Y-103476190D01*
X97719047Y-102952380D02*
X97242857Y-102952380D01*
X97195238Y-103428571D01*
X97242857Y-103380952D01*
X97338095Y-103333333D01*
X97576190Y-103333333D01*
X97671428Y-103380952D01*
X97719047Y-103428571D01*
X97766666Y-103523809D01*
X97766666Y-103761904D01*
X97719047Y-103857142D01*
X97671428Y-103904761D01*
X97576190Y-103952380D01*
X97338095Y-103952380D01*
X97242857Y-103904761D01*
X97195238Y-103857142D01*
X122038095Y-72352380D02*
X122609523Y-72352380D01*
X122323809Y-73352380D02*
X122323809Y-72352380D01*
X122942857Y-73352380D02*
X122942857Y-72352380D01*
X123323809Y-72352380D01*
X123419047Y-72400000D01*
X123466666Y-72447619D01*
X123514285Y-72542857D01*
X123514285Y-72685714D01*
X123466666Y-72780952D01*
X123419047Y-72828571D01*
X123323809Y-72876190D01*
X122942857Y-72876190D01*
X124371428Y-72685714D02*
X124371428Y-73352380D01*
X124133333Y-72304761D02*
X123895238Y-73019047D01*
X124514285Y-73019047D01*
X122038095Y-65602380D02*
X122609523Y-65602380D01*
X122323809Y-66602380D02*
X122323809Y-65602380D01*
X122942857Y-66602380D02*
X122942857Y-65602380D01*
X123323809Y-65602380D01*
X123419047Y-65650000D01*
X123466666Y-65697619D01*
X123514285Y-65792857D01*
X123514285Y-65935714D01*
X123466666Y-66030952D01*
X123419047Y-66078571D01*
X123323809Y-66126190D01*
X122942857Y-66126190D01*
X123847619Y-65602380D02*
X124466666Y-65602380D01*
X124133333Y-65983333D01*
X124276190Y-65983333D01*
X124371428Y-66030952D01*
X124419047Y-66078571D01*
X124466666Y-66173809D01*
X124466666Y-66411904D01*
X124419047Y-66507142D01*
X124371428Y-66554761D01*
X124276190Y-66602380D01*
X123990476Y-66602380D01*
X123895238Y-66554761D01*
X123847619Y-66507142D01*
X100238095Y-64452380D02*
X100809523Y-64452380D01*
X100523809Y-65452380D02*
X100523809Y-64452380D01*
X101142857Y-65452380D02*
X101142857Y-64452380D01*
X101523809Y-64452380D01*
X101619047Y-64500000D01*
X101666666Y-64547619D01*
X101714285Y-64642857D01*
X101714285Y-64785714D01*
X101666666Y-64880952D01*
X101619047Y-64928571D01*
X101523809Y-64976190D01*
X101142857Y-64976190D01*
X102666666Y-65452380D02*
X102095238Y-65452380D01*
X102380952Y-65452380D02*
X102380952Y-64452380D01*
X102285714Y-64595238D01*
X102190476Y-64690476D01*
X102095238Y-64738095D01*
X82111904Y-102502380D02*
X82683333Y-102502380D01*
X82397619Y-103502380D02*
X82397619Y-102502380D01*
X83016666Y-103502380D02*
X83016666Y-102502380D01*
X83397619Y-102502380D01*
X83492857Y-102550000D01*
X83540476Y-102597619D01*
X83588095Y-102692857D01*
X83588095Y-102835714D01*
X83540476Y-102930952D01*
X83492857Y-102978571D01*
X83397619Y-103026190D01*
X83016666Y-103026190D01*
X84540476Y-103502380D02*
X83969047Y-103502380D01*
X84254761Y-103502380D02*
X84254761Y-102502380D01*
X84159523Y-102645238D01*
X84064285Y-102740476D01*
X83969047Y-102788095D01*
X85159523Y-102502380D02*
X85254761Y-102502380D01*
X85350000Y-102550000D01*
X85397619Y-102597619D01*
X85445238Y-102692857D01*
X85492857Y-102883333D01*
X85492857Y-103121428D01*
X85445238Y-103311904D01*
X85397619Y-103407142D01*
X85350000Y-103454761D01*
X85254761Y-103502380D01*
X85159523Y-103502380D01*
X85064285Y-103454761D01*
X85016666Y-103407142D01*
X84969047Y-103311904D01*
X84921428Y-103121428D01*
X84921428Y-102883333D01*
X84969047Y-102692857D01*
X85016666Y-102597619D01*
X85064285Y-102550000D01*
X85159523Y-102502380D01*
X121738095Y-96652380D02*
X121738095Y-97461904D01*
X121785714Y-97557142D01*
X121833333Y-97604761D01*
X121928571Y-97652380D01*
X122119047Y-97652380D01*
X122214285Y-97604761D01*
X122261904Y-97557142D01*
X122309523Y-97461904D01*
X122309523Y-96652380D01*
X122738095Y-96747619D02*
X122785714Y-96700000D01*
X122880952Y-96652380D01*
X123119047Y-96652380D01*
X123214285Y-96700000D01*
X123261904Y-96747619D01*
X123309523Y-96842857D01*
X123309523Y-96938095D01*
X123261904Y-97080952D01*
X122690476Y-97652380D01*
X123309523Y-97652380D01*
X128416666Y-96122380D02*
X128416666Y-96836666D01*
X128369047Y-96979523D01*
X128273809Y-97074761D01*
X128130952Y-97122380D01*
X128035714Y-97122380D01*
X128892857Y-97122380D02*
X128892857Y-96122380D01*
X129273809Y-96122380D01*
X129369047Y-96170000D01*
X129416666Y-96217619D01*
X129464285Y-96312857D01*
X129464285Y-96455714D01*
X129416666Y-96550952D01*
X129369047Y-96598571D01*
X129273809Y-96646190D01*
X128892857Y-96646190D01*
X130416666Y-97122380D02*
X129845238Y-97122380D01*
X130130952Y-97122380D02*
X130130952Y-96122380D01*
X130035714Y-96265238D01*
X129940476Y-96360476D01*
X129845238Y-96408095D01*
X89761904Y-110952380D02*
X89761904Y-109952380D01*
X90000000Y-109952380D01*
X90142857Y-110000000D01*
X90238095Y-110095238D01*
X90285714Y-110190476D01*
X90333333Y-110380952D01*
X90333333Y-110523809D01*
X90285714Y-110714285D01*
X90238095Y-110809523D01*
X90142857Y-110904761D01*
X90000000Y-110952380D01*
X89761904Y-110952380D01*
X90714285Y-110047619D02*
X90761904Y-110000000D01*
X90857142Y-109952380D01*
X91095238Y-109952380D01*
X91190476Y-110000000D01*
X91238095Y-110047619D01*
X91285714Y-110142857D01*
X91285714Y-110238095D01*
X91238095Y-110380952D01*
X90666666Y-110952380D01*
X91285714Y-110952380D01*
X89011904Y-104402380D02*
X89011904Y-103402380D01*
X89250000Y-103402380D01*
X89392857Y-103450000D01*
X89488095Y-103545238D01*
X89535714Y-103640476D01*
X89583333Y-103830952D01*
X89583333Y-103973809D01*
X89535714Y-104164285D01*
X89488095Y-104259523D01*
X89392857Y-104354761D01*
X89250000Y-104402380D01*
X89011904Y-104402380D01*
X90535714Y-104402380D02*
X89964285Y-104402380D01*
X90250000Y-104402380D02*
X90250000Y-103402380D01*
X90154761Y-103545238D01*
X90059523Y-103640476D01*
X89964285Y-103688095D01*
X93033333Y-121752380D02*
X92557142Y-121752380D01*
X92557142Y-120752380D01*
X93890476Y-121752380D02*
X93319047Y-121752380D01*
X93604761Y-121752380D02*
X93604761Y-120752380D01*
X93509523Y-120895238D01*
X93414285Y-120990476D01*
X93319047Y-121038095D01*
X119111904Y-96628571D02*
X118778571Y-96628571D01*
X118778571Y-97152380D02*
X118778571Y-96152380D01*
X119254761Y-96152380D01*
X120111904Y-97152380D02*
X119635714Y-97152380D01*
X119635714Y-96152380D01*
X120350000Y-96152380D02*
X120969047Y-96152380D01*
X120635714Y-96533333D01*
X120778571Y-96533333D01*
X120873809Y-96580952D01*
X120921428Y-96628571D01*
X120969047Y-96723809D01*
X120969047Y-96961904D01*
X120921428Y-97057142D01*
X120873809Y-97104761D01*
X120778571Y-97152380D01*
X120492857Y-97152380D01*
X120397619Y-97104761D01*
X120350000Y-97057142D01*
X121611904Y-83478571D02*
X121278571Y-83478571D01*
X121278571Y-84002380D02*
X121278571Y-83002380D01*
X121754761Y-83002380D01*
X122611904Y-84002380D02*
X122135714Y-84002380D01*
X122135714Y-83002380D01*
X122897619Y-83097619D02*
X122945238Y-83050000D01*
X123040476Y-83002380D01*
X123278571Y-83002380D01*
X123373809Y-83050000D01*
X123421428Y-83097619D01*
X123469047Y-83192857D01*
X123469047Y-83288095D01*
X123421428Y-83430952D01*
X122850000Y-84002380D01*
X123469047Y-84002380D01*
X105857142Y-108457142D02*
X105809523Y-108504761D01*
X105666666Y-108552380D01*
X105571428Y-108552380D01*
X105428571Y-108504761D01*
X105333333Y-108409523D01*
X105285714Y-108314285D01*
X105238095Y-108123809D01*
X105238095Y-107980952D01*
X105285714Y-107790476D01*
X105333333Y-107695238D01*
X105428571Y-107600000D01*
X105571428Y-107552380D01*
X105666666Y-107552380D01*
X105809523Y-107600000D01*
X105857142Y-107647619D01*
X106238095Y-107647619D02*
X106285714Y-107600000D01*
X106380952Y-107552380D01*
X106619047Y-107552380D01*
X106714285Y-107600000D01*
X106761904Y-107647619D01*
X106809523Y-107742857D01*
X106809523Y-107838095D01*
X106761904Y-107980952D01*
X106190476Y-108552380D01*
X106809523Y-108552380D01*
X107190476Y-107647619D02*
X107238095Y-107600000D01*
X107333333Y-107552380D01*
X107571428Y-107552380D01*
X107666666Y-107600000D01*
X107714285Y-107647619D01*
X107761904Y-107742857D01*
X107761904Y-107838095D01*
X107714285Y-107980952D01*
X107142857Y-108552380D01*
X107761904Y-108552380D01*
X124457142Y-97357142D02*
X124409523Y-97404761D01*
X124266666Y-97452380D01*
X124171428Y-97452380D01*
X124028571Y-97404761D01*
X123933333Y-97309523D01*
X123885714Y-97214285D01*
X123838095Y-97023809D01*
X123838095Y-96880952D01*
X123885714Y-96690476D01*
X123933333Y-96595238D01*
X124028571Y-96500000D01*
X124171428Y-96452380D01*
X124266666Y-96452380D01*
X124409523Y-96500000D01*
X124457142Y-96547619D01*
X125409523Y-97452380D02*
X124838095Y-97452380D01*
X125123809Y-97452380D02*
X125123809Y-96452380D01*
X125028571Y-96595238D01*
X124933333Y-96690476D01*
X124838095Y-96738095D01*
X125742857Y-96452380D02*
X126361904Y-96452380D01*
X126028571Y-96833333D01*
X126171428Y-96833333D01*
X126266666Y-96880952D01*
X126314285Y-96928571D01*
X126361904Y-97023809D01*
X126361904Y-97261904D01*
X126314285Y-97357142D01*
X126266666Y-97404761D01*
X126171428Y-97452380D01*
X125885714Y-97452380D01*
X125790476Y-97404761D01*
X125742857Y-97357142D01*
X124507142Y-88207142D02*
X124459523Y-88254761D01*
X124316666Y-88302380D01*
X124221428Y-88302380D01*
X124078571Y-88254761D01*
X123983333Y-88159523D01*
X123935714Y-88064285D01*
X123888095Y-87873809D01*
X123888095Y-87730952D01*
X123935714Y-87540476D01*
X123983333Y-87445238D01*
X124078571Y-87350000D01*
X124221428Y-87302380D01*
X124316666Y-87302380D01*
X124459523Y-87350000D01*
X124507142Y-87397619D01*
X125459523Y-88302380D02*
X124888095Y-88302380D01*
X125173809Y-88302380D02*
X125173809Y-87302380D01*
X125078571Y-87445238D01*
X124983333Y-87540476D01*
X124888095Y-87588095D01*
X125840476Y-87397619D02*
X125888095Y-87350000D01*
X125983333Y-87302380D01*
X126221428Y-87302380D01*
X126316666Y-87350000D01*
X126364285Y-87397619D01*
X126411904Y-87492857D01*
X126411904Y-87588095D01*
X126364285Y-87730952D01*
X125792857Y-88302380D01*
X126411904Y-88302380D01*
X99907142Y-106107142D02*
X99859523Y-106154761D01*
X99716666Y-106202380D01*
X99621428Y-106202380D01*
X99478571Y-106154761D01*
X99383333Y-106059523D01*
X99335714Y-105964285D01*
X99288095Y-105773809D01*
X99288095Y-105630952D01*
X99335714Y-105440476D01*
X99383333Y-105345238D01*
X99478571Y-105250000D01*
X99621428Y-105202380D01*
X99716666Y-105202380D01*
X99859523Y-105250000D01*
X99907142Y-105297619D01*
X100859523Y-106202380D02*
X100288095Y-106202380D01*
X100573809Y-106202380D02*
X100573809Y-105202380D01*
X100478571Y-105345238D01*
X100383333Y-105440476D01*
X100288095Y-105488095D01*
X101811904Y-106202380D02*
X101240476Y-106202380D01*
X101526190Y-106202380D02*
X101526190Y-105202380D01*
X101430952Y-105345238D01*
X101335714Y-105440476D01*
X101240476Y-105488095D01*
X129257142Y-95007142D02*
X129209523Y-95054761D01*
X129066666Y-95102380D01*
X128971428Y-95102380D01*
X128828571Y-95054761D01*
X128733333Y-94959523D01*
X128685714Y-94864285D01*
X128638095Y-94673809D01*
X128638095Y-94530952D01*
X128685714Y-94340476D01*
X128733333Y-94245238D01*
X128828571Y-94150000D01*
X128971428Y-94102380D01*
X129066666Y-94102380D01*
X129209523Y-94150000D01*
X129257142Y-94197619D01*
X130209523Y-95102380D02*
X129638095Y-95102380D01*
X129923809Y-95102380D02*
X129923809Y-94102380D01*
X129828571Y-94245238D01*
X129733333Y-94340476D01*
X129638095Y-94388095D01*
X130828571Y-94102380D02*
X130923809Y-94102380D01*
X131019047Y-94150000D01*
X131066666Y-94197619D01*
X131114285Y-94292857D01*
X131161904Y-94483333D01*
X131161904Y-94721428D01*
X131114285Y-94911904D01*
X131066666Y-95007142D01*
X131019047Y-95054761D01*
X130923809Y-95102380D01*
X130828571Y-95102380D01*
X130733333Y-95054761D01*
X130685714Y-95007142D01*
X130638095Y-94911904D01*
X130590476Y-94721428D01*
X130590476Y-94483333D01*
X130638095Y-94292857D01*
X130685714Y-94197619D01*
X130733333Y-94150000D01*
X130828571Y-94102380D01*
X127583333Y-83657142D02*
X127535714Y-83704761D01*
X127392857Y-83752380D01*
X127297619Y-83752380D01*
X127154761Y-83704761D01*
X127059523Y-83609523D01*
X127011904Y-83514285D01*
X126964285Y-83323809D01*
X126964285Y-83180952D01*
X127011904Y-82990476D01*
X127059523Y-82895238D01*
X127154761Y-82800000D01*
X127297619Y-82752380D01*
X127392857Y-82752380D01*
X127535714Y-82800000D01*
X127583333Y-82847619D01*
X128059523Y-83752380D02*
X128250000Y-83752380D01*
X128345238Y-83704761D01*
X128392857Y-83657142D01*
X128488095Y-83514285D01*
X128535714Y-83323809D01*
X128535714Y-82942857D01*
X128488095Y-82847619D01*
X128440476Y-82800000D01*
X128345238Y-82752380D01*
X128154761Y-82752380D01*
X128059523Y-82800000D01*
X128011904Y-82847619D01*
X127964285Y-82942857D01*
X127964285Y-83180952D01*
X128011904Y-83276190D01*
X128059523Y-83323809D01*
X128154761Y-83371428D01*
X128345238Y-83371428D01*
X128440476Y-83323809D01*
X128488095Y-83276190D01*
X128535714Y-83180952D01*
X94183333Y-106207142D02*
X94135714Y-106254761D01*
X93992857Y-106302380D01*
X93897619Y-106302380D01*
X93754761Y-106254761D01*
X93659523Y-106159523D01*
X93611904Y-106064285D01*
X93564285Y-105873809D01*
X93564285Y-105730952D01*
X93611904Y-105540476D01*
X93659523Y-105445238D01*
X93754761Y-105350000D01*
X93897619Y-105302380D01*
X93992857Y-105302380D01*
X94135714Y-105350000D01*
X94183333Y-105397619D01*
X94754761Y-105730952D02*
X94659523Y-105683333D01*
X94611904Y-105635714D01*
X94564285Y-105540476D01*
X94564285Y-105492857D01*
X94611904Y-105397619D01*
X94659523Y-105350000D01*
X94754761Y-105302380D01*
X94945238Y-105302380D01*
X95040476Y-105350000D01*
X95088095Y-105397619D01*
X95135714Y-105492857D01*
X95135714Y-105540476D01*
X95088095Y-105635714D01*
X95040476Y-105683333D01*
X94945238Y-105730952D01*
X94754761Y-105730952D01*
X94659523Y-105778571D01*
X94611904Y-105826190D01*
X94564285Y-105921428D01*
X94564285Y-106111904D01*
X94611904Y-106207142D01*
X94659523Y-106254761D01*
X94754761Y-106302380D01*
X94945238Y-106302380D01*
X95040476Y-106254761D01*
X95088095Y-106207142D01*
X95135714Y-106111904D01*
X95135714Y-105921428D01*
X95088095Y-105826190D01*
X95040476Y-105778571D01*
X94945238Y-105730952D01*
X107461904Y-109678571D02*
X107128571Y-109678571D01*
X107128571Y-110202380D02*
X107128571Y-109202380D01*
X107604761Y-109202380D01*
X108461904Y-110202380D02*
X107985714Y-110202380D01*
X107985714Y-109202380D01*
X109319047Y-110202380D02*
X108747619Y-110202380D01*
X109033333Y-110202380D02*
X109033333Y-109202380D01*
X108938095Y-109345238D01*
X108842857Y-109440476D01*
X108747619Y-109488095D01*
X93607142Y-79857142D02*
X93559523Y-79904761D01*
X93416666Y-79952380D01*
X93321428Y-79952380D01*
X93178571Y-79904761D01*
X93083333Y-79809523D01*
X93035714Y-79714285D01*
X92988095Y-79523809D01*
X92988095Y-79380952D01*
X93035714Y-79190476D01*
X93083333Y-79095238D01*
X93178571Y-79000000D01*
X93321428Y-78952380D01*
X93416666Y-78952380D01*
X93559523Y-79000000D01*
X93607142Y-79047619D01*
X94511904Y-78952380D02*
X94035714Y-78952380D01*
X93988095Y-79428571D01*
X94035714Y-79380952D01*
X94130952Y-79333333D01*
X94369047Y-79333333D01*
X94464285Y-79380952D01*
X94511904Y-79428571D01*
X94559523Y-79523809D01*
X94559523Y-79761904D01*
X94511904Y-79857142D01*
X94464285Y-79904761D01*
X94369047Y-79952380D01*
X94130952Y-79952380D01*
X94035714Y-79904761D01*
X93988095Y-79857142D01*
X95416666Y-78952380D02*
X95226190Y-78952380D01*
X95130952Y-79000000D01*
X95083333Y-79047619D01*
X94988095Y-79190476D01*
X94940476Y-79380952D01*
X94940476Y-79761904D01*
X94988095Y-79857142D01*
X95035714Y-79904761D01*
X95130952Y-79952380D01*
X95321428Y-79952380D01*
X95416666Y-79904761D01*
X95464285Y-79857142D01*
X95511904Y-79761904D01*
X95511904Y-79523809D01*
X95464285Y-79428571D01*
X95416666Y-79380952D01*
X95321428Y-79333333D01*
X95130952Y-79333333D01*
X95035714Y-79380952D01*
X94988095Y-79428571D01*
X94940476Y-79523809D01*
X113738095Y-82452380D02*
X113738095Y-83261904D01*
X113785714Y-83357142D01*
X113833333Y-83404761D01*
X113928571Y-83452380D01*
X114119047Y-83452380D01*
X114214285Y-83404761D01*
X114261904Y-83357142D01*
X114309523Y-83261904D01*
X114309523Y-82452380D01*
X114928571Y-82880952D02*
X114833333Y-82833333D01*
X114785714Y-82785714D01*
X114738095Y-82690476D01*
X114738095Y-82642857D01*
X114785714Y-82547619D01*
X114833333Y-82500000D01*
X114928571Y-82452380D01*
X115119047Y-82452380D01*
X115214285Y-82500000D01*
X115261904Y-82547619D01*
X115309523Y-82642857D01*
X115309523Y-82690476D01*
X115261904Y-82785714D01*
X115214285Y-82833333D01*
X115119047Y-82880952D01*
X114928571Y-82880952D01*
X114833333Y-82928571D01*
X114785714Y-82976190D01*
X114738095Y-83071428D01*
X114738095Y-83261904D01*
X114785714Y-83357142D01*
X114833333Y-83404761D01*
X114928571Y-83452380D01*
X115119047Y-83452380D01*
X115214285Y-83404761D01*
X115261904Y-83357142D01*
X115309523Y-83261904D01*
X115309523Y-83071428D01*
X115261904Y-82976190D01*
X115214285Y-82928571D01*
X115119047Y-82880952D01*
X82488095Y-78702380D02*
X82488095Y-79511904D01*
X82535714Y-79607142D01*
X82583333Y-79654761D01*
X82678571Y-79702380D01*
X82869047Y-79702380D01*
X82964285Y-79654761D01*
X83011904Y-79607142D01*
X83059523Y-79511904D01*
X83059523Y-78702380D01*
X84059523Y-79702380D02*
X83488095Y-79702380D01*
X83773809Y-79702380D02*
X83773809Y-78702380D01*
X83678571Y-78845238D01*
X83583333Y-78940476D01*
X83488095Y-78988095D01*
X86238095Y-67452380D02*
X86238095Y-68261904D01*
X86285714Y-68357142D01*
X86333333Y-68404761D01*
X86428571Y-68452380D01*
X86619047Y-68452380D01*
X86714285Y-68404761D01*
X86761904Y-68357142D01*
X86809523Y-68261904D01*
X86809523Y-67452380D01*
X87190476Y-67452380D02*
X87809523Y-67452380D01*
X87476190Y-67833333D01*
X87619047Y-67833333D01*
X87714285Y-67880952D01*
X87761904Y-67928571D01*
X87809523Y-68023809D01*
X87809523Y-68261904D01*
X87761904Y-68357142D01*
X87714285Y-68404761D01*
X87619047Y-68452380D01*
X87333333Y-68452380D01*
X87238095Y-68404761D01*
X87190476Y-68357142D01*
X106488095Y-106002380D02*
X106488095Y-106811904D01*
X106535714Y-106907142D01*
X106583333Y-106954761D01*
X106678571Y-107002380D01*
X106869047Y-107002380D01*
X106964285Y-106954761D01*
X107011904Y-106907142D01*
X107059523Y-106811904D01*
X107059523Y-106002380D01*
X107964285Y-106335714D02*
X107964285Y-107002380D01*
X107726190Y-105954761D02*
X107488095Y-106669047D01*
X108107142Y-106669047D01*
D10*
X112178571Y-63789285D02*
X112178571Y-64396428D01*
X112214285Y-64467857D01*
X112250000Y-64503571D01*
X112321428Y-64539285D01*
X112464285Y-64539285D01*
X112535714Y-64503571D01*
X112571428Y-64467857D01*
X112607142Y-64396428D01*
X112607142Y-63789285D01*
X113321428Y-63789285D02*
X112964285Y-63789285D01*
X112928571Y-64146428D01*
X112964285Y-64110714D01*
X113035714Y-64075000D01*
X113214285Y-64075000D01*
X113285714Y-64110714D01*
X113321428Y-64146428D01*
X113357142Y-64217857D01*
X113357142Y-64396428D01*
X113321428Y-64467857D01*
X113285714Y-64503571D01*
X113214285Y-64539285D01*
X113035714Y-64539285D01*
X112964285Y-64503571D01*
X112928571Y-64467857D01*
X129946428Y-113839285D02*
X129946428Y-113089285D01*
X130232142Y-113089285D01*
X130303571Y-113125000D01*
X130339285Y-113160714D01*
X130375000Y-113232142D01*
X130375000Y-113339285D01*
X130339285Y-113410714D01*
X130303571Y-113446428D01*
X130232142Y-113482142D01*
X129946428Y-113482142D01*
X131089285Y-113839285D02*
X130660714Y-113839285D01*
X130875000Y-113839285D02*
X130875000Y-113089285D01*
X130803571Y-113196428D01*
X130732142Y-113267857D01*
X130660714Y-113303571D01*
X113178571Y-71339285D02*
X113178571Y-71946428D01*
X113214285Y-72017857D01*
X113250000Y-72053571D01*
X113321428Y-72089285D01*
X113464285Y-72089285D01*
X113535714Y-72053571D01*
X113571428Y-72017857D01*
X113607142Y-71946428D01*
X113607142Y-71339285D01*
X113892857Y-71339285D02*
X114392857Y-71339285D01*
X114071428Y-72089285D01*
M02*
