M48
; DRILL file {KiCad (5.1.4)-1} date 12-12-2019 20:12:47
; FORMAT={-:-/ absolute / metric / decimal}
; #@! TF.CreationDate,2019-12-12T20:12:47+01:00
; #@! TF.GenerationSoftware,Kicad,Pcbnew,(5.1.4)-1
FMAT,2
METRIC
T1C0.200
T2C0.300
T3C0.600
T4C0.800
T5C1.000
T6C1.400
T7C2.700
%
G90
G05
T1
X88.05Y-89.3
X88.477Y-90.493
X88.7Y-91.05
X88.95Y-89.4
X88.975Y-90.04
X89.25Y-92.8
X92.25Y-87.25
X93.95Y-93.009
X94.0Y-90.575
X94.125Y-89.029
X94.25Y-90.0
X94.729Y-90.389
X94.75Y-80.5
X95.108Y-91.762
X95.553Y-89.423
X95.718Y-90.488
X95.971Y-83.48
X96.137Y-89.559
X96.25Y-79.25
X96.861Y-87.8
X97.45Y-88.0
X97.5Y-90.5
X97.5Y-92.25
X98.25Y-74.25
X99.5Y-76.25
X99.75Y-87.275
X101.0Y-87.75
X103.25Y-70.25
X103.75Y-89.0
X104.0Y-87.75
X105.25Y-77.0
X106.25Y-69.0
X108.4Y-73.25
X109.0Y-70.0
X109.75Y-88.25
X109.869Y-85.459
X110.5Y-87.5
X110.75Y-86.25
T2
X75.5Y-61.0
X75.5Y-62.5
X75.5Y-64.25
X75.5Y-66.0
X75.5Y-68.0
X75.5Y-70.0
X75.5Y-72.25
X75.5Y-74.25
X75.5Y-76.25
X75.5Y-78.5
X75.5Y-80.75
X75.5Y-83.0
X75.5Y-85.25
X75.5Y-87.5
X75.5Y-89.75
X75.5Y-92.25
X75.5Y-94.75
X75.5Y-97.0
X75.5Y-99.0
X75.5Y-101.25
X75.5Y-103.5
X75.5Y-105.75
X75.5Y-107.75
X75.5Y-109.5
X75.5Y-111.5
X75.5Y-113.5
X75.5Y-115.5
X76.0Y-59.25
X76.25Y-105.25
X76.65Y-64.5
X80.95Y-58.2
X82.0Y-63.75
X82.1Y-59.45
X82.15Y-65.2
X82.3Y-67.2
X82.3Y-69.2
X82.3Y-76.5
X82.35Y-75.0
X82.35Y-78.05
X82.35Y-96.15
X82.4Y-72.5
X82.4Y-81.5
X82.4Y-86.3
X82.4Y-90.95
X82.4Y-92.7
X82.45Y-83.8
X82.45Y-88.7
X82.45Y-94.4
X82.45Y-97.7
X82.5Y-100.5
X82.55Y-80.4
X82.7Y-102.0
X82.7Y-106.85
X82.997Y-105.386
X83.15Y-71.3
X83.75Y-58.55
X83.75Y-95.6
X83.75Y-97.2
X83.75Y-98.2
X83.8Y-76.45
X83.85Y-82.0
X83.85Y-83.0
X83.85Y-84.1
X83.85Y-85.4
X83.85Y-89.1
X83.85Y-90.5
X83.85Y-91.5
X83.95Y-72.35
X83.95Y-75.0
X83.95Y-78.1
X84.0Y-69.5
X84.0Y-87.25
X84.05Y-65.0
X84.2Y-67.3
X84.5Y-93.0
X84.5Y-99.75
X84.85Y-98.2
X84.95Y-82.0
X84.95Y-84.4
X85.25Y-59.5
X85.25Y-61.25
X85.25Y-64.25
X85.25Y-65.75
X85.25Y-67.0
X85.25Y-70.25
X85.25Y-72.0
X85.25Y-95.6
X85.5Y-68.75
X85.5Y-90.0
X85.95Y-95.6
X86.0Y-58.2
X86.0Y-84.4
X86.05Y-81.9
X86.05Y-98.2
X86.25Y-75.4
X86.25Y-78.5
X86.5Y-65.5
X86.753Y-99.2
X87.0Y-70.75
X87.25Y-59.5
X87.25Y-72.0
X87.35Y-81.9
X87.35Y-98.2
X87.5Y-64.75
X87.5Y-66.0
X87.5Y-102.5
X87.75Y-66.75
X88.0Y-69.0
X88.15Y-83.4
X88.15Y-84.8
X88.15Y-96.8
X88.25Y-94.5
X88.25Y-95.5
X88.25Y-100.25
X88.35Y-86.3
X88.65Y-88.2
X88.65Y-92.3
X88.7Y-58.25
X88.75Y-60.5
X88.75Y-81.75
X89.0Y-70.75
X89.15Y-83.0
X89.15Y-84.4
X89.15Y-86.1
X89.4Y-101.3
X89.5Y-69.5
X89.5Y-96.0
X89.55Y-93.5
X89.7Y-103.0
X90.0Y-70.5
X90.0Y-94.5
X90.25Y-95.6
X90.25Y-97.0
X90.5Y-67.5
X90.5Y-83.6
X90.5Y-84.7
X90.5Y-85.8
X90.5Y-86.9
X90.55Y-82.0
X90.55Y-93.3
X90.55Y-98.3
X90.75Y-59.5
X90.75Y-70.75
X90.75Y-72.0
X91.0Y-58.5
X91.15Y-83.1
X91.25Y-93.75
X91.45Y-82.0
X91.45Y-84.3
X91.45Y-85.7
X91.45Y-86.9
X91.45Y-98.3
X91.5Y-60.5
X91.5Y-68.75
X91.75Y-69.5
X92.0Y-59.5
X92.0Y-64.75
X92.0Y-72.0
X92.0Y-74.5
X92.0Y-76.25
X92.0Y-78.0
X92.45Y-82.0
X92.45Y-83.9
X92.45Y-98.2
X92.75Y-60.5
X92.75Y-83.0
X92.95Y-103.15
X93.0Y-70.0
X93.25Y-59.5
X93.25Y-72.0
X93.25Y-93.25
X93.25Y-100.5
X93.35Y-82.0
X93.45Y-98.2
X93.496Y-86.097
X93.5Y-58.5
X93.5Y-87.0
X93.5Y-85.25
X93.65Y-83.1
X93.75Y-102.25
X94.0Y-84.5
X94.4Y-103.15
X94.75Y-95.8
X94.85Y-97.0
X94.922Y-83.601
X95.0Y-60.0
X95.05Y-58.3
X95.25Y-64.5
X95.25Y-70.75
X95.25Y-100.5
X95.5Y-88.25
X95.55Y-93.2
X95.75Y-103.0
X95.95Y-95.7
X96.0Y-63.25
X96.0Y-69.0
X96.05Y-97.0
X96.5Y-64.5
X96.55Y-92.3
X96.575Y-91.108
X96.75Y-59.5
X96.75Y-72.0
X96.95Y-82.0
X97.0Y-70.5
X97.0Y-82.75
X97.05Y-98.2
X97.15Y-58.3
X97.25Y-83.5
X97.5Y-64.5
X97.5Y-68.75
X97.5Y-100.0
X97.55Y-97.0
X97.639Y-87.085
X97.65Y-91.4
X97.75Y-94.6
X97.75Y-95.8
X98.05Y-84.6
X98.25Y-90.3
X98.25Y-102.8
X98.35Y-98.3
X98.35Y-83.45
X98.4Y-101.4
X98.5Y-82.0
X98.75Y-59.5
X98.75Y-61.25
X98.75Y-64.25
X98.75Y-65.5
X98.75Y-67.0
X98.75Y-70.25
X98.75Y-71.75
X98.85Y-96.9
X98.95Y-90.4
X98.95Y-91.4
X98.95Y-94.4
X98.95Y-95.7
X99.15Y-83.0
X99.25Y-98.3
X99.5Y-82.0
X99.5Y-100.25
X99.5Y-104.75
X99.65Y-58.3
X99.75Y-107.0
X100.0Y-59.65
X100.0Y-62.7
X100.0Y-64.85
X100.0Y-67.05
X100.05Y-61.3
X100.15Y-88.6
X100.15Y-89.8
X100.15Y-91.2
X100.15Y-94.6
X100.15Y-95.6
X100.15Y-96.7
X100.15Y-98.0
X100.25Y-82.75
X100.25Y-84.0
X100.25Y-85.5
X100.25Y-101.25
X100.45Y-106.3
X100.45Y-103.05
X100.6Y-69.35
X101.25Y-75.5
X101.35Y-104.25
X101.5Y-84.5
X101.5Y-95.0
X101.5Y-97.5
X101.55Y-88.7
X101.55Y-90.2
X101.55Y-99.6
X101.6Y-86.7
X101.6Y-91.55
X101.7Y-68.25
X101.7Y-102.2
X102.25Y-96.5
X102.4Y-83.45
X102.5Y-80.85
X102.5Y-93.5
X102.75Y-68.95
X102.8Y-66.2
X102.9Y-59.0
X102.95Y-60.9
X102.95Y-62.9
X103.2Y-101.3
X103.25Y-99.75
X103.45Y-86.8
X103.5Y-85.35
X103.5Y-94.65
X103.55Y-78.75
X103.55Y-80.15
X103.8Y-82.35
X103.85Y-84.2
X103.95Y-97.95
X104.1Y-59.9
X104.1Y-60.9
X104.1Y-61.8
X104.1Y-62.8
X104.1Y-66.5
X104.1Y-68.5
X104.1Y-71.9
X104.1Y-73.5
X104.1Y-74.8
X104.2Y-77.6
X104.4Y-59.1
X104.564Y-64.786
X104.6Y-75.5
X104.75Y-101.75
X105.25Y-79.25
X105.25Y-81.0
X105.25Y-82.5
X105.25Y-84.0
X105.25Y-85.5
X105.25Y-87.0
X105.25Y-90.0
X105.25Y-91.75
X105.3Y-80.05
X105.45Y-96.55
X105.5Y-59.1
X105.5Y-61.75
X105.5Y-66.25
X105.5Y-70.0
X105.5Y-71.75
X105.5Y-73.25
X105.6Y-75.5
X106.25Y-88.25
X106.25Y-89.75
X106.35Y-77.65
X106.5Y-59.1
X106.5Y-70.0
X106.5Y-74.0
X106.5Y-79.25
X106.5Y-80.75
X106.5Y-82.0
X106.5Y-83.25
X106.5Y-84.25
X106.5Y-85.25
X106.5Y-86.0
X106.5Y-87.0
X106.7Y-75.5
X106.75Y-102.0
X106.75Y-104.0
X107.0Y-70.75
X107.0Y-72.5
X107.25Y-88.25
X107.25Y-90.5
X107.25Y-91.75
X107.25Y-97.8
X107.5Y-80.5
X107.5Y-82.0
X107.5Y-83.25
X107.6Y-59.1
X107.6Y-79.25
X107.7Y-75.5
X107.75Y-61.5
X107.85Y-77.5
X108.0Y-70.75
X108.0Y-87.775
X108.0Y-96.0
X108.5Y-64.75
X108.5Y-101.75
X108.75Y-68.75
X108.75Y-72.25
X108.75Y-74.0
X108.75Y-97.75
X109.0Y-94.0
X109.287Y-84.5
X109.287Y-86.5
X109.5Y-59.75
X109.5Y-91.25
X110.0Y-63.75
X110.1Y-77.0
X110.25Y-60.25
X110.25Y-99.0
X110.6Y-59.1
X110.6Y-79.25
X110.6Y-91.75
X110.624Y-85.008
X110.9Y-75.4
X110.95Y-102.05
X111.0Y-63.75
X111.0Y-74.0
X111.0Y-100.4
X111.1Y-103.4
X111.15Y-104.4
X111.25Y-66.5
X111.3Y-59.1
X111.6Y-79.25
X111.655Y-64.25
X111.7Y-91.75
X111.75Y-60.0
X112.0Y-94.0
X112.0Y-98.0
X112.1Y-75.4
X112.2Y-59.1
X112.5Y-72.25
X112.5Y-79.25
X112.6Y-77.0
X112.6Y-91.75
X113.0Y-59.1
X113.25Y-60.0
X113.3Y-75.4
X113.5Y-64.25
X113.5Y-72.0
X113.5Y-79.25
X113.5Y-91.75
X113.5Y-95.75
X113.8Y-59.1
X114.0Y-66.5
X114.0Y-84.5
X114.0Y-85.75
X114.0Y-88.0
X114.0Y-97.95
X114.25Y-90.75
X114.25Y-93.25
X114.5Y-79.0
X114.5Y-80.25
X114.5Y-95.0
X114.7Y-76.95
X114.75Y-92.0
X115.0Y-73.5
X115.0Y-82.75
X115.25Y-60.0
X115.25Y-71.75
X115.35Y-104.25
X115.5Y-79.75
X115.6Y-101.7
X115.8Y-93.424
X116.0Y-109.35
X116.5Y-71.0
X116.5Y-73.25
X116.5Y-82.75
X116.5Y-95.0
X116.7Y-59.1
X116.7Y-79.25
X116.7Y-91.75
X116.75Y-87.75
X116.8Y-75.4
X116.9Y-104.125
X117.25Y-80.25
X117.25Y-94.25
X117.5Y-72.25
X117.5Y-74.25
X117.5Y-84.0
X117.6Y-59.1
X117.6Y-91.75
X117.75Y-76.9
X117.75Y-81.0
X117.75Y-82.75
X117.75Y-85.75
X117.75Y-87.75
X117.75Y-110.85
X117.8Y-79.25
X117.8Y-102.75
X117.95Y-99.2
X117.95Y-101.15
X117.95Y-112.9
X118.0Y-75.4
X118.1Y-97.75
X118.4Y-91.75
X118.45Y-109.8
X118.5Y-71.0
X118.6Y-59.1
X118.7Y-84.25
X118.7Y-85.15
X118.7Y-87.05
X118.7Y-90.05
X118.7Y-90.95
X118.7Y-103.6
X118.73Y-80.575
X118.75Y-82.5
X118.75Y-108.4
X118.8Y-79.45
X118.8Y-85.95
X119.25Y-72.25
X119.25Y-74.25
X119.3Y-75.4
X119.45Y-110.85
X119.5Y-59.1
X119.55Y-94.2
X119.55Y-114.05
X120.05Y-79.05
X120.15Y-81.5
X120.25Y-70.25
X120.3Y-83.6
X120.35Y-109.75
X120.4Y-59.1
X120.4Y-59.9
X120.4Y-60.8
X120.4Y-61.8
X120.4Y-62.8
X120.4Y-65.7
X120.4Y-66.5
X120.4Y-67.3
X120.4Y-68.2
X120.4Y-68.9
X120.4Y-71.9
X120.4Y-73.2
X120.4Y-74.3
X120.4Y-75.3
X120.4Y-112.45
X120.65Y-76.8
X120.75Y-113.5
X120.95Y-92.7
X121.25Y-107.5
X121.35Y-110.7
X121.65Y-98.7
X121.7Y-73.45
X121.75Y-65.4
X121.75Y-100.1
X121.8Y-75.3
X121.85Y-67.35
X121.85Y-112.4
X121.9Y-80.2
X121.9Y-82.2
X122.05Y-62.3
X122.05Y-102.65
X122.1Y-60.65
X122.1Y-69.55
X122.15Y-58.7
X122.15Y-103.5
X122.25Y-108.25
X122.25Y-111.25
X122.3Y-84.95
X122.55Y-78.9
X122.55Y-109.85
X122.75Y-92.45
X122.85Y-100.85
X122.95Y-88.0
X123.0Y-102.8
X123.05Y-63.5
X123.15Y-71.0
X123.2Y-76.7
X123.85Y-69.6
X124.35Y-83.3
X124.4Y-118.5
X124.45Y-92.6
X124.45Y-112.85
X124.5Y-60.5
X124.5Y-62.3
X124.65Y-71.95
X124.65Y-115.2
X124.75Y-58.75
X124.8Y-64.5
X124.9Y-116.95
X124.95Y-78.3
X125.0Y-67.8
X125.05Y-113.7
X125.1Y-68.75
X125.3Y-75.1
X125.45Y-73.6
X125.7Y-76.9
X125.75Y-103.65
X126.0Y-115.95
X126.05Y-122.25
X126.25Y-83.25
X126.4Y-112.95
X126.55Y-114.45
X126.6Y-64.65
X126.65Y-101.25
X126.85Y-98.45
X127.0Y-100.25
X127.0Y-102.6
X127.05Y-97.0
X127.1Y-73.35
X127.15Y-104.8
X127.35Y-106.95
X127.35Y-108.5
X127.35Y-110.35
X127.4Y-92.45
X127.6Y-88.0
X127.6Y-115.35
X127.7Y-103.75
X127.9Y-78.65
X128.0Y-113.35
X128.05Y-76.85
X128.55Y-64.8
X128.7Y-68.0
X129.1Y-73.45
X129.2Y-113.95
X129.45Y-103.75
X129.65Y-115.55
X130.45Y-87.95
X130.5Y-77.0
X130.55Y-78.35
X130.6Y-73.45
X130.65Y-64.65
X130.75Y-103.8
X130.75Y-114.5
X130.75Y-115.7
X130.85Y-67.95
X130.85Y-117.1
T3
X75.85Y-116.9
X86.75Y-110.55
X87.85Y-112.4
X87.95Y-115.9
X87.95Y-118.6
X88.2Y-121.05
X89.3Y-110.55
X89.5Y-113.65
X89.9Y-115.3
X90.75Y-121.1
X91.75Y-110.5
X91.75Y-113.2
X93.2Y-119.95
X93.9Y-118.55
X94.25Y-111.75
X98.5Y-116.75
X100.0Y-116.0
X100.5Y-114.5
X101.5Y-116.75
X103.0Y-115.0
X103.75Y-116.75
X105.25Y-113.75
X105.5Y-111.75
X105.75Y-115.25
X105.75Y-116.75
T4
X110.5Y-96.0
X86.9Y-101.15
X123.25Y-67.75
X83.25Y-73.75
X110.0Y-107.5
X101.5Y-67.0
X96.6Y-101.5
X101.25Y-72.25
X84.25Y-101.3
X91.2Y-101.15
X105.25Y-95.0
X83.25Y-66.25
X123.25Y-74.5
X83.25Y-60.5
X101.5Y-60.75
T5
X83.0Y-116.85
X83.05Y-114.85
X83.1Y-118.95
X83.1Y-121.0
X85.0Y-79.75
X85.25Y-120.95
X85.35Y-118.25
X85.4Y-115.55
X87.5Y-79.5
X89.75Y-79.75
X94.0Y-109.7
X94.05Y-107.6
X96.3Y-105.95
X98.3Y-107.5
X98.3Y-109.35
X102.75Y-105.25
X103.0Y-103.0
X77.71Y-65.99
X77.71Y-68.53
X77.71Y-71.07
X77.71Y-73.61
X77.71Y-76.15
X77.71Y-78.69
X77.71Y-81.23
X77.71Y-83.77
X77.71Y-86.31
X77.71Y-88.85
X77.71Y-91.39
X77.71Y-93.93
X77.71Y-96.47
X77.71Y-99.01
X77.71Y-101.55
X77.71Y-104.09
X77.71Y-106.63
X77.71Y-109.17
X77.71Y-111.71
X77.71Y-114.25
X80.25Y-65.99
X80.25Y-68.53
X80.25Y-71.07
X80.25Y-73.61
X80.25Y-76.15
X80.25Y-78.69
X80.25Y-81.23
X80.25Y-83.77
X80.25Y-86.31
X80.25Y-88.85
X80.25Y-91.39
X80.25Y-93.93
X80.25Y-96.47
X80.25Y-99.01
X80.25Y-101.55
X80.25Y-104.09
X80.25Y-106.63
X80.25Y-109.17
X80.25Y-111.71
X80.25Y-114.25
X129.25Y-106.0
X129.25Y-108.54
X129.25Y-111.08
X113.75Y-100.21
X113.75Y-102.75
X113.75Y-105.29
X113.75Y-107.83
X113.75Y-110.37
X129.25Y-99.0
X129.25Y-101.54
T6
X124.05Y-90.5
X129.13Y-90.5
X124.0Y-81.0
X129.08Y-81.0
X122.6Y-116.0
X122.6Y-121.08
X114.5Y-116.0
X114.5Y-121.08
T7
X128.0Y-119.25
X79.0Y-119.25
X79.0Y-61.25
X128.0Y-61.25
T0
M30
