G04 #@! TF.GenerationSoftware,KiCad,Pcbnew,(5.1.4)-1*
G04 #@! TF.CreationDate,2019-09-18T21:55:27+02:00*
G04 #@! TF.ProjectId,rf-receiver,72662d72-6563-4656-9976-65722e6b6963,rev?*
G04 #@! TF.SameCoordinates,Original*
G04 #@! TF.FileFunction,Legend,Bot*
G04 #@! TF.FilePolarity,Positive*
%FSLAX46Y46*%
G04 Gerber Fmt 4.6, Leading zero omitted, Abs format (unit mm)*
G04 Created by KiCad (PCBNEW (5.1.4)-1) date 2019-09-18 21:55:27*
%MOMM*%
%LPD*%
G04 APERTURE LIST*
%ADD10C,0.250000*%
%ADD11C,0.150000*%
%ADD12C,0.125000*%
%ADD13C,0.120000*%
G04 APERTURE END LIST*
D10*
X105595238Y-90827380D02*
X105928571Y-90351190D01*
X106166666Y-90827380D02*
X106166666Y-89827380D01*
X105785714Y-89827380D01*
X105690476Y-89875000D01*
X105642857Y-89922619D01*
X105595238Y-90017857D01*
X105595238Y-90160714D01*
X105642857Y-90255952D01*
X105690476Y-90303571D01*
X105785714Y-90351190D01*
X106166666Y-90351190D01*
X104833333Y-90303571D02*
X105166666Y-90303571D01*
X105166666Y-90827380D02*
X105166666Y-89827380D01*
X104690476Y-89827380D01*
X103595238Y-90779761D02*
X103452380Y-90827380D01*
X103214285Y-90827380D01*
X103119047Y-90779761D01*
X103071428Y-90732142D01*
X103023809Y-90636904D01*
X103023809Y-90541666D01*
X103071428Y-90446428D01*
X103119047Y-90398809D01*
X103214285Y-90351190D01*
X103404761Y-90303571D01*
X103500000Y-90255952D01*
X103547619Y-90208333D01*
X103595238Y-90113095D01*
X103595238Y-90017857D01*
X103547619Y-89922619D01*
X103500000Y-89875000D01*
X103404761Y-89827380D01*
X103166666Y-89827380D01*
X103023809Y-89875000D01*
X102595238Y-90827380D02*
X102595238Y-89827380D01*
X102595238Y-90303571D02*
X102023809Y-90303571D01*
X102023809Y-90827380D02*
X102023809Y-89827380D01*
X101547619Y-90827380D02*
X101547619Y-89827380D01*
X101071428Y-90303571D02*
X100738095Y-90303571D01*
X100595238Y-90827380D02*
X101071428Y-90827380D01*
X101071428Y-89827380D01*
X100595238Y-89827380D01*
X99690476Y-90827380D02*
X100166666Y-90827380D01*
X100166666Y-89827380D01*
X99357142Y-90827380D02*
X99357142Y-89827380D01*
X99119047Y-89827380D01*
X98976190Y-89875000D01*
X98880952Y-89970238D01*
X98833333Y-90065476D01*
X98785714Y-90255952D01*
X98785714Y-90398809D01*
X98833333Y-90589285D01*
X98880952Y-90684523D01*
X98976190Y-90779761D01*
X99119047Y-90827380D01*
X99357142Y-90827380D01*
X105452380Y-92577380D02*
X106023809Y-92577380D01*
X105738095Y-92577380D02*
X105738095Y-91577380D01*
X105833333Y-91720238D01*
X105928571Y-91815476D01*
X106023809Y-91863095D01*
X104976190Y-92577380D02*
X104785714Y-92577380D01*
X104690476Y-92529761D01*
X104642857Y-92482142D01*
X104547619Y-92339285D01*
X104500000Y-92148809D01*
X104500000Y-91767857D01*
X104547619Y-91672619D01*
X104595238Y-91625000D01*
X104690476Y-91577380D01*
X104880952Y-91577380D01*
X104976190Y-91625000D01*
X105023809Y-91672619D01*
X105071428Y-91767857D01*
X105071428Y-92005952D01*
X105023809Y-92101190D01*
X104976190Y-92148809D01*
X104880952Y-92196428D01*
X104690476Y-92196428D01*
X104595238Y-92148809D01*
X104547619Y-92101190D01*
X104500000Y-92005952D01*
X104166666Y-91577380D02*
X103547619Y-91577380D01*
X103880952Y-91958333D01*
X103738095Y-91958333D01*
X103642857Y-92005952D01*
X103595238Y-92053571D01*
X103547619Y-92148809D01*
X103547619Y-92386904D01*
X103595238Y-92482142D01*
X103642857Y-92529761D01*
X103738095Y-92577380D01*
X104023809Y-92577380D01*
X104119047Y-92529761D01*
X104166666Y-92482142D01*
X102976190Y-92005952D02*
X103071428Y-91958333D01*
X103119047Y-91910714D01*
X103166666Y-91815476D01*
X103166666Y-91767857D01*
X103119047Y-91672619D01*
X103071428Y-91625000D01*
X102976190Y-91577380D01*
X102785714Y-91577380D01*
X102690476Y-91625000D01*
X102642857Y-91672619D01*
X102595238Y-91767857D01*
X102595238Y-91815476D01*
X102642857Y-91910714D01*
X102690476Y-91958333D01*
X102785714Y-92005952D01*
X102976190Y-92005952D01*
X103071428Y-92053571D01*
X103119047Y-92101190D01*
X103166666Y-92196428D01*
X103166666Y-92386904D01*
X103119047Y-92482142D01*
X103071428Y-92529761D01*
X102976190Y-92577380D01*
X102785714Y-92577380D01*
X102690476Y-92529761D01*
X102642857Y-92482142D01*
X102595238Y-92386904D01*
X102595238Y-92196428D01*
X102642857Y-92101190D01*
X102690476Y-92053571D01*
X102785714Y-92005952D01*
X102166666Y-92196428D02*
X101404761Y-92196428D01*
X100214285Y-92291666D02*
X99738095Y-92291666D01*
X100309523Y-92577380D02*
X99976190Y-91577380D01*
X99642857Y-92577380D01*
X99452380Y-91577380D02*
X98880952Y-91577380D01*
X99166666Y-92577380D02*
X99166666Y-91577380D01*
D11*
X117700000Y-71500000D02*
X117700000Y-70000000D01*
X120700000Y-71500000D02*
X117700000Y-71500000D01*
X120700000Y-70000000D02*
X120700000Y-71500000D01*
X117700000Y-70000000D02*
X120700000Y-70000000D01*
X117700000Y-69500000D02*
X117700000Y-68000000D01*
X120700000Y-69500000D02*
X117700000Y-69500000D01*
X120700000Y-68000000D02*
X120700000Y-69500000D01*
X117700000Y-68000000D02*
X120700000Y-68000000D01*
X117700000Y-66000000D02*
X117800000Y-66000000D01*
X117700000Y-67500000D02*
X117700000Y-66000000D01*
X120700000Y-67500000D02*
X117700000Y-67500000D01*
X120700000Y-66000000D02*
X120700000Y-67500000D01*
X117800000Y-66000000D02*
X120700000Y-66000000D01*
D12*
X115996428Y-68121428D02*
X115889285Y-68157142D01*
X115853571Y-68192857D01*
X115817857Y-68264285D01*
X115817857Y-68371428D01*
X115853571Y-68442857D01*
X115889285Y-68478571D01*
X115960714Y-68514285D01*
X116246428Y-68514285D01*
X116246428Y-67764285D01*
X115996428Y-67764285D01*
X115925000Y-67800000D01*
X115889285Y-67835714D01*
X115853571Y-67907142D01*
X115853571Y-67978571D01*
X115889285Y-68050000D01*
X115925000Y-68085714D01*
X115996428Y-68121428D01*
X116246428Y-68121428D01*
X115496428Y-67764285D02*
X115496428Y-68371428D01*
X115460714Y-68442857D01*
X115425000Y-68478571D01*
X115353571Y-68514285D01*
X115210714Y-68514285D01*
X115139285Y-68478571D01*
X115103571Y-68442857D01*
X115067857Y-68371428D01*
X115067857Y-67764285D01*
X114460714Y-68121428D02*
X114710714Y-68121428D01*
X114710714Y-68514285D02*
X114710714Y-67764285D01*
X114353571Y-67764285D01*
X113817857Y-68121428D02*
X114067857Y-68121428D01*
X114067857Y-68514285D02*
X114067857Y-67764285D01*
X113710714Y-67764285D01*
X113425000Y-68121428D02*
X113175000Y-68121428D01*
X113067857Y-68514285D02*
X113425000Y-68514285D01*
X113425000Y-67764285D01*
X113067857Y-67764285D01*
X112317857Y-68514285D02*
X112567857Y-68157142D01*
X112746428Y-68514285D02*
X112746428Y-67764285D01*
X112460714Y-67764285D01*
X112389285Y-67800000D01*
X112353571Y-67835714D01*
X112317857Y-67907142D01*
X112317857Y-68014285D01*
X112353571Y-68085714D01*
X112389285Y-68121428D01*
X112460714Y-68157142D01*
X112746428Y-68157142D01*
X116692857Y-69764285D02*
X117121428Y-69764285D01*
X116907142Y-69764285D02*
X116907142Y-69014285D01*
X116978571Y-69121428D01*
X117050000Y-69192857D01*
X117121428Y-69228571D01*
X116371428Y-69692857D02*
X116335714Y-69728571D01*
X116371428Y-69764285D01*
X116407142Y-69728571D01*
X116371428Y-69692857D01*
X116371428Y-69764285D01*
X116371428Y-69300000D02*
X116335714Y-69335714D01*
X116371428Y-69371428D01*
X116407142Y-69335714D01*
X116371428Y-69300000D01*
X116371428Y-69371428D01*
X115692857Y-69264285D02*
X115692857Y-69764285D01*
X115871428Y-68978571D02*
X116050000Y-69514285D01*
X115585714Y-69514285D01*
X114478571Y-69371428D02*
X114371428Y-69407142D01*
X114335714Y-69442857D01*
X114300000Y-69514285D01*
X114300000Y-69621428D01*
X114335714Y-69692857D01*
X114371428Y-69728571D01*
X114442857Y-69764285D01*
X114728571Y-69764285D01*
X114728571Y-69014285D01*
X114478571Y-69014285D01*
X114407142Y-69050000D01*
X114371428Y-69085714D01*
X114335714Y-69157142D01*
X114335714Y-69228571D01*
X114371428Y-69300000D01*
X114407142Y-69335714D01*
X114478571Y-69371428D01*
X114728571Y-69371428D01*
X114014285Y-69550000D02*
X113657142Y-69550000D01*
X114085714Y-69764285D02*
X113835714Y-69014285D01*
X113585714Y-69764285D01*
X112978571Y-69764285D02*
X113335714Y-69764285D01*
X113335714Y-69014285D01*
X112728571Y-69014285D02*
X112728571Y-69621428D01*
X112692857Y-69692857D01*
X112657142Y-69728571D01*
X112585714Y-69764285D01*
X112442857Y-69764285D01*
X112371428Y-69728571D01*
X112335714Y-69692857D01*
X112300000Y-69621428D01*
X112300000Y-69014285D01*
X111942857Y-69764285D02*
X111942857Y-69014285D01*
X111514285Y-69764285D01*
X111514285Y-69014285D01*
X99414285Y-82167857D02*
X99450000Y-82203571D01*
X99557142Y-82239285D01*
X99628571Y-82239285D01*
X99735714Y-82203571D01*
X99807142Y-82132142D01*
X99842857Y-82060714D01*
X99878571Y-81917857D01*
X99878571Y-81810714D01*
X99842857Y-81667857D01*
X99807142Y-81596428D01*
X99735714Y-81525000D01*
X99628571Y-81489285D01*
X99557142Y-81489285D01*
X99450000Y-81525000D01*
X99414285Y-81560714D01*
X98735714Y-82239285D02*
X99092857Y-82239285D01*
X99092857Y-81489285D01*
X98342857Y-81489285D02*
X98200000Y-81489285D01*
X98128571Y-81525000D01*
X98057142Y-81596428D01*
X98021428Y-81739285D01*
X98021428Y-81989285D01*
X98057142Y-82132142D01*
X98128571Y-82203571D01*
X98200000Y-82239285D01*
X98342857Y-82239285D01*
X98414285Y-82203571D01*
X98485714Y-82132142D01*
X98521428Y-81989285D01*
X98521428Y-81739285D01*
X98485714Y-81596428D01*
X98414285Y-81525000D01*
X98342857Y-81489285D01*
X97271428Y-82167857D02*
X97307142Y-82203571D01*
X97414285Y-82239285D01*
X97485714Y-82239285D01*
X97592857Y-82203571D01*
X97664285Y-82132142D01*
X97700000Y-82060714D01*
X97735714Y-81917857D01*
X97735714Y-81810714D01*
X97700000Y-81667857D01*
X97664285Y-81596428D01*
X97592857Y-81525000D01*
X97485714Y-81489285D01*
X97414285Y-81489285D01*
X97307142Y-81525000D01*
X97271428Y-81560714D01*
X96950000Y-82239285D02*
X96950000Y-81489285D01*
X96521428Y-82239285D02*
X96842857Y-81810714D01*
X96521428Y-81489285D02*
X96950000Y-81917857D01*
X123160714Y-88639285D02*
X123160714Y-87889285D01*
X122982142Y-87889285D01*
X122875000Y-87925000D01*
X122803571Y-87996428D01*
X122767857Y-88067857D01*
X122732142Y-88210714D01*
X122732142Y-88317857D01*
X122767857Y-88460714D01*
X122803571Y-88532142D01*
X122875000Y-88603571D01*
X122982142Y-88639285D01*
X123160714Y-88639285D01*
X122125000Y-88603571D02*
X122196428Y-88639285D01*
X122339285Y-88639285D01*
X122410714Y-88603571D01*
X122446428Y-88532142D01*
X122446428Y-88246428D01*
X122410714Y-88175000D01*
X122339285Y-88139285D01*
X122196428Y-88139285D01*
X122125000Y-88175000D01*
X122089285Y-88246428D01*
X122089285Y-88317857D01*
X122446428Y-88389285D01*
X121875000Y-88139285D02*
X121589285Y-88139285D01*
X121767857Y-87889285D02*
X121767857Y-88532142D01*
X121732142Y-88603571D01*
X121660714Y-88639285D01*
X121589285Y-88639285D01*
X121053571Y-88603571D02*
X121125000Y-88639285D01*
X121267857Y-88639285D01*
X121339285Y-88603571D01*
X121375000Y-88532142D01*
X121375000Y-88246428D01*
X121339285Y-88175000D01*
X121267857Y-88139285D01*
X121125000Y-88139285D01*
X121053571Y-88175000D01*
X121017857Y-88246428D01*
X121017857Y-88317857D01*
X121375000Y-88389285D01*
X120375000Y-88603571D02*
X120446428Y-88639285D01*
X120589285Y-88639285D01*
X120660714Y-88603571D01*
X120696428Y-88567857D01*
X120732142Y-88496428D01*
X120732142Y-88282142D01*
X120696428Y-88210714D01*
X120660714Y-88175000D01*
X120589285Y-88139285D01*
X120446428Y-88139285D01*
X120375000Y-88175000D01*
X120160714Y-88139285D02*
X119875000Y-88139285D01*
X120053571Y-87889285D02*
X120053571Y-88532142D01*
X120017857Y-88603571D01*
X119946428Y-88639285D01*
X119875000Y-88639285D01*
X119517857Y-88639285D02*
X119589285Y-88603571D01*
X119625000Y-88567857D01*
X119660714Y-88496428D01*
X119660714Y-88282142D01*
X119625000Y-88210714D01*
X119589285Y-88175000D01*
X119517857Y-88139285D01*
X119410714Y-88139285D01*
X119339285Y-88175000D01*
X119303571Y-88210714D01*
X119267857Y-88282142D01*
X119267857Y-88496428D01*
X119303571Y-88567857D01*
X119339285Y-88603571D01*
X119410714Y-88639285D01*
X119517857Y-88639285D01*
X118946428Y-88639285D02*
X118946428Y-88139285D01*
X118946428Y-88282142D02*
X118910714Y-88210714D01*
X118875000Y-88175000D01*
X118803571Y-88139285D01*
X118732142Y-88139285D01*
X124917857Y-104800000D02*
X124560714Y-104800000D01*
X124989285Y-105014285D02*
X124739285Y-104264285D01*
X124489285Y-105014285D01*
X124239285Y-104264285D02*
X124239285Y-104871428D01*
X124203571Y-104942857D01*
X124167857Y-104978571D01*
X124096428Y-105014285D01*
X123953571Y-105014285D01*
X123882142Y-104978571D01*
X123846428Y-104942857D01*
X123810714Y-104871428D01*
X123810714Y-104264285D01*
X123453571Y-105014285D02*
X123453571Y-104264285D01*
X123275000Y-104264285D01*
X123167857Y-104300000D01*
X123096428Y-104371428D01*
X123060714Y-104442857D01*
X123025000Y-104585714D01*
X123025000Y-104692857D01*
X123060714Y-104835714D01*
X123096428Y-104907142D01*
X123167857Y-104978571D01*
X123275000Y-105014285D01*
X123453571Y-105014285D01*
X122703571Y-105014285D02*
X122703571Y-104264285D01*
X122203571Y-104264285D02*
X122060714Y-104264285D01*
X121989285Y-104300000D01*
X121917857Y-104371428D01*
X121882142Y-104514285D01*
X121882142Y-104764285D01*
X121917857Y-104907142D01*
X121989285Y-104978571D01*
X122060714Y-105014285D01*
X122203571Y-105014285D01*
X122275000Y-104978571D01*
X122346428Y-104907142D01*
X122382142Y-104764285D01*
X122382142Y-104514285D01*
X122346428Y-104371428D01*
X122275000Y-104300000D01*
X122203571Y-104264285D01*
X124739285Y-106050000D02*
X124382142Y-106050000D01*
X124810714Y-106264285D02*
X124560714Y-105514285D01*
X124310714Y-106264285D01*
X124060714Y-106264285D02*
X124060714Y-105514285D01*
X123810714Y-106050000D01*
X123560714Y-105514285D01*
X123560714Y-106264285D01*
X123203571Y-106264285D02*
X123203571Y-105514285D01*
X122917857Y-105514285D01*
X122846428Y-105550000D01*
X122810714Y-105585714D01*
X122775000Y-105657142D01*
X122775000Y-105764285D01*
X122810714Y-105835714D01*
X122846428Y-105871428D01*
X122917857Y-105907142D01*
X123203571Y-105907142D01*
X122489285Y-106228571D02*
X122382142Y-106264285D01*
X122203571Y-106264285D01*
X122132142Y-106228571D01*
X122096428Y-106192857D01*
X122060714Y-106121428D01*
X122060714Y-106050000D01*
X122096428Y-105978571D01*
X122132142Y-105942857D01*
X122203571Y-105907142D01*
X122346428Y-105871428D01*
X122417857Y-105835714D01*
X122453571Y-105800000D01*
X122489285Y-105728571D01*
X122489285Y-105657142D01*
X122453571Y-105585714D01*
X122417857Y-105550000D01*
X122346428Y-105514285D01*
X122167857Y-105514285D01*
X122060714Y-105550000D01*
D11*
X116000000Y-112300000D02*
X116000000Y-98200000D01*
X131000000Y-112300000D02*
X116000000Y-112300000D01*
X131000000Y-98200000D02*
X131000000Y-112300000D01*
X116000000Y-98200000D02*
X131000000Y-98200000D01*
X90500000Y-88800000D02*
X90500000Y-73700000D01*
X104500000Y-88800000D02*
X90500000Y-88800000D01*
X104500000Y-73700000D02*
X104500000Y-88800000D01*
X90500000Y-73700000D02*
X104500000Y-73700000D01*
X105400000Y-77100000D02*
X105400000Y-59400000D01*
X123100000Y-77100000D02*
X105400000Y-77100000D01*
X123100000Y-59400000D02*
X123100000Y-77100000D01*
X105400000Y-59400000D02*
X123100000Y-59400000D01*
X112100000Y-78800000D02*
X112200000Y-78800000D01*
X112100000Y-96700000D02*
X112100000Y-78800000D01*
X130000000Y-96700000D02*
X112100000Y-96700000D01*
X130000000Y-78800000D02*
X130000000Y-96700000D01*
X112200000Y-78800000D02*
X130000000Y-78800000D01*
X92700000Y-87000000D02*
X92700000Y-85500000D01*
X95800000Y-87000000D02*
X92700000Y-87000000D01*
X95800000Y-85500000D02*
X95800000Y-87000000D01*
X92700000Y-85500000D02*
X95800000Y-85500000D01*
X92700000Y-83800000D02*
X92700000Y-83700000D01*
X92700000Y-85200000D02*
X92700000Y-83800000D01*
X95800000Y-85200000D02*
X92700000Y-85200000D01*
X95800000Y-83700000D02*
X95800000Y-85200000D01*
X92700000Y-83700000D02*
X95800000Y-83700000D01*
X92700000Y-83500000D02*
X92700000Y-82000000D01*
X95800000Y-83500000D02*
X92700000Y-83500000D01*
X95800000Y-82000000D02*
X95800000Y-83500000D01*
X92700000Y-82000000D02*
X95800000Y-82000000D01*
X100000000Y-75300000D02*
X98500000Y-75300000D01*
X100000000Y-78300000D02*
X100000000Y-75300000D01*
X98500000Y-78300000D02*
X100000000Y-78300000D01*
X98500000Y-75300000D02*
X98500000Y-78300000D01*
X98200000Y-75300000D02*
X96800000Y-75300000D01*
X98200000Y-78300000D02*
X98200000Y-75300000D01*
X96800000Y-78300000D02*
X98200000Y-78300000D01*
X96800000Y-75300000D02*
X96800000Y-78300000D01*
X92500000Y-81600000D02*
X92500000Y-77400000D01*
X96000000Y-81600000D02*
X92500000Y-81600000D01*
X96000000Y-77400000D02*
X96000000Y-81600000D01*
X92500000Y-77400000D02*
X96000000Y-77400000D01*
X92700000Y-77000000D02*
X92700000Y-75500000D01*
X95800000Y-77000000D02*
X92700000Y-77000000D01*
X95800000Y-75500000D02*
X95800000Y-77000000D01*
X92700000Y-75500000D02*
X95800000Y-75500000D01*
X126000000Y-103000000D02*
X126000000Y-100000000D01*
X127500000Y-103000000D02*
X126000000Y-103000000D01*
X127500000Y-100000000D02*
X127500000Y-103000000D01*
X126000000Y-100000000D02*
X127500000Y-100000000D01*
X124000000Y-103000000D02*
X124000000Y-100000000D01*
X125500000Y-103000000D02*
X124000000Y-103000000D01*
X125500000Y-100000000D02*
X125500000Y-103000000D01*
X124000000Y-100000000D02*
X125500000Y-100000000D01*
X122000000Y-103000000D02*
X122000000Y-100000000D01*
X123500000Y-103000000D02*
X122000000Y-103000000D01*
X123500000Y-100000000D02*
X123500000Y-103000000D01*
X122000000Y-100000000D02*
X123500000Y-100000000D01*
X125500000Y-107000000D02*
X125500000Y-105500000D01*
X128500000Y-107000000D02*
X125500000Y-107000000D01*
X128500000Y-105500000D02*
X128500000Y-107000000D01*
X125500000Y-105500000D02*
X128500000Y-105500000D01*
X125500000Y-105000000D02*
X125500000Y-103500000D01*
X128500000Y-105000000D02*
X125500000Y-105000000D01*
X128500000Y-103500000D02*
X128500000Y-105000000D01*
X125500000Y-103500000D02*
X128500000Y-103500000D01*
X126000000Y-110500000D02*
X126000000Y-107500000D01*
X127500000Y-110500000D02*
X126000000Y-110500000D01*
X127500000Y-107500000D02*
X127500000Y-110500000D01*
X126000000Y-107500000D02*
X127500000Y-107500000D01*
X124000000Y-110500000D02*
X124000000Y-107500000D01*
X125500000Y-110500000D02*
X124000000Y-110500000D01*
X125500000Y-107500000D02*
X125500000Y-110500000D01*
X124000000Y-107500000D02*
X125500000Y-107500000D01*
X122000000Y-110500000D02*
X122000000Y-107500000D01*
X123500000Y-110500000D02*
X122000000Y-110500000D01*
X123500000Y-107500000D02*
X123500000Y-110500000D01*
X122000000Y-107500000D02*
X123500000Y-107500000D01*
X121200000Y-108500000D02*
X118300000Y-108500000D01*
X121200000Y-110000000D02*
X121200000Y-108500000D01*
X118300000Y-110000000D02*
X121200000Y-110000000D01*
X118300000Y-108500000D02*
X118300000Y-110000000D01*
X121000000Y-105300000D02*
X118000000Y-105300000D01*
X121000000Y-106800000D02*
X121000000Y-105300000D01*
X118000000Y-106800000D02*
X121000000Y-106800000D01*
X118000000Y-105300000D02*
X118000000Y-106800000D01*
X118000000Y-105000000D02*
X118000000Y-103500000D01*
X121000000Y-105000000D02*
X118000000Y-105000000D01*
X121000000Y-103500000D02*
X121000000Y-105000000D01*
X118000000Y-103500000D02*
X121000000Y-103500000D01*
X121300000Y-100500000D02*
X118300000Y-100500000D01*
X121300000Y-102000000D02*
X121300000Y-100500000D01*
X118300000Y-102000000D02*
X121300000Y-102000000D01*
X118300000Y-100500000D02*
X118300000Y-102000000D01*
X126600000Y-95000000D02*
X126600000Y-92000000D01*
X124700000Y-92000000D02*
X124700000Y-95000000D01*
X122900000Y-92000000D02*
X122900000Y-95000000D01*
X121000000Y-95000000D02*
X121000000Y-92000000D01*
X119100000Y-92000000D02*
X119100000Y-95000000D01*
X117300000Y-95000000D02*
X117300000Y-92000000D01*
X115400000Y-92000000D02*
X115400000Y-95000000D01*
X128300000Y-92000000D02*
X113800000Y-92000000D01*
X128300000Y-95000000D02*
X128300000Y-92000000D01*
X113800000Y-95000000D02*
X128300000Y-95000000D01*
X113800000Y-92000000D02*
X113800000Y-95000000D01*
X121300000Y-61500000D02*
X119800000Y-61500000D01*
X121300000Y-64500000D02*
X121300000Y-61500000D01*
X119800000Y-64500000D02*
X121300000Y-64500000D01*
X119800000Y-61500000D02*
X119800000Y-64500000D01*
X119450000Y-61300000D02*
X117550000Y-61300000D01*
X119450000Y-64700000D02*
X119450000Y-61300000D01*
X117550000Y-64700000D02*
X119450000Y-64700000D01*
X117550000Y-61300000D02*
X117550000Y-64700000D01*
X115550000Y-64250000D02*
X115550000Y-61250000D01*
X117050000Y-64250000D02*
X115550000Y-64250000D01*
X117050000Y-61250000D02*
X117050000Y-64250000D01*
X115550000Y-61250000D02*
X117050000Y-61250000D01*
X115250000Y-61250000D02*
X113750000Y-61250000D01*
X115250000Y-64250000D02*
X115250000Y-61250000D01*
X113750000Y-64250000D02*
X115250000Y-64250000D01*
X113750000Y-61250000D02*
X113750000Y-64250000D01*
X113500000Y-61250000D02*
X112000000Y-61250000D01*
X113500000Y-61250000D02*
X113500000Y-64250000D01*
X112000000Y-64250000D02*
X113500000Y-64250000D01*
X112000000Y-61250000D02*
X112000000Y-64250000D01*
X110250000Y-61250000D02*
X110250000Y-64250000D01*
X111750000Y-61250000D02*
X110250000Y-61250000D01*
X111750000Y-64250000D02*
X111750000Y-61250000D01*
X110250000Y-64250000D02*
X111750000Y-64250000D01*
X110000000Y-63250000D02*
X107000000Y-63250000D01*
X110000000Y-64750000D02*
X110000000Y-63250000D01*
X107000000Y-64750000D02*
X110000000Y-64750000D01*
X107000000Y-63250000D02*
X107000000Y-64750000D01*
X110000000Y-65250000D02*
X107000000Y-65250000D01*
X110000000Y-66750000D02*
X110000000Y-65250000D01*
X107000000Y-66750000D02*
X110000000Y-66750000D01*
X107000000Y-65250000D02*
X107000000Y-66750000D01*
X107000000Y-68250000D02*
X107000000Y-68000000D01*
X107000000Y-69500000D02*
X107000000Y-68250000D01*
X110000000Y-69500000D02*
X107000000Y-69500000D01*
X110000000Y-68000000D02*
X110000000Y-69500000D01*
X107000000Y-68000000D02*
X110000000Y-68000000D01*
D13*
X80250000Y-115580000D02*
X81580000Y-115580000D01*
X81580000Y-115580000D02*
X81580000Y-114250000D01*
X78980000Y-115580000D02*
X78980000Y-112980000D01*
X78980000Y-112980000D02*
X81580000Y-112980000D01*
X81580000Y-112980000D02*
X81580000Y-64660000D01*
X76380000Y-64660000D02*
X81580000Y-64660000D01*
X76380000Y-115580000D02*
X76380000Y-64660000D01*
X76380000Y-115580000D02*
X78980000Y-115580000D01*
D11*
X127166666Y-106607142D02*
X127214285Y-106654761D01*
X127357142Y-106702380D01*
X127452380Y-106702380D01*
X127595238Y-106654761D01*
X127690476Y-106559523D01*
X127738095Y-106464285D01*
X127785714Y-106273809D01*
X127785714Y-106130952D01*
X127738095Y-105940476D01*
X127690476Y-105845238D01*
X127595238Y-105750000D01*
X127452380Y-105702380D01*
X127357142Y-105702380D01*
X127214285Y-105750000D01*
X127166666Y-105797619D01*
X126261904Y-105702380D02*
X126738095Y-105702380D01*
X126785714Y-106178571D01*
X126738095Y-106130952D01*
X126642857Y-106083333D01*
X126404761Y-106083333D01*
X126309523Y-106130952D01*
X126261904Y-106178571D01*
X126214285Y-106273809D01*
X126214285Y-106511904D01*
X126261904Y-106607142D01*
X126309523Y-106654761D01*
X126404761Y-106702380D01*
X126642857Y-106702380D01*
X126738095Y-106654761D01*
X126785714Y-106607142D01*
X111357142Y-62107142D02*
X111404761Y-62059523D01*
X111452380Y-61916666D01*
X111452380Y-61821428D01*
X111404761Y-61678571D01*
X111309523Y-61583333D01*
X111214285Y-61535714D01*
X111023809Y-61488095D01*
X110880952Y-61488095D01*
X110690476Y-61535714D01*
X110595238Y-61583333D01*
X110500000Y-61678571D01*
X110452380Y-61821428D01*
X110452380Y-61916666D01*
X110500000Y-62059523D01*
X110547619Y-62107142D01*
X110785714Y-62964285D02*
X111452380Y-62964285D01*
X110404761Y-62726190D02*
X111119047Y-62488095D01*
X111119047Y-63107142D01*
X110452380Y-63916666D02*
X110452380Y-63726190D01*
X110500000Y-63630952D01*
X110547619Y-63583333D01*
X110690476Y-63488095D01*
X110880952Y-63440476D01*
X111261904Y-63440476D01*
X111357142Y-63488095D01*
X111404761Y-63535714D01*
X111452380Y-63630952D01*
X111452380Y-63821428D01*
X111404761Y-63916666D01*
X111357142Y-63964285D01*
X111261904Y-64011904D01*
X111023809Y-64011904D01*
X110928571Y-63964285D01*
X110880952Y-63916666D01*
X110833333Y-63821428D01*
X110833333Y-63630952D01*
X110880952Y-63535714D01*
X110928571Y-63488095D01*
X111023809Y-63440476D01*
X109142857Y-66357142D02*
X109190476Y-66404761D01*
X109333333Y-66452380D01*
X109428571Y-66452380D01*
X109571428Y-66404761D01*
X109666666Y-66309523D01*
X109714285Y-66214285D01*
X109761904Y-66023809D01*
X109761904Y-65880952D01*
X109714285Y-65690476D01*
X109666666Y-65595238D01*
X109571428Y-65500000D01*
X109428571Y-65452380D01*
X109333333Y-65452380D01*
X109190476Y-65500000D01*
X109142857Y-65547619D01*
X108285714Y-65785714D02*
X108285714Y-66452380D01*
X108523809Y-65404761D02*
X108761904Y-66119047D01*
X108142857Y-66119047D01*
X107714285Y-66452380D02*
X107523809Y-66452380D01*
X107428571Y-66404761D01*
X107380952Y-66357142D01*
X107285714Y-66214285D01*
X107238095Y-66023809D01*
X107238095Y-65642857D01*
X107285714Y-65547619D01*
X107333333Y-65500000D01*
X107428571Y-65452380D01*
X107619047Y-65452380D01*
X107714285Y-65500000D01*
X107761904Y-65547619D01*
X107809523Y-65642857D01*
X107809523Y-65880952D01*
X107761904Y-65976190D01*
X107714285Y-66023809D01*
X107619047Y-66071428D01*
X107428571Y-66071428D01*
X107333333Y-66023809D01*
X107285714Y-65976190D01*
X107238095Y-65880952D01*
X120142857Y-106357142D02*
X120190476Y-106404761D01*
X120333333Y-106452380D01*
X120428571Y-106452380D01*
X120571428Y-106404761D01*
X120666666Y-106309523D01*
X120714285Y-106214285D01*
X120761904Y-106023809D01*
X120761904Y-105880952D01*
X120714285Y-105690476D01*
X120666666Y-105595238D01*
X120571428Y-105500000D01*
X120428571Y-105452380D01*
X120333333Y-105452380D01*
X120190476Y-105500000D01*
X120142857Y-105547619D01*
X119285714Y-105452380D02*
X119476190Y-105452380D01*
X119571428Y-105500000D01*
X119619047Y-105547619D01*
X119714285Y-105690476D01*
X119761904Y-105880952D01*
X119761904Y-106261904D01*
X119714285Y-106357142D01*
X119666666Y-106404761D01*
X119571428Y-106452380D01*
X119380952Y-106452380D01*
X119285714Y-106404761D01*
X119238095Y-106357142D01*
X119190476Y-106261904D01*
X119190476Y-106023809D01*
X119238095Y-105928571D01*
X119285714Y-105880952D01*
X119380952Y-105833333D01*
X119571428Y-105833333D01*
X119666666Y-105880952D01*
X119714285Y-105928571D01*
X119761904Y-106023809D01*
X118333333Y-105785714D02*
X118333333Y-106452380D01*
X118571428Y-105404761D02*
X118809523Y-106119047D01*
X118190476Y-106119047D01*
X79313333Y-116472380D02*
X79313333Y-117186666D01*
X79360952Y-117329523D01*
X79456190Y-117424761D01*
X79599047Y-117472380D01*
X79694285Y-117472380D01*
X78932380Y-116472380D02*
X78313333Y-116472380D01*
X78646666Y-116853333D01*
X78503809Y-116853333D01*
X78408571Y-116900952D01*
X78360952Y-116948571D01*
X78313333Y-117043809D01*
X78313333Y-117281904D01*
X78360952Y-117377142D01*
X78408571Y-117424761D01*
X78503809Y-117472380D01*
X78789523Y-117472380D01*
X78884761Y-117424761D01*
X78932380Y-117377142D01*
X94226190Y-79023809D02*
X94702380Y-79023809D01*
X93702380Y-78690476D02*
X94226190Y-79023809D01*
X93702380Y-79357142D01*
X94702380Y-80214285D02*
X94702380Y-79642857D01*
X94702380Y-79928571D02*
X93702380Y-79928571D01*
X93845238Y-79833333D01*
X93940476Y-79738095D01*
X93988095Y-79642857D01*
X94416666Y-84952380D02*
X94750000Y-84476190D01*
X94988095Y-84952380D02*
X94988095Y-83952380D01*
X94607142Y-83952380D01*
X94511904Y-84000000D01*
X94464285Y-84047619D01*
X94416666Y-84142857D01*
X94416666Y-84285714D01*
X94464285Y-84380952D01*
X94511904Y-84428571D01*
X94607142Y-84476190D01*
X94988095Y-84476190D01*
X94083333Y-83952380D02*
X93416666Y-83952380D01*
X93845238Y-84952380D01*
X94416666Y-86702380D02*
X94750000Y-86226190D01*
X94988095Y-86702380D02*
X94988095Y-85702380D01*
X94607142Y-85702380D01*
X94511904Y-85750000D01*
X94464285Y-85797619D01*
X94416666Y-85892857D01*
X94416666Y-86035714D01*
X94464285Y-86130952D01*
X94511904Y-86178571D01*
X94607142Y-86226190D01*
X94988095Y-86226190D01*
X93559523Y-85702380D02*
X93750000Y-85702380D01*
X93845238Y-85750000D01*
X93892857Y-85797619D01*
X93988095Y-85940476D01*
X94035714Y-86130952D01*
X94035714Y-86511904D01*
X93988095Y-86607142D01*
X93940476Y-86654761D01*
X93845238Y-86702380D01*
X93654761Y-86702380D01*
X93559523Y-86654761D01*
X93511904Y-86607142D01*
X93464285Y-86511904D01*
X93464285Y-86273809D01*
X93511904Y-86178571D01*
X93559523Y-86130952D01*
X93654761Y-86083333D01*
X93845238Y-86083333D01*
X93940476Y-86130952D01*
X93988095Y-86178571D01*
X94035714Y-86273809D01*
X99607142Y-76107142D02*
X99654761Y-76059523D01*
X99702380Y-75916666D01*
X99702380Y-75821428D01*
X99654761Y-75678571D01*
X99559523Y-75583333D01*
X99464285Y-75535714D01*
X99273809Y-75488095D01*
X99130952Y-75488095D01*
X98940476Y-75535714D01*
X98845238Y-75583333D01*
X98750000Y-75678571D01*
X98702380Y-75821428D01*
X98702380Y-75916666D01*
X98750000Y-76059523D01*
X98797619Y-76107142D01*
X99702380Y-77059523D02*
X99702380Y-76488095D01*
X99702380Y-76773809D02*
X98702380Y-76773809D01*
X98845238Y-76678571D01*
X98940476Y-76583333D01*
X98988095Y-76488095D01*
X98702380Y-77392857D02*
X98702380Y-78059523D01*
X99702380Y-77630952D01*
X97857142Y-76107142D02*
X97904761Y-76059523D01*
X97952380Y-75916666D01*
X97952380Y-75821428D01*
X97904761Y-75678571D01*
X97809523Y-75583333D01*
X97714285Y-75535714D01*
X97523809Y-75488095D01*
X97380952Y-75488095D01*
X97190476Y-75535714D01*
X97095238Y-75583333D01*
X97000000Y-75678571D01*
X96952380Y-75821428D01*
X96952380Y-75916666D01*
X97000000Y-76059523D01*
X97047619Y-76107142D01*
X97952380Y-77059523D02*
X97952380Y-76488095D01*
X97952380Y-76773809D02*
X96952380Y-76773809D01*
X97095238Y-76678571D01*
X97190476Y-76583333D01*
X97238095Y-76488095D01*
X96952380Y-77916666D02*
X96952380Y-77726190D01*
X97000000Y-77630952D01*
X97047619Y-77583333D01*
X97190476Y-77488095D01*
X97380952Y-77440476D01*
X97761904Y-77440476D01*
X97857142Y-77488095D01*
X97904761Y-77535714D01*
X97952380Y-77630952D01*
X97952380Y-77821428D01*
X97904761Y-77916666D01*
X97857142Y-77964285D01*
X97761904Y-78011904D01*
X97523809Y-78011904D01*
X97428571Y-77964285D01*
X97380952Y-77916666D01*
X97333333Y-77821428D01*
X97333333Y-77630952D01*
X97380952Y-77535714D01*
X97428571Y-77488095D01*
X97523809Y-77440476D01*
X94892857Y-76607142D02*
X94940476Y-76654761D01*
X95083333Y-76702380D01*
X95178571Y-76702380D01*
X95321428Y-76654761D01*
X95416666Y-76559523D01*
X95464285Y-76464285D01*
X95511904Y-76273809D01*
X95511904Y-76130952D01*
X95464285Y-75940476D01*
X95416666Y-75845238D01*
X95321428Y-75750000D01*
X95178571Y-75702380D01*
X95083333Y-75702380D01*
X94940476Y-75750000D01*
X94892857Y-75797619D01*
X93940476Y-76702380D02*
X94511904Y-76702380D01*
X94226190Y-76702380D02*
X94226190Y-75702380D01*
X94321428Y-75845238D01*
X94416666Y-75940476D01*
X94511904Y-75988095D01*
X93035714Y-75702380D02*
X93511904Y-75702380D01*
X93559523Y-76178571D01*
X93511904Y-76130952D01*
X93416666Y-76083333D01*
X93178571Y-76083333D01*
X93083333Y-76130952D01*
X93035714Y-76178571D01*
X92988095Y-76273809D01*
X92988095Y-76511904D01*
X93035714Y-76607142D01*
X93083333Y-76654761D01*
X93178571Y-76702380D01*
X93416666Y-76702380D01*
X93511904Y-76654761D01*
X93559523Y-76607142D01*
X94892857Y-83107142D02*
X94940476Y-83154761D01*
X95083333Y-83202380D01*
X95178571Y-83202380D01*
X95321428Y-83154761D01*
X95416666Y-83059523D01*
X95464285Y-82964285D01*
X95511904Y-82773809D01*
X95511904Y-82630952D01*
X95464285Y-82440476D01*
X95416666Y-82345238D01*
X95321428Y-82250000D01*
X95178571Y-82202380D01*
X95083333Y-82202380D01*
X94940476Y-82250000D01*
X94892857Y-82297619D01*
X93940476Y-83202380D02*
X94511904Y-83202380D01*
X94226190Y-83202380D02*
X94226190Y-82202380D01*
X94321428Y-82345238D01*
X94416666Y-82440476D01*
X94511904Y-82488095D01*
X93083333Y-82535714D02*
X93083333Y-83202380D01*
X93321428Y-82154761D02*
X93559523Y-82869047D01*
X92940476Y-82869047D01*
X119916666Y-109607142D02*
X119964285Y-109654761D01*
X120107142Y-109702380D01*
X120202380Y-109702380D01*
X120345238Y-109654761D01*
X120440476Y-109559523D01*
X120488095Y-109464285D01*
X120535714Y-109273809D01*
X120535714Y-109130952D01*
X120488095Y-108940476D01*
X120440476Y-108845238D01*
X120345238Y-108750000D01*
X120202380Y-108702380D01*
X120107142Y-108702380D01*
X119964285Y-108750000D01*
X119916666Y-108797619D01*
X119535714Y-108797619D02*
X119488095Y-108750000D01*
X119392857Y-108702380D01*
X119154761Y-108702380D01*
X119059523Y-108750000D01*
X119011904Y-108797619D01*
X118964285Y-108892857D01*
X118964285Y-108988095D01*
X119011904Y-109130952D01*
X119583333Y-109702380D01*
X118964285Y-109702380D01*
X119916666Y-101607142D02*
X119964285Y-101654761D01*
X120107142Y-101702380D01*
X120202380Y-101702380D01*
X120345238Y-101654761D01*
X120440476Y-101559523D01*
X120488095Y-101464285D01*
X120535714Y-101273809D01*
X120535714Y-101130952D01*
X120488095Y-100940476D01*
X120440476Y-100845238D01*
X120345238Y-100750000D01*
X120202380Y-100702380D01*
X120107142Y-100702380D01*
X119964285Y-100750000D01*
X119916666Y-100797619D01*
X118964285Y-101702380D02*
X119535714Y-101702380D01*
X119250000Y-101702380D02*
X119250000Y-100702380D01*
X119345238Y-100845238D01*
X119440476Y-100940476D01*
X119535714Y-100988095D01*
X127166666Y-104607142D02*
X127214285Y-104654761D01*
X127357142Y-104702380D01*
X127452380Y-104702380D01*
X127595238Y-104654761D01*
X127690476Y-104559523D01*
X127738095Y-104464285D01*
X127785714Y-104273809D01*
X127785714Y-104130952D01*
X127738095Y-103940476D01*
X127690476Y-103845238D01*
X127595238Y-103750000D01*
X127452380Y-103702380D01*
X127357142Y-103702380D01*
X127214285Y-103750000D01*
X127166666Y-103797619D01*
X126309523Y-103702380D02*
X126500000Y-103702380D01*
X126595238Y-103750000D01*
X126642857Y-103797619D01*
X126738095Y-103940476D01*
X126785714Y-104130952D01*
X126785714Y-104511904D01*
X126738095Y-104607142D01*
X126690476Y-104654761D01*
X126595238Y-104702380D01*
X126404761Y-104702380D01*
X126309523Y-104654761D01*
X126261904Y-104607142D01*
X126214285Y-104511904D01*
X126214285Y-104273809D01*
X126261904Y-104178571D01*
X126309523Y-104130952D01*
X126404761Y-104083333D01*
X126595238Y-104083333D01*
X126690476Y-104130952D01*
X126738095Y-104178571D01*
X126785714Y-104273809D01*
X118952380Y-62357142D02*
X118476190Y-62023809D01*
X118952380Y-61785714D02*
X117952380Y-61785714D01*
X117952380Y-62166666D01*
X118000000Y-62261904D01*
X118047619Y-62309523D01*
X118142857Y-62357142D01*
X118285714Y-62357142D01*
X118380952Y-62309523D01*
X118428571Y-62261904D01*
X118476190Y-62166666D01*
X118476190Y-61785714D01*
X118047619Y-62738095D02*
X118000000Y-62785714D01*
X117952380Y-62880952D01*
X117952380Y-63119047D01*
X118000000Y-63214285D01*
X118047619Y-63261904D01*
X118142857Y-63309523D01*
X118238095Y-63309523D01*
X118380952Y-63261904D01*
X118952380Y-62690476D01*
X118952380Y-63309523D01*
X118952380Y-64261904D02*
X118952380Y-63690476D01*
X118952380Y-63976190D02*
X117952380Y-63976190D01*
X118095238Y-63880952D01*
X118190476Y-63785714D01*
X118238095Y-63690476D01*
X125107142Y-100857142D02*
X125154761Y-100809523D01*
X125202380Y-100666666D01*
X125202380Y-100571428D01*
X125154761Y-100428571D01*
X125059523Y-100333333D01*
X124964285Y-100285714D01*
X124773809Y-100238095D01*
X124630952Y-100238095D01*
X124440476Y-100285714D01*
X124345238Y-100333333D01*
X124250000Y-100428571D01*
X124202380Y-100571428D01*
X124202380Y-100666666D01*
X124250000Y-100809523D01*
X124297619Y-100857142D01*
X124202380Y-101714285D02*
X124202380Y-101523809D01*
X124250000Y-101428571D01*
X124297619Y-101380952D01*
X124440476Y-101285714D01*
X124630952Y-101238095D01*
X125011904Y-101238095D01*
X125107142Y-101285714D01*
X125154761Y-101333333D01*
X125202380Y-101428571D01*
X125202380Y-101619047D01*
X125154761Y-101714285D01*
X125107142Y-101761904D01*
X125011904Y-101809523D01*
X124773809Y-101809523D01*
X124678571Y-101761904D01*
X124630952Y-101714285D01*
X124583333Y-101619047D01*
X124583333Y-101428571D01*
X124630952Y-101333333D01*
X124678571Y-101285714D01*
X124773809Y-101238095D01*
X124297619Y-102190476D02*
X124250000Y-102238095D01*
X124202380Y-102333333D01*
X124202380Y-102571428D01*
X124250000Y-102666666D01*
X124297619Y-102714285D01*
X124392857Y-102761904D01*
X124488095Y-102761904D01*
X124630952Y-102714285D01*
X125202380Y-102142857D01*
X125202380Y-102761904D01*
X123157142Y-100857142D02*
X123204761Y-100809523D01*
X123252380Y-100666666D01*
X123252380Y-100571428D01*
X123204761Y-100428571D01*
X123109523Y-100333333D01*
X123014285Y-100285714D01*
X122823809Y-100238095D01*
X122680952Y-100238095D01*
X122490476Y-100285714D01*
X122395238Y-100333333D01*
X122300000Y-100428571D01*
X122252380Y-100571428D01*
X122252380Y-100666666D01*
X122300000Y-100809523D01*
X122347619Y-100857142D01*
X122252380Y-101714285D02*
X122252380Y-101523809D01*
X122300000Y-101428571D01*
X122347619Y-101380952D01*
X122490476Y-101285714D01*
X122680952Y-101238095D01*
X123061904Y-101238095D01*
X123157142Y-101285714D01*
X123204761Y-101333333D01*
X123252380Y-101428571D01*
X123252380Y-101619047D01*
X123204761Y-101714285D01*
X123157142Y-101761904D01*
X123061904Y-101809523D01*
X122823809Y-101809523D01*
X122728571Y-101761904D01*
X122680952Y-101714285D01*
X122633333Y-101619047D01*
X122633333Y-101428571D01*
X122680952Y-101333333D01*
X122728571Y-101285714D01*
X122823809Y-101238095D01*
X123252380Y-102761904D02*
X123252380Y-102190476D01*
X123252380Y-102476190D02*
X122252380Y-102476190D01*
X122395238Y-102380952D01*
X122490476Y-102285714D01*
X122538095Y-102190476D01*
X109142857Y-69107142D02*
X109190476Y-69154761D01*
X109333333Y-69202380D01*
X109428571Y-69202380D01*
X109571428Y-69154761D01*
X109666666Y-69059523D01*
X109714285Y-68964285D01*
X109761904Y-68773809D01*
X109761904Y-68630952D01*
X109714285Y-68440476D01*
X109666666Y-68345238D01*
X109571428Y-68250000D01*
X109428571Y-68202380D01*
X109333333Y-68202380D01*
X109190476Y-68250000D01*
X109142857Y-68297619D01*
X108238095Y-68202380D02*
X108714285Y-68202380D01*
X108761904Y-68678571D01*
X108714285Y-68630952D01*
X108619047Y-68583333D01*
X108380952Y-68583333D01*
X108285714Y-68630952D01*
X108238095Y-68678571D01*
X108190476Y-68773809D01*
X108190476Y-69011904D01*
X108238095Y-69107142D01*
X108285714Y-69154761D01*
X108380952Y-69202380D01*
X108619047Y-69202380D01*
X108714285Y-69154761D01*
X108761904Y-69107142D01*
X107857142Y-68202380D02*
X107190476Y-68202380D01*
X107619047Y-69202380D01*
X119892857Y-71107142D02*
X119940476Y-71154761D01*
X120083333Y-71202380D01*
X120178571Y-71202380D01*
X120321428Y-71154761D01*
X120416666Y-71059523D01*
X120464285Y-70964285D01*
X120511904Y-70773809D01*
X120511904Y-70630952D01*
X120464285Y-70440476D01*
X120416666Y-70345238D01*
X120321428Y-70250000D01*
X120178571Y-70202380D01*
X120083333Y-70202380D01*
X119940476Y-70250000D01*
X119892857Y-70297619D01*
X118988095Y-70202380D02*
X119464285Y-70202380D01*
X119511904Y-70678571D01*
X119464285Y-70630952D01*
X119369047Y-70583333D01*
X119130952Y-70583333D01*
X119035714Y-70630952D01*
X118988095Y-70678571D01*
X118940476Y-70773809D01*
X118940476Y-71011904D01*
X118988095Y-71107142D01*
X119035714Y-71154761D01*
X119130952Y-71202380D01*
X119369047Y-71202380D01*
X119464285Y-71154761D01*
X119511904Y-71107142D01*
X117988095Y-71202380D02*
X118559523Y-71202380D01*
X118273809Y-71202380D02*
X118273809Y-70202380D01*
X118369047Y-70345238D01*
X118464285Y-70440476D01*
X118559523Y-70488095D01*
X109142857Y-64357142D02*
X109190476Y-64404761D01*
X109333333Y-64452380D01*
X109428571Y-64452380D01*
X109571428Y-64404761D01*
X109666666Y-64309523D01*
X109714285Y-64214285D01*
X109761904Y-64023809D01*
X109761904Y-63880952D01*
X109714285Y-63690476D01*
X109666666Y-63595238D01*
X109571428Y-63500000D01*
X109428571Y-63452380D01*
X109333333Y-63452380D01*
X109190476Y-63500000D01*
X109142857Y-63547619D01*
X108285714Y-63785714D02*
X108285714Y-64452380D01*
X108523809Y-63404761D02*
X108761904Y-64119047D01*
X108142857Y-64119047D01*
X107857142Y-63452380D02*
X107190476Y-63452380D01*
X107619047Y-64452380D01*
X120857142Y-62357142D02*
X120904761Y-62309523D01*
X120952380Y-62166666D01*
X120952380Y-62071428D01*
X120904761Y-61928571D01*
X120809523Y-61833333D01*
X120714285Y-61785714D01*
X120523809Y-61738095D01*
X120380952Y-61738095D01*
X120190476Y-61785714D01*
X120095238Y-61833333D01*
X120000000Y-61928571D01*
X119952380Y-62071428D01*
X119952380Y-62166666D01*
X120000000Y-62309523D01*
X120047619Y-62357142D01*
X120285714Y-63214285D02*
X120952380Y-63214285D01*
X119904761Y-62976190D02*
X120619047Y-62738095D01*
X120619047Y-63357142D01*
X119952380Y-64214285D02*
X119952380Y-63738095D01*
X120428571Y-63690476D01*
X120380952Y-63738095D01*
X120333333Y-63833333D01*
X120333333Y-64071428D01*
X120380952Y-64166666D01*
X120428571Y-64214285D01*
X120523809Y-64261904D01*
X120761904Y-64261904D01*
X120857142Y-64214285D01*
X120904761Y-64166666D01*
X120952380Y-64071428D01*
X120952380Y-63833333D01*
X120904761Y-63738095D01*
X120857142Y-63690476D01*
X124107142Y-92857142D02*
X124154761Y-92809523D01*
X124202380Y-92666666D01*
X124202380Y-92571428D01*
X124154761Y-92428571D01*
X124059523Y-92333333D01*
X123964285Y-92285714D01*
X123773809Y-92238095D01*
X123630952Y-92238095D01*
X123440476Y-92285714D01*
X123345238Y-92333333D01*
X123250000Y-92428571D01*
X123202380Y-92571428D01*
X123202380Y-92666666D01*
X123250000Y-92809523D01*
X123297619Y-92857142D01*
X123202380Y-93190476D02*
X123202380Y-93857142D01*
X124202380Y-93428571D01*
X124202380Y-94761904D02*
X124202380Y-94190476D01*
X124202380Y-94476190D02*
X123202380Y-94476190D01*
X123345238Y-94380952D01*
X123440476Y-94285714D01*
X123488095Y-94190476D01*
X126107142Y-92857142D02*
X126154761Y-92809523D01*
X126202380Y-92666666D01*
X126202380Y-92571428D01*
X126154761Y-92428571D01*
X126059523Y-92333333D01*
X125964285Y-92285714D01*
X125773809Y-92238095D01*
X125630952Y-92238095D01*
X125440476Y-92285714D01*
X125345238Y-92333333D01*
X125250000Y-92428571D01*
X125202380Y-92571428D01*
X125202380Y-92666666D01*
X125250000Y-92809523D01*
X125297619Y-92857142D01*
X125202380Y-93190476D02*
X125202380Y-93857142D01*
X126202380Y-93428571D01*
X125297619Y-94190476D02*
X125250000Y-94238095D01*
X125202380Y-94333333D01*
X125202380Y-94571428D01*
X125250000Y-94666666D01*
X125297619Y-94714285D01*
X125392857Y-94761904D01*
X125488095Y-94761904D01*
X125630952Y-94714285D01*
X126202380Y-94142857D01*
X126202380Y-94761904D01*
X127857142Y-92857142D02*
X127904761Y-92809523D01*
X127952380Y-92666666D01*
X127952380Y-92571428D01*
X127904761Y-92428571D01*
X127809523Y-92333333D01*
X127714285Y-92285714D01*
X127523809Y-92238095D01*
X127380952Y-92238095D01*
X127190476Y-92285714D01*
X127095238Y-92333333D01*
X127000000Y-92428571D01*
X126952380Y-92571428D01*
X126952380Y-92666666D01*
X127000000Y-92809523D01*
X127047619Y-92857142D01*
X126952380Y-93190476D02*
X126952380Y-93857142D01*
X127952380Y-93428571D01*
X126952380Y-94714285D02*
X126952380Y-94238095D01*
X127428571Y-94190476D01*
X127380952Y-94238095D01*
X127333333Y-94333333D01*
X127333333Y-94571428D01*
X127380952Y-94666666D01*
X127428571Y-94714285D01*
X127523809Y-94761904D01*
X127761904Y-94761904D01*
X127857142Y-94714285D01*
X127904761Y-94666666D01*
X127952380Y-94571428D01*
X127952380Y-94333333D01*
X127904761Y-94238095D01*
X127857142Y-94190476D01*
X113107142Y-62107142D02*
X113154761Y-62059523D01*
X113202380Y-61916666D01*
X113202380Y-61821428D01*
X113154761Y-61678571D01*
X113059523Y-61583333D01*
X112964285Y-61535714D01*
X112773809Y-61488095D01*
X112630952Y-61488095D01*
X112440476Y-61535714D01*
X112345238Y-61583333D01*
X112250000Y-61678571D01*
X112202380Y-61821428D01*
X112202380Y-61916666D01*
X112250000Y-62059523D01*
X112297619Y-62107142D01*
X112535714Y-62964285D02*
X113202380Y-62964285D01*
X112154761Y-62726190D02*
X112869047Y-62488095D01*
X112869047Y-63107142D01*
X112630952Y-63630952D02*
X112583333Y-63535714D01*
X112535714Y-63488095D01*
X112440476Y-63440476D01*
X112392857Y-63440476D01*
X112297619Y-63488095D01*
X112250000Y-63535714D01*
X112202380Y-63630952D01*
X112202380Y-63821428D01*
X112250000Y-63916666D01*
X112297619Y-63964285D01*
X112392857Y-64011904D01*
X112440476Y-64011904D01*
X112535714Y-63964285D01*
X112583333Y-63916666D01*
X112630952Y-63821428D01*
X112630952Y-63630952D01*
X112678571Y-63535714D01*
X112726190Y-63488095D01*
X112821428Y-63440476D01*
X113011904Y-63440476D01*
X113107142Y-63488095D01*
X113154761Y-63535714D01*
X113202380Y-63630952D01*
X113202380Y-63821428D01*
X113154761Y-63916666D01*
X113107142Y-63964285D01*
X113011904Y-64011904D01*
X112821428Y-64011904D01*
X112726190Y-63964285D01*
X112678571Y-63916666D01*
X112630952Y-63821428D01*
X120357142Y-92857142D02*
X120404761Y-92809523D01*
X120452380Y-92666666D01*
X120452380Y-92571428D01*
X120404761Y-92428571D01*
X120309523Y-92333333D01*
X120214285Y-92285714D01*
X120023809Y-92238095D01*
X119880952Y-92238095D01*
X119690476Y-92285714D01*
X119595238Y-92333333D01*
X119500000Y-92428571D01*
X119452380Y-92571428D01*
X119452380Y-92666666D01*
X119500000Y-92809523D01*
X119547619Y-92857142D01*
X119452380Y-93714285D02*
X119452380Y-93523809D01*
X119500000Y-93428571D01*
X119547619Y-93380952D01*
X119690476Y-93285714D01*
X119880952Y-93238095D01*
X120261904Y-93238095D01*
X120357142Y-93285714D01*
X120404761Y-93333333D01*
X120452380Y-93428571D01*
X120452380Y-93619047D01*
X120404761Y-93714285D01*
X120357142Y-93761904D01*
X120261904Y-93809523D01*
X120023809Y-93809523D01*
X119928571Y-93761904D01*
X119880952Y-93714285D01*
X119833333Y-93619047D01*
X119833333Y-93428571D01*
X119880952Y-93333333D01*
X119928571Y-93285714D01*
X120023809Y-93238095D01*
X120452380Y-94285714D02*
X120452380Y-94476190D01*
X120404761Y-94571428D01*
X120357142Y-94619047D01*
X120214285Y-94714285D01*
X120023809Y-94761904D01*
X119642857Y-94761904D01*
X119547619Y-94714285D01*
X119500000Y-94666666D01*
X119452380Y-94571428D01*
X119452380Y-94380952D01*
X119500000Y-94285714D01*
X119547619Y-94238095D01*
X119642857Y-94190476D01*
X119880952Y-94190476D01*
X119976190Y-94238095D01*
X120023809Y-94285714D01*
X120071428Y-94380952D01*
X120071428Y-94571428D01*
X120023809Y-94666666D01*
X119976190Y-94714285D01*
X119880952Y-94761904D01*
X118607142Y-92857142D02*
X118654761Y-92809523D01*
X118702380Y-92666666D01*
X118702380Y-92571428D01*
X118654761Y-92428571D01*
X118559523Y-92333333D01*
X118464285Y-92285714D01*
X118273809Y-92238095D01*
X118130952Y-92238095D01*
X117940476Y-92285714D01*
X117845238Y-92333333D01*
X117750000Y-92428571D01*
X117702380Y-92571428D01*
X117702380Y-92666666D01*
X117750000Y-92809523D01*
X117797619Y-92857142D01*
X117702380Y-93714285D02*
X117702380Y-93523809D01*
X117750000Y-93428571D01*
X117797619Y-93380952D01*
X117940476Y-93285714D01*
X118130952Y-93238095D01*
X118511904Y-93238095D01*
X118607142Y-93285714D01*
X118654761Y-93333333D01*
X118702380Y-93428571D01*
X118702380Y-93619047D01*
X118654761Y-93714285D01*
X118607142Y-93761904D01*
X118511904Y-93809523D01*
X118273809Y-93809523D01*
X118178571Y-93761904D01*
X118130952Y-93714285D01*
X118083333Y-93619047D01*
X118083333Y-93428571D01*
X118130952Y-93333333D01*
X118178571Y-93285714D01*
X118273809Y-93238095D01*
X118130952Y-94380952D02*
X118083333Y-94285714D01*
X118035714Y-94238095D01*
X117940476Y-94190476D01*
X117892857Y-94190476D01*
X117797619Y-94238095D01*
X117750000Y-94285714D01*
X117702380Y-94380952D01*
X117702380Y-94571428D01*
X117750000Y-94666666D01*
X117797619Y-94714285D01*
X117892857Y-94761904D01*
X117940476Y-94761904D01*
X118035714Y-94714285D01*
X118083333Y-94666666D01*
X118130952Y-94571428D01*
X118130952Y-94380952D01*
X118178571Y-94285714D01*
X118226190Y-94238095D01*
X118321428Y-94190476D01*
X118511904Y-94190476D01*
X118607142Y-94238095D01*
X118654761Y-94285714D01*
X118702380Y-94380952D01*
X118702380Y-94571428D01*
X118654761Y-94666666D01*
X118607142Y-94714285D01*
X118511904Y-94761904D01*
X118321428Y-94761904D01*
X118226190Y-94714285D01*
X118178571Y-94666666D01*
X118130952Y-94571428D01*
X116607142Y-92857142D02*
X116654761Y-92809523D01*
X116702380Y-92666666D01*
X116702380Y-92571428D01*
X116654761Y-92428571D01*
X116559523Y-92333333D01*
X116464285Y-92285714D01*
X116273809Y-92238095D01*
X116130952Y-92238095D01*
X115940476Y-92285714D01*
X115845238Y-92333333D01*
X115750000Y-92428571D01*
X115702380Y-92571428D01*
X115702380Y-92666666D01*
X115750000Y-92809523D01*
X115797619Y-92857142D01*
X115702380Y-93714285D02*
X115702380Y-93523809D01*
X115750000Y-93428571D01*
X115797619Y-93380952D01*
X115940476Y-93285714D01*
X116130952Y-93238095D01*
X116511904Y-93238095D01*
X116607142Y-93285714D01*
X116654761Y-93333333D01*
X116702380Y-93428571D01*
X116702380Y-93619047D01*
X116654761Y-93714285D01*
X116607142Y-93761904D01*
X116511904Y-93809523D01*
X116273809Y-93809523D01*
X116178571Y-93761904D01*
X116130952Y-93714285D01*
X116083333Y-93619047D01*
X116083333Y-93428571D01*
X116130952Y-93333333D01*
X116178571Y-93285714D01*
X116273809Y-93238095D01*
X115702380Y-94142857D02*
X115702380Y-94809523D01*
X116702380Y-94380952D01*
X114857142Y-92857142D02*
X114904761Y-92809523D01*
X114952380Y-92666666D01*
X114952380Y-92571428D01*
X114904761Y-92428571D01*
X114809523Y-92333333D01*
X114714285Y-92285714D01*
X114523809Y-92238095D01*
X114380952Y-92238095D01*
X114190476Y-92285714D01*
X114095238Y-92333333D01*
X114000000Y-92428571D01*
X113952380Y-92571428D01*
X113952380Y-92666666D01*
X114000000Y-92809523D01*
X114047619Y-92857142D01*
X113952380Y-93714285D02*
X113952380Y-93523809D01*
X114000000Y-93428571D01*
X114047619Y-93380952D01*
X114190476Y-93285714D01*
X114380952Y-93238095D01*
X114761904Y-93238095D01*
X114857142Y-93285714D01*
X114904761Y-93333333D01*
X114952380Y-93428571D01*
X114952380Y-93619047D01*
X114904761Y-93714285D01*
X114857142Y-93761904D01*
X114761904Y-93809523D01*
X114523809Y-93809523D01*
X114428571Y-93761904D01*
X114380952Y-93714285D01*
X114333333Y-93619047D01*
X114333333Y-93428571D01*
X114380952Y-93333333D01*
X114428571Y-93285714D01*
X114523809Y-93238095D01*
X113952380Y-94666666D02*
X113952380Y-94476190D01*
X114000000Y-94380952D01*
X114047619Y-94333333D01*
X114190476Y-94238095D01*
X114380952Y-94190476D01*
X114761904Y-94190476D01*
X114857142Y-94238095D01*
X114904761Y-94285714D01*
X114952380Y-94380952D01*
X114952380Y-94571428D01*
X114904761Y-94666666D01*
X114857142Y-94714285D01*
X114761904Y-94761904D01*
X114523809Y-94761904D01*
X114428571Y-94714285D01*
X114380952Y-94666666D01*
X114333333Y-94571428D01*
X114333333Y-94380952D01*
X114380952Y-94285714D01*
X114428571Y-94238095D01*
X114523809Y-94190476D01*
X120142857Y-104607142D02*
X120190476Y-104654761D01*
X120333333Y-104702380D01*
X120428571Y-104702380D01*
X120571428Y-104654761D01*
X120666666Y-104559523D01*
X120714285Y-104464285D01*
X120761904Y-104273809D01*
X120761904Y-104130952D01*
X120714285Y-103940476D01*
X120666666Y-103845238D01*
X120571428Y-103750000D01*
X120428571Y-103702380D01*
X120333333Y-103702380D01*
X120190476Y-103750000D01*
X120142857Y-103797619D01*
X119285714Y-103702380D02*
X119476190Y-103702380D01*
X119571428Y-103750000D01*
X119619047Y-103797619D01*
X119714285Y-103940476D01*
X119761904Y-104130952D01*
X119761904Y-104511904D01*
X119714285Y-104607142D01*
X119666666Y-104654761D01*
X119571428Y-104702380D01*
X119380952Y-104702380D01*
X119285714Y-104654761D01*
X119238095Y-104607142D01*
X119190476Y-104511904D01*
X119190476Y-104273809D01*
X119238095Y-104178571D01*
X119285714Y-104130952D01*
X119380952Y-104083333D01*
X119571428Y-104083333D01*
X119666666Y-104130952D01*
X119714285Y-104178571D01*
X119761904Y-104273809D01*
X118285714Y-103702380D02*
X118761904Y-103702380D01*
X118809523Y-104178571D01*
X118761904Y-104130952D01*
X118666666Y-104083333D01*
X118428571Y-104083333D01*
X118333333Y-104130952D01*
X118285714Y-104178571D01*
X118238095Y-104273809D01*
X118238095Y-104511904D01*
X118285714Y-104607142D01*
X118333333Y-104654761D01*
X118428571Y-104702380D01*
X118666666Y-104702380D01*
X118761904Y-104654761D01*
X118809523Y-104607142D01*
X124392857Y-109642857D02*
X124345238Y-109690476D01*
X124297619Y-109833333D01*
X124297619Y-109928571D01*
X124345238Y-110071428D01*
X124440476Y-110166666D01*
X124535714Y-110214285D01*
X124726190Y-110261904D01*
X124869047Y-110261904D01*
X125059523Y-110214285D01*
X125154761Y-110166666D01*
X125250000Y-110071428D01*
X125297619Y-109928571D01*
X125297619Y-109833333D01*
X125250000Y-109690476D01*
X125202380Y-109642857D01*
X125297619Y-109309523D02*
X125297619Y-108642857D01*
X124297619Y-109071428D01*
X125297619Y-108357142D02*
X125297619Y-107738095D01*
X124916666Y-108071428D01*
X124916666Y-107928571D01*
X124869047Y-107833333D01*
X124821428Y-107785714D01*
X124726190Y-107738095D01*
X124488095Y-107738095D01*
X124392857Y-107785714D01*
X124345238Y-107833333D01*
X124297619Y-107928571D01*
X124297619Y-108214285D01*
X124345238Y-108309523D01*
X124392857Y-108357142D01*
X122357142Y-92857142D02*
X122404761Y-92809523D01*
X122452380Y-92666666D01*
X122452380Y-92571428D01*
X122404761Y-92428571D01*
X122309523Y-92333333D01*
X122214285Y-92285714D01*
X122023809Y-92238095D01*
X121880952Y-92238095D01*
X121690476Y-92285714D01*
X121595238Y-92333333D01*
X121500000Y-92428571D01*
X121452380Y-92571428D01*
X121452380Y-92666666D01*
X121500000Y-92809523D01*
X121547619Y-92857142D01*
X121452380Y-93190476D02*
X121452380Y-93857142D01*
X122452380Y-93428571D01*
X121452380Y-94428571D02*
X121452380Y-94523809D01*
X121500000Y-94619047D01*
X121547619Y-94666666D01*
X121642857Y-94714285D01*
X121833333Y-94761904D01*
X122071428Y-94761904D01*
X122261904Y-94714285D01*
X122357142Y-94666666D01*
X122404761Y-94619047D01*
X122452380Y-94523809D01*
X122452380Y-94428571D01*
X122404761Y-94333333D01*
X122357142Y-94285714D01*
X122261904Y-94238095D01*
X122071428Y-94190476D01*
X121833333Y-94190476D01*
X121642857Y-94238095D01*
X121547619Y-94285714D01*
X121500000Y-94333333D01*
X121452380Y-94428571D01*
X127107142Y-108357142D02*
X127154761Y-108309523D01*
X127202380Y-108166666D01*
X127202380Y-108071428D01*
X127154761Y-107928571D01*
X127059523Y-107833333D01*
X126964285Y-107785714D01*
X126773809Y-107738095D01*
X126630952Y-107738095D01*
X126440476Y-107785714D01*
X126345238Y-107833333D01*
X126250000Y-107928571D01*
X126202380Y-108071428D01*
X126202380Y-108166666D01*
X126250000Y-108309523D01*
X126297619Y-108357142D01*
X126202380Y-108690476D02*
X126202380Y-109357142D01*
X127202380Y-108928571D01*
X126535714Y-110166666D02*
X127202380Y-110166666D01*
X126154761Y-109928571D02*
X126869047Y-109690476D01*
X126869047Y-110309523D01*
X127252380Y-100857142D02*
X126776190Y-100523809D01*
X127252380Y-100285714D02*
X126252380Y-100285714D01*
X126252380Y-100666666D01*
X126300000Y-100761904D01*
X126347619Y-100809523D01*
X126442857Y-100857142D01*
X126585714Y-100857142D01*
X126680952Y-100809523D01*
X126728571Y-100761904D01*
X126776190Y-100666666D01*
X126776190Y-100285714D01*
X126347619Y-101238095D02*
X126300000Y-101285714D01*
X126252380Y-101380952D01*
X126252380Y-101619047D01*
X126300000Y-101714285D01*
X126347619Y-101761904D01*
X126442857Y-101809523D01*
X126538095Y-101809523D01*
X126680952Y-101761904D01*
X127252380Y-101190476D01*
X127252380Y-101809523D01*
X127252380Y-102285714D02*
X127252380Y-102476190D01*
X127204761Y-102571428D01*
X127157142Y-102619047D01*
X127014285Y-102714285D01*
X126823809Y-102761904D01*
X126442857Y-102761904D01*
X126347619Y-102714285D01*
X126300000Y-102666666D01*
X126252380Y-102571428D01*
X126252380Y-102380952D01*
X126300000Y-102285714D01*
X126347619Y-102238095D01*
X126442857Y-102190476D01*
X126680952Y-102190476D01*
X126776190Y-102238095D01*
X126823809Y-102285714D01*
X126871428Y-102380952D01*
X126871428Y-102571428D01*
X126823809Y-102666666D01*
X126776190Y-102714285D01*
X126680952Y-102761904D01*
X123202380Y-108357142D02*
X122726190Y-108023809D01*
X123202380Y-107785714D02*
X122202380Y-107785714D01*
X122202380Y-108166666D01*
X122250000Y-108261904D01*
X122297619Y-108309523D01*
X122392857Y-108357142D01*
X122535714Y-108357142D01*
X122630952Y-108309523D01*
X122678571Y-108261904D01*
X122726190Y-108166666D01*
X122726190Y-107785714D01*
X122202380Y-108690476D02*
X122202380Y-109309523D01*
X122583333Y-108976190D01*
X122583333Y-109119047D01*
X122630952Y-109214285D01*
X122678571Y-109261904D01*
X122773809Y-109309523D01*
X123011904Y-109309523D01*
X123107142Y-109261904D01*
X123154761Y-109214285D01*
X123202380Y-109119047D01*
X123202380Y-108833333D01*
X123154761Y-108738095D01*
X123107142Y-108690476D01*
X123202380Y-110261904D02*
X123202380Y-109690476D01*
X123202380Y-109976190D02*
X122202380Y-109976190D01*
X122345238Y-109880952D01*
X122440476Y-109785714D01*
X122488095Y-109690476D01*
X115797619Y-63392857D02*
X116273809Y-63726190D01*
X115797619Y-63964285D02*
X116797619Y-63964285D01*
X116797619Y-63583333D01*
X116750000Y-63488095D01*
X116702380Y-63440476D01*
X116607142Y-63392857D01*
X116464285Y-63392857D01*
X116369047Y-63440476D01*
X116321428Y-63488095D01*
X116273809Y-63583333D01*
X116273809Y-63964285D01*
X116702380Y-63011904D02*
X116750000Y-62964285D01*
X116797619Y-62869047D01*
X116797619Y-62630952D01*
X116750000Y-62535714D01*
X116702380Y-62488095D01*
X116607142Y-62440476D01*
X116511904Y-62440476D01*
X116369047Y-62488095D01*
X115797619Y-63059523D01*
X115797619Y-62440476D01*
X116702380Y-62059523D02*
X116750000Y-62011904D01*
X116797619Y-61916666D01*
X116797619Y-61678571D01*
X116750000Y-61583333D01*
X116702380Y-61535714D01*
X116607142Y-61488095D01*
X116511904Y-61488095D01*
X116369047Y-61535714D01*
X115797619Y-62107142D01*
X115797619Y-61488095D01*
X114952380Y-62107142D02*
X114476190Y-61773809D01*
X114952380Y-61535714D02*
X113952380Y-61535714D01*
X113952380Y-61916666D01*
X114000000Y-62011904D01*
X114047619Y-62059523D01*
X114142857Y-62107142D01*
X114285714Y-62107142D01*
X114380952Y-62059523D01*
X114428571Y-62011904D01*
X114476190Y-61916666D01*
X114476190Y-61535714D01*
X114047619Y-62488095D02*
X114000000Y-62535714D01*
X113952380Y-62630952D01*
X113952380Y-62869047D01*
X114000000Y-62964285D01*
X114047619Y-63011904D01*
X114142857Y-63059523D01*
X114238095Y-63059523D01*
X114380952Y-63011904D01*
X114952380Y-62440476D01*
X114952380Y-63059523D01*
X113952380Y-63392857D02*
X113952380Y-64011904D01*
X114333333Y-63678571D01*
X114333333Y-63821428D01*
X114380952Y-63916666D01*
X114428571Y-63964285D01*
X114523809Y-64011904D01*
X114761904Y-64011904D01*
X114857142Y-63964285D01*
X114904761Y-63916666D01*
X114952380Y-63821428D01*
X114952380Y-63535714D01*
X114904761Y-63440476D01*
X114857142Y-63392857D01*
X119892857Y-67202380D02*
X120226190Y-66726190D01*
X120464285Y-67202380D02*
X120464285Y-66202380D01*
X120083333Y-66202380D01*
X119988095Y-66250000D01*
X119940476Y-66297619D01*
X119892857Y-66392857D01*
X119892857Y-66535714D01*
X119940476Y-66630952D01*
X119988095Y-66678571D01*
X120083333Y-66726190D01*
X120464285Y-66726190D01*
X119511904Y-66297619D02*
X119464285Y-66250000D01*
X119369047Y-66202380D01*
X119130952Y-66202380D01*
X119035714Y-66250000D01*
X118988095Y-66297619D01*
X118940476Y-66392857D01*
X118940476Y-66488095D01*
X118988095Y-66630952D01*
X119559523Y-67202380D01*
X118940476Y-67202380D01*
X118083333Y-66535714D02*
X118083333Y-67202380D01*
X118321428Y-66154761D02*
X118559523Y-66869047D01*
X117940476Y-66869047D01*
X119732142Y-69089285D02*
X119982142Y-68732142D01*
X120160714Y-69089285D02*
X120160714Y-68339285D01*
X119875000Y-68339285D01*
X119803571Y-68375000D01*
X119767857Y-68410714D01*
X119732142Y-68482142D01*
X119732142Y-68589285D01*
X119767857Y-68660714D01*
X119803571Y-68696428D01*
X119875000Y-68732142D01*
X120160714Y-68732142D01*
X119446428Y-68410714D02*
X119410714Y-68375000D01*
X119339285Y-68339285D01*
X119160714Y-68339285D01*
X119089285Y-68375000D01*
X119053571Y-68410714D01*
X119017857Y-68482142D01*
X119017857Y-68553571D01*
X119053571Y-68660714D01*
X119482142Y-69089285D01*
X119017857Y-69089285D01*
X118339285Y-68339285D02*
X118696428Y-68339285D01*
X118732142Y-68696428D01*
X118696428Y-68660714D01*
X118625000Y-68625000D01*
X118446428Y-68625000D01*
X118375000Y-68660714D01*
X118339285Y-68696428D01*
X118303571Y-68767857D01*
X118303571Y-68946428D01*
X118339285Y-69017857D01*
X118375000Y-69053571D01*
X118446428Y-69089285D01*
X118625000Y-69089285D01*
X118696428Y-69053571D01*
X118732142Y-69017857D01*
M02*
