G04 #@! TF.GenerationSoftware,KiCad,Pcbnew,(5.1.4)-1*
G04 #@! TF.CreationDate,2019-09-18T21:55:27+02:00*
G04 #@! TF.ProjectId,rf-receiver,72662d72-6563-4656-9976-65722e6b6963,rev?*
G04 #@! TF.SameCoordinates,Original*
G04 #@! TF.FileFunction,Soldermask,Bot*
G04 #@! TF.FilePolarity,Negative*
%FSLAX46Y46*%
G04 Gerber Fmt 4.6, Leading zero omitted, Abs format (unit mm)*
G04 Created by KiCad (PCBNEW (5.1.4)-1) date 2019-09-18 21:55:27*
%MOMM*%
%LPD*%
G04 APERTURE LIST*
%ADD10O,1.700000X1.700000*%
%ADD11R,1.700000X1.700000*%
%ADD12C,2.600000*%
%ADD13C,0.100000*%
%ADD14C,5.400000*%
%ADD15R,5.080000X1.500000*%
G04 APERTURE END LIST*
D10*
X113750000Y-110370000D03*
X113750000Y-107830000D03*
X113750000Y-105290000D03*
X113750000Y-102750000D03*
D11*
X113750000Y-100210000D03*
D10*
X77710000Y-65990000D03*
X80250000Y-65990000D03*
X77710000Y-68530000D03*
X80250000Y-68530000D03*
X77710000Y-71070000D03*
X80250000Y-71070000D03*
X77710000Y-73610000D03*
X80250000Y-73610000D03*
X77710000Y-76150000D03*
X80250000Y-76150000D03*
X77710000Y-78690000D03*
X80250000Y-78690000D03*
X77710000Y-81230000D03*
X80250000Y-81230000D03*
X77710000Y-83770000D03*
X80250000Y-83770000D03*
X77710000Y-86310000D03*
X80250000Y-86310000D03*
X77710000Y-88850000D03*
X80250000Y-88850000D03*
X77710000Y-91390000D03*
X80250000Y-91390000D03*
X77710000Y-93930000D03*
X80250000Y-93930000D03*
X77710000Y-96470000D03*
X80250000Y-96470000D03*
X77710000Y-99010000D03*
X80250000Y-99010000D03*
X77710000Y-101550000D03*
X80250000Y-101550000D03*
X77710000Y-104090000D03*
X80250000Y-104090000D03*
X77710000Y-106630000D03*
X80250000Y-106630000D03*
X77710000Y-109170000D03*
X80250000Y-109170000D03*
X77710000Y-111710000D03*
X80250000Y-111710000D03*
X77710000Y-114250000D03*
D11*
X80250000Y-114250000D03*
D12*
X85420000Y-120000000D03*
D13*
G36*
X91213711Y-118703130D02*
G01*
X91276809Y-118712490D01*
X91338685Y-118727989D01*
X91398744Y-118749478D01*
X91456408Y-118776751D01*
X91511121Y-118809545D01*
X91562356Y-118847543D01*
X91609619Y-118890381D01*
X91652457Y-118937644D01*
X91690455Y-118988879D01*
X91723249Y-119043592D01*
X91750522Y-119101256D01*
X91772011Y-119161315D01*
X91787510Y-119223191D01*
X91796870Y-119286289D01*
X91800000Y-119350000D01*
X91800000Y-120650000D01*
X91796870Y-120713711D01*
X91787510Y-120776809D01*
X91772011Y-120838685D01*
X91750522Y-120898744D01*
X91723249Y-120956408D01*
X91690455Y-121011121D01*
X91652457Y-121062356D01*
X91609619Y-121109619D01*
X91562356Y-121152457D01*
X91511121Y-121190455D01*
X91456408Y-121223249D01*
X91398744Y-121250522D01*
X91338685Y-121272011D01*
X91276809Y-121287510D01*
X91213711Y-121296870D01*
X91150000Y-121300000D01*
X89850000Y-121300000D01*
X89786289Y-121296870D01*
X89723191Y-121287510D01*
X89661315Y-121272011D01*
X89601256Y-121250522D01*
X89543592Y-121223249D01*
X89488879Y-121190455D01*
X89437644Y-121152457D01*
X89390381Y-121109619D01*
X89347543Y-121062356D01*
X89309545Y-121011121D01*
X89276751Y-120956408D01*
X89249478Y-120898744D01*
X89227989Y-120838685D01*
X89212490Y-120776809D01*
X89203130Y-120713711D01*
X89200000Y-120650000D01*
X89200000Y-119350000D01*
X89203130Y-119286289D01*
X89212490Y-119223191D01*
X89227989Y-119161315D01*
X89249478Y-119101256D01*
X89276751Y-119043592D01*
X89309545Y-118988879D01*
X89347543Y-118937644D01*
X89390381Y-118890381D01*
X89437644Y-118847543D01*
X89488879Y-118809545D01*
X89543592Y-118776751D01*
X89601256Y-118749478D01*
X89661315Y-118727989D01*
X89723191Y-118712490D01*
X89786289Y-118703130D01*
X89850000Y-118700000D01*
X91150000Y-118700000D01*
X91213711Y-118703130D01*
X91213711Y-118703130D01*
G37*
D12*
X90500000Y-120000000D03*
D14*
X79000000Y-119250000D03*
X128000000Y-119250000D03*
X128000000Y-61250000D03*
X79000000Y-61250000D03*
D15*
X128750000Y-75000000D03*
X128750000Y-66500000D03*
D11*
X122250000Y-120000000D03*
D10*
X119710000Y-120000000D03*
X117170000Y-120000000D03*
M02*
